M48
; DRILL file {KiCad (6.0.8)} date Fri Dec 16 18:18:46 2022
; FORMAT={-:-/ absolute / metric / decimal}
; #@! TF.CreationDate,2022-12-16T18:18:46+01:00
; #@! TF.GenerationSoftware,Kicad,Pcbnew,(6.0.8)
; #@! TF.FileFunction,Plated,1,6,PTH
FMAT,2
METRIC
; #@! TA.AperFunction,Plated,PTH,ComponentDrill
T1C0.300
; #@! TA.AperFunction,Plated,PTH,ViaDrill
T2C0.400
; #@! TA.AperFunction,Plated,PTH,ComponentDrill
T3C1.000
; #@! TA.AperFunction,Plated,PTH,ComponentDrill
T4C2.500
%
G90
G05
T1
X99.61Y-84.565
X99.61Y-85.865
X99.61Y-87.165
X99.61Y-88.465
X100.91Y-84.565
X100.91Y-85.865
X100.91Y-87.165
X100.91Y-88.465
T2
X83.24Y-85.255
X83.78Y-93.715
X85.84Y-85.215
X87.64Y-88.555
X89.34Y-88.555
X91.04Y-88.555
X92.36Y-94.015
X92.36Y-95.19
X92.74Y-88.555
X96.385Y-93.99
X96.385Y-95.09
X96.385Y-97.24
X97.36Y-91.685
X97.485Y-97.24
X98.69Y-93.935
X98.69Y-95.055
X103.24Y-96.515
X104.1Y-89.785
X104.13Y-95.595
X105.02Y-90.895
X105.02Y-92.105
X105.02Y-93.405
X107.989Y-88.69
X110.37Y-87.69
X110.37Y-89.84
X110.37Y-92.24
X113.069Y-93.465
T3
X83.78Y-96.135
X86.32Y-96.135
X88.86Y-96.135
X106.64Y-80.895
X106.64Y-96.135
X109.18Y-80.895
X109.18Y-96.135
X111.72Y-80.895
X111.72Y-96.135
X114.26Y-80.895
X114.26Y-96.135
T4
X84.13Y-81.235
T0
M30
