%TF.GenerationSoftware,KiCad,Pcbnew,(6.0.8)*%
%TF.CreationDate,2022-12-16T18:18:29+01:00*%
%TF.ProjectId,Single-DCDC-Converter-Rev3,53696e67-6c65-42d4-9443-44432d436f6e,rev?*%
%TF.SameCoordinates,Original*%
%TF.FileFunction,Copper,L6,Bot*%
%TF.FilePolarity,Positive*%
%FSLAX46Y46*%
G04 Gerber Fmt 4.6, Leading zero omitted, Abs format (unit mm)*
G04 Created by KiCad (PCBNEW (6.0.8)) date 2022-12-16 18:18:29*
%MOMM*%
%LPD*%
G01*
G04 APERTURE LIST*
%TA.AperFunction,ComponentPad*%
%ADD10R,1.700000X1.700000*%
%TD*%
%TA.AperFunction,ComponentPad*%
%ADD11O,1.700000X1.700000*%
%TD*%
%TA.AperFunction,ComponentPad*%
%ADD12C,5.000000*%
%TD*%
%TA.AperFunction,SMDPad,CuDef*%
%ADD13R,2.950000X4.900000*%
%TD*%
%TA.AperFunction,ComponentPad*%
%ADD14C,0.600000*%
%TD*%
%TA.AperFunction,ViaPad*%
%ADD15C,0.800000*%
%TD*%
%TA.AperFunction,Conductor*%
%ADD16C,1.500000*%
%TD*%
%TA.AperFunction,Conductor*%
%ADD17C,1.000000*%
%TD*%
%TA.AperFunction,Conductor*%
%ADD18C,0.500000*%
%TD*%
G04 APERTURE END LIST*
D10*
X83780000Y-96135000D03*
D11*
X86320000Y-96135000D03*
X88860000Y-96135000D03*
D10*
X106640000Y-96135000D03*
D11*
X109180000Y-96135000D03*
X111720000Y-96135000D03*
X114260000Y-96135000D03*
D12*
X84130000Y-81235000D03*
D10*
X106640000Y-80895000D03*
D11*
X109180000Y-80895000D03*
X111720000Y-80895000D03*
X114260000Y-80895000D03*
D13*
X100260000Y-86515000D03*
D14*
X99610000Y-84565000D03*
X99610000Y-88465000D03*
X99610000Y-85865000D03*
X100910000Y-88465000D03*
X100910000Y-87165000D03*
X99610000Y-87165000D03*
X100910000Y-84565000D03*
X100910000Y-85865000D03*
D15*
X96385000Y-93990000D03*
X110370500Y-89840000D03*
X105020000Y-93405000D03*
X98690000Y-95055000D03*
X110370500Y-87690000D03*
X105020000Y-90895000D03*
X113069500Y-93465000D03*
X103240000Y-96515000D03*
X97485000Y-97240000D03*
X96385000Y-97240000D03*
X107989500Y-88690000D03*
X98690000Y-93935000D03*
X104130000Y-95595000D03*
X105020000Y-92105000D03*
X92360000Y-94015000D03*
X110370500Y-92240000D03*
X96385000Y-95090000D03*
X92360000Y-95190000D03*
X87640000Y-88555000D03*
X92740000Y-88555000D03*
X91040000Y-88555000D03*
X89340000Y-88555000D03*
X85840000Y-85215000D03*
X83240000Y-85255000D03*
X83780000Y-93715000D03*
X97360000Y-91685000D03*
X104100000Y-89785000D03*
D16*
X111720000Y-80895000D02*
X111720000Y-96135000D01*
X106640000Y-80895000D02*
X106640000Y-96135000D01*
X114260000Y-80895000D02*
X114260000Y-96135000D01*
X109180000Y-80895000D02*
X109180000Y-96135000D01*
D17*
X97360000Y-91685000D02*
X85810000Y-91685000D01*
X85810000Y-91685000D02*
X83780000Y-93715000D01*
D18*
X104100000Y-94103000D02*
X104100000Y-89785000D01*
X102068000Y-96135000D02*
X88860000Y-96135000D01*
X104100000Y-94103000D02*
X102068000Y-96135000D01*
M02*
