%TF.GenerationSoftware,KiCad,Pcbnew,(6.0.8)*%
%TF.CreationDate,2022-12-16T18:18:29+01:00*%
%TF.ProjectId,Single-DCDC-Converter-Rev3,53696e67-6c65-42d4-9443-44432d436f6e,rev?*%
%TF.SameCoordinates,Original*%
%TF.FileFunction,Legend,Bot*%
%TF.FilePolarity,Positive*%
%FSLAX46Y46*%
G04 Gerber Fmt 4.6, Leading zero omitted, Abs format (unit mm)*
G04 Created by KiCad (PCBNEW (6.0.8)) date 2022-12-16 18:18:29*
%MOMM*%
%LPD*%
G01*
G04 APERTURE LIST*
%ADD10C,0.150000*%
%ADD11C,0.250000*%
%ADD12C,0.200000*%
%ADD13R,1.700000X1.700000*%
%ADD14O,1.700000X1.700000*%
%ADD15C,5.000000*%
G04 APERTURE END LIST*
D10*
X89457142Y-91475809D02*
X90142857Y-92504380D01*
X89076190Y-92313904D02*
X89152380Y-92275809D01*
X89190476Y-92237714D01*
X89228571Y-92161523D01*
X89228571Y-91932952D01*
X89190476Y-91856761D01*
X89152380Y-91818666D01*
X89076190Y-91780571D01*
X88961904Y-91780571D01*
X88885714Y-91818666D01*
X88847619Y-91856761D01*
X88809523Y-91932952D01*
X88809523Y-92161523D01*
X88847619Y-92237714D01*
X88885714Y-92275809D01*
X88961904Y-92313904D01*
X89076190Y-92313904D01*
X88466666Y-92313904D02*
X88466666Y-91513904D01*
X88390476Y-92009142D02*
X88161904Y-92313904D01*
X88161904Y-91780571D02*
X88466666Y-92085333D01*
X87819047Y-92009142D02*
X87209523Y-92009142D01*
X86828571Y-92313904D02*
X86828571Y-91513904D01*
X86828571Y-91818666D02*
X86752380Y-91780571D01*
X86600000Y-91780571D01*
X86523809Y-91818666D01*
X86485714Y-91856761D01*
X86447619Y-91932952D01*
X86447619Y-92161523D01*
X86485714Y-92237714D01*
X86523809Y-92275809D01*
X86600000Y-92313904D01*
X86752380Y-92313904D01*
X86828571Y-92275809D01*
X85990476Y-92313904D02*
X86066666Y-92275809D01*
X86104761Y-92199619D01*
X86104761Y-91513904D01*
X85571428Y-92313904D02*
X85647619Y-92275809D01*
X85685714Y-92237714D01*
X85723809Y-92161523D01*
X85723809Y-91932952D01*
X85685714Y-91856761D01*
X85647619Y-91818666D01*
X85571428Y-91780571D01*
X85457142Y-91780571D01*
X85380952Y-91818666D01*
X85342857Y-91856761D01*
X85304761Y-91932952D01*
X85304761Y-92161523D01*
X85342857Y-92237714D01*
X85380952Y-92275809D01*
X85457142Y-92313904D01*
X85571428Y-92313904D01*
X84847619Y-92313904D02*
X84923809Y-92275809D01*
X84961904Y-92237714D01*
X85000000Y-92161523D01*
X85000000Y-91932952D01*
X84961904Y-91856761D01*
X84923809Y-91818666D01*
X84847619Y-91780571D01*
X84733333Y-91780571D01*
X84657142Y-91818666D01*
X84619047Y-91856761D01*
X84580952Y-91932952D01*
X84580952Y-92161523D01*
X84619047Y-92237714D01*
X84657142Y-92275809D01*
X84733333Y-92313904D01*
X84847619Y-92313904D01*
X84238095Y-92313904D02*
X84238095Y-91780571D01*
X84238095Y-91856761D02*
X84200000Y-91818666D01*
X84123809Y-91780571D01*
X84009523Y-91780571D01*
X83933333Y-91818666D01*
X83895238Y-91894857D01*
X83895238Y-92313904D01*
X83895238Y-91894857D02*
X83857142Y-91818666D01*
X83780952Y-91780571D01*
X83666666Y-91780571D01*
X83590476Y-91818666D01*
X83552380Y-91894857D01*
X83552380Y-92313904D01*
X82866666Y-92275809D02*
X82942857Y-92313904D01*
X83095238Y-92313904D01*
X83171428Y-92275809D01*
X83209523Y-92199619D01*
X83209523Y-91894857D01*
X83171428Y-91818666D01*
X83095238Y-91780571D01*
X82942857Y-91780571D01*
X82866666Y-91818666D01*
X82828571Y-91894857D01*
X82828571Y-91971047D01*
X83209523Y-92047238D01*
X82485714Y-92313904D02*
X82485714Y-91780571D01*
X82485714Y-91932952D02*
X82447619Y-91856761D01*
X82409523Y-91818666D01*
X82333333Y-91780571D01*
X82257142Y-91780571D01*
X88257142Y-92801904D02*
X87761904Y-92801904D01*
X88028571Y-93106666D01*
X87914285Y-93106666D01*
X87838095Y-93144761D01*
X87800000Y-93182857D01*
X87761904Y-93259047D01*
X87761904Y-93449523D01*
X87800000Y-93525714D01*
X87838095Y-93563809D01*
X87914285Y-93601904D01*
X88142857Y-93601904D01*
X88219047Y-93563809D01*
X88257142Y-93525714D01*
X87457142Y-93373333D02*
X87076190Y-93373333D01*
X87533333Y-93601904D02*
X87266666Y-92801904D01*
X87000000Y-93601904D01*
X86123809Y-93601904D02*
X86123809Y-92801904D01*
X85857142Y-93373333D01*
X85590476Y-92801904D01*
X85590476Y-93601904D01*
X84866666Y-93601904D02*
X84866666Y-93182857D01*
X84904761Y-93106666D01*
X84980952Y-93068571D01*
X85133333Y-93068571D01*
X85209523Y-93106666D01*
X84866666Y-93563809D02*
X84942857Y-93601904D01*
X85133333Y-93601904D01*
X85209523Y-93563809D01*
X85247619Y-93487619D01*
X85247619Y-93411428D01*
X85209523Y-93335238D01*
X85133333Y-93297142D01*
X84942857Y-93297142D01*
X84866666Y-93259047D01*
X84561904Y-93601904D02*
X84142857Y-93068571D01*
X84561904Y-93068571D02*
X84142857Y-93601904D01*
X90600000Y-94889904D02*
X90600000Y-94089904D01*
X90333333Y-94661333D01*
X90066666Y-94089904D01*
X90066666Y-94889904D01*
X89228571Y-94813714D02*
X89266666Y-94851809D01*
X89380952Y-94889904D01*
X89457142Y-94889904D01*
X89571428Y-94851809D01*
X89647619Y-94775619D01*
X89685714Y-94699428D01*
X89723809Y-94547047D01*
X89723809Y-94432761D01*
X89685714Y-94280380D01*
X89647619Y-94204190D01*
X89571428Y-94128000D01*
X89457142Y-94089904D01*
X89380952Y-94089904D01*
X89266666Y-94128000D01*
X89228571Y-94166095D01*
X88885714Y-94089904D02*
X88885714Y-94737523D01*
X88847619Y-94813714D01*
X88809523Y-94851809D01*
X88733333Y-94889904D01*
X88580952Y-94889904D01*
X88504761Y-94851809D01*
X88466666Y-94813714D01*
X88428571Y-94737523D01*
X88428571Y-94089904D01*
X87019047Y-94128000D02*
X87095238Y-94089904D01*
X87209523Y-94089904D01*
X87323809Y-94128000D01*
X87400000Y-94204190D01*
X87438095Y-94280380D01*
X87476190Y-94432761D01*
X87476190Y-94547047D01*
X87438095Y-94699428D01*
X87400000Y-94775619D01*
X87323809Y-94851809D01*
X87209523Y-94889904D01*
X87133333Y-94889904D01*
X87019047Y-94851809D01*
X86980952Y-94813714D01*
X86980952Y-94547047D01*
X87133333Y-94547047D01*
X86638095Y-94889904D02*
X86638095Y-94089904D01*
X86180952Y-94889904D01*
X86180952Y-94089904D01*
X85800000Y-94889904D02*
X85800000Y-94089904D01*
X85609523Y-94089904D01*
X85495238Y-94128000D01*
X85419047Y-94204190D01*
X85380952Y-94280380D01*
X85342857Y-94432761D01*
X85342857Y-94547047D01*
X85380952Y-94699428D01*
X85419047Y-94775619D01*
X85495238Y-94851809D01*
X85609523Y-94889904D01*
X85800000Y-94889904D01*
X84504761Y-94089904D02*
X84238095Y-94889904D01*
X83971428Y-94089904D01*
X83552380Y-94089904D02*
X83400000Y-94089904D01*
X83323809Y-94128000D01*
X83247619Y-94204190D01*
X83209523Y-94356571D01*
X83209523Y-94623238D01*
X83247619Y-94775619D01*
X83323809Y-94851809D01*
X83400000Y-94889904D01*
X83552380Y-94889904D01*
X83628571Y-94851809D01*
X83704761Y-94775619D01*
X83742857Y-94623238D01*
X83742857Y-94356571D01*
X83704761Y-94204190D01*
X83628571Y-94128000D01*
X83552380Y-94089904D01*
X82866666Y-94089904D02*
X82866666Y-94737523D01*
X82828571Y-94813714D01*
X82790476Y-94851809D01*
X82714285Y-94889904D01*
X82561904Y-94889904D01*
X82485714Y-94851809D01*
X82447619Y-94813714D01*
X82409523Y-94737523D01*
X82409523Y-94089904D01*
X82142857Y-94089904D02*
X81685714Y-94089904D01*
X81914285Y-94889904D02*
X81914285Y-94089904D01*
D11*
X114883333Y-83242857D02*
X113892857Y-83242857D01*
X112283333Y-83242857D02*
X111292857Y-83242857D01*
X111788095Y-83738095D02*
X111788095Y-82747619D01*
X109683333Y-83242857D02*
X108692857Y-83242857D01*
X107083333Y-83242857D02*
X106092857Y-83242857D01*
X106588095Y-83738095D02*
X106588095Y-82747619D01*
X114913333Y-93912857D02*
X113922857Y-93912857D01*
X112313333Y-93912857D02*
X111322857Y-93912857D01*
X111818095Y-94408095D02*
X111818095Y-93417619D01*
X109713333Y-93912857D02*
X108722857Y-93912857D01*
X107113333Y-93912857D02*
X106122857Y-93912857D01*
X106618095Y-94408095D02*
X106618095Y-93417619D01*
D12*
X101590476Y-79297904D02*
X101133333Y-79297904D01*
X101361904Y-80097904D02*
X101361904Y-79297904D01*
X100866666Y-80097904D02*
X100866666Y-79297904D01*
X100561904Y-79297904D01*
X100485714Y-79336000D01*
X100447619Y-79374095D01*
X100409523Y-79450285D01*
X100409523Y-79564571D01*
X100447619Y-79640761D01*
X100485714Y-79678857D01*
X100561904Y-79716952D01*
X100866666Y-79716952D01*
X100104761Y-80059809D02*
X99990476Y-80097904D01*
X99800000Y-80097904D01*
X99723809Y-80059809D01*
X99685714Y-80021714D01*
X99647619Y-79945523D01*
X99647619Y-79869333D01*
X99685714Y-79793142D01*
X99723809Y-79755047D01*
X99800000Y-79716952D01*
X99952380Y-79678857D01*
X100028571Y-79640761D01*
X100066666Y-79602666D01*
X100104761Y-79526476D01*
X100104761Y-79450285D01*
X100066666Y-79374095D01*
X100028571Y-79336000D01*
X99952380Y-79297904D01*
X99761904Y-79297904D01*
X99647619Y-79336000D01*
X98923809Y-79297904D02*
X99304761Y-79297904D01*
X99342857Y-79678857D01*
X99304761Y-79640761D01*
X99228571Y-79602666D01*
X99038095Y-79602666D01*
X98961904Y-79640761D01*
X98923809Y-79678857D01*
X98885714Y-79755047D01*
X98885714Y-79945523D01*
X98923809Y-80021714D01*
X98961904Y-80059809D01*
X99038095Y-80097904D01*
X99228571Y-80097904D01*
X99304761Y-80059809D01*
X99342857Y-80021714D01*
X98200000Y-79564571D02*
X98200000Y-80097904D01*
X98390476Y-79259809D02*
X98580952Y-79831238D01*
X98085714Y-79831238D01*
X97857142Y-79297904D02*
X97361904Y-79297904D01*
X97628571Y-79602666D01*
X97514285Y-79602666D01*
X97438095Y-79640761D01*
X97400000Y-79678857D01*
X97361904Y-79755047D01*
X97361904Y-79945523D01*
X97400000Y-80021714D01*
X97438095Y-80059809D01*
X97514285Y-80097904D01*
X97742857Y-80097904D01*
X97819047Y-80059809D01*
X97857142Y-80021714D01*
X96866666Y-79297904D02*
X96790476Y-79297904D01*
X96714285Y-79336000D01*
X96676190Y-79374095D01*
X96638095Y-79450285D01*
X96600000Y-79602666D01*
X96600000Y-79793142D01*
X96638095Y-79945523D01*
X96676190Y-80021714D01*
X96714285Y-80059809D01*
X96790476Y-80097904D01*
X96866666Y-80097904D01*
X96942857Y-80059809D01*
X96980952Y-80021714D01*
X97019047Y-79945523D01*
X97057142Y-79793142D01*
X97057142Y-79602666D01*
X97019047Y-79450285D01*
X96980952Y-79374095D01*
X96942857Y-79336000D01*
X96866666Y-79297904D01*
X95190476Y-80097904D02*
X95457142Y-79716952D01*
X95647619Y-80097904D02*
X95647619Y-79297904D01*
X95342857Y-79297904D01*
X95266666Y-79336000D01*
X95228571Y-79374095D01*
X95190476Y-79450285D01*
X95190476Y-79564571D01*
X95228571Y-79640761D01*
X95266666Y-79678857D01*
X95342857Y-79716952D01*
X95647619Y-79716952D01*
X94847619Y-79678857D02*
X94580952Y-79678857D01*
X94466666Y-80097904D02*
X94847619Y-80097904D01*
X94847619Y-79297904D01*
X94466666Y-79297904D01*
X94238095Y-79297904D02*
X93971428Y-80097904D01*
X93704761Y-79297904D01*
X93476190Y-79374095D02*
X93438095Y-79336000D01*
X93361904Y-79297904D01*
X93171428Y-79297904D01*
X93095238Y-79336000D01*
X93057142Y-79374095D01*
X93019047Y-79450285D01*
X93019047Y-79526476D01*
X93057142Y-79640761D01*
X93514285Y-80097904D01*
X93019047Y-80097904D01*
X92066666Y-79793142D02*
X91457142Y-79793142D01*
X90123809Y-79297904D02*
X90276190Y-79297904D01*
X90352380Y-79336000D01*
X90390476Y-79374095D01*
X90466666Y-79488380D01*
X90504761Y-79640761D01*
X90504761Y-79945523D01*
X90466666Y-80021714D01*
X90428571Y-80059809D01*
X90352380Y-80097904D01*
X90200000Y-80097904D01*
X90123809Y-80059809D01*
X90085714Y-80021714D01*
X90047619Y-79945523D01*
X90047619Y-79755047D01*
X90085714Y-79678857D01*
X90123809Y-79640761D01*
X90200000Y-79602666D01*
X90352380Y-79602666D01*
X90428571Y-79640761D01*
X90466666Y-79678857D01*
X90504761Y-79755047D01*
X89323809Y-80097904D02*
X89704761Y-80097904D01*
X89704761Y-79297904D01*
X88714285Y-80097904D02*
X88714285Y-79678857D01*
X88752380Y-79602666D01*
X88828571Y-79564571D01*
X88980952Y-79564571D01*
X89057142Y-79602666D01*
X88714285Y-80059809D02*
X88790476Y-80097904D01*
X88980952Y-80097904D01*
X89057142Y-80059809D01*
X89095238Y-79983619D01*
X89095238Y-79907428D01*
X89057142Y-79831238D01*
X88980952Y-79793142D01*
X88790476Y-79793142D01*
X88714285Y-79755047D01*
X88409523Y-79564571D02*
X88219047Y-80097904D01*
X88028571Y-79564571D02*
X88219047Y-80097904D01*
X88295238Y-80288380D01*
X88333333Y-80326476D01*
X88409523Y-80364571D01*
X87419047Y-80059809D02*
X87495238Y-80097904D01*
X87647619Y-80097904D01*
X87723809Y-80059809D01*
X87761904Y-79983619D01*
X87761904Y-79678857D01*
X87723809Y-79602666D01*
X87647619Y-79564571D01*
X87495238Y-79564571D01*
X87419047Y-79602666D01*
X87380952Y-79678857D01*
X87380952Y-79755047D01*
X87761904Y-79831238D01*
X87038095Y-80097904D02*
X87038095Y-79564571D01*
X87038095Y-79716952D02*
X87000000Y-79640761D01*
X86961904Y-79602666D01*
X86885714Y-79564571D01*
X86809523Y-79564571D01*
X96371428Y-81385904D02*
X96638095Y-81004952D01*
X96828571Y-81385904D02*
X96828571Y-80585904D01*
X96523809Y-80585904D01*
X96447619Y-80624000D01*
X96409523Y-80662095D01*
X96371428Y-80738285D01*
X96371428Y-80852571D01*
X96409523Y-80928761D01*
X96447619Y-80966857D01*
X96523809Y-81004952D01*
X96828571Y-81004952D01*
X95609523Y-81385904D02*
X96066666Y-81385904D01*
X95838095Y-81385904D02*
X95838095Y-80585904D01*
X95914285Y-80700190D01*
X95990476Y-80776380D01*
X96066666Y-80814476D01*
X95266666Y-81309714D02*
X95228571Y-81347809D01*
X95266666Y-81385904D01*
X95304761Y-81347809D01*
X95266666Y-81309714D01*
X95266666Y-81385904D01*
X95266666Y-80890666D02*
X95228571Y-80928761D01*
X95266666Y-80966857D01*
X95304761Y-80928761D01*
X95266666Y-80890666D01*
X95266666Y-80966857D01*
X93857142Y-81385904D02*
X94314285Y-81385904D01*
X94085714Y-81385904D02*
X94085714Y-80585904D01*
X94161904Y-80700190D01*
X94238095Y-80776380D01*
X94314285Y-80814476D01*
X93361904Y-80585904D02*
X93285714Y-80585904D01*
X93209523Y-80624000D01*
X93171428Y-80662095D01*
X93133333Y-80738285D01*
X93095238Y-80890666D01*
X93095238Y-81081142D01*
X93133333Y-81233523D01*
X93171428Y-81309714D01*
X93209523Y-81347809D01*
X93285714Y-81385904D01*
X93361904Y-81385904D01*
X93438095Y-81347809D01*
X93476190Y-81309714D01*
X93514285Y-81233523D01*
X93552380Y-81081142D01*
X93552380Y-80890666D01*
X93514285Y-80738285D01*
X93476190Y-80662095D01*
X93438095Y-80624000D01*
X93361904Y-80585904D01*
X92752380Y-81385904D02*
X92752380Y-80585904D01*
X92676190Y-81081142D02*
X92447619Y-81385904D01*
X92447619Y-80852571D02*
X92752380Y-81157333D01*
X92142857Y-81385904D02*
X91952380Y-81385904D01*
X91952380Y-81233523D01*
X92028571Y-81195428D01*
X92104761Y-81119238D01*
X92142857Y-81004952D01*
X92142857Y-80814476D01*
X92104761Y-80700190D01*
X92028571Y-80624000D01*
X91914285Y-80585904D01*
X91761904Y-80585904D01*
X91647619Y-80624000D01*
X91571428Y-80700190D01*
X91533333Y-80814476D01*
X91533333Y-81004952D01*
X91571428Y-81119238D01*
X91647619Y-81195428D01*
X91723809Y-81233523D01*
X91723809Y-81385904D01*
X91533333Y-81385904D01*
X94523809Y-82673904D02*
X94790476Y-82292952D01*
X94980952Y-82673904D02*
X94980952Y-81873904D01*
X94676190Y-81873904D01*
X94600000Y-81912000D01*
X94561904Y-81950095D01*
X94523809Y-82026285D01*
X94523809Y-82140571D01*
X94561904Y-82216761D01*
X94600000Y-82254857D01*
X94676190Y-82292952D01*
X94980952Y-82292952D01*
X94219047Y-81950095D02*
X94180952Y-81912000D01*
X94104761Y-81873904D01*
X93914285Y-81873904D01*
X93838095Y-81912000D01*
X93800000Y-81950095D01*
X93761904Y-82026285D01*
X93761904Y-82102476D01*
X93800000Y-82216761D01*
X94257142Y-82673904D01*
X93761904Y-82673904D01*
X93419047Y-82597714D02*
X93380952Y-82635809D01*
X93419047Y-82673904D01*
X93457142Y-82635809D01*
X93419047Y-82597714D01*
X93419047Y-82673904D01*
X93419047Y-82178666D02*
X93380952Y-82216761D01*
X93419047Y-82254857D01*
X93457142Y-82216761D01*
X93419047Y-82178666D01*
X93419047Y-82254857D01*
X98142857Y-83161904D02*
X98523809Y-83161904D01*
X98561904Y-83542857D01*
X98523809Y-83504761D01*
X98447619Y-83466666D01*
X98257142Y-83466666D01*
X98180952Y-83504761D01*
X98142857Y-83542857D01*
X98104761Y-83619047D01*
X98104761Y-83809523D01*
X98142857Y-83885714D01*
X98180952Y-83923809D01*
X98257142Y-83961904D01*
X98447619Y-83961904D01*
X98523809Y-83923809D01*
X98561904Y-83885714D01*
X97761904Y-83885714D02*
X97723809Y-83923809D01*
X97761904Y-83961904D01*
X97800000Y-83923809D01*
X97761904Y-83885714D01*
X97761904Y-83961904D01*
X97457142Y-83161904D02*
X96923809Y-83161904D01*
X97266666Y-83961904D01*
X96276190Y-83161904D02*
X96428571Y-83161904D01*
X96504761Y-83200000D01*
X96542857Y-83238095D01*
X96619047Y-83352380D01*
X96657142Y-83504761D01*
X96657142Y-83809523D01*
X96619047Y-83885714D01*
X96580952Y-83923809D01*
X96504761Y-83961904D01*
X96352380Y-83961904D01*
X96276190Y-83923809D01*
X96238095Y-83885714D01*
X96200000Y-83809523D01*
X96200000Y-83619047D01*
X96238095Y-83542857D01*
X96276190Y-83504761D01*
X96352380Y-83466666D01*
X96504761Y-83466666D01*
X96580952Y-83504761D01*
X96619047Y-83542857D01*
X96657142Y-83619047D01*
X95857142Y-83961904D02*
X95857142Y-83161904D01*
X95780952Y-83657142D02*
X95552380Y-83961904D01*
X95552380Y-83428571D02*
X95857142Y-83733333D01*
X95247619Y-83961904D02*
X95057142Y-83961904D01*
X95057142Y-83809523D01*
X95133333Y-83771428D01*
X95209523Y-83695238D01*
X95247619Y-83580952D01*
X95247619Y-83390476D01*
X95209523Y-83276190D01*
X95133333Y-83200000D01*
X95019047Y-83161904D01*
X94866666Y-83161904D01*
X94752380Y-83200000D01*
X94676190Y-83276190D01*
X94638095Y-83390476D01*
X94638095Y-83580952D01*
X94676190Y-83695238D01*
X94752380Y-83771428D01*
X94828571Y-83809523D01*
X94828571Y-83961904D01*
X94638095Y-83961904D01*
X93685714Y-83542857D02*
X93076190Y-83542857D01*
X93076190Y-83771428D02*
X93685714Y-83771428D01*
X92161904Y-83161904D02*
X91666666Y-83161904D01*
X91933333Y-83466666D01*
X91819047Y-83466666D01*
X91742857Y-83504761D01*
X91704761Y-83542857D01*
X91666666Y-83619047D01*
X91666666Y-83809523D01*
X91704761Y-83885714D01*
X91742857Y-83923809D01*
X91819047Y-83961904D01*
X92047619Y-83961904D01*
X92123809Y-83923809D01*
X92161904Y-83885714D01*
X91323809Y-83885714D02*
X91285714Y-83923809D01*
X91323809Y-83961904D01*
X91361904Y-83923809D01*
X91323809Y-83885714D01*
X91323809Y-83961904D01*
X91019047Y-83161904D02*
X90523809Y-83161904D01*
X90790476Y-83466666D01*
X90676190Y-83466666D01*
X90600000Y-83504761D01*
X90561904Y-83542857D01*
X90523809Y-83619047D01*
X90523809Y-83809523D01*
X90561904Y-83885714D01*
X90600000Y-83923809D01*
X90676190Y-83961904D01*
X90904761Y-83961904D01*
X90980952Y-83923809D01*
X91019047Y-83885714D01*
X90295238Y-83161904D02*
X90028571Y-83961904D01*
X89761904Y-83161904D01*
X98638095Y-84449904D02*
X98142857Y-84449904D01*
X98409523Y-84754666D01*
X98295238Y-84754666D01*
X98219047Y-84792761D01*
X98180952Y-84830857D01*
X98142857Y-84907047D01*
X98142857Y-85097523D01*
X98180952Y-85173714D01*
X98219047Y-85211809D01*
X98295238Y-85249904D01*
X98523809Y-85249904D01*
X98600000Y-85211809D01*
X98638095Y-85173714D01*
X97800000Y-85173714D02*
X97761904Y-85211809D01*
X97800000Y-85249904D01*
X97838095Y-85211809D01*
X97800000Y-85173714D01*
X97800000Y-85249904D01*
X97457142Y-84526095D02*
X97419047Y-84488000D01*
X97342857Y-84449904D01*
X97152380Y-84449904D01*
X97076190Y-84488000D01*
X97038095Y-84526095D01*
X97000000Y-84602285D01*
X97000000Y-84678476D01*
X97038095Y-84792761D01*
X97495238Y-85249904D01*
X97000000Y-85249904D01*
X96314285Y-84716571D02*
X96314285Y-85249904D01*
X96504761Y-84411809D02*
X96695238Y-84983238D01*
X96200000Y-84983238D01*
X95895238Y-85249904D02*
X95895238Y-84449904D01*
X95819047Y-84945142D02*
X95590476Y-85249904D01*
X95590476Y-84716571D02*
X95895238Y-85021333D01*
X95285714Y-85249904D02*
X95095238Y-85249904D01*
X95095238Y-85097523D01*
X95171428Y-85059428D01*
X95247619Y-84983238D01*
X95285714Y-84868952D01*
X95285714Y-84678476D01*
X95247619Y-84564190D01*
X95171428Y-84488000D01*
X95057142Y-84449904D01*
X94904761Y-84449904D01*
X94790476Y-84488000D01*
X94714285Y-84564190D01*
X94676190Y-84678476D01*
X94676190Y-84868952D01*
X94714285Y-84983238D01*
X94790476Y-85059428D01*
X94866666Y-85097523D01*
X94866666Y-85249904D01*
X94676190Y-85249904D01*
X93723809Y-84830857D02*
X93114285Y-84830857D01*
X93114285Y-85059428D02*
X93723809Y-85059428D01*
X91742857Y-84449904D02*
X92123809Y-84449904D01*
X92161904Y-84830857D01*
X92123809Y-84792761D01*
X92047619Y-84754666D01*
X91857142Y-84754666D01*
X91780952Y-84792761D01*
X91742857Y-84830857D01*
X91704761Y-84907047D01*
X91704761Y-85097523D01*
X91742857Y-85173714D01*
X91780952Y-85211809D01*
X91857142Y-85249904D01*
X92047619Y-85249904D01*
X92123809Y-85211809D01*
X92161904Y-85173714D01*
X91476190Y-84449904D02*
X91209523Y-85249904D01*
X90942857Y-84449904D01*
X98104761Y-86537904D02*
X98561904Y-86537904D01*
X98333333Y-86537904D02*
X98333333Y-85737904D01*
X98409523Y-85852190D01*
X98485714Y-85928380D01*
X98561904Y-85966476D01*
X97761904Y-86461714D02*
X97723809Y-86499809D01*
X97761904Y-86537904D01*
X97800000Y-86499809D01*
X97761904Y-86461714D01*
X97761904Y-86537904D01*
X97342857Y-86537904D02*
X97190476Y-86537904D01*
X97114285Y-86499809D01*
X97076190Y-86461714D01*
X97000000Y-86347428D01*
X96961904Y-86195047D01*
X96961904Y-85890285D01*
X97000000Y-85814095D01*
X97038095Y-85776000D01*
X97114285Y-85737904D01*
X97266666Y-85737904D01*
X97342857Y-85776000D01*
X97380952Y-85814095D01*
X97419047Y-85890285D01*
X97419047Y-86080761D01*
X97380952Y-86156952D01*
X97342857Y-86195047D01*
X97266666Y-86233142D01*
X97114285Y-86233142D01*
X97038095Y-86195047D01*
X97000000Y-86156952D01*
X96961904Y-86080761D01*
X96276190Y-85737904D02*
X96428571Y-85737904D01*
X96504761Y-85776000D01*
X96542857Y-85814095D01*
X96619047Y-85928380D01*
X96657142Y-86080761D01*
X96657142Y-86385523D01*
X96619047Y-86461714D01*
X96580952Y-86499809D01*
X96504761Y-86537904D01*
X96352380Y-86537904D01*
X96276190Y-86499809D01*
X96238095Y-86461714D01*
X96200000Y-86385523D01*
X96200000Y-86195047D01*
X96238095Y-86118857D01*
X96276190Y-86080761D01*
X96352380Y-86042666D01*
X96504761Y-86042666D01*
X96580952Y-86080761D01*
X96619047Y-86118857D01*
X96657142Y-86195047D01*
X95857142Y-86537904D02*
X95857142Y-85737904D01*
X95780952Y-86233142D02*
X95552380Y-86537904D01*
X95552380Y-86004571D02*
X95857142Y-86309333D01*
X95247619Y-86537904D02*
X95057142Y-86537904D01*
X95057142Y-86385523D01*
X95133333Y-86347428D01*
X95209523Y-86271238D01*
X95247619Y-86156952D01*
X95247619Y-85966476D01*
X95209523Y-85852190D01*
X95133333Y-85776000D01*
X95019047Y-85737904D01*
X94866666Y-85737904D01*
X94752380Y-85776000D01*
X94676190Y-85852190D01*
X94638095Y-85966476D01*
X94638095Y-86156952D01*
X94676190Y-86271238D01*
X94752380Y-86347428D01*
X94828571Y-86385523D01*
X94828571Y-86537904D01*
X94638095Y-86537904D01*
X93685714Y-86118857D02*
X93076190Y-86118857D01*
X93076190Y-86347428D02*
X93685714Y-86347428D01*
X92161904Y-85737904D02*
X91628571Y-85737904D01*
X91971428Y-86537904D01*
X91323809Y-86461714D02*
X91285714Y-86499809D01*
X91323809Y-86537904D01*
X91361904Y-86499809D01*
X91323809Y-86461714D01*
X91323809Y-86537904D01*
X90600000Y-86004571D02*
X90600000Y-86537904D01*
X90790476Y-85699809D02*
X90980952Y-86271238D01*
X90485714Y-86271238D01*
X90295238Y-85737904D02*
X90028571Y-86537904D01*
X89761904Y-85737904D01*
X98104761Y-87825904D02*
X98561904Y-87825904D01*
X98333333Y-87825904D02*
X98333333Y-87025904D01*
X98409523Y-87140190D01*
X98485714Y-87216380D01*
X98561904Y-87254476D01*
X97761904Y-87749714D02*
X97723809Y-87787809D01*
X97761904Y-87825904D01*
X97800000Y-87787809D01*
X97761904Y-87749714D01*
X97761904Y-87825904D01*
X97000000Y-87025904D02*
X97380952Y-87025904D01*
X97419047Y-87406857D01*
X97380952Y-87368761D01*
X97304761Y-87330666D01*
X97114285Y-87330666D01*
X97038095Y-87368761D01*
X97000000Y-87406857D01*
X96961904Y-87483047D01*
X96961904Y-87673523D01*
X97000000Y-87749714D01*
X97038095Y-87787809D01*
X97114285Y-87825904D01*
X97304761Y-87825904D01*
X97380952Y-87787809D01*
X97419047Y-87749714D01*
X96276190Y-87292571D02*
X96276190Y-87825904D01*
X96466666Y-86987809D02*
X96657142Y-87559238D01*
X96161904Y-87559238D01*
X95857142Y-87825904D02*
X95857142Y-87025904D01*
X95780952Y-87521142D02*
X95552380Y-87825904D01*
X95552380Y-87292571D02*
X95857142Y-87597333D01*
X95247619Y-87825904D02*
X95057142Y-87825904D01*
X95057142Y-87673523D01*
X95133333Y-87635428D01*
X95209523Y-87559238D01*
X95247619Y-87444952D01*
X95247619Y-87254476D01*
X95209523Y-87140190D01*
X95133333Y-87064000D01*
X95019047Y-87025904D01*
X94866666Y-87025904D01*
X94752380Y-87064000D01*
X94676190Y-87140190D01*
X94638095Y-87254476D01*
X94638095Y-87444952D01*
X94676190Y-87559238D01*
X94752380Y-87635428D01*
X94828571Y-87673523D01*
X94828571Y-87825904D01*
X94638095Y-87825904D01*
X93685714Y-87406857D02*
X93076190Y-87406857D01*
X93076190Y-87635428D02*
X93685714Y-87635428D01*
X92047619Y-87825904D02*
X91895238Y-87825904D01*
X91819047Y-87787809D01*
X91780952Y-87749714D01*
X91704761Y-87635428D01*
X91666666Y-87483047D01*
X91666666Y-87178285D01*
X91704761Y-87102095D01*
X91742857Y-87064000D01*
X91819047Y-87025904D01*
X91971428Y-87025904D01*
X92047619Y-87064000D01*
X92085714Y-87102095D01*
X92123809Y-87178285D01*
X92123809Y-87368761D01*
X92085714Y-87444952D01*
X92047619Y-87483047D01*
X91971428Y-87521142D01*
X91819047Y-87521142D01*
X91742857Y-87483047D01*
X91704761Y-87444952D01*
X91666666Y-87368761D01*
X91323809Y-87749714D02*
X91285714Y-87787809D01*
X91323809Y-87825904D01*
X91361904Y-87787809D01*
X91323809Y-87749714D01*
X91323809Y-87825904D01*
X90980952Y-87102095D02*
X90942857Y-87064000D01*
X90866666Y-87025904D01*
X90676190Y-87025904D01*
X90600000Y-87064000D01*
X90561904Y-87102095D01*
X90523809Y-87178285D01*
X90523809Y-87254476D01*
X90561904Y-87368761D01*
X91019047Y-87825904D01*
X90523809Y-87825904D01*
X90295238Y-87025904D02*
X90028571Y-87825904D01*
X89761904Y-87025904D01*
%LPC*%
D13*
X83780000Y-96135000D03*
D14*
X86320000Y-96135000D03*
X88860000Y-96135000D03*
D13*
X106640000Y-96135000D03*
D14*
X109180000Y-96135000D03*
X111720000Y-96135000D03*
X114260000Y-96135000D03*
D15*
X84130000Y-81235000D03*
D13*
X106640000Y-80895000D03*
D14*
X109180000Y-80895000D03*
X111720000Y-80895000D03*
X114260000Y-80895000D03*
M02*
