%TF.GenerationSoftware,KiCad,Pcbnew,(6.0.8)*%
%TF.CreationDate,2022-12-16T18:18:47+01:00*%
%TF.ProjectId,Single-DCDC-Converter-Rev3,53696e67-6c65-42d4-9443-44432d436f6e,rev?*%
%TF.SameCoordinates,Original*%
%TF.FileFunction,Drillmap*%
%TF.FilePolarity,Positive*%
%FSLAX45Y45*%
G04 Gerber Fmt 4.5, Leading zero omitted, Abs format (unit mm)*
G04 Created by KiCad (PCBNEW (6.0.8)) date 2022-12-16 18:18:47*
%MOMM*%
%LPD*%
G01*
G04 APERTURE LIST*
%ADD10C,0.200000*%
G04 APERTURE END LIST*
D10*
X8124000Y-7835500D02*
X11624000Y-7835500D01*
X11624000Y-7835500D02*
X11624000Y-9835500D01*
X11624000Y-9835500D02*
X8124000Y-9835500D01*
X8124000Y-9835500D02*
X8124000Y-7835500D01*
X8371619Y-10155976D02*
X8371619Y-9955976D01*
X8419238Y-9955976D01*
X8447810Y-9965500D01*
X8466857Y-9984548D01*
X8476381Y-10003595D01*
X8485905Y-10041690D01*
X8485905Y-10070262D01*
X8476381Y-10108357D01*
X8466857Y-10127405D01*
X8447810Y-10146452D01*
X8419238Y-10155976D01*
X8371619Y-10155976D01*
X8571619Y-10155976D02*
X8571619Y-10022643D01*
X8571619Y-10060738D02*
X8581143Y-10041690D01*
X8590667Y-10032167D01*
X8609714Y-10022643D01*
X8628762Y-10022643D01*
X8695429Y-10155976D02*
X8695429Y-10022643D01*
X8695429Y-9955976D02*
X8685905Y-9965500D01*
X8695429Y-9975024D01*
X8704952Y-9965500D01*
X8695429Y-9955976D01*
X8695429Y-9975024D01*
X8819238Y-10155976D02*
X8800190Y-10146452D01*
X8790667Y-10127405D01*
X8790667Y-9955976D01*
X8924000Y-10155976D02*
X8904952Y-10146452D01*
X8895429Y-10127405D01*
X8895429Y-9955976D01*
X9152571Y-10155976D02*
X9152571Y-9955976D01*
X9219238Y-10098833D01*
X9285905Y-9955976D01*
X9285905Y-10155976D01*
X9466857Y-10155976D02*
X9466857Y-10051214D01*
X9457333Y-10032167D01*
X9438286Y-10022643D01*
X9400190Y-10022643D01*
X9381143Y-10032167D01*
X9466857Y-10146452D02*
X9447810Y-10155976D01*
X9400190Y-10155976D01*
X9381143Y-10146452D01*
X9371619Y-10127405D01*
X9371619Y-10108357D01*
X9381143Y-10089310D01*
X9400190Y-10079786D01*
X9447810Y-10079786D01*
X9466857Y-10070262D01*
X9562095Y-10022643D02*
X9562095Y-10222643D01*
X9562095Y-10032167D02*
X9581143Y-10022643D01*
X9619238Y-10022643D01*
X9638286Y-10032167D01*
X9647810Y-10041690D01*
X9657333Y-10060738D01*
X9657333Y-10117881D01*
X9647810Y-10136929D01*
X9638286Y-10146452D01*
X9619238Y-10155976D01*
X9581143Y-10155976D01*
X9562095Y-10146452D01*
X9743048Y-10136929D02*
X9752571Y-10146452D01*
X9743048Y-10155976D01*
X9733524Y-10146452D01*
X9743048Y-10136929D01*
X9743048Y-10155976D01*
X9743048Y-10032167D02*
X9752571Y-10041690D01*
X9743048Y-10051214D01*
X9733524Y-10041690D01*
X9743048Y-10032167D01*
X9743048Y-10051214D01*
M02*
