%TF.GenerationSoftware,KiCad,Pcbnew,(6.0.8)*%
%TF.CreationDate,2022-12-16T18:18:29+01:00*%
%TF.ProjectId,Single-DCDC-Converter-Rev3,53696e67-6c65-42d4-9443-44432d436f6e,rev?*%
%TF.SameCoordinates,Original*%
%TF.FileFunction,Copper,L5,Inr*%
%TF.FilePolarity,Positive*%
%FSLAX46Y46*%
G04 Gerber Fmt 4.6, Leading zero omitted, Abs format (unit mm)*
G04 Created by KiCad (PCBNEW (6.0.8)) date 2022-12-16 18:18:29*
%MOMM*%
%LPD*%
G01*
G04 APERTURE LIST*
%TA.AperFunction,ComponentPad*%
%ADD10R,1.700000X1.700000*%
%TD*%
%TA.AperFunction,ComponentPad*%
%ADD11O,1.700000X1.700000*%
%TD*%
%TA.AperFunction,ComponentPad*%
%ADD12C,5.000000*%
%TD*%
%TA.AperFunction,ComponentPad*%
%ADD13C,0.600000*%
%TD*%
%TA.AperFunction,ViaPad*%
%ADD14C,0.800000*%
%TD*%
G04 APERTURE END LIST*
D10*
X83780000Y-96135000D03*
D11*
X86320000Y-96135000D03*
X88860000Y-96135000D03*
D10*
X106640000Y-96135000D03*
D11*
X109180000Y-96135000D03*
X111720000Y-96135000D03*
X114260000Y-96135000D03*
D12*
X84130000Y-81235000D03*
D10*
X106640000Y-80895000D03*
D11*
X109180000Y-80895000D03*
X111720000Y-80895000D03*
X114260000Y-80895000D03*
D13*
X99610000Y-84565000D03*
X99610000Y-88465000D03*
X99610000Y-85865000D03*
X100910000Y-88465000D03*
X100910000Y-87165000D03*
X99610000Y-87165000D03*
X100910000Y-84565000D03*
X100910000Y-85865000D03*
D14*
X96385000Y-93990000D03*
X110370500Y-89840000D03*
X105020000Y-93405000D03*
X98690000Y-95055000D03*
X110370500Y-87690000D03*
X105020000Y-90895000D03*
X113069500Y-93465000D03*
X103240000Y-96515000D03*
X97485000Y-97240000D03*
X96385000Y-97240000D03*
X107989500Y-88690000D03*
X98690000Y-93935000D03*
X104130000Y-95595000D03*
X105020000Y-92105000D03*
X92360000Y-94015000D03*
X110370500Y-92240000D03*
X96385000Y-95090000D03*
X92360000Y-95190000D03*
X87640000Y-88555000D03*
X92740000Y-88555000D03*
X91040000Y-88555000D03*
X89340000Y-88555000D03*
X85840000Y-85215000D03*
X83240000Y-85255000D03*
X83780000Y-93715000D03*
X97360000Y-91685000D03*
X104100000Y-89785000D03*
%TA.AperFunction,Conductor*%
G36*
X115881621Y-78675502D02*
G01*
X115928114Y-78729158D01*
X115939500Y-78781500D01*
X115939500Y-97928500D01*
X115919498Y-97996621D01*
X115865842Y-98043114D01*
X115813500Y-98054500D01*
X81666500Y-98054500D01*
X81598379Y-98034498D01*
X81551886Y-97980842D01*
X81540500Y-97928500D01*
X81540500Y-97029646D01*
X82629500Y-97029646D01*
X82632618Y-97055846D01*
X82678061Y-97158153D01*
X82686294Y-97166372D01*
X82686295Y-97166373D01*
X82712363Y-97192395D01*
X82757287Y-97237241D01*
X82767924Y-97241944D01*
X82767926Y-97241945D01*
X82805382Y-97258504D01*
X82859673Y-97282506D01*
X82885354Y-97285500D01*
X84674646Y-97285500D01*
X84678350Y-97285059D01*
X84678353Y-97285059D01*
X84685746Y-97284179D01*
X84700846Y-97282382D01*
X84803153Y-97236939D01*
X84882241Y-97157713D01*
X84927506Y-97055327D01*
X84930500Y-97029646D01*
X84930500Y-96104754D01*
X87704967Y-96104754D01*
X87718796Y-96315749D01*
X87720217Y-96321345D01*
X87720218Y-96321350D01*
X87742784Y-96410200D01*
X87770845Y-96520690D01*
X87859369Y-96712714D01*
X87981405Y-96885391D01*
X87985539Y-96889418D01*
X88125727Y-97025983D01*
X88132865Y-97032937D01*
X88137661Y-97036142D01*
X88137664Y-97036144D01*
X88280936Y-97131875D01*
X88308677Y-97150411D01*
X88313985Y-97152692D01*
X88313986Y-97152692D01*
X88497650Y-97231600D01*
X88497653Y-97231601D01*
X88502953Y-97233878D01*
X88508582Y-97235152D01*
X88508583Y-97235152D01*
X88703550Y-97279269D01*
X88703553Y-97279269D01*
X88709186Y-97280544D01*
X88714957Y-97280771D01*
X88714959Y-97280771D01*
X88776989Y-97283208D01*
X88920470Y-97288846D01*
X88926179Y-97288018D01*
X88926183Y-97288018D01*
X89124015Y-97259333D01*
X89124019Y-97259332D01*
X89129730Y-97258504D01*
X89216579Y-97229023D01*
X89324483Y-97192395D01*
X89324488Y-97192393D01*
X89329955Y-97190537D01*
X89373103Y-97166373D01*
X89509395Y-97090046D01*
X89509399Y-97090043D01*
X89514442Y-97087219D01*
X89583667Y-97029646D01*
X105489500Y-97029646D01*
X105492618Y-97055846D01*
X105538061Y-97158153D01*
X105546294Y-97166372D01*
X105546295Y-97166373D01*
X105572363Y-97192395D01*
X105617287Y-97237241D01*
X105627924Y-97241944D01*
X105627926Y-97241945D01*
X105665382Y-97258504D01*
X105719673Y-97282506D01*
X105745354Y-97285500D01*
X107534646Y-97285500D01*
X107538350Y-97285059D01*
X107538353Y-97285059D01*
X107545746Y-97284179D01*
X107560846Y-97282382D01*
X107663153Y-97236939D01*
X107742241Y-97157713D01*
X107787506Y-97055327D01*
X107790500Y-97029646D01*
X107790500Y-96104754D01*
X110564967Y-96104754D01*
X110578796Y-96315749D01*
X110580217Y-96321345D01*
X110580218Y-96321350D01*
X110602784Y-96410200D01*
X110630845Y-96520690D01*
X110719369Y-96712714D01*
X110841405Y-96885391D01*
X110845539Y-96889418D01*
X110985727Y-97025983D01*
X110992865Y-97032937D01*
X110997661Y-97036142D01*
X110997664Y-97036144D01*
X111140936Y-97131875D01*
X111168677Y-97150411D01*
X111173985Y-97152692D01*
X111173986Y-97152692D01*
X111357650Y-97231600D01*
X111357653Y-97231601D01*
X111362953Y-97233878D01*
X111368582Y-97235152D01*
X111368583Y-97235152D01*
X111563550Y-97279269D01*
X111563553Y-97279269D01*
X111569186Y-97280544D01*
X111574957Y-97280771D01*
X111574959Y-97280771D01*
X111636989Y-97283208D01*
X111780470Y-97288846D01*
X111786179Y-97288018D01*
X111786183Y-97288018D01*
X111984015Y-97259333D01*
X111984019Y-97259332D01*
X111989730Y-97258504D01*
X112076579Y-97229023D01*
X112184483Y-97192395D01*
X112184488Y-97192393D01*
X112189955Y-97190537D01*
X112233103Y-97166373D01*
X112369395Y-97090046D01*
X112369399Y-97090043D01*
X112374442Y-97087219D01*
X112537012Y-96952012D01*
X112672219Y-96789442D01*
X112675043Y-96784399D01*
X112675046Y-96784395D01*
X112772713Y-96609998D01*
X112772714Y-96609996D01*
X112775537Y-96604955D01*
X112777393Y-96599488D01*
X112777395Y-96599483D01*
X112841647Y-96410200D01*
X112843504Y-96404730D01*
X112873846Y-96195470D01*
X112875429Y-96135000D01*
X112856081Y-95924440D01*
X112798686Y-95720931D01*
X112787553Y-95698354D01*
X112707719Y-95536469D01*
X112705165Y-95531290D01*
X112578651Y-95361867D01*
X112451236Y-95244086D01*
X112427622Y-95222257D01*
X112427620Y-95222255D01*
X112423381Y-95218337D01*
X112390014Y-95197284D01*
X112249434Y-95108584D01*
X112249433Y-95108584D01*
X112244554Y-95105505D01*
X112048160Y-95027152D01*
X112042503Y-95026027D01*
X112042497Y-95026025D01*
X111846442Y-94987028D01*
X111846440Y-94987028D01*
X111840775Y-94985901D01*
X111835000Y-94985825D01*
X111834996Y-94985825D01*
X111728976Y-94984437D01*
X111629346Y-94983133D01*
X111623649Y-94984112D01*
X111623648Y-94984112D01*
X111426650Y-95017962D01*
X111426649Y-95017962D01*
X111420953Y-95018941D01*
X111222575Y-95092127D01*
X111217614Y-95095079D01*
X111217613Y-95095079D01*
X111171553Y-95122482D01*
X111040856Y-95200238D01*
X110881881Y-95339655D01*
X110750976Y-95505708D01*
X110748287Y-95510819D01*
X110748285Y-95510822D01*
X110734792Y-95536469D01*
X110652523Y-95692836D01*
X110589820Y-95894773D01*
X110564967Y-96104754D01*
X107790500Y-96104754D01*
X107790500Y-95240354D01*
X107787382Y-95214154D01*
X107741939Y-95111847D01*
X107733444Y-95103366D01*
X107670945Y-95040977D01*
X107662713Y-95032759D01*
X107652076Y-95028056D01*
X107652074Y-95028055D01*
X107592538Y-95001735D01*
X107560327Y-94987494D01*
X107534646Y-94984500D01*
X105745354Y-94984500D01*
X105741650Y-94984941D01*
X105741647Y-94984941D01*
X105734254Y-94985821D01*
X105719154Y-94987618D01*
X105710514Y-94991456D01*
X105710513Y-94991456D01*
X105644131Y-95020942D01*
X105616847Y-95033061D01*
X105537759Y-95112287D01*
X105492494Y-95214673D01*
X105489500Y-95240354D01*
X105489500Y-97029646D01*
X89583667Y-97029646D01*
X89677012Y-96952012D01*
X89812219Y-96789442D01*
X89815043Y-96784399D01*
X89815046Y-96784395D01*
X89912713Y-96609998D01*
X89912714Y-96609996D01*
X89915537Y-96604955D01*
X89917393Y-96599488D01*
X89917395Y-96599483D01*
X89981647Y-96410200D01*
X89983504Y-96404730D01*
X90013846Y-96195470D01*
X90015429Y-96135000D01*
X89996081Y-95924440D01*
X89938686Y-95720931D01*
X89927553Y-95698354D01*
X89847719Y-95536469D01*
X89845165Y-95531290D01*
X89718651Y-95361867D01*
X89591236Y-95244086D01*
X89567622Y-95222257D01*
X89567620Y-95222255D01*
X89563381Y-95218337D01*
X89530014Y-95197284D01*
X89389434Y-95108584D01*
X89389433Y-95108584D01*
X89384554Y-95105505D01*
X89188160Y-95027152D01*
X89182503Y-95026027D01*
X89182497Y-95026025D01*
X88986442Y-94987028D01*
X88986440Y-94987028D01*
X88980775Y-94985901D01*
X88975000Y-94985825D01*
X88974996Y-94985825D01*
X88868976Y-94984437D01*
X88769346Y-94983133D01*
X88763649Y-94984112D01*
X88763648Y-94984112D01*
X88566650Y-95017962D01*
X88566649Y-95017962D01*
X88560953Y-95018941D01*
X88362575Y-95092127D01*
X88357614Y-95095079D01*
X88357613Y-95095079D01*
X88311553Y-95122482D01*
X88180856Y-95200238D01*
X88021881Y-95339655D01*
X87890976Y-95505708D01*
X87888287Y-95510819D01*
X87888285Y-95510822D01*
X87874792Y-95536469D01*
X87792523Y-95692836D01*
X87729820Y-95894773D01*
X87704967Y-96104754D01*
X84930500Y-96104754D01*
X84930500Y-95240354D01*
X84927382Y-95214154D01*
X84881939Y-95111847D01*
X84873444Y-95103366D01*
X84810945Y-95040977D01*
X84802713Y-95032759D01*
X84792076Y-95028056D01*
X84792074Y-95028055D01*
X84732538Y-95001735D01*
X84700327Y-94987494D01*
X84674646Y-94984500D01*
X82885354Y-94984500D01*
X82881650Y-94984941D01*
X82881647Y-94984941D01*
X82874254Y-94985821D01*
X82859154Y-94987618D01*
X82850514Y-94991456D01*
X82850513Y-94991456D01*
X82784131Y-95020942D01*
X82756847Y-95033061D01*
X82677759Y-95112287D01*
X82632494Y-95214673D01*
X82629500Y-95240354D01*
X82629500Y-97029646D01*
X81540500Y-97029646D01*
X81540500Y-93707611D01*
X83074394Y-93707611D01*
X83092999Y-93876135D01*
X83151266Y-94035356D01*
X83155502Y-94041659D01*
X83155502Y-94041660D01*
X83168574Y-94061113D01*
X83245830Y-94176083D01*
X83251442Y-94181190D01*
X83251445Y-94181193D01*
X83365612Y-94285077D01*
X83365616Y-94285080D01*
X83371233Y-94290191D01*
X83377906Y-94293814D01*
X83377910Y-94293817D01*
X83513558Y-94367467D01*
X83513560Y-94367468D01*
X83520235Y-94371092D01*
X83527584Y-94373020D01*
X83676883Y-94412188D01*
X83676885Y-94412188D01*
X83684233Y-94414116D01*
X83770609Y-94415473D01*
X83846161Y-94416660D01*
X83846164Y-94416660D01*
X83853760Y-94416779D01*
X83861165Y-94415083D01*
X83861166Y-94415083D01*
X83921586Y-94401245D01*
X84019029Y-94378928D01*
X84170498Y-94302747D01*
X84299423Y-94192634D01*
X84398361Y-94054947D01*
X84406237Y-94035356D01*
X84458766Y-93904687D01*
X84458767Y-93904685D01*
X84461601Y-93897634D01*
X84485490Y-93729778D01*
X84485645Y-93715000D01*
X84483840Y-93700080D01*
X84466188Y-93554220D01*
X84465276Y-93546680D01*
X84405345Y-93388077D01*
X84309312Y-93248349D01*
X84297514Y-93237837D01*
X84188392Y-93140612D01*
X84188388Y-93140610D01*
X84182721Y-93135560D01*
X84032881Y-93056224D01*
X83868441Y-93014919D01*
X83860843Y-93014879D01*
X83860841Y-93014879D01*
X83783668Y-93014475D01*
X83698895Y-93014031D01*
X83691508Y-93015805D01*
X83691504Y-93015805D01*
X83548162Y-93050220D01*
X83534032Y-93053612D01*
X83527288Y-93057093D01*
X83527285Y-93057094D01*
X83522089Y-93059776D01*
X83383369Y-93131375D01*
X83255604Y-93242831D01*
X83158113Y-93381547D01*
X83096524Y-93539513D01*
X83074394Y-93707611D01*
X81540500Y-93707611D01*
X81540500Y-91677611D01*
X96654394Y-91677611D01*
X96672999Y-91846135D01*
X96731266Y-92005356D01*
X96735502Y-92011659D01*
X96735502Y-92011660D01*
X96748574Y-92031113D01*
X96825830Y-92146083D01*
X96831442Y-92151190D01*
X96831445Y-92151193D01*
X96945612Y-92255077D01*
X96945616Y-92255080D01*
X96951233Y-92260191D01*
X96957906Y-92263814D01*
X96957910Y-92263817D01*
X97093558Y-92337467D01*
X97093560Y-92337468D01*
X97100235Y-92341092D01*
X97107584Y-92343020D01*
X97256883Y-92382188D01*
X97256885Y-92382188D01*
X97264233Y-92384116D01*
X97350609Y-92385473D01*
X97426161Y-92386660D01*
X97426164Y-92386660D01*
X97433760Y-92386779D01*
X97441165Y-92385083D01*
X97441166Y-92385083D01*
X97501586Y-92371245D01*
X97599029Y-92348928D01*
X97750498Y-92272747D01*
X97879423Y-92162634D01*
X97978361Y-92024947D01*
X97986237Y-92005356D01*
X98038766Y-91874687D01*
X98038767Y-91874685D01*
X98041601Y-91867634D01*
X98065490Y-91699778D01*
X98065645Y-91685000D01*
X98063840Y-91670080D01*
X98046188Y-91524220D01*
X98045276Y-91516680D01*
X97985345Y-91358077D01*
X97889312Y-91218349D01*
X97877514Y-91207837D01*
X97768392Y-91110612D01*
X97768388Y-91110610D01*
X97762721Y-91105560D01*
X97612881Y-91026224D01*
X97448441Y-90984919D01*
X97440843Y-90984879D01*
X97440841Y-90984879D01*
X97363668Y-90984475D01*
X97278895Y-90984031D01*
X97271508Y-90985805D01*
X97271504Y-90985805D01*
X97128162Y-91020220D01*
X97114032Y-91023612D01*
X97107288Y-91027093D01*
X97107285Y-91027094D01*
X97102089Y-91029776D01*
X96963369Y-91101375D01*
X96835604Y-91212831D01*
X96738113Y-91351547D01*
X96676524Y-91509513D01*
X96654394Y-91677611D01*
X81540500Y-91677611D01*
X81540500Y-89777611D01*
X103394394Y-89777611D01*
X103412999Y-89946135D01*
X103471266Y-90105356D01*
X103475502Y-90111659D01*
X103475502Y-90111660D01*
X103488574Y-90131113D01*
X103565830Y-90246083D01*
X103571442Y-90251190D01*
X103571445Y-90251193D01*
X103685612Y-90355077D01*
X103685616Y-90355080D01*
X103691233Y-90360191D01*
X103697906Y-90363814D01*
X103697910Y-90363817D01*
X103833558Y-90437467D01*
X103833560Y-90437468D01*
X103840235Y-90441092D01*
X103847584Y-90443020D01*
X103996883Y-90482188D01*
X103996885Y-90482188D01*
X104004233Y-90484116D01*
X104090609Y-90485473D01*
X104166161Y-90486660D01*
X104166164Y-90486660D01*
X104173760Y-90486779D01*
X104181165Y-90485083D01*
X104181166Y-90485083D01*
X104241586Y-90471245D01*
X104339029Y-90448928D01*
X104490498Y-90372747D01*
X104619423Y-90262634D01*
X104718361Y-90124947D01*
X104726237Y-90105356D01*
X104778766Y-89974687D01*
X104778767Y-89974685D01*
X104781601Y-89967634D01*
X104805490Y-89799778D01*
X104805645Y-89785000D01*
X104803840Y-89770080D01*
X104786188Y-89624220D01*
X104785276Y-89616680D01*
X104725345Y-89458077D01*
X104629312Y-89318349D01*
X104560208Y-89256779D01*
X104508392Y-89210612D01*
X104508388Y-89210610D01*
X104502721Y-89205560D01*
X104352881Y-89126224D01*
X104188441Y-89084919D01*
X104180843Y-89084879D01*
X104180841Y-89084879D01*
X104103668Y-89084475D01*
X104018895Y-89084031D01*
X104011508Y-89085805D01*
X104011504Y-89085805D01*
X103868162Y-89120220D01*
X103854032Y-89123612D01*
X103847288Y-89127093D01*
X103847285Y-89127094D01*
X103710117Y-89197892D01*
X103703369Y-89201375D01*
X103697647Y-89206367D01*
X103697645Y-89206368D01*
X103642774Y-89254235D01*
X103575604Y-89312831D01*
X103478113Y-89451547D01*
X103416524Y-89609513D01*
X103394394Y-89777611D01*
X81540500Y-89777611D01*
X81540500Y-88547611D01*
X86934394Y-88547611D01*
X86952999Y-88716135D01*
X87011266Y-88875356D01*
X87015502Y-88881659D01*
X87015502Y-88881660D01*
X87028574Y-88901113D01*
X87105830Y-89016083D01*
X87111442Y-89021190D01*
X87111445Y-89021193D01*
X87225612Y-89125077D01*
X87225616Y-89125080D01*
X87231233Y-89130191D01*
X87237906Y-89133814D01*
X87237910Y-89133817D01*
X87373558Y-89207467D01*
X87373560Y-89207468D01*
X87380235Y-89211092D01*
X87387584Y-89213020D01*
X87536883Y-89252188D01*
X87536885Y-89252188D01*
X87544233Y-89254116D01*
X87630609Y-89255473D01*
X87706161Y-89256660D01*
X87706164Y-89256660D01*
X87713760Y-89256779D01*
X87721165Y-89255083D01*
X87721166Y-89255083D01*
X87781586Y-89241245D01*
X87879029Y-89218928D01*
X88030498Y-89142747D01*
X88159423Y-89032634D01*
X88258361Y-88894947D01*
X88266237Y-88875356D01*
X88318766Y-88744687D01*
X88318767Y-88744685D01*
X88321601Y-88737634D01*
X88345490Y-88569778D01*
X88345645Y-88555000D01*
X88344751Y-88547611D01*
X88634394Y-88547611D01*
X88652999Y-88716135D01*
X88711266Y-88875356D01*
X88715502Y-88881659D01*
X88715502Y-88881660D01*
X88728574Y-88901113D01*
X88805830Y-89016083D01*
X88811442Y-89021190D01*
X88811445Y-89021193D01*
X88925612Y-89125077D01*
X88925616Y-89125080D01*
X88931233Y-89130191D01*
X88937906Y-89133814D01*
X88937910Y-89133817D01*
X89073558Y-89207467D01*
X89073560Y-89207468D01*
X89080235Y-89211092D01*
X89087584Y-89213020D01*
X89236883Y-89252188D01*
X89236885Y-89252188D01*
X89244233Y-89254116D01*
X89330609Y-89255473D01*
X89406161Y-89256660D01*
X89406164Y-89256660D01*
X89413760Y-89256779D01*
X89421165Y-89255083D01*
X89421166Y-89255083D01*
X89481586Y-89241245D01*
X89579029Y-89218928D01*
X89730498Y-89142747D01*
X89859423Y-89032634D01*
X89958361Y-88894947D01*
X89966237Y-88875356D01*
X90018766Y-88744687D01*
X90018767Y-88744685D01*
X90021601Y-88737634D01*
X90045490Y-88569778D01*
X90045645Y-88555000D01*
X90044751Y-88547611D01*
X90334394Y-88547611D01*
X90352999Y-88716135D01*
X90411266Y-88875356D01*
X90415502Y-88881659D01*
X90415502Y-88881660D01*
X90428574Y-88901113D01*
X90505830Y-89016083D01*
X90511442Y-89021190D01*
X90511445Y-89021193D01*
X90625612Y-89125077D01*
X90625616Y-89125080D01*
X90631233Y-89130191D01*
X90637906Y-89133814D01*
X90637910Y-89133817D01*
X90773558Y-89207467D01*
X90773560Y-89207468D01*
X90780235Y-89211092D01*
X90787584Y-89213020D01*
X90936883Y-89252188D01*
X90936885Y-89252188D01*
X90944233Y-89254116D01*
X91030609Y-89255473D01*
X91106161Y-89256660D01*
X91106164Y-89256660D01*
X91113760Y-89256779D01*
X91121165Y-89255083D01*
X91121166Y-89255083D01*
X91181586Y-89241245D01*
X91279029Y-89218928D01*
X91430498Y-89142747D01*
X91559423Y-89032634D01*
X91658361Y-88894947D01*
X91666237Y-88875356D01*
X91718766Y-88744687D01*
X91718767Y-88744685D01*
X91721601Y-88737634D01*
X91745490Y-88569778D01*
X91745645Y-88555000D01*
X91744751Y-88547611D01*
X92034394Y-88547611D01*
X92052999Y-88716135D01*
X92111266Y-88875356D01*
X92115502Y-88881659D01*
X92115502Y-88881660D01*
X92128574Y-88901113D01*
X92205830Y-89016083D01*
X92211442Y-89021190D01*
X92211445Y-89021193D01*
X92325612Y-89125077D01*
X92325616Y-89125080D01*
X92331233Y-89130191D01*
X92337906Y-89133814D01*
X92337910Y-89133817D01*
X92473558Y-89207467D01*
X92473560Y-89207468D01*
X92480235Y-89211092D01*
X92487584Y-89213020D01*
X92636883Y-89252188D01*
X92636885Y-89252188D01*
X92644233Y-89254116D01*
X92730609Y-89255473D01*
X92806161Y-89256660D01*
X92806164Y-89256660D01*
X92813760Y-89256779D01*
X92821165Y-89255083D01*
X92821166Y-89255083D01*
X92881586Y-89241245D01*
X92979029Y-89218928D01*
X93130498Y-89142747D01*
X93259423Y-89032634D01*
X93358361Y-88894947D01*
X93366237Y-88875356D01*
X93418766Y-88744687D01*
X93418767Y-88744685D01*
X93421601Y-88737634D01*
X93445490Y-88569778D01*
X93445645Y-88555000D01*
X93443840Y-88540080D01*
X93426188Y-88394220D01*
X93425276Y-88386680D01*
X93365345Y-88228077D01*
X93269312Y-88088349D01*
X93257514Y-88077837D01*
X93148392Y-87980612D01*
X93148388Y-87980610D01*
X93142721Y-87975560D01*
X92992881Y-87896224D01*
X92828441Y-87854919D01*
X92820843Y-87854879D01*
X92820841Y-87854879D01*
X92743668Y-87854475D01*
X92658895Y-87854031D01*
X92651508Y-87855805D01*
X92651504Y-87855805D01*
X92508162Y-87890220D01*
X92494032Y-87893612D01*
X92487288Y-87897093D01*
X92487285Y-87897094D01*
X92482089Y-87899776D01*
X92343369Y-87971375D01*
X92215604Y-88082831D01*
X92118113Y-88221547D01*
X92056524Y-88379513D01*
X92034394Y-88547611D01*
X91744751Y-88547611D01*
X91743840Y-88540080D01*
X91726188Y-88394220D01*
X91725276Y-88386680D01*
X91665345Y-88228077D01*
X91569312Y-88088349D01*
X91557514Y-88077837D01*
X91448392Y-87980612D01*
X91448388Y-87980610D01*
X91442721Y-87975560D01*
X91292881Y-87896224D01*
X91128441Y-87854919D01*
X91120843Y-87854879D01*
X91120841Y-87854879D01*
X91043668Y-87854475D01*
X90958895Y-87854031D01*
X90951508Y-87855805D01*
X90951504Y-87855805D01*
X90808162Y-87890220D01*
X90794032Y-87893612D01*
X90787288Y-87897093D01*
X90787285Y-87897094D01*
X90782089Y-87899776D01*
X90643369Y-87971375D01*
X90515604Y-88082831D01*
X90418113Y-88221547D01*
X90356524Y-88379513D01*
X90334394Y-88547611D01*
X90044751Y-88547611D01*
X90043840Y-88540080D01*
X90026188Y-88394220D01*
X90025276Y-88386680D01*
X89965345Y-88228077D01*
X89869312Y-88088349D01*
X89857514Y-88077837D01*
X89748392Y-87980612D01*
X89748388Y-87980610D01*
X89742721Y-87975560D01*
X89592881Y-87896224D01*
X89428441Y-87854919D01*
X89420843Y-87854879D01*
X89420841Y-87854879D01*
X89343668Y-87854475D01*
X89258895Y-87854031D01*
X89251508Y-87855805D01*
X89251504Y-87855805D01*
X89108162Y-87890220D01*
X89094032Y-87893612D01*
X89087288Y-87897093D01*
X89087285Y-87897094D01*
X89082089Y-87899776D01*
X88943369Y-87971375D01*
X88815604Y-88082831D01*
X88718113Y-88221547D01*
X88656524Y-88379513D01*
X88634394Y-88547611D01*
X88344751Y-88547611D01*
X88343840Y-88540080D01*
X88326188Y-88394220D01*
X88325276Y-88386680D01*
X88265345Y-88228077D01*
X88169312Y-88088349D01*
X88157514Y-88077837D01*
X88048392Y-87980612D01*
X88048388Y-87980610D01*
X88042721Y-87975560D01*
X87892881Y-87896224D01*
X87728441Y-87854919D01*
X87720843Y-87854879D01*
X87720841Y-87854879D01*
X87643668Y-87854475D01*
X87558895Y-87854031D01*
X87551508Y-87855805D01*
X87551504Y-87855805D01*
X87408162Y-87890220D01*
X87394032Y-87893612D01*
X87387288Y-87897093D01*
X87387285Y-87897094D01*
X87382089Y-87899776D01*
X87243369Y-87971375D01*
X87115604Y-88082831D01*
X87018113Y-88221547D01*
X86956524Y-88379513D01*
X86934394Y-88547611D01*
X81540500Y-88547611D01*
X81540500Y-85247611D01*
X82534394Y-85247611D01*
X82552999Y-85416135D01*
X82560867Y-85437634D01*
X82606054Y-85561113D01*
X82611266Y-85575356D01*
X82615502Y-85581659D01*
X82615502Y-85581660D01*
X82628574Y-85601113D01*
X82705830Y-85716083D01*
X82711442Y-85721190D01*
X82711445Y-85721193D01*
X82825612Y-85825077D01*
X82825616Y-85825080D01*
X82831233Y-85830191D01*
X82837906Y-85833814D01*
X82837910Y-85833817D01*
X82973558Y-85907467D01*
X82973560Y-85907468D01*
X82980235Y-85911092D01*
X82987584Y-85913020D01*
X83136883Y-85952188D01*
X83136885Y-85952188D01*
X83144233Y-85954116D01*
X83230609Y-85955473D01*
X83306161Y-85956660D01*
X83306164Y-85956660D01*
X83313760Y-85956779D01*
X83321165Y-85955083D01*
X83321166Y-85955083D01*
X83381586Y-85941245D01*
X83479029Y-85918928D01*
X83630498Y-85842747D01*
X83759423Y-85732634D01*
X83858361Y-85594947D01*
X83866237Y-85575356D01*
X83918766Y-85444687D01*
X83918767Y-85444685D01*
X83921601Y-85437634D01*
X83945490Y-85269778D01*
X83945645Y-85255000D01*
X83943840Y-85240080D01*
X83939911Y-85207611D01*
X85134394Y-85207611D01*
X85152999Y-85376135D01*
X85211266Y-85535356D01*
X85215502Y-85541659D01*
X85215502Y-85541660D01*
X85228574Y-85561113D01*
X85305830Y-85676083D01*
X85311442Y-85681190D01*
X85311445Y-85681193D01*
X85425612Y-85785077D01*
X85425616Y-85785080D01*
X85431233Y-85790191D01*
X85437906Y-85793814D01*
X85437910Y-85793817D01*
X85573558Y-85867467D01*
X85573560Y-85867468D01*
X85580235Y-85871092D01*
X85587584Y-85873020D01*
X85736883Y-85912188D01*
X85736885Y-85912188D01*
X85744233Y-85914116D01*
X85830609Y-85915473D01*
X85906161Y-85916660D01*
X85906164Y-85916660D01*
X85913760Y-85916779D01*
X85921165Y-85915083D01*
X85921166Y-85915083D01*
X85981586Y-85901245D01*
X86079029Y-85878928D01*
X86230498Y-85802747D01*
X86359423Y-85692634D01*
X86458361Y-85554947D01*
X86466237Y-85535356D01*
X86518766Y-85404687D01*
X86518767Y-85404685D01*
X86521601Y-85397634D01*
X86541878Y-85255161D01*
X86544909Y-85233862D01*
X86544909Y-85233859D01*
X86545490Y-85229778D01*
X86545645Y-85215000D01*
X86543840Y-85200080D01*
X86530161Y-85087047D01*
X86525276Y-85046680D01*
X86465345Y-84888077D01*
X86397282Y-84789045D01*
X86373614Y-84754608D01*
X86373613Y-84754607D01*
X86369312Y-84748349D01*
X86357514Y-84737837D01*
X86248392Y-84640612D01*
X86248388Y-84640610D01*
X86242721Y-84635560D01*
X86092881Y-84556224D01*
X85928441Y-84514919D01*
X85920843Y-84514879D01*
X85920841Y-84514879D01*
X85843668Y-84514475D01*
X85758895Y-84514031D01*
X85751508Y-84515805D01*
X85751504Y-84515805D01*
X85608162Y-84550220D01*
X85594032Y-84553612D01*
X85587288Y-84557093D01*
X85587285Y-84557094D01*
X85509787Y-84597094D01*
X85443369Y-84631375D01*
X85437647Y-84636367D01*
X85437645Y-84636368D01*
X85391792Y-84676368D01*
X85315604Y-84742831D01*
X85218113Y-84881547D01*
X85156524Y-85039513D01*
X85155532Y-85047046D01*
X85155532Y-85047047D01*
X85151250Y-85079577D01*
X85134394Y-85207611D01*
X83939911Y-85207611D01*
X83926188Y-85094220D01*
X83925276Y-85086680D01*
X83865345Y-84928077D01*
X83769312Y-84788349D01*
X83757514Y-84777837D01*
X83648392Y-84680612D01*
X83648388Y-84680610D01*
X83642721Y-84675560D01*
X83492881Y-84596224D01*
X83328441Y-84554919D01*
X83320843Y-84554879D01*
X83320841Y-84554879D01*
X83243668Y-84554475D01*
X83158895Y-84554031D01*
X83151508Y-84555805D01*
X83151504Y-84555805D01*
X83008162Y-84590220D01*
X82994032Y-84593612D01*
X82987288Y-84597093D01*
X82987285Y-84597094D01*
X82902971Y-84640612D01*
X82843369Y-84671375D01*
X82715604Y-84782831D01*
X82711237Y-84789045D01*
X82641250Y-84888627D01*
X82618113Y-84921547D01*
X82556524Y-85079513D01*
X82555532Y-85087046D01*
X82555532Y-85087047D01*
X82536742Y-85229778D01*
X82534394Y-85247611D01*
X81540500Y-85247611D01*
X81540500Y-81789646D01*
X105489500Y-81789646D01*
X105492618Y-81815846D01*
X105538061Y-81918153D01*
X105546294Y-81926372D01*
X105546295Y-81926373D01*
X105572363Y-81952395D01*
X105617287Y-81997241D01*
X105627924Y-82001944D01*
X105627926Y-82001945D01*
X105665382Y-82018504D01*
X105719673Y-82042506D01*
X105745354Y-82045500D01*
X107534646Y-82045500D01*
X107538350Y-82045059D01*
X107538353Y-82045059D01*
X107545746Y-82044179D01*
X107560846Y-82042382D01*
X107663153Y-81996939D01*
X107742241Y-81917713D01*
X107787506Y-81815327D01*
X107790500Y-81789646D01*
X107790500Y-80864754D01*
X110564967Y-80864754D01*
X110578796Y-81075749D01*
X110580217Y-81081345D01*
X110580218Y-81081350D01*
X110602784Y-81170200D01*
X110630845Y-81280690D01*
X110719369Y-81472714D01*
X110841405Y-81645391D01*
X110845539Y-81649418D01*
X110985727Y-81785983D01*
X110992865Y-81792937D01*
X110997661Y-81796142D01*
X110997664Y-81796144D01*
X111140936Y-81891875D01*
X111168677Y-81910411D01*
X111173985Y-81912692D01*
X111173986Y-81912692D01*
X111357650Y-81991600D01*
X111357653Y-81991601D01*
X111362953Y-81993878D01*
X111368582Y-81995152D01*
X111368583Y-81995152D01*
X111563550Y-82039269D01*
X111563553Y-82039269D01*
X111569186Y-82040544D01*
X111574957Y-82040771D01*
X111574959Y-82040771D01*
X111636989Y-82043208D01*
X111780470Y-82048846D01*
X111786179Y-82048018D01*
X111786183Y-82048018D01*
X111984015Y-82019333D01*
X111984019Y-82019332D01*
X111989730Y-82018504D01*
X112076579Y-81989023D01*
X112184483Y-81952395D01*
X112184488Y-81952393D01*
X112189955Y-81950537D01*
X112233103Y-81926373D01*
X112369395Y-81850046D01*
X112369399Y-81850043D01*
X112374442Y-81847219D01*
X112537012Y-81712012D01*
X112672219Y-81549442D01*
X112675043Y-81544399D01*
X112675046Y-81544395D01*
X112772713Y-81369998D01*
X112772714Y-81369996D01*
X112775537Y-81364955D01*
X112777393Y-81359488D01*
X112777395Y-81359483D01*
X112841647Y-81170200D01*
X112843504Y-81164730D01*
X112873846Y-80955470D01*
X112875429Y-80895000D01*
X112856081Y-80684440D01*
X112798686Y-80480931D01*
X112787553Y-80458354D01*
X112707719Y-80296469D01*
X112705165Y-80291290D01*
X112578651Y-80121867D01*
X112451236Y-80004086D01*
X112427622Y-79982257D01*
X112427620Y-79982255D01*
X112423381Y-79978337D01*
X112390014Y-79957284D01*
X112249434Y-79868584D01*
X112249433Y-79868584D01*
X112244554Y-79865505D01*
X112048160Y-79787152D01*
X112042503Y-79786027D01*
X112042497Y-79786025D01*
X111846442Y-79747028D01*
X111846440Y-79747028D01*
X111840775Y-79745901D01*
X111835000Y-79745825D01*
X111834996Y-79745825D01*
X111728976Y-79744437D01*
X111629346Y-79743133D01*
X111623649Y-79744112D01*
X111623648Y-79744112D01*
X111426650Y-79777962D01*
X111426649Y-79777962D01*
X111420953Y-79778941D01*
X111222575Y-79852127D01*
X111217614Y-79855079D01*
X111217613Y-79855079D01*
X111171553Y-79882482D01*
X111040856Y-79960238D01*
X110881881Y-80099655D01*
X110750976Y-80265708D01*
X110748287Y-80270819D01*
X110748285Y-80270822D01*
X110734792Y-80296469D01*
X110652523Y-80452836D01*
X110589820Y-80654773D01*
X110564967Y-80864754D01*
X107790500Y-80864754D01*
X107790500Y-80000354D01*
X107787382Y-79974154D01*
X107741939Y-79871847D01*
X107733444Y-79863366D01*
X107670945Y-79800977D01*
X107662713Y-79792759D01*
X107652076Y-79788056D01*
X107652074Y-79788055D01*
X107592538Y-79761735D01*
X107560327Y-79747494D01*
X107534646Y-79744500D01*
X105745354Y-79744500D01*
X105741650Y-79744941D01*
X105741647Y-79744941D01*
X105734254Y-79745821D01*
X105719154Y-79747618D01*
X105710514Y-79751456D01*
X105710513Y-79751456D01*
X105644131Y-79780942D01*
X105616847Y-79793061D01*
X105537759Y-79872287D01*
X105492494Y-79974673D01*
X105489500Y-80000354D01*
X105489500Y-81789646D01*
X81540500Y-81789646D01*
X81540500Y-78781500D01*
X81560502Y-78713379D01*
X81614158Y-78666886D01*
X81666500Y-78655500D01*
X115813500Y-78655500D01*
X115881621Y-78675502D01*
G37*
%TD.AperFunction*%
M02*
