%TF.GenerationSoftware,KiCad,Pcbnew,(6.0.8)*%
%TF.CreationDate,2022-12-16T18:18:29+01:00*%
%TF.ProjectId,Single-DCDC-Converter-Rev3,53696e67-6c65-42d4-9443-44432d436f6e,rev?*%
%TF.SameCoordinates,Original*%
%TF.FileFunction,Copper,L2,Inr*%
%TF.FilePolarity,Positive*%
%FSLAX46Y46*%
G04 Gerber Fmt 4.6, Leading zero omitted, Abs format (unit mm)*
G04 Created by KiCad (PCBNEW (6.0.8)) date 2022-12-16 18:18:29*
%MOMM*%
%LPD*%
G01*
G04 APERTURE LIST*
%TA.AperFunction,ComponentPad*%
%ADD10R,1.700000X1.700000*%
%TD*%
%TA.AperFunction,ComponentPad*%
%ADD11O,1.700000X1.700000*%
%TD*%
%TA.AperFunction,ComponentPad*%
%ADD12C,5.000000*%
%TD*%
%TA.AperFunction,ComponentPad*%
%ADD13C,0.600000*%
%TD*%
%TA.AperFunction,ViaPad*%
%ADD14C,0.800000*%
%TD*%
G04 APERTURE END LIST*
D10*
X83780000Y-96135000D03*
D11*
X86320000Y-96135000D03*
X88860000Y-96135000D03*
D10*
X106640000Y-96135000D03*
D11*
X109180000Y-96135000D03*
X111720000Y-96135000D03*
X114260000Y-96135000D03*
D12*
X84130000Y-81235000D03*
D10*
X106640000Y-80895000D03*
D11*
X109180000Y-80895000D03*
X111720000Y-80895000D03*
X114260000Y-80895000D03*
D13*
X99610000Y-84565000D03*
X99610000Y-88465000D03*
X99610000Y-85865000D03*
X100910000Y-88465000D03*
X100910000Y-87165000D03*
X99610000Y-87165000D03*
X100910000Y-84565000D03*
X100910000Y-85865000D03*
D14*
X96385000Y-93990000D03*
X110370500Y-89840000D03*
X105020000Y-93405000D03*
X98690000Y-95055000D03*
X110370500Y-87690000D03*
X105020000Y-90895000D03*
X113069500Y-93465000D03*
X103240000Y-96515000D03*
X97485000Y-97240000D03*
X96385000Y-97240000D03*
X107989500Y-88690000D03*
X98690000Y-93935000D03*
X104130000Y-95595000D03*
X105020000Y-92105000D03*
X92360000Y-94015000D03*
X110370500Y-92240000D03*
X96385000Y-95090000D03*
X92360000Y-95190000D03*
X87640000Y-88555000D03*
X92740000Y-88555000D03*
X91040000Y-88555000D03*
X89340000Y-88555000D03*
X85840000Y-85215000D03*
X83240000Y-85255000D03*
X83780000Y-93715000D03*
X97360000Y-91685000D03*
X104100000Y-89785000D03*
%TA.AperFunction,Conductor*%
G36*
X115673621Y-78883502D02*
G01*
X115720114Y-78937158D01*
X115731500Y-78989500D01*
X115731500Y-97720500D01*
X115711498Y-97788621D01*
X115657842Y-97835114D01*
X115605500Y-97846500D01*
X81874500Y-97846500D01*
X81806379Y-97826498D01*
X81759886Y-97772842D01*
X81748500Y-97720500D01*
X81748500Y-97033134D01*
X82421500Y-97033134D01*
X82428255Y-97095316D01*
X82479385Y-97231705D01*
X82566739Y-97348261D01*
X82683295Y-97435615D01*
X82819684Y-97486745D01*
X82881866Y-97493500D01*
X84678134Y-97493500D01*
X84740316Y-97486745D01*
X84876705Y-97435615D01*
X84993261Y-97348261D01*
X85080615Y-97231705D01*
X85131745Y-97095316D01*
X85138500Y-97033134D01*
X85138500Y-96101695D01*
X87497251Y-96101695D01*
X87497548Y-96106848D01*
X87497548Y-96106851D01*
X87503011Y-96201590D01*
X87510110Y-96324715D01*
X87511247Y-96329761D01*
X87511248Y-96329767D01*
X87531119Y-96417939D01*
X87559222Y-96542639D01*
X87643266Y-96749616D01*
X87759987Y-96940088D01*
X87906250Y-97108938D01*
X88078126Y-97251632D01*
X88271000Y-97364338D01*
X88479692Y-97444030D01*
X88484760Y-97445061D01*
X88484763Y-97445062D01*
X88592017Y-97466883D01*
X88698597Y-97488567D01*
X88703772Y-97488757D01*
X88703774Y-97488757D01*
X88916673Y-97496564D01*
X88916677Y-97496564D01*
X88921837Y-97496753D01*
X88926957Y-97496097D01*
X88926959Y-97496097D01*
X89138288Y-97469025D01*
X89138289Y-97469025D01*
X89143416Y-97468368D01*
X89148366Y-97466883D01*
X89352429Y-97405661D01*
X89352434Y-97405659D01*
X89357384Y-97404174D01*
X89557994Y-97305896D01*
X89739860Y-97176173D01*
X89883400Y-97033134D01*
X105281500Y-97033134D01*
X105288255Y-97095316D01*
X105339385Y-97231705D01*
X105426739Y-97348261D01*
X105543295Y-97435615D01*
X105679684Y-97486745D01*
X105741866Y-97493500D01*
X107538134Y-97493500D01*
X107600316Y-97486745D01*
X107736705Y-97435615D01*
X107853261Y-97348261D01*
X107940615Y-97231705D01*
X107991745Y-97095316D01*
X107998500Y-97033134D01*
X107998500Y-96101695D01*
X110357251Y-96101695D01*
X110357548Y-96106848D01*
X110357548Y-96106851D01*
X110363011Y-96201590D01*
X110370110Y-96324715D01*
X110371247Y-96329761D01*
X110371248Y-96329767D01*
X110391119Y-96417939D01*
X110419222Y-96542639D01*
X110503266Y-96749616D01*
X110619987Y-96940088D01*
X110766250Y-97108938D01*
X110938126Y-97251632D01*
X111131000Y-97364338D01*
X111339692Y-97444030D01*
X111344760Y-97445061D01*
X111344763Y-97445062D01*
X111452017Y-97466883D01*
X111558597Y-97488567D01*
X111563772Y-97488757D01*
X111563774Y-97488757D01*
X111776673Y-97496564D01*
X111776677Y-97496564D01*
X111781837Y-97496753D01*
X111786957Y-97496097D01*
X111786959Y-97496097D01*
X111998288Y-97469025D01*
X111998289Y-97469025D01*
X112003416Y-97468368D01*
X112008366Y-97466883D01*
X112212429Y-97405661D01*
X112212434Y-97405659D01*
X112217384Y-97404174D01*
X112417994Y-97305896D01*
X112599860Y-97176173D01*
X112758096Y-97018489D01*
X112817594Y-96935689D01*
X112885435Y-96841277D01*
X112888453Y-96837077D01*
X112987430Y-96636811D01*
X113052370Y-96423069D01*
X113081529Y-96201590D01*
X113083156Y-96135000D01*
X113064852Y-95912361D01*
X113010431Y-95695702D01*
X112921354Y-95490840D01*
X112800014Y-95303277D01*
X112649670Y-95138051D01*
X112645619Y-95134852D01*
X112645615Y-95134848D01*
X112478414Y-95002800D01*
X112478410Y-95002798D01*
X112474359Y-94999598D01*
X112278789Y-94891638D01*
X112273920Y-94889914D01*
X112273916Y-94889912D01*
X112073087Y-94818795D01*
X112073083Y-94818794D01*
X112068212Y-94817069D01*
X112063119Y-94816162D01*
X112063116Y-94816161D01*
X111853373Y-94778800D01*
X111853367Y-94778799D01*
X111848284Y-94777894D01*
X111774452Y-94776992D01*
X111630081Y-94775228D01*
X111630079Y-94775228D01*
X111624911Y-94775165D01*
X111404091Y-94808955D01*
X111191756Y-94878357D01*
X110993607Y-94981507D01*
X110989474Y-94984610D01*
X110989471Y-94984612D01*
X110819100Y-95112530D01*
X110814965Y-95115635D01*
X110660629Y-95277138D01*
X110534743Y-95461680D01*
X110440688Y-95664305D01*
X110380989Y-95879570D01*
X110357251Y-96101695D01*
X107998500Y-96101695D01*
X107998500Y-95236866D01*
X107991745Y-95174684D01*
X107940615Y-95038295D01*
X107853261Y-94921739D01*
X107736705Y-94834385D01*
X107600316Y-94783255D01*
X107538134Y-94776500D01*
X105741866Y-94776500D01*
X105679684Y-94783255D01*
X105543295Y-94834385D01*
X105426739Y-94921739D01*
X105339385Y-95038295D01*
X105288255Y-95174684D01*
X105281500Y-95236866D01*
X105281500Y-97033134D01*
X89883400Y-97033134D01*
X89898096Y-97018489D01*
X89957594Y-96935689D01*
X90025435Y-96841277D01*
X90028453Y-96837077D01*
X90127430Y-96636811D01*
X90192370Y-96423069D01*
X90221529Y-96201590D01*
X90223156Y-96135000D01*
X90204852Y-95912361D01*
X90150431Y-95695702D01*
X90061354Y-95490840D01*
X89940014Y-95303277D01*
X89789670Y-95138051D01*
X89785619Y-95134852D01*
X89785615Y-95134848D01*
X89618414Y-95002800D01*
X89618410Y-95002798D01*
X89614359Y-94999598D01*
X89418789Y-94891638D01*
X89413920Y-94889914D01*
X89413916Y-94889912D01*
X89213087Y-94818795D01*
X89213083Y-94818794D01*
X89208212Y-94817069D01*
X89203119Y-94816162D01*
X89203116Y-94816161D01*
X88993373Y-94778800D01*
X88993367Y-94778799D01*
X88988284Y-94777894D01*
X88914452Y-94776992D01*
X88770081Y-94775228D01*
X88770079Y-94775228D01*
X88764911Y-94775165D01*
X88544091Y-94808955D01*
X88331756Y-94878357D01*
X88133607Y-94981507D01*
X88129474Y-94984610D01*
X88129471Y-94984612D01*
X87959100Y-95112530D01*
X87954965Y-95115635D01*
X87800629Y-95277138D01*
X87674743Y-95461680D01*
X87580688Y-95664305D01*
X87520989Y-95879570D01*
X87497251Y-96101695D01*
X85138500Y-96101695D01*
X85138500Y-95236866D01*
X85131745Y-95174684D01*
X85080615Y-95038295D01*
X84993261Y-94921739D01*
X84876705Y-94834385D01*
X84740316Y-94783255D01*
X84678134Y-94776500D01*
X84222248Y-94776500D01*
X84154127Y-94756498D01*
X84107634Y-94702842D01*
X84097530Y-94632568D01*
X84127024Y-94567988D01*
X84170999Y-94535393D01*
X84230722Y-94508803D01*
X84230724Y-94508802D01*
X84236752Y-94506118D01*
X84391253Y-94393866D01*
X84519040Y-94251944D01*
X84614527Y-94086556D01*
X84673542Y-93904928D01*
X84693504Y-93715000D01*
X84673542Y-93525072D01*
X84614527Y-93343444D01*
X84519040Y-93178056D01*
X84391253Y-93036134D01*
X84236752Y-92923882D01*
X84230724Y-92921198D01*
X84230722Y-92921197D01*
X84068319Y-92848891D01*
X84068318Y-92848891D01*
X84062288Y-92846206D01*
X83968888Y-92826353D01*
X83881944Y-92807872D01*
X83881939Y-92807872D01*
X83875487Y-92806500D01*
X83684513Y-92806500D01*
X83678061Y-92807872D01*
X83678056Y-92807872D01*
X83591112Y-92826353D01*
X83497712Y-92846206D01*
X83491682Y-92848891D01*
X83491681Y-92848891D01*
X83329278Y-92921197D01*
X83329276Y-92921198D01*
X83323248Y-92923882D01*
X83168747Y-93036134D01*
X83040960Y-93178056D01*
X82945473Y-93343444D01*
X82886458Y-93525072D01*
X82866496Y-93715000D01*
X82886458Y-93904928D01*
X82945473Y-94086556D01*
X83040960Y-94251944D01*
X83168747Y-94393866D01*
X83323248Y-94506118D01*
X83329276Y-94508802D01*
X83329278Y-94508803D01*
X83389001Y-94535393D01*
X83443097Y-94581373D01*
X83463746Y-94649300D01*
X83444394Y-94717608D01*
X83391183Y-94764610D01*
X83337752Y-94776500D01*
X82881866Y-94776500D01*
X82819684Y-94783255D01*
X82683295Y-94834385D01*
X82566739Y-94921739D01*
X82479385Y-95038295D01*
X82428255Y-95174684D01*
X82421500Y-95236866D01*
X82421500Y-97033134D01*
X81748500Y-97033134D01*
X81748500Y-91685000D01*
X96446496Y-91685000D01*
X96466458Y-91874928D01*
X96525473Y-92056556D01*
X96620960Y-92221944D01*
X96748747Y-92363866D01*
X96903248Y-92476118D01*
X96909276Y-92478802D01*
X96909278Y-92478803D01*
X97071681Y-92551109D01*
X97077712Y-92553794D01*
X97171113Y-92573647D01*
X97258056Y-92592128D01*
X97258061Y-92592128D01*
X97264513Y-92593500D01*
X97455487Y-92593500D01*
X97461939Y-92592128D01*
X97461944Y-92592128D01*
X97548887Y-92573647D01*
X97642288Y-92553794D01*
X97648319Y-92551109D01*
X97810722Y-92478803D01*
X97810724Y-92478802D01*
X97816752Y-92476118D01*
X97971253Y-92363866D01*
X98099040Y-92221944D01*
X98194527Y-92056556D01*
X98253542Y-91874928D01*
X98273504Y-91685000D01*
X98253542Y-91495072D01*
X98194527Y-91313444D01*
X98099040Y-91148056D01*
X97971253Y-91006134D01*
X97816752Y-90893882D01*
X97810724Y-90891198D01*
X97810722Y-90891197D01*
X97648319Y-90818891D01*
X97648318Y-90818891D01*
X97642288Y-90816206D01*
X97548887Y-90796353D01*
X97461944Y-90777872D01*
X97461939Y-90777872D01*
X97455487Y-90776500D01*
X97264513Y-90776500D01*
X97258061Y-90777872D01*
X97258056Y-90777872D01*
X97171113Y-90796353D01*
X97077712Y-90816206D01*
X97071682Y-90818891D01*
X97071681Y-90818891D01*
X96909278Y-90891197D01*
X96909276Y-90891198D01*
X96903248Y-90893882D01*
X96748747Y-91006134D01*
X96620960Y-91148056D01*
X96525473Y-91313444D01*
X96466458Y-91495072D01*
X96446496Y-91685000D01*
X81748500Y-91685000D01*
X81748500Y-89785000D01*
X103186496Y-89785000D01*
X103206458Y-89974928D01*
X103265473Y-90156556D01*
X103360960Y-90321944D01*
X103488747Y-90463866D01*
X103643248Y-90576118D01*
X103649276Y-90578802D01*
X103649278Y-90578803D01*
X103811681Y-90651109D01*
X103817712Y-90653794D01*
X103911112Y-90673647D01*
X103998056Y-90692128D01*
X103998061Y-90692128D01*
X104004513Y-90693500D01*
X104195487Y-90693500D01*
X104201939Y-90692128D01*
X104201944Y-90692128D01*
X104288888Y-90673647D01*
X104382288Y-90653794D01*
X104388319Y-90651109D01*
X104550722Y-90578803D01*
X104550724Y-90578802D01*
X104556752Y-90576118D01*
X104711253Y-90463866D01*
X104839040Y-90321944D01*
X104934527Y-90156556D01*
X104993542Y-89974928D01*
X105013504Y-89785000D01*
X104993542Y-89595072D01*
X104934527Y-89413444D01*
X104839040Y-89248056D01*
X104821842Y-89228955D01*
X104715675Y-89111045D01*
X104715674Y-89111044D01*
X104711253Y-89106134D01*
X104556752Y-88993882D01*
X104550724Y-88991198D01*
X104550722Y-88991197D01*
X104388319Y-88918891D01*
X104388318Y-88918891D01*
X104382288Y-88916206D01*
X104288887Y-88896353D01*
X104201944Y-88877872D01*
X104201939Y-88877872D01*
X104195487Y-88876500D01*
X104004513Y-88876500D01*
X103998061Y-88877872D01*
X103998056Y-88877872D01*
X103911113Y-88896353D01*
X103817712Y-88916206D01*
X103811682Y-88918891D01*
X103811681Y-88918891D01*
X103649278Y-88991197D01*
X103649276Y-88991198D01*
X103643248Y-88993882D01*
X103488747Y-89106134D01*
X103484326Y-89111044D01*
X103484325Y-89111045D01*
X103378159Y-89228955D01*
X103360960Y-89248056D01*
X103265473Y-89413444D01*
X103206458Y-89595072D01*
X103186496Y-89785000D01*
X81748500Y-89785000D01*
X81748500Y-88555000D01*
X86726496Y-88555000D01*
X86746458Y-88744928D01*
X86805473Y-88926556D01*
X86900960Y-89091944D01*
X86905378Y-89096851D01*
X86905379Y-89096852D01*
X87024325Y-89228955D01*
X87028747Y-89233866D01*
X87183248Y-89346118D01*
X87189276Y-89348802D01*
X87189278Y-89348803D01*
X87351681Y-89421109D01*
X87357712Y-89423794D01*
X87451113Y-89443647D01*
X87538056Y-89462128D01*
X87538061Y-89462128D01*
X87544513Y-89463500D01*
X87735487Y-89463500D01*
X87741939Y-89462128D01*
X87741944Y-89462128D01*
X87828887Y-89443647D01*
X87922288Y-89423794D01*
X87928319Y-89421109D01*
X88090722Y-89348803D01*
X88090724Y-89348802D01*
X88096752Y-89346118D01*
X88251253Y-89233866D01*
X88255675Y-89228955D01*
X88374621Y-89096852D01*
X88374622Y-89096851D01*
X88379040Y-89091944D01*
X88382341Y-89086226D01*
X88386224Y-89080882D01*
X88387878Y-89082084D01*
X88432259Y-89039764D01*
X88501972Y-89026325D01*
X88567884Y-89052709D01*
X88592868Y-89081542D01*
X88593776Y-89080882D01*
X88597659Y-89086226D01*
X88600960Y-89091944D01*
X88605378Y-89096851D01*
X88605379Y-89096852D01*
X88724325Y-89228955D01*
X88728747Y-89233866D01*
X88883248Y-89346118D01*
X88889276Y-89348802D01*
X88889278Y-89348803D01*
X89051681Y-89421109D01*
X89057712Y-89423794D01*
X89151113Y-89443647D01*
X89238056Y-89462128D01*
X89238061Y-89462128D01*
X89244513Y-89463500D01*
X89435487Y-89463500D01*
X89441939Y-89462128D01*
X89441944Y-89462128D01*
X89528887Y-89443647D01*
X89622288Y-89423794D01*
X89628319Y-89421109D01*
X89790722Y-89348803D01*
X89790724Y-89348802D01*
X89796752Y-89346118D01*
X89951253Y-89233866D01*
X89955675Y-89228955D01*
X90074621Y-89096852D01*
X90074622Y-89096851D01*
X90079040Y-89091944D01*
X90082341Y-89086226D01*
X90086224Y-89080882D01*
X90087878Y-89082084D01*
X90132259Y-89039764D01*
X90201972Y-89026325D01*
X90267884Y-89052709D01*
X90292868Y-89081542D01*
X90293776Y-89080882D01*
X90297659Y-89086226D01*
X90300960Y-89091944D01*
X90305378Y-89096851D01*
X90305379Y-89096852D01*
X90424325Y-89228955D01*
X90428747Y-89233866D01*
X90583248Y-89346118D01*
X90589276Y-89348802D01*
X90589278Y-89348803D01*
X90751681Y-89421109D01*
X90757712Y-89423794D01*
X90851113Y-89443647D01*
X90938056Y-89462128D01*
X90938061Y-89462128D01*
X90944513Y-89463500D01*
X91135487Y-89463500D01*
X91141939Y-89462128D01*
X91141944Y-89462128D01*
X91228887Y-89443647D01*
X91322288Y-89423794D01*
X91328319Y-89421109D01*
X91490722Y-89348803D01*
X91490724Y-89348802D01*
X91496752Y-89346118D01*
X91651253Y-89233866D01*
X91655675Y-89228955D01*
X91774621Y-89096852D01*
X91774622Y-89096851D01*
X91779040Y-89091944D01*
X91782341Y-89086226D01*
X91786224Y-89080882D01*
X91787878Y-89082084D01*
X91832259Y-89039764D01*
X91901972Y-89026325D01*
X91967884Y-89052709D01*
X91992868Y-89081542D01*
X91993776Y-89080882D01*
X91997659Y-89086226D01*
X92000960Y-89091944D01*
X92005378Y-89096851D01*
X92005379Y-89096852D01*
X92124325Y-89228955D01*
X92128747Y-89233866D01*
X92283248Y-89346118D01*
X92289276Y-89348802D01*
X92289278Y-89348803D01*
X92451681Y-89421109D01*
X92457712Y-89423794D01*
X92551113Y-89443647D01*
X92638056Y-89462128D01*
X92638061Y-89462128D01*
X92644513Y-89463500D01*
X92835487Y-89463500D01*
X92841939Y-89462128D01*
X92841944Y-89462128D01*
X92928887Y-89443647D01*
X93022288Y-89423794D01*
X93028319Y-89421109D01*
X93190722Y-89348803D01*
X93190724Y-89348802D01*
X93196752Y-89346118D01*
X93351253Y-89233866D01*
X93355675Y-89228955D01*
X93474621Y-89096852D01*
X93474622Y-89096851D01*
X93479040Y-89091944D01*
X93574527Y-88926556D01*
X93633542Y-88744928D01*
X93653504Y-88555000D01*
X93633542Y-88365072D01*
X93574527Y-88183444D01*
X93479040Y-88018056D01*
X93351253Y-87876134D01*
X93196752Y-87763882D01*
X93190724Y-87761198D01*
X93190722Y-87761197D01*
X93028319Y-87688891D01*
X93028318Y-87688891D01*
X93022288Y-87686206D01*
X92928887Y-87666353D01*
X92841944Y-87647872D01*
X92841939Y-87647872D01*
X92835487Y-87646500D01*
X92644513Y-87646500D01*
X92638061Y-87647872D01*
X92638056Y-87647872D01*
X92551113Y-87666353D01*
X92457712Y-87686206D01*
X92451682Y-87688891D01*
X92451681Y-87688891D01*
X92289278Y-87761197D01*
X92289276Y-87761198D01*
X92283248Y-87763882D01*
X92128747Y-87876134D01*
X92000960Y-88018056D01*
X91997659Y-88023774D01*
X91993776Y-88029118D01*
X91992122Y-88027916D01*
X91947741Y-88070236D01*
X91878028Y-88083675D01*
X91812116Y-88057291D01*
X91787132Y-88028458D01*
X91786224Y-88029118D01*
X91782341Y-88023774D01*
X91779040Y-88018056D01*
X91651253Y-87876134D01*
X91496752Y-87763882D01*
X91490724Y-87761198D01*
X91490722Y-87761197D01*
X91328319Y-87688891D01*
X91328318Y-87688891D01*
X91322288Y-87686206D01*
X91228887Y-87666353D01*
X91141944Y-87647872D01*
X91141939Y-87647872D01*
X91135487Y-87646500D01*
X90944513Y-87646500D01*
X90938061Y-87647872D01*
X90938056Y-87647872D01*
X90851113Y-87666353D01*
X90757712Y-87686206D01*
X90751682Y-87688891D01*
X90751681Y-87688891D01*
X90589278Y-87761197D01*
X90589276Y-87761198D01*
X90583248Y-87763882D01*
X90428747Y-87876134D01*
X90300960Y-88018056D01*
X90297659Y-88023774D01*
X90293776Y-88029118D01*
X90292122Y-88027916D01*
X90247741Y-88070236D01*
X90178028Y-88083675D01*
X90112116Y-88057291D01*
X90087132Y-88028458D01*
X90086224Y-88029118D01*
X90082341Y-88023774D01*
X90079040Y-88018056D01*
X89951253Y-87876134D01*
X89796752Y-87763882D01*
X89790724Y-87761198D01*
X89790722Y-87761197D01*
X89628319Y-87688891D01*
X89628318Y-87688891D01*
X89622288Y-87686206D01*
X89528887Y-87666353D01*
X89441944Y-87647872D01*
X89441939Y-87647872D01*
X89435487Y-87646500D01*
X89244513Y-87646500D01*
X89238061Y-87647872D01*
X89238056Y-87647872D01*
X89151113Y-87666353D01*
X89057712Y-87686206D01*
X89051682Y-87688891D01*
X89051681Y-87688891D01*
X88889278Y-87761197D01*
X88889276Y-87761198D01*
X88883248Y-87763882D01*
X88728747Y-87876134D01*
X88600960Y-88018056D01*
X88597659Y-88023774D01*
X88593776Y-88029118D01*
X88592122Y-88027916D01*
X88547741Y-88070236D01*
X88478028Y-88083675D01*
X88412116Y-88057291D01*
X88387132Y-88028458D01*
X88386224Y-88029118D01*
X88382341Y-88023774D01*
X88379040Y-88018056D01*
X88251253Y-87876134D01*
X88096752Y-87763882D01*
X88090724Y-87761198D01*
X88090722Y-87761197D01*
X87928319Y-87688891D01*
X87928318Y-87688891D01*
X87922288Y-87686206D01*
X87828887Y-87666353D01*
X87741944Y-87647872D01*
X87741939Y-87647872D01*
X87735487Y-87646500D01*
X87544513Y-87646500D01*
X87538061Y-87647872D01*
X87538056Y-87647872D01*
X87451113Y-87666353D01*
X87357712Y-87686206D01*
X87351682Y-87688891D01*
X87351681Y-87688891D01*
X87189278Y-87761197D01*
X87189276Y-87761198D01*
X87183248Y-87763882D01*
X87028747Y-87876134D01*
X86900960Y-88018056D01*
X86805473Y-88183444D01*
X86746458Y-88365072D01*
X86726496Y-88555000D01*
X81748500Y-88555000D01*
X81748500Y-85255000D01*
X82326496Y-85255000D01*
X82346458Y-85444928D01*
X82405473Y-85626556D01*
X82500960Y-85791944D01*
X82628747Y-85933866D01*
X82722851Y-86002237D01*
X82731889Y-86008803D01*
X82783248Y-86046118D01*
X82789276Y-86048802D01*
X82789278Y-86048803D01*
X82951681Y-86121109D01*
X82957712Y-86123794D01*
X83051112Y-86143647D01*
X83138056Y-86162128D01*
X83138061Y-86162128D01*
X83144513Y-86163500D01*
X83335487Y-86163500D01*
X83341939Y-86162128D01*
X83341944Y-86162128D01*
X83428888Y-86143647D01*
X83522288Y-86123794D01*
X83528319Y-86121109D01*
X83690722Y-86048803D01*
X83690724Y-86048802D01*
X83696752Y-86046118D01*
X83748112Y-86008803D01*
X83757149Y-86002237D01*
X83851253Y-85933866D01*
X83979040Y-85791944D01*
X84074527Y-85626556D01*
X84133542Y-85444928D01*
X84153504Y-85255000D01*
X84149300Y-85215000D01*
X84926496Y-85215000D01*
X84946458Y-85404928D01*
X85005473Y-85586556D01*
X85100960Y-85751944D01*
X85105378Y-85756851D01*
X85105379Y-85756852D01*
X85136976Y-85791944D01*
X85228747Y-85893866D01*
X85383248Y-86006118D01*
X85389276Y-86008802D01*
X85389278Y-86008803D01*
X85551681Y-86081109D01*
X85557712Y-86083794D01*
X85651112Y-86103647D01*
X85738056Y-86122128D01*
X85738061Y-86122128D01*
X85744513Y-86123500D01*
X85935487Y-86123500D01*
X85941939Y-86122128D01*
X85941944Y-86122128D01*
X86028888Y-86103647D01*
X86122288Y-86083794D01*
X86128319Y-86081109D01*
X86290722Y-86008803D01*
X86290724Y-86008802D01*
X86296752Y-86006118D01*
X86451253Y-85893866D01*
X86543024Y-85791944D01*
X86574621Y-85756852D01*
X86574622Y-85756851D01*
X86579040Y-85751944D01*
X86674527Y-85586556D01*
X86733542Y-85404928D01*
X86753504Y-85215000D01*
X86733542Y-85025072D01*
X86674527Y-84843444D01*
X86579040Y-84678056D01*
X86451253Y-84536134D01*
X86351807Y-84463882D01*
X86302094Y-84427763D01*
X86302093Y-84427762D01*
X86296752Y-84423882D01*
X86290724Y-84421198D01*
X86290722Y-84421197D01*
X86128319Y-84348891D01*
X86128318Y-84348891D01*
X86122288Y-84346206D01*
X86028888Y-84326353D01*
X85941944Y-84307872D01*
X85941939Y-84307872D01*
X85935487Y-84306500D01*
X85744513Y-84306500D01*
X85738061Y-84307872D01*
X85738056Y-84307872D01*
X85651112Y-84326353D01*
X85557712Y-84346206D01*
X85551682Y-84348891D01*
X85551681Y-84348891D01*
X85389278Y-84421197D01*
X85389276Y-84421198D01*
X85383248Y-84423882D01*
X85377907Y-84427762D01*
X85377906Y-84427763D01*
X85328193Y-84463882D01*
X85228747Y-84536134D01*
X85100960Y-84678056D01*
X85005473Y-84843444D01*
X84946458Y-85025072D01*
X84926496Y-85215000D01*
X84149300Y-85215000D01*
X84133542Y-85065072D01*
X84074527Y-84883444D01*
X83979040Y-84718056D01*
X83948173Y-84683774D01*
X83855675Y-84581045D01*
X83855674Y-84581044D01*
X83851253Y-84576134D01*
X83696752Y-84463882D01*
X83690724Y-84461198D01*
X83690722Y-84461197D01*
X83528319Y-84388891D01*
X83528318Y-84388891D01*
X83522288Y-84386206D01*
X83428887Y-84366353D01*
X83341944Y-84347872D01*
X83341939Y-84347872D01*
X83335487Y-84346500D01*
X83144513Y-84346500D01*
X83138061Y-84347872D01*
X83138056Y-84347872D01*
X83051113Y-84366353D01*
X82957712Y-84386206D01*
X82951682Y-84388891D01*
X82951681Y-84388891D01*
X82789278Y-84461197D01*
X82789276Y-84461198D01*
X82783248Y-84463882D01*
X82628747Y-84576134D01*
X82624326Y-84581044D01*
X82624325Y-84581045D01*
X82531828Y-84683774D01*
X82500960Y-84718056D01*
X82405473Y-84883444D01*
X82346458Y-85065072D01*
X82326496Y-85255000D01*
X81748500Y-85255000D01*
X81748500Y-81793134D01*
X105281500Y-81793134D01*
X105288255Y-81855316D01*
X105339385Y-81991705D01*
X105426739Y-82108261D01*
X105543295Y-82195615D01*
X105679684Y-82246745D01*
X105741866Y-82253500D01*
X107538134Y-82253500D01*
X107600316Y-82246745D01*
X107736705Y-82195615D01*
X107853261Y-82108261D01*
X107940615Y-81991705D01*
X107991745Y-81855316D01*
X107998500Y-81793134D01*
X107998500Y-80861695D01*
X110357251Y-80861695D01*
X110357548Y-80866848D01*
X110357548Y-80866851D01*
X110363011Y-80961590D01*
X110370110Y-81084715D01*
X110371247Y-81089761D01*
X110371248Y-81089767D01*
X110391119Y-81177939D01*
X110419222Y-81302639D01*
X110503266Y-81509616D01*
X110619987Y-81700088D01*
X110766250Y-81868938D01*
X110938126Y-82011632D01*
X111131000Y-82124338D01*
X111339692Y-82204030D01*
X111344760Y-82205061D01*
X111344763Y-82205062D01*
X111452017Y-82226883D01*
X111558597Y-82248567D01*
X111563772Y-82248757D01*
X111563774Y-82248757D01*
X111776673Y-82256564D01*
X111776677Y-82256564D01*
X111781837Y-82256753D01*
X111786957Y-82256097D01*
X111786959Y-82256097D01*
X111998288Y-82229025D01*
X111998289Y-82229025D01*
X112003416Y-82228368D01*
X112008366Y-82226883D01*
X112212429Y-82165661D01*
X112212434Y-82165659D01*
X112217384Y-82164174D01*
X112417994Y-82065896D01*
X112599860Y-81936173D01*
X112758096Y-81778489D01*
X112817594Y-81695689D01*
X112885435Y-81601277D01*
X112888453Y-81597077D01*
X112987430Y-81396811D01*
X113052370Y-81183069D01*
X113081529Y-80961590D01*
X113083156Y-80895000D01*
X113064852Y-80672361D01*
X113010431Y-80455702D01*
X112921354Y-80250840D01*
X112800014Y-80063277D01*
X112649670Y-79898051D01*
X112645619Y-79894852D01*
X112645615Y-79894848D01*
X112478414Y-79762800D01*
X112478410Y-79762798D01*
X112474359Y-79759598D01*
X112278789Y-79651638D01*
X112273920Y-79649914D01*
X112273916Y-79649912D01*
X112073087Y-79578795D01*
X112073083Y-79578794D01*
X112068212Y-79577069D01*
X112063119Y-79576162D01*
X112063116Y-79576161D01*
X111853373Y-79538800D01*
X111853367Y-79538799D01*
X111848284Y-79537894D01*
X111774452Y-79536992D01*
X111630081Y-79535228D01*
X111630079Y-79535228D01*
X111624911Y-79535165D01*
X111404091Y-79568955D01*
X111191756Y-79638357D01*
X110993607Y-79741507D01*
X110989474Y-79744610D01*
X110989471Y-79744612D01*
X110819100Y-79872530D01*
X110814965Y-79875635D01*
X110660629Y-80037138D01*
X110534743Y-80221680D01*
X110440688Y-80424305D01*
X110380989Y-80639570D01*
X110357251Y-80861695D01*
X107998500Y-80861695D01*
X107998500Y-79996866D01*
X107991745Y-79934684D01*
X107940615Y-79798295D01*
X107853261Y-79681739D01*
X107736705Y-79594385D01*
X107600316Y-79543255D01*
X107538134Y-79536500D01*
X105741866Y-79536500D01*
X105679684Y-79543255D01*
X105543295Y-79594385D01*
X105426739Y-79681739D01*
X105339385Y-79798295D01*
X105288255Y-79934684D01*
X105281500Y-79996866D01*
X105281500Y-81793134D01*
X81748500Y-81793134D01*
X81748500Y-78989500D01*
X81768502Y-78921379D01*
X81822158Y-78874886D01*
X81874500Y-78863500D01*
X115605500Y-78863500D01*
X115673621Y-78883502D01*
G37*
%TD.AperFunction*%
%TA.AperFunction,Conductor*%
G36*
X101960000Y-97815000D02*
G01*
X95760000Y-97815000D01*
X95760000Y-91677611D01*
X96654394Y-91677611D01*
X96672999Y-91846135D01*
X96731266Y-92005356D01*
X96735502Y-92011659D01*
X96735502Y-92011660D01*
X96748574Y-92031113D01*
X96825830Y-92146083D01*
X96831442Y-92151190D01*
X96831445Y-92151193D01*
X96945612Y-92255077D01*
X96945616Y-92255080D01*
X96951233Y-92260191D01*
X96957906Y-92263814D01*
X96957910Y-92263817D01*
X97093558Y-92337467D01*
X97093560Y-92337468D01*
X97100235Y-92341092D01*
X97107584Y-92343020D01*
X97256883Y-92382188D01*
X97256885Y-92382188D01*
X97264233Y-92384116D01*
X97350609Y-92385473D01*
X97426161Y-92386660D01*
X97426164Y-92386660D01*
X97433760Y-92386779D01*
X97441165Y-92385083D01*
X97441166Y-92385083D01*
X97501586Y-92371245D01*
X97599029Y-92348928D01*
X97750498Y-92272747D01*
X97879423Y-92162634D01*
X97978361Y-92024947D01*
X97986237Y-92005356D01*
X98038766Y-91874687D01*
X98038767Y-91874685D01*
X98041601Y-91867634D01*
X98065490Y-91699778D01*
X98065645Y-91685000D01*
X98063840Y-91670080D01*
X98046188Y-91524220D01*
X98045276Y-91516680D01*
X97985345Y-91358077D01*
X97889312Y-91218349D01*
X97877514Y-91207837D01*
X97768392Y-91110612D01*
X97768388Y-91110610D01*
X97762721Y-91105560D01*
X97612881Y-91026224D01*
X97448441Y-90984919D01*
X97440843Y-90984879D01*
X97440841Y-90984879D01*
X97363668Y-90984475D01*
X97278895Y-90984031D01*
X97271508Y-90985805D01*
X97271504Y-90985805D01*
X97128162Y-91020220D01*
X97114032Y-91023612D01*
X97107288Y-91027093D01*
X97107285Y-91027094D01*
X97102089Y-91029776D01*
X96963369Y-91101375D01*
X96835604Y-91212831D01*
X96738113Y-91351547D01*
X96676524Y-91509513D01*
X96654394Y-91677611D01*
X95760000Y-91677611D01*
X95760000Y-78915000D01*
X101960000Y-78915000D01*
X101960000Y-97815000D01*
G37*
%TD.AperFunction*%
M02*
