%TF.GenerationSoftware,KiCad,Pcbnew,(6.0.8)*%
%TF.CreationDate,2022-12-16T18:18:29+01:00*%
%TF.ProjectId,Single-DCDC-Converter-Rev3,53696e67-6c65-42d4-9443-44432d436f6e,rev?*%
%TF.SameCoordinates,Original*%
%TF.FileFunction,Legend,Top*%
%TF.FilePolarity,Positive*%
%FSLAX46Y46*%
G04 Gerber Fmt 4.6, Leading zero omitted, Abs format (unit mm)*
G04 Created by KiCad (PCBNEW (6.0.8)) date 2022-12-16 18:18:29*
%MOMM*%
%LPD*%
G01*
G04 APERTURE LIST*
G04 Aperture macros list*
%AMRoundRect*
0 Rectangle with rounded corners*
0 $1 Rounding radius*
0 $2 $3 $4 $5 $6 $7 $8 $9 X,Y pos of 4 corners*
0 Add a 4 corners polygon primitive as box body*
4,1,4,$2,$3,$4,$5,$6,$7,$8,$9,$2,$3,0*
0 Add four circle primitives for the rounded corners*
1,1,$1+$1,$2,$3*
1,1,$1+$1,$4,$5*
1,1,$1+$1,$6,$7*
1,1,$1+$1,$8,$9*
0 Add four rect primitives between the rounded corners*
20,1,$1+$1,$2,$3,$4,$5,0*
20,1,$1+$1,$4,$5,$6,$7,0*
20,1,$1+$1,$6,$7,$8,$9,0*
20,1,$1+$1,$8,$9,$2,$3,0*%
G04 Aperture macros list end*
%ADD10C,0.175000*%
%ADD11C,0.150000*%
%ADD12C,0.120000*%
%ADD13RoundRect,0.825000X3.175000X0.825000X-3.175000X0.825000X-3.175000X-0.825000X3.175000X-0.825000X0*%
%ADD14RoundRect,0.320754X-0.579246X0.529246X-0.579246X-0.529246X0.579246X-0.529246X0.579246X0.529246X0*%
%ADD15RoundRect,0.250000X-0.475000X0.250000X-0.475000X-0.250000X0.475000X-0.250000X0.475000X0.250000X0*%
%ADD16R,1.700000X1.700000*%
%ADD17O,1.700000X1.700000*%
%ADD18C,5.000000*%
%ADD19RoundRect,0.250000X-0.262500X-0.450000X0.262500X-0.450000X0.262500X0.450000X-0.262500X0.450000X0*%
%ADD20RoundRect,0.250000X-0.550000X1.500000X-0.550000X-1.500000X0.550000X-1.500000X0.550000X1.500000X0*%
%ADD21RoundRect,0.250000X0.262500X0.450000X-0.262500X0.450000X-0.262500X-0.450000X0.262500X-0.450000X0*%
%ADD22R,2.500000X1.800000*%
%ADD23R,2.600000X3.100000*%
%ADD24R,1.550000X0.600000*%
G04 APERTURE END LIST*
D10*
X96517500Y-83825000D02*
G75*
G03*
X96517500Y-83825000I-87500J0D01*
G01*
D11*
X82221904Y-88747619D02*
X82269523Y-88700000D01*
X82364761Y-88652380D01*
X82602857Y-88652380D01*
X82698095Y-88700000D01*
X82745714Y-88747619D01*
X82793333Y-88842857D01*
X82793333Y-88938095D01*
X82745714Y-89080952D01*
X82174285Y-89652380D01*
X82793333Y-89652380D01*
X83174285Y-88747619D02*
X83221904Y-88700000D01*
X83317142Y-88652380D01*
X83555238Y-88652380D01*
X83650476Y-88700000D01*
X83698095Y-88747619D01*
X83745714Y-88842857D01*
X83745714Y-88938095D01*
X83698095Y-89080952D01*
X83126666Y-89652380D01*
X83745714Y-89652380D01*
X84888571Y-88604761D02*
X84031428Y-89890476D01*
X85174285Y-88747619D02*
X85221904Y-88700000D01*
X85317142Y-88652380D01*
X85555238Y-88652380D01*
X85650476Y-88700000D01*
X85698095Y-88747619D01*
X85745714Y-88842857D01*
X85745714Y-88938095D01*
X85698095Y-89080952D01*
X85126666Y-89652380D01*
X85745714Y-89652380D01*
X86079047Y-88652380D02*
X86698095Y-88652380D01*
X86364761Y-89033333D01*
X86507619Y-89033333D01*
X86602857Y-89080952D01*
X86650476Y-89128571D01*
X86698095Y-89223809D01*
X86698095Y-89461904D01*
X86650476Y-89557142D01*
X86602857Y-89604761D01*
X86507619Y-89652380D01*
X86221904Y-89652380D01*
X86126666Y-89604761D01*
X86079047Y-89557142D01*
X88403333Y-83607380D02*
X87927142Y-83607380D01*
X87927142Y-82607380D01*
X89260476Y-83607380D02*
X88689047Y-83607380D01*
X88974761Y-83607380D02*
X88974761Y-82607380D01*
X88879523Y-82750238D01*
X88784285Y-82845476D01*
X88689047Y-82893095D01*
X84173333Y-91512142D02*
X84125714Y-91559761D01*
X83982857Y-91607380D01*
X83887619Y-91607380D01*
X83744761Y-91559761D01*
X83649523Y-91464523D01*
X83601904Y-91369285D01*
X83554285Y-91178809D01*
X83554285Y-91035952D01*
X83601904Y-90845476D01*
X83649523Y-90750238D01*
X83744761Y-90655000D01*
X83887619Y-90607380D01*
X83982857Y-90607380D01*
X84125714Y-90655000D01*
X84173333Y-90702619D01*
X85030476Y-90607380D02*
X84840000Y-90607380D01*
X84744761Y-90655000D01*
X84697142Y-90702619D01*
X84601904Y-90845476D01*
X84554285Y-91035952D01*
X84554285Y-91416904D01*
X84601904Y-91512142D01*
X84649523Y-91559761D01*
X84744761Y-91607380D01*
X84935238Y-91607380D01*
X85030476Y-91559761D01*
X85078095Y-91512142D01*
X85125714Y-91416904D01*
X85125714Y-91178809D01*
X85078095Y-91083571D01*
X85030476Y-91035952D01*
X84935238Y-90988333D01*
X84744761Y-90988333D01*
X84649523Y-91035952D01*
X84601904Y-91083571D01*
X84554285Y-91178809D01*
X96503333Y-79847142D02*
X96455714Y-79894761D01*
X96312857Y-79942380D01*
X96217619Y-79942380D01*
X96074761Y-79894761D01*
X95979523Y-79799523D01*
X95931904Y-79704285D01*
X95884285Y-79513809D01*
X95884285Y-79370952D01*
X95931904Y-79180476D01*
X95979523Y-79085238D01*
X96074761Y-78990000D01*
X96217619Y-78942380D01*
X96312857Y-78942380D01*
X96455714Y-78990000D01*
X96503333Y-79037619D01*
X97360476Y-79275714D02*
X97360476Y-79942380D01*
X97122380Y-78894761D02*
X96884285Y-79609047D01*
X97503333Y-79609047D01*
X82426666Y-93407380D02*
X82426666Y-94121666D01*
X82379047Y-94264523D01*
X82283809Y-94359761D01*
X82140952Y-94407380D01*
X82045714Y-94407380D01*
X82807619Y-93407380D02*
X83426666Y-93407380D01*
X83093333Y-93788333D01*
X83236190Y-93788333D01*
X83331428Y-93835952D01*
X83379047Y-93883571D01*
X83426666Y-93978809D01*
X83426666Y-94216904D01*
X83379047Y-94312142D01*
X83331428Y-94359761D01*
X83236190Y-94407380D01*
X82950476Y-94407380D01*
X82855238Y-94359761D01*
X82807619Y-94312142D01*
X114646666Y-93217380D02*
X114646666Y-93931666D01*
X114599047Y-94074523D01*
X114503809Y-94169761D01*
X114360952Y-94217380D01*
X114265714Y-94217380D01*
X115075238Y-93312619D02*
X115122857Y-93265000D01*
X115218095Y-93217380D01*
X115456190Y-93217380D01*
X115551428Y-93265000D01*
X115599047Y-93312619D01*
X115646666Y-93407857D01*
X115646666Y-93503095D01*
X115599047Y-93645952D01*
X115027619Y-94217380D01*
X115646666Y-94217380D01*
X103393333Y-92087380D02*
X103060000Y-91611190D01*
X102821904Y-92087380D02*
X102821904Y-91087380D01*
X103202857Y-91087380D01*
X103298095Y-91135000D01*
X103345714Y-91182619D01*
X103393333Y-91277857D01*
X103393333Y-91420714D01*
X103345714Y-91515952D01*
X103298095Y-91563571D01*
X103202857Y-91611190D01*
X102821904Y-91611190D01*
X104345714Y-92087380D02*
X103774285Y-92087380D01*
X104060000Y-92087380D02*
X104060000Y-91087380D01*
X103964761Y-91230238D01*
X103869523Y-91325476D01*
X103774285Y-91373095D01*
X84173333Y-92812142D02*
X84125714Y-92859761D01*
X83982857Y-92907380D01*
X83887619Y-92907380D01*
X83744761Y-92859761D01*
X83649523Y-92764523D01*
X83601904Y-92669285D01*
X83554285Y-92478809D01*
X83554285Y-92335952D01*
X83601904Y-92145476D01*
X83649523Y-92050238D01*
X83744761Y-91955000D01*
X83887619Y-91907380D01*
X83982857Y-91907380D01*
X84125714Y-91955000D01*
X84173333Y-92002619D01*
X84506666Y-91907380D02*
X85173333Y-91907380D01*
X84744761Y-92907380D01*
X91593333Y-97722142D02*
X91545714Y-97769761D01*
X91402857Y-97817380D01*
X91307619Y-97817380D01*
X91164761Y-97769761D01*
X91069523Y-97674523D01*
X91021904Y-97579285D01*
X90974285Y-97388809D01*
X90974285Y-97245952D01*
X91021904Y-97055476D01*
X91069523Y-96960238D01*
X91164761Y-96865000D01*
X91307619Y-96817380D01*
X91402857Y-96817380D01*
X91545714Y-96865000D01*
X91593333Y-96912619D01*
X92498095Y-96817380D02*
X92021904Y-96817380D01*
X91974285Y-97293571D01*
X92021904Y-97245952D01*
X92117142Y-97198333D01*
X92355238Y-97198333D01*
X92450476Y-97245952D01*
X92498095Y-97293571D01*
X92545714Y-97388809D01*
X92545714Y-97626904D01*
X92498095Y-97722142D01*
X92450476Y-97769761D01*
X92355238Y-97817380D01*
X92117142Y-97817380D01*
X92021904Y-97769761D01*
X91974285Y-97722142D01*
X104993333Y-84572142D02*
X104945714Y-84619761D01*
X104802857Y-84667380D01*
X104707619Y-84667380D01*
X104564761Y-84619761D01*
X104469523Y-84524523D01*
X104421904Y-84429285D01*
X104374285Y-84238809D01*
X104374285Y-84095952D01*
X104421904Y-83905476D01*
X104469523Y-83810238D01*
X104564761Y-83715000D01*
X104707619Y-83667380D01*
X104802857Y-83667380D01*
X104945714Y-83715000D01*
X104993333Y-83762619D01*
X105326666Y-83667380D02*
X105945714Y-83667380D01*
X105612380Y-84048333D01*
X105755238Y-84048333D01*
X105850476Y-84095952D01*
X105898095Y-84143571D01*
X105945714Y-84238809D01*
X105945714Y-84476904D01*
X105898095Y-84572142D01*
X105850476Y-84619761D01*
X105755238Y-84667380D01*
X105469523Y-84667380D01*
X105374285Y-84619761D01*
X105326666Y-84572142D01*
X107093333Y-84572142D02*
X107045714Y-84619761D01*
X106902857Y-84667380D01*
X106807619Y-84667380D01*
X106664761Y-84619761D01*
X106569523Y-84524523D01*
X106521904Y-84429285D01*
X106474285Y-84238809D01*
X106474285Y-84095952D01*
X106521904Y-83905476D01*
X106569523Y-83810238D01*
X106664761Y-83715000D01*
X106807619Y-83667380D01*
X106902857Y-83667380D01*
X107045714Y-83715000D01*
X107093333Y-83762619D01*
X107474285Y-83762619D02*
X107521904Y-83715000D01*
X107617142Y-83667380D01*
X107855238Y-83667380D01*
X107950476Y-83715000D01*
X107998095Y-83762619D01*
X108045714Y-83857857D01*
X108045714Y-83953095D01*
X107998095Y-84095952D01*
X107426666Y-84667380D01*
X108045714Y-84667380D01*
X114646666Y-82807380D02*
X114646666Y-83521666D01*
X114599047Y-83664523D01*
X114503809Y-83759761D01*
X114360952Y-83807380D01*
X114265714Y-83807380D01*
X115646666Y-83807380D02*
X115075238Y-83807380D01*
X115360952Y-83807380D02*
X115360952Y-82807380D01*
X115265714Y-82950238D01*
X115170476Y-83045476D01*
X115075238Y-83093095D01*
X103393333Y-94387380D02*
X103060000Y-93911190D01*
X102821904Y-94387380D02*
X102821904Y-93387380D01*
X103202857Y-93387380D01*
X103298095Y-93435000D01*
X103345714Y-93482619D01*
X103393333Y-93577857D01*
X103393333Y-93720714D01*
X103345714Y-93815952D01*
X103298095Y-93863571D01*
X103202857Y-93911190D01*
X102821904Y-93911190D01*
X103774285Y-93482619D02*
X103821904Y-93435000D01*
X103917142Y-93387380D01*
X104155238Y-93387380D01*
X104250476Y-93435000D01*
X104298095Y-93482619D01*
X104345714Y-93577857D01*
X104345714Y-93673095D01*
X104298095Y-93815952D01*
X103726666Y-94387380D01*
X104345714Y-94387380D01*
X109793333Y-84272142D02*
X109745714Y-84319761D01*
X109602857Y-84367380D01*
X109507619Y-84367380D01*
X109364761Y-84319761D01*
X109269523Y-84224523D01*
X109221904Y-84129285D01*
X109174285Y-83938809D01*
X109174285Y-83795952D01*
X109221904Y-83605476D01*
X109269523Y-83510238D01*
X109364761Y-83415000D01*
X109507619Y-83367380D01*
X109602857Y-83367380D01*
X109745714Y-83415000D01*
X109793333Y-83462619D01*
X110745714Y-84367380D02*
X110174285Y-84367380D01*
X110460000Y-84367380D02*
X110460000Y-83367380D01*
X110364761Y-83510238D01*
X110269523Y-83605476D01*
X110174285Y-83653095D01*
X103021904Y-79767380D02*
X103021904Y-78767380D01*
X103260000Y-78767380D01*
X103402857Y-78815000D01*
X103498095Y-78910238D01*
X103545714Y-79005476D01*
X103593333Y-79195952D01*
X103593333Y-79338809D01*
X103545714Y-79529285D01*
X103498095Y-79624523D01*
X103402857Y-79719761D01*
X103260000Y-79767380D01*
X103021904Y-79767380D01*
X104545714Y-79767380D02*
X103974285Y-79767380D01*
X104260000Y-79767380D02*
X104260000Y-78767380D01*
X104164761Y-78910238D01*
X104069523Y-79005476D01*
X103974285Y-79053095D01*
X98078095Y-89437380D02*
X98078095Y-90246904D01*
X98125714Y-90342142D01*
X98173333Y-90389761D01*
X98268571Y-90437380D01*
X98459047Y-90437380D01*
X98554285Y-90389761D01*
X98601904Y-90342142D01*
X98649523Y-90246904D01*
X98649523Y-89437380D01*
X99649523Y-90437380D02*
X99078095Y-90437380D01*
X99363809Y-90437380D02*
X99363809Y-89437380D01*
X99268571Y-89580238D01*
X99173333Y-89675476D01*
X99078095Y-89723095D01*
D12*
X95690000Y-87515000D02*
X87190000Y-87515000D01*
X87190000Y-87515000D02*
X87190000Y-78815000D01*
X87190000Y-78815000D02*
X95690000Y-78815000D01*
X95690000Y-78815000D02*
X95690000Y-87515000D01*
X90000000Y-91655000D02*
X90000000Y-92255000D01*
X88180000Y-91655000D02*
X88180000Y-92255000D01*
X95935000Y-81488748D02*
X95935000Y-82011252D01*
X97405000Y-81488748D02*
X97405000Y-82011252D01*
X85050000Y-97465000D02*
X85050000Y-94805000D01*
X82450000Y-97465000D02*
X82450000Y-96135000D01*
X90190000Y-97465000D02*
X90190000Y-94805000D01*
X83780000Y-97465000D02*
X82450000Y-97465000D01*
X85050000Y-97465000D02*
X90190000Y-97465000D01*
X85050000Y-94805000D02*
X90190000Y-94805000D01*
X106640000Y-97465000D02*
X105310000Y-97465000D01*
X115590000Y-97465000D02*
X115590000Y-94805000D01*
X105310000Y-97465000D02*
X105310000Y-96135000D01*
X107910000Y-94805000D02*
X115590000Y-94805000D01*
X107910000Y-97465000D02*
X107910000Y-94805000D01*
X107910000Y-97465000D02*
X115590000Y-97465000D01*
X100732936Y-92370000D02*
X101187064Y-92370000D01*
X100732936Y-90900000D02*
X101187064Y-90900000D01*
X87500000Y-91655000D02*
X87500000Y-92255000D01*
X85680000Y-91655000D02*
X85680000Y-92255000D01*
X97870000Y-96425000D02*
X95520000Y-96425000D01*
X92114437Y-89605000D02*
X91050000Y-90669437D01*
X92114437Y-89605000D02*
X93400000Y-89605000D01*
X96805563Y-89605000D02*
X95520000Y-89605000D01*
X97870000Y-90669437D02*
X97870000Y-96425000D01*
X96701250Y-88971250D02*
X95913750Y-88971250D01*
X96805563Y-89605000D02*
X97870000Y-90669437D01*
X96307500Y-88577500D02*
X96307500Y-89365000D01*
X91050000Y-90669437D02*
X91050000Y-96425000D01*
X91050000Y-96425000D02*
X93400000Y-96425000D01*
X104425000Y-86253748D02*
X104425000Y-86776252D01*
X105895000Y-86253748D02*
X105895000Y-86776252D01*
X107995000Y-86253748D02*
X107995000Y-86776252D01*
X106525000Y-86253748D02*
X106525000Y-86776252D01*
X107910000Y-82225000D02*
X115590000Y-82225000D01*
X106640000Y-82225000D02*
X105310000Y-82225000D01*
X115590000Y-82225000D02*
X115590000Y-79565000D01*
X107910000Y-79565000D02*
X115590000Y-79565000D01*
X105310000Y-82225000D02*
X105310000Y-80895000D01*
X107910000Y-82225000D02*
X107910000Y-79565000D01*
G36*
X86684797Y-85831444D02*
G01*
X86764733Y-85831608D01*
X86833307Y-85831893D01*
X86891183Y-85832311D01*
X86939023Y-85832874D01*
X86977493Y-85833592D01*
X87007256Y-85834476D01*
X87028975Y-85835538D01*
X87043316Y-85836787D01*
X87050940Y-85838236D01*
X87052411Y-85839007D01*
X87056637Y-85844635D01*
X87058797Y-85852331D01*
X87058622Y-85863827D01*
X87055847Y-85880854D01*
X87050204Y-85905142D01*
X87041425Y-85938423D01*
X87031554Y-85974160D01*
X87020024Y-86014369D01*
X87010675Y-86044054D01*
X87002802Y-86065047D01*
X86995696Y-86079182D01*
X86988650Y-86088290D01*
X86986856Y-86089961D01*
X86970484Y-86104238D01*
X86463573Y-86104238D01*
X86463573Y-86516678D01*
X86693905Y-86516678D01*
X86759005Y-86516798D01*
X86812277Y-86517174D01*
X86854581Y-86517835D01*
X86886777Y-86518807D01*
X86909724Y-86520119D01*
X86924284Y-86521798D01*
X86931315Y-86523872D01*
X86931852Y-86524293D01*
X86934860Y-86532151D01*
X86937072Y-86549455D01*
X86938537Y-86577076D01*
X86939310Y-86615883D01*
X86939466Y-86650838D01*
X86939411Y-86692455D01*
X86939111Y-86723218D01*
X86938366Y-86744966D01*
X86936974Y-86759535D01*
X86934735Y-86768763D01*
X86931446Y-86774487D01*
X86926908Y-86778543D01*
X86925364Y-86779646D01*
X86920103Y-86782310D01*
X86911867Y-86784459D01*
X86899388Y-86786146D01*
X86881398Y-86787424D01*
X86856630Y-86788345D01*
X86823818Y-86788963D01*
X86781694Y-86789329D01*
X86728990Y-86789497D01*
X86687417Y-86789524D01*
X86463573Y-86789524D01*
X86463573Y-87278107D01*
X86748332Y-87278107D01*
X86816361Y-87278142D01*
X86872810Y-87278273D01*
X86918790Y-87278540D01*
X86955412Y-87278983D01*
X86983785Y-87279641D01*
X87005020Y-87280553D01*
X87020228Y-87281761D01*
X87030519Y-87283303D01*
X87037004Y-87285219D01*
X87040794Y-87287549D01*
X87041799Y-87288600D01*
X87045106Y-87295705D01*
X87047522Y-87308916D01*
X87049154Y-87329766D01*
X87050108Y-87359788D01*
X87050489Y-87400516D01*
X87050508Y-87414530D01*
X87050272Y-87458645D01*
X87049495Y-87491610D01*
X87048071Y-87514959D01*
X87045892Y-87530224D01*
X87042855Y-87538940D01*
X87041799Y-87540460D01*
X87039296Y-87542493D01*
X87034820Y-87544248D01*
X87027490Y-87545744D01*
X87016428Y-87547002D01*
X87000752Y-87548042D01*
X86979585Y-87548885D01*
X86952045Y-87549550D01*
X86917254Y-87550058D01*
X86874332Y-87550429D01*
X86822399Y-87550684D01*
X86760575Y-87550842D01*
X86687981Y-87550925D01*
X86603738Y-87550952D01*
X86586981Y-87550953D01*
X86500172Y-87550930D01*
X86425181Y-87550847D01*
X86361134Y-87550687D01*
X86307158Y-87550429D01*
X86262380Y-87550054D01*
X86225928Y-87549544D01*
X86196927Y-87548880D01*
X86174506Y-87548042D01*
X86157791Y-87547011D01*
X86145909Y-87545768D01*
X86137986Y-87544294D01*
X86133151Y-87542571D01*
X86130901Y-87540982D01*
X86129463Y-87538636D01*
X86128169Y-87534201D01*
X86127011Y-87527046D01*
X86125982Y-87516539D01*
X86125073Y-87502049D01*
X86124279Y-87482944D01*
X86123591Y-87458592D01*
X86123002Y-87428362D01*
X86122505Y-87391623D01*
X86122092Y-87347743D01*
X86121756Y-87296090D01*
X86121489Y-87236034D01*
X86121284Y-87166942D01*
X86121134Y-87088183D01*
X86121031Y-86999125D01*
X86120967Y-86899138D01*
X86120936Y-86787588D01*
X86120930Y-86691173D01*
X86120941Y-86570072D01*
X86120978Y-86461031D01*
X86121049Y-86363417D01*
X86121162Y-86276599D01*
X86121323Y-86199945D01*
X86121540Y-86132825D01*
X86121821Y-86074606D01*
X86122173Y-86024656D01*
X86122603Y-85982345D01*
X86123119Y-85947041D01*
X86123729Y-85918112D01*
X86124439Y-85894928D01*
X86125256Y-85876855D01*
X86126190Y-85863263D01*
X86127246Y-85853521D01*
X86128432Y-85846996D01*
X86129756Y-85843058D01*
X86130901Y-85841364D01*
X86133864Y-85839436D01*
X86139201Y-85837770D01*
X86147779Y-85836347D01*
X86160465Y-85835150D01*
X86178126Y-85834158D01*
X86201631Y-85833354D01*
X86231845Y-85832718D01*
X86269636Y-85832231D01*
X86315871Y-85831876D01*
X86371418Y-85831634D01*
X86437143Y-85831485D01*
X86513914Y-85831411D01*
X86592834Y-85831392D01*
X86684797Y-85831444D01*
G37*
G36*
X84870891Y-85831568D02*
G01*
X84931510Y-85832073D01*
X84987866Y-85832871D01*
X85038300Y-85833926D01*
X85081152Y-85835205D01*
X85114764Y-85836671D01*
X85137476Y-85838289D01*
X85138755Y-85838423D01*
X85228613Y-85852221D01*
X85309526Y-85873526D01*
X85381808Y-85902713D01*
X85445775Y-85940155D01*
X85501743Y-85986225D01*
X85550028Y-86041297D01*
X85590946Y-86105745D01*
X85624811Y-86179943D01*
X85651941Y-86264264D01*
X85672650Y-86359082D01*
X85687254Y-86464770D01*
X85689779Y-86490609D01*
X85692527Y-86532085D01*
X85694215Y-86582153D01*
X85694895Y-86638213D01*
X85694622Y-86697660D01*
X85693450Y-86757892D01*
X85691433Y-86816307D01*
X85688624Y-86870301D01*
X85685078Y-86917272D01*
X85680849Y-86954617D01*
X85680058Y-86959868D01*
X85660258Y-87061152D01*
X85634411Y-87151572D01*
X85602243Y-87231565D01*
X85563482Y-87301566D01*
X85517853Y-87362014D01*
X85465084Y-87413344D01*
X85404901Y-87455993D01*
X85352142Y-87483739D01*
X85314251Y-87499844D01*
X85276755Y-87512849D01*
X85235408Y-87524043D01*
X85185963Y-87534720D01*
X85181834Y-87535531D01*
X85166278Y-87538162D01*
X85147906Y-87540399D01*
X85125487Y-87542290D01*
X85097790Y-87543884D01*
X85063584Y-87545228D01*
X85021637Y-87546371D01*
X84970717Y-87547361D01*
X84909595Y-87548246D01*
X84837037Y-87549074D01*
X84835465Y-87549090D01*
X84766524Y-87549771D01*
X84709166Y-87550245D01*
X84662284Y-87550482D01*
X84624771Y-87550456D01*
X84595522Y-87550139D01*
X84573429Y-87549504D01*
X84557386Y-87548524D01*
X84546287Y-87547170D01*
X84539025Y-87545415D01*
X84534494Y-87543232D01*
X84532480Y-87541562D01*
X84530964Y-87539356D01*
X84529599Y-87535503D01*
X84528378Y-87529366D01*
X84527292Y-87520305D01*
X84526335Y-87507683D01*
X84525498Y-87490861D01*
X84524773Y-87469201D01*
X84524152Y-87442065D01*
X84523627Y-87408814D01*
X84523190Y-87368810D01*
X84522835Y-87321416D01*
X84522623Y-87279951D01*
X84864572Y-87279951D01*
X84958164Y-87276289D01*
X84996257Y-87274198D01*
X85032457Y-87271125D01*
X85063348Y-87267425D01*
X85085512Y-87263453D01*
X85088012Y-87262818D01*
X85140054Y-87244577D01*
X85184841Y-87219554D01*
X85222879Y-87186976D01*
X85254673Y-87146065D01*
X85280730Y-87096046D01*
X85301554Y-87036144D01*
X85317651Y-86965583D01*
X85328288Y-86894220D01*
X85331056Y-86862797D01*
X85333172Y-86821782D01*
X85334636Y-86773809D01*
X85335447Y-86721514D01*
X85335605Y-86667530D01*
X85335109Y-86614491D01*
X85333958Y-86565032D01*
X85332153Y-86521785D01*
X85329693Y-86487386D01*
X85328364Y-86475434D01*
X85315476Y-86397334D01*
X85298555Y-86330604D01*
X85277309Y-86274489D01*
X85251447Y-86228235D01*
X85220677Y-86191084D01*
X85217288Y-86187812D01*
X85188107Y-86162911D01*
X85158091Y-86143521D01*
X85125064Y-86128947D01*
X85086853Y-86118497D01*
X85041282Y-86111474D01*
X84986177Y-86107186D01*
X84961337Y-86106094D01*
X84864572Y-86102539D01*
X84864572Y-87279951D01*
X84522623Y-87279951D01*
X84522551Y-87265992D01*
X84522332Y-87201901D01*
X84522170Y-87128505D01*
X84522057Y-87045164D01*
X84521984Y-86951241D01*
X84521944Y-86846098D01*
X84521930Y-86729096D01*
X84521929Y-86691173D01*
X84521940Y-86570072D01*
X84521977Y-86461031D01*
X84522048Y-86363417D01*
X84522161Y-86276599D01*
X84522322Y-86199945D01*
X84522539Y-86132825D01*
X84522685Y-86102539D01*
X84522820Y-86074606D01*
X84523172Y-86024656D01*
X84523603Y-85982345D01*
X84524119Y-85947041D01*
X84524728Y-85918112D01*
X84525438Y-85894928D01*
X84526256Y-85876855D01*
X84527189Y-85863263D01*
X84528245Y-85853521D01*
X84529431Y-85846996D01*
X84530755Y-85843058D01*
X84531900Y-85841364D01*
X84535593Y-85838893D01*
X84542026Y-85836860D01*
X84552342Y-85835224D01*
X84567685Y-85833942D01*
X84589195Y-85832974D01*
X84618017Y-85832279D01*
X84655293Y-85831815D01*
X84702164Y-85831540D01*
X84759775Y-85831414D01*
X84807669Y-85831392D01*
X84870891Y-85831568D01*
G37*
G36*
X84586493Y-83832643D02*
G01*
X84774527Y-83832649D01*
X84950656Y-83832661D01*
X85115275Y-83832681D01*
X85268778Y-83832712D01*
X85411556Y-83832755D01*
X85544005Y-83832813D01*
X85666516Y-83832888D01*
X85779484Y-83832981D01*
X85883302Y-83833095D01*
X85978364Y-83833231D01*
X86065062Y-83833392D01*
X86143790Y-83833580D01*
X86214941Y-83833797D01*
X86278909Y-83834045D01*
X86336088Y-83834326D01*
X86386869Y-83834642D01*
X86431648Y-83834994D01*
X86470817Y-83835386D01*
X86504770Y-83835819D01*
X86533900Y-83836296D01*
X86558600Y-83836817D01*
X86579264Y-83837386D01*
X86596285Y-83838004D01*
X86610057Y-83838673D01*
X86620973Y-83839396D01*
X86629425Y-83840175D01*
X86635809Y-83841011D01*
X86640517Y-83841906D01*
X86643942Y-83842863D01*
X86646478Y-83843884D01*
X86647525Y-83844414D01*
X86665498Y-83857021D01*
X86683759Y-83874231D01*
X86688670Y-83879899D01*
X86707865Y-83903613D01*
X86709555Y-84448876D01*
X86709836Y-84545343D01*
X86710035Y-84629895D01*
X86710140Y-84703310D01*
X86710140Y-84766362D01*
X86710024Y-84819828D01*
X86709779Y-84864485D01*
X86709396Y-84901107D01*
X86708861Y-84930472D01*
X86708164Y-84953355D01*
X86707294Y-84970532D01*
X86706238Y-84982780D01*
X86704986Y-84990874D01*
X86703525Y-84995591D01*
X86701846Y-84997706D01*
X86701464Y-84997893D01*
X86691430Y-84997252D01*
X86672324Y-84992391D01*
X86646661Y-84984262D01*
X86616955Y-84973818D01*
X86585721Y-84962012D01*
X86555475Y-84949798D01*
X86528732Y-84938128D01*
X86508006Y-84927956D01*
X86495814Y-84920235D01*
X86495299Y-84919768D01*
X86479436Y-84904704D01*
X86477718Y-84482887D01*
X86475999Y-84061070D01*
X82294749Y-84061070D01*
X82294749Y-88248929D01*
X84490203Y-88248929D01*
X84688358Y-88248930D01*
X84874220Y-88248933D01*
X85048183Y-88248941D01*
X85210644Y-88248956D01*
X85362000Y-88248980D01*
X85502646Y-88249016D01*
X85632978Y-88249066D01*
X85753393Y-88249133D01*
X85864287Y-88249217D01*
X85966056Y-88249323D01*
X86059097Y-88249452D01*
X86143805Y-88249606D01*
X86220576Y-88249787D01*
X86289808Y-88249998D01*
X86351895Y-88250242D01*
X86407234Y-88250520D01*
X86456222Y-88250835D01*
X86499254Y-88251189D01*
X86536727Y-88251584D01*
X86569037Y-88252022D01*
X86596580Y-88252506D01*
X86619752Y-88253039D01*
X86638949Y-88253622D01*
X86654568Y-88254257D01*
X86667005Y-88254948D01*
X86676655Y-88255695D01*
X86683916Y-88256502D01*
X86689183Y-88257371D01*
X86692852Y-88258304D01*
X86695320Y-88259303D01*
X86696983Y-88260371D01*
X86698237Y-88261510D01*
X86698347Y-88261620D01*
X86703374Y-88267707D01*
X86706874Y-88275685D01*
X86709120Y-88287770D01*
X86710381Y-88306179D01*
X86710929Y-88333127D01*
X86711037Y-88365333D01*
X86710911Y-88401340D01*
X86710340Y-88426863D01*
X86709040Y-88444109D01*
X86706724Y-88455284D01*
X86703107Y-88462592D01*
X86697903Y-88468241D01*
X86697681Y-88468443D01*
X86696288Y-88469520D01*
X86694303Y-88470531D01*
X86691335Y-88471479D01*
X86686994Y-88472366D01*
X86680889Y-88473194D01*
X86672629Y-88473965D01*
X86661825Y-88474682D01*
X86648084Y-88475347D01*
X86631017Y-88475961D01*
X86610233Y-88476529D01*
X86585341Y-88477050D01*
X86555951Y-88477529D01*
X86521672Y-88477966D01*
X86482114Y-88478365D01*
X86436886Y-88478727D01*
X86385596Y-88479055D01*
X86327856Y-88479352D01*
X86263273Y-88479618D01*
X86191458Y-88479857D01*
X86112020Y-88480071D01*
X86024568Y-88480261D01*
X85928711Y-88480431D01*
X85824060Y-88480583D01*
X85710222Y-88480718D01*
X85586809Y-88480839D01*
X85453428Y-88480949D01*
X85309690Y-88481048D01*
X85155204Y-88481141D01*
X84989579Y-88481229D01*
X84812425Y-88481313D01*
X84623351Y-88481397D01*
X84427671Y-88481481D01*
X84258998Y-88481538D01*
X84093492Y-88481568D01*
X83931608Y-88481570D01*
X83773801Y-88481546D01*
X83620529Y-88481496D01*
X83472246Y-88481422D01*
X83329409Y-88481323D01*
X83192474Y-88481201D01*
X83061896Y-88481057D01*
X82938132Y-88480891D01*
X82821638Y-88480705D01*
X82712869Y-88480498D01*
X82612281Y-88480272D01*
X82520331Y-88480027D01*
X82437474Y-88479765D01*
X82364167Y-88479486D01*
X82300864Y-88479191D01*
X82248023Y-88478880D01*
X82206099Y-88478555D01*
X82175548Y-88478216D01*
X82156825Y-88477864D01*
X82150482Y-88477541D01*
X82124185Y-88466394D01*
X82098344Y-88447426D01*
X82078082Y-88424614D01*
X82074246Y-88418336D01*
X82073252Y-88416078D01*
X82072320Y-88412787D01*
X82071447Y-88408072D01*
X82070631Y-88401542D01*
X82069870Y-88392805D01*
X82069162Y-88381470D01*
X82068505Y-88367144D01*
X82067898Y-88349438D01*
X82067339Y-88327958D01*
X82066824Y-88302314D01*
X82066354Y-88272114D01*
X82065925Y-88236966D01*
X82065536Y-88196479D01*
X82065185Y-88150262D01*
X82064870Y-88097922D01*
X82064589Y-88039069D01*
X82064339Y-87973311D01*
X82064121Y-87900256D01*
X82063930Y-87819513D01*
X82063766Y-87730690D01*
X82063626Y-87633396D01*
X82063508Y-87527239D01*
X82063412Y-87411828D01*
X82063334Y-87286771D01*
X82063272Y-87151676D01*
X82063226Y-87006153D01*
X82063192Y-86849810D01*
X82063169Y-86682254D01*
X82063156Y-86503095D01*
X82063149Y-86311941D01*
X82063148Y-86155000D01*
X82063148Y-83911957D01*
X82077977Y-83888106D01*
X82093069Y-83869842D01*
X82112975Y-83852867D01*
X82119779Y-83848448D01*
X82146751Y-83832642D01*
X84386163Y-83832642D01*
X84586493Y-83832643D01*
G37*
G36*
X83911605Y-85831602D02*
G01*
X83953093Y-85832260D01*
X83983748Y-85833410D01*
X84004497Y-85835097D01*
X84016264Y-85837363D01*
X84019386Y-85839007D01*
X84020624Y-85846466D01*
X84021761Y-85865575D01*
X84022796Y-85895291D01*
X84023729Y-85934574D01*
X84024560Y-85982383D01*
X84025287Y-86037676D01*
X84025909Y-86099412D01*
X84026427Y-86166551D01*
X84026839Y-86238051D01*
X84027145Y-86312871D01*
X84027344Y-86389970D01*
X84027435Y-86468307D01*
X84027417Y-86546840D01*
X84027291Y-86624529D01*
X84027055Y-86700332D01*
X84026708Y-86773209D01*
X84026250Y-86842118D01*
X84025681Y-86906018D01*
X84024999Y-86963868D01*
X84024203Y-87014627D01*
X84023294Y-87057254D01*
X84022270Y-87090707D01*
X84021131Y-87113946D01*
X84020238Y-87123776D01*
X84003769Y-87211732D01*
X83979525Y-87289761D01*
X83947224Y-87358177D01*
X83906587Y-87417293D01*
X83857333Y-87467423D01*
X83799182Y-87508880D01*
X83731855Y-87541978D01*
X83655069Y-87567030D01*
X83615948Y-87576051D01*
X83573078Y-87582869D01*
X83521568Y-87588042D01*
X83465382Y-87591413D01*
X83408482Y-87592820D01*
X83354832Y-87592106D01*
X83308396Y-87589110D01*
X83303643Y-87588606D01*
X83214213Y-87573820D01*
X83134070Y-87550396D01*
X83063172Y-87518299D01*
X83001480Y-87477494D01*
X82948952Y-87427948D01*
X82905546Y-87369627D01*
X82871223Y-87302497D01*
X82845940Y-87226522D01*
X82840200Y-87202404D01*
X82836082Y-87182486D01*
X82832436Y-87162135D01*
X82829233Y-87140494D01*
X82826445Y-87116706D01*
X82824044Y-87089915D01*
X82822003Y-87059263D01*
X82820293Y-87023893D01*
X82818887Y-86982950D01*
X82817757Y-86935575D01*
X82816875Y-86880912D01*
X82816213Y-86818104D01*
X82815743Y-86746294D01*
X82815438Y-86664626D01*
X82815268Y-86572242D01*
X82815208Y-86468286D01*
X82815207Y-86434190D01*
X82815250Y-86331670D01*
X82815371Y-86241175D01*
X82815578Y-86162042D01*
X82815880Y-86093605D01*
X82816288Y-86035201D01*
X82816810Y-85986164D01*
X82817455Y-85945830D01*
X82818232Y-85913534D01*
X82819151Y-85888612D01*
X82820221Y-85870400D01*
X82821450Y-85858233D01*
X82822849Y-85851446D01*
X82823268Y-85850428D01*
X82831289Y-85834565D01*
X82984413Y-85832867D01*
X83033265Y-85832418D01*
X83070978Y-85832342D01*
X83099099Y-85832718D01*
X83119176Y-85833626D01*
X83132757Y-85835146D01*
X83141390Y-85837357D01*
X83146622Y-85840338D01*
X83147620Y-85841252D01*
X83149332Y-85843890D01*
X83150842Y-85848671D01*
X83152162Y-85856352D01*
X83153306Y-85867687D01*
X83154286Y-85883431D01*
X83155115Y-85904341D01*
X83155805Y-85931170D01*
X83156371Y-85964674D01*
X83156824Y-86005609D01*
X83157177Y-86054730D01*
X83157444Y-86112792D01*
X83157636Y-86180550D01*
X83157768Y-86258759D01*
X83157851Y-86348176D01*
X83157898Y-86445748D01*
X83157996Y-86541215D01*
X83158221Y-86631692D01*
X83158563Y-86716380D01*
X83159017Y-86794482D01*
X83159573Y-86865198D01*
X83160224Y-86927731D01*
X83160962Y-86981283D01*
X83161778Y-87025056D01*
X83162666Y-87058251D01*
X83163617Y-87080070D01*
X83164262Y-87087750D01*
X83174711Y-87146139D01*
X83189876Y-87193817D01*
X83210441Y-87232108D01*
X83237088Y-87262333D01*
X83264832Y-87282552D01*
X83299714Y-87299586D01*
X83338571Y-87310705D01*
X83384207Y-87316502D01*
X83430548Y-87317688D01*
X83491482Y-87313174D01*
X83543138Y-87300369D01*
X83586248Y-87278775D01*
X83621549Y-87247896D01*
X83649773Y-87207237D01*
X83671655Y-87156302D01*
X83672299Y-87154375D01*
X83673744Y-87147666D01*
X83675056Y-87136251D01*
X83676246Y-87119474D01*
X83677326Y-87096680D01*
X83678307Y-87067216D01*
X83679201Y-87030427D01*
X83680019Y-86985656D01*
X83680774Y-86932251D01*
X83681477Y-86869557D01*
X83682140Y-86796917D01*
X83682774Y-86713679D01*
X83683391Y-86619186D01*
X83684002Y-86512786D01*
X83684121Y-86490682D01*
X83684716Y-86383949D01*
X83685300Y-86289226D01*
X83685889Y-86205834D01*
X83686493Y-86133093D01*
X83687126Y-86070323D01*
X83687800Y-86016844D01*
X83688528Y-85971977D01*
X83689323Y-85935042D01*
X83690197Y-85905358D01*
X83691164Y-85882246D01*
X83692235Y-85865026D01*
X83693425Y-85853019D01*
X83694744Y-85845544D01*
X83696206Y-85841921D01*
X83696238Y-85841881D01*
X83700258Y-85838556D01*
X83707124Y-85836006D01*
X83718376Y-85834132D01*
X83735557Y-85832835D01*
X83760207Y-85832014D01*
X83793868Y-85831570D01*
X83838081Y-85831404D01*
X83858359Y-85831392D01*
X83911605Y-85831602D01*
G37*
X101187064Y-94670000D02*
X100732936Y-94670000D01*
X101187064Y-93200000D02*
X100732936Y-93200000D01*
X113807500Y-83677500D02*
X113807500Y-84465000D01*
X114305563Y-84705000D02*
X113020000Y-84705000D01*
X114305563Y-84705000D02*
X115370000Y-85769437D01*
X108550000Y-91525000D02*
X110900000Y-91525000D01*
X115370000Y-85769437D02*
X115370000Y-91525000D01*
X109614437Y-84705000D02*
X110900000Y-84705000D01*
X115370000Y-91525000D02*
X113020000Y-91525000D01*
X108550000Y-85769437D02*
X108550000Y-91525000D01*
X109614437Y-84705000D02*
X108550000Y-85769437D01*
X114201250Y-84071250D02*
X113413750Y-84071250D01*
X104660000Y-80065000D02*
X99260000Y-80065000D01*
X104660000Y-83365000D02*
X104660000Y-80065000D01*
X104660000Y-83365000D02*
X99260000Y-83365000D01*
D11*
X98185000Y-89090000D02*
X98185000Y-88945000D01*
X98185000Y-83940000D02*
X98185000Y-83990000D01*
X98185000Y-83990000D02*
X96785000Y-83990000D01*
X102335000Y-89090000D02*
X102335000Y-88945000D01*
X98185000Y-89090000D02*
X102335000Y-89090000D01*
X98185000Y-83940000D02*
X102335000Y-83940000D01*
X102335000Y-83940000D02*
X102335000Y-84085000D01*
%LPC*%
D13*
X91440000Y-85615000D03*
X91440000Y-80715000D03*
D14*
X89090000Y-90705000D03*
X89090000Y-93205000D03*
D15*
X96670000Y-80800000D03*
X96670000Y-82700000D03*
D16*
X83780000Y-96135000D03*
D17*
X86320000Y-96135000D03*
X88860000Y-96135000D03*
D16*
X106640000Y-96135000D03*
D17*
X109180000Y-96135000D03*
X111720000Y-96135000D03*
X114260000Y-96135000D03*
D18*
X84130000Y-81235000D03*
D19*
X100047500Y-91635000D03*
X101872500Y-91635000D03*
D14*
X86590000Y-90705000D03*
X86590000Y-93205000D03*
D20*
X94460000Y-90215000D03*
X94460000Y-95815000D03*
D15*
X105160000Y-85565000D03*
X105160000Y-87465000D03*
X107260000Y-85565000D03*
X107260000Y-87465000D03*
D16*
X106640000Y-80895000D03*
D17*
X109180000Y-80895000D03*
X111720000Y-80895000D03*
X114260000Y-80895000D03*
D21*
X101872500Y-93935000D03*
X100047500Y-93935000D03*
D20*
X111960000Y-85315000D03*
X111960000Y-90915000D03*
D22*
X103260000Y-81715000D03*
X99260000Y-81715000D03*
D23*
X100260000Y-86515000D03*
D24*
X97560000Y-84610000D03*
X97560000Y-85880000D03*
X97560000Y-87150000D03*
X97560000Y-88420000D03*
X102960000Y-88420000D03*
X102960000Y-87150000D03*
X102960000Y-85880000D03*
X102960000Y-84610000D03*
M02*
