M48
; DRILL file {KiCad (6.0.8)} date Fri Nov 18 22:40:23 2022
; FORMAT={-:-/ absolute / metric / decimal}
; #@! TF.CreationDate,2022-11-18T22:40:23+01:00
; #@! TF.GenerationSoftware,Kicad,Pcbnew,(6.0.8)
; #@! TF.FileFunction,Plated,1,2,PTH
FMAT,2
METRIC
; #@! TA.AperFunction,Plated,PTH,ViaDrill
T1C0.400
; #@! TA.AperFunction,Plated,PTH,ComponentDrill
T2C1.000
; #@! TA.AperFunction,Plated,PTH,ComponentDrill
T3C2.500
%
G90
G05
T1
X93.98Y-76.149
T2
X81.28Y-63.5
X81.28Y-78.74
X83.82Y-63.5
X83.82Y-78.74
X86.36Y-63.5
X86.36Y-78.74
X88.9Y-63.5
X88.9Y-78.74
X93.98Y-78.74
X96.52Y-78.74
X99.06Y-78.74
X101.6Y-63.5
X104.14Y-63.5
X106.68Y-63.5
T3
X75.2Y-62.52
X75.2Y-78.86
X116.53Y-62.52
T2
X80.39Y-69.294G85X80.39Y-71.494
G05
X84.89Y-75.194G85X82.69Y-75.194
G05
X86.69Y-69.094G85X86.69Y-71.694
G05
T0
M30
