%TF.GenerationSoftware,KiCad,Pcbnew,(6.0.8)*%
%TF.CreationDate,2022-11-18T22:38:32+01:00*%
%TF.ProjectId,Single-DCDC-Converter,53696e67-6c65-42d4-9443-44432d436f6e,rev?*%
%TF.SameCoordinates,Original*%
%TF.FileFunction,Copper,L1,Top*%
%TF.FilePolarity,Positive*%
%FSLAX46Y46*%
G04 Gerber Fmt 4.6, Leading zero omitted, Abs format (unit mm)*
G04 Created by KiCad (PCBNEW (6.0.8)) date 2022-11-18 22:38:32*
%MOMM*%
%LPD*%
G01*
G04 APERTURE LIST*
G04 Aperture macros list*
%AMRoundRect*
0 Rectangle with rounded corners*
0 $1 Rounding radius*
0 $2 $3 $4 $5 $6 $7 $8 $9 X,Y pos of 4 corners*
0 Add a 4 corners polygon primitive as box body*
4,1,4,$2,$3,$4,$5,$6,$7,$8,$9,$2,$3,0*
0 Add four circle primitives for the rounded corners*
1,1,$1+$1,$2,$3*
1,1,$1+$1,$4,$5*
1,1,$1+$1,$6,$7*
1,1,$1+$1,$8,$9*
0 Add four rect primitives between the rounded corners*
20,1,$1+$1,$2,$3,$4,$5,0*
20,1,$1+$1,$4,$5,$6,$7,0*
20,1,$1+$1,$6,$7,$8,$9,0*
20,1,$1+$1,$8,$9,$2,$3,0*%
G04 Aperture macros list end*
%TA.AperFunction,SMDPad,CuDef*%
%ADD10RoundRect,0.900000X-1.850000X-0.900000X1.850000X-0.900000X1.850000X0.900000X-1.850000X0.900000X0*%
%TD*%
%TA.AperFunction,SMDPad,CuDef*%
%ADD11RoundRect,0.900000X1.850000X0.900000X-1.850000X0.900000X-1.850000X-0.900000X1.850000X-0.900000X0*%
%TD*%
%TA.AperFunction,SMDPad,CuDef*%
%ADD12RoundRect,0.135000X-0.135000X-0.185000X0.135000X-0.185000X0.135000X0.185000X-0.135000X0.185000X0*%
%TD*%
%TA.AperFunction,SMDPad,CuDef*%
%ADD13RoundRect,0.250000X0.475000X-0.337500X0.475000X0.337500X-0.475000X0.337500X-0.475000X-0.337500X0*%
%TD*%
%TA.AperFunction,ComponentPad*%
%ADD14R,1.700000X1.700000*%
%TD*%
%TA.AperFunction,ComponentPad*%
%ADD15O,1.700000X1.700000*%
%TD*%
%TA.AperFunction,SMDPad,CuDef*%
%ADD16RoundRect,0.150000X-0.725000X-0.150000X0.725000X-0.150000X0.725000X0.150000X-0.725000X0.150000X0*%
%TD*%
%TA.AperFunction,SMDPad,CuDef*%
%ADD17RoundRect,0.250000X0.550000X-1.500000X0.550000X1.500000X-0.550000X1.500000X-0.550000X-1.500000X0*%
%TD*%
%TA.AperFunction,ComponentPad*%
%ADD18C,5.000000*%
%TD*%
%TA.AperFunction,SMDPad,CuDef*%
%ADD19RoundRect,0.250000X-0.450000X0.350000X-0.450000X-0.350000X0.450000X-0.350000X0.450000X0.350000X0*%
%TD*%
%TA.AperFunction,SMDPad,CuDef*%
%ADD20RoundRect,0.250000X-0.350000X-0.450000X0.350000X-0.450000X0.350000X0.450000X-0.350000X0.450000X0*%
%TD*%
%TA.AperFunction,SMDPad,CuDef*%
%ADD21RoundRect,0.250000X0.350000X0.450000X-0.350000X0.450000X-0.350000X-0.450000X0.350000X-0.450000X0*%
%TD*%
%TA.AperFunction,ComponentPad*%
%ADD22R,2.000000X4.600000*%
%TD*%
%TA.AperFunction,ComponentPad*%
%ADD23O,2.000000X4.200000*%
%TD*%
%TA.AperFunction,ComponentPad*%
%ADD24O,4.200000X2.000000*%
%TD*%
%TA.AperFunction,SMDPad,CuDef*%
%ADD25RoundRect,0.250000X-1.500000X-0.550000X1.500000X-0.550000X1.500000X0.550000X-1.500000X0.550000X0*%
%TD*%
%TA.AperFunction,ViaPad*%
%ADD26C,0.800000*%
%TD*%
%TA.AperFunction,Conductor*%
%ADD27C,1.200000*%
%TD*%
%TA.AperFunction,Conductor*%
%ADD28C,1.000000*%
%TD*%
%TA.AperFunction,Conductor*%
%ADD29C,0.500000*%
%TD*%
%TA.AperFunction,Conductor*%
%ADD30C,1.700000*%
%TD*%
%TA.AperFunction,Conductor*%
%ADD31C,1.500000*%
%TD*%
%TA.AperFunction,Conductor*%
%ADD32C,0.700000*%
%TD*%
G04 APERTURE END LIST*
D10*
X111201200Y-66930600D03*
D11*
X111201200Y-72210600D03*
D12*
X103860000Y-65930000D03*
X102840000Y-65930000D03*
D13*
X103682800Y-75434100D03*
X103682800Y-73359100D03*
D14*
X99060000Y-78740000D03*
D15*
X96520000Y-78740000D03*
X93980000Y-78740000D03*
D16*
X100777600Y-67360800D03*
X100777600Y-68630800D03*
X100777600Y-69900800D03*
X100777600Y-71170800D03*
X105927600Y-71170800D03*
X105927600Y-69900800D03*
X105927600Y-68630800D03*
X105927600Y-67360800D03*
D17*
X92710000Y-71888000D03*
X92710000Y-66288000D03*
D18*
X75200000Y-62520000D03*
D13*
X103200000Y-80537500D03*
X103200000Y-78462500D03*
D19*
X105918000Y-73371200D03*
X105918000Y-75371200D03*
D18*
X116530000Y-62520000D03*
D20*
X99150000Y-73440000D03*
X101150000Y-73440000D03*
D14*
X101600000Y-63500000D03*
D15*
X104140000Y-63500000D03*
X106680000Y-63500000D03*
D14*
X81280000Y-63500000D03*
D15*
X83820000Y-63500000D03*
X86360000Y-63500000D03*
X88900000Y-63500000D03*
D21*
X101150000Y-75840000D03*
X99150000Y-75840000D03*
D18*
X75200000Y-78860000D03*
D22*
X86690200Y-70393800D03*
D23*
X80390200Y-70393800D03*
D24*
X83790200Y-75193800D03*
D13*
X98050000Y-71319300D03*
X98050000Y-69244300D03*
D14*
X81280000Y-78740000D03*
D15*
X83820000Y-78740000D03*
X86360000Y-78740000D03*
X88900000Y-78740000D03*
D25*
X115560000Y-77800000D03*
X109960000Y-77800000D03*
D13*
X105500000Y-80539500D03*
X105500000Y-78464500D03*
D26*
X93980000Y-76149200D03*
D27*
X97436500Y-68630800D02*
X98050000Y-69244300D01*
X100777600Y-68630800D02*
X97436500Y-68630800D01*
D28*
X104495600Y-69900800D02*
X105927600Y-69900800D01*
X103943000Y-69348200D02*
X104495600Y-69900800D01*
X104140000Y-63500000D02*
X103943000Y-63697000D01*
X103943000Y-63697000D02*
X103943000Y-69348200D01*
D29*
X102343100Y-74411400D02*
X102114500Y-74640000D01*
X102114500Y-74640000D02*
X99225500Y-74640000D01*
X100777600Y-71170800D02*
X100980800Y-71170800D01*
X100980800Y-71170800D02*
X102336600Y-72526600D01*
X102336600Y-72526600D02*
X102336600Y-74371200D01*
D28*
X101126800Y-77454000D02*
X101126800Y-75800000D01*
X102412800Y-78740000D02*
X101126800Y-77454000D01*
X108585000Y-78740000D02*
X102412800Y-78740000D01*
X109798200Y-77526800D02*
X108585000Y-78740000D01*
X102743000Y-64643000D02*
X102743000Y-68012482D01*
D30*
X94202600Y-70440200D02*
X95398500Y-69244300D01*
D31*
X86736600Y-70440200D02*
X86690200Y-70393800D01*
D27*
X83820000Y-78740000D02*
X83889584Y-78740000D01*
D31*
X86690200Y-66370200D02*
X86690200Y-70444600D01*
X86690200Y-70393800D02*
X86840200Y-70543800D01*
X86690200Y-70444600D02*
X86840200Y-70594600D01*
X86840200Y-70543800D02*
X86840200Y-76001516D01*
X88900000Y-63500000D02*
X88900000Y-64160400D01*
D28*
X102743000Y-68012482D02*
X102124682Y-68630800D01*
D30*
X92837000Y-70440200D02*
X94202600Y-70440200D01*
D31*
X88900000Y-78740000D02*
X88900000Y-78061316D01*
D27*
X102124682Y-68630800D02*
X100777600Y-68630800D01*
D31*
X88900000Y-64160400D02*
X86690200Y-66370200D01*
X88900000Y-78061316D02*
X86840200Y-76001516D01*
D27*
X86628068Y-76001516D02*
X86840200Y-76001516D01*
D30*
X92837000Y-70440200D02*
X86736600Y-70440200D01*
D31*
X83820000Y-63500000D02*
X83820000Y-63770000D01*
D27*
X83889584Y-78740000D02*
X86628068Y-76001516D01*
D31*
X83820000Y-63770000D02*
X86525000Y-66475000D01*
D30*
X95398500Y-69244300D02*
X98050000Y-69244300D01*
D28*
X101600000Y-63500000D02*
X102743000Y-64643000D01*
D29*
X103745700Y-75371200D02*
X103682800Y-75434100D01*
X105918000Y-75371200D02*
X103745700Y-75371200D01*
D31*
X111252000Y-76448000D02*
X109976000Y-77724000D01*
X111252000Y-71982000D02*
X111252000Y-76448000D01*
D29*
X105927600Y-73361600D02*
X105918000Y-73371200D01*
X105927600Y-71170800D02*
X105927600Y-73361600D01*
X99126800Y-73482200D02*
X99152200Y-73456800D01*
X99126800Y-75742800D02*
X99126800Y-74692000D01*
X99126800Y-74692000D02*
X99126800Y-73482200D01*
D32*
X93980000Y-76149200D02*
X93980000Y-78740000D01*
%TA.AperFunction,Conductor*%
G36*
X111366288Y-66546354D02*
G01*
X111447070Y-66600330D01*
X111501046Y-66681112D01*
X111520000Y-66776400D01*
X111520000Y-69042200D01*
X111501046Y-69137488D01*
X111447070Y-69218270D01*
X111366288Y-69272246D01*
X111271000Y-69291200D01*
X107863963Y-69291200D01*
X107768675Y-69272246D01*
X107687893Y-69218270D01*
X107658882Y-69183419D01*
X107540297Y-69011199D01*
X107390651Y-68861813D01*
X107216287Y-68742201D01*
X107023046Y-68656366D01*
X107011946Y-68653711D01*
X107011942Y-68653710D01*
X106892457Y-68625135D01*
X106817398Y-68607184D01*
X106807258Y-68606457D01*
X106807257Y-68606457D01*
X106729775Y-68600903D01*
X106642740Y-68578394D01*
X106456758Y-68492064D01*
X106456755Y-68492063D01*
X106447496Y-68487765D01*
X106437661Y-68485038D01*
X106437657Y-68485036D01*
X106219578Y-68424557D01*
X106219574Y-68424556D01*
X106209729Y-68421826D01*
X106076618Y-68407600D01*
X106014897Y-68401004D01*
X106014894Y-68401004D01*
X106008308Y-68400300D01*
X105692500Y-68400300D01*
X105597212Y-68381346D01*
X105516430Y-68327370D01*
X105462454Y-68246588D01*
X105443500Y-68151300D01*
X105443500Y-66776400D01*
X105462454Y-66681112D01*
X105516430Y-66600330D01*
X105597212Y-66546354D01*
X105692500Y-66527400D01*
X111271000Y-66527400D01*
X111366288Y-66546354D01*
G37*
%TD.AperFunction*%
%TA.AperFunction,Conductor*%
G36*
X114634929Y-60108702D02*
G01*
X114681422Y-60162358D01*
X114691526Y-60232632D01*
X114662032Y-60297212D01*
X114645597Y-60313027D01*
X114585897Y-60360855D01*
X114350615Y-60598614D01*
X114348374Y-60601472D01*
X114314536Y-60644628D01*
X114144220Y-60861840D01*
X113969447Y-61147043D01*
X113967922Y-61150328D01*
X113967920Y-61150332D01*
X113861108Y-61380441D01*
X113828613Y-61450445D01*
X113723584Y-61768023D01*
X113722848Y-61771578D01*
X113722847Y-61771581D01*
X113656490Y-62092004D01*
X113655752Y-62095568D01*
X113655429Y-62099190D01*
X113655428Y-62099195D01*
X113627150Y-62416053D01*
X113626018Y-62428739D01*
X113626113Y-62432369D01*
X113626113Y-62432371D01*
X113630987Y-62618482D01*
X113634774Y-62763119D01*
X113635284Y-62766705D01*
X113635285Y-62766713D01*
X113649680Y-62867857D01*
X113681904Y-63094277D01*
X113682823Y-63097780D01*
X113682824Y-63097785D01*
X113731158Y-63282023D01*
X113766785Y-63417823D01*
X113888291Y-63729469D01*
X113889995Y-63732687D01*
X114018682Y-63975734D01*
X114044811Y-64025084D01*
X114046863Y-64028069D01*
X114046868Y-64028078D01*
X114232214Y-64297758D01*
X114232220Y-64297765D01*
X114234271Y-64300750D01*
X114328803Y-64409114D01*
X114445716Y-64543133D01*
X114454160Y-64552813D01*
X114701562Y-64777932D01*
X114704520Y-64780057D01*
X114704523Y-64780060D01*
X114849918Y-64884537D01*
X114973200Y-64973124D01*
X115265473Y-65135801D01*
X115574506Y-65263806D01*
X115578000Y-65264801D01*
X115578002Y-65264802D01*
X115892702Y-65354447D01*
X115892707Y-65354448D01*
X115896203Y-65355444D01*
X115899784Y-65356030D01*
X115899791Y-65356032D01*
X116222721Y-65408914D01*
X116222725Y-65408914D01*
X116226301Y-65409500D01*
X116229927Y-65409671D01*
X116556798Y-65425086D01*
X116556799Y-65425086D01*
X116560425Y-65425257D01*
X116568174Y-65424729D01*
X116890514Y-65402754D01*
X116890522Y-65402753D01*
X116894145Y-65402506D01*
X116897721Y-65401843D01*
X116897723Y-65401843D01*
X117219474Y-65342210D01*
X117219478Y-65342209D01*
X117223039Y-65341549D01*
X117542747Y-65243194D01*
X117849031Y-65108745D01*
X118084755Y-64970999D01*
X118134693Y-64941818D01*
X118134695Y-64941817D01*
X118137833Y-64939983D01*
X118140742Y-64937799D01*
X118402416Y-64741328D01*
X118402420Y-64741325D01*
X118405323Y-64739145D01*
X118647957Y-64508894D01*
X118735810Y-64403823D01*
X118743037Y-64395180D01*
X118802078Y-64355751D01*
X118873064Y-64354501D01*
X118933457Y-64391827D01*
X118964082Y-64455878D01*
X118965700Y-64476003D01*
X118965700Y-81161700D01*
X118945698Y-81229821D01*
X118892042Y-81276314D01*
X118839700Y-81287700D01*
X77171374Y-81287700D01*
X77103253Y-81267698D01*
X77056760Y-81214042D01*
X77046656Y-81143768D01*
X77076150Y-81079188D01*
X77084641Y-81070303D01*
X77219924Y-80941923D01*
X77317957Y-80848894D01*
X77532519Y-80592281D01*
X77541046Y-80579300D01*
X77714177Y-80315734D01*
X77714182Y-80315725D01*
X77716164Y-80312708D01*
X77810011Y-80126114D01*
X77864832Y-80017116D01*
X77864835Y-80017108D01*
X77866459Y-80013880D01*
X77868364Y-80008675D01*
X77980163Y-79703170D01*
X77980166Y-79703160D01*
X77981411Y-79699758D01*
X77982256Y-79696236D01*
X77982259Y-79696228D01*
X78058651Y-79378034D01*
X78058652Y-79378030D01*
X78059498Y-79374505D01*
X78084327Y-79169330D01*
X78099347Y-79045212D01*
X78099348Y-79045205D01*
X78099683Y-79042433D01*
X78101036Y-78999396D01*
X78105328Y-78862797D01*
X78105416Y-78860000D01*
X78105255Y-78857204D01*
X78098497Y-78740000D01*
X82564723Y-78740000D01*
X82583793Y-78957977D01*
X82640425Y-79169330D01*
X82732898Y-79367638D01*
X82858402Y-79546877D01*
X83013123Y-79701598D01*
X83017631Y-79704755D01*
X83017634Y-79704757D01*
X83187852Y-79823945D01*
X83192361Y-79827102D01*
X83197343Y-79829425D01*
X83197348Y-79829428D01*
X83385688Y-79917252D01*
X83390670Y-79919575D01*
X83395978Y-79920997D01*
X83395980Y-79920998D01*
X83461745Y-79938620D01*
X83602023Y-79976207D01*
X83820000Y-79995277D01*
X84037977Y-79976207D01*
X84178255Y-79938620D01*
X84244020Y-79920998D01*
X84244022Y-79920997D01*
X84249330Y-79919575D01*
X84254312Y-79917252D01*
X84442652Y-79829428D01*
X84442657Y-79829425D01*
X84447639Y-79827102D01*
X84452148Y-79823945D01*
X84622366Y-79704757D01*
X84622369Y-79704755D01*
X84626877Y-79701598D01*
X84781598Y-79546877D01*
X84907102Y-79367638D01*
X84999575Y-79169330D01*
X85036371Y-79032006D01*
X85068983Y-78975522D01*
X86538973Y-77505532D01*
X86601285Y-77471506D01*
X86672100Y-77476571D01*
X86717163Y-77505532D01*
X87628298Y-78416667D01*
X87662324Y-78478979D01*
X87663177Y-78521969D01*
X87663793Y-78522023D01*
X87644723Y-78740000D01*
X87663793Y-78957977D01*
X87720425Y-79169330D01*
X87812898Y-79367638D01*
X87938402Y-79546877D01*
X88093123Y-79701598D01*
X88097631Y-79704755D01*
X88097634Y-79704757D01*
X88267852Y-79823945D01*
X88272361Y-79827102D01*
X88277343Y-79829425D01*
X88277348Y-79829428D01*
X88465688Y-79917252D01*
X88470670Y-79919575D01*
X88475978Y-79920997D01*
X88475980Y-79920998D01*
X88541745Y-79938620D01*
X88682023Y-79976207D01*
X88900000Y-79995277D01*
X89117977Y-79976207D01*
X89258255Y-79938620D01*
X89324020Y-79920998D01*
X89324022Y-79920997D01*
X89329330Y-79919575D01*
X89334312Y-79917252D01*
X89522652Y-79829428D01*
X89522657Y-79829425D01*
X89527639Y-79827102D01*
X89532148Y-79823945D01*
X89702366Y-79704757D01*
X89702369Y-79704755D01*
X89706877Y-79701598D01*
X89861598Y-79546877D01*
X89987102Y-79367638D01*
X90079575Y-79169330D01*
X90136207Y-78957977D01*
X90155277Y-78740000D01*
X92724723Y-78740000D01*
X92743793Y-78957977D01*
X92800425Y-79169330D01*
X92892898Y-79367638D01*
X93018402Y-79546877D01*
X93173123Y-79701598D01*
X93177631Y-79704755D01*
X93177634Y-79704757D01*
X93347852Y-79823945D01*
X93352361Y-79827102D01*
X93357343Y-79829425D01*
X93357348Y-79829428D01*
X93545688Y-79917252D01*
X93550670Y-79919575D01*
X93555978Y-79920997D01*
X93555980Y-79920998D01*
X93621745Y-79938620D01*
X93762023Y-79976207D01*
X93980000Y-79995277D01*
X94197977Y-79976207D01*
X94338255Y-79938620D01*
X94404020Y-79920998D01*
X94404022Y-79920997D01*
X94409330Y-79919575D01*
X94414312Y-79917252D01*
X94602652Y-79829428D01*
X94602657Y-79829425D01*
X94607639Y-79827102D01*
X94612148Y-79823945D01*
X94782366Y-79704757D01*
X94782369Y-79704755D01*
X94786877Y-79701598D01*
X94941598Y-79546877D01*
X95067102Y-79367638D01*
X95159575Y-79169330D01*
X95216207Y-78957977D01*
X95235277Y-78740000D01*
X95216207Y-78522023D01*
X95159575Y-78310670D01*
X95067102Y-78112362D01*
X94941598Y-77933123D01*
X94786877Y-77778402D01*
X94782366Y-77775243D01*
X94778153Y-77771708D01*
X94779284Y-77770360D01*
X94739903Y-77721095D01*
X94730500Y-77673335D01*
X94730500Y-76450997D01*
X94738712Y-76406254D01*
X94757755Y-76356122D01*
X94760257Y-76349536D01*
X94781355Y-76199413D01*
X94784700Y-76175616D01*
X94784700Y-76175611D01*
X94785251Y-76171693D01*
X94785565Y-76149200D01*
X94765546Y-75970728D01*
X94762807Y-75962861D01*
X94719936Y-75839753D01*
X94706485Y-75801127D01*
X94611316Y-75648825D01*
X94524964Y-75561868D01*
X94489733Y-75526390D01*
X94489729Y-75526387D01*
X94484770Y-75521393D01*
X94473761Y-75514406D01*
X94408157Y-75472773D01*
X94333136Y-75425163D01*
X94303352Y-75414557D01*
X94170586Y-75367281D01*
X94170581Y-75367280D01*
X94163951Y-75364919D01*
X94156965Y-75364086D01*
X94156961Y-75364085D01*
X94029177Y-75348848D01*
X93985624Y-75343655D01*
X93978621Y-75344391D01*
X93978620Y-75344391D01*
X93814025Y-75361690D01*
X93814021Y-75361691D01*
X93807017Y-75362427D01*
X93800346Y-75364698D01*
X93643677Y-75418032D01*
X93643674Y-75418033D01*
X93637007Y-75420303D01*
X93631009Y-75423993D01*
X93631007Y-75423994D01*
X93560526Y-75467355D01*
X93484045Y-75514406D01*
X93479014Y-75519332D01*
X93479011Y-75519335D01*
X93473263Y-75524964D01*
X93355732Y-75640059D01*
X93351913Y-75645984D01*
X93351912Y-75645986D01*
X93262265Y-75785091D01*
X93258446Y-75791017D01*
X93256037Y-75797637D01*
X93256035Y-75797640D01*
X93230517Y-75867750D01*
X93197022Y-75959778D01*
X93174514Y-76137953D01*
X93175201Y-76144960D01*
X93175201Y-76144963D01*
X93183276Y-76227319D01*
X93192039Y-76316686D01*
X93194262Y-76323368D01*
X93194262Y-76323369D01*
X93223059Y-76409937D01*
X93229500Y-76449708D01*
X93229500Y-77673335D01*
X93209498Y-77741456D01*
X93181183Y-77770913D01*
X93181848Y-77771706D01*
X93177626Y-77775249D01*
X93173123Y-77778402D01*
X93018402Y-77933123D01*
X92892898Y-78112362D01*
X92800425Y-78310670D01*
X92743793Y-78522023D01*
X92724723Y-78740000D01*
X90155277Y-78740000D01*
X90136207Y-78522023D01*
X90079575Y-78310670D01*
X90062306Y-78273636D01*
X90050500Y-78220385D01*
X90050500Y-78104353D01*
X90050770Y-78096112D01*
X90054655Y-78036836D01*
X90055033Y-78031070D01*
X90044564Y-77942625D01*
X90044222Y-77939359D01*
X90036610Y-77856510D01*
X90036609Y-77856507D01*
X90036081Y-77850756D01*
X90034512Y-77845194D01*
X90033949Y-77842155D01*
X90031499Y-77829835D01*
X90030858Y-77826822D01*
X90030180Y-77821089D01*
X90028466Y-77815568D01*
X90003795Y-77736115D01*
X90002858Y-77732952D01*
X89980256Y-77652809D01*
X89980251Y-77652795D01*
X89978686Y-77647247D01*
X89976134Y-77642072D01*
X89975025Y-77639183D01*
X89970389Y-77627564D01*
X89969190Y-77624670D01*
X89967477Y-77619153D01*
X89926033Y-77540380D01*
X89924539Y-77537449D01*
X89887723Y-77462792D01*
X89887720Y-77462787D01*
X89885165Y-77457606D01*
X89881707Y-77452975D01*
X89880056Y-77450281D01*
X89873379Y-77439698D01*
X89871708Y-77437125D01*
X89869024Y-77432024D01*
X89813902Y-77362101D01*
X89811905Y-77359499D01*
X89762104Y-77292807D01*
X89762103Y-77292806D01*
X89758651Y-77288183D01*
X89697878Y-77232005D01*
X89694313Y-77228576D01*
X88870919Y-76405182D01*
X88027604Y-75561868D01*
X87993580Y-75499557D01*
X87990700Y-75472774D01*
X87990700Y-73008362D01*
X88010702Y-72940241D01*
X88011894Y-72938498D01*
X88018250Y-72932142D01*
X88025135Y-72918631D01*
X88061002Y-72848236D01*
X88075846Y-72819104D01*
X88090700Y-72725319D01*
X88090700Y-71816700D01*
X88110702Y-71748579D01*
X88164358Y-71702086D01*
X88216700Y-71690700D01*
X91383500Y-71690700D01*
X91451621Y-71710702D01*
X91498114Y-71764358D01*
X91509500Y-71816700D01*
X91509500Y-73453694D01*
X91509692Y-73456140D01*
X91509693Y-73456153D01*
X91511367Y-73477416D01*
X91512402Y-73490569D01*
X91558256Y-73648398D01*
X91641919Y-73789865D01*
X91758135Y-73906081D01*
X91764956Y-73910115D01*
X91824328Y-73945227D01*
X91899602Y-73989744D01*
X91907214Y-73991955D01*
X91907215Y-73991956D01*
X91930614Y-73998754D01*
X92057431Y-74035598D01*
X92070584Y-74036633D01*
X92091847Y-74038307D01*
X92091860Y-74038308D01*
X92094306Y-74038500D01*
X93325694Y-74038500D01*
X93328140Y-74038308D01*
X93328153Y-74038307D01*
X93349416Y-74036633D01*
X93362569Y-74035598D01*
X93489386Y-73998754D01*
X93512785Y-73991956D01*
X93512786Y-73991955D01*
X93520398Y-73989744D01*
X93595673Y-73945227D01*
X93655044Y-73910115D01*
X93661865Y-73906081D01*
X93778081Y-73789865D01*
X93861744Y-73648398D01*
X93907598Y-73490569D01*
X93908633Y-73477416D01*
X93910307Y-73456153D01*
X93910308Y-73456140D01*
X93910500Y-73453694D01*
X93910500Y-71816700D01*
X93930502Y-71748579D01*
X93984158Y-71702086D01*
X94036500Y-71690700D01*
X94111738Y-71690700D01*
X94128185Y-71691778D01*
X94144453Y-71693920D01*
X94144455Y-71693920D01*
X94150022Y-71694653D01*
X94230870Y-71690840D01*
X94236807Y-71690700D01*
X94259230Y-71690700D01*
X94278117Y-71689015D01*
X94285052Y-71688396D01*
X94290313Y-71688037D01*
X94291099Y-71688000D01*
X94372998Y-71684137D01*
X94378461Y-71682886D01*
X94378467Y-71682885D01*
X94390311Y-71680172D01*
X94407245Y-71677490D01*
X94424939Y-71675911D01*
X94430355Y-71674429D01*
X94430357Y-71674429D01*
X94504781Y-71654069D01*
X94509899Y-71652783D01*
X94585121Y-71635555D01*
X94585122Y-71635555D01*
X94590587Y-71634303D01*
X94595741Y-71632105D01*
X94595752Y-71632101D01*
X94606926Y-71627334D01*
X94623117Y-71621695D01*
X94634833Y-71618490D01*
X94634832Y-71618490D01*
X94640251Y-71617008D01*
X94714977Y-71581365D01*
X94719757Y-71579207D01*
X94738246Y-71571321D01*
X94795913Y-71546724D01*
X94810771Y-71536964D01*
X94825691Y-71528558D01*
X94841729Y-71520908D01*
X94846282Y-71517637D01*
X94846286Y-71517634D01*
X94908941Y-71472611D01*
X94913290Y-71469621D01*
X94978624Y-71426705D01*
X94978628Y-71426702D01*
X94982484Y-71424169D01*
X95003101Y-71405801D01*
X95013386Y-71397560D01*
X95023005Y-71390648D01*
X95096886Y-71314409D01*
X95098275Y-71312999D01*
X95879569Y-70531705D01*
X95941881Y-70497679D01*
X95968664Y-70494800D01*
X98106630Y-70494800D01*
X98109417Y-70494551D01*
X98109423Y-70494551D01*
X98178997Y-70488341D01*
X98272339Y-70480011D01*
X98277753Y-70478530D01*
X98277758Y-70478529D01*
X98405104Y-70443690D01*
X98487651Y-70421108D01*
X98492709Y-70418696D01*
X98492713Y-70418694D01*
X98594051Y-70370358D01*
X98689129Y-70325008D01*
X98870405Y-70194748D01*
X98975611Y-70086184D01*
X99021846Y-70038474D01*
X99021848Y-70038471D01*
X99025749Y-70034446D01*
X99150250Y-69849168D01*
X99212810Y-69706653D01*
X99258505Y-69652319D01*
X99328182Y-69631300D01*
X102175482Y-69631300D01*
X102223475Y-69626425D01*
X102320550Y-69616565D01*
X102320552Y-69616565D01*
X102326898Y-69615920D01*
X102520854Y-69555138D01*
X102698626Y-69456597D01*
X102837549Y-69337526D01*
X102902288Y-69308382D01*
X102972506Y-69318864D01*
X103025910Y-69365646D01*
X103045373Y-69426601D01*
X103048687Y-69489846D01*
X103052274Y-69503231D01*
X103055878Y-69522679D01*
X103057326Y-69536456D01*
X103059366Y-69542733D01*
X103059366Y-69542735D01*
X103078265Y-69600901D01*
X103080138Y-69607225D01*
X103095970Y-69666309D01*
X103095972Y-69666315D01*
X103097680Y-69672688D01*
X103100676Y-69678567D01*
X103100677Y-69678571D01*
X103103973Y-69685040D01*
X103111536Y-69703297D01*
X103115821Y-69716484D01*
X103119121Y-69722199D01*
X103119121Y-69722200D01*
X103149703Y-69775171D01*
X103152849Y-69780966D01*
X103180619Y-69835466D01*
X103183617Y-69841349D01*
X103187771Y-69846478D01*
X103187771Y-69846479D01*
X103192339Y-69852120D01*
X103203534Y-69868409D01*
X103210467Y-69880416D01*
X103214888Y-69885326D01*
X103255815Y-69930780D01*
X103260099Y-69935796D01*
X103266842Y-69944122D01*
X103272881Y-69951580D01*
X103287230Y-69965929D01*
X103291771Y-69970713D01*
X103327450Y-70010338D01*
X103337129Y-70021088D01*
X103348351Y-70029241D01*
X103363379Y-70042078D01*
X103801722Y-70480421D01*
X103814559Y-70495449D01*
X103822712Y-70506671D01*
X103827614Y-70511084D01*
X103827615Y-70511086D01*
X103873087Y-70552029D01*
X103877871Y-70556570D01*
X103892220Y-70570919D01*
X103894784Y-70572995D01*
X103908004Y-70583701D01*
X103913020Y-70587985D01*
X103926485Y-70600109D01*
X103963384Y-70633333D01*
X103975391Y-70640266D01*
X103991680Y-70651461D01*
X104002451Y-70660183D01*
X104008331Y-70663179D01*
X104008334Y-70663181D01*
X104062834Y-70690951D01*
X104068629Y-70694097D01*
X104071768Y-70695909D01*
X104127316Y-70727979D01*
X104139147Y-70731823D01*
X104140503Y-70732264D01*
X104158760Y-70739827D01*
X104165229Y-70743123D01*
X104165233Y-70743124D01*
X104171112Y-70746120D01*
X104236580Y-70763662D01*
X104242881Y-70765529D01*
X104307344Y-70786474D01*
X104320687Y-70787876D01*
X104321133Y-70787923D01*
X104340571Y-70791526D01*
X104342140Y-70791946D01*
X104353954Y-70795112D01*
X104360554Y-70795458D01*
X104360555Y-70795458D01*
X104421611Y-70798658D01*
X104428185Y-70799175D01*
X104445134Y-70800956D01*
X104445136Y-70800956D01*
X104448408Y-70801300D01*
X104468733Y-70801300D01*
X104475327Y-70801473D01*
X104537521Y-70804733D01*
X104604500Y-70828271D01*
X104648122Y-70884286D01*
X104656013Y-70945695D01*
X104653156Y-70969301D01*
X104652556Y-70974263D01*
X104652100Y-70978028D01*
X104652100Y-71363572D01*
X104662964Y-71453347D01*
X104665944Y-71460875D01*
X104665945Y-71460877D01*
X104670591Y-71472611D01*
X104718487Y-71593583D01*
X104809678Y-71713722D01*
X104929817Y-71804913D01*
X104959588Y-71816700D01*
X105062523Y-71857455D01*
X105062525Y-71857456D01*
X105070053Y-71860436D01*
X105096966Y-71863693D01*
X105156058Y-71870844D01*
X105156062Y-71870844D01*
X105159362Y-71871244D01*
X105159363Y-71871244D01*
X105159828Y-71871300D01*
X105159815Y-71871407D01*
X105225486Y-71895075D01*
X105268660Y-71951435D01*
X105277100Y-71996774D01*
X105277100Y-72307697D01*
X105257098Y-72375818D01*
X105206969Y-72418386D01*
X105207602Y-72419456D01*
X105118892Y-72471919D01*
X105088951Y-72489626D01*
X105066135Y-72503119D01*
X104949919Y-72619335D01*
X104945885Y-72626156D01*
X104884349Y-72730209D01*
X104866256Y-72760802D01*
X104864045Y-72768414D01*
X104864044Y-72768415D01*
X104848635Y-72821453D01*
X104820402Y-72918631D01*
X104819897Y-72925050D01*
X104817693Y-72953047D01*
X104817692Y-72953060D01*
X104817500Y-72955506D01*
X104817500Y-73786894D01*
X104817692Y-73789340D01*
X104817693Y-73789353D01*
X104818175Y-73795471D01*
X104820402Y-73823769D01*
X104822199Y-73829954D01*
X104862741Y-73969498D01*
X104866256Y-73981598D01*
X104870291Y-73988420D01*
X104870291Y-73988421D01*
X104942575Y-74110647D01*
X104949919Y-74123065D01*
X105066135Y-74239281D01*
X105072955Y-74243314D01*
X105072961Y-74243319D01*
X105105812Y-74262747D01*
X105154265Y-74314640D01*
X105166970Y-74384490D01*
X105139895Y-74450121D01*
X105105812Y-74479653D01*
X105072961Y-74499081D01*
X105072955Y-74499086D01*
X105066135Y-74503119D01*
X104949919Y-74619335D01*
X104945887Y-74626153D01*
X104945883Y-74626158D01*
X104926555Y-74658840D01*
X104874662Y-74707292D01*
X104818102Y-74720700D01*
X104754036Y-74720700D01*
X104685915Y-74700698D01*
X104664941Y-74683795D01*
X104559665Y-74578519D01*
X104418198Y-74494856D01*
X104410586Y-74492645D01*
X104410585Y-74492644D01*
X104266554Y-74450799D01*
X104266555Y-74450799D01*
X104260369Y-74449002D01*
X104247216Y-74447967D01*
X104225953Y-74446293D01*
X104225940Y-74446292D01*
X104223494Y-74446100D01*
X103142106Y-74446100D01*
X103139657Y-74446293D01*
X103139650Y-74446293D01*
X103130349Y-74447025D01*
X103124483Y-74447487D01*
X103055004Y-74432891D01*
X103004445Y-74383049D01*
X102989157Y-74333729D01*
X102987659Y-74317877D01*
X102987100Y-74306023D01*
X102987100Y-72607601D01*
X102987649Y-72595960D01*
X102989360Y-72588304D01*
X102987162Y-72518356D01*
X102987100Y-72514399D01*
X102987100Y-72485675D01*
X102986562Y-72481412D01*
X102985629Y-72469573D01*
X102984447Y-72431957D01*
X102984198Y-72424031D01*
X102978319Y-72403793D01*
X102974311Y-72384439D01*
X102972665Y-72371408D01*
X102972665Y-72371406D01*
X102971671Y-72363542D01*
X102963301Y-72342402D01*
X102954901Y-72321184D01*
X102951056Y-72309954D01*
X102940556Y-72273812D01*
X102940556Y-72273811D01*
X102938345Y-72266202D01*
X102934312Y-72259383D01*
X102934310Y-72259378D01*
X102927620Y-72248067D01*
X102918920Y-72230308D01*
X102914088Y-72218104D01*
X102911168Y-72210729D01*
X102884391Y-72173873D01*
X102877875Y-72163953D01*
X102858719Y-72131563D01*
X102854681Y-72124735D01*
X102839788Y-72109842D01*
X102826947Y-72094808D01*
X102819223Y-72084177D01*
X102814563Y-72077763D01*
X102779456Y-72048720D01*
X102770677Y-72040731D01*
X102090005Y-71360059D01*
X102055979Y-71297747D01*
X102053100Y-71270964D01*
X102053100Y-70978028D01*
X102042236Y-70888253D01*
X102030703Y-70859122D01*
X102006968Y-70799175D01*
X101986713Y-70748017D01*
X101895522Y-70627878D01*
X101775383Y-70536687D01*
X101686096Y-70501336D01*
X101642677Y-70484145D01*
X101642675Y-70484144D01*
X101635147Y-70481164D01*
X101545372Y-70470300D01*
X100009828Y-70470300D01*
X99920053Y-70481164D01*
X99912525Y-70484144D01*
X99912523Y-70484145D01*
X99869104Y-70501336D01*
X99779817Y-70536687D01*
X99659678Y-70627878D01*
X99568487Y-70748017D01*
X99548232Y-70799175D01*
X99524498Y-70859122D01*
X99512964Y-70888253D01*
X99502100Y-70978028D01*
X99502100Y-71363572D01*
X99512964Y-71453347D01*
X99515944Y-71460875D01*
X99515945Y-71460877D01*
X99520591Y-71472611D01*
X99568487Y-71593583D01*
X99659678Y-71713722D01*
X99779817Y-71804913D01*
X99809588Y-71816700D01*
X99912523Y-71857455D01*
X99912525Y-71857456D01*
X99920053Y-71860436D01*
X100009828Y-71871300D01*
X100709163Y-71871300D01*
X100777284Y-71891302D01*
X100798258Y-71908204D01*
X101649195Y-72759140D01*
X101683220Y-72821453D01*
X101686100Y-72848236D01*
X101686100Y-73863500D01*
X101666098Y-73931621D01*
X101612442Y-73978114D01*
X101560100Y-73989500D01*
X100276500Y-73989500D01*
X100208379Y-73969498D01*
X100161886Y-73915842D01*
X100150500Y-73863500D01*
X100150500Y-72924306D01*
X100150308Y-72921860D01*
X100150307Y-72921847D01*
X100148103Y-72893850D01*
X100147598Y-72887431D01*
X100121048Y-72796045D01*
X100103956Y-72737215D01*
X100103955Y-72737214D01*
X100101744Y-72729602D01*
X100040567Y-72626156D01*
X100022115Y-72594956D01*
X100018081Y-72588135D01*
X99901865Y-72471919D01*
X99824715Y-72426293D01*
X99767221Y-72392291D01*
X99767220Y-72392291D01*
X99760398Y-72388256D01*
X99752786Y-72386045D01*
X99752785Y-72386044D01*
X99608754Y-72344199D01*
X99608755Y-72344199D01*
X99602569Y-72342402D01*
X99589416Y-72341367D01*
X99568153Y-72339693D01*
X99568140Y-72339692D01*
X99565694Y-72339500D01*
X98734306Y-72339500D01*
X98731860Y-72339692D01*
X98731847Y-72339693D01*
X98710584Y-72341367D01*
X98697431Y-72342402D01*
X98691245Y-72344199D01*
X98691246Y-72344199D01*
X98547215Y-72386044D01*
X98547214Y-72386045D01*
X98539602Y-72388256D01*
X98532780Y-72392291D01*
X98532779Y-72392291D01*
X98475285Y-72426293D01*
X98398135Y-72471919D01*
X98281919Y-72588135D01*
X98277885Y-72594956D01*
X98259434Y-72626156D01*
X98198256Y-72729602D01*
X98196045Y-72737214D01*
X98196044Y-72737215D01*
X98178952Y-72796045D01*
X98152402Y-72887431D01*
X98151897Y-72893850D01*
X98149693Y-72921847D01*
X98149692Y-72921860D01*
X98149500Y-72924306D01*
X98149500Y-73955694D01*
X98149692Y-73958140D01*
X98149693Y-73958153D01*
X98150586Y-73969498D01*
X98152402Y-73992569D01*
X98154199Y-73998754D01*
X98191944Y-74128671D01*
X98198256Y-74150398D01*
X98281919Y-74291865D01*
X98398135Y-74408081D01*
X98404957Y-74412116D01*
X98404959Y-74412117D01*
X98414438Y-74417723D01*
X98462891Y-74469616D01*
X98476300Y-74526177D01*
X98476300Y-74753823D01*
X98456298Y-74821944D01*
X98414438Y-74862277D01*
X98404959Y-74867883D01*
X98404957Y-74867884D01*
X98398135Y-74871919D01*
X98281919Y-74988135D01*
X98198256Y-75129602D01*
X98152402Y-75287431D01*
X98151897Y-75293850D01*
X98149693Y-75321847D01*
X98149692Y-75321860D01*
X98149500Y-75324306D01*
X98149500Y-76128075D01*
X98129498Y-76196196D01*
X98075842Y-76242689D01*
X98033388Y-76253687D01*
X97956723Y-76259721D01*
X97926132Y-76264566D01*
X97877530Y-76276971D01*
X97842533Y-76285903D01*
X97842531Y-76285904D01*
X97835333Y-76287741D01*
X97828763Y-76291208D01*
X97828762Y-76291208D01*
X97718218Y-76349536D01*
X97708081Y-76354885D01*
X97658581Y-76390849D01*
X97635717Y-76408480D01*
X97538429Y-76514484D01*
X97474947Y-76643602D01*
X97456040Y-76701793D01*
X97431300Y-76857998D01*
X97431300Y-79974800D01*
X97434375Y-80013880D01*
X97437121Y-80048770D01*
X97437522Y-80053870D01*
X97442367Y-80084463D01*
X97465543Y-80175267D01*
X97469009Y-80181835D01*
X97469009Y-80181836D01*
X97473959Y-80191218D01*
X97532687Y-80302519D01*
X97568651Y-80352019D01*
X97586282Y-80374883D01*
X97692286Y-80472171D01*
X97821404Y-80535653D01*
X97825692Y-80537046D01*
X97825694Y-80537047D01*
X97874882Y-80553029D01*
X97874886Y-80553030D01*
X97879595Y-80554560D01*
X97884482Y-80555334D01*
X97884486Y-80555335D01*
X97961347Y-80567508D01*
X98035800Y-80579300D01*
X101904658Y-80579300D01*
X102059395Y-80555034D01*
X102115335Y-80537047D01*
X102116318Y-80536731D01*
X102116328Y-80536727D01*
X102117095Y-80536481D01*
X102142872Y-80527418D01*
X102268586Y-80457435D01*
X102369491Y-80354869D01*
X102372156Y-80351247D01*
X102372160Y-80351243D01*
X102405517Y-80305916D01*
X102405757Y-80305590D01*
X102414147Y-80293841D01*
X102421924Y-80278265D01*
X102476410Y-80169138D01*
X102476413Y-80169131D01*
X102478419Y-80165113D01*
X102496804Y-80109687D01*
X102509136Y-80083240D01*
X102523700Y-80059613D01*
X102541785Y-80036713D01*
X102559396Y-80019071D01*
X102561394Y-80017069D01*
X102584263Y-79998944D01*
X102599473Y-79989532D01*
X102607862Y-79984341D01*
X102634287Y-79971963D01*
X102664720Y-79961810D01*
X102691571Y-79956009D01*
X102694807Y-79955673D01*
X102707810Y-79955000D01*
X103692591Y-79955000D01*
X103705409Y-79955654D01*
X103707883Y-79955907D01*
X103734731Y-79961660D01*
X103757762Y-79969299D01*
X103765316Y-79971805D01*
X103791755Y-79984133D01*
X103815390Y-79998702D01*
X103838283Y-80016782D01*
X103910036Y-80088409D01*
X103911190Y-80087253D01*
X103916465Y-80091111D01*
X103973341Y-80145602D01*
X103973346Y-80145606D01*
X103976448Y-80148578D01*
X104019688Y-80179936D01*
X104154702Y-80249640D01*
X104250724Y-80267402D01*
X104291759Y-80274993D01*
X104291761Y-80274993D01*
X104296182Y-80275811D01*
X104324257Y-80276938D01*
X104356438Y-80278230D01*
X104356463Y-80278231D01*
X104357319Y-80278265D01*
X104364161Y-80278344D01*
X104380789Y-80278537D01*
X104380795Y-80278537D01*
X104386192Y-80278599D01*
X104497405Y-80260673D01*
X104519343Y-80257137D01*
X104519344Y-80257137D01*
X104528239Y-80255703D01*
X104536367Y-80251823D01*
X104536369Y-80251822D01*
X104654020Y-80195654D01*
X104658082Y-80193715D01*
X104664858Y-80189196D01*
X104708651Y-80159987D01*
X104708984Y-80159765D01*
X104720893Y-80151574D01*
X104777148Y-80098148D01*
X104788321Y-80089372D01*
X104789770Y-80090819D01*
X104861393Y-80019070D01*
X104884260Y-80000946D01*
X104907863Y-79986340D01*
X104934287Y-79973963D01*
X104964720Y-79963810D01*
X104991571Y-79958009D01*
X104994807Y-79957673D01*
X105007810Y-79957000D01*
X105992591Y-79957000D01*
X106005409Y-79957654D01*
X106007883Y-79957907D01*
X106034731Y-79963660D01*
X106053381Y-79969846D01*
X106065316Y-79973805D01*
X106091759Y-79986136D01*
X106112533Y-79998941D01*
X106115385Y-80000699D01*
X106138283Y-80018782D01*
X106138573Y-80019071D01*
X106157929Y-80038392D01*
X106176058Y-80061266D01*
X106190661Y-80084865D01*
X106203040Y-80111291D01*
X106216322Y-80151102D01*
X106221329Y-80166111D01*
X106223570Y-80170446D01*
X106223573Y-80170453D01*
X106262313Y-80245390D01*
X106293054Y-80304854D01*
X106301024Y-80315734D01*
X106327064Y-80351281D01*
X106328774Y-80353616D01*
X106329292Y-80354285D01*
X106329307Y-80354305D01*
X106341605Y-80370189D01*
X106345239Y-80374883D01*
X106451243Y-80472171D01*
X106580361Y-80535653D01*
X106584649Y-80537046D01*
X106584651Y-80537047D01*
X106633839Y-80553029D01*
X106633843Y-80553030D01*
X106638552Y-80554560D01*
X106643439Y-80555334D01*
X106643443Y-80555335D01*
X106720304Y-80567508D01*
X106794757Y-80579300D01*
X112936000Y-80579300D01*
X112988018Y-80575207D01*
X113012620Y-80573271D01*
X113012625Y-80573270D01*
X113015070Y-80573078D01*
X113045663Y-80568233D01*
X113136467Y-80545057D01*
X113152721Y-80536481D01*
X113259743Y-80480011D01*
X113259744Y-80480010D01*
X113263719Y-80477913D01*
X113313219Y-80441949D01*
X113314991Y-80440583D01*
X113331806Y-80427616D01*
X113336083Y-80424318D01*
X113378137Y-80378497D01*
X113427276Y-80324955D01*
X113433371Y-80318314D01*
X113496853Y-80189196D01*
X113506064Y-80160846D01*
X113514229Y-80135718D01*
X113514230Y-80135714D01*
X113515760Y-80131005D01*
X113518883Y-80111291D01*
X113535177Y-80008408D01*
X113540500Y-79974800D01*
X113540500Y-74397650D01*
X113560502Y-74329529D01*
X113613250Y-74283455D01*
X113698953Y-74243491D01*
X113698956Y-74243489D01*
X113703934Y-74241168D01*
X113890339Y-74110647D01*
X114051247Y-73949739D01*
X114181768Y-73763334D01*
X114277939Y-73557096D01*
X114304987Y-73456153D01*
X114335411Y-73342607D01*
X114335411Y-73342605D01*
X114336835Y-73337292D01*
X114351700Y-73167384D01*
X114351700Y-71253816D01*
X114336835Y-71083908D01*
X114277939Y-70864104D01*
X114250253Y-70804732D01*
X114184091Y-70662847D01*
X114184089Y-70662844D01*
X114181768Y-70657866D01*
X114051247Y-70471461D01*
X113890339Y-70310553D01*
X113703934Y-70180032D01*
X113698956Y-70177711D01*
X113698953Y-70177709D01*
X113502678Y-70086184D01*
X113502676Y-70086183D01*
X113497696Y-70083861D01*
X113492388Y-70082439D01*
X113492386Y-70082438D01*
X113283207Y-70026389D01*
X113283205Y-70026389D01*
X113277892Y-70024965D01*
X113177536Y-70016185D01*
X113110708Y-70010338D01*
X113110701Y-70010338D01*
X113107984Y-70010100D01*
X112357987Y-70010100D01*
X112289866Y-69990098D01*
X112243373Y-69936442D01*
X112233269Y-69866168D01*
X112260841Y-69803859D01*
X112281082Y-69779354D01*
X112281084Y-69779351D01*
X112283117Y-69776890D01*
X112323478Y-69716484D01*
X112335430Y-69698597D01*
X112335431Y-69698596D01*
X112337093Y-69696108D01*
X112353143Y-69666309D01*
X112424616Y-69533603D01*
X112424617Y-69533601D01*
X112427551Y-69528153D01*
X112432258Y-69512813D01*
X112466299Y-69401860D01*
X112487226Y-69333652D01*
X112506180Y-69238364D01*
X112506200Y-69238157D01*
X112535770Y-69174164D01*
X112595667Y-69136047D01*
X112630626Y-69131100D01*
X113107984Y-69131100D01*
X113110701Y-69130862D01*
X113110708Y-69130862D01*
X113178898Y-69124896D01*
X113277892Y-69116235D01*
X113283205Y-69114811D01*
X113283207Y-69114811D01*
X113492386Y-69058762D01*
X113492388Y-69058761D01*
X113497696Y-69057339D01*
X113502678Y-69055016D01*
X113698953Y-68963491D01*
X113698956Y-68963489D01*
X113703934Y-68961168D01*
X113890339Y-68830647D01*
X114051247Y-68669739D01*
X114181768Y-68483334D01*
X114234575Y-68370091D01*
X114275616Y-68282078D01*
X114275617Y-68282076D01*
X114277939Y-68277096D01*
X114308999Y-68161180D01*
X114335411Y-68062607D01*
X114335411Y-68062605D01*
X114336835Y-68057292D01*
X114345761Y-67955264D01*
X114351462Y-67890108D01*
X114351462Y-67890101D01*
X114351700Y-67887384D01*
X114351700Y-65973816D01*
X114336835Y-65803908D01*
X114311353Y-65708807D01*
X114279362Y-65589414D01*
X114279361Y-65589412D01*
X114277939Y-65584104D01*
X114248933Y-65521900D01*
X114184091Y-65382847D01*
X114184089Y-65382844D01*
X114181768Y-65377866D01*
X114051247Y-65191461D01*
X113890339Y-65030553D01*
X113703934Y-64900032D01*
X113698956Y-64897711D01*
X113698953Y-64897709D01*
X113502678Y-64806184D01*
X113502676Y-64806183D01*
X113497696Y-64803861D01*
X113492388Y-64802439D01*
X113492386Y-64802438D01*
X113283207Y-64746389D01*
X113283205Y-64746389D01*
X113277892Y-64744965D01*
X113178898Y-64736304D01*
X113110708Y-64730338D01*
X113110701Y-64730338D01*
X113107984Y-64730100D01*
X109294416Y-64730100D01*
X109291699Y-64730338D01*
X109291692Y-64730338D01*
X109223502Y-64736304D01*
X109124508Y-64744965D01*
X109119195Y-64746389D01*
X109119193Y-64746389D01*
X108910014Y-64802438D01*
X108910012Y-64802439D01*
X108904704Y-64803861D01*
X108899724Y-64806183D01*
X108899722Y-64806184D01*
X108703447Y-64897709D01*
X108703444Y-64897711D01*
X108698466Y-64900032D01*
X108512061Y-65030553D01*
X108351153Y-65191461D01*
X108220632Y-65377866D01*
X108218311Y-65382843D01*
X108218306Y-65382852D01*
X108187390Y-65449151D01*
X108140473Y-65502436D01*
X108073196Y-65521900D01*
X105692500Y-65521900D01*
X105689428Y-65522203D01*
X105689419Y-65522203D01*
X105564673Y-65534490D01*
X105496336Y-65541220D01*
X105460773Y-65548294D01*
X105403978Y-65559591D01*
X105403974Y-65559592D01*
X105401048Y-65560174D01*
X105398192Y-65561031D01*
X105398190Y-65561031D01*
X105251581Y-65604998D01*
X105218322Y-65614972D01*
X105212859Y-65617870D01*
X105212856Y-65617871D01*
X105041419Y-65708807D01*
X105041412Y-65708811D01*
X105038592Y-65710307D01*
X105035936Y-65712082D01*
X105034102Y-65713177D01*
X104965360Y-65730930D01*
X104897934Y-65708701D01*
X104853229Y-65653547D01*
X104843500Y-65604998D01*
X104843500Y-64599574D01*
X104863502Y-64531453D01*
X104897230Y-64496361D01*
X104946877Y-64461598D01*
X105101598Y-64306877D01*
X105227102Y-64127638D01*
X105295805Y-63980305D01*
X105342723Y-63927020D01*
X105411000Y-63907559D01*
X105478960Y-63928101D01*
X105524195Y-63980305D01*
X105592898Y-64127638D01*
X105718402Y-64306877D01*
X105873123Y-64461598D01*
X105877631Y-64464755D01*
X105877634Y-64464757D01*
X105995159Y-64547049D01*
X106052361Y-64587102D01*
X106057343Y-64589425D01*
X106057348Y-64589428D01*
X106232364Y-64671039D01*
X106250670Y-64679575D01*
X106255978Y-64680997D01*
X106255980Y-64680998D01*
X106321745Y-64698620D01*
X106462023Y-64736207D01*
X106680000Y-64755277D01*
X106897977Y-64736207D01*
X107038255Y-64698620D01*
X107104020Y-64680998D01*
X107104022Y-64680997D01*
X107109330Y-64679575D01*
X107127636Y-64671039D01*
X107302652Y-64589428D01*
X107302657Y-64589425D01*
X107307639Y-64587102D01*
X107364841Y-64547049D01*
X107482366Y-64464757D01*
X107482369Y-64464755D01*
X107486877Y-64461598D01*
X107641598Y-64306877D01*
X107767102Y-64127638D01*
X107837937Y-63975734D01*
X107857252Y-63934312D01*
X107857253Y-63934310D01*
X107859575Y-63929330D01*
X107916207Y-63717977D01*
X107935277Y-63500000D01*
X107916207Y-63282023D01*
X107878620Y-63141745D01*
X107860998Y-63075980D01*
X107860997Y-63075978D01*
X107859575Y-63070670D01*
X107767102Y-62872362D01*
X107641598Y-62693123D01*
X107486877Y-62538402D01*
X107482369Y-62535245D01*
X107482366Y-62535243D01*
X107312148Y-62416055D01*
X107312145Y-62416053D01*
X107307639Y-62412898D01*
X107302657Y-62410575D01*
X107302652Y-62410572D01*
X107114312Y-62322748D01*
X107114311Y-62322747D01*
X107109330Y-62320425D01*
X107104022Y-62319003D01*
X107104020Y-62319002D01*
X107038255Y-62301380D01*
X106897977Y-62263793D01*
X106680000Y-62244723D01*
X106462023Y-62263793D01*
X106321745Y-62301380D01*
X106255980Y-62319002D01*
X106255978Y-62319003D01*
X106250670Y-62320425D01*
X106245690Y-62322747D01*
X106245688Y-62322748D01*
X106057343Y-62410575D01*
X106057340Y-62410577D01*
X106052362Y-62412898D01*
X105873123Y-62538402D01*
X105718402Y-62693123D01*
X105592898Y-62872362D01*
X105590577Y-62877340D01*
X105590575Y-62877343D01*
X105524195Y-63019695D01*
X105477277Y-63072980D01*
X105409000Y-63092441D01*
X105341040Y-63071899D01*
X105295805Y-63019695D01*
X105229425Y-62877343D01*
X105229423Y-62877340D01*
X105227102Y-62872362D01*
X105101598Y-62693123D01*
X104946877Y-62538402D01*
X104942369Y-62535245D01*
X104942366Y-62535243D01*
X104772148Y-62416055D01*
X104772145Y-62416053D01*
X104767639Y-62412898D01*
X104762657Y-62410575D01*
X104762652Y-62410572D01*
X104574312Y-62322748D01*
X104574311Y-62322747D01*
X104569330Y-62320425D01*
X104564022Y-62319003D01*
X104564020Y-62319002D01*
X104498255Y-62301380D01*
X104357977Y-62263793D01*
X104140000Y-62244723D01*
X103922023Y-62263793D01*
X103781745Y-62301380D01*
X103715980Y-62319002D01*
X103715978Y-62319003D01*
X103710670Y-62320425D01*
X103705690Y-62322747D01*
X103705688Y-62322748D01*
X103517343Y-62410575D01*
X103517340Y-62410577D01*
X103512362Y-62412898D01*
X103333123Y-62538402D01*
X103178402Y-62693123D01*
X103108837Y-62792473D01*
X103079712Y-62834068D01*
X103024255Y-62878396D01*
X102953636Y-62885705D01*
X102890275Y-62853674D01*
X102854290Y-62792473D01*
X102850499Y-62761797D01*
X102850499Y-62618482D01*
X102838434Y-62542299D01*
X102837198Y-62534494D01*
X102837197Y-62534492D01*
X102835646Y-62524696D01*
X102778050Y-62411658D01*
X102688342Y-62321950D01*
X102575304Y-62264354D01*
X102565515Y-62262804D01*
X102565513Y-62262803D01*
X102538151Y-62258470D01*
X102481519Y-62249500D01*
X101600178Y-62249500D01*
X100718482Y-62249501D01*
X100713589Y-62250276D01*
X100713588Y-62250276D01*
X100634494Y-62262802D01*
X100634492Y-62262803D01*
X100624696Y-62264354D01*
X100511658Y-62321950D01*
X100421950Y-62411658D01*
X100364354Y-62524696D01*
X100362804Y-62534485D01*
X100362803Y-62534487D01*
X100362183Y-62538402D01*
X100349500Y-62618481D01*
X100349501Y-64381518D01*
X100350276Y-64386411D01*
X100350276Y-64386412D01*
X100362684Y-64464757D01*
X100364354Y-64475304D01*
X100421950Y-64588342D01*
X100511658Y-64678050D01*
X100624696Y-64735646D01*
X100634485Y-64737196D01*
X100634487Y-64737197D01*
X100660571Y-64741328D01*
X100718481Y-64750500D01*
X101524811Y-64750500D01*
X101592932Y-64770502D01*
X101613906Y-64787405D01*
X101805595Y-64979094D01*
X101839621Y-65041406D01*
X101842500Y-65068189D01*
X101842500Y-67504300D01*
X101822498Y-67572421D01*
X101768842Y-67618914D01*
X101716500Y-67630300D01*
X97479935Y-67630300D01*
X97470268Y-67629929D01*
X97418289Y-67625929D01*
X97418285Y-67625929D01*
X97411929Y-67625440D01*
X97324745Y-67636454D01*
X97321736Y-67636797D01*
X97293554Y-67639660D01*
X97240630Y-67645035D01*
X97240626Y-67645036D01*
X97234284Y-67645680D01*
X97228201Y-67647586D01*
X97222413Y-67648774D01*
X97216604Y-67650115D01*
X97210276Y-67650915D01*
X97204236Y-67652971D01*
X97204237Y-67652971D01*
X97127096Y-67679231D01*
X97124171Y-67680187D01*
X97100263Y-67687680D01*
X97040328Y-67706462D01*
X97034742Y-67709558D01*
X97029320Y-67711882D01*
X97023905Y-67714361D01*
X97017863Y-67716418D01*
X97012361Y-67719646D01*
X96942089Y-67760874D01*
X96939416Y-67762399D01*
X96862556Y-67805003D01*
X96857709Y-67809158D01*
X96852848Y-67812536D01*
X96848058Y-67816042D01*
X96842552Y-67819272D01*
X96802396Y-67855430D01*
X96777280Y-67878044D01*
X96774966Y-67880077D01*
X96708229Y-67937277D01*
X96704317Y-67942320D01*
X96700263Y-67946577D01*
X96696244Y-67951009D01*
X96694043Y-67952991D01*
X96693392Y-67953389D01*
X96692324Y-67954538D01*
X96691518Y-67955264D01*
X96691094Y-67954793D01*
X96634373Y-67989465D01*
X96601608Y-67993800D01*
X95489362Y-67993800D01*
X95472915Y-67992722D01*
X95456647Y-67990580D01*
X95456645Y-67990580D01*
X95451078Y-67989847D01*
X95375072Y-67993432D01*
X95370229Y-67993660D01*
X95364293Y-67993800D01*
X95341870Y-67993800D01*
X95322983Y-67995485D01*
X95316048Y-67996104D01*
X95310787Y-67996463D01*
X95228102Y-68000363D01*
X95222639Y-68001614D01*
X95222633Y-68001615D01*
X95210789Y-68004328D01*
X95193855Y-68007010D01*
X95176161Y-68008589D01*
X95170745Y-68010071D01*
X95170743Y-68010071D01*
X95096319Y-68030431D01*
X95091201Y-68031717D01*
X95015979Y-68048945D01*
X95015978Y-68048945D01*
X95010513Y-68050197D01*
X95005359Y-68052395D01*
X95005348Y-68052399D01*
X94994174Y-68057166D01*
X94977984Y-68062805D01*
X94960849Y-68067492D01*
X94886123Y-68103135D01*
X94881343Y-68105293D01*
X94862854Y-68113179D01*
X94805187Y-68137776D01*
X94790329Y-68147536D01*
X94775409Y-68155942D01*
X94759371Y-68163592D01*
X94754818Y-68166863D01*
X94754814Y-68166866D01*
X94692159Y-68211889D01*
X94687810Y-68214879D01*
X94622476Y-68257795D01*
X94622472Y-68257798D01*
X94618616Y-68260331D01*
X94615165Y-68263406D01*
X94598001Y-68278698D01*
X94587714Y-68286940D01*
X94578095Y-68293852D01*
X94574193Y-68297879D01*
X94504214Y-68370091D01*
X94502825Y-68371501D01*
X93721531Y-69152795D01*
X93659219Y-69186821D01*
X93632436Y-69189700D01*
X88216699Y-69189700D01*
X88148578Y-69169698D01*
X88102085Y-69116042D01*
X88090699Y-69063700D01*
X88090699Y-68062282D01*
X88088587Y-68048945D01*
X88077398Y-67978294D01*
X88077397Y-67978292D01*
X88075846Y-67968496D01*
X88067664Y-67952437D01*
X88030794Y-67880077D01*
X88018250Y-67855458D01*
X87928542Y-67765750D01*
X87909497Y-67756046D01*
X87857882Y-67707297D01*
X87840700Y-67643779D01*
X87840700Y-66898943D01*
X87860702Y-66830822D01*
X87877605Y-66809848D01*
X89683087Y-65004366D01*
X89689105Y-64998729D01*
X89711494Y-64979094D01*
X89738119Y-64955745D01*
X89741693Y-64951212D01*
X89741701Y-64951203D01*
X89793232Y-64885835D01*
X89795308Y-64883271D01*
X89848521Y-64819289D01*
X89848524Y-64819285D01*
X89852219Y-64814842D01*
X89855043Y-64809800D01*
X89856844Y-64807179D01*
X89863729Y-64796875D01*
X89865448Y-64794229D01*
X89869024Y-64789692D01*
X89874092Y-64780060D01*
X89910465Y-64710927D01*
X89912038Y-64708029D01*
X89952715Y-64635394D01*
X89955537Y-64630355D01*
X89957394Y-64624883D01*
X89958681Y-64621993D01*
X89963588Y-64610571D01*
X89964786Y-64607679D01*
X89967477Y-64602564D01*
X89987367Y-64538509D01*
X89993875Y-64517551D01*
X89994893Y-64514416D01*
X90023504Y-64430130D01*
X90024334Y-64424408D01*
X90025048Y-64421433D01*
X90027836Y-64409114D01*
X90028468Y-64406140D01*
X90030180Y-64400627D01*
X90031247Y-64391618D01*
X90040646Y-64312199D01*
X90041077Y-64308928D01*
X90053845Y-64220870D01*
X90050597Y-64138200D01*
X90050500Y-64133253D01*
X90050500Y-64019615D01*
X90062306Y-63966364D01*
X90077250Y-63934317D01*
X90077252Y-63934312D01*
X90079575Y-63929330D01*
X90136207Y-63717977D01*
X90155277Y-63500000D01*
X90136207Y-63282023D01*
X90098620Y-63141745D01*
X90080998Y-63075980D01*
X90080997Y-63075978D01*
X90079575Y-63070670D01*
X89987102Y-62872362D01*
X89861598Y-62693123D01*
X89706877Y-62538402D01*
X89702369Y-62535245D01*
X89702366Y-62535243D01*
X89532148Y-62416055D01*
X89532145Y-62416053D01*
X89527639Y-62412898D01*
X89522657Y-62410575D01*
X89522652Y-62410572D01*
X89334312Y-62322748D01*
X89334311Y-62322747D01*
X89329330Y-62320425D01*
X89324022Y-62319003D01*
X89324020Y-62319002D01*
X89258255Y-62301380D01*
X89117977Y-62263793D01*
X88900000Y-62244723D01*
X88682023Y-62263793D01*
X88541745Y-62301380D01*
X88475980Y-62319002D01*
X88475978Y-62319003D01*
X88470670Y-62320425D01*
X88465690Y-62322747D01*
X88465688Y-62322748D01*
X88277343Y-62410575D01*
X88277340Y-62410577D01*
X88272362Y-62412898D01*
X88093123Y-62538402D01*
X87938402Y-62693123D01*
X87812898Y-62872362D01*
X87720425Y-63070670D01*
X87719003Y-63075978D01*
X87719002Y-63075980D01*
X87701380Y-63141745D01*
X87663793Y-63282023D01*
X87644723Y-63500000D01*
X87659638Y-63670478D01*
X87662822Y-63706876D01*
X87648833Y-63776480D01*
X87626396Y-63806952D01*
X86644295Y-64789053D01*
X86581983Y-64823079D01*
X86511168Y-64818014D01*
X86466105Y-64789053D01*
X85097948Y-63420896D01*
X85063922Y-63358584D01*
X85061522Y-63342781D01*
X85056686Y-63287503D01*
X85056686Y-63287502D01*
X85056207Y-63282023D01*
X85018620Y-63141745D01*
X85000998Y-63075980D01*
X85000997Y-63075978D01*
X84999575Y-63070670D01*
X84907102Y-62872362D01*
X84781598Y-62693123D01*
X84626877Y-62538402D01*
X84622369Y-62535245D01*
X84622366Y-62535243D01*
X84452148Y-62416055D01*
X84452145Y-62416053D01*
X84447639Y-62412898D01*
X84442657Y-62410575D01*
X84442652Y-62410572D01*
X84254312Y-62322748D01*
X84254311Y-62322747D01*
X84249330Y-62320425D01*
X84244022Y-62319003D01*
X84244020Y-62319002D01*
X84178255Y-62301380D01*
X84037977Y-62263793D01*
X83820000Y-62244723D01*
X83602023Y-62263793D01*
X83461745Y-62301380D01*
X83395980Y-62319002D01*
X83395978Y-62319003D01*
X83390670Y-62320425D01*
X83385690Y-62322747D01*
X83385688Y-62322748D01*
X83197343Y-62410575D01*
X83197340Y-62410577D01*
X83192362Y-62412898D01*
X83013123Y-62538402D01*
X82858402Y-62693123D01*
X82732898Y-62872362D01*
X82640425Y-63070670D01*
X82639003Y-63075978D01*
X82639002Y-63075980D01*
X82621380Y-63141745D01*
X82583793Y-63282023D01*
X82564723Y-63500000D01*
X82583793Y-63717977D01*
X82640425Y-63929330D01*
X82642747Y-63934311D01*
X82642748Y-63934312D01*
X82709477Y-64077412D01*
X82715613Y-64093292D01*
X82716209Y-64095211D01*
X82717146Y-64098374D01*
X82727682Y-64135731D01*
X82741314Y-64184069D01*
X82743866Y-64189244D01*
X82744975Y-64192133D01*
X82749611Y-64203752D01*
X82750810Y-64206646D01*
X82752523Y-64212163D01*
X82755213Y-64217275D01*
X82755213Y-64217276D01*
X82793963Y-64290927D01*
X82795461Y-64293867D01*
X82832277Y-64368524D01*
X82832280Y-64368529D01*
X82834835Y-64373710D01*
X82838293Y-64378341D01*
X82839944Y-64381035D01*
X82846621Y-64391618D01*
X82848292Y-64394191D01*
X82850976Y-64399292D01*
X82897024Y-64457703D01*
X82906087Y-64469200D01*
X82908083Y-64471801D01*
X82961349Y-64543133D01*
X83010256Y-64588342D01*
X83022121Y-64599310D01*
X83025687Y-64602740D01*
X84280439Y-65857491D01*
X85502795Y-67079847D01*
X85536820Y-67142159D01*
X85539700Y-67168942D01*
X85539700Y-67643779D01*
X85519698Y-67711900D01*
X85470903Y-67756046D01*
X85451858Y-67765750D01*
X85362150Y-67855458D01*
X85304554Y-67968496D01*
X85289700Y-68062281D01*
X85289701Y-72725318D01*
X85290476Y-72730209D01*
X85290476Y-72730212D01*
X85299876Y-72789563D01*
X85304554Y-72819104D01*
X85362150Y-72932142D01*
X85451858Y-73021850D01*
X85564896Y-73079446D01*
X85574689Y-73080997D01*
X85583408Y-73082378D01*
X85647561Y-73112788D01*
X85685090Y-73173056D01*
X85689700Y-73206827D01*
X85689700Y-75472773D01*
X85669698Y-75540894D01*
X85652795Y-75561868D01*
X83753735Y-77460928D01*
X83691423Y-77494954D01*
X83675622Y-77497354D01*
X83669551Y-77497885D01*
X83607504Y-77503313D01*
X83607499Y-77503314D01*
X83602023Y-77503793D01*
X83596710Y-77505217D01*
X83596708Y-77505217D01*
X83395980Y-77559002D01*
X83395978Y-77559003D01*
X83390670Y-77560425D01*
X83385690Y-77562747D01*
X83385688Y-77562748D01*
X83197343Y-77650575D01*
X83197340Y-77650577D01*
X83192362Y-77652898D01*
X83013123Y-77778402D01*
X82858402Y-77933123D01*
X82732898Y-78112362D01*
X82640425Y-78310670D01*
X82583793Y-78522023D01*
X82564723Y-78740000D01*
X78098497Y-78740000D01*
X78086370Y-78529680D01*
X78086369Y-78529675D01*
X78086161Y-78526060D01*
X78067069Y-78416667D01*
X78029276Y-78200119D01*
X78029274Y-78200112D01*
X78028652Y-78196546D01*
X78000123Y-78100232D01*
X77952966Y-77941034D01*
X77933650Y-77875825D01*
X77925412Y-77856510D01*
X77827757Y-77627564D01*
X77802415Y-77568150D01*
X77797198Y-77559002D01*
X77638478Y-77280737D01*
X77636687Y-77277597D01*
X77438662Y-77008018D01*
X77358330Y-76921570D01*
X77213431Y-76765641D01*
X77210964Y-76762986D01*
X76956612Y-76545749D01*
X76678977Y-76359186D01*
X76675767Y-76357529D01*
X76675760Y-76357525D01*
X76384959Y-76207432D01*
X76381739Y-76205770D01*
X76068838Y-76087535D01*
X75744421Y-76006047D01*
X75558711Y-75981598D01*
X75416391Y-75962861D01*
X75416383Y-75962860D01*
X75412787Y-75962387D01*
X75273863Y-75960205D01*
X75081976Y-75957190D01*
X75081972Y-75957190D01*
X75078334Y-75957133D01*
X75074720Y-75957494D01*
X75074713Y-75957494D01*
X74833219Y-75981598D01*
X74745493Y-75990354D01*
X74418676Y-76061612D01*
X74415249Y-76062785D01*
X74415243Y-76062787D01*
X74105646Y-76168786D01*
X74105641Y-76168788D01*
X74102215Y-76169961D01*
X74098947Y-76171520D01*
X74098939Y-76171523D01*
X73969196Y-76233408D01*
X73800305Y-76313965D01*
X73516947Y-76491715D01*
X73514111Y-76493987D01*
X73514104Y-76493992D01*
X73322006Y-76647892D01*
X73255897Y-76700855D01*
X73020615Y-76938614D01*
X72991853Y-76975296D01*
X72934080Y-77016559D01*
X72863169Y-77020038D01*
X72801633Y-76984628D01*
X72769011Y-76921570D01*
X72766700Y-76897548D01*
X72766700Y-64479157D01*
X72786702Y-64411036D01*
X72840358Y-64364543D01*
X72910632Y-64354439D01*
X72975212Y-64383933D01*
X72987649Y-64396328D01*
X73115716Y-64543133D01*
X73124160Y-64552813D01*
X73371562Y-64777932D01*
X73374520Y-64780057D01*
X73374523Y-64780060D01*
X73519918Y-64884537D01*
X73643200Y-64973124D01*
X73935473Y-65135801D01*
X74244506Y-65263806D01*
X74248000Y-65264801D01*
X74248002Y-65264802D01*
X74562702Y-65354447D01*
X74562707Y-65354448D01*
X74566203Y-65355444D01*
X74569784Y-65356030D01*
X74569791Y-65356032D01*
X74892721Y-65408914D01*
X74892725Y-65408914D01*
X74896301Y-65409500D01*
X74899927Y-65409671D01*
X75226798Y-65425086D01*
X75226799Y-65425086D01*
X75230425Y-65425257D01*
X75238174Y-65424729D01*
X75560514Y-65402754D01*
X75560522Y-65402753D01*
X75564145Y-65402506D01*
X75567721Y-65401843D01*
X75567723Y-65401843D01*
X75889474Y-65342210D01*
X75889478Y-65342209D01*
X75893039Y-65341549D01*
X76212747Y-65243194D01*
X76519031Y-65108745D01*
X76754755Y-64970999D01*
X76804693Y-64941818D01*
X76804695Y-64941817D01*
X76807833Y-64939983D01*
X76810742Y-64937799D01*
X77072416Y-64741328D01*
X77072420Y-64741325D01*
X77075323Y-64739145D01*
X77317957Y-64508894D01*
X77532519Y-64252281D01*
X77564397Y-64203752D01*
X77714177Y-63975734D01*
X77714182Y-63975725D01*
X77716164Y-63972708D01*
X77840205Y-63726081D01*
X77864832Y-63677116D01*
X77864835Y-63677108D01*
X77866459Y-63673880D01*
X77925589Y-63512300D01*
X77980163Y-63363170D01*
X77980166Y-63363160D01*
X77981411Y-63359758D01*
X77982256Y-63356236D01*
X77982259Y-63356228D01*
X78058651Y-63038034D01*
X78058652Y-63038030D01*
X78059498Y-63034505D01*
X78078517Y-62877343D01*
X78099347Y-62705212D01*
X78099348Y-62705205D01*
X78099683Y-62702433D01*
X78102166Y-62623437D01*
X78104937Y-62535243D01*
X78105416Y-62520000D01*
X78105255Y-62517204D01*
X78086370Y-62189680D01*
X78086369Y-62189675D01*
X78086161Y-62186060D01*
X78028652Y-61856546D01*
X77933650Y-61535825D01*
X77802415Y-61228150D01*
X77636687Y-60937597D01*
X77583310Y-60864932D01*
X77440805Y-60670935D01*
X77440803Y-60670932D01*
X77438662Y-60668018D01*
X77358330Y-60581570D01*
X77213431Y-60425641D01*
X77210964Y-60422986D01*
X77079271Y-60310510D01*
X77040463Y-60251060D01*
X77039957Y-60180066D01*
X77077913Y-60120067D01*
X77142281Y-60090114D01*
X77161103Y-60088700D01*
X114566808Y-60088700D01*
X114634929Y-60108702D01*
G37*
%TD.AperFunction*%
%TA.AperFunction,Conductor*%
G36*
X112994191Y-71113907D02*
G01*
X113030155Y-71163407D01*
X113035000Y-71194000D01*
X113035000Y-79974800D01*
X113016093Y-80032991D01*
X112966593Y-80068955D01*
X112936000Y-80073800D01*
X106794757Y-80073800D01*
X106736566Y-80054893D01*
X106700846Y-80006131D01*
X106661077Y-79886929D01*
X106661077Y-79886928D01*
X106659256Y-79881471D01*
X106656232Y-79876584D01*
X106656230Y-79876580D01*
X106571315Y-79739360D01*
X106567166Y-79732655D01*
X106562121Y-79727619D01*
X106447381Y-79613078D01*
X106447377Y-79613075D01*
X106443311Y-79609016D01*
X106438419Y-79606000D01*
X106438417Y-79605999D01*
X106300148Y-79520770D01*
X106294334Y-79517186D01*
X106288880Y-79515377D01*
X106288878Y-79515376D01*
X106133356Y-79463791D01*
X106133357Y-79463791D01*
X106128228Y-79462090D01*
X106024866Y-79451500D01*
X104975134Y-79451500D01*
X104972584Y-79451765D01*
X104972576Y-79451765D01*
X104875873Y-79461799D01*
X104875868Y-79461800D01*
X104870481Y-79462359D01*
X104865338Y-79464075D01*
X104865337Y-79464075D01*
X104715924Y-79513923D01*
X104704471Y-79517744D01*
X104699584Y-79520768D01*
X104699580Y-79520770D01*
X104614158Y-79573631D01*
X104555655Y-79609834D01*
X104432016Y-79733689D01*
X104428998Y-79738585D01*
X104428495Y-79739222D01*
X104377593Y-79773172D01*
X104316456Y-79770718D01*
X104273216Y-79739360D01*
X104270191Y-79735544D01*
X104267166Y-79730655D01*
X104263097Y-79726593D01*
X104147381Y-79611078D01*
X104147377Y-79611075D01*
X104143311Y-79607016D01*
X104138419Y-79604000D01*
X104138417Y-79603999D01*
X104000148Y-79518770D01*
X103994334Y-79515186D01*
X103988880Y-79513377D01*
X103988878Y-79513376D01*
X103839386Y-79463791D01*
X103828228Y-79460090D01*
X103724866Y-79449500D01*
X102675134Y-79449500D01*
X102672584Y-79449765D01*
X102672576Y-79449765D01*
X102575873Y-79459799D01*
X102575868Y-79459800D01*
X102570481Y-79460359D01*
X102565338Y-79462075D01*
X102565337Y-79462075D01*
X102411569Y-79513376D01*
X102404471Y-79515744D01*
X102399584Y-79518768D01*
X102399580Y-79518770D01*
X102314158Y-79571631D01*
X102255655Y-79607834D01*
X102251593Y-79611903D01*
X102136078Y-79727619D01*
X102136075Y-79727623D01*
X102132016Y-79731689D01*
X102129000Y-79736581D01*
X102128999Y-79736583D01*
X102086101Y-79806177D01*
X102040186Y-79880666D01*
X102038377Y-79886120D01*
X102038376Y-79886122D01*
X101998624Y-80005968D01*
X101962358Y-80055247D01*
X101904658Y-80073800D01*
X98035800Y-80073800D01*
X97977609Y-80054893D01*
X97941645Y-80005393D01*
X97936800Y-79974800D01*
X97936800Y-76857998D01*
X97955707Y-76799807D01*
X98005207Y-76763843D01*
X98035798Y-76758998D01*
X98072789Y-76758997D01*
X98166526Y-76758995D01*
X98224716Y-76777901D01*
X98236469Y-76787930D01*
X98331689Y-76882984D01*
X98336581Y-76886000D01*
X98336583Y-76886001D01*
X98406177Y-76928899D01*
X98480666Y-76974814D01*
X98486120Y-76976623D01*
X98486122Y-76976624D01*
X98606539Y-77016565D01*
X98646772Y-77029910D01*
X98750134Y-77040500D01*
X99549866Y-77040500D01*
X99552416Y-77040235D01*
X99552424Y-77040235D01*
X99649127Y-77030201D01*
X99649132Y-77030200D01*
X99654519Y-77029641D01*
X99820529Y-76974256D01*
X99825416Y-76971232D01*
X99825420Y-76971230D01*
X99910842Y-76918369D01*
X99969345Y-76882166D01*
X100063337Y-76788010D01*
X100117828Y-76760186D01*
X100133398Y-76758954D01*
X100503788Y-76758946D01*
X107483600Y-76758800D01*
X107483600Y-71194000D01*
X107502507Y-71135809D01*
X107552007Y-71099845D01*
X107582600Y-71095000D01*
X112936000Y-71095000D01*
X112994191Y-71113907D01*
G37*
%TD.AperFunction*%
M02*
