%TF.GenerationSoftware,KiCad,Pcbnew,(6.0.8)*%
%TF.CreationDate,2022-11-18T22:38:32+01:00*%
%TF.ProjectId,Single-DCDC-Converter,53696e67-6c65-42d4-9443-44432d436f6e,rev?*%
%TF.SameCoordinates,Original*%
%TF.FileFunction,Legend,Bot*%
%TF.FilePolarity,Positive*%
%FSLAX46Y46*%
G04 Gerber Fmt 4.6, Leading zero omitted, Abs format (unit mm)*
G04 Created by KiCad (PCBNEW (6.0.8)) date 2022-11-18 22:38:32*
%MOMM*%
%LPD*%
G01*
G04 APERTURE LIST*
%ADD10C,0.150000*%
%ADD11R,1.700000X1.700000*%
%ADD12O,1.700000X1.700000*%
%ADD13C,5.000000*%
%ADD14R,2.000000X4.600000*%
%ADD15O,2.000000X4.200000*%
%ADD16O,4.200000X2.000000*%
G04 APERTURE END LIST*
D10*
X102292857Y-80224380D02*
X101959523Y-81224380D01*
X101626190Y-80224380D01*
X101102380Y-80224380D02*
X100911904Y-80224380D01*
X100816666Y-80272000D01*
X100721428Y-80367238D01*
X100673809Y-80557714D01*
X100673809Y-80891047D01*
X100721428Y-81081523D01*
X100816666Y-81176761D01*
X100911904Y-81224380D01*
X101102380Y-81224380D01*
X101197619Y-81176761D01*
X101292857Y-81081523D01*
X101340476Y-80891047D01*
X101340476Y-80557714D01*
X101292857Y-80367238D01*
X101197619Y-80272000D01*
X101102380Y-80224380D01*
X100245238Y-80224380D02*
X100245238Y-81033904D01*
X100197619Y-81129142D01*
X100150000Y-81176761D01*
X100054761Y-81224380D01*
X99864285Y-81224380D01*
X99769047Y-81176761D01*
X99721428Y-81129142D01*
X99673809Y-81033904D01*
X99673809Y-80224380D01*
X99340476Y-80224380D02*
X98769047Y-80224380D01*
X99054761Y-81224380D02*
X99054761Y-80224380D01*
X97150000Y-80272000D02*
X97245238Y-80224380D01*
X97388095Y-80224380D01*
X97530952Y-80272000D01*
X97626190Y-80367238D01*
X97673809Y-80462476D01*
X97721428Y-80652952D01*
X97721428Y-80795809D01*
X97673809Y-80986285D01*
X97626190Y-81081523D01*
X97530952Y-81176761D01*
X97388095Y-81224380D01*
X97292857Y-81224380D01*
X97150000Y-81176761D01*
X97102380Y-81129142D01*
X97102380Y-80795809D01*
X97292857Y-80795809D01*
X96673809Y-81224380D02*
X96673809Y-80224380D01*
X96102380Y-81224380D01*
X96102380Y-80224380D01*
X95626190Y-81224380D02*
X95626190Y-80224380D01*
X95388095Y-80224380D01*
X95245238Y-80272000D01*
X95150000Y-80367238D01*
X95102380Y-80462476D01*
X95054761Y-80652952D01*
X95054761Y-80795809D01*
X95102380Y-80986285D01*
X95150000Y-81081523D01*
X95245238Y-81176761D01*
X95388095Y-81224380D01*
X95626190Y-81224380D01*
X93864285Y-81224380D02*
X93864285Y-80224380D01*
X93530952Y-80938666D01*
X93197619Y-80224380D01*
X93197619Y-81224380D01*
X92150000Y-81129142D02*
X92197619Y-81176761D01*
X92340476Y-81224380D01*
X92435714Y-81224380D01*
X92578571Y-81176761D01*
X92673809Y-81081523D01*
X92721428Y-80986285D01*
X92769047Y-80795809D01*
X92769047Y-80652952D01*
X92721428Y-80462476D01*
X92673809Y-80367238D01*
X92578571Y-80272000D01*
X92435714Y-80224380D01*
X92340476Y-80224380D01*
X92197619Y-80272000D01*
X92150000Y-80319619D01*
X91721428Y-80224380D02*
X91721428Y-81033904D01*
X91673809Y-81129142D01*
X91626190Y-81176761D01*
X91530952Y-81224380D01*
X91340476Y-81224380D01*
X91245238Y-81176761D01*
X91197619Y-81129142D01*
X91150000Y-81033904D01*
X91150000Y-80224380D01*
X89167857Y-80671428D02*
X88405952Y-80671428D01*
X88786904Y-81052380D02*
X88786904Y-80290476D01*
X87167857Y-80671428D02*
X86405952Y-80671428D01*
X83644047Y-80671428D02*
X82882142Y-80671428D01*
X83263095Y-81052380D02*
X83263095Y-80290476D01*
X81644047Y-80671428D02*
X80882142Y-80671428D01*
X89167857Y-61321428D02*
X88405952Y-61321428D01*
X88786904Y-61702380D02*
X88786904Y-60940476D01*
X87167857Y-61321428D02*
X86405952Y-61321428D01*
X83644047Y-61321428D02*
X82882142Y-61321428D01*
X83263095Y-61702380D02*
X83263095Y-60940476D01*
X81644047Y-61321428D02*
X80882142Y-61321428D01*
X113674209Y-70054019D02*
X113626590Y-70006400D01*
X113531352Y-69958780D01*
X113293257Y-69958780D01*
X113198019Y-70006400D01*
X113150400Y-70054019D01*
X113102780Y-70149257D01*
X113102780Y-70244495D01*
X113150400Y-70387352D01*
X113721828Y-70958780D01*
X113102780Y-70958780D01*
X112721828Y-70673066D02*
X112245638Y-70673066D01*
X112817066Y-70958780D02*
X112483733Y-69958780D01*
X112150400Y-70958780D01*
X111055161Y-70958780D02*
X111055161Y-69958780D01*
X110721828Y-70673066D01*
X110388495Y-69958780D01*
X110388495Y-70958780D01*
X109483733Y-70958780D02*
X109483733Y-70434971D01*
X109531352Y-70339733D01*
X109626590Y-70292114D01*
X109817066Y-70292114D01*
X109912304Y-70339733D01*
X109483733Y-70911161D02*
X109578971Y-70958780D01*
X109817066Y-70958780D01*
X109912304Y-70911161D01*
X109959923Y-70815923D01*
X109959923Y-70720685D01*
X109912304Y-70625447D01*
X109817066Y-70577828D01*
X109578971Y-70577828D01*
X109483733Y-70530209D01*
X109102780Y-70958780D02*
X108578971Y-70292114D01*
X109102780Y-70292114D02*
X108578971Y-70958780D01*
X114959923Y-72283066D02*
X114483733Y-72283066D01*
X115055161Y-72568780D02*
X114721828Y-71568780D01*
X114388495Y-72568780D01*
X113864685Y-71568780D02*
X113674209Y-71568780D01*
X113578971Y-71616400D01*
X113483733Y-71711638D01*
X113436114Y-71902114D01*
X113436114Y-72235447D01*
X113483733Y-72425923D01*
X113578971Y-72521161D01*
X113674209Y-72568780D01*
X113864685Y-72568780D01*
X113959923Y-72521161D01*
X114055161Y-72425923D01*
X114102780Y-72235447D01*
X114102780Y-71902114D01*
X114055161Y-71711638D01*
X113959923Y-71616400D01*
X113864685Y-71568780D01*
X113102780Y-71568780D02*
X112436114Y-71568780D01*
X113102780Y-72568780D01*
X112436114Y-72568780D01*
X111531352Y-72568780D02*
X112102780Y-72568780D01*
X111817066Y-72568780D02*
X111817066Y-71568780D01*
X111912304Y-71711638D01*
X112007542Y-71806876D01*
X112102780Y-71854495D01*
X110912304Y-71568780D02*
X110817066Y-71568780D01*
X110721828Y-71616400D01*
X110674209Y-71664019D01*
X110626590Y-71759257D01*
X110578971Y-71949733D01*
X110578971Y-72187828D01*
X110626590Y-72378304D01*
X110674209Y-72473542D01*
X110721828Y-72521161D01*
X110817066Y-72568780D01*
X110912304Y-72568780D01*
X111007542Y-72521161D01*
X111055161Y-72473542D01*
X111102780Y-72378304D01*
X111150400Y-72187828D01*
X111150400Y-71949733D01*
X111102780Y-71759257D01*
X111055161Y-71664019D01*
X111007542Y-71616400D01*
X110912304Y-71568780D01*
X109626590Y-72568780D02*
X110198019Y-72568780D01*
X109912304Y-72568780D02*
X109912304Y-71568780D01*
X110007542Y-71711638D01*
X110102780Y-71806876D01*
X110198019Y-71854495D01*
X108769447Y-71568780D02*
X108959923Y-71568780D01*
X109055161Y-71616400D01*
X109102780Y-71664019D01*
X109198019Y-71806876D01*
X109245638Y-71997352D01*
X109245638Y-72378304D01*
X109198019Y-72473542D01*
X109150400Y-72521161D01*
X109055161Y-72568780D01*
X108864685Y-72568780D01*
X108769447Y-72521161D01*
X108721828Y-72473542D01*
X108674209Y-72378304D01*
X108674209Y-72140209D01*
X108721828Y-72044971D01*
X108769447Y-71997352D01*
X108864685Y-71949733D01*
X109055161Y-71949733D01*
X109150400Y-71997352D01*
X109198019Y-72044971D01*
X109245638Y-72140209D01*
X108293257Y-72283066D02*
X107817066Y-72283066D01*
X108388495Y-72568780D02*
X108055161Y-71568780D01*
X107721828Y-72568780D01*
X107388495Y-72568780D02*
X107388495Y-71568780D01*
X117007542Y-74178780D02*
X117340876Y-73702590D01*
X117578971Y-74178780D02*
X117578971Y-73178780D01*
X117198019Y-73178780D01*
X117102780Y-73226400D01*
X117055161Y-73274019D01*
X117007542Y-73369257D01*
X117007542Y-73512114D01*
X117055161Y-73607352D01*
X117102780Y-73654971D01*
X117198019Y-73702590D01*
X117578971Y-73702590D01*
X116626590Y-73274019D02*
X116578971Y-73226400D01*
X116483733Y-73178780D01*
X116245638Y-73178780D01*
X116150400Y-73226400D01*
X116102780Y-73274019D01*
X116055161Y-73369257D01*
X116055161Y-73464495D01*
X116102780Y-73607352D01*
X116674209Y-74178780D01*
X116055161Y-74178780D01*
X115626590Y-74083542D02*
X115578971Y-74131161D01*
X115626590Y-74178780D01*
X115674209Y-74131161D01*
X115626590Y-74083542D01*
X115626590Y-74178780D01*
X115626590Y-73559733D02*
X115578971Y-73607352D01*
X115626590Y-73654971D01*
X115674209Y-73607352D01*
X115626590Y-73559733D01*
X115626590Y-73654971D01*
X114483733Y-73178780D02*
X113864685Y-73178780D01*
X114198019Y-73559733D01*
X114055161Y-73559733D01*
X113959923Y-73607352D01*
X113912304Y-73654971D01*
X113864685Y-73750209D01*
X113864685Y-73988304D01*
X113912304Y-74083542D01*
X113959923Y-74131161D01*
X114055161Y-74178780D01*
X114340876Y-74178780D01*
X114436114Y-74131161D01*
X114483733Y-74083542D01*
X112912304Y-74178780D02*
X113483733Y-74178780D01*
X113198019Y-74178780D02*
X113198019Y-73178780D01*
X113293257Y-73321638D01*
X113388495Y-73416876D01*
X113483733Y-73464495D01*
X112483733Y-74083542D02*
X112436114Y-74131161D01*
X112483733Y-74178780D01*
X112531352Y-74131161D01*
X112483733Y-74083542D01*
X112483733Y-74178780D01*
X111578971Y-73178780D02*
X111769447Y-73178780D01*
X111864685Y-73226400D01*
X111912304Y-73274019D01*
X112007542Y-73416876D01*
X112055161Y-73607352D01*
X112055161Y-73988304D01*
X112007542Y-74083542D01*
X111959923Y-74131161D01*
X111864685Y-74178780D01*
X111674209Y-74178780D01*
X111578971Y-74131161D01*
X111531352Y-74083542D01*
X111483733Y-73988304D01*
X111483733Y-73750209D01*
X111531352Y-73654971D01*
X111578971Y-73607352D01*
X111674209Y-73559733D01*
X111864685Y-73559733D01*
X111959923Y-73607352D01*
X112007542Y-73654971D01*
X112055161Y-73750209D01*
X111055161Y-74178780D02*
X111055161Y-73178780D01*
X110959923Y-73797828D02*
X110674209Y-74178780D01*
X110674209Y-73512114D02*
X111055161Y-73893066D01*
X109483733Y-73654971D02*
X108721828Y-73654971D01*
X108721828Y-73940685D02*
X109483733Y-73940685D01*
X107578971Y-73178780D02*
X106959923Y-73178780D01*
X107293257Y-73559733D01*
X107150400Y-73559733D01*
X107055161Y-73607352D01*
X107007542Y-73654971D01*
X106959923Y-73750209D01*
X106959923Y-73988304D01*
X107007542Y-74083542D01*
X107055161Y-74131161D01*
X107150400Y-74178780D01*
X107436114Y-74178780D01*
X107531352Y-74131161D01*
X107578971Y-74083542D01*
X106531352Y-74083542D02*
X106483733Y-74131161D01*
X106531352Y-74178780D01*
X106578971Y-74131161D01*
X106531352Y-74083542D01*
X106531352Y-74178780D01*
X106150400Y-73178780D02*
X105531352Y-73178780D01*
X105864685Y-73559733D01*
X105721828Y-73559733D01*
X105626590Y-73607352D01*
X105578971Y-73654971D01*
X105531352Y-73750209D01*
X105531352Y-73988304D01*
X105578971Y-74083542D01*
X105626590Y-74131161D01*
X105721828Y-74178780D01*
X106007542Y-74178780D01*
X106102780Y-74131161D01*
X106150400Y-74083542D01*
X105245638Y-73178780D02*
X104912304Y-74178780D01*
X104578971Y-73178780D01*
X114793257Y-74788780D02*
X115269447Y-74788780D01*
X115317066Y-75264971D01*
X115269447Y-75217352D01*
X115174209Y-75169733D01*
X114936114Y-75169733D01*
X114840876Y-75217352D01*
X114793257Y-75264971D01*
X114745638Y-75360209D01*
X114745638Y-75598304D01*
X114793257Y-75693542D01*
X114840876Y-75741161D01*
X114936114Y-75788780D01*
X115174209Y-75788780D01*
X115269447Y-75741161D01*
X115317066Y-75693542D01*
X114364685Y-74884019D02*
X114317066Y-74836400D01*
X114221828Y-74788780D01*
X113983733Y-74788780D01*
X113888495Y-74836400D01*
X113840876Y-74884019D01*
X113793257Y-74979257D01*
X113793257Y-75074495D01*
X113840876Y-75217352D01*
X114412304Y-75788780D01*
X113793257Y-75788780D01*
X113364685Y-75693542D02*
X113317066Y-75741161D01*
X113364685Y-75788780D01*
X113412304Y-75741161D01*
X113364685Y-75693542D01*
X113364685Y-75788780D01*
X112983733Y-74788780D02*
X112364685Y-74788780D01*
X112698019Y-75169733D01*
X112555161Y-75169733D01*
X112459923Y-75217352D01*
X112412304Y-75264971D01*
X112364685Y-75360209D01*
X112364685Y-75598304D01*
X112412304Y-75693542D01*
X112459923Y-75741161D01*
X112555161Y-75788780D01*
X112840876Y-75788780D01*
X112936114Y-75741161D01*
X112983733Y-75693542D01*
X111936114Y-75788780D02*
X111936114Y-74788780D01*
X111840876Y-75407828D02*
X111555161Y-75788780D01*
X111555161Y-75122114D02*
X111936114Y-75503066D01*
X110364685Y-75264971D02*
X109602780Y-75264971D01*
X109602780Y-75550685D02*
X110364685Y-75550685D01*
X107888495Y-74788780D02*
X108364685Y-74788780D01*
X108412304Y-75264971D01*
X108364685Y-75217352D01*
X108269447Y-75169733D01*
X108031352Y-75169733D01*
X107936114Y-75217352D01*
X107888495Y-75264971D01*
X107840876Y-75360209D01*
X107840876Y-75598304D01*
X107888495Y-75693542D01*
X107936114Y-75741161D01*
X108031352Y-75788780D01*
X108269447Y-75788780D01*
X108364685Y-75741161D01*
X108412304Y-75693542D01*
X107555161Y-74788780D02*
X107221828Y-75788780D01*
X106888495Y-74788780D01*
X115840876Y-76827352D02*
X115936114Y-76779733D01*
X115983733Y-76732114D01*
X116031352Y-76636876D01*
X116031352Y-76589257D01*
X115983733Y-76494019D01*
X115936114Y-76446400D01*
X115840876Y-76398780D01*
X115650400Y-76398780D01*
X115555161Y-76446400D01*
X115507542Y-76494019D01*
X115459923Y-76589257D01*
X115459923Y-76636876D01*
X115507542Y-76732114D01*
X115555161Y-76779733D01*
X115650400Y-76827352D01*
X115840876Y-76827352D01*
X115936114Y-76874971D01*
X115983733Y-76922590D01*
X116031352Y-77017828D01*
X116031352Y-77208304D01*
X115983733Y-77303542D01*
X115936114Y-77351161D01*
X115840876Y-77398780D01*
X115650400Y-77398780D01*
X115555161Y-77351161D01*
X115507542Y-77303542D01*
X115459923Y-77208304D01*
X115459923Y-77017828D01*
X115507542Y-76922590D01*
X115555161Y-76874971D01*
X115650400Y-76827352D01*
X115078971Y-76494019D02*
X115031352Y-76446400D01*
X114936114Y-76398780D01*
X114698019Y-76398780D01*
X114602780Y-76446400D01*
X114555161Y-76494019D01*
X114507542Y-76589257D01*
X114507542Y-76684495D01*
X114555161Y-76827352D01*
X115126590Y-77398780D01*
X114507542Y-77398780D01*
X114078971Y-77303542D02*
X114031352Y-77351161D01*
X114078971Y-77398780D01*
X114126590Y-77351161D01*
X114078971Y-77303542D01*
X114078971Y-77398780D01*
X113126590Y-76398780D02*
X113602780Y-76398780D01*
X113650400Y-76874971D01*
X113602780Y-76827352D01*
X113507542Y-76779733D01*
X113269447Y-76779733D01*
X113174209Y-76827352D01*
X113126590Y-76874971D01*
X113078971Y-76970209D01*
X113078971Y-77208304D01*
X113126590Y-77303542D01*
X113174209Y-77351161D01*
X113269447Y-77398780D01*
X113507542Y-77398780D01*
X113602780Y-77351161D01*
X113650400Y-77303542D01*
X112650400Y-77398780D02*
X112650400Y-76398780D01*
X112555161Y-77017828D02*
X112269447Y-77398780D01*
X112269447Y-76732114D02*
X112650400Y-77113066D01*
X111078971Y-76874971D02*
X110317066Y-76874971D01*
X110317066Y-77160685D02*
X111078971Y-77160685D01*
X109174209Y-76398780D02*
X108507542Y-76398780D01*
X108936114Y-77398780D01*
X108126590Y-77303542D02*
X108078971Y-77351161D01*
X108126590Y-77398780D01*
X108174209Y-77351161D01*
X108126590Y-77303542D01*
X108126590Y-77398780D01*
X107221828Y-76732114D02*
X107221828Y-77398780D01*
X107459923Y-76351161D02*
X107698019Y-77065447D01*
X107078971Y-77065447D01*
X106840876Y-76398780D02*
X106507542Y-77398780D01*
X106174209Y-76398780D01*
X115221828Y-79008780D02*
X115793257Y-79008780D01*
X115507542Y-79008780D02*
X115507542Y-78008780D01*
X115602780Y-78151638D01*
X115698019Y-78246876D01*
X115793257Y-78294495D01*
X114602780Y-78008780D02*
X114507542Y-78008780D01*
X114412304Y-78056400D01*
X114364685Y-78104019D01*
X114317066Y-78199257D01*
X114269447Y-78389733D01*
X114269447Y-78627828D01*
X114317066Y-78818304D01*
X114364685Y-78913542D01*
X114412304Y-78961161D01*
X114507542Y-79008780D01*
X114602780Y-79008780D01*
X114698019Y-78961161D01*
X114745638Y-78913542D01*
X114793257Y-78818304D01*
X114840876Y-78627828D01*
X114840876Y-78389733D01*
X114793257Y-78199257D01*
X114745638Y-78104019D01*
X114698019Y-78056400D01*
X114602780Y-78008780D01*
X113364685Y-78008780D02*
X113840876Y-78008780D01*
X113888495Y-78484971D01*
X113840876Y-78437352D01*
X113745638Y-78389733D01*
X113507542Y-78389733D01*
X113412304Y-78437352D01*
X113364685Y-78484971D01*
X113317066Y-78580209D01*
X113317066Y-78818304D01*
X113364685Y-78913542D01*
X113412304Y-78961161D01*
X113507542Y-79008780D01*
X113745638Y-79008780D01*
X113840876Y-78961161D01*
X113888495Y-78913542D01*
X112888495Y-79008780D02*
X112888495Y-78008780D01*
X112793257Y-78627828D02*
X112507542Y-79008780D01*
X112507542Y-78342114D02*
X112888495Y-78723066D01*
X111317066Y-78484971D02*
X110555161Y-78484971D01*
X110555161Y-78770685D02*
X111317066Y-78770685D01*
X109269447Y-79008780D02*
X109078971Y-79008780D01*
X108983733Y-78961161D01*
X108936114Y-78913542D01*
X108840876Y-78770685D01*
X108793257Y-78580209D01*
X108793257Y-78199257D01*
X108840876Y-78104019D01*
X108888495Y-78056400D01*
X108983733Y-78008780D01*
X109174209Y-78008780D01*
X109269447Y-78056400D01*
X109317066Y-78104019D01*
X109364685Y-78199257D01*
X109364685Y-78437352D01*
X109317066Y-78532590D01*
X109269447Y-78580209D01*
X109174209Y-78627828D01*
X108983733Y-78627828D01*
X108888495Y-78580209D01*
X108840876Y-78532590D01*
X108793257Y-78437352D01*
X108364685Y-78913542D02*
X108317066Y-78961161D01*
X108364685Y-79008780D01*
X108412304Y-78961161D01*
X108364685Y-78913542D01*
X108364685Y-79008780D01*
X107936114Y-78104019D02*
X107888495Y-78056400D01*
X107793257Y-78008780D01*
X107555161Y-78008780D01*
X107459923Y-78056400D01*
X107412304Y-78104019D01*
X107364685Y-78199257D01*
X107364685Y-78294495D01*
X107412304Y-78437352D01*
X107983733Y-79008780D01*
X107364685Y-79008780D01*
X107078971Y-78008780D02*
X106745638Y-79008780D01*
X106412304Y-78008780D01*
X113388495Y-80618780D02*
X113721828Y-80142590D01*
X113959923Y-80618780D02*
X113959923Y-79618780D01*
X113578971Y-79618780D01*
X113483733Y-79666400D01*
X113436114Y-79714019D01*
X113388495Y-79809257D01*
X113388495Y-79952114D01*
X113436114Y-80047352D01*
X113483733Y-80094971D01*
X113578971Y-80142590D01*
X113959923Y-80142590D01*
X113055161Y-79618780D02*
X112436114Y-79618780D01*
X112769447Y-79999733D01*
X112626590Y-79999733D01*
X112531352Y-80047352D01*
X112483733Y-80094971D01*
X112436114Y-80190209D01*
X112436114Y-80428304D01*
X112483733Y-80523542D01*
X112531352Y-80571161D01*
X112626590Y-80618780D01*
X112912304Y-80618780D01*
X113007542Y-80571161D01*
X113055161Y-80523542D01*
X112007542Y-80523542D02*
X111959923Y-80571161D01*
X112007542Y-80618780D01*
X112055161Y-80571161D01*
X112007542Y-80523542D01*
X112007542Y-80618780D01*
X112007542Y-79999733D02*
X111959923Y-80047352D01*
X112007542Y-80094971D01*
X112055161Y-80047352D01*
X112007542Y-79999733D01*
X112007542Y-80094971D01*
X110245638Y-80618780D02*
X110817066Y-80618780D01*
X110531352Y-80618780D02*
X110531352Y-79618780D01*
X110626590Y-79761638D01*
X110721828Y-79856876D01*
X110817066Y-79904495D01*
X109626590Y-79618780D02*
X109531352Y-79618780D01*
X109436114Y-79666400D01*
X109388495Y-79714019D01*
X109340876Y-79809257D01*
X109293257Y-79999733D01*
X109293257Y-80237828D01*
X109340876Y-80428304D01*
X109388495Y-80523542D01*
X109436114Y-80571161D01*
X109531352Y-80618780D01*
X109626590Y-80618780D01*
X109721828Y-80571161D01*
X109769447Y-80523542D01*
X109817066Y-80428304D01*
X109864685Y-80237828D01*
X109864685Y-79999733D01*
X109817066Y-79809257D01*
X109769447Y-79714019D01*
X109721828Y-79666400D01*
X109626590Y-79618780D01*
X108864685Y-80618780D02*
X108864685Y-79618780D01*
X108293257Y-80618780D02*
X108721828Y-80047352D01*
X108293257Y-79618780D02*
X108864685Y-80190209D01*
%LPC*%
D11*
X99060000Y-78740000D03*
D12*
X96520000Y-78740000D03*
X93980000Y-78740000D03*
D13*
X75200000Y-62520000D03*
X116530000Y-62520000D03*
D11*
X101600000Y-63500000D03*
D12*
X104140000Y-63500000D03*
X106680000Y-63500000D03*
D11*
X81280000Y-63500000D03*
D12*
X83820000Y-63500000D03*
X86360000Y-63500000D03*
X88900000Y-63500000D03*
D13*
X75200000Y-78860000D03*
D14*
X86690200Y-70393800D03*
D15*
X80390200Y-70393800D03*
D16*
X83790200Y-75193800D03*
D11*
X81280000Y-78740000D03*
D12*
X83820000Y-78740000D03*
X86360000Y-78740000D03*
X88900000Y-78740000D03*
M02*
