%TF.GenerationSoftware,KiCad,Pcbnew,(6.0.8)*%
%TF.CreationDate,2022-11-18T22:38:32+01:00*%
%TF.ProjectId,Single-DCDC-Converter,53696e67-6c65-42d4-9443-44432d436f6e,rev?*%
%TF.SameCoordinates,Original*%
%TF.FileFunction,Copper,L2,Bot*%
%TF.FilePolarity,Positive*%
%FSLAX46Y46*%
G04 Gerber Fmt 4.6, Leading zero omitted, Abs format (unit mm)*
G04 Created by KiCad (PCBNEW (6.0.8)) date 2022-11-18 22:38:32*
%MOMM*%
%LPD*%
G01*
G04 APERTURE LIST*
%TA.AperFunction,ComponentPad*%
%ADD10R,1.700000X1.700000*%
%TD*%
%TA.AperFunction,ComponentPad*%
%ADD11O,1.700000X1.700000*%
%TD*%
%TA.AperFunction,ComponentPad*%
%ADD12C,5.000000*%
%TD*%
%TA.AperFunction,ComponentPad*%
%ADD13R,2.000000X4.600000*%
%TD*%
%TA.AperFunction,ComponentPad*%
%ADD14O,2.000000X4.200000*%
%TD*%
%TA.AperFunction,ComponentPad*%
%ADD15O,4.200000X2.000000*%
%TD*%
%TA.AperFunction,ViaPad*%
%ADD16C,0.800000*%
%TD*%
%TA.AperFunction,Conductor*%
%ADD17C,0.700000*%
%TD*%
G04 APERTURE END LIST*
D10*
X99060000Y-78740000D03*
D11*
X96520000Y-78740000D03*
X93980000Y-78740000D03*
D12*
X75200000Y-62520000D03*
X116530000Y-62520000D03*
D10*
X101600000Y-63500000D03*
D11*
X104140000Y-63500000D03*
X106680000Y-63500000D03*
D10*
X81280000Y-63500000D03*
D11*
X83820000Y-63500000D03*
X86360000Y-63500000D03*
X88900000Y-63500000D03*
D12*
X75200000Y-78860000D03*
D13*
X86690200Y-70393800D03*
D14*
X80390200Y-70393800D03*
D15*
X83790200Y-75193800D03*
D10*
X81280000Y-78740000D03*
D11*
X83820000Y-78740000D03*
X86360000Y-78740000D03*
X88900000Y-78740000D03*
D16*
X93980000Y-76149200D03*
D17*
X94386400Y-76149200D02*
X97688400Y-72847200D01*
X93980000Y-76149200D02*
X94386400Y-76149200D01*
X97688400Y-72847200D02*
X97688400Y-67056000D01*
X98983800Y-65760600D02*
X104419400Y-65760600D01*
X97688400Y-67056000D02*
X98983800Y-65760600D01*
X104419400Y-65760600D02*
X106680000Y-63500000D01*
%TA.AperFunction,Conductor*%
G36*
X114634929Y-60108702D02*
G01*
X114681422Y-60162358D01*
X114691526Y-60232632D01*
X114662032Y-60297212D01*
X114645597Y-60313027D01*
X114585897Y-60360855D01*
X114350615Y-60598614D01*
X114348374Y-60601472D01*
X114314536Y-60644628D01*
X114144220Y-60861840D01*
X113969447Y-61147043D01*
X113967922Y-61150328D01*
X113967920Y-61150332D01*
X113861108Y-61380441D01*
X113828613Y-61450445D01*
X113723584Y-61768023D01*
X113722848Y-61771578D01*
X113722847Y-61771581D01*
X113656490Y-62092004D01*
X113655752Y-62095568D01*
X113655429Y-62099190D01*
X113655428Y-62099195D01*
X113627150Y-62416053D01*
X113626018Y-62428739D01*
X113626113Y-62432369D01*
X113626113Y-62432371D01*
X113630987Y-62618482D01*
X113634774Y-62763119D01*
X113635284Y-62766705D01*
X113635285Y-62766713D01*
X113649680Y-62867857D01*
X113681904Y-63094277D01*
X113682823Y-63097780D01*
X113682824Y-63097785D01*
X113731158Y-63282023D01*
X113766785Y-63417823D01*
X113888291Y-63729469D01*
X113889995Y-63732687D01*
X114018682Y-63975734D01*
X114044811Y-64025084D01*
X114046863Y-64028069D01*
X114046868Y-64028078D01*
X114232214Y-64297758D01*
X114232220Y-64297765D01*
X114234271Y-64300750D01*
X114454160Y-64552813D01*
X114701562Y-64777932D01*
X114973200Y-64973124D01*
X115265473Y-65135801D01*
X115574506Y-65263806D01*
X115578000Y-65264801D01*
X115578002Y-65264802D01*
X115892702Y-65354447D01*
X115892707Y-65354448D01*
X115896203Y-65355444D01*
X115899784Y-65356030D01*
X115899791Y-65356032D01*
X116222721Y-65408914D01*
X116222725Y-65408914D01*
X116226301Y-65409500D01*
X116229927Y-65409671D01*
X116556798Y-65425086D01*
X116556799Y-65425086D01*
X116560425Y-65425257D01*
X116568174Y-65424729D01*
X116890514Y-65402754D01*
X116890522Y-65402753D01*
X116894145Y-65402506D01*
X116897721Y-65401843D01*
X116897723Y-65401843D01*
X117219474Y-65342210D01*
X117219478Y-65342209D01*
X117223039Y-65341549D01*
X117542747Y-65243194D01*
X117849031Y-65108745D01*
X118137833Y-64939983D01*
X118185824Y-64903950D01*
X118402416Y-64741328D01*
X118402420Y-64741325D01*
X118405323Y-64739145D01*
X118647957Y-64508894D01*
X118743036Y-64395180D01*
X118802078Y-64355751D01*
X118873064Y-64354501D01*
X118933457Y-64391827D01*
X118964082Y-64455878D01*
X118965700Y-64476003D01*
X118965700Y-81161700D01*
X118945698Y-81229821D01*
X118892042Y-81276314D01*
X118839700Y-81287700D01*
X77171374Y-81287700D01*
X77103253Y-81267698D01*
X77056760Y-81214042D01*
X77046656Y-81143768D01*
X77076150Y-81079188D01*
X77084641Y-81070303D01*
X77219924Y-80941923D01*
X77317957Y-80848894D01*
X77532519Y-80592281D01*
X77632166Y-80440583D01*
X77714177Y-80315734D01*
X77714182Y-80315725D01*
X77716164Y-80312708D01*
X77791312Y-80163294D01*
X77864832Y-80017116D01*
X77864835Y-80017108D01*
X77866459Y-80013880D01*
X77875015Y-79990499D01*
X77980163Y-79703170D01*
X77980166Y-79703160D01*
X77981411Y-79699758D01*
X77982256Y-79696236D01*
X77982259Y-79696228D01*
X78058651Y-79378034D01*
X78058652Y-79378030D01*
X78059498Y-79374505D01*
X78084327Y-79169330D01*
X78099347Y-79045212D01*
X78099348Y-79045205D01*
X78099683Y-79042433D01*
X78105416Y-78860000D01*
X78105255Y-78857204D01*
X78098497Y-78740000D01*
X82564723Y-78740000D01*
X82583793Y-78957977D01*
X82640425Y-79169330D01*
X82732898Y-79367638D01*
X82858402Y-79546877D01*
X83013123Y-79701598D01*
X83017631Y-79704755D01*
X83017634Y-79704757D01*
X83045319Y-79724142D01*
X83192361Y-79827102D01*
X83197343Y-79829425D01*
X83197348Y-79829428D01*
X83372364Y-79911039D01*
X83390670Y-79919575D01*
X83395978Y-79920997D01*
X83395980Y-79920998D01*
X83461745Y-79938620D01*
X83602023Y-79976207D01*
X83820000Y-79995277D01*
X84037977Y-79976207D01*
X84178255Y-79938620D01*
X84244020Y-79920998D01*
X84244022Y-79920997D01*
X84249330Y-79919575D01*
X84267636Y-79911039D01*
X84442652Y-79829428D01*
X84442657Y-79829425D01*
X84447639Y-79827102D01*
X84594681Y-79724142D01*
X84622366Y-79704757D01*
X84622369Y-79704755D01*
X84626877Y-79701598D01*
X84781598Y-79546877D01*
X84907102Y-79367638D01*
X84999575Y-79169330D01*
X85056207Y-78957977D01*
X85075277Y-78740000D01*
X87644723Y-78740000D01*
X87663793Y-78957977D01*
X87720425Y-79169330D01*
X87812898Y-79367638D01*
X87938402Y-79546877D01*
X88093123Y-79701598D01*
X88097631Y-79704755D01*
X88097634Y-79704757D01*
X88125319Y-79724142D01*
X88272361Y-79827102D01*
X88277343Y-79829425D01*
X88277348Y-79829428D01*
X88452364Y-79911039D01*
X88470670Y-79919575D01*
X88475978Y-79920997D01*
X88475980Y-79920998D01*
X88541745Y-79938620D01*
X88682023Y-79976207D01*
X88900000Y-79995277D01*
X89117977Y-79976207D01*
X89258255Y-79938620D01*
X89324020Y-79920998D01*
X89324022Y-79920997D01*
X89329330Y-79919575D01*
X89347636Y-79911039D01*
X89522652Y-79829428D01*
X89522657Y-79829425D01*
X89527639Y-79827102D01*
X89674681Y-79724142D01*
X89702366Y-79704757D01*
X89702369Y-79704755D01*
X89706877Y-79701598D01*
X89861598Y-79546877D01*
X89987102Y-79367638D01*
X90079575Y-79169330D01*
X90136207Y-78957977D01*
X90155277Y-78740000D01*
X92724723Y-78740000D01*
X92743793Y-78957977D01*
X92800425Y-79169330D01*
X92892898Y-79367638D01*
X93018402Y-79546877D01*
X93173123Y-79701598D01*
X93177631Y-79704755D01*
X93177634Y-79704757D01*
X93205319Y-79724142D01*
X93352361Y-79827102D01*
X93357343Y-79829425D01*
X93357348Y-79829428D01*
X93532364Y-79911039D01*
X93550670Y-79919575D01*
X93555978Y-79920997D01*
X93555980Y-79920998D01*
X93621745Y-79938620D01*
X93762023Y-79976207D01*
X93980000Y-79995277D01*
X94197977Y-79976207D01*
X94338255Y-79938620D01*
X94404020Y-79920998D01*
X94404022Y-79920997D01*
X94409330Y-79919575D01*
X94427636Y-79911039D01*
X94602652Y-79829428D01*
X94602657Y-79829425D01*
X94607639Y-79827102D01*
X94754681Y-79724142D01*
X94782366Y-79704757D01*
X94782369Y-79704755D01*
X94786877Y-79701598D01*
X94941598Y-79546877D01*
X95067102Y-79367638D01*
X95159575Y-79169330D01*
X95216207Y-78957977D01*
X95235277Y-78740000D01*
X95216207Y-78522023D01*
X95159575Y-78310670D01*
X95067102Y-78112362D01*
X94941598Y-77933123D01*
X94866956Y-77858481D01*
X97809500Y-77858481D01*
X97809501Y-79621518D01*
X97810276Y-79626409D01*
X97810276Y-79626412D01*
X97822684Y-79704757D01*
X97824354Y-79715304D01*
X97881950Y-79828342D01*
X97971658Y-79918050D01*
X98084696Y-79975646D01*
X98094485Y-79977196D01*
X98094487Y-79977197D01*
X98121849Y-79981530D01*
X98178481Y-79990500D01*
X99059822Y-79990500D01*
X99941518Y-79990499D01*
X99946412Y-79989724D01*
X100025506Y-79977198D01*
X100025508Y-79977197D01*
X100035304Y-79975646D01*
X100148342Y-79918050D01*
X100238050Y-79828342D01*
X100295646Y-79715304D01*
X100297317Y-79704757D01*
X100309725Y-79626412D01*
X100310500Y-79621519D01*
X100310499Y-77858482D01*
X100298434Y-77782299D01*
X100297198Y-77774494D01*
X100297197Y-77774492D01*
X100295646Y-77764696D01*
X100238050Y-77651658D01*
X100148342Y-77561950D01*
X100035304Y-77504354D01*
X100025515Y-77502804D01*
X100025513Y-77502803D01*
X99998151Y-77498470D01*
X99941519Y-77489500D01*
X99060178Y-77489500D01*
X98178482Y-77489501D01*
X98173589Y-77490276D01*
X98173588Y-77490276D01*
X98094494Y-77502802D01*
X98094492Y-77502803D01*
X98084696Y-77504354D01*
X97971658Y-77561950D01*
X97881950Y-77651658D01*
X97824354Y-77764696D01*
X97822804Y-77774485D01*
X97822803Y-77774487D01*
X97822183Y-77778402D01*
X97809500Y-77858481D01*
X94866956Y-77858481D01*
X94786877Y-77778402D01*
X94782369Y-77775245D01*
X94782366Y-77775243D01*
X94612148Y-77656055D01*
X94612145Y-77656053D01*
X94607639Y-77652898D01*
X94602657Y-77650575D01*
X94602652Y-77650572D01*
X94414312Y-77562748D01*
X94414311Y-77562747D01*
X94409330Y-77560425D01*
X94404022Y-77559003D01*
X94404020Y-77559002D01*
X94338255Y-77541380D01*
X94197977Y-77503793D01*
X93980000Y-77484723D01*
X93762023Y-77503793D01*
X93621745Y-77541380D01*
X93555980Y-77559002D01*
X93555978Y-77559003D01*
X93550670Y-77560425D01*
X93545690Y-77562747D01*
X93545688Y-77562748D01*
X93357343Y-77650575D01*
X93357340Y-77650577D01*
X93352362Y-77652898D01*
X93173123Y-77778402D01*
X93018402Y-77933123D01*
X92892898Y-78112362D01*
X92800425Y-78310670D01*
X92743793Y-78522023D01*
X92724723Y-78740000D01*
X90155277Y-78740000D01*
X90136207Y-78522023D01*
X90079575Y-78310670D01*
X89987102Y-78112362D01*
X89861598Y-77933123D01*
X89706877Y-77778402D01*
X89702369Y-77775245D01*
X89702366Y-77775243D01*
X89532148Y-77656055D01*
X89532145Y-77656053D01*
X89527639Y-77652898D01*
X89522657Y-77650575D01*
X89522652Y-77650572D01*
X89334312Y-77562748D01*
X89334311Y-77562747D01*
X89329330Y-77560425D01*
X89324022Y-77559003D01*
X89324020Y-77559002D01*
X89258255Y-77541380D01*
X89117977Y-77503793D01*
X88900000Y-77484723D01*
X88682023Y-77503793D01*
X88541745Y-77541380D01*
X88475980Y-77559002D01*
X88475978Y-77559003D01*
X88470670Y-77560425D01*
X88465690Y-77562747D01*
X88465688Y-77562748D01*
X88277343Y-77650575D01*
X88277340Y-77650577D01*
X88272362Y-77652898D01*
X88093123Y-77778402D01*
X87938402Y-77933123D01*
X87812898Y-78112362D01*
X87720425Y-78310670D01*
X87663793Y-78522023D01*
X87644723Y-78740000D01*
X85075277Y-78740000D01*
X85056207Y-78522023D01*
X84999575Y-78310670D01*
X84907102Y-78112362D01*
X84781598Y-77933123D01*
X84626877Y-77778402D01*
X84622369Y-77775245D01*
X84622366Y-77775243D01*
X84452148Y-77656055D01*
X84452145Y-77656053D01*
X84447639Y-77652898D01*
X84442657Y-77650575D01*
X84442652Y-77650572D01*
X84254312Y-77562748D01*
X84254311Y-77562747D01*
X84249330Y-77560425D01*
X84244022Y-77559003D01*
X84244020Y-77559002D01*
X84178255Y-77541380D01*
X84037977Y-77503793D01*
X83820000Y-77484723D01*
X83602023Y-77503793D01*
X83461745Y-77541380D01*
X83395980Y-77559002D01*
X83395978Y-77559003D01*
X83390670Y-77560425D01*
X83385690Y-77562747D01*
X83385688Y-77562748D01*
X83197343Y-77650575D01*
X83197340Y-77650577D01*
X83192362Y-77652898D01*
X83013123Y-77778402D01*
X82858402Y-77933123D01*
X82732898Y-78112362D01*
X82640425Y-78310670D01*
X82583793Y-78522023D01*
X82564723Y-78740000D01*
X78098497Y-78740000D01*
X78086370Y-78529680D01*
X78086369Y-78529675D01*
X78086161Y-78526060D01*
X78084529Y-78516710D01*
X78029276Y-78200119D01*
X78029274Y-78200112D01*
X78028652Y-78196546D01*
X77933650Y-77875825D01*
X77924167Y-77853591D01*
X77803838Y-77571487D01*
X77802415Y-77568150D01*
X77797198Y-77559002D01*
X77638478Y-77280737D01*
X77636687Y-77277597D01*
X77438662Y-77008018D01*
X77358330Y-76921570D01*
X77279024Y-76836227D01*
X77210964Y-76762986D01*
X76956612Y-76545749D01*
X76678977Y-76359186D01*
X76675768Y-76357530D01*
X76675760Y-76357525D01*
X76384959Y-76207432D01*
X76381739Y-76205770D01*
X76202266Y-76137953D01*
X93174514Y-76137953D01*
X93175201Y-76144960D01*
X93175201Y-76144963D01*
X93183276Y-76227319D01*
X93192039Y-76316686D01*
X93248726Y-76487096D01*
X93341759Y-76640712D01*
X93346648Y-76645775D01*
X93346649Y-76645776D01*
X93372005Y-76672033D01*
X93466514Y-76769899D01*
X93616789Y-76868236D01*
X93785116Y-76930836D01*
X93792097Y-76931767D01*
X93792099Y-76931768D01*
X93956149Y-76953657D01*
X93956153Y-76953657D01*
X93963130Y-76954588D01*
X93970142Y-76953950D01*
X93970146Y-76953950D01*
X94134960Y-76938951D01*
X94134961Y-76938951D01*
X94141981Y-76938312D01*
X94241836Y-76905867D01*
X94280772Y-76899700D01*
X94319946Y-76899700D01*
X94338896Y-76901133D01*
X94352796Y-76903248D01*
X94352800Y-76903248D01*
X94360030Y-76904348D01*
X94367322Y-76903755D01*
X94367325Y-76903755D01*
X94412075Y-76900115D01*
X94422289Y-76899700D01*
X94430222Y-76899700D01*
X94439518Y-76898616D01*
X94458136Y-76896446D01*
X94462511Y-76896013D01*
X94492674Y-76893560D01*
X94534459Y-76890161D01*
X94541421Y-76887906D01*
X94547216Y-76886748D01*
X94552958Y-76885391D01*
X94560228Y-76884543D01*
X94628136Y-76859894D01*
X94632264Y-76858477D01*
X94693983Y-76838483D01*
X94693985Y-76838482D01*
X94700946Y-76836227D01*
X94707200Y-76832432D01*
X94712579Y-76829969D01*
X94717855Y-76827327D01*
X94724731Y-76824831D01*
X94785109Y-76785246D01*
X94788819Y-76782905D01*
X94845761Y-76748352D01*
X94845768Y-76748347D01*
X94850560Y-76745439D01*
X94858852Y-76738115D01*
X94858874Y-76738140D01*
X94861969Y-76735394D01*
X94864963Y-76732891D01*
X94871085Y-76728877D01*
X94923784Y-76673247D01*
X94926161Y-76670806D01*
X98172089Y-73424878D01*
X98186502Y-73412491D01*
X98197825Y-73404159D01*
X98197829Y-73404155D01*
X98203724Y-73399817D01*
X98237551Y-73360000D01*
X98244471Y-73352496D01*
X98250070Y-73346897D01*
X98267514Y-73324849D01*
X98270283Y-73321473D01*
X98312292Y-73272025D01*
X98312294Y-73272022D01*
X98317032Y-73266445D01*
X98320360Y-73259926D01*
X98323635Y-73255016D01*
X98326736Y-73249996D01*
X98331281Y-73244251D01*
X98361847Y-73178851D01*
X98363775Y-73174905D01*
X98393290Y-73117103D01*
X98396619Y-73110584D01*
X98398358Y-73103475D01*
X98400417Y-73097940D01*
X98402283Y-73092332D01*
X98405379Y-73085707D01*
X98420084Y-73015012D01*
X98421054Y-73010727D01*
X98436880Y-72946049D01*
X98438215Y-72940594D01*
X98438900Y-72929552D01*
X98438931Y-72929554D01*
X98439180Y-72925430D01*
X98439528Y-72921528D01*
X98441017Y-72914370D01*
X98438946Y-72837822D01*
X98438900Y-72834414D01*
X98438900Y-67419057D01*
X98458902Y-67350936D01*
X98475805Y-67329962D01*
X99257762Y-66548005D01*
X99320074Y-66513979D01*
X99346857Y-66511100D01*
X104352946Y-66511100D01*
X104371896Y-66512533D01*
X104385796Y-66514648D01*
X104385800Y-66514648D01*
X104393030Y-66515748D01*
X104400322Y-66515155D01*
X104400325Y-66515155D01*
X104445075Y-66511515D01*
X104455289Y-66511100D01*
X104463222Y-66511100D01*
X104472518Y-66510016D01*
X104491136Y-66507846D01*
X104495511Y-66507413D01*
X104525674Y-66504960D01*
X104567459Y-66501561D01*
X104574421Y-66499306D01*
X104580216Y-66498148D01*
X104585958Y-66496791D01*
X104593228Y-66495943D01*
X104661136Y-66471294D01*
X104665264Y-66469877D01*
X104726983Y-66449883D01*
X104726985Y-66449882D01*
X104733946Y-66447627D01*
X104740200Y-66443832D01*
X104745579Y-66441369D01*
X104750855Y-66438727D01*
X104757731Y-66436231D01*
X104818109Y-66396646D01*
X104821819Y-66394305D01*
X104878761Y-66359752D01*
X104878768Y-66359747D01*
X104883560Y-66356839D01*
X104891852Y-66349515D01*
X104891874Y-66349540D01*
X104894969Y-66346794D01*
X104897963Y-66344291D01*
X104904085Y-66340277D01*
X104956784Y-66284647D01*
X104959161Y-66282206D01*
X106460143Y-64781224D01*
X106522455Y-64747198D01*
X106560219Y-64744798D01*
X106674524Y-64754798D01*
X106674525Y-64754798D01*
X106680000Y-64755277D01*
X106897977Y-64736207D01*
X107038255Y-64698620D01*
X107104020Y-64680998D01*
X107104022Y-64680997D01*
X107109330Y-64679575D01*
X107127636Y-64671039D01*
X107302652Y-64589428D01*
X107302657Y-64589425D01*
X107307639Y-64587102D01*
X107360516Y-64550077D01*
X107482366Y-64464757D01*
X107482369Y-64464755D01*
X107486877Y-64461598D01*
X107641598Y-64306877D01*
X107767102Y-64127638D01*
X107773702Y-64113486D01*
X107857252Y-63934312D01*
X107857253Y-63934310D01*
X107859575Y-63929330D01*
X107916207Y-63717977D01*
X107935277Y-63500000D01*
X107916207Y-63282023D01*
X107878620Y-63141745D01*
X107860998Y-63075980D01*
X107860997Y-63075978D01*
X107859575Y-63070670D01*
X107767102Y-62872362D01*
X107641598Y-62693123D01*
X107486877Y-62538402D01*
X107482369Y-62535245D01*
X107482366Y-62535243D01*
X107312148Y-62416055D01*
X107312145Y-62416053D01*
X107307639Y-62412898D01*
X107302657Y-62410575D01*
X107302652Y-62410572D01*
X107114312Y-62322748D01*
X107114311Y-62322747D01*
X107109330Y-62320425D01*
X107104022Y-62319003D01*
X107104020Y-62319002D01*
X107038255Y-62301380D01*
X106897977Y-62263793D01*
X106680000Y-62244723D01*
X106462023Y-62263793D01*
X106321745Y-62301380D01*
X106255980Y-62319002D01*
X106255978Y-62319003D01*
X106250670Y-62320425D01*
X106245690Y-62322747D01*
X106245688Y-62322748D01*
X106057343Y-62410575D01*
X106057340Y-62410577D01*
X106052362Y-62412898D01*
X105873123Y-62538402D01*
X105718402Y-62693123D01*
X105592898Y-62872362D01*
X105590577Y-62877340D01*
X105590575Y-62877343D01*
X105524195Y-63019695D01*
X105477277Y-63072980D01*
X105409000Y-63092441D01*
X105341040Y-63071899D01*
X105295805Y-63019695D01*
X105229425Y-62877343D01*
X105229423Y-62877340D01*
X105227102Y-62872362D01*
X105101598Y-62693123D01*
X104946877Y-62538402D01*
X104942369Y-62535245D01*
X104942366Y-62535243D01*
X104772148Y-62416055D01*
X104772145Y-62416053D01*
X104767639Y-62412898D01*
X104762657Y-62410575D01*
X104762652Y-62410572D01*
X104574312Y-62322748D01*
X104574311Y-62322747D01*
X104569330Y-62320425D01*
X104564022Y-62319003D01*
X104564020Y-62319002D01*
X104498255Y-62301380D01*
X104357977Y-62263793D01*
X104140000Y-62244723D01*
X103922023Y-62263793D01*
X103781745Y-62301380D01*
X103715980Y-62319002D01*
X103715978Y-62319003D01*
X103710670Y-62320425D01*
X103705690Y-62322747D01*
X103705688Y-62322748D01*
X103517343Y-62410575D01*
X103517340Y-62410577D01*
X103512362Y-62412898D01*
X103333123Y-62538402D01*
X103178402Y-62693123D01*
X103108837Y-62792473D01*
X103079712Y-62834068D01*
X103024255Y-62878396D01*
X102953636Y-62885705D01*
X102890275Y-62853674D01*
X102854290Y-62792473D01*
X102850499Y-62761797D01*
X102850499Y-62618482D01*
X102838434Y-62542299D01*
X102837198Y-62534494D01*
X102837197Y-62534492D01*
X102835646Y-62524696D01*
X102778050Y-62411658D01*
X102688342Y-62321950D01*
X102575304Y-62264354D01*
X102565515Y-62262804D01*
X102565513Y-62262803D01*
X102538151Y-62258470D01*
X102481519Y-62249500D01*
X101600178Y-62249500D01*
X100718482Y-62249501D01*
X100713589Y-62250276D01*
X100713588Y-62250276D01*
X100634494Y-62262802D01*
X100634492Y-62262803D01*
X100624696Y-62264354D01*
X100511658Y-62321950D01*
X100421950Y-62411658D01*
X100364354Y-62524696D01*
X100362804Y-62534485D01*
X100362803Y-62534487D01*
X100362183Y-62538402D01*
X100349500Y-62618481D01*
X100349501Y-64381518D01*
X100350276Y-64386409D01*
X100350276Y-64386412D01*
X100362684Y-64464757D01*
X100364354Y-64475304D01*
X100421950Y-64588342D01*
X100511658Y-64678050D01*
X100624696Y-64735646D01*
X100634485Y-64737196D01*
X100634487Y-64737197D01*
X100660571Y-64741328D01*
X100718481Y-64750500D01*
X101599822Y-64750500D01*
X102481518Y-64750499D01*
X102486412Y-64749724D01*
X102565506Y-64737198D01*
X102565508Y-64737197D01*
X102575304Y-64735646D01*
X102591767Y-64727258D01*
X102606895Y-64719549D01*
X102688342Y-64678050D01*
X102778050Y-64588342D01*
X102835646Y-64475304D01*
X102837317Y-64464757D01*
X102849725Y-64386412D01*
X102850500Y-64381519D01*
X102850500Y-64238204D01*
X102870502Y-64170083D01*
X102924158Y-64123590D01*
X102994432Y-64113486D01*
X103059012Y-64142980D01*
X103079713Y-64165934D01*
X103178402Y-64306877D01*
X103333123Y-64461598D01*
X103337631Y-64464755D01*
X103337634Y-64464757D01*
X103459484Y-64550077D01*
X103512361Y-64587102D01*
X103517343Y-64589425D01*
X103517348Y-64589428D01*
X103692364Y-64671039D01*
X103710670Y-64679575D01*
X103715978Y-64680997D01*
X103715980Y-64680998D01*
X103781745Y-64698620D01*
X103922023Y-64736207D01*
X104070616Y-64749207D01*
X104076207Y-64749696D01*
X104142326Y-64775559D01*
X104183965Y-64833063D01*
X104187906Y-64903950D01*
X104154321Y-64964312D01*
X104145438Y-64973195D01*
X104083126Y-65007221D01*
X104056343Y-65010100D01*
X99050254Y-65010100D01*
X99031304Y-65008667D01*
X99017404Y-65006552D01*
X99017400Y-65006552D01*
X99010170Y-65005452D01*
X99002878Y-65006045D01*
X99002875Y-65006045D01*
X98958125Y-65009685D01*
X98947911Y-65010100D01*
X98939978Y-65010100D01*
X98930682Y-65011184D01*
X98912064Y-65013354D01*
X98907689Y-65013787D01*
X98877526Y-65016240D01*
X98835741Y-65019639D01*
X98828779Y-65021894D01*
X98822984Y-65023052D01*
X98817242Y-65024409D01*
X98809972Y-65025257D01*
X98742064Y-65049906D01*
X98737936Y-65051323D01*
X98676217Y-65071317D01*
X98676215Y-65071318D01*
X98669254Y-65073573D01*
X98663000Y-65077368D01*
X98657621Y-65079831D01*
X98652345Y-65082473D01*
X98645469Y-65084969D01*
X98585101Y-65124548D01*
X98581381Y-65126895D01*
X98524439Y-65161448D01*
X98524432Y-65161453D01*
X98519640Y-65164361D01*
X98511348Y-65171685D01*
X98511326Y-65171660D01*
X98508231Y-65174406D01*
X98505237Y-65176909D01*
X98499115Y-65180923D01*
X98494082Y-65186236D01*
X98446417Y-65236552D01*
X98444039Y-65238994D01*
X97204711Y-66478322D01*
X97190298Y-66490709D01*
X97178975Y-66499041D01*
X97178971Y-66499045D01*
X97173076Y-66503383D01*
X97139249Y-66543200D01*
X97132329Y-66550704D01*
X97126730Y-66556303D01*
X97109286Y-66578351D01*
X97106517Y-66581727D01*
X97064508Y-66631175D01*
X97064506Y-66631178D01*
X97059768Y-66636755D01*
X97056440Y-66643274D01*
X97053165Y-66648184D01*
X97050064Y-66653204D01*
X97045519Y-66658949D01*
X97042417Y-66665587D01*
X97042416Y-66665588D01*
X97014956Y-66724343D01*
X97013028Y-66728289D01*
X96980181Y-66792616D01*
X96978442Y-66799725D01*
X96976383Y-66805260D01*
X96974517Y-66810868D01*
X96971421Y-66817493D01*
X96969932Y-66824653D01*
X96969931Y-66824655D01*
X96956715Y-66888193D01*
X96955744Y-66892482D01*
X96938585Y-66962606D01*
X96937900Y-66973648D01*
X96937868Y-66973646D01*
X96937621Y-66977776D01*
X96937275Y-66981656D01*
X96935782Y-66988831D01*
X96935980Y-66996152D01*
X96935980Y-66996153D01*
X96937854Y-67065400D01*
X96937900Y-67068808D01*
X96937900Y-72484143D01*
X96917898Y-72552264D01*
X96900995Y-72573238D01*
X94158398Y-75315835D01*
X94096086Y-75349861D01*
X94054384Y-75351854D01*
X93985624Y-75343655D01*
X93978621Y-75344391D01*
X93978620Y-75344391D01*
X93814025Y-75361690D01*
X93814021Y-75361691D01*
X93807017Y-75362427D01*
X93800346Y-75364698D01*
X93643677Y-75418032D01*
X93643674Y-75418033D01*
X93637007Y-75420303D01*
X93484045Y-75514406D01*
X93479014Y-75519332D01*
X93479011Y-75519335D01*
X93416883Y-75580176D01*
X93355732Y-75640059D01*
X93258446Y-75791017D01*
X93197022Y-75959778D01*
X93174514Y-76137953D01*
X76202266Y-76137953D01*
X76068838Y-76087535D01*
X75744421Y-76006047D01*
X75604973Y-75987688D01*
X75416391Y-75962861D01*
X75416383Y-75962860D01*
X75412787Y-75962387D01*
X75273863Y-75960205D01*
X75081976Y-75957190D01*
X75081972Y-75957190D01*
X75078334Y-75957133D01*
X75074720Y-75957494D01*
X75074713Y-75957494D01*
X74820428Y-75982875D01*
X74745493Y-75990354D01*
X74418676Y-76061612D01*
X74415249Y-76062785D01*
X74415243Y-76062787D01*
X74105646Y-76168786D01*
X74105641Y-76168788D01*
X74102215Y-76169961D01*
X74098947Y-76171520D01*
X74098939Y-76171523D01*
X73945104Y-76244899D01*
X73800305Y-76313965D01*
X73516947Y-76491715D01*
X73514111Y-76493987D01*
X73514104Y-76493992D01*
X73452020Y-76543731D01*
X73255897Y-76700855D01*
X73208895Y-76748352D01*
X73055613Y-76903248D01*
X73020615Y-76938614D01*
X72991853Y-76975296D01*
X72934080Y-77016559D01*
X72863169Y-77020038D01*
X72801633Y-76984628D01*
X72769011Y-76921570D01*
X72766700Y-76897548D01*
X72766700Y-68062281D01*
X85289700Y-68062281D01*
X85289701Y-72725318D01*
X85304554Y-72819104D01*
X85362150Y-72932142D01*
X85451858Y-73021850D01*
X85564896Y-73079446D01*
X85574685Y-73080996D01*
X85574687Y-73080997D01*
X85602049Y-73085330D01*
X85658681Y-73094300D01*
X86689991Y-73094300D01*
X87721718Y-73094299D01*
X87726612Y-73093524D01*
X87805706Y-73080998D01*
X87805708Y-73080997D01*
X87815504Y-73079446D01*
X87928542Y-73021850D01*
X88018250Y-72932142D01*
X88075846Y-72819104D01*
X88090700Y-72725319D01*
X88090699Y-68062282D01*
X88075846Y-67968496D01*
X88018250Y-67855458D01*
X87928542Y-67765750D01*
X87815504Y-67708154D01*
X87805715Y-67706604D01*
X87805713Y-67706603D01*
X87778351Y-67702270D01*
X87721719Y-67693300D01*
X86690409Y-67693300D01*
X85658682Y-67693301D01*
X85653789Y-67694076D01*
X85653788Y-67694076D01*
X85574694Y-67706602D01*
X85574692Y-67706603D01*
X85564896Y-67708154D01*
X85451858Y-67765750D01*
X85362150Y-67855458D01*
X85304554Y-67968496D01*
X85289700Y-68062281D01*
X72766700Y-68062281D01*
X72766700Y-64479157D01*
X72786702Y-64411036D01*
X72840358Y-64364543D01*
X72910632Y-64354439D01*
X72975212Y-64383933D01*
X72987649Y-64396328D01*
X73059906Y-64479157D01*
X73124160Y-64552813D01*
X73371562Y-64777932D01*
X73643200Y-64973124D01*
X73935473Y-65135801D01*
X74244506Y-65263806D01*
X74248000Y-65264801D01*
X74248002Y-65264802D01*
X74562702Y-65354447D01*
X74562707Y-65354448D01*
X74566203Y-65355444D01*
X74569784Y-65356030D01*
X74569791Y-65356032D01*
X74892721Y-65408914D01*
X74892725Y-65408914D01*
X74896301Y-65409500D01*
X74899927Y-65409671D01*
X75226798Y-65425086D01*
X75226799Y-65425086D01*
X75230425Y-65425257D01*
X75238174Y-65424729D01*
X75560514Y-65402754D01*
X75560522Y-65402753D01*
X75564145Y-65402506D01*
X75567721Y-65401843D01*
X75567723Y-65401843D01*
X75889474Y-65342210D01*
X75889478Y-65342209D01*
X75893039Y-65341549D01*
X76212747Y-65243194D01*
X76519031Y-65108745D01*
X76807833Y-64939983D01*
X76855824Y-64903950D01*
X77072416Y-64741328D01*
X77072420Y-64741325D01*
X77075323Y-64739145D01*
X77317957Y-64508894D01*
X77532519Y-64252281D01*
X77586513Y-64170083D01*
X77714177Y-63975734D01*
X77714182Y-63975725D01*
X77716164Y-63972708D01*
X77840205Y-63726081D01*
X77864832Y-63677116D01*
X77864835Y-63677108D01*
X77866459Y-63673880D01*
X77867704Y-63670478D01*
X77930090Y-63500000D01*
X82564723Y-63500000D01*
X82583793Y-63717977D01*
X82640425Y-63929330D01*
X82642747Y-63934310D01*
X82642748Y-63934312D01*
X82726299Y-64113486D01*
X82732898Y-64127638D01*
X82858402Y-64306877D01*
X83013123Y-64461598D01*
X83017631Y-64464755D01*
X83017634Y-64464757D01*
X83139484Y-64550077D01*
X83192361Y-64587102D01*
X83197343Y-64589425D01*
X83197348Y-64589428D01*
X83372364Y-64671039D01*
X83390670Y-64679575D01*
X83395978Y-64680997D01*
X83395980Y-64680998D01*
X83461745Y-64698620D01*
X83602023Y-64736207D01*
X83820000Y-64755277D01*
X84037977Y-64736207D01*
X84178255Y-64698620D01*
X84244020Y-64680998D01*
X84244022Y-64680997D01*
X84249330Y-64679575D01*
X84267636Y-64671039D01*
X84442652Y-64589428D01*
X84442657Y-64589425D01*
X84447639Y-64587102D01*
X84500516Y-64550077D01*
X84622366Y-64464757D01*
X84622369Y-64464755D01*
X84626877Y-64461598D01*
X84781598Y-64306877D01*
X84907102Y-64127638D01*
X84913702Y-64113486D01*
X84997252Y-63934312D01*
X84997253Y-63934310D01*
X84999575Y-63929330D01*
X85056207Y-63717977D01*
X85075277Y-63500000D01*
X87644723Y-63500000D01*
X87663793Y-63717977D01*
X87720425Y-63929330D01*
X87722747Y-63934310D01*
X87722748Y-63934312D01*
X87806299Y-64113486D01*
X87812898Y-64127638D01*
X87938402Y-64306877D01*
X88093123Y-64461598D01*
X88097631Y-64464755D01*
X88097634Y-64464757D01*
X88219484Y-64550077D01*
X88272361Y-64587102D01*
X88277343Y-64589425D01*
X88277348Y-64589428D01*
X88452364Y-64671039D01*
X88470670Y-64679575D01*
X88475978Y-64680997D01*
X88475980Y-64680998D01*
X88541745Y-64698620D01*
X88682023Y-64736207D01*
X88900000Y-64755277D01*
X89117977Y-64736207D01*
X89258255Y-64698620D01*
X89324020Y-64680998D01*
X89324022Y-64680997D01*
X89329330Y-64679575D01*
X89347636Y-64671039D01*
X89522652Y-64589428D01*
X89522657Y-64589425D01*
X89527639Y-64587102D01*
X89580516Y-64550077D01*
X89702366Y-64464757D01*
X89702369Y-64464755D01*
X89706877Y-64461598D01*
X89861598Y-64306877D01*
X89987102Y-64127638D01*
X89993702Y-64113486D01*
X90077252Y-63934312D01*
X90077253Y-63934310D01*
X90079575Y-63929330D01*
X90136207Y-63717977D01*
X90155277Y-63500000D01*
X90136207Y-63282023D01*
X90098620Y-63141745D01*
X90080998Y-63075980D01*
X90080997Y-63075978D01*
X90079575Y-63070670D01*
X89987102Y-62872362D01*
X89861598Y-62693123D01*
X89706877Y-62538402D01*
X89702369Y-62535245D01*
X89702366Y-62535243D01*
X89532148Y-62416055D01*
X89532145Y-62416053D01*
X89527639Y-62412898D01*
X89522657Y-62410575D01*
X89522652Y-62410572D01*
X89334312Y-62322748D01*
X89334311Y-62322747D01*
X89329330Y-62320425D01*
X89324022Y-62319003D01*
X89324020Y-62319002D01*
X89258255Y-62301380D01*
X89117977Y-62263793D01*
X88900000Y-62244723D01*
X88682023Y-62263793D01*
X88541745Y-62301380D01*
X88475980Y-62319002D01*
X88475978Y-62319003D01*
X88470670Y-62320425D01*
X88465690Y-62322747D01*
X88465688Y-62322748D01*
X88277343Y-62410575D01*
X88277340Y-62410577D01*
X88272362Y-62412898D01*
X88093123Y-62538402D01*
X87938402Y-62693123D01*
X87812898Y-62872362D01*
X87720425Y-63070670D01*
X87719003Y-63075978D01*
X87719002Y-63075980D01*
X87701380Y-63141745D01*
X87663793Y-63282023D01*
X87644723Y-63500000D01*
X85075277Y-63500000D01*
X85056207Y-63282023D01*
X85018620Y-63141745D01*
X85000998Y-63075980D01*
X85000997Y-63075978D01*
X84999575Y-63070670D01*
X84907102Y-62872362D01*
X84781598Y-62693123D01*
X84626877Y-62538402D01*
X84622369Y-62535245D01*
X84622366Y-62535243D01*
X84452148Y-62416055D01*
X84452145Y-62416053D01*
X84447639Y-62412898D01*
X84442657Y-62410575D01*
X84442652Y-62410572D01*
X84254312Y-62322748D01*
X84254311Y-62322747D01*
X84249330Y-62320425D01*
X84244022Y-62319003D01*
X84244020Y-62319002D01*
X84178255Y-62301380D01*
X84037977Y-62263793D01*
X83820000Y-62244723D01*
X83602023Y-62263793D01*
X83461745Y-62301380D01*
X83395980Y-62319002D01*
X83395978Y-62319003D01*
X83390670Y-62320425D01*
X83385690Y-62322747D01*
X83385688Y-62322748D01*
X83197343Y-62410575D01*
X83197340Y-62410577D01*
X83192362Y-62412898D01*
X83013123Y-62538402D01*
X82858402Y-62693123D01*
X82732898Y-62872362D01*
X82640425Y-63070670D01*
X82639003Y-63075978D01*
X82639002Y-63075980D01*
X82621380Y-63141745D01*
X82583793Y-63282023D01*
X82564723Y-63500000D01*
X77930090Y-63500000D01*
X77980163Y-63363170D01*
X77980166Y-63363160D01*
X77981411Y-63359758D01*
X77982256Y-63356236D01*
X77982259Y-63356228D01*
X78058651Y-63038034D01*
X78058652Y-63038030D01*
X78059498Y-63034505D01*
X78078517Y-62877343D01*
X78099347Y-62705212D01*
X78099348Y-62705205D01*
X78099683Y-62702433D01*
X78102166Y-62623437D01*
X78104937Y-62535243D01*
X78105416Y-62520000D01*
X78105255Y-62517204D01*
X78086370Y-62189680D01*
X78086369Y-62189675D01*
X78086161Y-62186060D01*
X78028652Y-61856546D01*
X77933650Y-61535825D01*
X77802415Y-61228150D01*
X77636687Y-60937597D01*
X77583310Y-60864932D01*
X77440805Y-60670935D01*
X77440803Y-60670932D01*
X77438662Y-60668018D01*
X77358330Y-60581570D01*
X77213431Y-60425641D01*
X77210964Y-60422986D01*
X77079271Y-60310510D01*
X77040463Y-60251060D01*
X77039957Y-60180066D01*
X77077913Y-60120067D01*
X77142281Y-60090114D01*
X77161103Y-60088700D01*
X114566808Y-60088700D01*
X114634929Y-60108702D01*
G37*
%TD.AperFunction*%
M02*
