%TF.GenerationSoftware,KiCad,Pcbnew,(6.0.8)*%
%TF.CreationDate,2022-12-06T01:44:10+01:00*%
%TF.ProjectId,Single-DCDC-Converter-Rev2,53696e67-6c65-42d4-9443-44432d436f6e,rev?*%
%TF.SameCoordinates,Original*%
%TF.FileFunction,Legend,Bot*%
%TF.FilePolarity,Positive*%
%FSLAX46Y46*%
G04 Gerber Fmt 4.6, Leading zero omitted, Abs format (unit mm)*
G04 Created by KiCad (PCBNEW (6.0.8)) date 2022-12-06 01:44:10*
%MOMM*%
%LPD*%
G01*
G04 APERTURE LIST*
%ADD10C,0.125000*%
%ADD11C,0.150000*%
%ADD12C,0.200000*%
%ADD13C,5.000000*%
%ADD14R,1.700000X1.700000*%
%ADD15O,1.700000X1.700000*%
%ADD16R,1.600000X1.600000*%
%ADD17C,1.600000*%
G04 APERTURE END LIST*
D10*
X91376476Y-62519714D02*
X90995523Y-62519714D01*
D11*
X126871428Y-56852380D02*
X126252380Y-56852380D01*
X126585714Y-57233333D01*
X126442857Y-57233333D01*
X126347619Y-57280952D01*
X126300000Y-57328571D01*
X126252380Y-57423809D01*
X126252380Y-57661904D01*
X126300000Y-57757142D01*
X126347619Y-57804761D01*
X126442857Y-57852380D01*
X126728571Y-57852380D01*
X126823809Y-57804761D01*
X126871428Y-57757142D01*
X125871428Y-57566666D02*
X125395238Y-57566666D01*
X125966666Y-57852380D02*
X125633333Y-56852380D01*
X125300000Y-57852380D01*
X124204761Y-57852380D02*
X124204761Y-56852380D01*
X123871428Y-57566666D01*
X123538095Y-56852380D01*
X123538095Y-57852380D01*
X122633333Y-57852380D02*
X122633333Y-57328571D01*
X122680952Y-57233333D01*
X122776190Y-57185714D01*
X122966666Y-57185714D01*
X123061904Y-57233333D01*
X122633333Y-57804761D02*
X122728571Y-57852380D01*
X122966666Y-57852380D01*
X123061904Y-57804761D01*
X123109523Y-57709523D01*
X123109523Y-57614285D01*
X123061904Y-57519047D01*
X122966666Y-57471428D01*
X122728571Y-57471428D01*
X122633333Y-57423809D01*
X122252380Y-57852380D02*
X121728571Y-57185714D01*
X122252380Y-57185714D02*
X121728571Y-57852380D01*
D10*
X96456476Y-62519714D02*
X96075523Y-62519714D01*
X94076476Y-41183714D02*
X93695523Y-41183714D01*
X93886000Y-41374190D02*
X93886000Y-40993238D01*
X99090476Y-62519714D02*
X98709523Y-62519714D01*
X98900000Y-62710190D02*
X98900000Y-62329238D01*
X127705952Y-58601190D02*
X127539285Y-59101190D01*
X127372619Y-58601190D01*
X127110714Y-58601190D02*
X127015476Y-58601190D01*
X126967857Y-58625000D01*
X126920238Y-58672619D01*
X126896428Y-58767857D01*
X126896428Y-58934523D01*
X126920238Y-59029761D01*
X126967857Y-59077380D01*
X127015476Y-59101190D01*
X127110714Y-59101190D01*
X127158333Y-59077380D01*
X127205952Y-59029761D01*
X127229761Y-58934523D01*
X127229761Y-58767857D01*
X127205952Y-58672619D01*
X127158333Y-58625000D01*
X127110714Y-58601190D01*
X126682142Y-58601190D02*
X126682142Y-59005952D01*
X126658333Y-59053571D01*
X126634523Y-59077380D01*
X126586904Y-59101190D01*
X126491666Y-59101190D01*
X126444047Y-59077380D01*
X126420238Y-59053571D01*
X126396428Y-59005952D01*
X126396428Y-58601190D01*
X126229761Y-58601190D02*
X125944047Y-58601190D01*
X126086904Y-59101190D02*
X126086904Y-58601190D01*
D12*
X101504761Y-48272380D02*
X100933333Y-48272380D01*
X101219047Y-49272380D02*
X101219047Y-48272380D01*
X100600000Y-49272380D02*
X100600000Y-48272380D01*
X100219047Y-48272380D01*
X100123809Y-48320000D01*
X100076190Y-48367619D01*
X100028571Y-48462857D01*
X100028571Y-48605714D01*
X100076190Y-48700952D01*
X100123809Y-48748571D01*
X100219047Y-48796190D01*
X100600000Y-48796190D01*
X99647619Y-49224761D02*
X99504761Y-49272380D01*
X99266666Y-49272380D01*
X99171428Y-49224761D01*
X99123809Y-49177142D01*
X99076190Y-49081904D01*
X99076190Y-48986666D01*
X99123809Y-48891428D01*
X99171428Y-48843809D01*
X99266666Y-48796190D01*
X99457142Y-48748571D01*
X99552380Y-48700952D01*
X99600000Y-48653333D01*
X99647619Y-48558095D01*
X99647619Y-48462857D01*
X99600000Y-48367619D01*
X99552380Y-48320000D01*
X99457142Y-48272380D01*
X99219047Y-48272380D01*
X99076190Y-48320000D01*
X98171428Y-48272380D02*
X98647619Y-48272380D01*
X98695238Y-48748571D01*
X98647619Y-48700952D01*
X98552380Y-48653333D01*
X98314285Y-48653333D01*
X98219047Y-48700952D01*
X98171428Y-48748571D01*
X98123809Y-48843809D01*
X98123809Y-49081904D01*
X98171428Y-49177142D01*
X98219047Y-49224761D01*
X98314285Y-49272380D01*
X98552380Y-49272380D01*
X98647619Y-49224761D01*
X98695238Y-49177142D01*
X97266666Y-48605714D02*
X97266666Y-49272380D01*
X97504761Y-48224761D02*
X97742857Y-48939047D01*
X97123809Y-48939047D01*
X96838095Y-48272380D02*
X96219047Y-48272380D01*
X96552380Y-48653333D01*
X96409523Y-48653333D01*
X96314285Y-48700952D01*
X96266666Y-48748571D01*
X96219047Y-48843809D01*
X96219047Y-49081904D01*
X96266666Y-49177142D01*
X96314285Y-49224761D01*
X96409523Y-49272380D01*
X96695238Y-49272380D01*
X96790476Y-49224761D01*
X96838095Y-49177142D01*
X95600000Y-48272380D02*
X95504761Y-48272380D01*
X95409523Y-48320000D01*
X95361904Y-48367619D01*
X95314285Y-48462857D01*
X95266666Y-48653333D01*
X95266666Y-48891428D01*
X95314285Y-49081904D01*
X95361904Y-49177142D01*
X95409523Y-49224761D01*
X95504761Y-49272380D01*
X95600000Y-49272380D01*
X95695238Y-49224761D01*
X95742857Y-49177142D01*
X95790476Y-49081904D01*
X95838095Y-48891428D01*
X95838095Y-48653333D01*
X95790476Y-48462857D01*
X95742857Y-48367619D01*
X95695238Y-48320000D01*
X95600000Y-48272380D01*
X93504761Y-49272380D02*
X93838095Y-48796190D01*
X94076190Y-49272380D02*
X94076190Y-48272380D01*
X93695238Y-48272380D01*
X93600000Y-48320000D01*
X93552380Y-48367619D01*
X93504761Y-48462857D01*
X93504761Y-48605714D01*
X93552380Y-48700952D01*
X93600000Y-48748571D01*
X93695238Y-48796190D01*
X94076190Y-48796190D01*
X93076190Y-48748571D02*
X92742857Y-48748571D01*
X92600000Y-49272380D02*
X93076190Y-49272380D01*
X93076190Y-48272380D01*
X92600000Y-48272380D01*
X92314285Y-48272380D02*
X91980952Y-49272380D01*
X91647619Y-48272380D01*
X90790476Y-49272380D02*
X91361904Y-49272380D01*
X91076190Y-49272380D02*
X91076190Y-48272380D01*
X91171428Y-48415238D01*
X91266666Y-48510476D01*
X91361904Y-48558095D01*
X98814285Y-50882380D02*
X99147619Y-50406190D01*
X99385714Y-50882380D02*
X99385714Y-49882380D01*
X99004761Y-49882380D01*
X98909523Y-49930000D01*
X98861904Y-49977619D01*
X98814285Y-50072857D01*
X98814285Y-50215714D01*
X98861904Y-50310952D01*
X98909523Y-50358571D01*
X99004761Y-50406190D01*
X99385714Y-50406190D01*
X97861904Y-50882380D02*
X98433333Y-50882380D01*
X98147619Y-50882380D02*
X98147619Y-49882380D01*
X98242857Y-50025238D01*
X98338095Y-50120476D01*
X98433333Y-50168095D01*
X97433333Y-50787142D02*
X97385714Y-50834761D01*
X97433333Y-50882380D01*
X97480952Y-50834761D01*
X97433333Y-50787142D01*
X97433333Y-50882380D01*
X97433333Y-50263333D02*
X97385714Y-50310952D01*
X97433333Y-50358571D01*
X97480952Y-50310952D01*
X97433333Y-50263333D01*
X97433333Y-50358571D01*
X95671428Y-50882380D02*
X96242857Y-50882380D01*
X95957142Y-50882380D02*
X95957142Y-49882380D01*
X96052380Y-50025238D01*
X96147619Y-50120476D01*
X96242857Y-50168095D01*
X95052380Y-49882380D02*
X94957142Y-49882380D01*
X94861904Y-49930000D01*
X94814285Y-49977619D01*
X94766666Y-50072857D01*
X94719047Y-50263333D01*
X94719047Y-50501428D01*
X94766666Y-50691904D01*
X94814285Y-50787142D01*
X94861904Y-50834761D01*
X94957142Y-50882380D01*
X95052380Y-50882380D01*
X95147619Y-50834761D01*
X95195238Y-50787142D01*
X95242857Y-50691904D01*
X95290476Y-50501428D01*
X95290476Y-50263333D01*
X95242857Y-50072857D01*
X95195238Y-49977619D01*
X95147619Y-49930000D01*
X95052380Y-49882380D01*
X94290476Y-50882380D02*
X94290476Y-49882380D01*
X94195238Y-50501428D02*
X93909523Y-50882380D01*
X93909523Y-50215714D02*
X94290476Y-50596666D01*
X93528571Y-50882380D02*
X93290476Y-50882380D01*
X93290476Y-50691904D01*
X93385714Y-50644285D01*
X93480952Y-50549047D01*
X93528571Y-50406190D01*
X93528571Y-50168095D01*
X93480952Y-50025238D01*
X93385714Y-49930000D01*
X93242857Y-49882380D01*
X93052380Y-49882380D01*
X92909523Y-49930000D01*
X92814285Y-50025238D01*
X92766666Y-50168095D01*
X92766666Y-50406190D01*
X92814285Y-50549047D01*
X92909523Y-50644285D01*
X93004761Y-50691904D01*
X93004761Y-50882380D01*
X92766666Y-50882380D01*
X96504761Y-52492380D02*
X96838095Y-52016190D01*
X97076190Y-52492380D02*
X97076190Y-51492380D01*
X96695238Y-51492380D01*
X96600000Y-51540000D01*
X96552380Y-51587619D01*
X96504761Y-51682857D01*
X96504761Y-51825714D01*
X96552380Y-51920952D01*
X96600000Y-51968571D01*
X96695238Y-52016190D01*
X97076190Y-52016190D01*
X96123809Y-51587619D02*
X96076190Y-51540000D01*
X95980952Y-51492380D01*
X95742857Y-51492380D01*
X95647619Y-51540000D01*
X95600000Y-51587619D01*
X95552380Y-51682857D01*
X95552380Y-51778095D01*
X95600000Y-51920952D01*
X96171428Y-52492380D01*
X95552380Y-52492380D01*
X95123809Y-52397142D02*
X95076190Y-52444761D01*
X95123809Y-52492380D01*
X95171428Y-52444761D01*
X95123809Y-52397142D01*
X95123809Y-52492380D01*
X95123809Y-51873333D02*
X95076190Y-51920952D01*
X95123809Y-51968571D01*
X95171428Y-51920952D01*
X95123809Y-51873333D01*
X95123809Y-51968571D01*
X101028571Y-53102380D02*
X101504761Y-53102380D01*
X101552380Y-53578571D01*
X101504761Y-53530952D01*
X101409523Y-53483333D01*
X101171428Y-53483333D01*
X101076190Y-53530952D01*
X101028571Y-53578571D01*
X100980952Y-53673809D01*
X100980952Y-53911904D01*
X101028571Y-54007142D01*
X101076190Y-54054761D01*
X101171428Y-54102380D01*
X101409523Y-54102380D01*
X101504761Y-54054761D01*
X101552380Y-54007142D01*
X100552380Y-54007142D02*
X100504761Y-54054761D01*
X100552380Y-54102380D01*
X100600000Y-54054761D01*
X100552380Y-54007142D01*
X100552380Y-54102380D01*
X100171428Y-53102380D02*
X99504761Y-53102380D01*
X99933333Y-54102380D01*
X98695238Y-53102380D02*
X98885714Y-53102380D01*
X98980952Y-53150000D01*
X99028571Y-53197619D01*
X99123809Y-53340476D01*
X99171428Y-53530952D01*
X99171428Y-53911904D01*
X99123809Y-54007142D01*
X99076190Y-54054761D01*
X98980952Y-54102380D01*
X98790476Y-54102380D01*
X98695238Y-54054761D01*
X98647619Y-54007142D01*
X98600000Y-53911904D01*
X98600000Y-53673809D01*
X98647619Y-53578571D01*
X98695238Y-53530952D01*
X98790476Y-53483333D01*
X98980952Y-53483333D01*
X99076190Y-53530952D01*
X99123809Y-53578571D01*
X99171428Y-53673809D01*
X98171428Y-54102380D02*
X98171428Y-53102380D01*
X98076190Y-53721428D02*
X97790476Y-54102380D01*
X97790476Y-53435714D02*
X98171428Y-53816666D01*
X97409523Y-54102380D02*
X97171428Y-54102380D01*
X97171428Y-53911904D01*
X97266666Y-53864285D01*
X97361904Y-53769047D01*
X97409523Y-53626190D01*
X97409523Y-53388095D01*
X97361904Y-53245238D01*
X97266666Y-53150000D01*
X97123809Y-53102380D01*
X96933333Y-53102380D01*
X96790476Y-53150000D01*
X96695238Y-53245238D01*
X96647619Y-53388095D01*
X96647619Y-53626190D01*
X96695238Y-53769047D01*
X96790476Y-53864285D01*
X96885714Y-53911904D01*
X96885714Y-54102380D01*
X96647619Y-54102380D01*
X95457142Y-53578571D02*
X94695238Y-53578571D01*
X94695238Y-53864285D02*
X95457142Y-53864285D01*
X93552380Y-53102380D02*
X92933333Y-53102380D01*
X93266666Y-53483333D01*
X93123809Y-53483333D01*
X93028571Y-53530952D01*
X92980952Y-53578571D01*
X92933333Y-53673809D01*
X92933333Y-53911904D01*
X92980952Y-54007142D01*
X93028571Y-54054761D01*
X93123809Y-54102380D01*
X93409523Y-54102380D01*
X93504761Y-54054761D01*
X93552380Y-54007142D01*
X92504761Y-54007142D02*
X92457142Y-54054761D01*
X92504761Y-54102380D01*
X92552380Y-54054761D01*
X92504761Y-54007142D01*
X92504761Y-54102380D01*
X92123809Y-53102380D02*
X91504761Y-53102380D01*
X91838095Y-53483333D01*
X91695238Y-53483333D01*
X91600000Y-53530952D01*
X91552380Y-53578571D01*
X91504761Y-53673809D01*
X91504761Y-53911904D01*
X91552380Y-54007142D01*
X91600000Y-54054761D01*
X91695238Y-54102380D01*
X91980952Y-54102380D01*
X92076190Y-54054761D01*
X92123809Y-54007142D01*
X91219047Y-53102380D02*
X90885714Y-54102380D01*
X90552380Y-53102380D01*
X101647619Y-54712380D02*
X101028571Y-54712380D01*
X101361904Y-55093333D01*
X101219047Y-55093333D01*
X101123809Y-55140952D01*
X101076190Y-55188571D01*
X101028571Y-55283809D01*
X101028571Y-55521904D01*
X101076190Y-55617142D01*
X101123809Y-55664761D01*
X101219047Y-55712380D01*
X101504761Y-55712380D01*
X101600000Y-55664761D01*
X101647619Y-55617142D01*
X100600000Y-55617142D02*
X100552380Y-55664761D01*
X100600000Y-55712380D01*
X100647619Y-55664761D01*
X100600000Y-55617142D01*
X100600000Y-55712380D01*
X100171428Y-54807619D02*
X100123809Y-54760000D01*
X100028571Y-54712380D01*
X99790476Y-54712380D01*
X99695238Y-54760000D01*
X99647619Y-54807619D01*
X99600000Y-54902857D01*
X99600000Y-54998095D01*
X99647619Y-55140952D01*
X100219047Y-55712380D01*
X99600000Y-55712380D01*
X98742857Y-55045714D02*
X98742857Y-55712380D01*
X98980952Y-54664761D02*
X99219047Y-55379047D01*
X98600000Y-55379047D01*
X98219047Y-55712380D02*
X98219047Y-54712380D01*
X98123809Y-55331428D02*
X97838095Y-55712380D01*
X97838095Y-55045714D02*
X98219047Y-55426666D01*
X97457142Y-55712380D02*
X97219047Y-55712380D01*
X97219047Y-55521904D01*
X97314285Y-55474285D01*
X97409523Y-55379047D01*
X97457142Y-55236190D01*
X97457142Y-54998095D01*
X97409523Y-54855238D01*
X97314285Y-54760000D01*
X97171428Y-54712380D01*
X96980952Y-54712380D01*
X96838095Y-54760000D01*
X96742857Y-54855238D01*
X96695238Y-54998095D01*
X96695238Y-55236190D01*
X96742857Y-55379047D01*
X96838095Y-55474285D01*
X96933333Y-55521904D01*
X96933333Y-55712380D01*
X96695238Y-55712380D01*
X95504761Y-55188571D02*
X94742857Y-55188571D01*
X94742857Y-55474285D02*
X95504761Y-55474285D01*
X93028571Y-54712380D02*
X93504761Y-54712380D01*
X93552380Y-55188571D01*
X93504761Y-55140952D01*
X93409523Y-55093333D01*
X93171428Y-55093333D01*
X93076190Y-55140952D01*
X93028571Y-55188571D01*
X92980952Y-55283809D01*
X92980952Y-55521904D01*
X93028571Y-55617142D01*
X93076190Y-55664761D01*
X93171428Y-55712380D01*
X93409523Y-55712380D01*
X93504761Y-55664761D01*
X93552380Y-55617142D01*
X92695238Y-54712380D02*
X92361904Y-55712380D01*
X92028571Y-54712380D01*
X100980952Y-57322380D02*
X101552380Y-57322380D01*
X101266666Y-57322380D02*
X101266666Y-56322380D01*
X101361904Y-56465238D01*
X101457142Y-56560476D01*
X101552380Y-56608095D01*
X100552380Y-57227142D02*
X100504761Y-57274761D01*
X100552380Y-57322380D01*
X100600000Y-57274761D01*
X100552380Y-57227142D01*
X100552380Y-57322380D01*
X100028571Y-57322380D02*
X99838095Y-57322380D01*
X99742857Y-57274761D01*
X99695238Y-57227142D01*
X99600000Y-57084285D01*
X99552380Y-56893809D01*
X99552380Y-56512857D01*
X99600000Y-56417619D01*
X99647619Y-56370000D01*
X99742857Y-56322380D01*
X99933333Y-56322380D01*
X100028571Y-56370000D01*
X100076190Y-56417619D01*
X100123809Y-56512857D01*
X100123809Y-56750952D01*
X100076190Y-56846190D01*
X100028571Y-56893809D01*
X99933333Y-56941428D01*
X99742857Y-56941428D01*
X99647619Y-56893809D01*
X99600000Y-56846190D01*
X99552380Y-56750952D01*
X98695238Y-56322380D02*
X98885714Y-56322380D01*
X98980952Y-56370000D01*
X99028571Y-56417619D01*
X99123809Y-56560476D01*
X99171428Y-56750952D01*
X99171428Y-57131904D01*
X99123809Y-57227142D01*
X99076190Y-57274761D01*
X98980952Y-57322380D01*
X98790476Y-57322380D01*
X98695238Y-57274761D01*
X98647619Y-57227142D01*
X98600000Y-57131904D01*
X98600000Y-56893809D01*
X98647619Y-56798571D01*
X98695238Y-56750952D01*
X98790476Y-56703333D01*
X98980952Y-56703333D01*
X99076190Y-56750952D01*
X99123809Y-56798571D01*
X99171428Y-56893809D01*
X98171428Y-57322380D02*
X98171428Y-56322380D01*
X98076190Y-56941428D02*
X97790476Y-57322380D01*
X97790476Y-56655714D02*
X98171428Y-57036666D01*
X97409523Y-57322380D02*
X97171428Y-57322380D01*
X97171428Y-57131904D01*
X97266666Y-57084285D01*
X97361904Y-56989047D01*
X97409523Y-56846190D01*
X97409523Y-56608095D01*
X97361904Y-56465238D01*
X97266666Y-56370000D01*
X97123809Y-56322380D01*
X96933333Y-56322380D01*
X96790476Y-56370000D01*
X96695238Y-56465238D01*
X96647619Y-56608095D01*
X96647619Y-56846190D01*
X96695238Y-56989047D01*
X96790476Y-57084285D01*
X96885714Y-57131904D01*
X96885714Y-57322380D01*
X96647619Y-57322380D01*
X95457142Y-56798571D02*
X94695238Y-56798571D01*
X94695238Y-57084285D02*
X95457142Y-57084285D01*
X93552380Y-56322380D02*
X92885714Y-56322380D01*
X93314285Y-57322380D01*
X92504761Y-57227142D02*
X92457142Y-57274761D01*
X92504761Y-57322380D01*
X92552380Y-57274761D01*
X92504761Y-57227142D01*
X92504761Y-57322380D01*
X91600000Y-56655714D02*
X91600000Y-57322380D01*
X91838095Y-56274761D02*
X92076190Y-56989047D01*
X91457142Y-56989047D01*
X91219047Y-56322380D02*
X90885714Y-57322380D01*
X90552380Y-56322380D01*
X100980952Y-58932380D02*
X101552380Y-58932380D01*
X101266666Y-58932380D02*
X101266666Y-57932380D01*
X101361904Y-58075238D01*
X101457142Y-58170476D01*
X101552380Y-58218095D01*
X100552380Y-58837142D02*
X100504761Y-58884761D01*
X100552380Y-58932380D01*
X100600000Y-58884761D01*
X100552380Y-58837142D01*
X100552380Y-58932380D01*
X99600000Y-57932380D02*
X100076190Y-57932380D01*
X100123809Y-58408571D01*
X100076190Y-58360952D01*
X99980952Y-58313333D01*
X99742857Y-58313333D01*
X99647619Y-58360952D01*
X99600000Y-58408571D01*
X99552380Y-58503809D01*
X99552380Y-58741904D01*
X99600000Y-58837142D01*
X99647619Y-58884761D01*
X99742857Y-58932380D01*
X99980952Y-58932380D01*
X100076190Y-58884761D01*
X100123809Y-58837142D01*
X98695238Y-58265714D02*
X98695238Y-58932380D01*
X98933333Y-57884761D02*
X99171428Y-58599047D01*
X98552380Y-58599047D01*
X98171428Y-58932380D02*
X98171428Y-57932380D01*
X98076190Y-58551428D02*
X97790476Y-58932380D01*
X97790476Y-58265714D02*
X98171428Y-58646666D01*
X97409523Y-58932380D02*
X97171428Y-58932380D01*
X97171428Y-58741904D01*
X97266666Y-58694285D01*
X97361904Y-58599047D01*
X97409523Y-58456190D01*
X97409523Y-58218095D01*
X97361904Y-58075238D01*
X97266666Y-57980000D01*
X97123809Y-57932380D01*
X96933333Y-57932380D01*
X96790476Y-57980000D01*
X96695238Y-58075238D01*
X96647619Y-58218095D01*
X96647619Y-58456190D01*
X96695238Y-58599047D01*
X96790476Y-58694285D01*
X96885714Y-58741904D01*
X96885714Y-58932380D01*
X96647619Y-58932380D01*
X95457142Y-58408571D02*
X94695238Y-58408571D01*
X94695238Y-58694285D02*
X95457142Y-58694285D01*
X93409523Y-58932380D02*
X93219047Y-58932380D01*
X93123809Y-58884761D01*
X93076190Y-58837142D01*
X92980952Y-58694285D01*
X92933333Y-58503809D01*
X92933333Y-58122857D01*
X92980952Y-58027619D01*
X93028571Y-57980000D01*
X93123809Y-57932380D01*
X93314285Y-57932380D01*
X93409523Y-57980000D01*
X93457142Y-58027619D01*
X93504761Y-58122857D01*
X93504761Y-58360952D01*
X93457142Y-58456190D01*
X93409523Y-58503809D01*
X93314285Y-58551428D01*
X93123809Y-58551428D01*
X93028571Y-58503809D01*
X92980952Y-58456190D01*
X92933333Y-58360952D01*
X92504761Y-58837142D02*
X92457142Y-58884761D01*
X92504761Y-58932380D01*
X92552380Y-58884761D01*
X92504761Y-58837142D01*
X92504761Y-58932380D01*
X92076190Y-58027619D02*
X92028571Y-57980000D01*
X91933333Y-57932380D01*
X91695238Y-57932380D01*
X91600000Y-57980000D01*
X91552380Y-58027619D01*
X91504761Y-58122857D01*
X91504761Y-58218095D01*
X91552380Y-58360952D01*
X92123809Y-58932380D01*
X91504761Y-58932380D01*
X91219047Y-57932380D02*
X90885714Y-58932380D01*
X90552380Y-57932380D01*
D10*
X99250476Y-41183714D02*
X98869523Y-41183714D01*
X99060000Y-41374190D02*
X99060000Y-40993238D01*
X96616476Y-41183714D02*
X96235523Y-41183714D01*
X122378571Y-59176190D02*
X122378571Y-58676190D01*
X122211904Y-59033333D01*
X122045238Y-58676190D01*
X122045238Y-59176190D01*
X121521428Y-59128571D02*
X121545238Y-59152380D01*
X121616666Y-59176190D01*
X121664285Y-59176190D01*
X121735714Y-59152380D01*
X121783333Y-59104761D01*
X121807142Y-59057142D01*
X121830952Y-58961904D01*
X121830952Y-58890476D01*
X121807142Y-58795238D01*
X121783333Y-58747619D01*
X121735714Y-58700000D01*
X121664285Y-58676190D01*
X121616666Y-58676190D01*
X121545238Y-58700000D01*
X121521428Y-58723809D01*
X121307142Y-58676190D02*
X121307142Y-59080952D01*
X121283333Y-59128571D01*
X121259523Y-59152380D01*
X121211904Y-59176190D01*
X121116666Y-59176190D01*
X121069047Y-59152380D01*
X121045238Y-59128571D01*
X121021428Y-59080952D01*
X121021428Y-58676190D01*
X91536476Y-41183714D02*
X91155523Y-41183714D01*
X124555952Y-58675000D02*
X124603571Y-58651190D01*
X124675000Y-58651190D01*
X124746428Y-58675000D01*
X124794047Y-58722619D01*
X124817857Y-58770238D01*
X124841666Y-58865476D01*
X124841666Y-58936904D01*
X124817857Y-59032142D01*
X124794047Y-59079761D01*
X124746428Y-59127380D01*
X124675000Y-59151190D01*
X124627380Y-59151190D01*
X124555952Y-59127380D01*
X124532142Y-59103571D01*
X124532142Y-58936904D01*
X124627380Y-58936904D01*
X124317857Y-59151190D02*
X124317857Y-58651190D01*
X124032142Y-59151190D01*
X124032142Y-58651190D01*
X123794047Y-59151190D02*
X123794047Y-58651190D01*
X123675000Y-58651190D01*
X123603571Y-58675000D01*
X123555952Y-58722619D01*
X123532142Y-58770238D01*
X123508333Y-58865476D01*
X123508333Y-58936904D01*
X123532142Y-59032142D01*
X123555952Y-59079761D01*
X123603571Y-59127380D01*
X123675000Y-59151190D01*
X123794047Y-59151190D01*
X93916476Y-62519714D02*
X93535523Y-62519714D01*
X93726000Y-62710190D02*
X93726000Y-62329238D01*
%LPC*%
D13*
X86800000Y-60500000D03*
D14*
X86900000Y-53500000D03*
D15*
X86900000Y-56040000D03*
D14*
X98860000Y-43140000D03*
D15*
X96320000Y-43140000D03*
X93780000Y-43140000D03*
X91240000Y-43140000D03*
D16*
X126375000Y-54725000D03*
D17*
X122875000Y-54725000D03*
D13*
X126150000Y-42000000D03*
D14*
X98860000Y-60920000D03*
D15*
X96320000Y-60920000D03*
X93780000Y-60920000D03*
X91240000Y-60920000D03*
X121720000Y-60920000D03*
X124260000Y-60920000D03*
D14*
X126800000Y-60920000D03*
M02*
