%TF.GenerationSoftware,KiCad,Pcbnew,(6.0.8)*%
%TF.CreationDate,2022-12-06T01:45:32+01:00*%
%TF.ProjectId,Single-DCDC-Converter-Rev2,53696e67-6c65-42d4-9443-44432d436f6e,rev?*%
%TF.SameCoordinates,Original*%
%TF.FileFunction,Drillmap*%
%TF.FilePolarity,Positive*%
%FSLAX45Y45*%
G04 Gerber Fmt 4.5, Leading zero omitted, Abs format (unit mm)*
G04 Created by KiCad (PCBNEW (6.0.8)) date 2022-12-06 01:45:32*
%MOMM*%
%LPD*%
G01*
G04 APERTURE LIST*
%ADD10C,0.100000*%
%ADD11C,0.200000*%
G04 APERTURE END LIST*
D10*
X8400000Y-6320000D02*
X12900000Y-6320000D01*
X12900000Y-6320000D02*
X12900000Y-3920000D01*
X12900000Y-3920000D02*
X8400000Y-3920000D01*
X8400000Y-3920000D02*
X8400000Y-6320000D01*
D11*
X8652619Y-6635476D02*
X8652619Y-6435476D01*
X8700238Y-6435476D01*
X8728810Y-6445000D01*
X8747857Y-6464048D01*
X8757381Y-6483095D01*
X8766905Y-6521190D01*
X8766905Y-6549762D01*
X8757381Y-6587857D01*
X8747857Y-6606905D01*
X8728810Y-6625952D01*
X8700238Y-6635476D01*
X8652619Y-6635476D01*
X8852619Y-6635476D02*
X8852619Y-6502143D01*
X8852619Y-6540238D02*
X8862143Y-6521190D01*
X8871667Y-6511667D01*
X8890714Y-6502143D01*
X8909762Y-6502143D01*
X8976429Y-6635476D02*
X8976429Y-6502143D01*
X8976429Y-6435476D02*
X8966905Y-6445000D01*
X8976429Y-6454524D01*
X8985952Y-6445000D01*
X8976429Y-6435476D01*
X8976429Y-6454524D01*
X9100238Y-6635476D02*
X9081190Y-6625952D01*
X9071667Y-6606905D01*
X9071667Y-6435476D01*
X9205000Y-6635476D02*
X9185952Y-6625952D01*
X9176429Y-6606905D01*
X9176429Y-6435476D01*
X9433571Y-6635476D02*
X9433571Y-6435476D01*
X9500238Y-6578333D01*
X9566905Y-6435476D01*
X9566905Y-6635476D01*
X9747857Y-6635476D02*
X9747857Y-6530714D01*
X9738333Y-6511667D01*
X9719286Y-6502143D01*
X9681190Y-6502143D01*
X9662143Y-6511667D01*
X9747857Y-6625952D02*
X9728810Y-6635476D01*
X9681190Y-6635476D01*
X9662143Y-6625952D01*
X9652619Y-6606905D01*
X9652619Y-6587857D01*
X9662143Y-6568809D01*
X9681190Y-6559286D01*
X9728810Y-6559286D01*
X9747857Y-6549762D01*
X9843095Y-6502143D02*
X9843095Y-6702143D01*
X9843095Y-6511667D02*
X9862143Y-6502143D01*
X9900238Y-6502143D01*
X9919286Y-6511667D01*
X9928810Y-6521190D01*
X9938333Y-6540238D01*
X9938333Y-6597381D01*
X9928810Y-6616428D01*
X9919286Y-6625952D01*
X9900238Y-6635476D01*
X9862143Y-6635476D01*
X9843095Y-6625952D01*
X10024048Y-6616428D02*
X10033571Y-6625952D01*
X10024048Y-6635476D01*
X10014524Y-6625952D01*
X10024048Y-6616428D01*
X10024048Y-6635476D01*
X10024048Y-6511667D02*
X10033571Y-6521190D01*
X10024048Y-6530714D01*
X10014524Y-6521190D01*
X10024048Y-6511667D01*
X10024048Y-6530714D01*
M02*
