M48
; DRILL file {KiCad (6.0.8)} date Tue Dec  6 01:45:15 2022
; FORMAT={-:-/ absolute / metric / decimal}
; #@! TF.CreationDate,2022-12-06T01:45:15+01:00
; #@! TF.GenerationSoftware,Kicad,Pcbnew,(6.0.8)
; #@! TF.FileFunction,Plated,1,4,PTH
FMAT,2
METRIC
; #@! TA.AperFunction,Plated,PTH,ComponentDrill
T1C0.300
; #@! TA.AperFunction,Plated,PTH,ViaDrill
T2C0.400
; #@! TA.AperFunction,Plated,PTH,ComponentDrill
T3C0.800
; #@! TA.AperFunction,Plated,PTH,ComponentDrill
T4C1.000
; #@! TA.AperFunction,Plated,PTH,ComponentDrill
T5C2.500
%
G90
G05
T1
X106.05Y-47.15
X106.05Y-48.45
X106.05Y-49.75
X106.05Y-51.05
X107.35Y-47.15
X107.35Y-48.45
X107.35Y-49.75
X107.35Y-51.05
T2
X89.2Y-57.4
X89.9Y-58.3
X91.9Y-45.7
X91.9Y-47.4
X96.7Y-45.7
X96.7Y-47.4
X99.3Y-45.7
X101.6Y-46.2
X103.3Y-45.4
X114.4Y-42.0
X114.4Y-43.5
X115.45Y-44.9
X117.65Y-44.95
X118.9Y-42.0
X118.9Y-43.5
X119.71Y-55.778
X119.71Y-56.921
T3
X122.875Y-54.725
X126.375Y-54.725
T4
X86.9Y-53.5
X86.9Y-56.04
X91.24Y-43.14
X91.24Y-60.92
X93.78Y-43.14
X93.78Y-60.92
X96.32Y-43.14
X96.32Y-60.92
X98.86Y-43.14
X98.86Y-60.92
X121.72Y-60.92
X124.26Y-60.92
X126.8Y-60.92
T5
X86.8Y-60.5
X126.15Y-42.0
T0
M30
