%TF.GenerationSoftware,KiCad,Pcbnew,(6.0.8)*%
%TF.CreationDate,2022-12-06T01:44:10+01:00*%
%TF.ProjectId,Single-DCDC-Converter-Rev2,53696e67-6c65-42d4-9443-44432d436f6e,rev?*%
%TF.SameCoordinates,Original*%
%TF.FileFunction,Copper,L1,Top*%
%TF.FilePolarity,Positive*%
%FSLAX46Y46*%
G04 Gerber Fmt 4.6, Leading zero omitted, Abs format (unit mm)*
G04 Created by KiCad (PCBNEW (6.0.8)) date 2022-12-06 01:44:10*
%MOMM*%
%LPD*%
G01*
G04 APERTURE LIST*
G04 Aperture macros list*
%AMRoundRect*
0 Rectangle with rounded corners*
0 $1 Rounding radius*
0 $2 $3 $4 $5 $6 $7 $8 $9 X,Y pos of 4 corners*
0 Add a 4 corners polygon primitive as box body*
4,1,4,$2,$3,$4,$5,$6,$7,$8,$9,$2,$3,0*
0 Add four circle primitives for the rounded corners*
1,1,$1+$1,$2,$3*
1,1,$1+$1,$4,$5*
1,1,$1+$1,$6,$7*
1,1,$1+$1,$8,$9*
0 Add four rect primitives between the rounded corners*
20,1,$1+$1,$2,$3,$4,$5,0*
20,1,$1+$1,$4,$5,$6,$7,0*
20,1,$1+$1,$6,$7,$8,$9,0*
20,1,$1+$1,$8,$9,$2,$3,0*%
G04 Aperture macros list end*
%TA.AperFunction,ComponentPad*%
%ADD10C,5.000000*%
%TD*%
%TA.AperFunction,ComponentPad*%
%ADD11R,1.700000X1.700000*%
%TD*%
%TA.AperFunction,ComponentPad*%
%ADD12O,1.700000X1.700000*%
%TD*%
%TA.AperFunction,SMDPad,CuDef*%
%ADD13RoundRect,0.250000X0.475000X-0.337500X0.475000X0.337500X-0.475000X0.337500X-0.475000X-0.337500X0*%
%TD*%
%TA.AperFunction,SMDPad,CuDef*%
%ADD14RoundRect,0.250000X1.000000X-1.950000X1.000000X1.950000X-1.000000X1.950000X-1.000000X-1.950000X0*%
%TD*%
%TA.AperFunction,SMDPad,CuDef*%
%ADD15R,1.550000X0.600000*%
%TD*%
%TA.AperFunction,ComponentPad*%
%ADD16C,0.600000*%
%TD*%
%TA.AperFunction,SMDPad,CuDef*%
%ADD17R,2.950000X4.900000*%
%TD*%
%TA.AperFunction,SMDPad,CuDef*%
%ADD18RoundRect,0.900000X-0.900000X1.850000X-0.900000X-1.850000X0.900000X-1.850000X0.900000X1.850000X0*%
%TD*%
%TA.AperFunction,SMDPad,CuDef*%
%ADD19RoundRect,0.900000X0.900000X-1.850000X0.900000X1.850000X-0.900000X1.850000X-0.900000X-1.850000X0*%
%TD*%
%TA.AperFunction,ComponentPad*%
%ADD20R,1.600000X1.600000*%
%TD*%
%TA.AperFunction,ComponentPad*%
%ADD21C,1.600000*%
%TD*%
%TA.AperFunction,SMDPad,CuDef*%
%ADD22R,2.500000X1.800000*%
%TD*%
%TA.AperFunction,SMDPad,CuDef*%
%ADD23R,1.000000X1.000000*%
%TD*%
%TA.AperFunction,SMDPad,CuDef*%
%ADD24RoundRect,0.250000X-0.350000X-0.450000X0.350000X-0.450000X0.350000X0.450000X-0.350000X0.450000X0*%
%TD*%
%TA.AperFunction,SMDPad,CuDef*%
%ADD25RoundRect,0.250000X0.350000X0.450000X-0.350000X0.450000X-0.350000X-0.450000X0.350000X-0.450000X0*%
%TD*%
%TA.AperFunction,ViaPad*%
%ADD26C,0.800000*%
%TD*%
%TA.AperFunction,Conductor*%
%ADD27C,1.500000*%
%TD*%
%TA.AperFunction,Conductor*%
%ADD28C,1.000000*%
%TD*%
%TA.AperFunction,Conductor*%
%ADD29C,1.200000*%
%TD*%
%TA.AperFunction,Conductor*%
%ADD30C,0.500000*%
%TD*%
%TA.AperFunction,Conductor*%
%ADD31C,1.100000*%
%TD*%
%TA.AperFunction,Conductor*%
%ADD32C,0.600000*%
%TD*%
G04 APERTURE END LIST*
D10*
X86800000Y-60500000D03*
D11*
X86900000Y-53500000D03*
D12*
X86900000Y-56040000D03*
D13*
X123800000Y-49337500D03*
X123800000Y-47262500D03*
X111500000Y-54462500D03*
X111500000Y-52387500D03*
X101600000Y-49737500D03*
X101600000Y-47662500D03*
D14*
X94200000Y-56000000D03*
X94200000Y-47600000D03*
D11*
X98860000Y-43140000D03*
D12*
X96320000Y-43140000D03*
X93780000Y-43140000D03*
X91240000Y-43140000D03*
D15*
X109400000Y-51005000D03*
X109400000Y-49735000D03*
X109400000Y-48465000D03*
X109400000Y-47195000D03*
X104000000Y-47195000D03*
X104000000Y-48465000D03*
X104000000Y-49735000D03*
X104000000Y-51005000D03*
D16*
X106050000Y-51050000D03*
X107350000Y-48450000D03*
X106050000Y-49750000D03*
X107350000Y-47150000D03*
D17*
X106700000Y-49100000D03*
D16*
X107350000Y-49750000D03*
X106050000Y-48450000D03*
X107350000Y-51050000D03*
X106050000Y-47150000D03*
D18*
X116115000Y-59075000D03*
D19*
X110835000Y-59075000D03*
D20*
X126375000Y-54725000D03*
D21*
X122875000Y-54725000D03*
D22*
X103700000Y-54500000D03*
X107700000Y-54500000D03*
D23*
X104000000Y-57400000D03*
D10*
X126150000Y-42000000D03*
D14*
X116650000Y-50100000D03*
X116650000Y-41700000D03*
D24*
X108000000Y-42600000D03*
X110000000Y-42600000D03*
D11*
X98860000Y-60920000D03*
D12*
X96320000Y-60920000D03*
X93780000Y-60920000D03*
X91240000Y-60920000D03*
X121720000Y-60920000D03*
X124260000Y-60920000D03*
D11*
X126800000Y-60920000D03*
D25*
X110000000Y-44600000D03*
X108000000Y-44600000D03*
D26*
X89900000Y-58300000D03*
X89200000Y-57400000D03*
X119710200Y-55778400D03*
X91900000Y-45700000D03*
X96700000Y-45700000D03*
X91900000Y-47400000D03*
X118900000Y-42000000D03*
X117650000Y-44950000D03*
X101600000Y-46200000D03*
X115450000Y-44900000D03*
X114400000Y-43500000D03*
X99300000Y-45700000D03*
X119710200Y-56921400D03*
X96700000Y-47400000D03*
X118900000Y-43500000D03*
X114400000Y-42000000D03*
X103300000Y-45400000D03*
D27*
X98860000Y-41260000D02*
X98860000Y-43140000D01*
X93100000Y-40700000D02*
X98300000Y-40700000D01*
X88750000Y-41200000D02*
X89250000Y-40700000D01*
X93780000Y-41380000D02*
X93780000Y-43140000D01*
X94200000Y-56000000D02*
X97000000Y-56000000D01*
X94200000Y-56000000D02*
X88750000Y-50550000D01*
X93100000Y-40700000D02*
X93780000Y-41380000D01*
X88750000Y-50550000D02*
X88750000Y-41200000D01*
X93780000Y-60920000D02*
X93780000Y-56420000D01*
X98860000Y-57860000D02*
X98860000Y-60920000D01*
D28*
X93780000Y-56420000D02*
X94200000Y-56000000D01*
D27*
X89250000Y-40700000D02*
X93100000Y-40700000D01*
X97000000Y-56000000D02*
X98860000Y-57860000D01*
X98300000Y-40700000D02*
X98860000Y-41260000D01*
X116600000Y-58840000D02*
X116600000Y-51120000D01*
D28*
X126637500Y-60757500D02*
X126800000Y-60920000D01*
X117150000Y-49600000D02*
X124200000Y-49600000D01*
X124200000Y-49600000D02*
X126637500Y-52037500D01*
X126637500Y-52037500D02*
X126637500Y-60757500D01*
X116650000Y-50100000D02*
X117150000Y-49600000D01*
D27*
X116600000Y-51120000D02*
X116140000Y-50660000D01*
D29*
X112300000Y-44700000D02*
X116700000Y-49100000D01*
D27*
X116140000Y-59300000D02*
X116600000Y-58840000D01*
D29*
X112300000Y-44700000D02*
X110400000Y-44700000D01*
D30*
X103300000Y-45400000D02*
X104000000Y-46100000D01*
X104000000Y-46100000D02*
X104000000Y-47195000D01*
D31*
X111500000Y-54462500D02*
X111500000Y-58660000D01*
D32*
X109400000Y-51005000D02*
X110117500Y-51005000D01*
X110117500Y-51005000D02*
X111500000Y-52387500D01*
D30*
X109400000Y-47275000D02*
X109400000Y-46900000D01*
X108000000Y-45500000D02*
X108000000Y-44600000D01*
X108000000Y-44600000D02*
X108000000Y-42500000D01*
X109400000Y-46900000D02*
X108000000Y-45500000D01*
%TA.AperFunction,Conductor*%
G36*
X104658621Y-50918402D02*
G01*
X104705114Y-50972058D01*
X104716500Y-51024400D01*
X104716500Y-51598134D01*
X104723255Y-51660316D01*
X104726027Y-51667712D01*
X104726029Y-51667718D01*
X104766982Y-51776959D01*
X104775000Y-51821188D01*
X104775000Y-56286400D01*
X112167400Y-56286400D01*
X112235521Y-56306402D01*
X112282014Y-56360058D01*
X112293400Y-56412400D01*
X112293400Y-58268600D01*
X112273398Y-58336721D01*
X112219742Y-58383214D01*
X112167400Y-58394600D01*
X103250000Y-58394600D01*
X103181879Y-58374598D01*
X103135386Y-58320942D01*
X103124000Y-58268600D01*
X103124000Y-51024400D01*
X103144002Y-50956279D01*
X103197658Y-50909786D01*
X103250000Y-50898400D01*
X104590500Y-50898400D01*
X104658621Y-50918402D01*
G37*
%TD.AperFunction*%
%TA.AperFunction,Conductor*%
G36*
X128433621Y-39728502D02*
G01*
X128480114Y-39782158D01*
X128491500Y-39834500D01*
X128491500Y-62565500D01*
X128471498Y-62633621D01*
X128417842Y-62680114D01*
X128365500Y-62691500D01*
X85026000Y-62691500D01*
X84957879Y-62671498D01*
X84911386Y-62617842D01*
X84900000Y-62565500D01*
X84900000Y-56939500D01*
X84920002Y-56871379D01*
X84973658Y-56824886D01*
X85026000Y-56813500D01*
X85420688Y-56813500D01*
X85424478Y-56813037D01*
X85424482Y-56813037D01*
X85540432Y-56798880D01*
X85540435Y-56798879D01*
X85544239Y-56798415D01*
X85603092Y-56783826D01*
X85606675Y-56782459D01*
X85606678Y-56782458D01*
X85711604Y-56742424D01*
X85711606Y-56742423D01*
X85719395Y-56739451D01*
X85726135Y-56734549D01*
X85726137Y-56734548D01*
X85833958Y-56656131D01*
X85833961Y-56656128D01*
X85837597Y-56653484D01*
X85872832Y-56619208D01*
X85885263Y-56607116D01*
X85885268Y-56607110D01*
X85888487Y-56603979D01*
X85977678Y-56488201D01*
X86030641Y-56351977D01*
X86046689Y-56282818D01*
X86050517Y-56238009D01*
X86057380Y-56157649D01*
X86059128Y-56137190D01*
X86052926Y-56029623D01*
X86053431Y-56008986D01*
X86065997Y-55891410D01*
X86069866Y-55871128D01*
X86101462Y-55757196D01*
X86108591Y-55737818D01*
X86158372Y-55630573D01*
X86168571Y-55612619D01*
X86175358Y-55602670D01*
X86235204Y-55514938D01*
X86248194Y-55498898D01*
X86329890Y-55413408D01*
X86345319Y-55399709D01*
X86439884Y-55328708D01*
X86457349Y-55317711D01*
X86512241Y-55289136D01*
X86562224Y-55263117D01*
X86581257Y-55255115D01*
X86693657Y-55218376D01*
X86713733Y-55213594D01*
X86830614Y-55195710D01*
X86851200Y-55194269D01*
X86910327Y-55194991D01*
X86969448Y-55195714D01*
X86990004Y-55197658D01*
X87106392Y-55218390D01*
X87126356Y-55223664D01*
X87237823Y-55263137D01*
X87256656Y-55271601D01*
X87360161Y-55328738D01*
X87377360Y-55340165D01*
X87470152Y-55413448D01*
X87485253Y-55427529D01*
X87564835Y-55514989D01*
X87577428Y-55531343D01*
X87641650Y-55630615D01*
X87651407Y-55648812D01*
X87698557Y-55757249D01*
X87705212Y-55776795D01*
X87731415Y-55881113D01*
X87734015Y-55891465D01*
X87737387Y-55911835D01*
X87747072Y-56029629D01*
X87748528Y-56047341D01*
X87747874Y-56074108D01*
X87745713Y-56090524D01*
X87746989Y-56233653D01*
X87749575Y-56250909D01*
X87756214Y-56295211D01*
X87757297Y-56302441D01*
X87798031Y-56439657D01*
X87802852Y-56447158D01*
X87802853Y-56447161D01*
X87829228Y-56488201D01*
X87877049Y-56562612D01*
X87923542Y-56616268D01*
X87926935Y-56619208D01*
X88027191Y-56706081D01*
X88027194Y-56706083D01*
X88034002Y-56711982D01*
X88166951Y-56772698D01*
X88190705Y-56779673D01*
X88230749Y-56791431D01*
X88230753Y-56791432D01*
X88235072Y-56792700D01*
X88239521Y-56793340D01*
X88239527Y-56793341D01*
X88375294Y-56812861D01*
X88375299Y-56812861D01*
X88379741Y-56813500D01*
X92315500Y-56813500D01*
X92383621Y-56833502D01*
X92430114Y-56887158D01*
X92441500Y-56939500D01*
X92441500Y-58000400D01*
X92452474Y-58106166D01*
X92508450Y-58273946D01*
X92510089Y-58276594D01*
X92521500Y-58327856D01*
X92521500Y-60376651D01*
X92509787Y-60429702D01*
X92502869Y-60444605D01*
X92502867Y-60444610D01*
X92500688Y-60449305D01*
X92440989Y-60664570D01*
X92417251Y-60886695D01*
X92417548Y-60891848D01*
X92417548Y-60891851D01*
X92423011Y-60986590D01*
X92430110Y-61109715D01*
X92431247Y-61114761D01*
X92431248Y-61114767D01*
X92451119Y-61202939D01*
X92479222Y-61327639D01*
X92515974Y-61418149D01*
X92556791Y-61518669D01*
X92563266Y-61534616D01*
X92679987Y-61725088D01*
X92826250Y-61893938D01*
X92998126Y-62036632D01*
X93191000Y-62149338D01*
X93399692Y-62229030D01*
X93404760Y-62230061D01*
X93404763Y-62230062D01*
X93512017Y-62251883D01*
X93618597Y-62273567D01*
X93623772Y-62273757D01*
X93623774Y-62273757D01*
X93836673Y-62281564D01*
X93836677Y-62281564D01*
X93841837Y-62281753D01*
X93846957Y-62281097D01*
X93846959Y-62281097D01*
X94058288Y-62254025D01*
X94058289Y-62254025D01*
X94063416Y-62253368D01*
X94068366Y-62251883D01*
X94272429Y-62190661D01*
X94272434Y-62190659D01*
X94277384Y-62189174D01*
X94477994Y-62090896D01*
X94659860Y-61961173D01*
X94700688Y-61920488D01*
X94805272Y-61816268D01*
X94818096Y-61803489D01*
X94877594Y-61720689D01*
X94945435Y-61626277D01*
X94948453Y-61622077D01*
X94963871Y-61590882D01*
X95045136Y-61426453D01*
X95045137Y-61426451D01*
X95047430Y-61421811D01*
X95112370Y-61208069D01*
X95141529Y-60986590D01*
X95143156Y-60920000D01*
X95124852Y-60697361D01*
X95098214Y-60591310D01*
X95071689Y-60485709D01*
X95071688Y-60485705D01*
X95070431Y-60480702D01*
X95068375Y-60475973D01*
X95068372Y-60475965D01*
X95048950Y-60431298D01*
X95038500Y-60381056D01*
X95038500Y-58834500D01*
X95058502Y-58766379D01*
X95112158Y-58719886D01*
X95164500Y-58708500D01*
X95250400Y-58708500D01*
X95253646Y-58708163D01*
X95253650Y-58708163D01*
X95349308Y-58698238D01*
X95349312Y-58698237D01*
X95356166Y-58697526D01*
X95362702Y-58695345D01*
X95362704Y-58695345D01*
X95516998Y-58643868D01*
X95523946Y-58641550D01*
X95674348Y-58548478D01*
X95799305Y-58423303D01*
X95803146Y-58417072D01*
X95888275Y-58278968D01*
X95888276Y-58278966D01*
X95892115Y-58272738D01*
X95947797Y-58104861D01*
X95958500Y-58000400D01*
X95958500Y-57384500D01*
X95978502Y-57316379D01*
X96032158Y-57269886D01*
X96084500Y-57258500D01*
X96426523Y-57258500D01*
X96494644Y-57278502D01*
X96515618Y-57295405D01*
X97564595Y-58344383D01*
X97598621Y-58406695D01*
X97601500Y-58433478D01*
X97601500Y-59725126D01*
X97581498Y-59793247D01*
X97576339Y-59800673D01*
X97559385Y-59823295D01*
X97508255Y-59959684D01*
X97501500Y-60021866D01*
X97501500Y-61818134D01*
X97508255Y-61880316D01*
X97559385Y-62016705D01*
X97646739Y-62133261D01*
X97763295Y-62220615D01*
X97899684Y-62271745D01*
X97961866Y-62278500D01*
X99758134Y-62278500D01*
X99820316Y-62271745D01*
X99956705Y-62220615D01*
X100073261Y-62133261D01*
X100160615Y-62016705D01*
X100211745Y-61880316D01*
X100218500Y-61818134D01*
X100218500Y-60021866D01*
X100211745Y-59959684D01*
X100160615Y-59823295D01*
X100143673Y-59800689D01*
X100118826Y-59734185D01*
X100118500Y-59725126D01*
X100118500Y-57951395D01*
X100119578Y-57934948D01*
X100121746Y-57918483D01*
X100121746Y-57918479D01*
X100122479Y-57912913D01*
X100118640Y-57831511D01*
X100118500Y-57825576D01*
X100118500Y-57803001D01*
X100116181Y-57777011D01*
X100115822Y-57771749D01*
X100112160Y-57694113D01*
X100111896Y-57688512D01*
X100107892Y-57671030D01*
X100105211Y-57654100D01*
X100104116Y-57641832D01*
X100103617Y-57636238D01*
X100081630Y-57555867D01*
X100080344Y-57550749D01*
X100062995Y-57475000D01*
X100062994Y-57474998D01*
X100061742Y-57469530D01*
X100054706Y-57453033D01*
X100049073Y-57436858D01*
X100045818Y-57424961D01*
X100045817Y-57424957D01*
X100044337Y-57419549D01*
X100008461Y-57344333D01*
X100006290Y-57339524D01*
X99975804Y-57268051D01*
X99975804Y-57268050D01*
X99973603Y-57262891D01*
X99963749Y-57247890D01*
X99955343Y-57232970D01*
X99950035Y-57221841D01*
X99947622Y-57216782D01*
X99944354Y-57212234D01*
X99944351Y-57212229D01*
X99898998Y-57149114D01*
X99896009Y-57144765D01*
X99886952Y-57130977D01*
X99850265Y-57075125D01*
X99831747Y-57054341D01*
X99823498Y-57044045D01*
X99819804Y-57038904D01*
X99816529Y-57034346D01*
X99812502Y-57030443D01*
X99812498Y-57030439D01*
X99812026Y-57029982D01*
X99811879Y-57029722D01*
X99808831Y-57026191D01*
X99809534Y-57025584D01*
X99777028Y-56968211D01*
X99780981Y-56897324D01*
X99822632Y-56839828D01*
X99888755Y-56813977D01*
X99899713Y-56813500D01*
X100174000Y-56813500D01*
X100177346Y-56813140D01*
X100177351Y-56813140D01*
X100279785Y-56802128D01*
X100279792Y-56802127D01*
X100283149Y-56801766D01*
X100286450Y-56801048D01*
X100332210Y-56791094D01*
X100332215Y-56791093D01*
X100335491Y-56790380D01*
X100439657Y-56755710D01*
X100562612Y-56676692D01*
X100616268Y-56630199D01*
X100631279Y-56612875D01*
X100706081Y-56526550D01*
X100706083Y-56526547D01*
X100711982Y-56519739D01*
X100772698Y-56386790D01*
X100782920Y-56351977D01*
X100791431Y-56322992D01*
X100791432Y-56322988D01*
X100792700Y-56318669D01*
X100795034Y-56302441D01*
X100812861Y-56178447D01*
X100812861Y-56178442D01*
X100813500Y-56174000D01*
X100813500Y-50944326D01*
X100833502Y-50876205D01*
X100887158Y-50829712D01*
X100957432Y-50819608D01*
X100964146Y-50820809D01*
X100970139Y-50822797D01*
X100976979Y-50823498D01*
X100976980Y-50823498D01*
X100994430Y-50825286D01*
X101074600Y-50833500D01*
X102125400Y-50833500D01*
X102128646Y-50833163D01*
X102128650Y-50833163D01*
X102161908Y-50829712D01*
X102231166Y-50822526D01*
X102238807Y-50819977D01*
X102241226Y-50819584D01*
X102244443Y-50818889D01*
X102244479Y-50819055D01*
X102278683Y-50813500D01*
X102495411Y-50813500D01*
X102563532Y-50833502D01*
X102610025Y-50887158D01*
X102620128Y-50957432D01*
X102611140Y-51019941D01*
X102611139Y-51019956D01*
X102610500Y-51024400D01*
X102610500Y-52965500D01*
X102590498Y-53033621D01*
X102536842Y-53080114D01*
X102484500Y-53091500D01*
X102401866Y-53091500D01*
X102339684Y-53098255D01*
X102203295Y-53149385D01*
X102086739Y-53236739D01*
X101999385Y-53353295D01*
X101948255Y-53489684D01*
X101941500Y-53551866D01*
X101941500Y-55448134D01*
X101948255Y-55510316D01*
X101999385Y-55646705D01*
X102086739Y-55763261D01*
X102203295Y-55850615D01*
X102339684Y-55901745D01*
X102401866Y-55908500D01*
X102484500Y-55908500D01*
X102552621Y-55928502D01*
X102599114Y-55982158D01*
X102610500Y-56034500D01*
X102610500Y-58268600D01*
X102610860Y-58271946D01*
X102610860Y-58271951D01*
X102611615Y-58278968D01*
X102622234Y-58377749D01*
X102622952Y-58381049D01*
X102622952Y-58381050D01*
X102628531Y-58406695D01*
X102633620Y-58430091D01*
X102668290Y-58534257D01*
X102747308Y-58657212D01*
X102793801Y-58710868D01*
X102797194Y-58713808D01*
X102897450Y-58800681D01*
X102897453Y-58800683D01*
X102904261Y-58806582D01*
X103037210Y-58867298D01*
X103060964Y-58874273D01*
X103101008Y-58886031D01*
X103101012Y-58886032D01*
X103105331Y-58887300D01*
X103109780Y-58887940D01*
X103109786Y-58887941D01*
X103245553Y-58907461D01*
X103245558Y-58907461D01*
X103250000Y-58908100D01*
X108400500Y-58908100D01*
X108468621Y-58928102D01*
X108515114Y-58981758D01*
X108526500Y-59034100D01*
X108526501Y-60058401D01*
X108526501Y-61019022D01*
X108529676Y-61077667D01*
X108530514Y-61081960D01*
X108530515Y-61081965D01*
X108556109Y-61213023D01*
X108575490Y-61312267D01*
X108660177Y-61535793D01*
X108781314Y-61741855D01*
X108784756Y-61745936D01*
X108784758Y-61745938D01*
X108833307Y-61803489D01*
X108935440Y-61924560D01*
X108939512Y-61927995D01*
X109053190Y-62023891D01*
X109118145Y-62078686D01*
X109324207Y-62199823D01*
X109547733Y-62284510D01*
X109552962Y-62285531D01*
X109552965Y-62285532D01*
X109773118Y-62328524D01*
X109782333Y-62330324D01*
X109786691Y-62330560D01*
X109839289Y-62333409D01*
X109839304Y-62333409D01*
X109840977Y-62333500D01*
X110834414Y-62333500D01*
X111829022Y-62333499D01*
X111856520Y-62332010D01*
X111883297Y-62330561D01*
X111883303Y-62330560D01*
X111887667Y-62330324D01*
X111891960Y-62329486D01*
X111891965Y-62329485D01*
X112117035Y-62285532D01*
X112117038Y-62285531D01*
X112122267Y-62284510D01*
X112345793Y-62199823D01*
X112551855Y-62078686D01*
X112616811Y-62023891D01*
X112730488Y-61927995D01*
X112734560Y-61924560D01*
X112836693Y-61803489D01*
X112885242Y-61745938D01*
X112885244Y-61745936D01*
X112888686Y-61741855D01*
X113009823Y-61535793D01*
X113094510Y-61312267D01*
X113114859Y-61208069D01*
X113139487Y-61081953D01*
X113140324Y-61077667D01*
X113140674Y-61071197D01*
X113143409Y-61020711D01*
X113143409Y-61020696D01*
X113143500Y-61019023D01*
X113143499Y-57130978D01*
X113142010Y-57103480D01*
X113140561Y-57076703D01*
X113140560Y-57076691D01*
X113140324Y-57072333D01*
X113132054Y-57029982D01*
X113095532Y-56842965D01*
X113095531Y-56842962D01*
X113094510Y-56837733D01*
X113009823Y-56614207D01*
X112888686Y-56408145D01*
X112874124Y-56390882D01*
X112813582Y-56319115D01*
X112786771Y-56264656D01*
X112784498Y-56254209D01*
X112784497Y-56254206D01*
X112783780Y-56250909D01*
X112749110Y-56146743D01*
X112670092Y-56023788D01*
X112666190Y-56019284D01*
X112626539Y-55973525D01*
X112623599Y-55970132D01*
X112601987Y-55951405D01*
X112563604Y-55891679D01*
X112558500Y-55856181D01*
X112558500Y-55334658D01*
X112577240Y-55268542D01*
X112663275Y-55128968D01*
X112663276Y-55128966D01*
X112667115Y-55122738D01*
X112722797Y-54954861D01*
X112733500Y-54850400D01*
X112733500Y-54074600D01*
X112722526Y-53968834D01*
X112666550Y-53801054D01*
X112573478Y-53650652D01*
X112448303Y-53525695D01*
X112444084Y-53523094D01*
X112403583Y-53465970D01*
X112400351Y-53395047D01*
X112435976Y-53333635D01*
X112443530Y-53327078D01*
X112449348Y-53323478D01*
X112574305Y-53198303D01*
X112626579Y-53113500D01*
X112663275Y-53053968D01*
X112663276Y-53053966D01*
X112667115Y-53047738D01*
X112722797Y-52879861D01*
X112733500Y-52775400D01*
X112733500Y-51999600D01*
X112732845Y-51993288D01*
X112723238Y-51900692D01*
X112723237Y-51900688D01*
X112722526Y-51893834D01*
X112708670Y-51852301D01*
X112668868Y-51733002D01*
X112666550Y-51726054D01*
X112573478Y-51575652D01*
X112448303Y-51450695D01*
X112402916Y-51422718D01*
X112303968Y-51361725D01*
X112303966Y-51361724D01*
X112297738Y-51357885D01*
X112193883Y-51323438D01*
X112136389Y-51304368D01*
X112136387Y-51304368D01*
X112129861Y-51302203D01*
X112123025Y-51301503D01*
X112123022Y-51301502D01*
X112079969Y-51297091D01*
X112025400Y-51291500D01*
X111599582Y-51291500D01*
X111531461Y-51271498D01*
X111510486Y-51254595D01*
X110695687Y-50439795D01*
X110694760Y-50438858D01*
X110658262Y-50401588D01*
X110624891Y-50338923D01*
X110630303Y-50269201D01*
X110673971Y-50152718D01*
X110673973Y-50152712D01*
X110676745Y-50145316D01*
X110683500Y-50083134D01*
X110683500Y-49386866D01*
X110676745Y-49324684D01*
X110625615Y-49188295D01*
X110616074Y-49175565D01*
X110591226Y-49109061D01*
X110606278Y-49039678D01*
X110616070Y-49024441D01*
X110625615Y-49011705D01*
X110676745Y-48875316D01*
X110683500Y-48813134D01*
X110683500Y-48116866D01*
X110676745Y-48054684D01*
X110625615Y-47918295D01*
X110616074Y-47905565D01*
X110591226Y-47839061D01*
X110606278Y-47769678D01*
X110616070Y-47754441D01*
X110625615Y-47741705D01*
X110676745Y-47605316D01*
X110683500Y-47543134D01*
X110683500Y-46846866D01*
X110676745Y-46784684D01*
X110625615Y-46648295D01*
X110538261Y-46531739D01*
X110421705Y-46444385D01*
X110285316Y-46393255D01*
X110223134Y-46386500D01*
X110011371Y-46386500D01*
X109943250Y-46366498D01*
X109922276Y-46349595D01*
X109596276Y-46023595D01*
X109562250Y-45961283D01*
X109567315Y-45890468D01*
X109609862Y-45833632D01*
X109676382Y-45808821D01*
X109685371Y-45808500D01*
X111788655Y-45808500D01*
X111856776Y-45828502D01*
X111877750Y-45845405D01*
X113849595Y-47817251D01*
X113883621Y-47879563D01*
X113886500Y-47906346D01*
X113886500Y-56732815D01*
X113878327Y-56777456D01*
X113855490Y-56837733D01*
X113854469Y-56842962D01*
X113854468Y-56842965D01*
X113818805Y-57025584D01*
X113809676Y-57072333D01*
X113809440Y-57076691D01*
X113806592Y-57129286D01*
X113806500Y-57130977D01*
X113806501Y-61019022D01*
X113809676Y-61077667D01*
X113810514Y-61081960D01*
X113810515Y-61081965D01*
X113836109Y-61213023D01*
X113855490Y-61312267D01*
X113857379Y-61317252D01*
X113857379Y-61317253D01*
X113883795Y-61386977D01*
X113891246Y-61418149D01*
X113898234Y-61483149D01*
X113898952Y-61486449D01*
X113898952Y-61486450D01*
X113905961Y-61518669D01*
X113909620Y-61535491D01*
X113944290Y-61639657D01*
X114023308Y-61762612D01*
X114069801Y-61816268D01*
X114073194Y-61819208D01*
X114173448Y-61906079D01*
X114173450Y-61906080D01*
X114180261Y-61911982D01*
X114208752Y-61924994D01*
X114237647Y-61943293D01*
X114398145Y-62078686D01*
X114604207Y-62199823D01*
X114827733Y-62284510D01*
X114832962Y-62285531D01*
X114832965Y-62285532D01*
X115053118Y-62328524D01*
X115062333Y-62330324D01*
X115066691Y-62330560D01*
X115119289Y-62333409D01*
X115119304Y-62333409D01*
X115120977Y-62333500D01*
X116114414Y-62333500D01*
X117109022Y-62333499D01*
X117136520Y-62332010D01*
X117163297Y-62330561D01*
X117163303Y-62330560D01*
X117167667Y-62330324D01*
X117171960Y-62329486D01*
X117171965Y-62329485D01*
X117397035Y-62285532D01*
X117397038Y-62285531D01*
X117402267Y-62284510D01*
X117625793Y-62199823D01*
X117831855Y-62078686D01*
X117873931Y-62043191D01*
X117938898Y-62014556D01*
X117955176Y-62013500D01*
X118674000Y-62013500D01*
X118677346Y-62013140D01*
X118677351Y-62013140D01*
X118779785Y-62002128D01*
X118779792Y-62002127D01*
X118783149Y-62001766D01*
X118786450Y-62001048D01*
X118832210Y-61991094D01*
X118832215Y-61991093D01*
X118835491Y-61990380D01*
X118914236Y-61964171D01*
X118932182Y-61958198D01*
X118939657Y-61955710D01*
X119062612Y-61876692D01*
X119116268Y-61830199D01*
X119171888Y-61766010D01*
X119206081Y-61726550D01*
X119206083Y-61726547D01*
X119211982Y-61719739D01*
X119272698Y-61586790D01*
X119286322Y-61540390D01*
X119291431Y-61522992D01*
X119291432Y-61522988D01*
X119292700Y-61518669D01*
X119297333Y-61486450D01*
X119312861Y-61378447D01*
X119312861Y-61378442D01*
X119313500Y-61374000D01*
X119313500Y-60886695D01*
X120357251Y-60886695D01*
X120357548Y-60891848D01*
X120357548Y-60891851D01*
X120363011Y-60986590D01*
X120370110Y-61109715D01*
X120371247Y-61114761D01*
X120371248Y-61114767D01*
X120391119Y-61202939D01*
X120419222Y-61327639D01*
X120455974Y-61418149D01*
X120496791Y-61518669D01*
X120503266Y-61534616D01*
X120619987Y-61725088D01*
X120766250Y-61893938D01*
X120938126Y-62036632D01*
X121131000Y-62149338D01*
X121339692Y-62229030D01*
X121344760Y-62230061D01*
X121344763Y-62230062D01*
X121452017Y-62251883D01*
X121558597Y-62273567D01*
X121563772Y-62273757D01*
X121563774Y-62273757D01*
X121776673Y-62281564D01*
X121776677Y-62281564D01*
X121781837Y-62281753D01*
X121786957Y-62281097D01*
X121786959Y-62281097D01*
X121998288Y-62254025D01*
X121998289Y-62254025D01*
X122003416Y-62253368D01*
X122008366Y-62251883D01*
X122212429Y-62190661D01*
X122212434Y-62190659D01*
X122217384Y-62189174D01*
X122417994Y-62090896D01*
X122599860Y-61961173D01*
X122640688Y-61920488D01*
X122745272Y-61816268D01*
X122758096Y-61803489D01*
X122817594Y-61720689D01*
X122885435Y-61626277D01*
X122888453Y-61622077D01*
X122903871Y-61590882D01*
X122985136Y-61426453D01*
X122985137Y-61426451D01*
X122987430Y-61421811D01*
X123052370Y-61208069D01*
X123081529Y-60986590D01*
X123083156Y-60920000D01*
X123064852Y-60697361D01*
X123010431Y-60480702D01*
X122921354Y-60275840D01*
X122800014Y-60088277D01*
X122649670Y-59923051D01*
X122645619Y-59919852D01*
X122645615Y-59919848D01*
X122478414Y-59787800D01*
X122478410Y-59787798D01*
X122474359Y-59784598D01*
X122278789Y-59676638D01*
X122273920Y-59674914D01*
X122273916Y-59674912D01*
X122073087Y-59603795D01*
X122073083Y-59603794D01*
X122068212Y-59602069D01*
X122063119Y-59601162D01*
X122063116Y-59601161D01*
X121853373Y-59563800D01*
X121853367Y-59563799D01*
X121848284Y-59562894D01*
X121774452Y-59561992D01*
X121630081Y-59560228D01*
X121630079Y-59560228D01*
X121624911Y-59560165D01*
X121404091Y-59593955D01*
X121191756Y-59663357D01*
X120993607Y-59766507D01*
X120989474Y-59769610D01*
X120989471Y-59769612D01*
X120819100Y-59897530D01*
X120814965Y-59900635D01*
X120660629Y-60062138D01*
X120534743Y-60246680D01*
X120519003Y-60280590D01*
X120442870Y-60444605D01*
X120440688Y-60449305D01*
X120380989Y-60664570D01*
X120357251Y-60886695D01*
X119313500Y-60886695D01*
X119313500Y-56959441D01*
X119312797Y-56932575D01*
X119312557Y-56927982D01*
X119312557Y-56914818D01*
X119312755Y-56911026D01*
X119312797Y-56910225D01*
X119313500Y-56883359D01*
X119313500Y-55816441D01*
X119312797Y-55789575D01*
X119312557Y-55784982D01*
X119312557Y-55771818D01*
X119312755Y-55768026D01*
X119312797Y-55767225D01*
X119312947Y-55761514D01*
X119313479Y-55741155D01*
X119313500Y-55740359D01*
X119313500Y-53239500D01*
X119333502Y-53171379D01*
X119387158Y-53124886D01*
X119439500Y-53113500D01*
X120874000Y-53113500D01*
X120877346Y-53113140D01*
X120877351Y-53113140D01*
X120979785Y-53102128D01*
X120979792Y-53102127D01*
X120983149Y-53101766D01*
X120986537Y-53101029D01*
X121032210Y-53091094D01*
X121032215Y-53091093D01*
X121035491Y-53090380D01*
X121139657Y-53055710D01*
X121262612Y-52976692D01*
X121275529Y-52965500D01*
X121312875Y-52933139D01*
X121316268Y-52930199D01*
X121354230Y-52886389D01*
X121406081Y-52826550D01*
X121406083Y-52826547D01*
X121411982Y-52819739D01*
X121472698Y-52686790D01*
X121492700Y-52618669D01*
X121508695Y-52507424D01*
X121512861Y-52478447D01*
X121512861Y-52478442D01*
X121513500Y-52474000D01*
X121513500Y-50734500D01*
X121533502Y-50666379D01*
X121587158Y-50619886D01*
X121639500Y-50608500D01*
X123730075Y-50608500D01*
X123798196Y-50628502D01*
X123819170Y-50645405D01*
X125592095Y-52418329D01*
X125626120Y-52480641D01*
X125629000Y-52507424D01*
X125629000Y-53292351D01*
X125608998Y-53360472D01*
X125555342Y-53406965D01*
X125516609Y-53417614D01*
X125497119Y-53419732D01*
X125464684Y-53423255D01*
X125328295Y-53474385D01*
X125211739Y-53561739D01*
X125124385Y-53678295D01*
X125073255Y-53814684D01*
X125066500Y-53876866D01*
X125066500Y-55573134D01*
X125073255Y-55635316D01*
X125124385Y-55771705D01*
X125211739Y-55888261D01*
X125328295Y-55975615D01*
X125464684Y-56026745D01*
X125497119Y-56030268D01*
X125516609Y-56032386D01*
X125582170Y-56059628D01*
X125622596Y-56117992D01*
X125629000Y-56157649D01*
X125629000Y-59614087D01*
X125608998Y-59682208D01*
X125593025Y-59702028D01*
X125586739Y-59706739D01*
X125499385Y-59823295D01*
X125448255Y-59959684D01*
X125441500Y-60021866D01*
X125441500Y-61818134D01*
X125448255Y-61880316D01*
X125499385Y-62016705D01*
X125586739Y-62133261D01*
X125703295Y-62220615D01*
X125839684Y-62271745D01*
X125901866Y-62278500D01*
X127698134Y-62278500D01*
X127760316Y-62271745D01*
X127896705Y-62220615D01*
X128013261Y-62133261D01*
X128100615Y-62016705D01*
X128151745Y-61880316D01*
X128158500Y-61818134D01*
X128158500Y-60021866D01*
X128151745Y-59959684D01*
X128100615Y-59823295D01*
X128013261Y-59706739D01*
X127896705Y-59619385D01*
X127760316Y-59568255D01*
X127752460Y-59567402D01*
X127744778Y-59565575D01*
X127745467Y-59562675D01*
X127692831Y-59540805D01*
X127652404Y-59482442D01*
X127646000Y-59442783D01*
X127646000Y-55740170D01*
X127654018Y-55695940D01*
X127676745Y-55635316D01*
X127683500Y-55573134D01*
X127683500Y-53876866D01*
X127676745Y-53814684D01*
X127654018Y-53754060D01*
X127646000Y-53709830D01*
X127646000Y-52099350D01*
X127646737Y-52085742D01*
X127650159Y-52054239D01*
X127650825Y-52048112D01*
X127646447Y-51998070D01*
X127646121Y-51993288D01*
X127646000Y-51990810D01*
X127646000Y-51987731D01*
X127645701Y-51984677D01*
X127645700Y-51984666D01*
X127641813Y-51945029D01*
X127641691Y-51943715D01*
X127634123Y-51857218D01*
X127633587Y-51851087D01*
X127632100Y-51845968D01*
X127631580Y-51840667D01*
X127604709Y-51751666D01*
X127604374Y-51750533D01*
X127580130Y-51667086D01*
X127580128Y-51667082D01*
X127578409Y-51661164D01*
X127575956Y-51656432D01*
X127574416Y-51651331D01*
X127545373Y-51596708D01*
X127530769Y-51569240D01*
X127530157Y-51568074D01*
X127490229Y-51491047D01*
X127487392Y-51485574D01*
X127484069Y-51481411D01*
X127481566Y-51476704D01*
X127422761Y-51404602D01*
X127421933Y-51403575D01*
X127392969Y-51367292D01*
X127392964Y-51367287D01*
X127390762Y-51364528D01*
X127388261Y-51362027D01*
X127387619Y-51361309D01*
X127383906Y-51356961D01*
X127376142Y-51347441D01*
X127356565Y-51323438D01*
X127351823Y-51319515D01*
X127351821Y-51319513D01*
X127321227Y-51294203D01*
X127312447Y-51286213D01*
X125070405Y-49044171D01*
X125036379Y-48981859D01*
X125033500Y-48955076D01*
X125033500Y-48949600D01*
X125033163Y-48946350D01*
X125023238Y-48850692D01*
X125023237Y-48850688D01*
X125022526Y-48843834D01*
X125008170Y-48800802D01*
X124968868Y-48683002D01*
X124966550Y-48676054D01*
X124873478Y-48525652D01*
X124748303Y-48400695D01*
X124683095Y-48360500D01*
X124603968Y-48311725D01*
X124603966Y-48311724D01*
X124597738Y-48307885D01*
X124437254Y-48254655D01*
X124436389Y-48254368D01*
X124436387Y-48254368D01*
X124429861Y-48252203D01*
X124423025Y-48251503D01*
X124423022Y-48251502D01*
X124379969Y-48247091D01*
X124325400Y-48241500D01*
X123274600Y-48241500D01*
X123271354Y-48241837D01*
X123271350Y-48241837D01*
X123175692Y-48251762D01*
X123175688Y-48251763D01*
X123168834Y-48252474D01*
X123162298Y-48254655D01*
X123162296Y-48254655D01*
X123030194Y-48298728D01*
X123001054Y-48308450D01*
X122850652Y-48401522D01*
X122725695Y-48526697D01*
X122721854Y-48532928D01*
X122717317Y-48538673D01*
X122715987Y-48537623D01*
X122669893Y-48579108D01*
X122615403Y-48591500D01*
X121639500Y-48591500D01*
X121571379Y-48571498D01*
X121524886Y-48517842D01*
X121513500Y-48465500D01*
X121513500Y-47626000D01*
X121512072Y-47612715D01*
X121502128Y-47520215D01*
X121502127Y-47520208D01*
X121501766Y-47516851D01*
X121490380Y-47464509D01*
X121455710Y-47360343D01*
X121376692Y-47237388D01*
X121330199Y-47183732D01*
X121320933Y-47175703D01*
X121226550Y-47093919D01*
X121226547Y-47093917D01*
X121219739Y-47088018D01*
X121086790Y-47027302D01*
X121063036Y-47020327D01*
X121022992Y-47008569D01*
X121022988Y-47008568D01*
X121018669Y-47007300D01*
X121014220Y-47006660D01*
X121014214Y-47006659D01*
X120878447Y-46987139D01*
X120878442Y-46987139D01*
X120874000Y-46986500D01*
X116206346Y-46986500D01*
X116138225Y-46966498D01*
X116117251Y-46949595D01*
X113157551Y-43989895D01*
X113150565Y-43981621D01*
X113150335Y-43981820D01*
X113146412Y-43977275D01*
X113142946Y-43972389D01*
X113075984Y-43908287D01*
X113074020Y-43906364D01*
X113046460Y-43878804D01*
X113044145Y-43876892D01*
X113040739Y-43874079D01*
X113033855Y-43867957D01*
X112990150Y-43826119D01*
X112985114Y-43822867D01*
X112985110Y-43822864D01*
X112962008Y-43807947D01*
X112950126Y-43799251D01*
X112928919Y-43781738D01*
X112928916Y-43781736D01*
X112924295Y-43777920D01*
X112881641Y-43754616D01*
X112871203Y-43748913D01*
X112863283Y-43744202D01*
X112812452Y-43711380D01*
X112806884Y-43709136D01*
X112806882Y-43709135D01*
X112781381Y-43698858D01*
X112768068Y-43692565D01*
X112750427Y-43682927D01*
X112738671Y-43676504D01*
X112732959Y-43674676D01*
X112732953Y-43674673D01*
X112681049Y-43658059D01*
X112672375Y-43654928D01*
X112616263Y-43632314D01*
X112583392Y-43625895D01*
X112569125Y-43622232D01*
X112542927Y-43613846D01*
X112542925Y-43613846D01*
X112537219Y-43612019D01*
X112531272Y-43611305D01*
X112531265Y-43611303D01*
X112477154Y-43604802D01*
X112468033Y-43603366D01*
X112441473Y-43598179D01*
X112408663Y-43591772D01*
X112403101Y-43591500D01*
X112373960Y-43591500D01*
X112358932Y-43590601D01*
X112333155Y-43587504D01*
X112333149Y-43587504D01*
X112327207Y-43586790D01*
X112321232Y-43587213D01*
X112321229Y-43587213D01*
X112265137Y-43591185D01*
X112256238Y-43591500D01*
X110916306Y-43591500D01*
X110848185Y-43571498D01*
X110834298Y-43560317D01*
X110834229Y-43560404D01*
X110828483Y-43555866D01*
X110823303Y-43550695D01*
X110802463Y-43537849D01*
X110678968Y-43461725D01*
X110678966Y-43461724D01*
X110672738Y-43457885D01*
X110582845Y-43428069D01*
X110511389Y-43404368D01*
X110511387Y-43404368D01*
X110504861Y-43402203D01*
X110498025Y-43401503D01*
X110498022Y-43401502D01*
X110454969Y-43397091D01*
X110400400Y-43391500D01*
X109599600Y-43391500D01*
X109596354Y-43391837D01*
X109596350Y-43391837D01*
X109500692Y-43401762D01*
X109500688Y-43401763D01*
X109493834Y-43402474D01*
X109487298Y-43404655D01*
X109487296Y-43404655D01*
X109355194Y-43448728D01*
X109326054Y-43458450D01*
X109228187Y-43519012D01*
X109159739Y-43537849D01*
X109091969Y-43516688D01*
X109046398Y-43462248D01*
X109037493Y-43391812D01*
X109042294Y-43372200D01*
X109095632Y-43211389D01*
X109095632Y-43211387D01*
X109097797Y-43204861D01*
X109108500Y-43100400D01*
X109108500Y-42099600D01*
X109108163Y-42096350D01*
X109098238Y-42000692D01*
X109098237Y-42000688D01*
X109097526Y-41993834D01*
X109089537Y-41969886D01*
X109043868Y-41833002D01*
X109041550Y-41826054D01*
X108948478Y-41675652D01*
X108823303Y-41550695D01*
X108817072Y-41546854D01*
X108678968Y-41461725D01*
X108678966Y-41461724D01*
X108672738Y-41457885D01*
X108512254Y-41404655D01*
X108511389Y-41404368D01*
X108511387Y-41404368D01*
X108504861Y-41402203D01*
X108498025Y-41401503D01*
X108498022Y-41401502D01*
X108454969Y-41397091D01*
X108400400Y-41391500D01*
X107599600Y-41391500D01*
X107596354Y-41391837D01*
X107596350Y-41391837D01*
X107500692Y-41401762D01*
X107500688Y-41401763D01*
X107493834Y-41402474D01*
X107487298Y-41404655D01*
X107487296Y-41404655D01*
X107355194Y-41448728D01*
X107326054Y-41458450D01*
X107175652Y-41551522D01*
X107050695Y-41676697D01*
X106957885Y-41827262D01*
X106955581Y-41834209D01*
X106914356Y-41958500D01*
X106902203Y-41995139D01*
X106891500Y-42099600D01*
X106891500Y-43100400D01*
X106891837Y-43103646D01*
X106891837Y-43103650D01*
X106895609Y-43140000D01*
X106902474Y-43206166D01*
X106958450Y-43373946D01*
X107051522Y-43524348D01*
X107051638Y-43524464D01*
X107077173Y-43587543D01*
X107064004Y-43657308D01*
X107053136Y-43674251D01*
X107050695Y-43676697D01*
X107046855Y-43682927D01*
X106985947Y-43781738D01*
X106957885Y-43827262D01*
X106955581Y-43834209D01*
X106906621Y-43981820D01*
X106902203Y-43995139D01*
X106901503Y-44001975D01*
X106901502Y-44001978D01*
X106898148Y-44034717D01*
X106891500Y-44099600D01*
X106891500Y-45100400D01*
X106891837Y-45103646D01*
X106891837Y-45103650D01*
X106901553Y-45197285D01*
X106902474Y-45206166D01*
X106904655Y-45212702D01*
X106904655Y-45212704D01*
X106907799Y-45222128D01*
X106958450Y-45373946D01*
X107051522Y-45524348D01*
X107176697Y-45649305D01*
X107182929Y-45653146D01*
X107182931Y-45653148D01*
X107230114Y-45682232D01*
X107277608Y-45735004D01*
X107283866Y-45750660D01*
X107290636Y-45771556D01*
X107305649Y-45817899D01*
X107309445Y-45824155D01*
X107311951Y-45829628D01*
X107314670Y-45835058D01*
X107317167Y-45841937D01*
X107321180Y-45848057D01*
X107321180Y-45848058D01*
X107357186Y-45902976D01*
X107359523Y-45906680D01*
X107397405Y-45969107D01*
X107401121Y-45973315D01*
X107401122Y-45973316D01*
X107404803Y-45977484D01*
X107404776Y-45977508D01*
X107407429Y-45980500D01*
X107410132Y-45983733D01*
X107414144Y-45989852D01*
X107419456Y-45994884D01*
X107470383Y-46043128D01*
X107472825Y-46045506D01*
X108091354Y-46664035D01*
X108125380Y-46726347D01*
X108124860Y-46780403D01*
X108123255Y-46784684D01*
X108116500Y-46846866D01*
X108116500Y-47543134D01*
X108123255Y-47605316D01*
X108174385Y-47741705D01*
X108183926Y-47754435D01*
X108208774Y-47820939D01*
X108193722Y-47890322D01*
X108183930Y-47905559D01*
X108174385Y-47918295D01*
X108123255Y-48054684D01*
X108116500Y-48116866D01*
X108116500Y-48813134D01*
X108123255Y-48875316D01*
X108174385Y-49011705D01*
X108183926Y-49024435D01*
X108208774Y-49090939D01*
X108193722Y-49160322D01*
X108183930Y-49175559D01*
X108174385Y-49188295D01*
X108123255Y-49324684D01*
X108116500Y-49386866D01*
X108116500Y-50083134D01*
X108123255Y-50145316D01*
X108174385Y-50281705D01*
X108183926Y-50294435D01*
X108208774Y-50360939D01*
X108193722Y-50430322D01*
X108183930Y-50445559D01*
X108174385Y-50458295D01*
X108123255Y-50594684D01*
X108116500Y-50656866D01*
X108116500Y-51353134D01*
X108123255Y-51415316D01*
X108174385Y-51551705D01*
X108261739Y-51668261D01*
X108378295Y-51755615D01*
X108514684Y-51806745D01*
X108576866Y-51813500D01*
X109730418Y-51813500D01*
X109798539Y-51833502D01*
X109819513Y-51850405D01*
X110229595Y-52260487D01*
X110263621Y-52322799D01*
X110266500Y-52349582D01*
X110266500Y-52775400D01*
X110277474Y-52881166D01*
X110279655Y-52887702D01*
X110279655Y-52887704D01*
X110305610Y-52965500D01*
X110333450Y-53048946D01*
X110426522Y-53199348D01*
X110551697Y-53324305D01*
X110555916Y-53326906D01*
X110596417Y-53384030D01*
X110599649Y-53454953D01*
X110564024Y-53516365D01*
X110556470Y-53522922D01*
X110550652Y-53526522D01*
X110425695Y-53651697D01*
X110332885Y-53802262D01*
X110277203Y-53970139D01*
X110266500Y-54074600D01*
X110266500Y-54850400D01*
X110277474Y-54956166D01*
X110333450Y-55123946D01*
X110421724Y-55266594D01*
X110422644Y-55268081D01*
X110441500Y-55334384D01*
X110441500Y-55646900D01*
X110421498Y-55715021D01*
X110367842Y-55761514D01*
X110315500Y-55772900D01*
X105535105Y-55772900D01*
X105466984Y-55752898D01*
X105420491Y-55699242D01*
X105410387Y-55628968D01*
X105417123Y-55602670D01*
X105426922Y-55576531D01*
X105451745Y-55510316D01*
X105458500Y-55448134D01*
X105458500Y-53551866D01*
X105451745Y-53489684D01*
X105400615Y-53353295D01*
X105313674Y-53237290D01*
X105288826Y-53170784D01*
X105288500Y-53161725D01*
X105288500Y-51821188D01*
X105280265Y-51729592D01*
X105272247Y-51685363D01*
X105247806Y-51596708D01*
X105244856Y-51588839D01*
X105239673Y-51518033D01*
X105244856Y-51500381D01*
X105273971Y-51422718D01*
X105273973Y-51422712D01*
X105276745Y-51415316D01*
X105283500Y-51353134D01*
X105283500Y-50656866D01*
X105276745Y-50594684D01*
X105225615Y-50458295D01*
X105216074Y-50445565D01*
X105191226Y-50379061D01*
X105206278Y-50309678D01*
X105216070Y-50294441D01*
X105225615Y-50281705D01*
X105276745Y-50145316D01*
X105283500Y-50083134D01*
X105283500Y-49386866D01*
X105276745Y-49324684D01*
X105225615Y-49188295D01*
X105138261Y-49071739D01*
X105132703Y-49067573D01*
X105117487Y-49048692D01*
X105095630Y-49014682D01*
X105093192Y-49010888D01*
X105086615Y-49003297D01*
X105049639Y-48960625D01*
X105046699Y-48957232D01*
X105037433Y-48949203D01*
X104943050Y-48867419D01*
X104943047Y-48867417D01*
X104936239Y-48861518D01*
X104912534Y-48850692D01*
X104883200Y-48837296D01*
X104803290Y-48800802D01*
X104779536Y-48793827D01*
X104739492Y-48782069D01*
X104739488Y-48782068D01*
X104735169Y-48780800D01*
X104730720Y-48780160D01*
X104730714Y-48780159D01*
X104594947Y-48760639D01*
X104594942Y-48760639D01*
X104590500Y-48760000D01*
X103286228Y-48760000D01*
X103218107Y-48739998D01*
X103192527Y-48718238D01*
X103155094Y-48676599D01*
X103155085Y-48676590D01*
X103153217Y-48674512D01*
X103148155Y-48669801D01*
X103122571Y-48645995D01*
X103120513Y-48644080D01*
X103048325Y-48588018D01*
X102915376Y-48527302D01*
X102883158Y-48517842D01*
X102851578Y-48508569D01*
X102851574Y-48508568D01*
X102847255Y-48507300D01*
X102842806Y-48506660D01*
X102842800Y-48506659D01*
X102707033Y-48487139D01*
X102707028Y-48487139D01*
X102702586Y-48486500D01*
X96084500Y-48486500D01*
X96081154Y-48486860D01*
X96081149Y-48486860D01*
X95978715Y-48497872D01*
X95978708Y-48497873D01*
X95975351Y-48498234D01*
X95972051Y-48498952D01*
X95972050Y-48498952D01*
X95926290Y-48508906D01*
X95926285Y-48508907D01*
X95923009Y-48509620D01*
X95818843Y-48544290D01*
X95695888Y-48623308D01*
X95692493Y-48626250D01*
X95692490Y-48626252D01*
X95671916Y-48644080D01*
X95642232Y-48669801D01*
X95639292Y-48673194D01*
X95552419Y-48773450D01*
X95552417Y-48773453D01*
X95546518Y-48780261D01*
X95485802Y-48913210D01*
X95465800Y-48981331D01*
X95465160Y-48985780D01*
X95465159Y-48985786D01*
X95457411Y-49039678D01*
X95445000Y-49126000D01*
X95445000Y-49567720D01*
X95444342Y-49580583D01*
X95444107Y-49582873D01*
X95438359Y-49609675D01*
X95428199Y-49640308D01*
X95415864Y-49666760D01*
X95401301Y-49690385D01*
X95383215Y-49713286D01*
X95363605Y-49732930D01*
X95340738Y-49751055D01*
X95317134Y-49765662D01*
X95290710Y-49778040D01*
X95260228Y-49788209D01*
X95233369Y-49794010D01*
X95230326Y-49794326D01*
X95217312Y-49795000D01*
X93182280Y-49795000D01*
X93169421Y-49794342D01*
X93168256Y-49794223D01*
X93167127Y-49794107D01*
X93140325Y-49788359D01*
X93139873Y-49788209D01*
X93109689Y-49778198D01*
X93083240Y-49765864D01*
X93059615Y-49751301D01*
X93036714Y-49733215D01*
X93017070Y-49713605D01*
X92998945Y-49690738D01*
X92998727Y-49690385D01*
X92984338Y-49667134D01*
X92971960Y-49640710D01*
X92961791Y-49610228D01*
X92955990Y-49583369D01*
X92955674Y-49580326D01*
X92955000Y-49567312D01*
X92955000Y-49126000D01*
X92943266Y-49016851D01*
X92940318Y-49003297D01*
X92932594Y-48967790D01*
X92932593Y-48967785D01*
X92931880Y-48964509D01*
X92897210Y-48860343D01*
X92818192Y-48737388D01*
X92801599Y-48718238D01*
X92774639Y-48687125D01*
X92771699Y-48683732D01*
X92761059Y-48674512D01*
X92668050Y-48593919D01*
X92668047Y-48593917D01*
X92661239Y-48588018D01*
X92528290Y-48527302D01*
X92496072Y-48517842D01*
X92464492Y-48508569D01*
X92464488Y-48508568D01*
X92460169Y-48507300D01*
X92455720Y-48506660D01*
X92455714Y-48506659D01*
X92319947Y-48487139D01*
X92319942Y-48487139D01*
X92315500Y-48486500D01*
X90239500Y-48486500D01*
X90171379Y-48466498D01*
X90124886Y-48412842D01*
X90113500Y-48360500D01*
X90113500Y-45400000D01*
X102386496Y-45400000D01*
X102406458Y-45589928D01*
X102465473Y-45771556D01*
X102560960Y-45936944D01*
X102565378Y-45941851D01*
X102565379Y-45941852D01*
X102671182Y-46059358D01*
X102688747Y-46078866D01*
X102843248Y-46191118D01*
X102849276Y-46193802D01*
X102849278Y-46193803D01*
X102943963Y-46235959D01*
X102998059Y-46281939D01*
X103018708Y-46349866D01*
X102999356Y-46418174D01*
X102968280Y-46451891D01*
X102861739Y-46531739D01*
X102774385Y-46648295D01*
X102723255Y-46784684D01*
X102716500Y-46846866D01*
X102716500Y-47543134D01*
X102723255Y-47605316D01*
X102774385Y-47741705D01*
X102861739Y-47858261D01*
X102978295Y-47945615D01*
X103114684Y-47996745D01*
X103176866Y-48003500D01*
X104823134Y-48003500D01*
X104885316Y-47996745D01*
X105021705Y-47945615D01*
X105138261Y-47858261D01*
X105225615Y-47741705D01*
X105276745Y-47605316D01*
X105283500Y-47543134D01*
X105283500Y-46846866D01*
X105276745Y-46784684D01*
X105225615Y-46648295D01*
X105138261Y-46531739D01*
X105021705Y-46444385D01*
X104885316Y-46393255D01*
X104871963Y-46391804D01*
X104870892Y-46391688D01*
X104805330Y-46364446D01*
X104764904Y-46306083D01*
X104758500Y-46266425D01*
X104758500Y-46167063D01*
X104759933Y-46148114D01*
X104762097Y-46133886D01*
X104763198Y-46126651D01*
X104758915Y-46073990D01*
X104758500Y-46063777D01*
X104758500Y-46055707D01*
X104758078Y-46052087D01*
X104758077Y-46052069D01*
X104755208Y-46027461D01*
X104754775Y-46023086D01*
X104749454Y-45957661D01*
X104749453Y-45957658D01*
X104748860Y-45950363D01*
X104746604Y-45943399D01*
X104745413Y-45937440D01*
X104744029Y-45931585D01*
X104743182Y-45924319D01*
X104718265Y-45855673D01*
X104716848Y-45851545D01*
X104696607Y-45789064D01*
X104696606Y-45789062D01*
X104694351Y-45782101D01*
X104690555Y-45775846D01*
X104688049Y-45770372D01*
X104685330Y-45764942D01*
X104682833Y-45758063D01*
X104642809Y-45697016D01*
X104640472Y-45693312D01*
X104605509Y-45635693D01*
X104605505Y-45635688D01*
X104602595Y-45630892D01*
X104595197Y-45622516D01*
X104595223Y-45622493D01*
X104592574Y-45619503D01*
X104589866Y-45616264D01*
X104585856Y-45610148D01*
X104580549Y-45605121D01*
X104580546Y-45605117D01*
X104529617Y-45556872D01*
X104527175Y-45554494D01*
X104220125Y-45247444D01*
X104189387Y-45197285D01*
X104136569Y-45034729D01*
X104134527Y-45028444D01*
X104039040Y-44863056D01*
X103911253Y-44721134D01*
X103756752Y-44608882D01*
X103750724Y-44606198D01*
X103750722Y-44606197D01*
X103588319Y-44533891D01*
X103588318Y-44533891D01*
X103582288Y-44531206D01*
X103488888Y-44511353D01*
X103401944Y-44492872D01*
X103401939Y-44492872D01*
X103395487Y-44491500D01*
X103204513Y-44491500D01*
X103198061Y-44492872D01*
X103198056Y-44492872D01*
X103111113Y-44511353D01*
X103017712Y-44531206D01*
X103011682Y-44533891D01*
X103011681Y-44533891D01*
X102849278Y-44606197D01*
X102849276Y-44606198D01*
X102843248Y-44608882D01*
X102688747Y-44721134D01*
X102560960Y-44863056D01*
X102465473Y-45028444D01*
X102406458Y-45210072D01*
X102386496Y-45400000D01*
X90113500Y-45400000D01*
X90113500Y-42084500D01*
X90133502Y-42016379D01*
X90187158Y-41969886D01*
X90239500Y-41958500D01*
X92395500Y-41958500D01*
X92463621Y-41978502D01*
X92510114Y-42032158D01*
X92521500Y-42084500D01*
X92521500Y-42596651D01*
X92509787Y-42649702D01*
X92502869Y-42664605D01*
X92502867Y-42664612D01*
X92500688Y-42669305D01*
X92440989Y-42884570D01*
X92417251Y-43106695D01*
X92417548Y-43111848D01*
X92417548Y-43111851D01*
X92422911Y-43204861D01*
X92430110Y-43329715D01*
X92431247Y-43334761D01*
X92431248Y-43334767D01*
X92440078Y-43373946D01*
X92479222Y-43547639D01*
X92517461Y-43641811D01*
X92547032Y-43714635D01*
X92563266Y-43754616D01*
X92614019Y-43837438D01*
X92638197Y-43876892D01*
X92679987Y-43945088D01*
X92826250Y-44113938D01*
X92998126Y-44256632D01*
X93191000Y-44369338D01*
X93399692Y-44449030D01*
X93404760Y-44450061D01*
X93404763Y-44450062D01*
X93512017Y-44471883D01*
X93618597Y-44493567D01*
X93623772Y-44493757D01*
X93623774Y-44493757D01*
X93836673Y-44501564D01*
X93836677Y-44501564D01*
X93841837Y-44501753D01*
X93846957Y-44501097D01*
X93846959Y-44501097D01*
X94058288Y-44474025D01*
X94058289Y-44474025D01*
X94063416Y-44473368D01*
X94068366Y-44471883D01*
X94272429Y-44410661D01*
X94272434Y-44410659D01*
X94277384Y-44409174D01*
X94477994Y-44310896D01*
X94659860Y-44181173D01*
X94818096Y-44023489D01*
X94838468Y-43995139D01*
X94945435Y-43846277D01*
X94948453Y-43842077D01*
X94967298Y-43803948D01*
X95045136Y-43646453D01*
X95045137Y-43646451D01*
X95047430Y-43641811D01*
X95101986Y-43462248D01*
X95110865Y-43433023D01*
X95110865Y-43433021D01*
X95112370Y-43428069D01*
X95141529Y-43206590D01*
X95143156Y-43140000D01*
X95124852Y-42917361D01*
X95070431Y-42700702D01*
X95068375Y-42695973D01*
X95068372Y-42695965D01*
X95048950Y-42651298D01*
X95038500Y-42601056D01*
X95038500Y-42084500D01*
X95058502Y-42016379D01*
X95112158Y-41969886D01*
X95164500Y-41958500D01*
X97409375Y-41958500D01*
X97477496Y-41978502D01*
X97523989Y-42032158D01*
X97534093Y-42102432D01*
X97527357Y-42128728D01*
X97508255Y-42179684D01*
X97501500Y-42241866D01*
X97501500Y-44038134D01*
X97508255Y-44100316D01*
X97559385Y-44236705D01*
X97646739Y-44353261D01*
X97763295Y-44440615D01*
X97899684Y-44491745D01*
X97961866Y-44498500D01*
X99758134Y-44498500D01*
X99820316Y-44491745D01*
X99956705Y-44440615D01*
X100073261Y-44353261D01*
X100160615Y-44236705D01*
X100211745Y-44100316D01*
X100218500Y-44038134D01*
X100218500Y-42241866D01*
X100211745Y-42179684D01*
X100160615Y-42043295D01*
X100143673Y-42020689D01*
X100118826Y-41954185D01*
X100118500Y-41945126D01*
X100118500Y-41351396D01*
X100119578Y-41334949D01*
X100121747Y-41318472D01*
X100122479Y-41312914D01*
X100118640Y-41231504D01*
X100118500Y-41225569D01*
X100118500Y-41203001D01*
X100118252Y-41200218D01*
X100118251Y-41200204D01*
X100116182Y-41177023D01*
X100115823Y-41171760D01*
X100112161Y-41094116D01*
X100111897Y-41088512D01*
X100107892Y-41071023D01*
X100105212Y-41054104D01*
X100104115Y-41041821D01*
X100103617Y-41036238D01*
X100102137Y-41030827D01*
X100081631Y-40955870D01*
X100080345Y-40950752D01*
X100062994Y-40874997D01*
X100061742Y-40869530D01*
X100054707Y-40853037D01*
X100049072Y-40836855D01*
X100045820Y-40824967D01*
X100045817Y-40824958D01*
X100044337Y-40819549D01*
X100041922Y-40814486D01*
X100041918Y-40814475D01*
X100008466Y-40744343D01*
X100006293Y-40739532D01*
X99975803Y-40668048D01*
X99973604Y-40662892D01*
X99963756Y-40647900D01*
X99955344Y-40632971D01*
X99947622Y-40616782D01*
X99898996Y-40549111D01*
X99896013Y-40544771D01*
X99852805Y-40478992D01*
X99852801Y-40478987D01*
X99850265Y-40475126D01*
X99831751Y-40454346D01*
X99823506Y-40444055D01*
X99819807Y-40438907D01*
X99819803Y-40438903D01*
X99816529Y-40434346D01*
X99739777Y-40359968D01*
X99738367Y-40358579D01*
X99303383Y-39923595D01*
X99269357Y-39861283D01*
X99274422Y-39790468D01*
X99316969Y-39733632D01*
X99383489Y-39708821D01*
X99392478Y-39708500D01*
X128365500Y-39708500D01*
X128433621Y-39728502D01*
G37*
%TD.AperFunction*%
%TA.AperFunction,Conductor*%
G36*
X120942121Y-47520002D02*
G01*
X120988614Y-47573658D01*
X121000000Y-47626000D01*
X121000000Y-52474000D01*
X120979998Y-52542121D01*
X120926342Y-52588614D01*
X120874000Y-52600000D01*
X118800000Y-52600000D01*
X118800000Y-55740359D01*
X118799310Y-55753529D01*
X118796696Y-55778400D01*
X118797386Y-55784965D01*
X118799310Y-55803271D01*
X118800000Y-55816441D01*
X118800000Y-56883359D01*
X118799310Y-56896529D01*
X118796696Y-56921400D01*
X118797386Y-56927965D01*
X118799310Y-56946271D01*
X118800000Y-56959441D01*
X118800000Y-61374000D01*
X118779998Y-61442121D01*
X118726342Y-61488614D01*
X118674000Y-61500000D01*
X114526000Y-61500000D01*
X114457879Y-61479998D01*
X114411386Y-61426342D01*
X114400000Y-61374000D01*
X114400000Y-47626000D01*
X114420002Y-47557879D01*
X114473658Y-47511386D01*
X114526000Y-47500000D01*
X120874000Y-47500000D01*
X120942121Y-47520002D01*
G37*
%TD.AperFunction*%
%TA.AperFunction,Conductor*%
G36*
X89542121Y-39728502D02*
G01*
X89588614Y-39782158D01*
X89600000Y-39834500D01*
X89600000Y-49000000D01*
X92315500Y-49000000D01*
X92383621Y-49020002D01*
X92430114Y-49073658D01*
X92441500Y-49126000D01*
X92441500Y-49600400D01*
X92452474Y-49706166D01*
X92508450Y-49873946D01*
X92601522Y-50024348D01*
X92726697Y-50149305D01*
X92732927Y-50153145D01*
X92732928Y-50153146D01*
X92870090Y-50237694D01*
X92877262Y-50242115D01*
X92957005Y-50268564D01*
X93038611Y-50295632D01*
X93038613Y-50295632D01*
X93045139Y-50297797D01*
X93051975Y-50298497D01*
X93051978Y-50298498D01*
X93095031Y-50302909D01*
X93149600Y-50308500D01*
X95250400Y-50308500D01*
X95253646Y-50308163D01*
X95253650Y-50308163D01*
X95349308Y-50298238D01*
X95349312Y-50298237D01*
X95356166Y-50297526D01*
X95362702Y-50295345D01*
X95362704Y-50295345D01*
X95494923Y-50251233D01*
X95523946Y-50241550D01*
X95674348Y-50148478D01*
X95799305Y-50023303D01*
X95892115Y-49872738D01*
X95947797Y-49704861D01*
X95958500Y-49600400D01*
X95958500Y-49126000D01*
X95978502Y-49057879D01*
X96032158Y-49011386D01*
X96084500Y-49000000D01*
X102702586Y-49000000D01*
X102770707Y-49020002D01*
X102803411Y-49050434D01*
X102861739Y-49128261D01*
X102978295Y-49215615D01*
X103114684Y-49266745D01*
X103176866Y-49273500D01*
X104590500Y-49273500D01*
X104658621Y-49293502D01*
X104705114Y-49347158D01*
X104716500Y-49399500D01*
X104716500Y-50070500D01*
X104696498Y-50138621D01*
X104642842Y-50185114D01*
X104590500Y-50196500D01*
X103176866Y-50196500D01*
X103114684Y-50203255D01*
X102978295Y-50254385D01*
X102951019Y-50274827D01*
X102884515Y-50299674D01*
X102875456Y-50300000D01*
X100300000Y-50300000D01*
X100300000Y-56174000D01*
X100279998Y-56242121D01*
X100226342Y-56288614D01*
X100174000Y-56300000D01*
X88379741Y-56300000D01*
X88311620Y-56279998D01*
X88265127Y-56226342D01*
X88254819Y-56157554D01*
X88261529Y-56106590D01*
X88263156Y-56040000D01*
X88244852Y-55817361D01*
X88190431Y-55600702D01*
X88101354Y-55395840D01*
X87980014Y-55208277D01*
X87829670Y-55043051D01*
X87825619Y-55039852D01*
X87825615Y-55039848D01*
X87658414Y-54907800D01*
X87658410Y-54907798D01*
X87654359Y-54904598D01*
X87458789Y-54796638D01*
X87453920Y-54794914D01*
X87453916Y-54794912D01*
X87253087Y-54723795D01*
X87253083Y-54723794D01*
X87248212Y-54722069D01*
X87243119Y-54721162D01*
X87243116Y-54721161D01*
X87033373Y-54683800D01*
X87033367Y-54683799D01*
X87028284Y-54682894D01*
X86954452Y-54681992D01*
X86810081Y-54680228D01*
X86810079Y-54680228D01*
X86804911Y-54680165D01*
X86584091Y-54713955D01*
X86371756Y-54783357D01*
X86173607Y-54886507D01*
X86169474Y-54889610D01*
X86169471Y-54889612D01*
X86145247Y-54907800D01*
X85994965Y-55020635D01*
X85840629Y-55182138D01*
X85714743Y-55366680D01*
X85620688Y-55569305D01*
X85560989Y-55784570D01*
X85537251Y-56006695D01*
X85537548Y-56011848D01*
X85537548Y-56011851D01*
X85546479Y-56166747D01*
X85530431Y-56235906D01*
X85479541Y-56285411D01*
X85420688Y-56300000D01*
X84634500Y-56300000D01*
X84566379Y-56279998D01*
X84519886Y-56226342D01*
X84508500Y-56174000D01*
X84508500Y-39834500D01*
X84528502Y-39766379D01*
X84582158Y-39719886D01*
X84634500Y-39708500D01*
X89474000Y-39708500D01*
X89542121Y-39728502D01*
G37*
%TD.AperFunction*%
M02*
