%TF.GenerationSoftware,KiCad,Pcbnew,(6.0.8)*%
%TF.CreationDate,2022-12-06T01:45:32+01:00*%
%TF.ProjectId,Single-DCDC-Converter-Rev2,53696e67-6c65-42d4-9443-44432d436f6e,rev?*%
%TF.SameCoordinates,Original*%
%TF.FileFunction,Drillmap*%
%TF.FilePolarity,Positive*%
%FSLAX45Y45*%
G04 Gerber Fmt 4.5, Leading zero omitted, Abs format (unit mm)*
G04 Created by KiCad (PCBNEW (6.0.8)) date 2022-12-06 01:45:32*
%MOMM*%
%LPD*%
G01*
G04 APERTURE LIST*
%ADD10C,0.100000*%
%ADD11C,0.200000*%
%ADD12C,0.030000*%
%ADD13C,0.040000*%
%ADD14C,0.080000*%
%ADD15C,0.250000*%
G04 APERTURE END LIST*
D10*
X8400000Y-6320000D02*
X12900000Y-6320000D01*
X12900000Y-6320000D02*
X12900000Y-3920000D01*
X12900000Y-3920000D02*
X8400000Y-3920000D01*
X8400000Y-3920000D02*
X8400000Y-6320000D01*
D11*
D12*
X10590000Y-4700000D02*
X10620000Y-4730000D01*
X10620000Y-4700000D02*
X10590000Y-4730000D01*
X10590000Y-4830000D02*
X10620000Y-4860000D01*
X10620000Y-4830000D02*
X10590000Y-4860000D01*
X10590000Y-4960000D02*
X10620000Y-4990000D01*
X10620000Y-4960000D02*
X10590000Y-4990000D01*
X10590000Y-5090000D02*
X10620000Y-5120000D01*
X10620000Y-5090000D02*
X10590000Y-5120000D01*
X10720000Y-4700000D02*
X10750000Y-4730000D01*
X10750000Y-4700000D02*
X10720000Y-4730000D01*
X10720000Y-4830000D02*
X10750000Y-4860000D01*
X10750000Y-4830000D02*
X10720000Y-4860000D01*
X10720000Y-4960000D02*
X10750000Y-4990000D01*
X10750000Y-4960000D02*
X10720000Y-4990000D01*
X10720000Y-5090000D02*
X10750000Y-5120000D01*
X10750000Y-5090000D02*
X10720000Y-5120000D01*
D13*
X8940000Y-5740000D02*
G75*
G03*
X8940000Y-5740000I-20000J0D01*
G01*
X9010000Y-5830000D02*
G75*
G03*
X9010000Y-5830000I-20000J0D01*
G01*
X9210000Y-4570000D02*
G75*
G03*
X9210000Y-4570000I-20000J0D01*
G01*
X9210000Y-4740000D02*
G75*
G03*
X9210000Y-4740000I-20000J0D01*
G01*
X9690000Y-4570000D02*
G75*
G03*
X9690000Y-4570000I-20000J0D01*
G01*
X9690000Y-4740000D02*
G75*
G03*
X9690000Y-4740000I-20000J0D01*
G01*
X9950000Y-4570000D02*
G75*
G03*
X9950000Y-4570000I-20000J0D01*
G01*
X10180000Y-4620000D02*
G75*
G03*
X10180000Y-4620000I-20000J0D01*
G01*
X10350000Y-4540000D02*
G75*
G03*
X10350000Y-4540000I-20000J0D01*
G01*
X11460000Y-4200000D02*
G75*
G03*
X11460000Y-4200000I-20000J0D01*
G01*
X11460000Y-4350000D02*
G75*
G03*
X11460000Y-4350000I-20000J0D01*
G01*
X11565000Y-4490000D02*
G75*
G03*
X11565000Y-4490000I-20000J0D01*
G01*
X11785000Y-4495000D02*
G75*
G03*
X11785000Y-4495000I-20000J0D01*
G01*
X11910000Y-4200000D02*
G75*
G03*
X11910000Y-4200000I-20000J0D01*
G01*
X11910000Y-4350000D02*
G75*
G03*
X11910000Y-4350000I-20000J0D01*
G01*
X11991020Y-5577840D02*
G75*
G03*
X11991020Y-5577840I-20000J0D01*
G01*
X11991020Y-5692140D02*
G75*
G03*
X11991020Y-5692140I-20000J0D01*
G01*
D14*
X12287500Y-5432500D02*
X12287500Y-5512500D01*
X12247500Y-5472500D02*
X12327500Y-5472500D01*
X12637500Y-5432500D02*
X12637500Y-5512500D01*
X12597500Y-5472500D02*
X12677500Y-5472500D01*
D10*
X8725356Y-5385356D02*
X8725356Y-5314644D01*
X8654644Y-5314644D01*
X8654644Y-5385356D01*
X8725356Y-5385356D01*
X8725356Y-5639356D02*
X8725356Y-5568644D01*
X8654644Y-5568644D01*
X8654644Y-5639356D01*
X8725356Y-5639356D01*
X9159356Y-4349356D02*
X9159356Y-4278644D01*
X9088644Y-4278644D01*
X9088644Y-4349356D01*
X9159356Y-4349356D01*
X9159356Y-6127356D02*
X9159356Y-6056644D01*
X9088644Y-6056644D01*
X9088644Y-6127356D01*
X9159356Y-6127356D01*
X9413356Y-4349356D02*
X9413356Y-4278644D01*
X9342644Y-4278644D01*
X9342644Y-4349356D01*
X9413356Y-4349356D01*
X9413356Y-6127356D02*
X9413356Y-6056644D01*
X9342644Y-6056644D01*
X9342644Y-6127356D01*
X9413356Y-6127356D01*
X9667356Y-4349356D02*
X9667356Y-4278644D01*
X9596644Y-4278644D01*
X9596644Y-4349356D01*
X9667356Y-4349356D01*
X9667356Y-6127356D02*
X9667356Y-6056644D01*
X9596644Y-6056644D01*
X9596644Y-6127356D01*
X9667356Y-6127356D01*
X9921356Y-4349356D02*
X9921356Y-4278644D01*
X9850644Y-4278644D01*
X9850644Y-4349356D01*
X9921356Y-4349356D01*
X9921356Y-6127356D02*
X9921356Y-6056644D01*
X9850644Y-6056644D01*
X9850644Y-6127356D01*
X9921356Y-6127356D01*
X12207356Y-6127356D02*
X12207356Y-6056644D01*
X12136644Y-6056644D01*
X12136644Y-6127356D01*
X12207356Y-6127356D01*
X12461356Y-6127356D02*
X12461356Y-6056644D01*
X12390644Y-6056644D01*
X12390644Y-6127356D01*
X12461356Y-6127356D01*
X12715356Y-6127356D02*
X12715356Y-6056644D01*
X12644644Y-6056644D01*
X12644644Y-6127356D01*
X12715356Y-6127356D01*
D15*
X8680000Y-6175000D02*
X8805000Y-6050000D01*
X8680000Y-5925000D01*
X8555000Y-6050000D01*
X8680000Y-6175000D01*
X12615000Y-4325000D02*
X12740000Y-4200000D01*
X12615000Y-4075000D01*
X12490000Y-4200000D01*
X12615000Y-4325000D01*
D11*
X8652619Y-6635476D02*
X8652619Y-6435476D01*
X8700238Y-6435476D01*
X8728810Y-6445000D01*
X8747857Y-6464048D01*
X8757381Y-6483095D01*
X8766905Y-6521190D01*
X8766905Y-6549762D01*
X8757381Y-6587857D01*
X8747857Y-6606905D01*
X8728810Y-6625952D01*
X8700238Y-6635476D01*
X8652619Y-6635476D01*
X8852619Y-6635476D02*
X8852619Y-6502143D01*
X8852619Y-6540238D02*
X8862143Y-6521190D01*
X8871667Y-6511667D01*
X8890714Y-6502143D01*
X8909762Y-6502143D01*
X8976429Y-6635476D02*
X8976429Y-6502143D01*
X8976429Y-6435476D02*
X8966905Y-6445000D01*
X8976429Y-6454524D01*
X8985952Y-6445000D01*
X8976429Y-6435476D01*
X8976429Y-6454524D01*
X9100238Y-6635476D02*
X9081190Y-6625952D01*
X9071667Y-6606905D01*
X9071667Y-6435476D01*
X9205000Y-6635476D02*
X9185952Y-6625952D01*
X9176429Y-6606905D01*
X9176429Y-6435476D01*
X9433571Y-6635476D02*
X9433571Y-6435476D01*
X9500238Y-6578333D01*
X9566905Y-6435476D01*
X9566905Y-6635476D01*
X9747857Y-6635476D02*
X9747857Y-6530714D01*
X9738333Y-6511667D01*
X9719286Y-6502143D01*
X9681190Y-6502143D01*
X9662143Y-6511667D01*
X9747857Y-6625952D02*
X9728810Y-6635476D01*
X9681190Y-6635476D01*
X9662143Y-6625952D01*
X9652619Y-6606905D01*
X9652619Y-6587857D01*
X9662143Y-6568809D01*
X9681190Y-6559286D01*
X9728810Y-6559286D01*
X9747857Y-6549762D01*
X9843095Y-6502143D02*
X9843095Y-6702143D01*
X9843095Y-6511667D02*
X9862143Y-6502143D01*
X9900238Y-6502143D01*
X9919286Y-6511667D01*
X9928810Y-6521190D01*
X9938333Y-6540238D01*
X9938333Y-6597381D01*
X9928810Y-6616428D01*
X9919286Y-6625952D01*
X9900238Y-6635476D01*
X9862143Y-6635476D01*
X9843095Y-6625952D01*
X10024048Y-6616428D02*
X10033571Y-6625952D01*
X10024048Y-6635476D01*
X10014524Y-6625952D01*
X10024048Y-6616428D01*
X10024048Y-6635476D01*
X10024048Y-6511667D02*
X10033571Y-6521190D01*
X10024048Y-6530714D01*
X10014524Y-6521190D01*
X10024048Y-6511667D01*
X10024048Y-6530714D01*
D12*
X8365000Y-6950000D02*
X8395000Y-6980000D01*
X8395000Y-6950000D02*
X8365000Y-6980000D01*
D11*
X8690714Y-6855476D02*
X8709762Y-6855476D01*
X8728810Y-6865000D01*
X8738333Y-6874524D01*
X8747857Y-6893571D01*
X8757381Y-6931667D01*
X8757381Y-6979286D01*
X8747857Y-7017381D01*
X8738333Y-7036428D01*
X8728810Y-7045952D01*
X8709762Y-7055476D01*
X8690714Y-7055476D01*
X8671667Y-7045952D01*
X8662143Y-7036428D01*
X8652619Y-7017381D01*
X8643095Y-6979286D01*
X8643095Y-6931667D01*
X8652619Y-6893571D01*
X8662143Y-6874524D01*
X8671667Y-6865000D01*
X8690714Y-6855476D01*
X8843095Y-7036428D02*
X8852619Y-7045952D01*
X8843095Y-7055476D01*
X8833571Y-7045952D01*
X8843095Y-7036428D01*
X8843095Y-7055476D01*
X8919286Y-6855476D02*
X9043095Y-6855476D01*
X8976429Y-6931667D01*
X9005000Y-6931667D01*
X9024048Y-6941190D01*
X9033571Y-6950714D01*
X9043095Y-6969762D01*
X9043095Y-7017381D01*
X9033571Y-7036428D01*
X9024048Y-7045952D01*
X9005000Y-7055476D01*
X8947857Y-7055476D01*
X8928810Y-7045952D01*
X8919286Y-7036428D01*
X9166905Y-6855476D02*
X9185952Y-6855476D01*
X9205000Y-6865000D01*
X9214524Y-6874524D01*
X9224048Y-6893571D01*
X9233571Y-6931667D01*
X9233571Y-6979286D01*
X9224048Y-7017381D01*
X9214524Y-7036428D01*
X9205000Y-7045952D01*
X9185952Y-7055476D01*
X9166905Y-7055476D01*
X9147857Y-7045952D01*
X9138333Y-7036428D01*
X9128810Y-7017381D01*
X9119286Y-6979286D01*
X9119286Y-6931667D01*
X9128810Y-6893571D01*
X9138333Y-6874524D01*
X9147857Y-6865000D01*
X9166905Y-6855476D01*
X9357381Y-6855476D02*
X9376429Y-6855476D01*
X9395476Y-6865000D01*
X9405000Y-6874524D01*
X9414524Y-6893571D01*
X9424048Y-6931667D01*
X9424048Y-6979286D01*
X9414524Y-7017381D01*
X9405000Y-7036428D01*
X9395476Y-7045952D01*
X9376429Y-7055476D01*
X9357381Y-7055476D01*
X9338333Y-7045952D01*
X9328810Y-7036428D01*
X9319286Y-7017381D01*
X9309762Y-6979286D01*
X9309762Y-6931667D01*
X9319286Y-6893571D01*
X9328810Y-6874524D01*
X9338333Y-6865000D01*
X9357381Y-6855476D01*
X9509762Y-7055476D02*
X9509762Y-6922143D01*
X9509762Y-6941190D02*
X9519286Y-6931667D01*
X9538333Y-6922143D01*
X9566905Y-6922143D01*
X9585952Y-6931667D01*
X9595476Y-6950714D01*
X9595476Y-7055476D01*
X9595476Y-6950714D02*
X9605000Y-6931667D01*
X9624048Y-6922143D01*
X9652619Y-6922143D01*
X9671667Y-6931667D01*
X9681190Y-6950714D01*
X9681190Y-7055476D01*
X9776429Y-7055476D02*
X9776429Y-6922143D01*
X9776429Y-6941190D02*
X9785952Y-6931667D01*
X9805000Y-6922143D01*
X9833571Y-6922143D01*
X9852619Y-6931667D01*
X9862143Y-6950714D01*
X9862143Y-7055476D01*
X9862143Y-6950714D02*
X9871667Y-6931667D01*
X9890714Y-6922143D01*
X9919286Y-6922143D01*
X9938333Y-6931667D01*
X9947857Y-6950714D01*
X9947857Y-7055476D01*
X10338333Y-6845952D02*
X10166905Y-7103095D01*
X10595476Y-6855476D02*
X10614524Y-6855476D01*
X10633571Y-6865000D01*
X10643095Y-6874524D01*
X10652619Y-6893571D01*
X10662143Y-6931667D01*
X10662143Y-6979286D01*
X10652619Y-7017381D01*
X10643095Y-7036428D01*
X10633571Y-7045952D01*
X10614524Y-7055476D01*
X10595476Y-7055476D01*
X10576429Y-7045952D01*
X10566905Y-7036428D01*
X10557381Y-7017381D01*
X10547857Y-6979286D01*
X10547857Y-6931667D01*
X10557381Y-6893571D01*
X10566905Y-6874524D01*
X10576429Y-6865000D01*
X10595476Y-6855476D01*
X10747857Y-7036428D02*
X10757381Y-7045952D01*
X10747857Y-7055476D01*
X10738333Y-7045952D01*
X10747857Y-7036428D01*
X10747857Y-7055476D01*
X10881190Y-6855476D02*
X10900238Y-6855476D01*
X10919286Y-6865000D01*
X10928810Y-6874524D01*
X10938333Y-6893571D01*
X10947857Y-6931667D01*
X10947857Y-6979286D01*
X10938333Y-7017381D01*
X10928810Y-7036428D01*
X10919286Y-7045952D01*
X10900238Y-7055476D01*
X10881190Y-7055476D01*
X10862143Y-7045952D01*
X10852619Y-7036428D01*
X10843095Y-7017381D01*
X10833571Y-6979286D01*
X10833571Y-6931667D01*
X10843095Y-6893571D01*
X10852619Y-6874524D01*
X10862143Y-6865000D01*
X10881190Y-6855476D01*
X11138333Y-7055476D02*
X11024048Y-7055476D01*
X11081190Y-7055476D02*
X11081190Y-6855476D01*
X11062143Y-6884048D01*
X11043095Y-6903095D01*
X11024048Y-6912619D01*
X11328809Y-7055476D02*
X11214524Y-7055476D01*
X11271667Y-7055476D02*
X11271667Y-6855476D01*
X11252619Y-6884048D01*
X11233571Y-6903095D01*
X11214524Y-6912619D01*
X11443095Y-6941190D02*
X11424048Y-6931667D01*
X11414524Y-6922143D01*
X11405000Y-6903095D01*
X11405000Y-6893571D01*
X11414524Y-6874524D01*
X11424048Y-6865000D01*
X11443095Y-6855476D01*
X11481190Y-6855476D01*
X11500238Y-6865000D01*
X11509762Y-6874524D01*
X11519286Y-6893571D01*
X11519286Y-6903095D01*
X11509762Y-6922143D01*
X11500238Y-6931667D01*
X11481190Y-6941190D01*
X11443095Y-6941190D01*
X11424048Y-6950714D01*
X11414524Y-6960238D01*
X11405000Y-6979286D01*
X11405000Y-7017381D01*
X11414524Y-7036428D01*
X11424048Y-7045952D01*
X11443095Y-7055476D01*
X11481190Y-7055476D01*
X11500238Y-7045952D01*
X11509762Y-7036428D01*
X11519286Y-7017381D01*
X11519286Y-6979286D01*
X11509762Y-6960238D01*
X11500238Y-6950714D01*
X11481190Y-6941190D01*
X11595476Y-6855476D02*
X11595476Y-6893571D01*
X11671667Y-6855476D02*
X11671667Y-6893571D01*
X11966905Y-7131667D02*
X11957381Y-7122143D01*
X11938333Y-7093571D01*
X11928809Y-7074524D01*
X11919286Y-7045952D01*
X11909762Y-6998333D01*
X11909762Y-6960238D01*
X11919286Y-6912619D01*
X11928809Y-6884048D01*
X11938333Y-6865000D01*
X11957381Y-6836428D01*
X11966905Y-6826905D01*
X12071667Y-6941190D02*
X12052619Y-6931667D01*
X12043095Y-6922143D01*
X12033571Y-6903095D01*
X12033571Y-6893571D01*
X12043095Y-6874524D01*
X12052619Y-6865000D01*
X12071667Y-6855476D01*
X12109762Y-6855476D01*
X12128809Y-6865000D01*
X12138333Y-6874524D01*
X12147857Y-6893571D01*
X12147857Y-6903095D01*
X12138333Y-6922143D01*
X12128809Y-6931667D01*
X12109762Y-6941190D01*
X12071667Y-6941190D01*
X12052619Y-6950714D01*
X12043095Y-6960238D01*
X12033571Y-6979286D01*
X12033571Y-7017381D01*
X12043095Y-7036428D01*
X12052619Y-7045952D01*
X12071667Y-7055476D01*
X12109762Y-7055476D01*
X12128809Y-7045952D01*
X12138333Y-7036428D01*
X12147857Y-7017381D01*
X12147857Y-6979286D01*
X12138333Y-6960238D01*
X12128809Y-6950714D01*
X12109762Y-6941190D01*
X12385952Y-7055476D02*
X12385952Y-6855476D01*
X12471667Y-7055476D02*
X12471667Y-6950714D01*
X12462143Y-6931667D01*
X12443095Y-6922143D01*
X12414524Y-6922143D01*
X12395476Y-6931667D01*
X12385952Y-6941190D01*
X12595476Y-7055476D02*
X12576428Y-7045952D01*
X12566905Y-7036428D01*
X12557381Y-7017381D01*
X12557381Y-6960238D01*
X12566905Y-6941190D01*
X12576428Y-6931667D01*
X12595476Y-6922143D01*
X12624048Y-6922143D01*
X12643095Y-6931667D01*
X12652619Y-6941190D01*
X12662143Y-6960238D01*
X12662143Y-7017381D01*
X12652619Y-7036428D01*
X12643095Y-7045952D01*
X12624048Y-7055476D01*
X12595476Y-7055476D01*
X12776428Y-7055476D02*
X12757381Y-7045952D01*
X12747857Y-7026905D01*
X12747857Y-6855476D01*
X12928809Y-7045952D02*
X12909762Y-7055476D01*
X12871667Y-7055476D01*
X12852619Y-7045952D01*
X12843095Y-7026905D01*
X12843095Y-6950714D01*
X12852619Y-6931667D01*
X12871667Y-6922143D01*
X12909762Y-6922143D01*
X12928809Y-6931667D01*
X12938333Y-6950714D01*
X12938333Y-6969762D01*
X12843095Y-6988809D01*
X13014524Y-7045952D02*
X13033571Y-7055476D01*
X13071667Y-7055476D01*
X13090714Y-7045952D01*
X13100238Y-7026905D01*
X13100238Y-7017381D01*
X13090714Y-6998333D01*
X13071667Y-6988809D01*
X13043095Y-6988809D01*
X13024048Y-6979286D01*
X13014524Y-6960238D01*
X13014524Y-6950714D01*
X13024048Y-6931667D01*
X13043095Y-6922143D01*
X13071667Y-6922143D01*
X13090714Y-6931667D01*
X13166905Y-7131667D02*
X13176428Y-7122143D01*
X13195476Y-7093571D01*
X13205000Y-7074524D01*
X13214524Y-7045952D01*
X13224048Y-6998333D01*
X13224048Y-6960238D01*
X13214524Y-6912619D01*
X13205000Y-6884048D01*
X13195476Y-6865000D01*
X13176428Y-6836428D01*
X13166905Y-6826905D01*
D13*
X8395000Y-7229000D02*
G75*
G03*
X8395000Y-7229000I-20000J0D01*
G01*
D11*
X8690714Y-7119476D02*
X8709762Y-7119476D01*
X8728810Y-7129000D01*
X8738333Y-7138524D01*
X8747857Y-7157571D01*
X8757381Y-7195667D01*
X8757381Y-7243286D01*
X8747857Y-7281381D01*
X8738333Y-7300428D01*
X8728810Y-7309952D01*
X8709762Y-7319476D01*
X8690714Y-7319476D01*
X8671667Y-7309952D01*
X8662143Y-7300428D01*
X8652619Y-7281381D01*
X8643095Y-7243286D01*
X8643095Y-7195667D01*
X8652619Y-7157571D01*
X8662143Y-7138524D01*
X8671667Y-7129000D01*
X8690714Y-7119476D01*
X8843095Y-7300428D02*
X8852619Y-7309952D01*
X8843095Y-7319476D01*
X8833571Y-7309952D01*
X8843095Y-7300428D01*
X8843095Y-7319476D01*
X9024048Y-7186143D02*
X9024048Y-7319476D01*
X8976429Y-7109952D02*
X8928810Y-7252809D01*
X9052619Y-7252809D01*
X9166905Y-7119476D02*
X9185952Y-7119476D01*
X9205000Y-7129000D01*
X9214524Y-7138524D01*
X9224048Y-7157571D01*
X9233571Y-7195667D01*
X9233571Y-7243286D01*
X9224048Y-7281381D01*
X9214524Y-7300428D01*
X9205000Y-7309952D01*
X9185952Y-7319476D01*
X9166905Y-7319476D01*
X9147857Y-7309952D01*
X9138333Y-7300428D01*
X9128810Y-7281381D01*
X9119286Y-7243286D01*
X9119286Y-7195667D01*
X9128810Y-7157571D01*
X9138333Y-7138524D01*
X9147857Y-7129000D01*
X9166905Y-7119476D01*
X9357381Y-7119476D02*
X9376429Y-7119476D01*
X9395476Y-7129000D01*
X9405000Y-7138524D01*
X9414524Y-7157571D01*
X9424048Y-7195667D01*
X9424048Y-7243286D01*
X9414524Y-7281381D01*
X9405000Y-7300428D01*
X9395476Y-7309952D01*
X9376429Y-7319476D01*
X9357381Y-7319476D01*
X9338333Y-7309952D01*
X9328810Y-7300428D01*
X9319286Y-7281381D01*
X9309762Y-7243286D01*
X9309762Y-7195667D01*
X9319286Y-7157571D01*
X9328810Y-7138524D01*
X9338333Y-7129000D01*
X9357381Y-7119476D01*
X9509762Y-7319476D02*
X9509762Y-7186143D01*
X9509762Y-7205190D02*
X9519286Y-7195667D01*
X9538333Y-7186143D01*
X9566905Y-7186143D01*
X9585952Y-7195667D01*
X9595476Y-7214714D01*
X9595476Y-7319476D01*
X9595476Y-7214714D02*
X9605000Y-7195667D01*
X9624048Y-7186143D01*
X9652619Y-7186143D01*
X9671667Y-7195667D01*
X9681190Y-7214714D01*
X9681190Y-7319476D01*
X9776429Y-7319476D02*
X9776429Y-7186143D01*
X9776429Y-7205190D02*
X9785952Y-7195667D01*
X9805000Y-7186143D01*
X9833571Y-7186143D01*
X9852619Y-7195667D01*
X9862143Y-7214714D01*
X9862143Y-7319476D01*
X9862143Y-7214714D02*
X9871667Y-7195667D01*
X9890714Y-7186143D01*
X9919286Y-7186143D01*
X9938333Y-7195667D01*
X9947857Y-7214714D01*
X9947857Y-7319476D01*
X10338333Y-7109952D02*
X10166905Y-7367095D01*
X10595476Y-7119476D02*
X10614524Y-7119476D01*
X10633571Y-7129000D01*
X10643095Y-7138524D01*
X10652619Y-7157571D01*
X10662143Y-7195667D01*
X10662143Y-7243286D01*
X10652619Y-7281381D01*
X10643095Y-7300428D01*
X10633571Y-7309952D01*
X10614524Y-7319476D01*
X10595476Y-7319476D01*
X10576429Y-7309952D01*
X10566905Y-7300428D01*
X10557381Y-7281381D01*
X10547857Y-7243286D01*
X10547857Y-7195667D01*
X10557381Y-7157571D01*
X10566905Y-7138524D01*
X10576429Y-7129000D01*
X10595476Y-7119476D01*
X10747857Y-7300428D02*
X10757381Y-7309952D01*
X10747857Y-7319476D01*
X10738333Y-7309952D01*
X10747857Y-7300428D01*
X10747857Y-7319476D01*
X10881190Y-7119476D02*
X10900238Y-7119476D01*
X10919286Y-7129000D01*
X10928810Y-7138524D01*
X10938333Y-7157571D01*
X10947857Y-7195667D01*
X10947857Y-7243286D01*
X10938333Y-7281381D01*
X10928810Y-7300428D01*
X10919286Y-7309952D01*
X10900238Y-7319476D01*
X10881190Y-7319476D01*
X10862143Y-7309952D01*
X10852619Y-7300428D01*
X10843095Y-7281381D01*
X10833571Y-7243286D01*
X10833571Y-7195667D01*
X10843095Y-7157571D01*
X10852619Y-7138524D01*
X10862143Y-7129000D01*
X10881190Y-7119476D01*
X11138333Y-7319476D02*
X11024048Y-7319476D01*
X11081190Y-7319476D02*
X11081190Y-7119476D01*
X11062143Y-7148048D01*
X11043095Y-7167095D01*
X11024048Y-7176619D01*
X11319286Y-7119476D02*
X11224048Y-7119476D01*
X11214524Y-7214714D01*
X11224048Y-7205190D01*
X11243095Y-7195667D01*
X11290714Y-7195667D01*
X11309762Y-7205190D01*
X11319286Y-7214714D01*
X11328809Y-7233762D01*
X11328809Y-7281381D01*
X11319286Y-7300428D01*
X11309762Y-7309952D01*
X11290714Y-7319476D01*
X11243095Y-7319476D01*
X11224048Y-7309952D01*
X11214524Y-7300428D01*
X11395476Y-7119476D02*
X11528809Y-7119476D01*
X11443095Y-7319476D01*
X11595476Y-7119476D02*
X11595476Y-7157571D01*
X11671667Y-7119476D02*
X11671667Y-7157571D01*
X11966905Y-7395667D02*
X11957381Y-7386143D01*
X11938333Y-7357571D01*
X11928809Y-7338524D01*
X11919286Y-7309952D01*
X11909762Y-7262333D01*
X11909762Y-7224238D01*
X11919286Y-7176619D01*
X11928809Y-7148048D01*
X11938333Y-7129000D01*
X11957381Y-7100428D01*
X11966905Y-7090905D01*
X12147857Y-7319476D02*
X12033571Y-7319476D01*
X12090714Y-7319476D02*
X12090714Y-7119476D01*
X12071667Y-7148048D01*
X12052619Y-7167095D01*
X12033571Y-7176619D01*
X12214524Y-7119476D02*
X12347857Y-7119476D01*
X12262143Y-7319476D01*
X12576428Y-7319476D02*
X12576428Y-7119476D01*
X12662143Y-7319476D02*
X12662143Y-7214714D01*
X12652619Y-7195667D01*
X12633571Y-7186143D01*
X12605000Y-7186143D01*
X12585952Y-7195667D01*
X12576428Y-7205190D01*
X12785952Y-7319476D02*
X12766905Y-7309952D01*
X12757381Y-7300428D01*
X12747857Y-7281381D01*
X12747857Y-7224238D01*
X12757381Y-7205190D01*
X12766905Y-7195667D01*
X12785952Y-7186143D01*
X12814524Y-7186143D01*
X12833571Y-7195667D01*
X12843095Y-7205190D01*
X12852619Y-7224238D01*
X12852619Y-7281381D01*
X12843095Y-7300428D01*
X12833571Y-7309952D01*
X12814524Y-7319476D01*
X12785952Y-7319476D01*
X12966905Y-7319476D02*
X12947857Y-7309952D01*
X12938333Y-7290905D01*
X12938333Y-7119476D01*
X13119286Y-7309952D02*
X13100238Y-7319476D01*
X13062143Y-7319476D01*
X13043095Y-7309952D01*
X13033571Y-7290905D01*
X13033571Y-7214714D01*
X13043095Y-7195667D01*
X13062143Y-7186143D01*
X13100238Y-7186143D01*
X13119286Y-7195667D01*
X13128809Y-7214714D01*
X13128809Y-7233762D01*
X13033571Y-7252809D01*
X13205000Y-7309952D02*
X13224048Y-7319476D01*
X13262143Y-7319476D01*
X13281190Y-7309952D01*
X13290714Y-7290905D01*
X13290714Y-7281381D01*
X13281190Y-7262333D01*
X13262143Y-7252809D01*
X13233571Y-7252809D01*
X13214524Y-7243286D01*
X13205000Y-7224238D01*
X13205000Y-7214714D01*
X13214524Y-7195667D01*
X13233571Y-7186143D01*
X13262143Y-7186143D01*
X13281190Y-7195667D01*
X13357381Y-7395667D02*
X13366905Y-7386143D01*
X13385952Y-7357571D01*
X13395476Y-7338524D01*
X13405000Y-7309952D01*
X13414524Y-7262333D01*
X13414524Y-7224238D01*
X13405000Y-7176619D01*
X13395476Y-7148048D01*
X13385952Y-7129000D01*
X13366905Y-7100428D01*
X13357381Y-7090905D01*
D14*
X8355000Y-7453000D02*
X8355000Y-7533000D01*
X8315000Y-7493000D02*
X8395000Y-7493000D01*
D11*
X8690714Y-7383476D02*
X8709762Y-7383476D01*
X8728810Y-7393000D01*
X8738333Y-7402524D01*
X8747857Y-7421571D01*
X8757381Y-7459667D01*
X8757381Y-7507286D01*
X8747857Y-7545381D01*
X8738333Y-7564428D01*
X8728810Y-7573952D01*
X8709762Y-7583476D01*
X8690714Y-7583476D01*
X8671667Y-7573952D01*
X8662143Y-7564428D01*
X8652619Y-7545381D01*
X8643095Y-7507286D01*
X8643095Y-7459667D01*
X8652619Y-7421571D01*
X8662143Y-7402524D01*
X8671667Y-7393000D01*
X8690714Y-7383476D01*
X8843095Y-7564428D02*
X8852619Y-7573952D01*
X8843095Y-7583476D01*
X8833571Y-7573952D01*
X8843095Y-7564428D01*
X8843095Y-7583476D01*
X8966905Y-7469190D02*
X8947857Y-7459667D01*
X8938333Y-7450143D01*
X8928810Y-7431095D01*
X8928810Y-7421571D01*
X8938333Y-7402524D01*
X8947857Y-7393000D01*
X8966905Y-7383476D01*
X9005000Y-7383476D01*
X9024048Y-7393000D01*
X9033571Y-7402524D01*
X9043095Y-7421571D01*
X9043095Y-7431095D01*
X9033571Y-7450143D01*
X9024048Y-7459667D01*
X9005000Y-7469190D01*
X8966905Y-7469190D01*
X8947857Y-7478714D01*
X8938333Y-7488238D01*
X8928810Y-7507286D01*
X8928810Y-7545381D01*
X8938333Y-7564428D01*
X8947857Y-7573952D01*
X8966905Y-7583476D01*
X9005000Y-7583476D01*
X9024048Y-7573952D01*
X9033571Y-7564428D01*
X9043095Y-7545381D01*
X9043095Y-7507286D01*
X9033571Y-7488238D01*
X9024048Y-7478714D01*
X9005000Y-7469190D01*
X9166905Y-7383476D02*
X9185952Y-7383476D01*
X9205000Y-7393000D01*
X9214524Y-7402524D01*
X9224048Y-7421571D01*
X9233571Y-7459667D01*
X9233571Y-7507286D01*
X9224048Y-7545381D01*
X9214524Y-7564428D01*
X9205000Y-7573952D01*
X9185952Y-7583476D01*
X9166905Y-7583476D01*
X9147857Y-7573952D01*
X9138333Y-7564428D01*
X9128810Y-7545381D01*
X9119286Y-7507286D01*
X9119286Y-7459667D01*
X9128810Y-7421571D01*
X9138333Y-7402524D01*
X9147857Y-7393000D01*
X9166905Y-7383476D01*
X9357381Y-7383476D02*
X9376429Y-7383476D01*
X9395476Y-7393000D01*
X9405000Y-7402524D01*
X9414524Y-7421571D01*
X9424048Y-7459667D01*
X9424048Y-7507286D01*
X9414524Y-7545381D01*
X9405000Y-7564428D01*
X9395476Y-7573952D01*
X9376429Y-7583476D01*
X9357381Y-7583476D01*
X9338333Y-7573952D01*
X9328810Y-7564428D01*
X9319286Y-7545381D01*
X9309762Y-7507286D01*
X9309762Y-7459667D01*
X9319286Y-7421571D01*
X9328810Y-7402524D01*
X9338333Y-7393000D01*
X9357381Y-7383476D01*
X9509762Y-7583476D02*
X9509762Y-7450143D01*
X9509762Y-7469190D02*
X9519286Y-7459667D01*
X9538333Y-7450143D01*
X9566905Y-7450143D01*
X9585952Y-7459667D01*
X9595476Y-7478714D01*
X9595476Y-7583476D01*
X9595476Y-7478714D02*
X9605000Y-7459667D01*
X9624048Y-7450143D01*
X9652619Y-7450143D01*
X9671667Y-7459667D01*
X9681190Y-7478714D01*
X9681190Y-7583476D01*
X9776429Y-7583476D02*
X9776429Y-7450143D01*
X9776429Y-7469190D02*
X9785952Y-7459667D01*
X9805000Y-7450143D01*
X9833571Y-7450143D01*
X9852619Y-7459667D01*
X9862143Y-7478714D01*
X9862143Y-7583476D01*
X9862143Y-7478714D02*
X9871667Y-7459667D01*
X9890714Y-7450143D01*
X9919286Y-7450143D01*
X9938333Y-7459667D01*
X9947857Y-7478714D01*
X9947857Y-7583476D01*
X10338333Y-7373952D02*
X10166905Y-7631095D01*
X10595476Y-7383476D02*
X10614524Y-7383476D01*
X10633571Y-7393000D01*
X10643095Y-7402524D01*
X10652619Y-7421571D01*
X10662143Y-7459667D01*
X10662143Y-7507286D01*
X10652619Y-7545381D01*
X10643095Y-7564428D01*
X10633571Y-7573952D01*
X10614524Y-7583476D01*
X10595476Y-7583476D01*
X10576429Y-7573952D01*
X10566905Y-7564428D01*
X10557381Y-7545381D01*
X10547857Y-7507286D01*
X10547857Y-7459667D01*
X10557381Y-7421571D01*
X10566905Y-7402524D01*
X10576429Y-7393000D01*
X10595476Y-7383476D01*
X10747857Y-7564428D02*
X10757381Y-7573952D01*
X10747857Y-7583476D01*
X10738333Y-7573952D01*
X10747857Y-7564428D01*
X10747857Y-7583476D01*
X10881190Y-7383476D02*
X10900238Y-7383476D01*
X10919286Y-7393000D01*
X10928810Y-7402524D01*
X10938333Y-7421571D01*
X10947857Y-7459667D01*
X10947857Y-7507286D01*
X10938333Y-7545381D01*
X10928810Y-7564428D01*
X10919286Y-7573952D01*
X10900238Y-7583476D01*
X10881190Y-7583476D01*
X10862143Y-7573952D01*
X10852619Y-7564428D01*
X10843095Y-7545381D01*
X10833571Y-7507286D01*
X10833571Y-7459667D01*
X10843095Y-7421571D01*
X10852619Y-7402524D01*
X10862143Y-7393000D01*
X10881190Y-7383476D01*
X11014524Y-7383476D02*
X11138333Y-7383476D01*
X11071667Y-7459667D01*
X11100238Y-7459667D01*
X11119286Y-7469190D01*
X11128810Y-7478714D01*
X11138333Y-7497762D01*
X11138333Y-7545381D01*
X11128810Y-7564428D01*
X11119286Y-7573952D01*
X11100238Y-7583476D01*
X11043095Y-7583476D01*
X11024048Y-7573952D01*
X11014524Y-7564428D01*
X11328809Y-7583476D02*
X11214524Y-7583476D01*
X11271667Y-7583476D02*
X11271667Y-7383476D01*
X11252619Y-7412048D01*
X11233571Y-7431095D01*
X11214524Y-7440619D01*
X11509762Y-7383476D02*
X11414524Y-7383476D01*
X11405000Y-7478714D01*
X11414524Y-7469190D01*
X11433571Y-7459667D01*
X11481190Y-7459667D01*
X11500238Y-7469190D01*
X11509762Y-7478714D01*
X11519286Y-7497762D01*
X11519286Y-7545381D01*
X11509762Y-7564428D01*
X11500238Y-7573952D01*
X11481190Y-7583476D01*
X11433571Y-7583476D01*
X11414524Y-7573952D01*
X11405000Y-7564428D01*
X11595476Y-7383476D02*
X11595476Y-7421571D01*
X11671667Y-7383476D02*
X11671667Y-7421571D01*
X11966905Y-7659667D02*
X11957381Y-7650143D01*
X11938333Y-7621571D01*
X11928809Y-7602524D01*
X11919286Y-7573952D01*
X11909762Y-7526333D01*
X11909762Y-7488238D01*
X11919286Y-7440619D01*
X11928809Y-7412048D01*
X11938333Y-7393000D01*
X11957381Y-7364428D01*
X11966905Y-7354905D01*
X12033571Y-7402524D02*
X12043095Y-7393000D01*
X12062143Y-7383476D01*
X12109762Y-7383476D01*
X12128809Y-7393000D01*
X12138333Y-7402524D01*
X12147857Y-7421571D01*
X12147857Y-7440619D01*
X12138333Y-7469190D01*
X12024048Y-7583476D01*
X12147857Y-7583476D01*
X12385952Y-7583476D02*
X12385952Y-7383476D01*
X12471667Y-7583476D02*
X12471667Y-7478714D01*
X12462143Y-7459667D01*
X12443095Y-7450143D01*
X12414524Y-7450143D01*
X12395476Y-7459667D01*
X12385952Y-7469190D01*
X12595476Y-7583476D02*
X12576428Y-7573952D01*
X12566905Y-7564428D01*
X12557381Y-7545381D01*
X12557381Y-7488238D01*
X12566905Y-7469190D01*
X12576428Y-7459667D01*
X12595476Y-7450143D01*
X12624048Y-7450143D01*
X12643095Y-7459667D01*
X12652619Y-7469190D01*
X12662143Y-7488238D01*
X12662143Y-7545381D01*
X12652619Y-7564428D01*
X12643095Y-7573952D01*
X12624048Y-7583476D01*
X12595476Y-7583476D01*
X12776428Y-7583476D02*
X12757381Y-7573952D01*
X12747857Y-7554905D01*
X12747857Y-7383476D01*
X12928809Y-7573952D02*
X12909762Y-7583476D01*
X12871667Y-7583476D01*
X12852619Y-7573952D01*
X12843095Y-7554905D01*
X12843095Y-7478714D01*
X12852619Y-7459667D01*
X12871667Y-7450143D01*
X12909762Y-7450143D01*
X12928809Y-7459667D01*
X12938333Y-7478714D01*
X12938333Y-7497762D01*
X12843095Y-7516809D01*
X13014524Y-7573952D02*
X13033571Y-7583476D01*
X13071667Y-7583476D01*
X13090714Y-7573952D01*
X13100238Y-7554905D01*
X13100238Y-7545381D01*
X13090714Y-7526333D01*
X13071667Y-7516809D01*
X13043095Y-7516809D01*
X13024048Y-7507286D01*
X13014524Y-7488238D01*
X13014524Y-7478714D01*
X13024048Y-7459667D01*
X13043095Y-7450143D01*
X13071667Y-7450143D01*
X13090714Y-7459667D01*
X13166905Y-7659667D02*
X13176428Y-7650143D01*
X13195476Y-7621571D01*
X13205000Y-7602524D01*
X13214524Y-7573952D01*
X13224048Y-7526333D01*
X13224048Y-7488238D01*
X13214524Y-7440619D01*
X13205000Y-7412048D01*
X13195476Y-7393000D01*
X13176428Y-7364428D01*
X13166905Y-7354905D01*
D10*
X8380356Y-7792356D02*
X8380356Y-7721644D01*
X8309644Y-7721644D01*
X8309644Y-7792356D01*
X8380356Y-7792356D01*
D11*
X8757381Y-7847476D02*
X8643095Y-7847476D01*
X8700238Y-7847476D02*
X8700238Y-7647476D01*
X8681190Y-7676048D01*
X8662143Y-7695095D01*
X8643095Y-7704619D01*
X8843095Y-7828428D02*
X8852619Y-7837952D01*
X8843095Y-7847476D01*
X8833571Y-7837952D01*
X8843095Y-7828428D01*
X8843095Y-7847476D01*
X8976429Y-7647476D02*
X8995476Y-7647476D01*
X9014524Y-7657000D01*
X9024048Y-7666524D01*
X9033571Y-7685571D01*
X9043095Y-7723667D01*
X9043095Y-7771286D01*
X9033571Y-7809381D01*
X9024048Y-7828428D01*
X9014524Y-7837952D01*
X8995476Y-7847476D01*
X8976429Y-7847476D01*
X8957381Y-7837952D01*
X8947857Y-7828428D01*
X8938333Y-7809381D01*
X8928810Y-7771286D01*
X8928810Y-7723667D01*
X8938333Y-7685571D01*
X8947857Y-7666524D01*
X8957381Y-7657000D01*
X8976429Y-7647476D01*
X9166905Y-7647476D02*
X9185952Y-7647476D01*
X9205000Y-7657000D01*
X9214524Y-7666524D01*
X9224048Y-7685571D01*
X9233571Y-7723667D01*
X9233571Y-7771286D01*
X9224048Y-7809381D01*
X9214524Y-7828428D01*
X9205000Y-7837952D01*
X9185952Y-7847476D01*
X9166905Y-7847476D01*
X9147857Y-7837952D01*
X9138333Y-7828428D01*
X9128810Y-7809381D01*
X9119286Y-7771286D01*
X9119286Y-7723667D01*
X9128810Y-7685571D01*
X9138333Y-7666524D01*
X9147857Y-7657000D01*
X9166905Y-7647476D01*
X9357381Y-7647476D02*
X9376429Y-7647476D01*
X9395476Y-7657000D01*
X9405000Y-7666524D01*
X9414524Y-7685571D01*
X9424048Y-7723667D01*
X9424048Y-7771286D01*
X9414524Y-7809381D01*
X9405000Y-7828428D01*
X9395476Y-7837952D01*
X9376429Y-7847476D01*
X9357381Y-7847476D01*
X9338333Y-7837952D01*
X9328810Y-7828428D01*
X9319286Y-7809381D01*
X9309762Y-7771286D01*
X9309762Y-7723667D01*
X9319286Y-7685571D01*
X9328810Y-7666524D01*
X9338333Y-7657000D01*
X9357381Y-7647476D01*
X9509762Y-7847476D02*
X9509762Y-7714143D01*
X9509762Y-7733190D02*
X9519286Y-7723667D01*
X9538333Y-7714143D01*
X9566905Y-7714143D01*
X9585952Y-7723667D01*
X9595476Y-7742714D01*
X9595476Y-7847476D01*
X9595476Y-7742714D02*
X9605000Y-7723667D01*
X9624048Y-7714143D01*
X9652619Y-7714143D01*
X9671667Y-7723667D01*
X9681190Y-7742714D01*
X9681190Y-7847476D01*
X9776429Y-7847476D02*
X9776429Y-7714143D01*
X9776429Y-7733190D02*
X9785952Y-7723667D01*
X9805000Y-7714143D01*
X9833571Y-7714143D01*
X9852619Y-7723667D01*
X9862143Y-7742714D01*
X9862143Y-7847476D01*
X9862143Y-7742714D02*
X9871667Y-7723667D01*
X9890714Y-7714143D01*
X9919286Y-7714143D01*
X9938333Y-7723667D01*
X9947857Y-7742714D01*
X9947857Y-7847476D01*
X10338333Y-7637952D02*
X10166905Y-7895095D01*
X10595476Y-7647476D02*
X10614524Y-7647476D01*
X10633571Y-7657000D01*
X10643095Y-7666524D01*
X10652619Y-7685571D01*
X10662143Y-7723667D01*
X10662143Y-7771286D01*
X10652619Y-7809381D01*
X10643095Y-7828428D01*
X10633571Y-7837952D01*
X10614524Y-7847476D01*
X10595476Y-7847476D01*
X10576429Y-7837952D01*
X10566905Y-7828428D01*
X10557381Y-7809381D01*
X10547857Y-7771286D01*
X10547857Y-7723667D01*
X10557381Y-7685571D01*
X10566905Y-7666524D01*
X10576429Y-7657000D01*
X10595476Y-7647476D01*
X10747857Y-7828428D02*
X10757381Y-7837952D01*
X10747857Y-7847476D01*
X10738333Y-7837952D01*
X10747857Y-7828428D01*
X10747857Y-7847476D01*
X10881190Y-7647476D02*
X10900238Y-7647476D01*
X10919286Y-7657000D01*
X10928810Y-7666524D01*
X10938333Y-7685571D01*
X10947857Y-7723667D01*
X10947857Y-7771286D01*
X10938333Y-7809381D01*
X10928810Y-7828428D01*
X10919286Y-7837952D01*
X10900238Y-7847476D01*
X10881190Y-7847476D01*
X10862143Y-7837952D01*
X10852619Y-7828428D01*
X10843095Y-7809381D01*
X10833571Y-7771286D01*
X10833571Y-7723667D01*
X10843095Y-7685571D01*
X10852619Y-7666524D01*
X10862143Y-7657000D01*
X10881190Y-7647476D01*
X11014524Y-7647476D02*
X11138333Y-7647476D01*
X11071667Y-7723667D01*
X11100238Y-7723667D01*
X11119286Y-7733190D01*
X11128810Y-7742714D01*
X11138333Y-7761762D01*
X11138333Y-7809381D01*
X11128810Y-7828428D01*
X11119286Y-7837952D01*
X11100238Y-7847476D01*
X11043095Y-7847476D01*
X11024048Y-7837952D01*
X11014524Y-7828428D01*
X11233571Y-7847476D02*
X11271667Y-7847476D01*
X11290714Y-7837952D01*
X11300238Y-7828428D01*
X11319286Y-7799857D01*
X11328809Y-7761762D01*
X11328809Y-7685571D01*
X11319286Y-7666524D01*
X11309762Y-7657000D01*
X11290714Y-7647476D01*
X11252619Y-7647476D01*
X11233571Y-7657000D01*
X11224048Y-7666524D01*
X11214524Y-7685571D01*
X11214524Y-7733190D01*
X11224048Y-7752238D01*
X11233571Y-7761762D01*
X11252619Y-7771286D01*
X11290714Y-7771286D01*
X11309762Y-7761762D01*
X11319286Y-7752238D01*
X11328809Y-7733190D01*
X11500238Y-7714143D02*
X11500238Y-7847476D01*
X11452619Y-7637952D02*
X11405000Y-7780809D01*
X11528809Y-7780809D01*
X11595476Y-7647476D02*
X11595476Y-7685571D01*
X11671667Y-7647476D02*
X11671667Y-7685571D01*
X11966905Y-7923667D02*
X11957381Y-7914143D01*
X11938333Y-7885571D01*
X11928809Y-7866524D01*
X11919286Y-7837952D01*
X11909762Y-7790333D01*
X11909762Y-7752238D01*
X11919286Y-7704619D01*
X11928809Y-7676048D01*
X11938333Y-7657000D01*
X11957381Y-7628428D01*
X11966905Y-7618905D01*
X12147857Y-7847476D02*
X12033571Y-7847476D01*
X12090714Y-7847476D02*
X12090714Y-7647476D01*
X12071667Y-7676048D01*
X12052619Y-7695095D01*
X12033571Y-7704619D01*
X12214524Y-7647476D02*
X12338333Y-7647476D01*
X12271667Y-7723667D01*
X12300238Y-7723667D01*
X12319286Y-7733190D01*
X12328809Y-7742714D01*
X12338333Y-7761762D01*
X12338333Y-7809381D01*
X12328809Y-7828428D01*
X12319286Y-7837952D01*
X12300238Y-7847476D01*
X12243095Y-7847476D01*
X12224048Y-7837952D01*
X12214524Y-7828428D01*
X12576428Y-7847476D02*
X12576428Y-7647476D01*
X12662143Y-7847476D02*
X12662143Y-7742714D01*
X12652619Y-7723667D01*
X12633571Y-7714143D01*
X12605000Y-7714143D01*
X12585952Y-7723667D01*
X12576428Y-7733190D01*
X12785952Y-7847476D02*
X12766905Y-7837952D01*
X12757381Y-7828428D01*
X12747857Y-7809381D01*
X12747857Y-7752238D01*
X12757381Y-7733190D01*
X12766905Y-7723667D01*
X12785952Y-7714143D01*
X12814524Y-7714143D01*
X12833571Y-7723667D01*
X12843095Y-7733190D01*
X12852619Y-7752238D01*
X12852619Y-7809381D01*
X12843095Y-7828428D01*
X12833571Y-7837952D01*
X12814524Y-7847476D01*
X12785952Y-7847476D01*
X12966905Y-7847476D02*
X12947857Y-7837952D01*
X12938333Y-7818905D01*
X12938333Y-7647476D01*
X13119286Y-7837952D02*
X13100238Y-7847476D01*
X13062143Y-7847476D01*
X13043095Y-7837952D01*
X13033571Y-7818905D01*
X13033571Y-7742714D01*
X13043095Y-7723667D01*
X13062143Y-7714143D01*
X13100238Y-7714143D01*
X13119286Y-7723667D01*
X13128809Y-7742714D01*
X13128809Y-7761762D01*
X13033571Y-7780809D01*
X13205000Y-7837952D02*
X13224048Y-7847476D01*
X13262143Y-7847476D01*
X13281190Y-7837952D01*
X13290714Y-7818905D01*
X13290714Y-7809381D01*
X13281190Y-7790333D01*
X13262143Y-7780809D01*
X13233571Y-7780809D01*
X13214524Y-7771286D01*
X13205000Y-7752238D01*
X13205000Y-7742714D01*
X13214524Y-7723667D01*
X13233571Y-7714143D01*
X13262143Y-7714143D01*
X13281190Y-7723667D01*
X13357381Y-7923667D02*
X13366905Y-7914143D01*
X13385952Y-7885571D01*
X13395476Y-7866524D01*
X13405000Y-7837952D01*
X13414524Y-7790333D01*
X13414524Y-7752238D01*
X13405000Y-7704619D01*
X13395476Y-7676048D01*
X13385952Y-7657000D01*
X13366905Y-7628428D01*
X13357381Y-7618905D01*
X8295000Y-8121000D02*
X8395000Y-8021000D01*
X8295000Y-7921000D01*
X8195000Y-8021000D01*
X8295000Y-8121000D01*
X8643095Y-7930524D02*
X8652619Y-7921000D01*
X8671667Y-7911476D01*
X8719286Y-7911476D01*
X8738333Y-7921000D01*
X8747857Y-7930524D01*
X8757381Y-7949571D01*
X8757381Y-7968619D01*
X8747857Y-7997190D01*
X8633571Y-8111476D01*
X8757381Y-8111476D01*
X8843095Y-8092428D02*
X8852619Y-8101952D01*
X8843095Y-8111476D01*
X8833571Y-8101952D01*
X8843095Y-8092428D01*
X8843095Y-8111476D01*
X9033571Y-7911476D02*
X8938333Y-7911476D01*
X8928810Y-8006714D01*
X8938333Y-7997190D01*
X8957381Y-7987667D01*
X9005000Y-7987667D01*
X9024048Y-7997190D01*
X9033571Y-8006714D01*
X9043095Y-8025762D01*
X9043095Y-8073381D01*
X9033571Y-8092428D01*
X9024048Y-8101952D01*
X9005000Y-8111476D01*
X8957381Y-8111476D01*
X8938333Y-8101952D01*
X8928810Y-8092428D01*
X9166905Y-7911476D02*
X9185952Y-7911476D01*
X9205000Y-7921000D01*
X9214524Y-7930524D01*
X9224048Y-7949571D01*
X9233571Y-7987667D01*
X9233571Y-8035286D01*
X9224048Y-8073381D01*
X9214524Y-8092428D01*
X9205000Y-8101952D01*
X9185952Y-8111476D01*
X9166905Y-8111476D01*
X9147857Y-8101952D01*
X9138333Y-8092428D01*
X9128810Y-8073381D01*
X9119286Y-8035286D01*
X9119286Y-7987667D01*
X9128810Y-7949571D01*
X9138333Y-7930524D01*
X9147857Y-7921000D01*
X9166905Y-7911476D01*
X9357381Y-7911476D02*
X9376429Y-7911476D01*
X9395476Y-7921000D01*
X9405000Y-7930524D01*
X9414524Y-7949571D01*
X9424048Y-7987667D01*
X9424048Y-8035286D01*
X9414524Y-8073381D01*
X9405000Y-8092428D01*
X9395476Y-8101952D01*
X9376429Y-8111476D01*
X9357381Y-8111476D01*
X9338333Y-8101952D01*
X9328810Y-8092428D01*
X9319286Y-8073381D01*
X9309762Y-8035286D01*
X9309762Y-7987667D01*
X9319286Y-7949571D01*
X9328810Y-7930524D01*
X9338333Y-7921000D01*
X9357381Y-7911476D01*
X9509762Y-8111476D02*
X9509762Y-7978143D01*
X9509762Y-7997190D02*
X9519286Y-7987667D01*
X9538333Y-7978143D01*
X9566905Y-7978143D01*
X9585952Y-7987667D01*
X9595476Y-8006714D01*
X9595476Y-8111476D01*
X9595476Y-8006714D02*
X9605000Y-7987667D01*
X9624048Y-7978143D01*
X9652619Y-7978143D01*
X9671667Y-7987667D01*
X9681190Y-8006714D01*
X9681190Y-8111476D01*
X9776429Y-8111476D02*
X9776429Y-7978143D01*
X9776429Y-7997190D02*
X9785952Y-7987667D01*
X9805000Y-7978143D01*
X9833571Y-7978143D01*
X9852619Y-7987667D01*
X9862143Y-8006714D01*
X9862143Y-8111476D01*
X9862143Y-8006714D02*
X9871667Y-7987667D01*
X9890714Y-7978143D01*
X9919286Y-7978143D01*
X9938333Y-7987667D01*
X9947857Y-8006714D01*
X9947857Y-8111476D01*
X10338333Y-7901952D02*
X10166905Y-8159095D01*
X10595476Y-7911476D02*
X10614524Y-7911476D01*
X10633571Y-7921000D01*
X10643095Y-7930524D01*
X10652619Y-7949571D01*
X10662143Y-7987667D01*
X10662143Y-8035286D01*
X10652619Y-8073381D01*
X10643095Y-8092428D01*
X10633571Y-8101952D01*
X10614524Y-8111476D01*
X10595476Y-8111476D01*
X10576429Y-8101952D01*
X10566905Y-8092428D01*
X10557381Y-8073381D01*
X10547857Y-8035286D01*
X10547857Y-7987667D01*
X10557381Y-7949571D01*
X10566905Y-7930524D01*
X10576429Y-7921000D01*
X10595476Y-7911476D01*
X10747857Y-8092428D02*
X10757381Y-8101952D01*
X10747857Y-8111476D01*
X10738333Y-8101952D01*
X10747857Y-8092428D01*
X10747857Y-8111476D01*
X10881190Y-7911476D02*
X10900238Y-7911476D01*
X10919286Y-7921000D01*
X10928810Y-7930524D01*
X10938333Y-7949571D01*
X10947857Y-7987667D01*
X10947857Y-8035286D01*
X10938333Y-8073381D01*
X10928810Y-8092428D01*
X10919286Y-8101952D01*
X10900238Y-8111476D01*
X10881190Y-8111476D01*
X10862143Y-8101952D01*
X10852619Y-8092428D01*
X10843095Y-8073381D01*
X10833571Y-8035286D01*
X10833571Y-7987667D01*
X10843095Y-7949571D01*
X10852619Y-7930524D01*
X10862143Y-7921000D01*
X10881190Y-7911476D01*
X11043095Y-8111476D02*
X11081190Y-8111476D01*
X11100238Y-8101952D01*
X11109762Y-8092428D01*
X11128810Y-8063857D01*
X11138333Y-8025762D01*
X11138333Y-7949571D01*
X11128810Y-7930524D01*
X11119286Y-7921000D01*
X11100238Y-7911476D01*
X11062143Y-7911476D01*
X11043095Y-7921000D01*
X11033571Y-7930524D01*
X11024048Y-7949571D01*
X11024048Y-7997190D01*
X11033571Y-8016238D01*
X11043095Y-8025762D01*
X11062143Y-8035286D01*
X11100238Y-8035286D01*
X11119286Y-8025762D01*
X11128810Y-8016238D01*
X11138333Y-7997190D01*
X11252619Y-7997190D02*
X11233571Y-7987667D01*
X11224048Y-7978143D01*
X11214524Y-7959095D01*
X11214524Y-7949571D01*
X11224048Y-7930524D01*
X11233571Y-7921000D01*
X11252619Y-7911476D01*
X11290714Y-7911476D01*
X11309762Y-7921000D01*
X11319286Y-7930524D01*
X11328809Y-7949571D01*
X11328809Y-7959095D01*
X11319286Y-7978143D01*
X11309762Y-7987667D01*
X11290714Y-7997190D01*
X11252619Y-7997190D01*
X11233571Y-8006714D01*
X11224048Y-8016238D01*
X11214524Y-8035286D01*
X11214524Y-8073381D01*
X11224048Y-8092428D01*
X11233571Y-8101952D01*
X11252619Y-8111476D01*
X11290714Y-8111476D01*
X11309762Y-8101952D01*
X11319286Y-8092428D01*
X11328809Y-8073381D01*
X11328809Y-8035286D01*
X11319286Y-8016238D01*
X11309762Y-8006714D01*
X11290714Y-7997190D01*
X11500238Y-7978143D02*
X11500238Y-8111476D01*
X11452619Y-7901952D02*
X11405000Y-8044809D01*
X11528809Y-8044809D01*
X11595476Y-7911476D02*
X11595476Y-7949571D01*
X11671667Y-7911476D02*
X11671667Y-7949571D01*
X11966905Y-8187667D02*
X11957381Y-8178143D01*
X11938333Y-8149571D01*
X11928809Y-8130524D01*
X11919286Y-8101952D01*
X11909762Y-8054333D01*
X11909762Y-8016238D01*
X11919286Y-7968619D01*
X11928809Y-7940048D01*
X11938333Y-7921000D01*
X11957381Y-7892428D01*
X11966905Y-7882905D01*
X12033571Y-7930524D02*
X12043095Y-7921000D01*
X12062143Y-7911476D01*
X12109762Y-7911476D01*
X12128809Y-7921000D01*
X12138333Y-7930524D01*
X12147857Y-7949571D01*
X12147857Y-7968619D01*
X12138333Y-7997190D01*
X12024048Y-8111476D01*
X12147857Y-8111476D01*
X12385952Y-8111476D02*
X12385952Y-7911476D01*
X12471667Y-8111476D02*
X12471667Y-8006714D01*
X12462143Y-7987667D01*
X12443095Y-7978143D01*
X12414524Y-7978143D01*
X12395476Y-7987667D01*
X12385952Y-7997190D01*
X12595476Y-8111476D02*
X12576428Y-8101952D01*
X12566905Y-8092428D01*
X12557381Y-8073381D01*
X12557381Y-8016238D01*
X12566905Y-7997190D01*
X12576428Y-7987667D01*
X12595476Y-7978143D01*
X12624048Y-7978143D01*
X12643095Y-7987667D01*
X12652619Y-7997190D01*
X12662143Y-8016238D01*
X12662143Y-8073381D01*
X12652619Y-8092428D01*
X12643095Y-8101952D01*
X12624048Y-8111476D01*
X12595476Y-8111476D01*
X12776428Y-8111476D02*
X12757381Y-8101952D01*
X12747857Y-8082905D01*
X12747857Y-7911476D01*
X12928809Y-8101952D02*
X12909762Y-8111476D01*
X12871667Y-8111476D01*
X12852619Y-8101952D01*
X12843095Y-8082905D01*
X12843095Y-8006714D01*
X12852619Y-7987667D01*
X12871667Y-7978143D01*
X12909762Y-7978143D01*
X12928809Y-7987667D01*
X12938333Y-8006714D01*
X12938333Y-8025762D01*
X12843095Y-8044809D01*
X13014524Y-8101952D02*
X13033571Y-8111476D01*
X13071667Y-8111476D01*
X13090714Y-8101952D01*
X13100238Y-8082905D01*
X13100238Y-8073381D01*
X13090714Y-8054333D01*
X13071667Y-8044809D01*
X13043095Y-8044809D01*
X13024048Y-8035286D01*
X13014524Y-8016238D01*
X13014524Y-8006714D01*
X13024048Y-7987667D01*
X13043095Y-7978143D01*
X13071667Y-7978143D01*
X13090714Y-7987667D01*
X13166905Y-8187667D02*
X13176428Y-8178143D01*
X13195476Y-8149571D01*
X13205000Y-8130524D01*
X13214524Y-8101952D01*
X13224048Y-8054333D01*
X13224048Y-8016238D01*
X13214524Y-7968619D01*
X13205000Y-7940048D01*
X13195476Y-7921000D01*
X13176428Y-7892428D01*
X13166905Y-7882905D01*
M02*
