%TF.GenerationSoftware,KiCad,Pcbnew,(6.0.8)*%
%TF.CreationDate,2023-01-08T14:39:41+01:00*%
%TF.ProjectId,MainPCB-Rev2,4d61696e-5043-4422-9d52-6576322e6b69,rev?*%
%TF.SameCoordinates,Original*%
%TF.FileFunction,Legend,Top*%
%TF.FilePolarity,Positive*%
%FSLAX46Y46*%
G04 Gerber Fmt 4.6, Leading zero omitted, Abs format (unit mm)*
G04 Created by KiCad (PCBNEW (6.0.8)) date 2023-01-08 14:39:41*
%MOMM*%
%LPD*%
G01*
G04 APERTURE LIST*
G04 Aperture macros list*
%AMRoundRect*
0 Rectangle with rounded corners*
0 $1 Rounding radius*
0 $2 $3 $4 $5 $6 $7 $8 $9 X,Y pos of 4 corners*
0 Add a 4 corners polygon primitive as box body*
4,1,4,$2,$3,$4,$5,$6,$7,$8,$9,$2,$3,0*
0 Add four circle primitives for the rounded corners*
1,1,$1+$1,$2,$3*
1,1,$1+$1,$4,$5*
1,1,$1+$1,$6,$7*
1,1,$1+$1,$8,$9*
0 Add four rect primitives between the rounded corners*
20,1,$1+$1,$2,$3,$4,$5,0*
20,1,$1+$1,$4,$5,$6,$7,0*
20,1,$1+$1,$6,$7,$8,$9,0*
20,1,$1+$1,$8,$9,$2,$3,0*%
G04 Aperture macros list end*
%ADD10C,0.150000*%
%ADD11C,0.120000*%
%ADD12C,0.200000*%
%ADD13RoundRect,0.320754X-0.529246X-0.579246X0.529246X-0.579246X0.529246X0.579246X-0.529246X0.579246X0*%
%ADD14RoundRect,0.250000X0.600000X0.725000X-0.600000X0.725000X-0.600000X-0.725000X0.600000X-0.725000X0*%
%ADD15O,1.700000X1.950000*%
%ADD16RoundRect,0.320754X-0.579246X0.529246X-0.579246X-0.529246X0.579246X-0.529246X0.579246X0.529246X0*%
%ADD17RoundRect,0.150000X-0.587500X-0.150000X0.587500X-0.150000X0.587500X0.150000X-0.587500X0.150000X0*%
%ADD18RoundRect,0.250000X0.750000X-0.600000X0.750000X0.600000X-0.750000X0.600000X-0.750000X-0.600000X0*%
%ADD19O,2.000000X1.700000*%
%ADD20R,1.200000X2.000000*%
%ADD21O,1.200000X2.000000*%
%ADD22R,1.700000X1.700000*%
%ADD23O,1.700000X1.700000*%
%ADD24RoundRect,0.150000X0.587500X0.150000X-0.587500X0.150000X-0.587500X-0.150000X0.587500X-0.150000X0*%
%ADD25RoundRect,0.250000X0.725000X-0.600000X0.725000X0.600000X-0.725000X0.600000X-0.725000X-0.600000X0*%
%ADD26O,1.950000X1.700000*%
%ADD27R,2.000000X4.600000*%
%ADD28O,2.000000X4.200000*%
%ADD29O,4.200000X2.000000*%
%ADD30RoundRect,0.150000X-0.150000X0.587500X-0.150000X-0.587500X0.150000X-0.587500X0.150000X0.587500X0*%
%ADD31RoundRect,0.320754X0.529246X0.579246X-0.529246X0.579246X-0.529246X-0.579246X0.529246X-0.579246X0*%
%ADD32C,5.000000*%
%ADD33RoundRect,0.320754X0.579246X-0.529246X0.579246X0.529246X-0.579246X0.529246X-0.579246X-0.529246X0*%
%ADD34R,1.600000X1.600000*%
%ADD35C,1.600000*%
G04 APERTURE END LIST*
D10*
X89523809Y-69452380D02*
X89523809Y-68452380D01*
X90190476Y-68452380D02*
X90380952Y-68452380D01*
X90476190Y-68500000D01*
X90571428Y-68595238D01*
X90619047Y-68785714D01*
X90619047Y-69119047D01*
X90571428Y-69309523D01*
X90476190Y-69404761D01*
X90380952Y-69452380D01*
X90190476Y-69452380D01*
X90095238Y-69404761D01*
X90000000Y-69309523D01*
X89952380Y-69119047D01*
X89952380Y-68785714D01*
X90000000Y-68595238D01*
X90095238Y-68500000D01*
X90190476Y-68452380D01*
X91571428Y-69452380D02*
X91000000Y-69452380D01*
X91285714Y-69452380D02*
X91285714Y-68452380D01*
X91190476Y-68595238D01*
X91095238Y-68690476D01*
X91000000Y-68738095D01*
X92476190Y-68452380D02*
X92000000Y-68452380D01*
X91952380Y-68928571D01*
X92000000Y-68880952D01*
X92095238Y-68833333D01*
X92333333Y-68833333D01*
X92428571Y-68880952D01*
X92476190Y-68928571D01*
X92523809Y-69023809D01*
X92523809Y-69261904D01*
X92476190Y-69357142D01*
X92428571Y-69404761D01*
X92333333Y-69452380D01*
X92095238Y-69452380D01*
X92000000Y-69404761D01*
X91952380Y-69357142D01*
X34523809Y-98952380D02*
X34523809Y-97952380D01*
X35190476Y-97952380D02*
X35380952Y-97952380D01*
X35476190Y-98000000D01*
X35571428Y-98095238D01*
X35619047Y-98285714D01*
X35619047Y-98619047D01*
X35571428Y-98809523D01*
X35476190Y-98904761D01*
X35380952Y-98952380D01*
X35190476Y-98952380D01*
X35095238Y-98904761D01*
X35000000Y-98809523D01*
X34952380Y-98619047D01*
X34952380Y-98285714D01*
X35000000Y-98095238D01*
X35095238Y-98000000D01*
X35190476Y-97952380D01*
X35952380Y-97952380D02*
X36571428Y-97952380D01*
X36238095Y-98333333D01*
X36380952Y-98333333D01*
X36476190Y-98380952D01*
X36523809Y-98428571D01*
X36571428Y-98523809D01*
X36571428Y-98761904D01*
X36523809Y-98857142D01*
X36476190Y-98904761D01*
X36380952Y-98952380D01*
X36095238Y-98952380D01*
X36000000Y-98904761D01*
X35952380Y-98857142D01*
X37476190Y-97952380D02*
X37000000Y-97952380D01*
X36952380Y-98428571D01*
X37000000Y-98380952D01*
X37095238Y-98333333D01*
X37333333Y-98333333D01*
X37428571Y-98380952D01*
X37476190Y-98428571D01*
X37523809Y-98523809D01*
X37523809Y-98761904D01*
X37476190Y-98857142D01*
X37428571Y-98904761D01*
X37333333Y-98952380D01*
X37095238Y-98952380D01*
X37000000Y-98904761D01*
X36952380Y-98857142D01*
X62238095Y-101952380D02*
X62238095Y-100952380D01*
X62904761Y-100952380D02*
X63095238Y-100952380D01*
X63190476Y-101000000D01*
X63285714Y-101095238D01*
X63333333Y-101285714D01*
X63333333Y-101619047D01*
X63285714Y-101809523D01*
X63190476Y-101904761D01*
X63095238Y-101952380D01*
X62904761Y-101952380D01*
X62809523Y-101904761D01*
X62714285Y-101809523D01*
X62666666Y-101619047D01*
X62666666Y-101285714D01*
X62714285Y-101095238D01*
X62809523Y-101000000D01*
X62904761Y-100952380D01*
X63666666Y-100952380D02*
X64285714Y-100952380D01*
X63952380Y-101333333D01*
X64095238Y-101333333D01*
X64190476Y-101380952D01*
X64238095Y-101428571D01*
X64285714Y-101523809D01*
X64285714Y-101761904D01*
X64238095Y-101857142D01*
X64190476Y-101904761D01*
X64095238Y-101952380D01*
X63809523Y-101952380D01*
X63714285Y-101904761D01*
X63666666Y-101857142D01*
X64619047Y-100952380D02*
X65238095Y-100952380D01*
X64904761Y-101333333D01*
X65047619Y-101333333D01*
X65142857Y-101380952D01*
X65190476Y-101428571D01*
X65238095Y-101523809D01*
X65238095Y-101761904D01*
X65190476Y-101857142D01*
X65142857Y-101904761D01*
X65047619Y-101952380D01*
X64761904Y-101952380D01*
X64666666Y-101904761D01*
X64619047Y-101857142D01*
X66904761Y-100952380D02*
X66428571Y-100952380D01*
X66380952Y-101428571D01*
X66428571Y-101380952D01*
X66523809Y-101333333D01*
X66761904Y-101333333D01*
X66857142Y-101380952D01*
X66904761Y-101428571D01*
X66952380Y-101523809D01*
X66952380Y-101761904D01*
X66904761Y-101857142D01*
X66857142Y-101904761D01*
X66761904Y-101952380D01*
X66523809Y-101952380D01*
X66428571Y-101904761D01*
X66380952Y-101857142D01*
X67238095Y-100952380D02*
X67571428Y-101952380D01*
X67904761Y-100952380D01*
X94000000Y-53571428D02*
X94761904Y-53571428D01*
X94380952Y-53952380D02*
X94380952Y-53190476D01*
X95142857Y-52952380D02*
X95809523Y-52952380D01*
X95380952Y-53952380D01*
X96190476Y-53857142D02*
X96238095Y-53904761D01*
X96190476Y-53952380D01*
X96142857Y-53904761D01*
X96190476Y-53857142D01*
X96190476Y-53952380D01*
X97095238Y-53285714D02*
X97095238Y-53952380D01*
X96857142Y-52904761D02*
X96619047Y-53619047D01*
X97238095Y-53619047D01*
X97476190Y-52952380D02*
X97809523Y-53952380D01*
X98142857Y-52952380D01*
X94754285Y-77071428D02*
X95516190Y-77071428D01*
X95135238Y-77452380D02*
X95135238Y-76690476D01*
X96468571Y-76452380D02*
X95992380Y-76452380D01*
X95944761Y-76928571D01*
X95992380Y-76880952D01*
X96087619Y-76833333D01*
X96325714Y-76833333D01*
X96420952Y-76880952D01*
X96468571Y-76928571D01*
X96516190Y-77023809D01*
X96516190Y-77261904D01*
X96468571Y-77357142D01*
X96420952Y-77404761D01*
X96325714Y-77452380D01*
X96087619Y-77452380D01*
X95992380Y-77404761D01*
X95944761Y-77357142D01*
X96801904Y-76452380D02*
X97135238Y-77452380D01*
X97468571Y-76452380D01*
X89500000Y-70952380D02*
X89500000Y-69952380D01*
X90166666Y-69952380D02*
X90357142Y-69952380D01*
X90452380Y-70000000D01*
X90547619Y-70095238D01*
X90595238Y-70285714D01*
X90595238Y-70619047D01*
X90547619Y-70809523D01*
X90452380Y-70904761D01*
X90357142Y-70952380D01*
X90166666Y-70952380D01*
X90071428Y-70904761D01*
X89976190Y-70809523D01*
X89928571Y-70619047D01*
X89928571Y-70285714D01*
X89976190Y-70095238D01*
X90071428Y-70000000D01*
X90166666Y-69952380D01*
X90976190Y-70047619D02*
X91023809Y-70000000D01*
X91119047Y-69952380D01*
X91357142Y-69952380D01*
X91452380Y-70000000D01*
X91500000Y-70047619D01*
X91547619Y-70142857D01*
X91547619Y-70238095D01*
X91500000Y-70380952D01*
X90928571Y-70952380D01*
X91547619Y-70952380D01*
X59500000Y-116952380D02*
X59500000Y-115952380D01*
X60166666Y-115952380D02*
X60357142Y-115952380D01*
X60452380Y-116000000D01*
X60547619Y-116095238D01*
X60595238Y-116285714D01*
X60595238Y-116619047D01*
X60547619Y-116809523D01*
X60452380Y-116904761D01*
X60357142Y-116952380D01*
X60166666Y-116952380D01*
X60071428Y-116904761D01*
X59976190Y-116809523D01*
X59928571Y-116619047D01*
X59928571Y-116285714D01*
X59976190Y-116095238D01*
X60071428Y-116000000D01*
X60166666Y-115952380D01*
X61452380Y-116285714D02*
X61452380Y-116952380D01*
X61214285Y-115904761D02*
X60976190Y-116619047D01*
X61595238Y-116619047D01*
X94000000Y-100071428D02*
X94761904Y-100071428D01*
X94380952Y-100452380D02*
X94380952Y-99690476D01*
X95142857Y-99452380D02*
X95761904Y-99452380D01*
X95428571Y-99833333D01*
X95571428Y-99833333D01*
X95666666Y-99880952D01*
X95714285Y-99928571D01*
X95761904Y-100023809D01*
X95761904Y-100261904D01*
X95714285Y-100357142D01*
X95666666Y-100404761D01*
X95571428Y-100452380D01*
X95285714Y-100452380D01*
X95190476Y-100404761D01*
X95142857Y-100357142D01*
X96190476Y-100357142D02*
X96238095Y-100404761D01*
X96190476Y-100452380D01*
X96142857Y-100404761D01*
X96190476Y-100357142D01*
X96190476Y-100452380D01*
X96571428Y-99452380D02*
X97190476Y-99452380D01*
X96857142Y-99833333D01*
X97000000Y-99833333D01*
X97095238Y-99880952D01*
X97142857Y-99928571D01*
X97190476Y-100023809D01*
X97190476Y-100261904D01*
X97142857Y-100357142D01*
X97095238Y-100404761D01*
X97000000Y-100452380D01*
X96714285Y-100452380D01*
X96619047Y-100404761D01*
X96571428Y-100357142D01*
X97476190Y-99452380D02*
X97809523Y-100452380D01*
X98142857Y-99452380D01*
X35714285Y-125452380D02*
X35714285Y-124452380D01*
X36380952Y-124452380D02*
X36571428Y-124452380D01*
X36666666Y-124500000D01*
X36761904Y-124595238D01*
X36809523Y-124785714D01*
X36809523Y-125119047D01*
X36761904Y-125309523D01*
X36666666Y-125404761D01*
X36571428Y-125452380D01*
X36380952Y-125452380D01*
X36285714Y-125404761D01*
X36190476Y-125309523D01*
X36142857Y-125119047D01*
X36142857Y-124785714D01*
X36190476Y-124595238D01*
X36285714Y-124500000D01*
X36380952Y-124452380D01*
X37761904Y-125452380D02*
X37190476Y-125452380D01*
X37476190Y-125452380D02*
X37476190Y-124452380D01*
X37380952Y-124595238D01*
X37285714Y-124690476D01*
X37190476Y-124738095D01*
X38238095Y-125452380D02*
X38428571Y-125452380D01*
X38523809Y-125404761D01*
X38571428Y-125357142D01*
X38666666Y-125214285D01*
X38714285Y-125023809D01*
X38714285Y-124642857D01*
X38666666Y-124547619D01*
X38619047Y-124500000D01*
X38523809Y-124452380D01*
X38333333Y-124452380D01*
X38238095Y-124500000D01*
X38190476Y-124547619D01*
X38142857Y-124642857D01*
X38142857Y-124880952D01*
X38190476Y-124976190D01*
X38238095Y-125023809D01*
X38333333Y-125071428D01*
X38523809Y-125071428D01*
X38619047Y-125023809D01*
X38666666Y-124976190D01*
X38714285Y-124880952D01*
X39904761Y-125452380D02*
X39904761Y-124452380D01*
X40571428Y-124452380D02*
X40761904Y-124452380D01*
X40857142Y-124500000D01*
X40952380Y-124595238D01*
X41000000Y-124785714D01*
X41000000Y-125119047D01*
X40952380Y-125309523D01*
X40857142Y-125404761D01*
X40761904Y-125452380D01*
X40571428Y-125452380D01*
X40476190Y-125404761D01*
X40380952Y-125309523D01*
X40333333Y-125119047D01*
X40333333Y-124785714D01*
X40380952Y-124595238D01*
X40476190Y-124500000D01*
X40571428Y-124452380D01*
X41952380Y-125452380D02*
X41380952Y-125452380D01*
X41666666Y-125452380D02*
X41666666Y-124452380D01*
X41571428Y-124595238D01*
X41476190Y-124690476D01*
X41380952Y-124738095D01*
X42523809Y-124880952D02*
X42428571Y-124833333D01*
X42380952Y-124785714D01*
X42333333Y-124690476D01*
X42333333Y-124642857D01*
X42380952Y-124547619D01*
X42428571Y-124500000D01*
X42523809Y-124452380D01*
X42714285Y-124452380D01*
X42809523Y-124500000D01*
X42857142Y-124547619D01*
X42904761Y-124642857D01*
X42904761Y-124690476D01*
X42857142Y-124785714D01*
X42809523Y-124833333D01*
X42714285Y-124880952D01*
X42523809Y-124880952D01*
X42428571Y-124928571D01*
X42380952Y-124976190D01*
X42333333Y-125071428D01*
X42333333Y-125261904D01*
X42380952Y-125357142D01*
X42428571Y-125404761D01*
X42523809Y-125452380D01*
X42714285Y-125452380D01*
X42809523Y-125404761D01*
X42857142Y-125357142D01*
X42904761Y-125261904D01*
X42904761Y-125071428D01*
X42857142Y-124976190D01*
X42809523Y-124928571D01*
X42714285Y-124880952D01*
X44619047Y-124500000D02*
X44523809Y-124452380D01*
X44380952Y-124452380D01*
X44238095Y-124500000D01*
X44142857Y-124595238D01*
X44095238Y-124690476D01*
X44047619Y-124880952D01*
X44047619Y-125023809D01*
X44095238Y-125214285D01*
X44142857Y-125309523D01*
X44238095Y-125404761D01*
X44380952Y-125452380D01*
X44476190Y-125452380D01*
X44619047Y-125404761D01*
X44666666Y-125357142D01*
X44666666Y-125023809D01*
X44476190Y-125023809D01*
X45095238Y-125452380D02*
X45095238Y-124452380D01*
X45666666Y-125452380D01*
X45666666Y-124452380D01*
X46142857Y-125452380D02*
X46142857Y-124452380D01*
X46380952Y-124452380D01*
X46523809Y-124500000D01*
X46619047Y-124595238D01*
X46666666Y-124690476D01*
X46714285Y-124880952D01*
X46714285Y-125023809D01*
X46666666Y-125214285D01*
X46619047Y-125309523D01*
X46523809Y-125404761D01*
X46380952Y-125452380D01*
X46142857Y-125452380D01*
X47761904Y-124452380D02*
X48095238Y-125452380D01*
X48428571Y-124452380D01*
X49333333Y-125357142D02*
X49285714Y-125404761D01*
X49142857Y-125452380D01*
X49047619Y-125452380D01*
X48904761Y-125404761D01*
X48809523Y-125309523D01*
X48761904Y-125214285D01*
X48714285Y-125023809D01*
X48714285Y-124880952D01*
X48761904Y-124690476D01*
X48809523Y-124595238D01*
X48904761Y-124500000D01*
X49047619Y-124452380D01*
X49142857Y-124452380D01*
X49285714Y-124500000D01*
X49333333Y-124547619D01*
X50333333Y-125357142D02*
X50285714Y-125404761D01*
X50142857Y-125452380D01*
X50047619Y-125452380D01*
X49904761Y-125404761D01*
X49809523Y-125309523D01*
X49761904Y-125214285D01*
X49714285Y-125023809D01*
X49714285Y-124880952D01*
X49761904Y-124690476D01*
X49809523Y-124595238D01*
X49904761Y-124500000D01*
X50047619Y-124452380D01*
X50142857Y-124452380D01*
X50285714Y-124500000D01*
X50333333Y-124547619D01*
X76023809Y-101952380D02*
X76023809Y-100952380D01*
X76690476Y-100952380D02*
X76880952Y-100952380D01*
X76976190Y-101000000D01*
X77071428Y-101095238D01*
X77119047Y-101285714D01*
X77119047Y-101619047D01*
X77071428Y-101809523D01*
X76976190Y-101904761D01*
X76880952Y-101952380D01*
X76690476Y-101952380D01*
X76595238Y-101904761D01*
X76500000Y-101809523D01*
X76452380Y-101619047D01*
X76452380Y-101285714D01*
X76500000Y-101095238D01*
X76595238Y-101000000D01*
X76690476Y-100952380D01*
X77500000Y-101047619D02*
X77547619Y-101000000D01*
X77642857Y-100952380D01*
X77880952Y-100952380D01*
X77976190Y-101000000D01*
X78023809Y-101047619D01*
X78071428Y-101142857D01*
X78071428Y-101238095D01*
X78023809Y-101380952D01*
X77452380Y-101952380D01*
X78071428Y-101952380D01*
X78928571Y-100952380D02*
X78738095Y-100952380D01*
X78642857Y-101000000D01*
X78595238Y-101047619D01*
X78500000Y-101190476D01*
X78452380Y-101380952D01*
X78452380Y-101761904D01*
X78500000Y-101857142D01*
X78547619Y-101904761D01*
X78642857Y-101952380D01*
X78833333Y-101952380D01*
X78928571Y-101904761D01*
X78976190Y-101857142D01*
X79023809Y-101761904D01*
X79023809Y-101523809D01*
X78976190Y-101428571D01*
X78928571Y-101380952D01*
X78833333Y-101333333D01*
X78642857Y-101333333D01*
X78547619Y-101380952D01*
X78500000Y-101428571D01*
X78452380Y-101523809D01*
X80119047Y-100952380D02*
X80738095Y-100952380D01*
X80404761Y-101333333D01*
X80547619Y-101333333D01*
X80642857Y-101380952D01*
X80690476Y-101428571D01*
X80738095Y-101523809D01*
X80738095Y-101761904D01*
X80690476Y-101857142D01*
X80642857Y-101904761D01*
X80547619Y-101952380D01*
X80261904Y-101952380D01*
X80166666Y-101904761D01*
X80119047Y-101857142D01*
X81166666Y-101857142D02*
X81214285Y-101904761D01*
X81166666Y-101952380D01*
X81119047Y-101904761D01*
X81166666Y-101857142D01*
X81166666Y-101952380D01*
X81547619Y-100952380D02*
X82166666Y-100952380D01*
X81833333Y-101333333D01*
X81976190Y-101333333D01*
X82071428Y-101380952D01*
X82119047Y-101428571D01*
X82166666Y-101523809D01*
X82166666Y-101761904D01*
X82119047Y-101857142D01*
X82071428Y-101904761D01*
X81976190Y-101952380D01*
X81690476Y-101952380D01*
X81595238Y-101904761D01*
X81547619Y-101857142D01*
X82452380Y-100952380D02*
X82785714Y-101952380D01*
X83119047Y-100952380D01*
X32000000Y-104571428D02*
X32761904Y-104571428D01*
X32380952Y-104952380D02*
X32380952Y-104190476D01*
X33142857Y-103952380D02*
X33761904Y-103952380D01*
X33428571Y-104333333D01*
X33571428Y-104333333D01*
X33666666Y-104380952D01*
X33714285Y-104428571D01*
X33761904Y-104523809D01*
X33761904Y-104761904D01*
X33714285Y-104857142D01*
X33666666Y-104904761D01*
X33571428Y-104952380D01*
X33285714Y-104952380D01*
X33190476Y-104904761D01*
X33142857Y-104857142D01*
X34190476Y-104857142D02*
X34238095Y-104904761D01*
X34190476Y-104952380D01*
X34142857Y-104904761D01*
X34190476Y-104857142D01*
X34190476Y-104952380D01*
X34571428Y-103952380D02*
X35190476Y-103952380D01*
X34857142Y-104333333D01*
X35000000Y-104333333D01*
X35095238Y-104380952D01*
X35142857Y-104428571D01*
X35190476Y-104523809D01*
X35190476Y-104761904D01*
X35142857Y-104857142D01*
X35095238Y-104904761D01*
X35000000Y-104952380D01*
X34714285Y-104952380D01*
X34619047Y-104904761D01*
X34571428Y-104857142D01*
X35476190Y-103952380D02*
X35809523Y-104952380D01*
X36142857Y-103952380D01*
X33738095Y-94071428D02*
X34500000Y-94071428D01*
X34119047Y-94452380D02*
X34119047Y-93690476D01*
X35500000Y-94452380D02*
X34928571Y-94452380D01*
X35214285Y-94452380D02*
X35214285Y-93452380D01*
X35119047Y-93595238D01*
X35023809Y-93690476D01*
X34928571Y-93738095D01*
X35880952Y-93547619D02*
X35928571Y-93500000D01*
X36023809Y-93452380D01*
X36261904Y-93452380D01*
X36357142Y-93500000D01*
X36404761Y-93547619D01*
X36452380Y-93642857D01*
X36452380Y-93738095D01*
X36404761Y-93880952D01*
X35833333Y-94452380D01*
X36452380Y-94452380D01*
X36738095Y-93452380D02*
X37071428Y-94452380D01*
X37404761Y-93452380D01*
X69238095Y-101952380D02*
X69238095Y-100952380D01*
X69904761Y-100952380D02*
X70095238Y-100952380D01*
X70190476Y-101000000D01*
X70285714Y-101095238D01*
X70333333Y-101285714D01*
X70333333Y-101619047D01*
X70285714Y-101809523D01*
X70190476Y-101904761D01*
X70095238Y-101952380D01*
X69904761Y-101952380D01*
X69809523Y-101904761D01*
X69714285Y-101809523D01*
X69666666Y-101619047D01*
X69666666Y-101285714D01*
X69714285Y-101095238D01*
X69809523Y-101000000D01*
X69904761Y-100952380D01*
X70714285Y-101047619D02*
X70761904Y-101000000D01*
X70857142Y-100952380D01*
X71095238Y-100952380D01*
X71190476Y-101000000D01*
X71238095Y-101047619D01*
X71285714Y-101142857D01*
X71285714Y-101238095D01*
X71238095Y-101380952D01*
X70666666Y-101952380D01*
X71285714Y-101952380D01*
X72190476Y-100952380D02*
X71714285Y-100952380D01*
X71666666Y-101428571D01*
X71714285Y-101380952D01*
X71809523Y-101333333D01*
X72047619Y-101333333D01*
X72142857Y-101380952D01*
X72190476Y-101428571D01*
X72238095Y-101523809D01*
X72238095Y-101761904D01*
X72190476Y-101857142D01*
X72142857Y-101904761D01*
X72047619Y-101952380D01*
X71809523Y-101952380D01*
X71714285Y-101904761D01*
X71666666Y-101857142D01*
X73904761Y-100952380D02*
X73428571Y-100952380D01*
X73380952Y-101428571D01*
X73428571Y-101380952D01*
X73523809Y-101333333D01*
X73761904Y-101333333D01*
X73857142Y-101380952D01*
X73904761Y-101428571D01*
X73952380Y-101523809D01*
X73952380Y-101761904D01*
X73904761Y-101857142D01*
X73857142Y-101904761D01*
X73761904Y-101952380D01*
X73523809Y-101952380D01*
X73428571Y-101904761D01*
X73380952Y-101857142D01*
X74238095Y-100952380D02*
X74571428Y-101952380D01*
X74904761Y-100952380D01*
X72500000Y-116952380D02*
X72500000Y-115952380D01*
X73166666Y-115952380D02*
X73357142Y-115952380D01*
X73452380Y-116000000D01*
X73547619Y-116095238D01*
X73595238Y-116285714D01*
X73595238Y-116619047D01*
X73547619Y-116809523D01*
X73452380Y-116904761D01*
X73357142Y-116952380D01*
X73166666Y-116952380D01*
X73071428Y-116904761D01*
X72976190Y-116809523D01*
X72928571Y-116619047D01*
X72928571Y-116285714D01*
X72976190Y-116095238D01*
X73071428Y-116000000D01*
X73166666Y-115952380D01*
X74214285Y-115952380D02*
X74309523Y-115952380D01*
X74404761Y-116000000D01*
X74452380Y-116047619D01*
X74500000Y-116142857D01*
X74547619Y-116333333D01*
X74547619Y-116571428D01*
X74500000Y-116761904D01*
X74452380Y-116857142D01*
X74404761Y-116904761D01*
X74309523Y-116952380D01*
X74214285Y-116952380D01*
X74119047Y-116904761D01*
X74071428Y-116857142D01*
X74023809Y-116761904D01*
X73976190Y-116571428D01*
X73976190Y-116333333D01*
X74023809Y-116142857D01*
X74071428Y-116047619D01*
X74119047Y-116000000D01*
X74214285Y-115952380D01*
X32000000Y-111571428D02*
X32761904Y-111571428D01*
X32380952Y-111952380D02*
X32380952Y-111190476D01*
X33142857Y-110952380D02*
X33761904Y-110952380D01*
X33428571Y-111333333D01*
X33571428Y-111333333D01*
X33666666Y-111380952D01*
X33714285Y-111428571D01*
X33761904Y-111523809D01*
X33761904Y-111761904D01*
X33714285Y-111857142D01*
X33666666Y-111904761D01*
X33571428Y-111952380D01*
X33285714Y-111952380D01*
X33190476Y-111904761D01*
X33142857Y-111857142D01*
X34190476Y-111857142D02*
X34238095Y-111904761D01*
X34190476Y-111952380D01*
X34142857Y-111904761D01*
X34190476Y-111857142D01*
X34190476Y-111952380D01*
X34571428Y-110952380D02*
X35190476Y-110952380D01*
X34857142Y-111333333D01*
X35000000Y-111333333D01*
X35095238Y-111380952D01*
X35142857Y-111428571D01*
X35190476Y-111523809D01*
X35190476Y-111761904D01*
X35142857Y-111857142D01*
X35095238Y-111904761D01*
X35000000Y-111952380D01*
X34714285Y-111952380D01*
X34619047Y-111904761D01*
X34571428Y-111857142D01*
X35476190Y-110952380D02*
X35809523Y-111952380D01*
X36142857Y-110952380D01*
X55238095Y-101952380D02*
X55238095Y-100952380D01*
X55904761Y-100952380D02*
X56095238Y-100952380D01*
X56190476Y-101000000D01*
X56285714Y-101095238D01*
X56333333Y-101285714D01*
X56333333Y-101619047D01*
X56285714Y-101809523D01*
X56190476Y-101904761D01*
X56095238Y-101952380D01*
X55904761Y-101952380D01*
X55809523Y-101904761D01*
X55714285Y-101809523D01*
X55666666Y-101619047D01*
X55666666Y-101285714D01*
X55714285Y-101095238D01*
X55809523Y-101000000D01*
X55904761Y-100952380D01*
X56666666Y-100952380D02*
X57285714Y-100952380D01*
X56952380Y-101333333D01*
X57095238Y-101333333D01*
X57190476Y-101380952D01*
X57238095Y-101428571D01*
X57285714Y-101523809D01*
X57285714Y-101761904D01*
X57238095Y-101857142D01*
X57190476Y-101904761D01*
X57095238Y-101952380D01*
X56809523Y-101952380D01*
X56714285Y-101904761D01*
X56666666Y-101857142D01*
X57666666Y-101047619D02*
X57714285Y-101000000D01*
X57809523Y-100952380D01*
X58047619Y-100952380D01*
X58142857Y-101000000D01*
X58190476Y-101047619D01*
X58238095Y-101142857D01*
X58238095Y-101238095D01*
X58190476Y-101380952D01*
X57619047Y-101952380D01*
X58238095Y-101952380D01*
X59904761Y-100952380D02*
X59428571Y-100952380D01*
X59380952Y-101428571D01*
X59428571Y-101380952D01*
X59523809Y-101333333D01*
X59761904Y-101333333D01*
X59857142Y-101380952D01*
X59904761Y-101428571D01*
X59952380Y-101523809D01*
X59952380Y-101761904D01*
X59904761Y-101857142D01*
X59857142Y-101904761D01*
X59761904Y-101952380D01*
X59523809Y-101952380D01*
X59428571Y-101904761D01*
X59380952Y-101857142D01*
X60238095Y-100952380D02*
X60571428Y-101952380D01*
X60904761Y-100952380D01*
X34523809Y-87952380D02*
X34523809Y-86952380D01*
X35190476Y-86952380D02*
X35380952Y-86952380D01*
X35476190Y-87000000D01*
X35571428Y-87095238D01*
X35619047Y-87285714D01*
X35619047Y-87619047D01*
X35571428Y-87809523D01*
X35476190Y-87904761D01*
X35380952Y-87952380D01*
X35190476Y-87952380D01*
X35095238Y-87904761D01*
X35000000Y-87809523D01*
X34952380Y-87619047D01*
X34952380Y-87285714D01*
X35000000Y-87095238D01*
X35095238Y-87000000D01*
X35190476Y-86952380D01*
X35952380Y-86952380D02*
X36571428Y-86952380D01*
X36238095Y-87333333D01*
X36380952Y-87333333D01*
X36476190Y-87380952D01*
X36523809Y-87428571D01*
X36571428Y-87523809D01*
X36571428Y-87761904D01*
X36523809Y-87857142D01*
X36476190Y-87904761D01*
X36380952Y-87952380D01*
X36095238Y-87952380D01*
X36000000Y-87904761D01*
X35952380Y-87857142D01*
X37428571Y-87285714D02*
X37428571Y-87952380D01*
X37190476Y-86904761D02*
X36952380Y-87619047D01*
X37571428Y-87619047D01*
X33214285Y-118571428D02*
X33976190Y-118571428D01*
X33595238Y-118952380D02*
X33595238Y-118190476D01*
X34928571Y-117952380D02*
X34452380Y-117952380D01*
X34404761Y-118428571D01*
X34452380Y-118380952D01*
X34547619Y-118333333D01*
X34785714Y-118333333D01*
X34880952Y-118380952D01*
X34928571Y-118428571D01*
X34976190Y-118523809D01*
X34976190Y-118761904D01*
X34928571Y-118857142D01*
X34880952Y-118904761D01*
X34785714Y-118952380D01*
X34547619Y-118952380D01*
X34452380Y-118904761D01*
X34404761Y-118857142D01*
X35261904Y-117952380D02*
X35595238Y-118952380D01*
X35928571Y-117952380D01*
X75238095Y-128071428D02*
X76000000Y-128071428D01*
X75619047Y-128452380D02*
X75619047Y-127690476D01*
X77000000Y-128452380D02*
X76428571Y-128452380D01*
X76714285Y-128452380D02*
X76714285Y-127452380D01*
X76619047Y-127595238D01*
X76523809Y-127690476D01*
X76428571Y-127738095D01*
X77380952Y-127547619D02*
X77428571Y-127500000D01*
X77523809Y-127452380D01*
X77761904Y-127452380D01*
X77857142Y-127500000D01*
X77904761Y-127547619D01*
X77952380Y-127642857D01*
X77952380Y-127738095D01*
X77904761Y-127880952D01*
X77333333Y-128452380D01*
X77952380Y-128452380D01*
X78238095Y-127452380D02*
X78571428Y-128452380D01*
X78904761Y-127452380D01*
X62238095Y-128071428D02*
X63000000Y-128071428D01*
X62619047Y-128452380D02*
X62619047Y-127690476D01*
X64000000Y-128452380D02*
X63428571Y-128452380D01*
X63714285Y-128452380D02*
X63714285Y-127452380D01*
X63619047Y-127595238D01*
X63523809Y-127690476D01*
X63428571Y-127738095D01*
X64380952Y-127547619D02*
X64428571Y-127500000D01*
X64523809Y-127452380D01*
X64761904Y-127452380D01*
X64857142Y-127500000D01*
X64904761Y-127547619D01*
X64952380Y-127642857D01*
X64952380Y-127738095D01*
X64904761Y-127880952D01*
X64333333Y-128452380D01*
X64952380Y-128452380D01*
X65238095Y-127452380D02*
X65571428Y-128452380D01*
X65904761Y-127452380D01*
X34238095Y-82571428D02*
X35000000Y-82571428D01*
X34619047Y-82952380D02*
X34619047Y-82190476D01*
X36000000Y-82952380D02*
X35428571Y-82952380D01*
X35714285Y-82952380D02*
X35714285Y-81952380D01*
X35619047Y-82095238D01*
X35523809Y-82190476D01*
X35428571Y-82238095D01*
X36380952Y-82047619D02*
X36428571Y-82000000D01*
X36523809Y-81952380D01*
X36761904Y-81952380D01*
X36857142Y-82000000D01*
X36904761Y-82047619D01*
X36952380Y-82142857D01*
X36952380Y-82238095D01*
X36904761Y-82380952D01*
X36333333Y-82952380D01*
X36952380Y-82952380D01*
X37238095Y-81952380D02*
X37571428Y-82952380D01*
X37904761Y-81952380D01*
X100607142Y-89807142D02*
X100559523Y-89854761D01*
X100416666Y-89902380D01*
X100321428Y-89902380D01*
X100178571Y-89854761D01*
X100083333Y-89759523D01*
X100035714Y-89664285D01*
X99988095Y-89473809D01*
X99988095Y-89330952D01*
X100035714Y-89140476D01*
X100083333Y-89045238D01*
X100178571Y-88950000D01*
X100321428Y-88902380D01*
X100416666Y-88902380D01*
X100559523Y-88950000D01*
X100607142Y-88997619D01*
X100988095Y-88997619D02*
X101035714Y-88950000D01*
X101130952Y-88902380D01*
X101369047Y-88902380D01*
X101464285Y-88950000D01*
X101511904Y-88997619D01*
X101559523Y-89092857D01*
X101559523Y-89188095D01*
X101511904Y-89330952D01*
X100940476Y-89902380D01*
X101559523Y-89902380D01*
X102178571Y-88902380D02*
X102273809Y-88902380D01*
X102369047Y-88950000D01*
X102416666Y-88997619D01*
X102464285Y-89092857D01*
X102511904Y-89283333D01*
X102511904Y-89521428D01*
X102464285Y-89711904D01*
X102416666Y-89807142D01*
X102369047Y-89854761D01*
X102273809Y-89902380D01*
X102178571Y-89902380D01*
X102083333Y-89854761D01*
X102035714Y-89807142D01*
X101988095Y-89711904D01*
X101940476Y-89521428D01*
X101940476Y-89283333D01*
X101988095Y-89092857D01*
X102035714Y-88997619D01*
X102083333Y-88950000D01*
X102178571Y-88902380D01*
X35266666Y-120852380D02*
X35266666Y-121566666D01*
X35219047Y-121709523D01*
X35123809Y-121804761D01*
X34980952Y-121852380D01*
X34885714Y-121852380D01*
X36171428Y-121185714D02*
X36171428Y-121852380D01*
X35933333Y-120804761D02*
X35695238Y-121519047D01*
X36314285Y-121519047D01*
X100607142Y-86807142D02*
X100559523Y-86854761D01*
X100416666Y-86902380D01*
X100321428Y-86902380D01*
X100178571Y-86854761D01*
X100083333Y-86759523D01*
X100035714Y-86664285D01*
X99988095Y-86473809D01*
X99988095Y-86330952D01*
X100035714Y-86140476D01*
X100083333Y-86045238D01*
X100178571Y-85950000D01*
X100321428Y-85902380D01*
X100416666Y-85902380D01*
X100559523Y-85950000D01*
X100607142Y-85997619D01*
X101559523Y-86902380D02*
X100988095Y-86902380D01*
X101273809Y-86902380D02*
X101273809Y-85902380D01*
X101178571Y-86045238D01*
X101083333Y-86140476D01*
X100988095Y-86188095D01*
X102035714Y-86902380D02*
X102226190Y-86902380D01*
X102321428Y-86854761D01*
X102369047Y-86807142D01*
X102464285Y-86664285D01*
X102511904Y-86473809D01*
X102511904Y-86092857D01*
X102464285Y-85997619D01*
X102416666Y-85950000D01*
X102321428Y-85902380D01*
X102130952Y-85902380D01*
X102035714Y-85950000D01*
X101988095Y-85997619D01*
X101940476Y-86092857D01*
X101940476Y-86330952D01*
X101988095Y-86426190D01*
X102035714Y-86473809D01*
X102130952Y-86521428D01*
X102321428Y-86521428D01*
X102416666Y-86473809D01*
X102464285Y-86426190D01*
X102511904Y-86330952D01*
X69157142Y-119957142D02*
X69109523Y-120004761D01*
X68966666Y-120052380D01*
X68871428Y-120052380D01*
X68728571Y-120004761D01*
X68633333Y-119909523D01*
X68585714Y-119814285D01*
X68538095Y-119623809D01*
X68538095Y-119480952D01*
X68585714Y-119290476D01*
X68633333Y-119195238D01*
X68728571Y-119100000D01*
X68871428Y-119052380D01*
X68966666Y-119052380D01*
X69109523Y-119100000D01*
X69157142Y-119147619D01*
X70109523Y-120052380D02*
X69538095Y-120052380D01*
X69823809Y-120052380D02*
X69823809Y-119052380D01*
X69728571Y-119195238D01*
X69633333Y-119290476D01*
X69538095Y-119338095D01*
X70442857Y-119052380D02*
X71109523Y-119052380D01*
X70680952Y-120052380D01*
X53833333Y-108357142D02*
X53785714Y-108404761D01*
X53642857Y-108452380D01*
X53547619Y-108452380D01*
X53404761Y-108404761D01*
X53309523Y-108309523D01*
X53261904Y-108214285D01*
X53214285Y-108023809D01*
X53214285Y-107880952D01*
X53261904Y-107690476D01*
X53309523Y-107595238D01*
X53404761Y-107500000D01*
X53547619Y-107452380D01*
X53642857Y-107452380D01*
X53785714Y-107500000D01*
X53833333Y-107547619D01*
X54785714Y-108452380D02*
X54214285Y-108452380D01*
X54500000Y-108452380D02*
X54500000Y-107452380D01*
X54404761Y-107595238D01*
X54309523Y-107690476D01*
X54214285Y-107738095D01*
X78104761Y-63347619D02*
X78009523Y-63300000D01*
X77914285Y-63204761D01*
X77771428Y-63061904D01*
X77676190Y-63014285D01*
X77580952Y-63014285D01*
X77628571Y-63252380D02*
X77533333Y-63204761D01*
X77438095Y-63109523D01*
X77390476Y-62919047D01*
X77390476Y-62585714D01*
X77438095Y-62395238D01*
X77533333Y-62300000D01*
X77628571Y-62252380D01*
X77819047Y-62252380D01*
X77914285Y-62300000D01*
X78009523Y-62395238D01*
X78057142Y-62585714D01*
X78057142Y-62919047D01*
X78009523Y-63109523D01*
X77914285Y-63204761D01*
X77819047Y-63252380D01*
X77628571Y-63252380D01*
X78914285Y-62252380D02*
X78723809Y-62252380D01*
X78628571Y-62300000D01*
X78580952Y-62347619D01*
X78485714Y-62490476D01*
X78438095Y-62680952D01*
X78438095Y-63061904D01*
X78485714Y-63157142D01*
X78533333Y-63204761D01*
X78628571Y-63252380D01*
X78819047Y-63252380D01*
X78914285Y-63204761D01*
X78961904Y-63157142D01*
X79009523Y-63061904D01*
X79009523Y-62823809D01*
X78961904Y-62728571D01*
X78914285Y-62680952D01*
X78819047Y-62633333D01*
X78628571Y-62633333D01*
X78533333Y-62680952D01*
X78485714Y-62728571D01*
X78438095Y-62823809D01*
X58190476Y-122202380D02*
X58190476Y-122916666D01*
X58142857Y-123059523D01*
X58047619Y-123154761D01*
X57904761Y-123202380D01*
X57809523Y-123202380D01*
X59190476Y-123202380D02*
X58619047Y-123202380D01*
X58904761Y-123202380D02*
X58904761Y-122202380D01*
X58809523Y-122345238D01*
X58714285Y-122440476D01*
X58619047Y-122488095D01*
X59809523Y-122202380D02*
X59904761Y-122202380D01*
X60000000Y-122250000D01*
X60047619Y-122297619D01*
X60095238Y-122392857D01*
X60142857Y-122583333D01*
X60142857Y-122821428D01*
X60095238Y-123011904D01*
X60047619Y-123107142D01*
X60000000Y-123154761D01*
X59904761Y-123202380D01*
X59809523Y-123202380D01*
X59714285Y-123154761D01*
X59666666Y-123107142D01*
X59619047Y-123011904D01*
X59571428Y-122821428D01*
X59571428Y-122583333D01*
X59619047Y-122392857D01*
X59666666Y-122297619D01*
X59714285Y-122250000D01*
X59809523Y-122202380D01*
X88333333Y-83857142D02*
X88285714Y-83904761D01*
X88142857Y-83952380D01*
X88047619Y-83952380D01*
X87904761Y-83904761D01*
X87809523Y-83809523D01*
X87761904Y-83714285D01*
X87714285Y-83523809D01*
X87714285Y-83380952D01*
X87761904Y-83190476D01*
X87809523Y-83095238D01*
X87904761Y-83000000D01*
X88047619Y-82952380D01*
X88142857Y-82952380D01*
X88285714Y-83000000D01*
X88333333Y-83047619D01*
X88666666Y-82952380D02*
X89333333Y-82952380D01*
X88904761Y-83952380D01*
X33238095Y-64952380D02*
X33238095Y-65761904D01*
X33285714Y-65857142D01*
X33333333Y-65904761D01*
X33428571Y-65952380D01*
X33619047Y-65952380D01*
X33714285Y-65904761D01*
X33761904Y-65857142D01*
X33809523Y-65761904D01*
X33809523Y-64952380D01*
X34809523Y-65952380D02*
X34238095Y-65952380D01*
X34523809Y-65952380D02*
X34523809Y-64952380D01*
X34428571Y-65095238D01*
X34333333Y-65190476D01*
X34238095Y-65238095D01*
X70316560Y-76070595D02*
X70268940Y-76165833D01*
X70268940Y-76308690D01*
X70316560Y-76451547D01*
X70411798Y-76546785D01*
X70507036Y-76594404D01*
X70697512Y-76642023D01*
X70840369Y-76642023D01*
X71030845Y-76594404D01*
X71126083Y-76546785D01*
X71221321Y-76451547D01*
X71268940Y-76308690D01*
X71268940Y-76213452D01*
X71221321Y-76070595D01*
X71173702Y-76022976D01*
X70840369Y-76022976D01*
X70840369Y-76213452D01*
X71268940Y-75594404D02*
X70268940Y-75594404D01*
X71268940Y-75022976D01*
X70268940Y-75022976D01*
X71268940Y-74546785D02*
X70268940Y-74546785D01*
X70268940Y-74308690D01*
X70316560Y-74165833D01*
X70411798Y-74070595D01*
X70507036Y-74022976D01*
X70697512Y-73975357D01*
X70840369Y-73975357D01*
X71030845Y-74022976D01*
X71126083Y-74070595D01*
X71221321Y-74165833D01*
X71268940Y-74308690D01*
X71268940Y-74546785D01*
X67926560Y-76299166D02*
X67893226Y-76365833D01*
X67893226Y-76465833D01*
X67926560Y-76565833D01*
X67993226Y-76632500D01*
X68059893Y-76665833D01*
X68193226Y-76699166D01*
X68293226Y-76699166D01*
X68426560Y-76665833D01*
X68493226Y-76632500D01*
X68559893Y-76565833D01*
X68593226Y-76465833D01*
X68593226Y-76399166D01*
X68559893Y-76299166D01*
X68526560Y-76265833D01*
X68293226Y-76265833D01*
X68293226Y-76399166D01*
X68593226Y-75965833D02*
X67893226Y-75965833D01*
X67893226Y-75699166D01*
X67926560Y-75632500D01*
X67959893Y-75599166D01*
X68026560Y-75565833D01*
X68126560Y-75565833D01*
X68193226Y-75599166D01*
X68226560Y-75632500D01*
X68259893Y-75699166D01*
X68259893Y-75965833D01*
X68593226Y-75265833D02*
X67893226Y-75265833D01*
X67893226Y-74799166D02*
X67893226Y-74665833D01*
X67926560Y-74599166D01*
X67993226Y-74532500D01*
X68126560Y-74499166D01*
X68359893Y-74499166D01*
X68493226Y-74532500D01*
X68559893Y-74599166D01*
X68593226Y-74665833D01*
X68593226Y-74799166D01*
X68559893Y-74865833D01*
X68493226Y-74932500D01*
X68359893Y-74965833D01*
X68126560Y-74965833D01*
X67993226Y-74932500D01*
X67926560Y-74865833D01*
X67893226Y-74799166D01*
X68593226Y-73832500D02*
X68593226Y-74232500D01*
X68593226Y-74032500D02*
X67893226Y-74032500D01*
X67993226Y-74099166D01*
X68059893Y-74165833D01*
X68093226Y-74232500D01*
X67959893Y-73565833D02*
X67926560Y-73532500D01*
X67893226Y-73465833D01*
X67893226Y-73299166D01*
X67926560Y-73232500D01*
X67959893Y-73199166D01*
X68026560Y-73165833D01*
X68093226Y-73165833D01*
X68193226Y-73199166D01*
X68593226Y-73599166D01*
X68593226Y-73165833D01*
X67859893Y-72365833D02*
X68759893Y-72965833D01*
X68593226Y-72132500D02*
X67893226Y-72132500D01*
X68393226Y-71899166D01*
X67893226Y-71665833D01*
X68593226Y-71665833D01*
X67893226Y-71432500D02*
X67893226Y-71032500D01*
X68593226Y-71232500D02*
X67893226Y-71232500D01*
X68593226Y-70799166D02*
X67893226Y-70799166D01*
X67893226Y-70632500D01*
X67926560Y-70532500D01*
X67993226Y-70465833D01*
X68059893Y-70432500D01*
X68193226Y-70399166D01*
X68293226Y-70399166D01*
X68426560Y-70432500D01*
X68493226Y-70465833D01*
X68559893Y-70532500D01*
X68593226Y-70632500D01*
X68593226Y-70799166D01*
X68593226Y-70099166D02*
X67893226Y-70099166D01*
X65386560Y-57434166D02*
X65353226Y-57500833D01*
X65353226Y-57600833D01*
X65386560Y-57700833D01*
X65453226Y-57767500D01*
X65519893Y-57800833D01*
X65653226Y-57834166D01*
X65753226Y-57834166D01*
X65886560Y-57800833D01*
X65953226Y-57767500D01*
X66019893Y-57700833D01*
X66053226Y-57600833D01*
X66053226Y-57534166D01*
X66019893Y-57434166D01*
X65986560Y-57400833D01*
X65753226Y-57400833D01*
X65753226Y-57534166D01*
X66053226Y-57100833D02*
X65353226Y-57100833D01*
X65353226Y-56834166D01*
X65386560Y-56767500D01*
X65419893Y-56734166D01*
X65486560Y-56700833D01*
X65586560Y-56700833D01*
X65653226Y-56734166D01*
X65686560Y-56767500D01*
X65719893Y-56834166D01*
X65719893Y-57100833D01*
X66053226Y-56400833D02*
X65353226Y-56400833D01*
X65353226Y-55934166D02*
X65353226Y-55800833D01*
X65386560Y-55734166D01*
X65453226Y-55667500D01*
X65586560Y-55634166D01*
X65819893Y-55634166D01*
X65953226Y-55667500D01*
X66019893Y-55734166D01*
X66053226Y-55800833D01*
X66053226Y-55934166D01*
X66019893Y-56000833D01*
X65953226Y-56067500D01*
X65819893Y-56100833D01*
X65586560Y-56100833D01*
X65453226Y-56067500D01*
X65386560Y-56000833D01*
X65353226Y-55934166D01*
X66053226Y-54967500D02*
X66053226Y-55367500D01*
X66053226Y-55167500D02*
X65353226Y-55167500D01*
X65453226Y-55234166D01*
X65519893Y-55300833D01*
X65553226Y-55367500D01*
X65353226Y-54367500D02*
X65353226Y-54500833D01*
X65386560Y-54567500D01*
X65419893Y-54600833D01*
X65519893Y-54667500D01*
X65653226Y-54700833D01*
X65919893Y-54700833D01*
X65986560Y-54667500D01*
X66019893Y-54634166D01*
X66053226Y-54567500D01*
X66053226Y-54434166D01*
X66019893Y-54367500D01*
X65986560Y-54334166D01*
X65919893Y-54300833D01*
X65753226Y-54300833D01*
X65686560Y-54334166D01*
X65653226Y-54367500D01*
X65619893Y-54434166D01*
X65619893Y-54567500D01*
X65653226Y-54634166D01*
X65686560Y-54667500D01*
X65753226Y-54700833D01*
X62846560Y-57434166D02*
X62813226Y-57500833D01*
X62813226Y-57600833D01*
X62846560Y-57700833D01*
X62913226Y-57767500D01*
X62979893Y-57800833D01*
X63113226Y-57834166D01*
X63213226Y-57834166D01*
X63346560Y-57800833D01*
X63413226Y-57767500D01*
X63479893Y-57700833D01*
X63513226Y-57600833D01*
X63513226Y-57534166D01*
X63479893Y-57434166D01*
X63446560Y-57400833D01*
X63213226Y-57400833D01*
X63213226Y-57534166D01*
X63513226Y-57100833D02*
X62813226Y-57100833D01*
X62813226Y-56834166D01*
X62846560Y-56767500D01*
X62879893Y-56734166D01*
X62946560Y-56700833D01*
X63046560Y-56700833D01*
X63113226Y-56734166D01*
X63146560Y-56767500D01*
X63179893Y-56834166D01*
X63179893Y-57100833D01*
X63513226Y-56400833D02*
X62813226Y-56400833D01*
X62813226Y-55934166D02*
X62813226Y-55800833D01*
X62846560Y-55734166D01*
X62913226Y-55667500D01*
X63046560Y-55634166D01*
X63279893Y-55634166D01*
X63413226Y-55667500D01*
X63479893Y-55734166D01*
X63513226Y-55800833D01*
X63513226Y-55934166D01*
X63479893Y-56000833D01*
X63413226Y-56067500D01*
X63279893Y-56100833D01*
X63046560Y-56100833D01*
X62913226Y-56067500D01*
X62846560Y-56000833D01*
X62813226Y-55934166D01*
X63513226Y-54967500D02*
X63513226Y-55367500D01*
X63513226Y-55167500D02*
X62813226Y-55167500D01*
X62913226Y-55234166D01*
X62979893Y-55300833D01*
X63013226Y-55367500D01*
X62813226Y-54734166D02*
X62813226Y-54267500D01*
X63513226Y-54567500D01*
X50146560Y-57434166D02*
X50113226Y-57500833D01*
X50113226Y-57600833D01*
X50146560Y-57700833D01*
X50213226Y-57767500D01*
X50279893Y-57800833D01*
X50413226Y-57834166D01*
X50513226Y-57834166D01*
X50646560Y-57800833D01*
X50713226Y-57767500D01*
X50779893Y-57700833D01*
X50813226Y-57600833D01*
X50813226Y-57534166D01*
X50779893Y-57434166D01*
X50746560Y-57400833D01*
X50513226Y-57400833D01*
X50513226Y-57534166D01*
X50813226Y-57100833D02*
X50113226Y-57100833D01*
X50113226Y-56834166D01*
X50146560Y-56767500D01*
X50179893Y-56734166D01*
X50246560Y-56700833D01*
X50346560Y-56700833D01*
X50413226Y-56734166D01*
X50446560Y-56767500D01*
X50479893Y-56834166D01*
X50479893Y-57100833D01*
X50813226Y-56400833D02*
X50113226Y-56400833D01*
X50113226Y-55934166D02*
X50113226Y-55800833D01*
X50146560Y-55734166D01*
X50213226Y-55667500D01*
X50346560Y-55634166D01*
X50579893Y-55634166D01*
X50713226Y-55667500D01*
X50779893Y-55734166D01*
X50813226Y-55800833D01*
X50813226Y-55934166D01*
X50779893Y-56000833D01*
X50713226Y-56067500D01*
X50579893Y-56100833D01*
X50346560Y-56100833D01*
X50213226Y-56067500D01*
X50146560Y-56000833D01*
X50113226Y-55934166D01*
X50179893Y-55367500D02*
X50146560Y-55334166D01*
X50113226Y-55267500D01*
X50113226Y-55100833D01*
X50146560Y-55034166D01*
X50179893Y-55000833D01*
X50246560Y-54967500D01*
X50313226Y-54967500D01*
X50413226Y-55000833D01*
X50813226Y-55400833D01*
X50813226Y-54967500D01*
X50813226Y-54300833D02*
X50813226Y-54700833D01*
X50813226Y-54500833D02*
X50113226Y-54500833D01*
X50213226Y-54567500D01*
X50279893Y-54634166D01*
X50313226Y-54700833D01*
X42493226Y-76765833D02*
X43193226Y-76532500D01*
X42493226Y-76299166D01*
X43193226Y-76065833D02*
X42493226Y-76065833D01*
X42493226Y-75799166D01*
X42526560Y-75732500D01*
X42559893Y-75699166D01*
X42626560Y-75665833D01*
X42726560Y-75665833D01*
X42793226Y-75699166D01*
X42826560Y-75732500D01*
X42859893Y-75799166D01*
X42859893Y-76065833D01*
X42459893Y-74865833D02*
X43359893Y-75465833D01*
X42526560Y-74265833D02*
X42493226Y-74332500D01*
X42493226Y-74432500D01*
X42526560Y-74532500D01*
X42593226Y-74599166D01*
X42659893Y-74632500D01*
X42793226Y-74665833D01*
X42893226Y-74665833D01*
X43026560Y-74632500D01*
X43093226Y-74599166D01*
X43159893Y-74532500D01*
X43193226Y-74432500D01*
X43193226Y-74365833D01*
X43159893Y-74265833D01*
X43126560Y-74232500D01*
X42893226Y-74232500D01*
X42893226Y-74365833D01*
X43193226Y-73932500D02*
X42493226Y-73932500D01*
X42493226Y-73665833D01*
X42526560Y-73599166D01*
X42559893Y-73565833D01*
X42626560Y-73532500D01*
X42726560Y-73532500D01*
X42793226Y-73565833D01*
X42826560Y-73599166D01*
X42859893Y-73665833D01*
X42859893Y-73932500D01*
X43193226Y-73232500D02*
X42493226Y-73232500D01*
X42493226Y-72765833D02*
X42493226Y-72632500D01*
X42526560Y-72565833D01*
X42593226Y-72499166D01*
X42726560Y-72465833D01*
X42959893Y-72465833D01*
X43093226Y-72499166D01*
X43159893Y-72565833D01*
X43193226Y-72632500D01*
X43193226Y-72765833D01*
X43159893Y-72832500D01*
X43093226Y-72899166D01*
X42959893Y-72932500D01*
X42726560Y-72932500D01*
X42593226Y-72899166D01*
X42526560Y-72832500D01*
X42493226Y-72765833D01*
X42493226Y-72232500D02*
X42493226Y-71799166D01*
X42759893Y-72032500D01*
X42759893Y-71932500D01*
X42793226Y-71865833D01*
X42826560Y-71832500D01*
X42893226Y-71799166D01*
X43059893Y-71799166D01*
X43126560Y-71832500D01*
X43159893Y-71865833D01*
X43193226Y-71932500D01*
X43193226Y-72132500D01*
X43159893Y-72199166D01*
X43126560Y-72232500D01*
X42493226Y-71199166D02*
X42493226Y-71332500D01*
X42526560Y-71399166D01*
X42559893Y-71432500D01*
X42659893Y-71499166D01*
X42793226Y-71532500D01*
X43059893Y-71532500D01*
X43126560Y-71499166D01*
X43159893Y-71465833D01*
X43193226Y-71399166D01*
X43193226Y-71265833D01*
X43159893Y-71199166D01*
X43126560Y-71165833D01*
X43059893Y-71132500D01*
X42893226Y-71132500D01*
X42826560Y-71165833D01*
X42793226Y-71199166D01*
X42759893Y-71265833D01*
X42759893Y-71399166D01*
X42793226Y-71465833D01*
X42826560Y-71499166D01*
X42893226Y-71532500D01*
X78753226Y-76665833D02*
X78053226Y-76665833D01*
X78053226Y-76499166D01*
X78086560Y-76399166D01*
X78153226Y-76332500D01*
X78219893Y-76299166D01*
X78353226Y-76265833D01*
X78453226Y-76265833D01*
X78586560Y-76299166D01*
X78653226Y-76332500D01*
X78719893Y-76399166D01*
X78753226Y-76499166D01*
X78753226Y-76665833D01*
X78053226Y-76032500D02*
X78053226Y-75599166D01*
X78319893Y-75832500D01*
X78319893Y-75732500D01*
X78353226Y-75665833D01*
X78386560Y-75632500D01*
X78453226Y-75599166D01*
X78619893Y-75599166D01*
X78686560Y-75632500D01*
X78719893Y-75665833D01*
X78753226Y-75732500D01*
X78753226Y-75932500D01*
X78719893Y-75999166D01*
X78686560Y-76032500D01*
X67926560Y-56767500D02*
X67893226Y-56834166D01*
X67893226Y-56934166D01*
X67926560Y-57034166D01*
X67993226Y-57100833D01*
X68059893Y-57134166D01*
X68193226Y-57167500D01*
X68293226Y-57167500D01*
X68426560Y-57134166D01*
X68493226Y-57100833D01*
X68559893Y-57034166D01*
X68593226Y-56934166D01*
X68593226Y-56867500D01*
X68559893Y-56767500D01*
X68526560Y-56734166D01*
X68293226Y-56734166D01*
X68293226Y-56867500D01*
X68593226Y-56434166D02*
X67893226Y-56434166D01*
X67893226Y-56167500D01*
X67926560Y-56100833D01*
X67959893Y-56067500D01*
X68026560Y-56034166D01*
X68126560Y-56034166D01*
X68193226Y-56067500D01*
X68226560Y-56100833D01*
X68259893Y-56167500D01*
X68259893Y-56434166D01*
X68593226Y-55734166D02*
X67893226Y-55734166D01*
X67893226Y-55267500D02*
X67893226Y-55134166D01*
X67926560Y-55067500D01*
X67993226Y-55000833D01*
X68126560Y-54967500D01*
X68359893Y-54967500D01*
X68493226Y-55000833D01*
X68559893Y-55067500D01*
X68593226Y-55134166D01*
X68593226Y-55267500D01*
X68559893Y-55334166D01*
X68493226Y-55400833D01*
X68359893Y-55434166D01*
X68126560Y-55434166D01*
X67993226Y-55400833D01*
X67926560Y-55334166D01*
X67893226Y-55267500D01*
X68126560Y-54367500D02*
X68593226Y-54367500D01*
X67859893Y-54534166D02*
X68359893Y-54700833D01*
X68359893Y-54267500D01*
X55226560Y-57434166D02*
X55193226Y-57500833D01*
X55193226Y-57600833D01*
X55226560Y-57700833D01*
X55293226Y-57767500D01*
X55359893Y-57800833D01*
X55493226Y-57834166D01*
X55593226Y-57834166D01*
X55726560Y-57800833D01*
X55793226Y-57767500D01*
X55859893Y-57700833D01*
X55893226Y-57600833D01*
X55893226Y-57534166D01*
X55859893Y-57434166D01*
X55826560Y-57400833D01*
X55593226Y-57400833D01*
X55593226Y-57534166D01*
X55893226Y-57100833D02*
X55193226Y-57100833D01*
X55193226Y-56834166D01*
X55226560Y-56767500D01*
X55259893Y-56734166D01*
X55326560Y-56700833D01*
X55426560Y-56700833D01*
X55493226Y-56734166D01*
X55526560Y-56767500D01*
X55559893Y-56834166D01*
X55559893Y-57100833D01*
X55893226Y-56400833D02*
X55193226Y-56400833D01*
X55193226Y-55934166D02*
X55193226Y-55800833D01*
X55226560Y-55734166D01*
X55293226Y-55667500D01*
X55426560Y-55634166D01*
X55659893Y-55634166D01*
X55793226Y-55667500D01*
X55859893Y-55734166D01*
X55893226Y-55800833D01*
X55893226Y-55934166D01*
X55859893Y-56000833D01*
X55793226Y-56067500D01*
X55659893Y-56100833D01*
X55426560Y-56100833D01*
X55293226Y-56067500D01*
X55226560Y-56000833D01*
X55193226Y-55934166D01*
X55893226Y-54967500D02*
X55893226Y-55367500D01*
X55893226Y-55167500D02*
X55193226Y-55167500D01*
X55293226Y-55234166D01*
X55359893Y-55300833D01*
X55393226Y-55367500D01*
X55893226Y-54634166D02*
X55893226Y-54500833D01*
X55859893Y-54434166D01*
X55826560Y-54400833D01*
X55726560Y-54334166D01*
X55593226Y-54300833D01*
X55326560Y-54300833D01*
X55259893Y-54334166D01*
X55226560Y-54367500D01*
X55193226Y-54434166D01*
X55193226Y-54567500D01*
X55226560Y-54634166D01*
X55259893Y-54667500D01*
X55326560Y-54700833D01*
X55493226Y-54700833D01*
X55559893Y-54667500D01*
X55593226Y-54634166D01*
X55626560Y-54567500D01*
X55626560Y-54434166D01*
X55593226Y-54367500D01*
X55559893Y-54334166D01*
X55493226Y-54300833D01*
X50146560Y-76299166D02*
X50113226Y-76365833D01*
X50113226Y-76465833D01*
X50146560Y-76565833D01*
X50213226Y-76632500D01*
X50279893Y-76665833D01*
X50413226Y-76699166D01*
X50513226Y-76699166D01*
X50646560Y-76665833D01*
X50713226Y-76632500D01*
X50779893Y-76565833D01*
X50813226Y-76465833D01*
X50813226Y-76399166D01*
X50779893Y-76299166D01*
X50746560Y-76265833D01*
X50513226Y-76265833D01*
X50513226Y-76399166D01*
X50813226Y-75965833D02*
X50113226Y-75965833D01*
X50113226Y-75699166D01*
X50146560Y-75632500D01*
X50179893Y-75599166D01*
X50246560Y-75565833D01*
X50346560Y-75565833D01*
X50413226Y-75599166D01*
X50446560Y-75632500D01*
X50479893Y-75699166D01*
X50479893Y-75965833D01*
X50813226Y-75265833D02*
X50113226Y-75265833D01*
X50113226Y-74799166D02*
X50113226Y-74665833D01*
X50146560Y-74599166D01*
X50213226Y-74532500D01*
X50346560Y-74499166D01*
X50579893Y-74499166D01*
X50713226Y-74532500D01*
X50779893Y-74599166D01*
X50813226Y-74665833D01*
X50813226Y-74799166D01*
X50779893Y-74865833D01*
X50713226Y-74932500D01*
X50579893Y-74965833D01*
X50346560Y-74965833D01*
X50213226Y-74932500D01*
X50146560Y-74865833D01*
X50113226Y-74799166D01*
X50113226Y-74265833D02*
X50113226Y-73832500D01*
X50379893Y-74065833D01*
X50379893Y-73965833D01*
X50413226Y-73899166D01*
X50446560Y-73865833D01*
X50513226Y-73832500D01*
X50679893Y-73832500D01*
X50746560Y-73865833D01*
X50779893Y-73899166D01*
X50813226Y-73965833D01*
X50813226Y-74165833D01*
X50779893Y-74232500D01*
X50746560Y-74265833D01*
X50113226Y-73199166D02*
X50113226Y-73532500D01*
X50446560Y-73565833D01*
X50413226Y-73532500D01*
X50379893Y-73465833D01*
X50379893Y-73299166D01*
X50413226Y-73232500D01*
X50446560Y-73199166D01*
X50513226Y-73165833D01*
X50679893Y-73165833D01*
X50746560Y-73199166D01*
X50779893Y-73232500D01*
X50813226Y-73299166D01*
X50813226Y-73465833D01*
X50779893Y-73532500D01*
X50746560Y-73565833D01*
X60306560Y-56767500D02*
X60273226Y-56834166D01*
X60273226Y-56934166D01*
X60306560Y-57034166D01*
X60373226Y-57100833D01*
X60439893Y-57134166D01*
X60573226Y-57167500D01*
X60673226Y-57167500D01*
X60806560Y-57134166D01*
X60873226Y-57100833D01*
X60939893Y-57034166D01*
X60973226Y-56934166D01*
X60973226Y-56867500D01*
X60939893Y-56767500D01*
X60906560Y-56734166D01*
X60673226Y-56734166D01*
X60673226Y-56867500D01*
X60973226Y-56434166D02*
X60273226Y-56434166D01*
X60273226Y-56167500D01*
X60306560Y-56100833D01*
X60339893Y-56067500D01*
X60406560Y-56034166D01*
X60506560Y-56034166D01*
X60573226Y-56067500D01*
X60606560Y-56100833D01*
X60639893Y-56167500D01*
X60639893Y-56434166D01*
X60973226Y-55734166D02*
X60273226Y-55734166D01*
X60273226Y-55267500D02*
X60273226Y-55134166D01*
X60306560Y-55067500D01*
X60373226Y-55000833D01*
X60506560Y-54967500D01*
X60739893Y-54967500D01*
X60873226Y-55000833D01*
X60939893Y-55067500D01*
X60973226Y-55134166D01*
X60973226Y-55267500D01*
X60939893Y-55334166D01*
X60873226Y-55400833D01*
X60739893Y-55434166D01*
X60506560Y-55434166D01*
X60373226Y-55400833D01*
X60306560Y-55334166D01*
X60273226Y-55267500D01*
X60273226Y-54334166D02*
X60273226Y-54667500D01*
X60606560Y-54700833D01*
X60573226Y-54667500D01*
X60539893Y-54600833D01*
X60539893Y-54434166D01*
X60573226Y-54367500D01*
X60606560Y-54334166D01*
X60673226Y-54300833D01*
X60839893Y-54300833D01*
X60906560Y-54334166D01*
X60939893Y-54367500D01*
X60973226Y-54434166D01*
X60973226Y-54600833D01*
X60939893Y-54667500D01*
X60906560Y-54700833D01*
X52536560Y-56453214D02*
X52488940Y-56548452D01*
X52488940Y-56691309D01*
X52536560Y-56834166D01*
X52631798Y-56929404D01*
X52727036Y-56977023D01*
X52917512Y-57024642D01*
X53060369Y-57024642D01*
X53250845Y-56977023D01*
X53346083Y-56929404D01*
X53441321Y-56834166D01*
X53488940Y-56691309D01*
X53488940Y-56596071D01*
X53441321Y-56453214D01*
X53393702Y-56405595D01*
X53060369Y-56405595D01*
X53060369Y-56596071D01*
X53488940Y-55977023D02*
X52488940Y-55977023D01*
X53488940Y-55405595D01*
X52488940Y-55405595D01*
X53488940Y-54929404D02*
X52488940Y-54929404D01*
X52488940Y-54691309D01*
X52536560Y-54548452D01*
X52631798Y-54453214D01*
X52727036Y-54405595D01*
X52917512Y-54357976D01*
X53060369Y-54357976D01*
X53250845Y-54405595D01*
X53346083Y-54453214D01*
X53441321Y-54548452D01*
X53488940Y-54691309D01*
X53488940Y-54929404D01*
X42526560Y-57434166D02*
X42493226Y-57500833D01*
X42493226Y-57600833D01*
X42526560Y-57700833D01*
X42593226Y-57767500D01*
X42659893Y-57800833D01*
X42793226Y-57834166D01*
X42893226Y-57834166D01*
X43026560Y-57800833D01*
X43093226Y-57767500D01*
X43159893Y-57700833D01*
X43193226Y-57600833D01*
X43193226Y-57534166D01*
X43159893Y-57434166D01*
X43126560Y-57400833D01*
X42893226Y-57400833D01*
X42893226Y-57534166D01*
X43193226Y-57100833D02*
X42493226Y-57100833D01*
X42493226Y-56834166D01*
X42526560Y-56767500D01*
X42559893Y-56734166D01*
X42626560Y-56700833D01*
X42726560Y-56700833D01*
X42793226Y-56734166D01*
X42826560Y-56767500D01*
X42859893Y-56834166D01*
X42859893Y-57100833D01*
X43193226Y-56400833D02*
X42493226Y-56400833D01*
X42493226Y-55934166D02*
X42493226Y-55800833D01*
X42526560Y-55734166D01*
X42593226Y-55667500D01*
X42726560Y-55634166D01*
X42959893Y-55634166D01*
X43093226Y-55667500D01*
X43159893Y-55734166D01*
X43193226Y-55800833D01*
X43193226Y-55934166D01*
X43159893Y-56000833D01*
X43093226Y-56067500D01*
X42959893Y-56100833D01*
X42726560Y-56100833D01*
X42593226Y-56067500D01*
X42526560Y-56000833D01*
X42493226Y-55934166D01*
X42559893Y-55367500D02*
X42526560Y-55334166D01*
X42493226Y-55267500D01*
X42493226Y-55100833D01*
X42526560Y-55034166D01*
X42559893Y-55000833D01*
X42626560Y-54967500D01*
X42693226Y-54967500D01*
X42793226Y-55000833D01*
X43193226Y-55400833D01*
X43193226Y-54967500D01*
X42559893Y-54700833D02*
X42526560Y-54667500D01*
X42493226Y-54600833D01*
X42493226Y-54434166D01*
X42526560Y-54367500D01*
X42559893Y-54334166D01*
X42626560Y-54300833D01*
X42693226Y-54300833D01*
X42793226Y-54334166D01*
X43193226Y-54734166D01*
X43193226Y-54300833D01*
X45033226Y-76765833D02*
X45733226Y-76532500D01*
X45033226Y-76299166D01*
X45733226Y-76065833D02*
X45033226Y-76065833D01*
X45733226Y-75665833D01*
X45033226Y-75665833D01*
X44999893Y-74832500D02*
X45899893Y-75432500D01*
X45066560Y-74232500D02*
X45033226Y-74299166D01*
X45033226Y-74399166D01*
X45066560Y-74499166D01*
X45133226Y-74565833D01*
X45199893Y-74599166D01*
X45333226Y-74632500D01*
X45433226Y-74632500D01*
X45566560Y-74599166D01*
X45633226Y-74565833D01*
X45699893Y-74499166D01*
X45733226Y-74399166D01*
X45733226Y-74332500D01*
X45699893Y-74232500D01*
X45666560Y-74199166D01*
X45433226Y-74199166D01*
X45433226Y-74332500D01*
X45733226Y-73899166D02*
X45033226Y-73899166D01*
X45033226Y-73632500D01*
X45066560Y-73565833D01*
X45099893Y-73532500D01*
X45166560Y-73499166D01*
X45266560Y-73499166D01*
X45333226Y-73532500D01*
X45366560Y-73565833D01*
X45399893Y-73632500D01*
X45399893Y-73899166D01*
X45733226Y-73199166D02*
X45033226Y-73199166D01*
X45033226Y-72732500D02*
X45033226Y-72599166D01*
X45066560Y-72532500D01*
X45133226Y-72465833D01*
X45266560Y-72432500D01*
X45499893Y-72432500D01*
X45633226Y-72465833D01*
X45699893Y-72532500D01*
X45733226Y-72599166D01*
X45733226Y-72732500D01*
X45699893Y-72799166D01*
X45633226Y-72865833D01*
X45499893Y-72899166D01*
X45266560Y-72899166D01*
X45133226Y-72865833D01*
X45066560Y-72799166D01*
X45033226Y-72732500D01*
X45033226Y-72199166D02*
X45033226Y-71765833D01*
X45299893Y-71999166D01*
X45299893Y-71899166D01*
X45333226Y-71832500D01*
X45366560Y-71799166D01*
X45433226Y-71765833D01*
X45599893Y-71765833D01*
X45666560Y-71799166D01*
X45699893Y-71832500D01*
X45733226Y-71899166D01*
X45733226Y-72099166D01*
X45699893Y-72165833D01*
X45666560Y-72199166D01*
X45733226Y-71432500D02*
X45733226Y-71299166D01*
X45699893Y-71232500D01*
X45666560Y-71199166D01*
X45566560Y-71132500D01*
X45433226Y-71099166D01*
X45166560Y-71099166D01*
X45099893Y-71132500D01*
X45066560Y-71165833D01*
X45033226Y-71232500D01*
X45033226Y-71365833D01*
X45066560Y-71432500D01*
X45099893Y-71465833D01*
X45166560Y-71499166D01*
X45333226Y-71499166D01*
X45399893Y-71465833D01*
X45433226Y-71432500D01*
X45466560Y-71365833D01*
X45466560Y-71232500D01*
X45433226Y-71165833D01*
X45399893Y-71132500D01*
X45333226Y-71099166D01*
X37248940Y-76689642D02*
X37248940Y-76070595D01*
X37629893Y-76403928D01*
X37629893Y-76261071D01*
X37677512Y-76165833D01*
X37725131Y-76118214D01*
X37820369Y-76070595D01*
X38058464Y-76070595D01*
X38153702Y-76118214D01*
X38201321Y-76165833D01*
X38248940Y-76261071D01*
X38248940Y-76546785D01*
X38201321Y-76642023D01*
X38153702Y-76689642D01*
X37248940Y-75784880D02*
X38248940Y-75451547D01*
X37248940Y-75118214D01*
X37248940Y-74880119D02*
X37248940Y-74261071D01*
X37629893Y-74594404D01*
X37629893Y-74451547D01*
X37677512Y-74356309D01*
X37725131Y-74308690D01*
X37820369Y-74261071D01*
X38058464Y-74261071D01*
X38153702Y-74308690D01*
X38201321Y-74356309D01*
X38248940Y-74451547D01*
X38248940Y-74737261D01*
X38201321Y-74832500D01*
X38153702Y-74880119D01*
X75546560Y-60934166D02*
X75513226Y-61000833D01*
X75513226Y-61100833D01*
X75546560Y-61200833D01*
X75613226Y-61267500D01*
X75679893Y-61300833D01*
X75813226Y-61334166D01*
X75913226Y-61334166D01*
X76046560Y-61300833D01*
X76113226Y-61267500D01*
X76179893Y-61200833D01*
X76213226Y-61100833D01*
X76213226Y-61034166D01*
X76179893Y-60934166D01*
X76146560Y-60900833D01*
X75913226Y-60900833D01*
X75913226Y-61034166D01*
X76213226Y-60600833D02*
X75513226Y-60600833D01*
X75513226Y-60334166D01*
X75546560Y-60267500D01*
X75579893Y-60234166D01*
X75646560Y-60200833D01*
X75746560Y-60200833D01*
X75813226Y-60234166D01*
X75846560Y-60267500D01*
X75879893Y-60334166D01*
X75879893Y-60600833D01*
X76213226Y-59900833D02*
X75513226Y-59900833D01*
X75513226Y-59434166D02*
X75513226Y-59300833D01*
X75546560Y-59234166D01*
X75613226Y-59167500D01*
X75746560Y-59134166D01*
X75979893Y-59134166D01*
X76113226Y-59167500D01*
X76179893Y-59234166D01*
X76213226Y-59300833D01*
X76213226Y-59434166D01*
X76179893Y-59500833D01*
X76113226Y-59567500D01*
X75979893Y-59600833D01*
X75746560Y-59600833D01*
X75613226Y-59567500D01*
X75546560Y-59500833D01*
X75513226Y-59434166D01*
X76213226Y-58467500D02*
X76213226Y-58867500D01*
X76213226Y-58667500D02*
X75513226Y-58667500D01*
X75613226Y-58734166D01*
X75679893Y-58800833D01*
X75713226Y-58867500D01*
X75513226Y-57834166D02*
X75513226Y-58167500D01*
X75846560Y-58200833D01*
X75813226Y-58167500D01*
X75779893Y-58100833D01*
X75779893Y-57934166D01*
X75813226Y-57867500D01*
X75846560Y-57834166D01*
X75913226Y-57800833D01*
X76079893Y-57800833D01*
X76146560Y-57834166D01*
X76179893Y-57867500D01*
X76213226Y-57934166D01*
X76213226Y-58100833D01*
X76179893Y-58167500D01*
X76146560Y-58200833D01*
X75479893Y-57000833D02*
X76379893Y-57600833D01*
X76213226Y-56767500D02*
X75513226Y-56767500D01*
X76013226Y-56534166D01*
X75513226Y-56300833D01*
X76213226Y-56300833D01*
X75513226Y-56067500D02*
X75513226Y-55667500D01*
X76213226Y-55867500D02*
X75513226Y-55867500D01*
X76213226Y-55434166D02*
X75513226Y-55434166D01*
X75513226Y-55267500D01*
X75546560Y-55167500D01*
X75613226Y-55100833D01*
X75679893Y-55067500D01*
X75813226Y-55034166D01*
X75913226Y-55034166D01*
X76046560Y-55067500D01*
X76113226Y-55100833D01*
X76179893Y-55167500D01*
X76213226Y-55267500D01*
X76213226Y-55434166D01*
X75513226Y-54600833D02*
X75513226Y-54467500D01*
X75546560Y-54400833D01*
X75613226Y-54334166D01*
X75746560Y-54300833D01*
X75979893Y-54300833D01*
X76113226Y-54334166D01*
X76179893Y-54400833D01*
X76213226Y-54467500D01*
X76213226Y-54600833D01*
X76179893Y-54667500D01*
X76113226Y-54734166D01*
X75979893Y-54767500D01*
X75746560Y-54767500D01*
X75613226Y-54734166D01*
X75546560Y-54667500D01*
X75513226Y-54600833D01*
X83220220Y-76121894D02*
X83220220Y-76598084D01*
X83696411Y-76645703D01*
X83648792Y-76598084D01*
X83601173Y-76502846D01*
X83601173Y-76264751D01*
X83648792Y-76169513D01*
X83696411Y-76121894D01*
X83791649Y-76074275D01*
X84029744Y-76074275D01*
X84124982Y-76121894D01*
X84172601Y-76169513D01*
X84220220Y-76264751D01*
X84220220Y-76502846D01*
X84172601Y-76598084D01*
X84124982Y-76645703D01*
X83220220Y-75788560D02*
X84220220Y-75455227D01*
X83220220Y-75121894D01*
X45066560Y-60800833D02*
X45033226Y-60867500D01*
X45033226Y-60967500D01*
X45066560Y-61067500D01*
X45133226Y-61134166D01*
X45199893Y-61167500D01*
X45333226Y-61200833D01*
X45433226Y-61200833D01*
X45566560Y-61167500D01*
X45633226Y-61134166D01*
X45699893Y-61067500D01*
X45733226Y-60967500D01*
X45733226Y-60900833D01*
X45699893Y-60800833D01*
X45666560Y-60767500D01*
X45433226Y-60767500D01*
X45433226Y-60900833D01*
X45733226Y-60467500D02*
X45033226Y-60467500D01*
X45033226Y-60200833D01*
X45066560Y-60134166D01*
X45099893Y-60100833D01*
X45166560Y-60067500D01*
X45266560Y-60067500D01*
X45333226Y-60100833D01*
X45366560Y-60134166D01*
X45399893Y-60200833D01*
X45399893Y-60467500D01*
X45733226Y-59767500D02*
X45033226Y-59767500D01*
X45033226Y-59300833D02*
X45033226Y-59167500D01*
X45066560Y-59100833D01*
X45133226Y-59034166D01*
X45266560Y-59000833D01*
X45499893Y-59000833D01*
X45633226Y-59034166D01*
X45699893Y-59100833D01*
X45733226Y-59167500D01*
X45733226Y-59300833D01*
X45699893Y-59367500D01*
X45633226Y-59434166D01*
X45499893Y-59467500D01*
X45266560Y-59467500D01*
X45133226Y-59434166D01*
X45066560Y-59367500D01*
X45033226Y-59300833D01*
X45733226Y-58334166D02*
X45733226Y-58734166D01*
X45733226Y-58534166D02*
X45033226Y-58534166D01*
X45133226Y-58600833D01*
X45199893Y-58667500D01*
X45233226Y-58734166D01*
X44999893Y-57534166D02*
X45899893Y-58134166D01*
X45033226Y-57300833D02*
X45599893Y-57300833D01*
X45666560Y-57267500D01*
X45699893Y-57234166D01*
X45733226Y-57167500D01*
X45733226Y-57034166D01*
X45699893Y-56967500D01*
X45666560Y-56934166D01*
X45599893Y-56900833D01*
X45033226Y-56900833D01*
X45033226Y-56434166D02*
X45033226Y-56367500D01*
X45066560Y-56300833D01*
X45099893Y-56267500D01*
X45166560Y-56234166D01*
X45299893Y-56200833D01*
X45466560Y-56200833D01*
X45599893Y-56234166D01*
X45666560Y-56267500D01*
X45699893Y-56300833D01*
X45733226Y-56367500D01*
X45733226Y-56434166D01*
X45699893Y-56500833D01*
X45666560Y-56534166D01*
X45599893Y-56567500D01*
X45466560Y-56600833D01*
X45299893Y-56600833D01*
X45166560Y-56567500D01*
X45099893Y-56534166D01*
X45066560Y-56500833D01*
X45033226Y-56434166D01*
X45033226Y-56000833D02*
X45033226Y-55600833D01*
X45733226Y-55800833D02*
X45033226Y-55800833D01*
X45033226Y-55434166D02*
X45733226Y-54967500D01*
X45033226Y-54967500D02*
X45733226Y-55434166D01*
X45733226Y-54700833D02*
X45033226Y-54700833D01*
X45033226Y-54534166D01*
X45066560Y-54434166D01*
X45133226Y-54367500D01*
X45199893Y-54334166D01*
X45333226Y-54300833D01*
X45433226Y-54300833D01*
X45566560Y-54334166D01*
X45633226Y-54367500D01*
X45699893Y-54434166D01*
X45733226Y-54534166D01*
X45733226Y-54700833D01*
X40262411Y-76696894D02*
X40262411Y-76363560D01*
X40786220Y-76220703D02*
X40786220Y-76696894D01*
X39786220Y-76696894D01*
X39786220Y-76220703D01*
X40786220Y-75792132D02*
X39786220Y-75792132D01*
X40786220Y-75220703D01*
X39786220Y-75220703D01*
X39738601Y-74030227D02*
X41024316Y-74887370D01*
X40786220Y-73125465D02*
X40310030Y-73458799D01*
X40786220Y-73696894D02*
X39786220Y-73696894D01*
X39786220Y-73315941D01*
X39833840Y-73220703D01*
X39881459Y-73173084D01*
X39976697Y-73125465D01*
X40119554Y-73125465D01*
X40214792Y-73173084D01*
X40262411Y-73220703D01*
X40310030Y-73315941D01*
X40310030Y-73696894D01*
X40262411Y-72696894D02*
X40262411Y-72363560D01*
X40786220Y-72220703D02*
X40786220Y-72696894D01*
X39786220Y-72696894D01*
X39786220Y-72220703D01*
X40738601Y-71839751D02*
X40786220Y-71696894D01*
X40786220Y-71458799D01*
X40738601Y-71363560D01*
X40690982Y-71315941D01*
X40595744Y-71268322D01*
X40500506Y-71268322D01*
X40405268Y-71315941D01*
X40357649Y-71363560D01*
X40310030Y-71458799D01*
X40262411Y-71649275D01*
X40214792Y-71744513D01*
X40167173Y-71792132D01*
X40071935Y-71839751D01*
X39976697Y-71839751D01*
X39881459Y-71792132D01*
X39833840Y-71744513D01*
X39786220Y-71649275D01*
X39786220Y-71411180D01*
X39833840Y-71268322D01*
X40262411Y-70839751D02*
X40262411Y-70506418D01*
X40786220Y-70363560D02*
X40786220Y-70839751D01*
X39786220Y-70839751D01*
X39786220Y-70363560D01*
X39786220Y-70077846D02*
X39786220Y-69506418D01*
X40786220Y-69792132D02*
X39786220Y-69792132D01*
X47606560Y-60967500D02*
X47573226Y-61034166D01*
X47573226Y-61134166D01*
X47606560Y-61234166D01*
X47673226Y-61300833D01*
X47739893Y-61334166D01*
X47873226Y-61367500D01*
X47973226Y-61367500D01*
X48106560Y-61334166D01*
X48173226Y-61300833D01*
X48239893Y-61234166D01*
X48273226Y-61134166D01*
X48273226Y-61067500D01*
X48239893Y-60967500D01*
X48206560Y-60934166D01*
X47973226Y-60934166D01*
X47973226Y-61067500D01*
X48273226Y-60634166D02*
X47573226Y-60634166D01*
X47573226Y-60367500D01*
X47606560Y-60300833D01*
X47639893Y-60267500D01*
X47706560Y-60234166D01*
X47806560Y-60234166D01*
X47873226Y-60267500D01*
X47906560Y-60300833D01*
X47939893Y-60367500D01*
X47939893Y-60634166D01*
X48273226Y-59934166D02*
X47573226Y-59934166D01*
X47573226Y-59467500D02*
X47573226Y-59334166D01*
X47606560Y-59267500D01*
X47673226Y-59200833D01*
X47806560Y-59167500D01*
X48039893Y-59167500D01*
X48173226Y-59200833D01*
X48239893Y-59267500D01*
X48273226Y-59334166D01*
X48273226Y-59467500D01*
X48239893Y-59534166D01*
X48173226Y-59600833D01*
X48039893Y-59634166D01*
X47806560Y-59634166D01*
X47673226Y-59600833D01*
X47606560Y-59534166D01*
X47573226Y-59467500D01*
X47573226Y-58934166D02*
X47573226Y-58500833D01*
X47839893Y-58734166D01*
X47839893Y-58634166D01*
X47873226Y-58567500D01*
X47906560Y-58534166D01*
X47973226Y-58500833D01*
X48139893Y-58500833D01*
X48206560Y-58534166D01*
X48239893Y-58567500D01*
X48273226Y-58634166D01*
X48273226Y-58834166D01*
X48239893Y-58900833D01*
X48206560Y-58934166D01*
X47539893Y-57700833D02*
X48439893Y-58300833D01*
X47573226Y-57467500D02*
X48139893Y-57467500D01*
X48206560Y-57434166D01*
X48239893Y-57400833D01*
X48273226Y-57334166D01*
X48273226Y-57200833D01*
X48239893Y-57134166D01*
X48206560Y-57100833D01*
X48139893Y-57067500D01*
X47573226Y-57067500D01*
X47573226Y-56600833D02*
X47573226Y-56534166D01*
X47606560Y-56467500D01*
X47639893Y-56434166D01*
X47706560Y-56400833D01*
X47839893Y-56367500D01*
X48006560Y-56367500D01*
X48139893Y-56400833D01*
X48206560Y-56434166D01*
X48239893Y-56467500D01*
X48273226Y-56534166D01*
X48273226Y-56600833D01*
X48239893Y-56667500D01*
X48206560Y-56700833D01*
X48139893Y-56734166D01*
X48006560Y-56767500D01*
X47839893Y-56767500D01*
X47706560Y-56734166D01*
X47639893Y-56700833D01*
X47606560Y-56667500D01*
X47573226Y-56600833D01*
X48273226Y-55667500D02*
X47939893Y-55900833D01*
X48273226Y-56067500D02*
X47573226Y-56067500D01*
X47573226Y-55800833D01*
X47606560Y-55734166D01*
X47639893Y-55700833D01*
X47706560Y-55667500D01*
X47806560Y-55667500D01*
X47873226Y-55700833D01*
X47906560Y-55734166D01*
X47939893Y-55800833D01*
X47939893Y-56067500D01*
X47573226Y-55434166D02*
X48273226Y-54967500D01*
X47573226Y-54967500D02*
X48273226Y-55434166D01*
X48273226Y-54700833D02*
X47573226Y-54700833D01*
X47573226Y-54534166D01*
X47606560Y-54434166D01*
X47673226Y-54367500D01*
X47739893Y-54334166D01*
X47873226Y-54300833D01*
X47973226Y-54300833D01*
X48106560Y-54334166D01*
X48173226Y-54367500D01*
X48239893Y-54434166D01*
X48273226Y-54534166D01*
X48273226Y-54700833D01*
X39986560Y-57434166D02*
X39953226Y-57500833D01*
X39953226Y-57600833D01*
X39986560Y-57700833D01*
X40053226Y-57767500D01*
X40119893Y-57800833D01*
X40253226Y-57834166D01*
X40353226Y-57834166D01*
X40486560Y-57800833D01*
X40553226Y-57767500D01*
X40619893Y-57700833D01*
X40653226Y-57600833D01*
X40653226Y-57534166D01*
X40619893Y-57434166D01*
X40586560Y-57400833D01*
X40353226Y-57400833D01*
X40353226Y-57534166D01*
X40653226Y-57100833D02*
X39953226Y-57100833D01*
X39953226Y-56834166D01*
X39986560Y-56767500D01*
X40019893Y-56734166D01*
X40086560Y-56700833D01*
X40186560Y-56700833D01*
X40253226Y-56734166D01*
X40286560Y-56767500D01*
X40319893Y-56834166D01*
X40319893Y-57100833D01*
X40653226Y-56400833D02*
X39953226Y-56400833D01*
X39953226Y-55934166D02*
X39953226Y-55800833D01*
X39986560Y-55734166D01*
X40053226Y-55667500D01*
X40186560Y-55634166D01*
X40419893Y-55634166D01*
X40553226Y-55667500D01*
X40619893Y-55734166D01*
X40653226Y-55800833D01*
X40653226Y-55934166D01*
X40619893Y-56000833D01*
X40553226Y-56067500D01*
X40419893Y-56100833D01*
X40186560Y-56100833D01*
X40053226Y-56067500D01*
X39986560Y-56000833D01*
X39953226Y-55934166D01*
X40019893Y-55367500D02*
X39986560Y-55334166D01*
X39953226Y-55267500D01*
X39953226Y-55100833D01*
X39986560Y-55034166D01*
X40019893Y-55000833D01*
X40086560Y-54967500D01*
X40153226Y-54967500D01*
X40253226Y-55000833D01*
X40653226Y-55400833D01*
X40653226Y-54967500D01*
X39953226Y-54734166D02*
X39953226Y-54300833D01*
X40219893Y-54534166D01*
X40219893Y-54434166D01*
X40253226Y-54367500D01*
X40286560Y-54334166D01*
X40353226Y-54300833D01*
X40519893Y-54300833D01*
X40586560Y-54334166D01*
X40619893Y-54367500D01*
X40653226Y-54434166D01*
X40653226Y-54634166D01*
X40619893Y-54700833D01*
X40586560Y-54734166D01*
X78753226Y-55367500D02*
X78053226Y-55367500D01*
X78053226Y-55200833D01*
X78086560Y-55100833D01*
X78153226Y-55034166D01*
X78219893Y-55000833D01*
X78353226Y-54967500D01*
X78453226Y-54967500D01*
X78586560Y-55000833D01*
X78653226Y-55034166D01*
X78719893Y-55100833D01*
X78753226Y-55200833D01*
X78753226Y-55367500D01*
X78753226Y-54300833D02*
X78753226Y-54700833D01*
X78753226Y-54500833D02*
X78053226Y-54500833D01*
X78153226Y-54567500D01*
X78219893Y-54634166D01*
X78253226Y-54700833D01*
X62846560Y-76299166D02*
X62813226Y-76365833D01*
X62813226Y-76465833D01*
X62846560Y-76565833D01*
X62913226Y-76632500D01*
X62979893Y-76665833D01*
X63113226Y-76699166D01*
X63213226Y-76699166D01*
X63346560Y-76665833D01*
X63413226Y-76632500D01*
X63479893Y-76565833D01*
X63513226Y-76465833D01*
X63513226Y-76399166D01*
X63479893Y-76299166D01*
X63446560Y-76265833D01*
X63213226Y-76265833D01*
X63213226Y-76399166D01*
X63513226Y-75965833D02*
X62813226Y-75965833D01*
X62813226Y-75699166D01*
X62846560Y-75632500D01*
X62879893Y-75599166D01*
X62946560Y-75565833D01*
X63046560Y-75565833D01*
X63113226Y-75599166D01*
X63146560Y-75632500D01*
X63179893Y-75699166D01*
X63179893Y-75965833D01*
X63513226Y-75265833D02*
X62813226Y-75265833D01*
X62813226Y-74799166D02*
X62813226Y-74665833D01*
X62846560Y-74599166D01*
X62913226Y-74532500D01*
X63046560Y-74499166D01*
X63279893Y-74499166D01*
X63413226Y-74532500D01*
X63479893Y-74599166D01*
X63513226Y-74665833D01*
X63513226Y-74799166D01*
X63479893Y-74865833D01*
X63413226Y-74932500D01*
X63279893Y-74965833D01*
X63046560Y-74965833D01*
X62913226Y-74932500D01*
X62846560Y-74865833D01*
X62813226Y-74799166D01*
X62879893Y-74232500D02*
X62846560Y-74199166D01*
X62813226Y-74132500D01*
X62813226Y-73965833D01*
X62846560Y-73899166D01*
X62879893Y-73865833D01*
X62946560Y-73832500D01*
X63013226Y-73832500D01*
X63113226Y-73865833D01*
X63513226Y-74265833D01*
X63513226Y-73832500D01*
X62813226Y-73599166D02*
X62813226Y-73132500D01*
X63513226Y-73432500D01*
X73006560Y-76299166D02*
X72973226Y-76365833D01*
X72973226Y-76465833D01*
X73006560Y-76565833D01*
X73073226Y-76632500D01*
X73139893Y-76665833D01*
X73273226Y-76699166D01*
X73373226Y-76699166D01*
X73506560Y-76665833D01*
X73573226Y-76632500D01*
X73639893Y-76565833D01*
X73673226Y-76465833D01*
X73673226Y-76399166D01*
X73639893Y-76299166D01*
X73606560Y-76265833D01*
X73373226Y-76265833D01*
X73373226Y-76399166D01*
X73673226Y-75965833D02*
X72973226Y-75965833D01*
X72973226Y-75699166D01*
X73006560Y-75632500D01*
X73039893Y-75599166D01*
X73106560Y-75565833D01*
X73206560Y-75565833D01*
X73273226Y-75599166D01*
X73306560Y-75632500D01*
X73339893Y-75699166D01*
X73339893Y-75965833D01*
X73673226Y-75265833D02*
X72973226Y-75265833D01*
X72973226Y-74799166D02*
X72973226Y-74665833D01*
X73006560Y-74599166D01*
X73073226Y-74532500D01*
X73206560Y-74499166D01*
X73439893Y-74499166D01*
X73573226Y-74532500D01*
X73639893Y-74599166D01*
X73673226Y-74665833D01*
X73673226Y-74799166D01*
X73639893Y-74865833D01*
X73573226Y-74932500D01*
X73439893Y-74965833D01*
X73206560Y-74965833D01*
X73073226Y-74932500D01*
X73006560Y-74865833D01*
X72973226Y-74799166D01*
X73673226Y-73832500D02*
X73673226Y-74232500D01*
X73673226Y-74032500D02*
X72973226Y-74032500D01*
X73073226Y-74099166D01*
X73139893Y-74165833D01*
X73173226Y-74232500D01*
X72973226Y-73599166D02*
X72973226Y-73165833D01*
X73239893Y-73399166D01*
X73239893Y-73299166D01*
X73273226Y-73232500D01*
X73306560Y-73199166D01*
X73373226Y-73165833D01*
X73539893Y-73165833D01*
X73606560Y-73199166D01*
X73639893Y-73232500D01*
X73673226Y-73299166D01*
X73673226Y-73499166D01*
X73639893Y-73565833D01*
X73606560Y-73599166D01*
X72939893Y-72365833D02*
X73839893Y-72965833D01*
X73673226Y-72132500D02*
X72973226Y-72132500D01*
X73473226Y-71899166D01*
X72973226Y-71665833D01*
X73673226Y-71665833D01*
X72973226Y-71432500D02*
X72973226Y-71032500D01*
X73673226Y-71232500D02*
X72973226Y-71232500D01*
X73606560Y-70399166D02*
X73639893Y-70432500D01*
X73673226Y-70532500D01*
X73673226Y-70599166D01*
X73639893Y-70699166D01*
X73573226Y-70765833D01*
X73506560Y-70799166D01*
X73373226Y-70832500D01*
X73273226Y-70832500D01*
X73139893Y-70799166D01*
X73073226Y-70765833D01*
X73006560Y-70699166D01*
X72973226Y-70599166D01*
X72973226Y-70532500D01*
X73006560Y-70432500D01*
X73039893Y-70399166D01*
X73673226Y-70099166D02*
X72973226Y-70099166D01*
X73673226Y-69699166D02*
X73273226Y-69999166D01*
X72973226Y-69699166D02*
X73373226Y-70099166D01*
X83766560Y-55567500D02*
X83799893Y-55600833D01*
X83833226Y-55700833D01*
X83833226Y-55767500D01*
X83799893Y-55867500D01*
X83733226Y-55934166D01*
X83666560Y-55967500D01*
X83533226Y-56000833D01*
X83433226Y-56000833D01*
X83299893Y-55967500D01*
X83233226Y-55934166D01*
X83166560Y-55867500D01*
X83133226Y-55767500D01*
X83133226Y-55700833D01*
X83166560Y-55600833D01*
X83199893Y-55567500D01*
X83833226Y-54934166D02*
X83833226Y-55267500D01*
X83133226Y-55267500D01*
X83833226Y-54700833D02*
X83133226Y-54700833D01*
X83833226Y-54300833D02*
X83433226Y-54600833D01*
X83133226Y-54300833D02*
X83533226Y-54700833D01*
X70466560Y-56767500D02*
X70433226Y-56834166D01*
X70433226Y-56934166D01*
X70466560Y-57034166D01*
X70533226Y-57100833D01*
X70599893Y-57134166D01*
X70733226Y-57167500D01*
X70833226Y-57167500D01*
X70966560Y-57134166D01*
X71033226Y-57100833D01*
X71099893Y-57034166D01*
X71133226Y-56934166D01*
X71133226Y-56867500D01*
X71099893Y-56767500D01*
X71066560Y-56734166D01*
X70833226Y-56734166D01*
X70833226Y-56867500D01*
X71133226Y-56434166D02*
X70433226Y-56434166D01*
X70433226Y-56167500D01*
X70466560Y-56100833D01*
X70499893Y-56067500D01*
X70566560Y-56034166D01*
X70666560Y-56034166D01*
X70733226Y-56067500D01*
X70766560Y-56100833D01*
X70799893Y-56167500D01*
X70799893Y-56434166D01*
X71133226Y-55734166D02*
X70433226Y-55734166D01*
X70433226Y-55267500D02*
X70433226Y-55134166D01*
X70466560Y-55067500D01*
X70533226Y-55000833D01*
X70666560Y-54967500D01*
X70899893Y-54967500D01*
X71033226Y-55000833D01*
X71099893Y-55067500D01*
X71133226Y-55134166D01*
X71133226Y-55267500D01*
X71099893Y-55334166D01*
X71033226Y-55400833D01*
X70899893Y-55434166D01*
X70666560Y-55434166D01*
X70533226Y-55400833D01*
X70466560Y-55334166D01*
X70433226Y-55267500D01*
X70433226Y-54534166D02*
X70433226Y-54467500D01*
X70466560Y-54400833D01*
X70499893Y-54367500D01*
X70566560Y-54334166D01*
X70699893Y-54300833D01*
X70866560Y-54300833D01*
X70999893Y-54334166D01*
X71066560Y-54367500D01*
X71099893Y-54400833D01*
X71133226Y-54467500D01*
X71133226Y-54534166D01*
X71099893Y-54600833D01*
X71066560Y-54634166D01*
X70999893Y-54667500D01*
X70866560Y-54700833D01*
X70699893Y-54700833D01*
X70566560Y-54667500D01*
X70499893Y-54634166D01*
X70466560Y-54600833D01*
X70433226Y-54534166D01*
X52686560Y-76299166D02*
X52653226Y-76365833D01*
X52653226Y-76465833D01*
X52686560Y-76565833D01*
X52753226Y-76632500D01*
X52819893Y-76665833D01*
X52953226Y-76699166D01*
X53053226Y-76699166D01*
X53186560Y-76665833D01*
X53253226Y-76632500D01*
X53319893Y-76565833D01*
X53353226Y-76465833D01*
X53353226Y-76399166D01*
X53319893Y-76299166D01*
X53286560Y-76265833D01*
X53053226Y-76265833D01*
X53053226Y-76399166D01*
X53353226Y-75965833D02*
X52653226Y-75965833D01*
X52653226Y-75699166D01*
X52686560Y-75632500D01*
X52719893Y-75599166D01*
X52786560Y-75565833D01*
X52886560Y-75565833D01*
X52953226Y-75599166D01*
X52986560Y-75632500D01*
X53019893Y-75699166D01*
X53019893Y-75965833D01*
X53353226Y-75265833D02*
X52653226Y-75265833D01*
X52653226Y-74799166D02*
X52653226Y-74665833D01*
X52686560Y-74599166D01*
X52753226Y-74532500D01*
X52886560Y-74499166D01*
X53119893Y-74499166D01*
X53253226Y-74532500D01*
X53319893Y-74599166D01*
X53353226Y-74665833D01*
X53353226Y-74799166D01*
X53319893Y-74865833D01*
X53253226Y-74932500D01*
X53119893Y-74965833D01*
X52886560Y-74965833D01*
X52753226Y-74932500D01*
X52686560Y-74865833D01*
X52653226Y-74799166D01*
X52653226Y-74265833D02*
X52653226Y-73832500D01*
X52919893Y-74065833D01*
X52919893Y-73965833D01*
X52953226Y-73899166D01*
X52986560Y-73865833D01*
X53053226Y-73832500D01*
X53219893Y-73832500D01*
X53286560Y-73865833D01*
X53319893Y-73899166D01*
X53353226Y-73965833D01*
X53353226Y-74165833D01*
X53319893Y-74232500D01*
X53286560Y-74265833D01*
X52719893Y-73565833D02*
X52686560Y-73532500D01*
X52653226Y-73465833D01*
X52653226Y-73299166D01*
X52686560Y-73232500D01*
X52719893Y-73199166D01*
X52786560Y-73165833D01*
X52853226Y-73165833D01*
X52953226Y-73199166D01*
X53353226Y-73599166D01*
X53353226Y-73165833D01*
X73006560Y-56767500D02*
X72973226Y-56834166D01*
X72973226Y-56934166D01*
X73006560Y-57034166D01*
X73073226Y-57100833D01*
X73139893Y-57134166D01*
X73273226Y-57167500D01*
X73373226Y-57167500D01*
X73506560Y-57134166D01*
X73573226Y-57100833D01*
X73639893Y-57034166D01*
X73673226Y-56934166D01*
X73673226Y-56867500D01*
X73639893Y-56767500D01*
X73606560Y-56734166D01*
X73373226Y-56734166D01*
X73373226Y-56867500D01*
X73673226Y-56434166D02*
X72973226Y-56434166D01*
X72973226Y-56167500D01*
X73006560Y-56100833D01*
X73039893Y-56067500D01*
X73106560Y-56034166D01*
X73206560Y-56034166D01*
X73273226Y-56067500D01*
X73306560Y-56100833D01*
X73339893Y-56167500D01*
X73339893Y-56434166D01*
X73673226Y-55734166D02*
X72973226Y-55734166D01*
X72973226Y-55267500D02*
X72973226Y-55134166D01*
X73006560Y-55067500D01*
X73073226Y-55000833D01*
X73206560Y-54967500D01*
X73439893Y-54967500D01*
X73573226Y-55000833D01*
X73639893Y-55067500D01*
X73673226Y-55134166D01*
X73673226Y-55267500D01*
X73639893Y-55334166D01*
X73573226Y-55400833D01*
X73439893Y-55434166D01*
X73206560Y-55434166D01*
X73073226Y-55400833D01*
X73006560Y-55334166D01*
X72973226Y-55267500D01*
X73039893Y-54700833D02*
X73006560Y-54667500D01*
X72973226Y-54600833D01*
X72973226Y-54434166D01*
X73006560Y-54367500D01*
X73039893Y-54334166D01*
X73106560Y-54300833D01*
X73173226Y-54300833D01*
X73273226Y-54334166D01*
X73673226Y-54734166D01*
X73673226Y-54300833D01*
X60306560Y-76299166D02*
X60273226Y-76365833D01*
X60273226Y-76465833D01*
X60306560Y-76565833D01*
X60373226Y-76632500D01*
X60439893Y-76665833D01*
X60573226Y-76699166D01*
X60673226Y-76699166D01*
X60806560Y-76665833D01*
X60873226Y-76632500D01*
X60939893Y-76565833D01*
X60973226Y-76465833D01*
X60973226Y-76399166D01*
X60939893Y-76299166D01*
X60906560Y-76265833D01*
X60673226Y-76265833D01*
X60673226Y-76399166D01*
X60973226Y-75965833D02*
X60273226Y-75965833D01*
X60273226Y-75699166D01*
X60306560Y-75632500D01*
X60339893Y-75599166D01*
X60406560Y-75565833D01*
X60506560Y-75565833D01*
X60573226Y-75599166D01*
X60606560Y-75632500D01*
X60639893Y-75699166D01*
X60639893Y-75965833D01*
X60973226Y-75265833D02*
X60273226Y-75265833D01*
X60273226Y-74799166D02*
X60273226Y-74665833D01*
X60306560Y-74599166D01*
X60373226Y-74532500D01*
X60506560Y-74499166D01*
X60739893Y-74499166D01*
X60873226Y-74532500D01*
X60939893Y-74599166D01*
X60973226Y-74665833D01*
X60973226Y-74799166D01*
X60939893Y-74865833D01*
X60873226Y-74932500D01*
X60739893Y-74965833D01*
X60506560Y-74965833D01*
X60373226Y-74932500D01*
X60306560Y-74865833D01*
X60273226Y-74799166D01*
X60339893Y-74232500D02*
X60306560Y-74199166D01*
X60273226Y-74132500D01*
X60273226Y-73965833D01*
X60306560Y-73899166D01*
X60339893Y-73865833D01*
X60406560Y-73832500D01*
X60473226Y-73832500D01*
X60573226Y-73865833D01*
X60973226Y-74265833D01*
X60973226Y-73832500D01*
X60273226Y-73232500D02*
X60273226Y-73365833D01*
X60306560Y-73432500D01*
X60339893Y-73465833D01*
X60439893Y-73532500D01*
X60573226Y-73565833D01*
X60839893Y-73565833D01*
X60906560Y-73532500D01*
X60939893Y-73499166D01*
X60973226Y-73432500D01*
X60973226Y-73299166D01*
X60939893Y-73232500D01*
X60906560Y-73199166D01*
X60839893Y-73165833D01*
X60673226Y-73165833D01*
X60606560Y-73199166D01*
X60573226Y-73232500D01*
X60539893Y-73299166D01*
X60539893Y-73432500D01*
X60573226Y-73499166D01*
X60606560Y-73532500D01*
X60673226Y-73565833D01*
X47606560Y-76299166D02*
X47573226Y-76365833D01*
X47573226Y-76465833D01*
X47606560Y-76565833D01*
X47673226Y-76632500D01*
X47739893Y-76665833D01*
X47873226Y-76699166D01*
X47973226Y-76699166D01*
X48106560Y-76665833D01*
X48173226Y-76632500D01*
X48239893Y-76565833D01*
X48273226Y-76465833D01*
X48273226Y-76399166D01*
X48239893Y-76299166D01*
X48206560Y-76265833D01*
X47973226Y-76265833D01*
X47973226Y-76399166D01*
X48273226Y-75965833D02*
X47573226Y-75965833D01*
X47573226Y-75699166D01*
X47606560Y-75632500D01*
X47639893Y-75599166D01*
X47706560Y-75565833D01*
X47806560Y-75565833D01*
X47873226Y-75599166D01*
X47906560Y-75632500D01*
X47939893Y-75699166D01*
X47939893Y-75965833D01*
X48273226Y-75265833D02*
X47573226Y-75265833D01*
X47573226Y-74799166D02*
X47573226Y-74665833D01*
X47606560Y-74599166D01*
X47673226Y-74532500D01*
X47806560Y-74499166D01*
X48039893Y-74499166D01*
X48173226Y-74532500D01*
X48239893Y-74599166D01*
X48273226Y-74665833D01*
X48273226Y-74799166D01*
X48239893Y-74865833D01*
X48173226Y-74932500D01*
X48039893Y-74965833D01*
X47806560Y-74965833D01*
X47673226Y-74932500D01*
X47606560Y-74865833D01*
X47573226Y-74799166D01*
X47573226Y-74265833D02*
X47573226Y-73832500D01*
X47839893Y-74065833D01*
X47839893Y-73965833D01*
X47873226Y-73899166D01*
X47906560Y-73865833D01*
X47973226Y-73832500D01*
X48139893Y-73832500D01*
X48206560Y-73865833D01*
X48239893Y-73899166D01*
X48273226Y-73965833D01*
X48273226Y-74165833D01*
X48239893Y-74232500D01*
X48206560Y-74265833D01*
X47806560Y-73232500D02*
X48273226Y-73232500D01*
X47539893Y-73399166D02*
X48039893Y-73565833D01*
X48039893Y-73132500D01*
X65386560Y-76299166D02*
X65353226Y-76365833D01*
X65353226Y-76465833D01*
X65386560Y-76565833D01*
X65453226Y-76632500D01*
X65519893Y-76665833D01*
X65653226Y-76699166D01*
X65753226Y-76699166D01*
X65886560Y-76665833D01*
X65953226Y-76632500D01*
X66019893Y-76565833D01*
X66053226Y-76465833D01*
X66053226Y-76399166D01*
X66019893Y-76299166D01*
X65986560Y-76265833D01*
X65753226Y-76265833D01*
X65753226Y-76399166D01*
X66053226Y-75965833D02*
X65353226Y-75965833D01*
X65353226Y-75699166D01*
X65386560Y-75632500D01*
X65419893Y-75599166D01*
X65486560Y-75565833D01*
X65586560Y-75565833D01*
X65653226Y-75599166D01*
X65686560Y-75632500D01*
X65719893Y-75699166D01*
X65719893Y-75965833D01*
X66053226Y-75265833D02*
X65353226Y-75265833D01*
X65353226Y-74799166D02*
X65353226Y-74665833D01*
X65386560Y-74599166D01*
X65453226Y-74532500D01*
X65586560Y-74499166D01*
X65819893Y-74499166D01*
X65953226Y-74532500D01*
X66019893Y-74599166D01*
X66053226Y-74665833D01*
X66053226Y-74799166D01*
X66019893Y-74865833D01*
X65953226Y-74932500D01*
X65819893Y-74965833D01*
X65586560Y-74965833D01*
X65453226Y-74932500D01*
X65386560Y-74865833D01*
X65353226Y-74799166D01*
X66053226Y-73832500D02*
X66053226Y-74232500D01*
X66053226Y-74032500D02*
X65353226Y-74032500D01*
X65453226Y-74099166D01*
X65519893Y-74165833D01*
X65553226Y-74232500D01*
X65586560Y-73232500D02*
X66053226Y-73232500D01*
X65319893Y-73399166D02*
X65819893Y-73565833D01*
X65819893Y-73132500D01*
X65319893Y-72365833D02*
X66219893Y-72965833D01*
X66053226Y-72132500D02*
X65353226Y-72132500D01*
X65853226Y-71899166D01*
X65353226Y-71665833D01*
X66053226Y-71665833D01*
X65353226Y-71432500D02*
X65353226Y-71032500D01*
X66053226Y-71232500D02*
X65353226Y-71232500D01*
X66053226Y-70799166D02*
X65353226Y-70799166D01*
X65853226Y-70565833D01*
X65353226Y-70332500D01*
X66053226Y-70332500D01*
X66019893Y-70032500D02*
X66053226Y-69932500D01*
X66053226Y-69765833D01*
X66019893Y-69699166D01*
X65986560Y-69665833D01*
X65919893Y-69632500D01*
X65853226Y-69632500D01*
X65786560Y-69665833D01*
X65753226Y-69699166D01*
X65719893Y-69765833D01*
X65686560Y-69899166D01*
X65653226Y-69965833D01*
X65619893Y-69999166D01*
X65553226Y-70032500D01*
X65486560Y-70032500D01*
X65419893Y-69999166D01*
X65386560Y-69965833D01*
X65353226Y-69899166D01*
X65353226Y-69732500D01*
X65386560Y-69632500D01*
X81226560Y-76265833D02*
X81259893Y-76299166D01*
X81293226Y-76399166D01*
X81293226Y-76465833D01*
X81259893Y-76565833D01*
X81193226Y-76632500D01*
X81126560Y-76665833D01*
X80993226Y-76699166D01*
X80893226Y-76699166D01*
X80759893Y-76665833D01*
X80693226Y-76632500D01*
X80626560Y-76565833D01*
X80593226Y-76465833D01*
X80593226Y-76399166D01*
X80626560Y-76299166D01*
X80659893Y-76265833D01*
X81293226Y-75965833D02*
X80593226Y-75965833D01*
X81093226Y-75732500D01*
X80593226Y-75499166D01*
X81293226Y-75499166D01*
X81293226Y-75165833D02*
X80593226Y-75165833D01*
X80593226Y-74999166D01*
X80626560Y-74899166D01*
X80693226Y-74832500D01*
X80759893Y-74799166D01*
X80893226Y-74765833D01*
X80993226Y-74765833D01*
X81126560Y-74799166D01*
X81193226Y-74832500D01*
X81259893Y-74899166D01*
X81293226Y-74999166D01*
X81293226Y-75165833D01*
X57766560Y-57434166D02*
X57733226Y-57500833D01*
X57733226Y-57600833D01*
X57766560Y-57700833D01*
X57833226Y-57767500D01*
X57899893Y-57800833D01*
X58033226Y-57834166D01*
X58133226Y-57834166D01*
X58266560Y-57800833D01*
X58333226Y-57767500D01*
X58399893Y-57700833D01*
X58433226Y-57600833D01*
X58433226Y-57534166D01*
X58399893Y-57434166D01*
X58366560Y-57400833D01*
X58133226Y-57400833D01*
X58133226Y-57534166D01*
X58433226Y-57100833D02*
X57733226Y-57100833D01*
X57733226Y-56834166D01*
X57766560Y-56767500D01*
X57799893Y-56734166D01*
X57866560Y-56700833D01*
X57966560Y-56700833D01*
X58033226Y-56734166D01*
X58066560Y-56767500D01*
X58099893Y-56834166D01*
X58099893Y-57100833D01*
X58433226Y-56400833D02*
X57733226Y-56400833D01*
X57733226Y-55934166D02*
X57733226Y-55800833D01*
X57766560Y-55734166D01*
X57833226Y-55667500D01*
X57966560Y-55634166D01*
X58199893Y-55634166D01*
X58333226Y-55667500D01*
X58399893Y-55734166D01*
X58433226Y-55800833D01*
X58433226Y-55934166D01*
X58399893Y-56000833D01*
X58333226Y-56067500D01*
X58199893Y-56100833D01*
X57966560Y-56100833D01*
X57833226Y-56067500D01*
X57766560Y-56000833D01*
X57733226Y-55934166D01*
X58433226Y-54967500D02*
X58433226Y-55367500D01*
X58433226Y-55167500D02*
X57733226Y-55167500D01*
X57833226Y-55234166D01*
X57899893Y-55300833D01*
X57933226Y-55367500D01*
X58033226Y-54567500D02*
X57999893Y-54634166D01*
X57966560Y-54667500D01*
X57899893Y-54700833D01*
X57866560Y-54700833D01*
X57799893Y-54667500D01*
X57766560Y-54634166D01*
X57733226Y-54567500D01*
X57733226Y-54434166D01*
X57766560Y-54367500D01*
X57799893Y-54334166D01*
X57866560Y-54300833D01*
X57899893Y-54300833D01*
X57966560Y-54334166D01*
X57999893Y-54367500D01*
X58033226Y-54434166D01*
X58033226Y-54567500D01*
X58066560Y-54634166D01*
X58099893Y-54667500D01*
X58166560Y-54700833D01*
X58299893Y-54700833D01*
X58366560Y-54667500D01*
X58399893Y-54634166D01*
X58433226Y-54567500D01*
X58433226Y-54434166D01*
X58399893Y-54367500D01*
X58366560Y-54334166D01*
X58299893Y-54300833D01*
X58166560Y-54300833D01*
X58099893Y-54334166D01*
X58066560Y-54367500D01*
X58033226Y-54434166D01*
X55226560Y-76299166D02*
X55193226Y-76365833D01*
X55193226Y-76465833D01*
X55226560Y-76565833D01*
X55293226Y-76632500D01*
X55359893Y-76665833D01*
X55493226Y-76699166D01*
X55593226Y-76699166D01*
X55726560Y-76665833D01*
X55793226Y-76632500D01*
X55859893Y-76565833D01*
X55893226Y-76465833D01*
X55893226Y-76399166D01*
X55859893Y-76299166D01*
X55826560Y-76265833D01*
X55593226Y-76265833D01*
X55593226Y-76399166D01*
X55893226Y-75965833D02*
X55193226Y-75965833D01*
X55193226Y-75699166D01*
X55226560Y-75632500D01*
X55259893Y-75599166D01*
X55326560Y-75565833D01*
X55426560Y-75565833D01*
X55493226Y-75599166D01*
X55526560Y-75632500D01*
X55559893Y-75699166D01*
X55559893Y-75965833D01*
X55893226Y-75265833D02*
X55193226Y-75265833D01*
X55193226Y-74799166D02*
X55193226Y-74665833D01*
X55226560Y-74599166D01*
X55293226Y-74532500D01*
X55426560Y-74499166D01*
X55659893Y-74499166D01*
X55793226Y-74532500D01*
X55859893Y-74599166D01*
X55893226Y-74665833D01*
X55893226Y-74799166D01*
X55859893Y-74865833D01*
X55793226Y-74932500D01*
X55659893Y-74965833D01*
X55426560Y-74965833D01*
X55293226Y-74932500D01*
X55226560Y-74865833D01*
X55193226Y-74799166D01*
X55193226Y-74265833D02*
X55193226Y-73832500D01*
X55459893Y-74065833D01*
X55459893Y-73965833D01*
X55493226Y-73899166D01*
X55526560Y-73865833D01*
X55593226Y-73832500D01*
X55759893Y-73832500D01*
X55826560Y-73865833D01*
X55859893Y-73899166D01*
X55893226Y-73965833D01*
X55893226Y-74165833D01*
X55859893Y-74232500D01*
X55826560Y-74265833D01*
X55193226Y-73599166D02*
X55193226Y-73165833D01*
X55459893Y-73399166D01*
X55459893Y-73299166D01*
X55493226Y-73232500D01*
X55526560Y-73199166D01*
X55593226Y-73165833D01*
X55759893Y-73165833D01*
X55826560Y-73199166D01*
X55859893Y-73232500D01*
X55893226Y-73299166D01*
X55893226Y-73499166D01*
X55859893Y-73565833D01*
X55826560Y-73599166D01*
X76213226Y-76665833D02*
X75513226Y-76665833D01*
X75513226Y-76499166D01*
X75546560Y-76399166D01*
X75613226Y-76332500D01*
X75679893Y-76299166D01*
X75813226Y-76265833D01*
X75913226Y-76265833D01*
X76046560Y-76299166D01*
X76113226Y-76332500D01*
X76179893Y-76399166D01*
X76213226Y-76499166D01*
X76213226Y-76665833D01*
X75579893Y-75999166D02*
X75546560Y-75965833D01*
X75513226Y-75899166D01*
X75513226Y-75732500D01*
X75546560Y-75665833D01*
X75579893Y-75632500D01*
X75646560Y-75599166D01*
X75713226Y-75599166D01*
X75813226Y-75632500D01*
X76213226Y-76032500D01*
X76213226Y-75599166D01*
X81293226Y-55367500D02*
X80593226Y-55367500D01*
X80593226Y-55200833D01*
X80626560Y-55100833D01*
X80693226Y-55034166D01*
X80759893Y-55000833D01*
X80893226Y-54967500D01*
X80993226Y-54967500D01*
X81126560Y-55000833D01*
X81193226Y-55034166D01*
X81259893Y-55100833D01*
X81293226Y-55200833D01*
X81293226Y-55367500D01*
X80593226Y-54534166D02*
X80593226Y-54467500D01*
X80626560Y-54400833D01*
X80659893Y-54367500D01*
X80726560Y-54334166D01*
X80859893Y-54300833D01*
X81026560Y-54300833D01*
X81159893Y-54334166D01*
X81226560Y-54367500D01*
X81259893Y-54400833D01*
X81293226Y-54467500D01*
X81293226Y-54534166D01*
X81259893Y-54600833D01*
X81226560Y-54634166D01*
X81159893Y-54667500D01*
X81026560Y-54700833D01*
X80859893Y-54700833D01*
X80726560Y-54667500D01*
X80659893Y-54634166D01*
X80626560Y-54600833D01*
X80593226Y-54534166D01*
X37296560Y-56453214D02*
X37248940Y-56548452D01*
X37248940Y-56691309D01*
X37296560Y-56834166D01*
X37391798Y-56929404D01*
X37487036Y-56977023D01*
X37677512Y-57024642D01*
X37820369Y-57024642D01*
X38010845Y-56977023D01*
X38106083Y-56929404D01*
X38201321Y-56834166D01*
X38248940Y-56691309D01*
X38248940Y-56596071D01*
X38201321Y-56453214D01*
X38153702Y-56405595D01*
X37820369Y-56405595D01*
X37820369Y-56596071D01*
X38248940Y-55977023D02*
X37248940Y-55977023D01*
X38248940Y-55405595D01*
X37248940Y-55405595D01*
X38248940Y-54929404D02*
X37248940Y-54929404D01*
X37248940Y-54691309D01*
X37296560Y-54548452D01*
X37391798Y-54453214D01*
X37487036Y-54405595D01*
X37677512Y-54357976D01*
X37820369Y-54357976D01*
X38010845Y-54405595D01*
X38106083Y-54453214D01*
X38201321Y-54548452D01*
X38248940Y-54691309D01*
X38248940Y-54929404D01*
X57766560Y-76299166D02*
X57733226Y-76365833D01*
X57733226Y-76465833D01*
X57766560Y-76565833D01*
X57833226Y-76632500D01*
X57899893Y-76665833D01*
X58033226Y-76699166D01*
X58133226Y-76699166D01*
X58266560Y-76665833D01*
X58333226Y-76632500D01*
X58399893Y-76565833D01*
X58433226Y-76465833D01*
X58433226Y-76399166D01*
X58399893Y-76299166D01*
X58366560Y-76265833D01*
X58133226Y-76265833D01*
X58133226Y-76399166D01*
X58433226Y-75965833D02*
X57733226Y-75965833D01*
X57733226Y-75699166D01*
X57766560Y-75632500D01*
X57799893Y-75599166D01*
X57866560Y-75565833D01*
X57966560Y-75565833D01*
X58033226Y-75599166D01*
X58066560Y-75632500D01*
X58099893Y-75699166D01*
X58099893Y-75965833D01*
X58433226Y-75265833D02*
X57733226Y-75265833D01*
X57733226Y-74799166D02*
X57733226Y-74665833D01*
X57766560Y-74599166D01*
X57833226Y-74532500D01*
X57966560Y-74499166D01*
X58199893Y-74499166D01*
X58333226Y-74532500D01*
X58399893Y-74599166D01*
X58433226Y-74665833D01*
X58433226Y-74799166D01*
X58399893Y-74865833D01*
X58333226Y-74932500D01*
X58199893Y-74965833D01*
X57966560Y-74965833D01*
X57833226Y-74932500D01*
X57766560Y-74865833D01*
X57733226Y-74799166D01*
X57799893Y-74232500D02*
X57766560Y-74199166D01*
X57733226Y-74132500D01*
X57733226Y-73965833D01*
X57766560Y-73899166D01*
X57799893Y-73865833D01*
X57866560Y-73832500D01*
X57933226Y-73832500D01*
X58033226Y-73865833D01*
X58433226Y-74265833D01*
X58433226Y-73832500D01*
X57733226Y-73199166D02*
X57733226Y-73532500D01*
X58066560Y-73565833D01*
X58033226Y-73532500D01*
X57999893Y-73465833D01*
X57999893Y-73299166D01*
X58033226Y-73232500D01*
X58066560Y-73199166D01*
X58133226Y-73165833D01*
X58299893Y-73165833D01*
X58366560Y-73199166D01*
X58399893Y-73232500D01*
X58433226Y-73299166D01*
X58433226Y-73465833D01*
X58399893Y-73532500D01*
X58366560Y-73565833D01*
X47904761Y-98547619D02*
X47809523Y-98500000D01*
X47714285Y-98404761D01*
X47571428Y-98261904D01*
X47476190Y-98214285D01*
X47380952Y-98214285D01*
X47428571Y-98452380D02*
X47333333Y-98404761D01*
X47238095Y-98309523D01*
X47190476Y-98119047D01*
X47190476Y-97785714D01*
X47238095Y-97595238D01*
X47333333Y-97500000D01*
X47428571Y-97452380D01*
X47619047Y-97452380D01*
X47714285Y-97500000D01*
X47809523Y-97595238D01*
X47857142Y-97785714D01*
X47857142Y-98119047D01*
X47809523Y-98309523D01*
X47714285Y-98404761D01*
X47619047Y-98452380D01*
X47428571Y-98452380D01*
X48238095Y-97547619D02*
X48285714Y-97500000D01*
X48380952Y-97452380D01*
X48619047Y-97452380D01*
X48714285Y-97500000D01*
X48761904Y-97547619D01*
X48809523Y-97642857D01*
X48809523Y-97738095D01*
X48761904Y-97880952D01*
X48190476Y-98452380D01*
X48809523Y-98452380D01*
X64466666Y-84052380D02*
X64466666Y-84766666D01*
X64419047Y-84909523D01*
X64323809Y-85004761D01*
X64180952Y-85052380D01*
X64085714Y-85052380D01*
X64847619Y-84052380D02*
X65514285Y-84052380D01*
X65085714Y-85052380D01*
X112816666Y-127452380D02*
X112816666Y-128166666D01*
X112769047Y-128309523D01*
X112673809Y-128404761D01*
X112530952Y-128452380D01*
X112435714Y-128452380D01*
X113816666Y-128452380D02*
X113245238Y-128452380D01*
X113530952Y-128452380D02*
X113530952Y-127452380D01*
X113435714Y-127595238D01*
X113340476Y-127690476D01*
X113245238Y-127738095D01*
X86690476Y-68452380D02*
X86690476Y-69166666D01*
X86642857Y-69309523D01*
X86547619Y-69404761D01*
X86404761Y-69452380D01*
X86309523Y-69452380D01*
X87690476Y-69452380D02*
X87119047Y-69452380D01*
X87404761Y-69452380D02*
X87404761Y-68452380D01*
X87309523Y-68595238D01*
X87214285Y-68690476D01*
X87119047Y-68738095D01*
X88071428Y-68547619D02*
X88119047Y-68500000D01*
X88214285Y-68452380D01*
X88452380Y-68452380D01*
X88547619Y-68500000D01*
X88595238Y-68547619D01*
X88642857Y-68642857D01*
X88642857Y-68738095D01*
X88595238Y-68880952D01*
X88023809Y-69452380D01*
X88642857Y-69452380D01*
X66904761Y-116347619D02*
X66809523Y-116300000D01*
X66714285Y-116204761D01*
X66571428Y-116061904D01*
X66476190Y-116014285D01*
X66380952Y-116014285D01*
X66428571Y-116252380D02*
X66333333Y-116204761D01*
X66238095Y-116109523D01*
X66190476Y-115919047D01*
X66190476Y-115585714D01*
X66238095Y-115395238D01*
X66333333Y-115300000D01*
X66428571Y-115252380D01*
X66619047Y-115252380D01*
X66714285Y-115300000D01*
X66809523Y-115395238D01*
X66857142Y-115585714D01*
X66857142Y-115919047D01*
X66809523Y-116109523D01*
X66714285Y-116204761D01*
X66619047Y-116252380D01*
X66428571Y-116252380D01*
X67190476Y-115252380D02*
X67809523Y-115252380D01*
X67476190Y-115633333D01*
X67619047Y-115633333D01*
X67714285Y-115680952D01*
X67761904Y-115728571D01*
X67809523Y-115823809D01*
X67809523Y-116061904D01*
X67761904Y-116157142D01*
X67714285Y-116204761D01*
X67619047Y-116252380D01*
X67333333Y-116252380D01*
X67238095Y-116204761D01*
X67190476Y-116157142D01*
X78357142Y-99957142D02*
X78309523Y-100004761D01*
X78166666Y-100052380D01*
X78071428Y-100052380D01*
X77928571Y-100004761D01*
X77833333Y-99909523D01*
X77785714Y-99814285D01*
X77738095Y-99623809D01*
X77738095Y-99480952D01*
X77785714Y-99290476D01*
X77833333Y-99195238D01*
X77928571Y-99100000D01*
X78071428Y-99052380D01*
X78166666Y-99052380D01*
X78309523Y-99100000D01*
X78357142Y-99147619D01*
X79309523Y-100052380D02*
X78738095Y-100052380D01*
X79023809Y-100052380D02*
X79023809Y-99052380D01*
X78928571Y-99195238D01*
X78833333Y-99290476D01*
X78738095Y-99338095D01*
X80214285Y-99052380D02*
X79738095Y-99052380D01*
X79690476Y-99528571D01*
X79738095Y-99480952D01*
X79833333Y-99433333D01*
X80071428Y-99433333D01*
X80166666Y-99480952D01*
X80214285Y-99528571D01*
X80261904Y-99623809D01*
X80261904Y-99861904D01*
X80214285Y-99957142D01*
X80166666Y-100004761D01*
X80071428Y-100052380D01*
X79833333Y-100052380D01*
X79738095Y-100004761D01*
X79690476Y-99957142D01*
X57066666Y-84052380D02*
X57066666Y-84766666D01*
X57019047Y-84909523D01*
X56923809Y-85004761D01*
X56780952Y-85052380D01*
X56685714Y-85052380D01*
X58019047Y-84052380D02*
X57542857Y-84052380D01*
X57495238Y-84528571D01*
X57542857Y-84480952D01*
X57638095Y-84433333D01*
X57876190Y-84433333D01*
X57971428Y-84480952D01*
X58019047Y-84528571D01*
X58066666Y-84623809D01*
X58066666Y-84861904D01*
X58019047Y-84957142D01*
X57971428Y-85004761D01*
X57876190Y-85052380D01*
X57638095Y-85052380D01*
X57542857Y-85004761D01*
X57495238Y-84957142D01*
X101357142Y-60357142D02*
X101309523Y-60404761D01*
X101166666Y-60452380D01*
X101071428Y-60452380D01*
X100928571Y-60404761D01*
X100833333Y-60309523D01*
X100785714Y-60214285D01*
X100738095Y-60023809D01*
X100738095Y-59880952D01*
X100785714Y-59690476D01*
X100833333Y-59595238D01*
X100928571Y-59500000D01*
X101071428Y-59452380D01*
X101166666Y-59452380D01*
X101309523Y-59500000D01*
X101357142Y-59547619D01*
X102309523Y-60452380D02*
X101738095Y-60452380D01*
X102023809Y-60452380D02*
X102023809Y-59452380D01*
X101928571Y-59595238D01*
X101833333Y-59690476D01*
X101738095Y-59738095D01*
X102880952Y-59880952D02*
X102785714Y-59833333D01*
X102738095Y-59785714D01*
X102690476Y-59690476D01*
X102690476Y-59642857D01*
X102738095Y-59547619D01*
X102785714Y-59500000D01*
X102880952Y-59452380D01*
X103071428Y-59452380D01*
X103166666Y-59500000D01*
X103214285Y-59547619D01*
X103261904Y-59642857D01*
X103261904Y-59690476D01*
X103214285Y-59785714D01*
X103166666Y-59833333D01*
X103071428Y-59880952D01*
X102880952Y-59880952D01*
X102785714Y-59928571D01*
X102738095Y-59976190D01*
X102690476Y-60071428D01*
X102690476Y-60261904D01*
X102738095Y-60357142D01*
X102785714Y-60404761D01*
X102880952Y-60452380D01*
X103071428Y-60452380D01*
X103166666Y-60404761D01*
X103214285Y-60357142D01*
X103261904Y-60261904D01*
X103261904Y-60071428D01*
X103214285Y-59976190D01*
X103166666Y-59928571D01*
X103071428Y-59880952D01*
X53833333Y-120357142D02*
X53785714Y-120404761D01*
X53642857Y-120452380D01*
X53547619Y-120452380D01*
X53404761Y-120404761D01*
X53309523Y-120309523D01*
X53261904Y-120214285D01*
X53214285Y-120023809D01*
X53214285Y-119880952D01*
X53261904Y-119690476D01*
X53309523Y-119595238D01*
X53404761Y-119500000D01*
X53547619Y-119452380D01*
X53642857Y-119452380D01*
X53785714Y-119500000D01*
X53833333Y-119547619D01*
X54690476Y-119452380D02*
X54500000Y-119452380D01*
X54404761Y-119500000D01*
X54357142Y-119547619D01*
X54261904Y-119690476D01*
X54214285Y-119880952D01*
X54214285Y-120261904D01*
X54261904Y-120357142D01*
X54309523Y-120404761D01*
X54404761Y-120452380D01*
X54595238Y-120452380D01*
X54690476Y-120404761D01*
X54738095Y-120357142D01*
X54785714Y-120261904D01*
X54785714Y-120023809D01*
X54738095Y-119928571D01*
X54690476Y-119880952D01*
X54595238Y-119833333D01*
X54404761Y-119833333D01*
X54309523Y-119880952D01*
X54261904Y-119928571D01*
X54214285Y-120023809D01*
X36266666Y-84652380D02*
X36266666Y-85366666D01*
X36219047Y-85509523D01*
X36123809Y-85604761D01*
X35980952Y-85652380D01*
X35885714Y-85652380D01*
X37171428Y-84652380D02*
X36980952Y-84652380D01*
X36885714Y-84700000D01*
X36838095Y-84747619D01*
X36742857Y-84890476D01*
X36695238Y-85080952D01*
X36695238Y-85461904D01*
X36742857Y-85557142D01*
X36790476Y-85604761D01*
X36885714Y-85652380D01*
X37076190Y-85652380D01*
X37171428Y-85604761D01*
X37219047Y-85557142D01*
X37266666Y-85461904D01*
X37266666Y-85223809D01*
X37219047Y-85128571D01*
X37171428Y-85080952D01*
X37076190Y-85033333D01*
X36885714Y-85033333D01*
X36790476Y-85080952D01*
X36742857Y-85128571D01*
X36695238Y-85223809D01*
X101333333Y-120157142D02*
X101285714Y-120204761D01*
X101142857Y-120252380D01*
X101047619Y-120252380D01*
X100904761Y-120204761D01*
X100809523Y-120109523D01*
X100761904Y-120014285D01*
X100714285Y-119823809D01*
X100714285Y-119680952D01*
X100761904Y-119490476D01*
X100809523Y-119395238D01*
X100904761Y-119300000D01*
X101047619Y-119252380D01*
X101142857Y-119252380D01*
X101285714Y-119300000D01*
X101333333Y-119347619D01*
X101666666Y-119252380D02*
X102285714Y-119252380D01*
X101952380Y-119633333D01*
X102095238Y-119633333D01*
X102190476Y-119680952D01*
X102238095Y-119728571D01*
X102285714Y-119823809D01*
X102285714Y-120061904D01*
X102238095Y-120157142D01*
X102190476Y-120204761D01*
X102095238Y-120252380D01*
X101809523Y-120252380D01*
X101714285Y-120204761D01*
X101666666Y-120157142D01*
X100607142Y-112857142D02*
X100559523Y-112904761D01*
X100416666Y-112952380D01*
X100321428Y-112952380D01*
X100178571Y-112904761D01*
X100083333Y-112809523D01*
X100035714Y-112714285D01*
X99988095Y-112523809D01*
X99988095Y-112380952D01*
X100035714Y-112190476D01*
X100083333Y-112095238D01*
X100178571Y-112000000D01*
X100321428Y-111952380D01*
X100416666Y-111952380D01*
X100559523Y-112000000D01*
X100607142Y-112047619D01*
X100988095Y-112047619D02*
X101035714Y-112000000D01*
X101130952Y-111952380D01*
X101369047Y-111952380D01*
X101464285Y-112000000D01*
X101511904Y-112047619D01*
X101559523Y-112142857D01*
X101559523Y-112238095D01*
X101511904Y-112380952D01*
X100940476Y-112952380D01*
X101559523Y-112952380D01*
X101940476Y-112047619D02*
X101988095Y-112000000D01*
X102083333Y-111952380D01*
X102321428Y-111952380D01*
X102416666Y-112000000D01*
X102464285Y-112047619D01*
X102511904Y-112142857D01*
X102511904Y-112238095D01*
X102464285Y-112380952D01*
X101892857Y-112952380D01*
X102511904Y-112952380D01*
X78104761Y-59147619D02*
X78009523Y-59100000D01*
X77914285Y-59004761D01*
X77771428Y-58861904D01*
X77676190Y-58814285D01*
X77580952Y-58814285D01*
X77628571Y-59052380D02*
X77533333Y-59004761D01*
X77438095Y-58909523D01*
X77390476Y-58719047D01*
X77390476Y-58385714D01*
X77438095Y-58195238D01*
X77533333Y-58100000D01*
X77628571Y-58052380D01*
X77819047Y-58052380D01*
X77914285Y-58100000D01*
X78009523Y-58195238D01*
X78057142Y-58385714D01*
X78057142Y-58719047D01*
X78009523Y-58909523D01*
X77914285Y-59004761D01*
X77819047Y-59052380D01*
X77628571Y-59052380D01*
X78914285Y-58385714D02*
X78914285Y-59052380D01*
X78676190Y-58004761D02*
X78438095Y-58719047D01*
X79057142Y-58719047D01*
X36266666Y-95852380D02*
X36266666Y-96566666D01*
X36219047Y-96709523D01*
X36123809Y-96804761D01*
X35980952Y-96852380D01*
X35885714Y-96852380D01*
X36885714Y-96280952D02*
X36790476Y-96233333D01*
X36742857Y-96185714D01*
X36695238Y-96090476D01*
X36695238Y-96042857D01*
X36742857Y-95947619D01*
X36790476Y-95900000D01*
X36885714Y-95852380D01*
X37076190Y-95852380D01*
X37171428Y-95900000D01*
X37219047Y-95947619D01*
X37266666Y-96042857D01*
X37266666Y-96090476D01*
X37219047Y-96185714D01*
X37171428Y-96233333D01*
X37076190Y-96280952D01*
X36885714Y-96280952D01*
X36790476Y-96328571D01*
X36742857Y-96376190D01*
X36695238Y-96471428D01*
X36695238Y-96661904D01*
X36742857Y-96757142D01*
X36790476Y-96804761D01*
X36885714Y-96852380D01*
X37076190Y-96852380D01*
X37171428Y-96804761D01*
X37219047Y-96757142D01*
X37266666Y-96661904D01*
X37266666Y-96471428D01*
X37219047Y-96376190D01*
X37171428Y-96328571D01*
X37076190Y-96280952D01*
X78390476Y-84052380D02*
X78390476Y-84766666D01*
X78342857Y-84909523D01*
X78247619Y-85004761D01*
X78104761Y-85052380D01*
X78009523Y-85052380D01*
X79390476Y-85052380D02*
X78819047Y-85052380D01*
X79104761Y-85052380D02*
X79104761Y-84052380D01*
X79009523Y-84195238D01*
X78914285Y-84290476D01*
X78819047Y-84338095D01*
X80342857Y-85052380D02*
X79771428Y-85052380D01*
X80057142Y-85052380D02*
X80057142Y-84052380D01*
X79961904Y-84195238D01*
X79866666Y-84290476D01*
X79771428Y-84338095D01*
X64407142Y-100157142D02*
X64359523Y-100204761D01*
X64216666Y-100252380D01*
X64121428Y-100252380D01*
X63978571Y-100204761D01*
X63883333Y-100109523D01*
X63835714Y-100014285D01*
X63788095Y-99823809D01*
X63788095Y-99680952D01*
X63835714Y-99490476D01*
X63883333Y-99395238D01*
X63978571Y-99300000D01*
X64121428Y-99252380D01*
X64216666Y-99252380D01*
X64359523Y-99300000D01*
X64407142Y-99347619D01*
X65359523Y-100252380D02*
X64788095Y-100252380D01*
X65073809Y-100252380D02*
X65073809Y-99252380D01*
X64978571Y-99395238D01*
X64883333Y-99490476D01*
X64788095Y-99538095D01*
X66311904Y-100252380D02*
X65740476Y-100252380D01*
X66026190Y-100252380D02*
X66026190Y-99252380D01*
X65930952Y-99395238D01*
X65835714Y-99490476D01*
X65740476Y-99538095D01*
X86690476Y-69952380D02*
X86690476Y-70666666D01*
X86642857Y-70809523D01*
X86547619Y-70904761D01*
X86404761Y-70952380D01*
X86309523Y-70952380D01*
X87690476Y-70952380D02*
X87119047Y-70952380D01*
X87404761Y-70952380D02*
X87404761Y-69952380D01*
X87309523Y-70095238D01*
X87214285Y-70190476D01*
X87119047Y-70238095D01*
X88547619Y-70285714D02*
X88547619Y-70952380D01*
X88309523Y-69904761D02*
X88071428Y-70619047D01*
X88690476Y-70619047D01*
X82357142Y-119857142D02*
X82309523Y-119904761D01*
X82166666Y-119952380D01*
X82071428Y-119952380D01*
X81928571Y-119904761D01*
X81833333Y-119809523D01*
X81785714Y-119714285D01*
X81738095Y-119523809D01*
X81738095Y-119380952D01*
X81785714Y-119190476D01*
X81833333Y-119095238D01*
X81928571Y-119000000D01*
X82071428Y-118952380D01*
X82166666Y-118952380D01*
X82309523Y-119000000D01*
X82357142Y-119047619D01*
X83309523Y-119952380D02*
X82738095Y-119952380D01*
X83023809Y-119952380D02*
X83023809Y-118952380D01*
X82928571Y-119095238D01*
X82833333Y-119190476D01*
X82738095Y-119238095D01*
X84166666Y-119285714D02*
X84166666Y-119952380D01*
X83928571Y-118904761D02*
X83690476Y-119619047D01*
X84309523Y-119619047D01*
X34933333Y-102557142D02*
X34885714Y-102604761D01*
X34742857Y-102652380D01*
X34647619Y-102652380D01*
X34504761Y-102604761D01*
X34409523Y-102509523D01*
X34361904Y-102414285D01*
X34314285Y-102223809D01*
X34314285Y-102080952D01*
X34361904Y-101890476D01*
X34409523Y-101795238D01*
X34504761Y-101700000D01*
X34647619Y-101652380D01*
X34742857Y-101652380D01*
X34885714Y-101700000D01*
X34933333Y-101747619D01*
X35409523Y-102652380D02*
X35600000Y-102652380D01*
X35695238Y-102604761D01*
X35742857Y-102557142D01*
X35838095Y-102414285D01*
X35885714Y-102223809D01*
X35885714Y-101842857D01*
X35838095Y-101747619D01*
X35790476Y-101700000D01*
X35695238Y-101652380D01*
X35504761Y-101652380D01*
X35409523Y-101700000D01*
X35361904Y-101747619D01*
X35314285Y-101842857D01*
X35314285Y-102080952D01*
X35361904Y-102176190D01*
X35409523Y-102223809D01*
X35504761Y-102271428D01*
X35695238Y-102271428D01*
X35790476Y-102223809D01*
X35838095Y-102176190D01*
X35885714Y-102080952D01*
X97783333Y-120157142D02*
X97735714Y-120204761D01*
X97592857Y-120252380D01*
X97497619Y-120252380D01*
X97354761Y-120204761D01*
X97259523Y-120109523D01*
X97211904Y-120014285D01*
X97164285Y-119823809D01*
X97164285Y-119680952D01*
X97211904Y-119490476D01*
X97259523Y-119395238D01*
X97354761Y-119300000D01*
X97497619Y-119252380D01*
X97592857Y-119252380D01*
X97735714Y-119300000D01*
X97783333Y-119347619D01*
X98640476Y-119585714D02*
X98640476Y-120252380D01*
X98402380Y-119204761D02*
X98164285Y-119919047D01*
X98783333Y-119919047D01*
X57407142Y-100157142D02*
X57359523Y-100204761D01*
X57216666Y-100252380D01*
X57121428Y-100252380D01*
X56978571Y-100204761D01*
X56883333Y-100109523D01*
X56835714Y-100014285D01*
X56788095Y-99823809D01*
X56788095Y-99680952D01*
X56835714Y-99490476D01*
X56883333Y-99395238D01*
X56978571Y-99300000D01*
X57121428Y-99252380D01*
X57216666Y-99252380D01*
X57359523Y-99300000D01*
X57407142Y-99347619D01*
X58359523Y-100252380D02*
X57788095Y-100252380D01*
X58073809Y-100252380D02*
X58073809Y-99252380D01*
X57978571Y-99395238D01*
X57883333Y-99490476D01*
X57788095Y-99538095D01*
X58978571Y-99252380D02*
X59073809Y-99252380D01*
X59169047Y-99300000D01*
X59216666Y-99347619D01*
X59264285Y-99442857D01*
X59311904Y-99633333D01*
X59311904Y-99871428D01*
X59264285Y-100061904D01*
X59216666Y-100157142D01*
X59169047Y-100204761D01*
X59073809Y-100252380D01*
X58978571Y-100252380D01*
X58883333Y-100204761D01*
X58835714Y-100157142D01*
X58788095Y-100061904D01*
X58740476Y-99871428D01*
X58740476Y-99633333D01*
X58788095Y-99442857D01*
X58835714Y-99347619D01*
X58883333Y-99300000D01*
X58978571Y-99252380D01*
X33557142Y-91257142D02*
X33509523Y-91304761D01*
X33366666Y-91352380D01*
X33271428Y-91352380D01*
X33128571Y-91304761D01*
X33033333Y-91209523D01*
X32985714Y-91114285D01*
X32938095Y-90923809D01*
X32938095Y-90780952D01*
X32985714Y-90590476D01*
X33033333Y-90495238D01*
X33128571Y-90400000D01*
X33271428Y-90352380D01*
X33366666Y-90352380D01*
X33509523Y-90400000D01*
X33557142Y-90447619D01*
X34509523Y-91352380D02*
X33938095Y-91352380D01*
X34223809Y-91352380D02*
X34223809Y-90352380D01*
X34128571Y-90495238D01*
X34033333Y-90590476D01*
X33938095Y-90638095D01*
X34890476Y-90447619D02*
X34938095Y-90400000D01*
X35033333Y-90352380D01*
X35271428Y-90352380D01*
X35366666Y-90400000D01*
X35414285Y-90447619D01*
X35461904Y-90542857D01*
X35461904Y-90638095D01*
X35414285Y-90780952D01*
X34842857Y-91352380D01*
X35461904Y-91352380D01*
X71790476Y-122252380D02*
X71790476Y-122966666D01*
X71742857Y-123109523D01*
X71647619Y-123204761D01*
X71504761Y-123252380D01*
X71409523Y-123252380D01*
X72790476Y-123252380D02*
X72219047Y-123252380D01*
X72504761Y-123252380D02*
X72504761Y-122252380D01*
X72409523Y-122395238D01*
X72314285Y-122490476D01*
X72219047Y-122538095D01*
X73123809Y-122252380D02*
X73742857Y-122252380D01*
X73409523Y-122633333D01*
X73552380Y-122633333D01*
X73647619Y-122680952D01*
X73695238Y-122728571D01*
X73742857Y-122823809D01*
X73742857Y-123061904D01*
X73695238Y-123157142D01*
X73647619Y-123204761D01*
X73552380Y-123252380D01*
X73266666Y-123252380D01*
X73171428Y-123204761D01*
X73123809Y-123157142D01*
X100607142Y-109857142D02*
X100559523Y-109904761D01*
X100416666Y-109952380D01*
X100321428Y-109952380D01*
X100178571Y-109904761D01*
X100083333Y-109809523D01*
X100035714Y-109714285D01*
X99988095Y-109523809D01*
X99988095Y-109380952D01*
X100035714Y-109190476D01*
X100083333Y-109095238D01*
X100178571Y-109000000D01*
X100321428Y-108952380D01*
X100416666Y-108952380D01*
X100559523Y-109000000D01*
X100607142Y-109047619D01*
X100988095Y-109047619D02*
X101035714Y-109000000D01*
X101130952Y-108952380D01*
X101369047Y-108952380D01*
X101464285Y-109000000D01*
X101511904Y-109047619D01*
X101559523Y-109142857D01*
X101559523Y-109238095D01*
X101511904Y-109380952D01*
X100940476Y-109952380D01*
X101559523Y-109952380D01*
X102511904Y-109952380D02*
X101940476Y-109952380D01*
X102226190Y-109952380D02*
X102226190Y-108952380D01*
X102130952Y-109095238D01*
X102035714Y-109190476D01*
X101940476Y-109238095D01*
X53833333Y-114357142D02*
X53785714Y-114404761D01*
X53642857Y-114452380D01*
X53547619Y-114452380D01*
X53404761Y-114404761D01*
X53309523Y-114309523D01*
X53261904Y-114214285D01*
X53214285Y-114023809D01*
X53214285Y-113880952D01*
X53261904Y-113690476D01*
X53309523Y-113595238D01*
X53404761Y-113500000D01*
X53547619Y-113452380D01*
X53642857Y-113452380D01*
X53785714Y-113500000D01*
X53833333Y-113547619D01*
X54738095Y-113452380D02*
X54261904Y-113452380D01*
X54214285Y-113928571D01*
X54261904Y-113880952D01*
X54357142Y-113833333D01*
X54595238Y-113833333D01*
X54690476Y-113880952D01*
X54738095Y-113928571D01*
X54785714Y-114023809D01*
X54785714Y-114261904D01*
X54738095Y-114357142D01*
X54690476Y-114404761D01*
X54595238Y-114452380D01*
X54357142Y-114452380D01*
X54261904Y-114404761D01*
X54214285Y-114357142D01*
X71357142Y-99957142D02*
X71309523Y-100004761D01*
X71166666Y-100052380D01*
X71071428Y-100052380D01*
X70928571Y-100004761D01*
X70833333Y-99909523D01*
X70785714Y-99814285D01*
X70738095Y-99623809D01*
X70738095Y-99480952D01*
X70785714Y-99290476D01*
X70833333Y-99195238D01*
X70928571Y-99100000D01*
X71071428Y-99052380D01*
X71166666Y-99052380D01*
X71309523Y-99100000D01*
X71357142Y-99147619D01*
X72309523Y-100052380D02*
X71738095Y-100052380D01*
X72023809Y-100052380D02*
X72023809Y-99052380D01*
X71928571Y-99195238D01*
X71833333Y-99290476D01*
X71738095Y-99338095D01*
X72642857Y-99052380D02*
X73261904Y-99052380D01*
X72928571Y-99433333D01*
X73071428Y-99433333D01*
X73166666Y-99480952D01*
X73214285Y-99528571D01*
X73261904Y-99623809D01*
X73261904Y-99861904D01*
X73214285Y-99957142D01*
X73166666Y-100004761D01*
X73071428Y-100052380D01*
X72785714Y-100052380D01*
X72690476Y-100004761D01*
X72642857Y-99957142D01*
X71466666Y-84052380D02*
X71466666Y-84766666D01*
X71419047Y-84909523D01*
X71323809Y-85004761D01*
X71180952Y-85052380D01*
X71085714Y-85052380D01*
X71990476Y-85052380D02*
X72180952Y-85052380D01*
X72276190Y-85004761D01*
X72323809Y-84957142D01*
X72419047Y-84814285D01*
X72466666Y-84623809D01*
X72466666Y-84242857D01*
X72419047Y-84147619D01*
X72371428Y-84100000D01*
X72276190Y-84052380D01*
X72085714Y-84052380D01*
X71990476Y-84100000D01*
X71942857Y-84147619D01*
X71895238Y-84242857D01*
X71895238Y-84480952D01*
X71942857Y-84576190D01*
X71990476Y-84623809D01*
X72085714Y-84671428D01*
X72276190Y-84671428D01*
X72371428Y-84623809D01*
X72419047Y-84576190D01*
X72466666Y-84480952D01*
X88233333Y-81557142D02*
X88185714Y-81604761D01*
X88042857Y-81652380D01*
X87947619Y-81652380D01*
X87804761Y-81604761D01*
X87709523Y-81509523D01*
X87661904Y-81414285D01*
X87614285Y-81223809D01*
X87614285Y-81080952D01*
X87661904Y-80890476D01*
X87709523Y-80795238D01*
X87804761Y-80700000D01*
X87947619Y-80652380D01*
X88042857Y-80652380D01*
X88185714Y-80700000D01*
X88233333Y-80747619D01*
X88804761Y-81080952D02*
X88709523Y-81033333D01*
X88661904Y-80985714D01*
X88614285Y-80890476D01*
X88614285Y-80842857D01*
X88661904Y-80747619D01*
X88709523Y-80700000D01*
X88804761Y-80652380D01*
X88995238Y-80652380D01*
X89090476Y-80700000D01*
X89138095Y-80747619D01*
X89185714Y-80842857D01*
X89185714Y-80890476D01*
X89138095Y-80985714D01*
X89090476Y-81033333D01*
X88995238Y-81080952D01*
X88804761Y-81080952D01*
X88709523Y-81128571D01*
X88661904Y-81176190D01*
X88614285Y-81271428D01*
X88614285Y-81461904D01*
X88661904Y-81557142D01*
X88709523Y-81604761D01*
X88804761Y-81652380D01*
X88995238Y-81652380D01*
X89090476Y-81604761D01*
X89138095Y-81557142D01*
X89185714Y-81461904D01*
X89185714Y-81271428D01*
X89138095Y-81176190D01*
X89090476Y-81128571D01*
X88995238Y-81080952D01*
X47904761Y-88547619D02*
X47809523Y-88500000D01*
X47714285Y-88404761D01*
X47571428Y-88261904D01*
X47476190Y-88214285D01*
X47380952Y-88214285D01*
X47428571Y-88452380D02*
X47333333Y-88404761D01*
X47238095Y-88309523D01*
X47190476Y-88119047D01*
X47190476Y-87785714D01*
X47238095Y-87595238D01*
X47333333Y-87500000D01*
X47428571Y-87452380D01*
X47619047Y-87452380D01*
X47714285Y-87500000D01*
X47809523Y-87595238D01*
X47857142Y-87785714D01*
X47857142Y-88119047D01*
X47809523Y-88309523D01*
X47714285Y-88404761D01*
X47619047Y-88452380D01*
X47428571Y-88452380D01*
X48809523Y-88452380D02*
X48238095Y-88452380D01*
X48523809Y-88452380D02*
X48523809Y-87452380D01*
X48428571Y-87595238D01*
X48333333Y-87690476D01*
X48238095Y-87738095D01*
X101357142Y-66357142D02*
X101309523Y-66404761D01*
X101166666Y-66452380D01*
X101071428Y-66452380D01*
X100928571Y-66404761D01*
X100833333Y-66309523D01*
X100785714Y-66214285D01*
X100738095Y-66023809D01*
X100738095Y-65880952D01*
X100785714Y-65690476D01*
X100833333Y-65595238D01*
X100928571Y-65500000D01*
X101071428Y-65452380D01*
X101166666Y-65452380D01*
X101309523Y-65500000D01*
X101357142Y-65547619D01*
X102309523Y-66452380D02*
X101738095Y-66452380D01*
X102023809Y-66452380D02*
X102023809Y-65452380D01*
X101928571Y-65595238D01*
X101833333Y-65690476D01*
X101738095Y-65738095D01*
X103166666Y-65452380D02*
X102976190Y-65452380D01*
X102880952Y-65500000D01*
X102833333Y-65547619D01*
X102738095Y-65690476D01*
X102690476Y-65880952D01*
X102690476Y-66261904D01*
X102738095Y-66357142D01*
X102785714Y-66404761D01*
X102880952Y-66452380D01*
X103071428Y-66452380D01*
X103166666Y-66404761D01*
X103214285Y-66357142D01*
X103261904Y-66261904D01*
X103261904Y-66023809D01*
X103214285Y-65928571D01*
X103166666Y-65880952D01*
X103071428Y-65833333D01*
X102880952Y-65833333D01*
X102785714Y-65880952D01*
X102738095Y-65928571D01*
X102690476Y-66023809D01*
X35266666Y-106652380D02*
X35266666Y-107366666D01*
X35219047Y-107509523D01*
X35123809Y-107604761D01*
X34980952Y-107652380D01*
X34885714Y-107652380D01*
X35695238Y-106747619D02*
X35742857Y-106700000D01*
X35838095Y-106652380D01*
X36076190Y-106652380D01*
X36171428Y-106700000D01*
X36219047Y-106747619D01*
X36266666Y-106842857D01*
X36266666Y-106938095D01*
X36219047Y-107080952D01*
X35647619Y-107652380D01*
X36266666Y-107652380D01*
X35266666Y-113852380D02*
X35266666Y-114566666D01*
X35219047Y-114709523D01*
X35123809Y-114804761D01*
X34980952Y-114852380D01*
X34885714Y-114852380D01*
X35647619Y-113852380D02*
X36266666Y-113852380D01*
X35933333Y-114233333D01*
X36076190Y-114233333D01*
X36171428Y-114280952D01*
X36219047Y-114328571D01*
X36266666Y-114423809D01*
X36266666Y-114661904D01*
X36219047Y-114757142D01*
X36171428Y-114804761D01*
X36076190Y-114852380D01*
X35790476Y-114852380D01*
X35695238Y-114804761D01*
X35647619Y-114757142D01*
X104333333Y-120109793D02*
X104285714Y-120157412D01*
X104142857Y-120205031D01*
X104047619Y-120205031D01*
X103904761Y-120157412D01*
X103809523Y-120062174D01*
X103761904Y-119966936D01*
X103714285Y-119776460D01*
X103714285Y-119633603D01*
X103761904Y-119443127D01*
X103809523Y-119347889D01*
X103904761Y-119252651D01*
X104047619Y-119205031D01*
X104142857Y-119205031D01*
X104285714Y-119252651D01*
X104333333Y-119300270D01*
X104714285Y-119300270D02*
X104761904Y-119252651D01*
X104857142Y-119205031D01*
X105095238Y-119205031D01*
X105190476Y-119252651D01*
X105238095Y-119300270D01*
X105285714Y-119395508D01*
X105285714Y-119490746D01*
X105238095Y-119633603D01*
X104666666Y-120205031D01*
X105285714Y-120205031D01*
X79904761Y-116347619D02*
X79809523Y-116300000D01*
X79714285Y-116204761D01*
X79571428Y-116061904D01*
X79476190Y-116014285D01*
X79380952Y-116014285D01*
X79428571Y-116252380D02*
X79333333Y-116204761D01*
X79238095Y-116109523D01*
X79190476Y-115919047D01*
X79190476Y-115585714D01*
X79238095Y-115395238D01*
X79333333Y-115300000D01*
X79428571Y-115252380D01*
X79619047Y-115252380D01*
X79714285Y-115300000D01*
X79809523Y-115395238D01*
X79857142Y-115585714D01*
X79857142Y-115919047D01*
X79809523Y-116109523D01*
X79714285Y-116204761D01*
X79619047Y-116252380D01*
X79428571Y-116252380D01*
X80761904Y-115252380D02*
X80285714Y-115252380D01*
X80238095Y-115728571D01*
X80285714Y-115680952D01*
X80380952Y-115633333D01*
X80619047Y-115633333D01*
X80714285Y-115680952D01*
X80761904Y-115728571D01*
X80809523Y-115823809D01*
X80809523Y-116061904D01*
X80761904Y-116157142D01*
X80714285Y-116204761D01*
X80619047Y-116252380D01*
X80380952Y-116252380D01*
X80285714Y-116204761D01*
X80238095Y-116157142D01*
D11*
X96950000Y-88590000D02*
X97550000Y-88590000D01*
X96950000Y-90410000D02*
X97550000Y-90410000D01*
X47750000Y-123025000D02*
X47750000Y-123775000D01*
X36940000Y-123785000D02*
X49560000Y-123785000D01*
X48600000Y-124075000D02*
X49850000Y-124075000D01*
X36950000Y-121525000D02*
X37700000Y-121525000D01*
X48800000Y-118575000D02*
X43250000Y-118575000D01*
X47750000Y-123775000D02*
X49550000Y-123775000D01*
X38750000Y-123775000D02*
X38750000Y-123025000D01*
X48800000Y-121525000D02*
X48800000Y-118575000D01*
X36950000Y-123025000D02*
X36950000Y-123775000D01*
X37700000Y-121525000D02*
X37700000Y-118575000D01*
X49850000Y-124075000D02*
X49850000Y-122825000D01*
X38750000Y-123025000D02*
X36950000Y-123025000D01*
X40250000Y-123775000D02*
X46250000Y-123775000D01*
X36940000Y-117815000D02*
X36940000Y-123785000D01*
X49560000Y-117815000D02*
X36940000Y-117815000D01*
X36950000Y-123775000D02*
X38750000Y-123775000D01*
X49550000Y-121525000D02*
X48800000Y-121525000D01*
X49550000Y-123775000D02*
X49550000Y-123025000D01*
X40250000Y-123025000D02*
X40250000Y-123775000D01*
X46250000Y-123025000D02*
X40250000Y-123025000D01*
X49560000Y-123785000D02*
X49560000Y-117815000D01*
X49550000Y-123025000D02*
X47750000Y-123025000D01*
X46250000Y-123775000D02*
X46250000Y-123025000D01*
X37700000Y-118575000D02*
X43250000Y-118575000D01*
X96950000Y-85590000D02*
X97550000Y-85590000D01*
X96950000Y-87410000D02*
X97550000Y-87410000D01*
X70860000Y-122700000D02*
X70860000Y-123300000D01*
X69040000Y-122700000D02*
X69040000Y-123300000D01*
X50540000Y-107700000D02*
X50540000Y-108300000D01*
X52360000Y-107700000D02*
X52360000Y-108300000D01*
X81600000Y-61240000D02*
X82250000Y-61240000D01*
X81600000Y-64360000D02*
X82250000Y-64360000D01*
X81600000Y-64360000D02*
X80950000Y-64360000D01*
X81600000Y-61240000D02*
X79925000Y-61240000D01*
X63800000Y-118950000D02*
X63800000Y-119700000D01*
X61550000Y-118950000D02*
X61550000Y-120750000D01*
X67510000Y-126560000D02*
X67510000Y-118940000D01*
X61550000Y-120750000D02*
X62300000Y-120750000D01*
X62300000Y-118950000D02*
X61550000Y-118950000D01*
X62300000Y-120750000D02*
X62300000Y-118950000D01*
X67510000Y-118940000D02*
X61540000Y-118940000D01*
X63800000Y-125800000D02*
X66750000Y-125800000D01*
X61540000Y-118940000D02*
X61540000Y-126560000D01*
X62300000Y-123250000D02*
X62300000Y-122250000D01*
X61550000Y-122250000D02*
X61550000Y-123250000D01*
X62300000Y-124750000D02*
X61550000Y-124750000D01*
X63800000Y-126550000D02*
X63800000Y-125800000D01*
X62300000Y-126550000D02*
X62300000Y-124750000D01*
X63800000Y-119700000D02*
X66750000Y-119700000D01*
X61250000Y-126850000D02*
X62500000Y-126850000D01*
X62300000Y-122250000D02*
X61550000Y-122250000D01*
X66750000Y-119700000D02*
X66750000Y-122750000D01*
X61250000Y-125600000D02*
X61250000Y-126850000D01*
X61540000Y-126560000D02*
X67510000Y-126560000D01*
X61550000Y-124750000D02*
X61550000Y-126550000D01*
X66750000Y-125800000D02*
X66750000Y-122750000D01*
X61550000Y-123250000D02*
X62300000Y-123250000D01*
X61550000Y-126550000D02*
X62300000Y-126550000D01*
X84700000Y-82640000D02*
X85300000Y-82640000D01*
X84700000Y-84460000D02*
X85300000Y-84460000D01*
X36696560Y-51300000D02*
X36696560Y-79699999D01*
X36676240Y-74469880D02*
X30783440Y-74469880D01*
X30783440Y-56486680D02*
X36676240Y-56486680D01*
X30783440Y-74469880D02*
X30783440Y-56486680D01*
X36696560Y-79699999D02*
X84616560Y-79700000D01*
X84616560Y-79700000D02*
X84616560Y-51300001D01*
X84616560Y-51300001D02*
X36696560Y-51300000D01*
X118900000Y-101870000D02*
X117570000Y-101870000D01*
X120170000Y-99210000D02*
X127850000Y-99210000D01*
X97310000Y-114450000D02*
X102450000Y-114450000D01*
X127850000Y-101870000D02*
X127850000Y-99210000D01*
X120170000Y-117110000D02*
X120170000Y-114450000D01*
X94710000Y-117110000D02*
X94710000Y-115780000D01*
X97310000Y-117110000D02*
X97310000Y-114450000D01*
X102450000Y-117110000D02*
X102450000Y-114450000D01*
X120170000Y-101870000D02*
X127850000Y-101870000D01*
X96040000Y-117110000D02*
X94710000Y-117110000D01*
X120170000Y-101870000D02*
X127850000Y-101870000D01*
X120170000Y-117110000D02*
X127850000Y-117110000D01*
X117570000Y-101870000D02*
X117570000Y-100540000D01*
X118900000Y-101870000D02*
X117570000Y-101870000D01*
X127850000Y-117110000D02*
X127850000Y-114450000D01*
X120170000Y-114450000D02*
X127850000Y-114450000D01*
X117570000Y-117110000D02*
X117570000Y-115780000D01*
X97310000Y-117110000D02*
X102450000Y-117110000D01*
X120170000Y-117110000D02*
X127850000Y-117110000D01*
X120170000Y-101870000D02*
X120170000Y-99210000D01*
X127850000Y-101870000D02*
X127850000Y-99210000D01*
X96040000Y-117110000D02*
X94710000Y-117110000D01*
X118900000Y-117110000D02*
X117570000Y-117110000D01*
X94710000Y-117110000D02*
X94710000Y-115780000D01*
X120170000Y-114450000D02*
X127850000Y-114450000D01*
X120170000Y-99210000D02*
X127850000Y-99210000D01*
X120170000Y-117110000D02*
X120170000Y-114450000D01*
X117570000Y-101870000D02*
X117570000Y-100540000D01*
X97310000Y-117110000D02*
X97310000Y-114450000D01*
X102450000Y-117110000D02*
X102450000Y-114450000D01*
X127850000Y-117110000D02*
X127850000Y-114450000D01*
X97310000Y-114450000D02*
X102450000Y-114450000D01*
X117570000Y-117110000D02*
X117570000Y-115780000D01*
X118900000Y-117110000D02*
X117570000Y-117110000D01*
X97310000Y-117110000D02*
X102450000Y-117110000D01*
X120170000Y-101870000D02*
X120170000Y-99210000D01*
D12*
X93500000Y-98000000D02*
X128500000Y-98000000D01*
X128500000Y-98000000D02*
X128500000Y-118000000D01*
X128500000Y-118000000D02*
X93500000Y-118000000D01*
X93500000Y-118000000D02*
X93500000Y-98000000D01*
D11*
X48000000Y-97160000D02*
X49675000Y-97160000D01*
X48000000Y-94040000D02*
X48650000Y-94040000D01*
X48000000Y-97160000D02*
X47350000Y-97160000D01*
X48000000Y-94040000D02*
X47350000Y-94040000D01*
X64475000Y-86500000D02*
X67425000Y-86500000D01*
X62975000Y-87550000D02*
X62975000Y-85750000D01*
X62225000Y-85750000D02*
X62225000Y-87550000D01*
X64475000Y-95100000D02*
X67425000Y-95100000D01*
X68185000Y-85740000D02*
X62215000Y-85740000D01*
X67425000Y-95100000D02*
X67425000Y-90800000D01*
X64475000Y-95850000D02*
X64475000Y-95100000D01*
X62225000Y-89050000D02*
X62225000Y-92550000D01*
X62225000Y-87550000D02*
X62975000Y-87550000D01*
X62215000Y-95860000D02*
X68185000Y-95860000D01*
X68185000Y-95860000D02*
X68185000Y-85740000D01*
X61925000Y-96150000D02*
X63175000Y-96150000D01*
X62975000Y-85750000D02*
X62225000Y-85750000D01*
X67425000Y-86500000D02*
X67425000Y-90800000D01*
X61925000Y-94900000D02*
X61925000Y-96150000D01*
X64475000Y-85750000D02*
X64475000Y-86500000D01*
X62225000Y-92550000D02*
X62975000Y-92550000D01*
X62975000Y-92550000D02*
X62975000Y-89050000D01*
X62975000Y-94050000D02*
X62225000Y-94050000D01*
X62215000Y-85740000D02*
X62215000Y-95860000D01*
X62975000Y-95850000D02*
X62975000Y-94050000D01*
X62225000Y-94050000D02*
X62225000Y-95850000D01*
X62225000Y-95850000D02*
X62975000Y-95850000D01*
X62975000Y-89050000D02*
X62225000Y-89050000D01*
X120850000Y-120050000D02*
X129450000Y-120050000D01*
X114950000Y-129250000D02*
X114950000Y-127250000D01*
X114950000Y-120050000D02*
X116250000Y-120050000D01*
X114950000Y-122050000D02*
X114950000Y-120050000D01*
X129450000Y-129250000D02*
X114950000Y-129250000D01*
X114650000Y-129550000D02*
X115950000Y-129550000D01*
X114650000Y-127850000D02*
X114650000Y-129550000D01*
X129450000Y-120050000D02*
X129450000Y-129250000D01*
X86225000Y-59000000D02*
X86975000Y-59000000D01*
X88475000Y-59000000D02*
X88475000Y-58250000D01*
X86215000Y-51390000D02*
X86215000Y-59010000D01*
X86975000Y-57200000D02*
X86225000Y-57200000D01*
X86225000Y-51400000D02*
X86225000Y-53200000D01*
X86975000Y-54700000D02*
X86225000Y-54700000D01*
X86975000Y-55700000D02*
X86975000Y-54700000D01*
X92185000Y-59010000D02*
X92185000Y-51390000D01*
X86215000Y-59010000D02*
X92185000Y-59010000D01*
X91425000Y-58250000D02*
X91425000Y-55200000D01*
X88475000Y-58250000D02*
X91425000Y-58250000D01*
X86225000Y-53200000D02*
X86975000Y-53200000D01*
X91425000Y-52150000D02*
X91425000Y-55200000D01*
X86975000Y-59000000D02*
X86975000Y-57200000D01*
X86225000Y-54700000D02*
X86225000Y-55700000D01*
X86975000Y-53200000D02*
X86975000Y-51400000D01*
X86225000Y-57200000D02*
X86225000Y-59000000D01*
X85925000Y-59300000D02*
X87175000Y-59300000D01*
X85925000Y-58050000D02*
X85925000Y-59300000D01*
X88475000Y-51400000D02*
X88475000Y-52150000D01*
X86975000Y-51400000D02*
X86225000Y-51400000D01*
X92185000Y-51390000D02*
X86215000Y-51390000D01*
X88475000Y-52150000D02*
X91425000Y-52150000D01*
X86225000Y-55700000D02*
X86975000Y-55700000D01*
X62440000Y-116400000D02*
X62440000Y-115750000D01*
X65560000Y-116400000D02*
X65560000Y-114725000D01*
X65560000Y-116400000D02*
X65560000Y-117050000D01*
X62440000Y-116400000D02*
X62440000Y-117050000D01*
X79300000Y-98460000D02*
X78700000Y-98460000D01*
X79300000Y-96640000D02*
X78700000Y-96640000D01*
X55750000Y-89050000D02*
X55000000Y-89050000D01*
X55000000Y-92550000D02*
X55750000Y-92550000D01*
X60960000Y-95860000D02*
X60960000Y-85740000D01*
X57250000Y-95850000D02*
X57250000Y-95100000D01*
X55000000Y-94050000D02*
X55000000Y-95850000D01*
X54990000Y-95860000D02*
X60960000Y-95860000D01*
X60960000Y-85740000D02*
X54990000Y-85740000D01*
X54700000Y-96150000D02*
X55950000Y-96150000D01*
X60200000Y-86500000D02*
X60200000Y-90800000D01*
X55750000Y-87550000D02*
X55750000Y-85750000D01*
X55000000Y-89050000D02*
X55000000Y-92550000D01*
X55750000Y-92550000D02*
X55750000Y-89050000D01*
X57250000Y-95100000D02*
X60200000Y-95100000D01*
X55000000Y-85750000D02*
X55000000Y-87550000D01*
X57250000Y-86500000D02*
X60200000Y-86500000D01*
X55000000Y-95850000D02*
X55750000Y-95850000D01*
X55750000Y-94050000D02*
X55000000Y-94050000D01*
X55750000Y-85750000D02*
X55000000Y-85750000D01*
X60200000Y-95100000D02*
X60200000Y-90800000D01*
X54990000Y-85740000D02*
X54990000Y-95860000D01*
X54700000Y-94900000D02*
X54700000Y-96150000D01*
X55000000Y-87550000D02*
X55750000Y-87550000D01*
X57250000Y-85750000D02*
X57250000Y-86500000D01*
X55750000Y-95850000D02*
X55750000Y-94050000D01*
X98300000Y-60860000D02*
X97700000Y-60860000D01*
X98300000Y-59040000D02*
X97700000Y-59040000D01*
X52360000Y-119700000D02*
X52360000Y-120300000D01*
X50540000Y-119700000D02*
X50540000Y-120300000D01*
X39300000Y-83200000D02*
X39300000Y-81400000D01*
X38250000Y-89300000D02*
X39500000Y-89300000D01*
X39300000Y-85700000D02*
X39300000Y-84700000D01*
X43750000Y-88250000D02*
X43750000Y-85200000D01*
X43750000Y-82150000D02*
X43750000Y-85200000D01*
X38550000Y-85700000D02*
X39300000Y-85700000D01*
X39300000Y-89000000D02*
X39300000Y-87200000D01*
X38550000Y-84700000D02*
X38550000Y-85700000D01*
X44510000Y-81390000D02*
X38540000Y-81390000D01*
X39300000Y-87200000D02*
X38550000Y-87200000D01*
X38550000Y-83200000D02*
X39300000Y-83200000D01*
X38550000Y-87200000D02*
X38550000Y-89000000D01*
X44510000Y-89010000D02*
X44510000Y-81390000D01*
X38250000Y-88050000D02*
X38250000Y-89300000D01*
X38550000Y-89000000D02*
X39300000Y-89000000D01*
X39300000Y-84700000D02*
X38550000Y-84700000D01*
X38540000Y-81390000D02*
X38540000Y-89010000D01*
X38550000Y-81400000D02*
X38550000Y-83200000D01*
X40800000Y-81400000D02*
X40800000Y-82150000D01*
X40800000Y-82150000D02*
X43750000Y-82150000D01*
X40800000Y-88250000D02*
X43750000Y-88250000D01*
X38540000Y-89010000D02*
X44510000Y-89010000D01*
X40800000Y-89000000D02*
X40800000Y-88250000D01*
X39300000Y-81400000D02*
X38550000Y-81400000D01*
X100640000Y-123300000D02*
X100640000Y-122700000D01*
X102460000Y-123300000D02*
X102460000Y-122700000D01*
X96950000Y-111640000D02*
X97550000Y-111640000D01*
X96950000Y-113460000D02*
X97550000Y-113460000D01*
X81600000Y-60160000D02*
X82250000Y-60160000D01*
X81600000Y-57040000D02*
X79925000Y-57040000D01*
X81600000Y-57040000D02*
X82250000Y-57040000D01*
X81600000Y-60160000D02*
X80950000Y-60160000D01*
X38540000Y-100210000D02*
X44510000Y-100210000D01*
X38550000Y-98400000D02*
X38550000Y-100200000D01*
X38250000Y-100500000D02*
X39500000Y-100500000D01*
X44510000Y-92590000D02*
X38540000Y-92590000D01*
X39300000Y-98400000D02*
X38550000Y-98400000D01*
X40800000Y-93350000D02*
X43750000Y-93350000D01*
X38550000Y-100200000D02*
X39300000Y-100200000D01*
X39300000Y-92600000D02*
X38550000Y-92600000D01*
X39300000Y-95900000D02*
X38550000Y-95900000D01*
X44510000Y-100210000D02*
X44510000Y-92590000D01*
X38550000Y-96900000D02*
X39300000Y-96900000D01*
X39300000Y-96900000D02*
X39300000Y-95900000D01*
X38540000Y-92590000D02*
X38540000Y-100210000D01*
X39300000Y-94400000D02*
X39300000Y-92600000D01*
X39300000Y-100200000D02*
X39300000Y-98400000D01*
X40800000Y-100200000D02*
X40800000Y-99450000D01*
X40800000Y-99450000D02*
X43750000Y-99450000D01*
X38550000Y-95900000D02*
X38550000Y-96900000D01*
X40800000Y-92600000D02*
X40800000Y-93350000D01*
X38250000Y-99250000D02*
X38250000Y-100500000D01*
X38550000Y-92600000D02*
X38550000Y-94400000D01*
X43750000Y-93350000D02*
X43750000Y-96400000D01*
X38550000Y-94400000D02*
X39300000Y-94400000D01*
X43750000Y-99450000D02*
X43750000Y-96400000D01*
X76825000Y-89050000D02*
X76825000Y-92550000D01*
X76825000Y-85750000D02*
X76825000Y-87550000D01*
X77575000Y-87550000D02*
X77575000Y-85750000D01*
X79075000Y-95100000D02*
X82025000Y-95100000D01*
X76525000Y-96150000D02*
X77775000Y-96150000D01*
X82785000Y-85740000D02*
X76815000Y-85740000D01*
X79075000Y-85750000D02*
X79075000Y-86500000D01*
X76525000Y-94900000D02*
X76525000Y-96150000D01*
X76825000Y-92550000D02*
X77575000Y-92550000D01*
X82025000Y-86500000D02*
X82025000Y-90800000D01*
X76815000Y-95860000D02*
X82785000Y-95860000D01*
X76825000Y-87550000D02*
X77575000Y-87550000D01*
X76815000Y-85740000D02*
X76815000Y-95860000D01*
X77575000Y-92550000D02*
X77575000Y-89050000D01*
X82025000Y-95100000D02*
X82025000Y-90800000D01*
X77575000Y-95850000D02*
X77575000Y-94050000D01*
X76825000Y-95850000D02*
X77575000Y-95850000D01*
X79075000Y-95850000D02*
X79075000Y-95100000D01*
X79075000Y-86500000D02*
X82025000Y-86500000D01*
X77575000Y-89050000D02*
X76825000Y-89050000D01*
X82785000Y-95860000D02*
X82785000Y-85740000D01*
X77575000Y-94050000D02*
X76825000Y-94050000D01*
X76825000Y-94050000D02*
X76825000Y-95850000D01*
X77575000Y-85750000D02*
X76825000Y-85750000D01*
X65350000Y-96840000D02*
X64750000Y-96840000D01*
X65350000Y-98660000D02*
X64750000Y-98660000D01*
X86225000Y-65800000D02*
X86225000Y-67600000D01*
X88475000Y-60000000D02*
X88475000Y-60750000D01*
X91425000Y-60750000D02*
X91425000Y-63800000D01*
X85925000Y-66650000D02*
X85925000Y-67900000D01*
X86975000Y-60000000D02*
X86225000Y-60000000D01*
X86215000Y-67610000D02*
X92185000Y-67610000D01*
X86225000Y-61800000D02*
X86975000Y-61800000D01*
X92185000Y-67610000D02*
X92185000Y-59990000D01*
X88475000Y-67600000D02*
X88475000Y-66850000D01*
X86215000Y-59990000D02*
X86215000Y-67610000D01*
X85925000Y-67900000D02*
X87175000Y-67900000D01*
X86975000Y-61800000D02*
X86975000Y-60000000D01*
X86975000Y-67600000D02*
X86975000Y-65800000D01*
X86225000Y-63300000D02*
X86225000Y-64300000D01*
X86975000Y-65800000D02*
X86225000Y-65800000D01*
X86975000Y-64300000D02*
X86975000Y-63300000D01*
X86225000Y-67600000D02*
X86975000Y-67600000D01*
X86225000Y-64300000D02*
X86975000Y-64300000D01*
X86225000Y-60000000D02*
X86225000Y-61800000D01*
X86975000Y-63300000D02*
X86225000Y-63300000D01*
X92185000Y-59990000D02*
X86215000Y-59990000D01*
X88475000Y-66850000D02*
X91425000Y-66850000D01*
X91425000Y-66850000D02*
X91425000Y-63800000D01*
X88475000Y-60750000D02*
X91425000Y-60750000D01*
X83860000Y-122700000D02*
X83860000Y-123300000D01*
X82040000Y-122700000D02*
X82040000Y-123300000D01*
X38600000Y-103060000D02*
X38000000Y-103060000D01*
X38600000Y-101240000D02*
X38000000Y-101240000D01*
X97090000Y-123300000D02*
X97090000Y-122700000D01*
X98910000Y-123300000D02*
X98910000Y-122700000D01*
X58350000Y-98660000D02*
X57750000Y-98660000D01*
X58350000Y-96840000D02*
X57750000Y-96840000D01*
X38600000Y-91760000D02*
X38000000Y-91760000D01*
X38600000Y-89940000D02*
X38000000Y-89940000D01*
X117570000Y-94110000D02*
X117570000Y-92780000D01*
X120170000Y-78870000D02*
X127850000Y-78870000D01*
X102450000Y-94110000D02*
X102450000Y-91450000D01*
X120170000Y-78870000D02*
X127850000Y-78870000D01*
X97310000Y-91450000D02*
X102450000Y-91450000D01*
X117570000Y-78870000D02*
X117570000Y-77540000D01*
X117570000Y-94110000D02*
X117570000Y-92780000D01*
X97310000Y-94110000D02*
X97310000Y-91450000D01*
X127850000Y-78870000D02*
X127850000Y-76210000D01*
X94710000Y-94110000D02*
X94710000Y-92780000D01*
X120170000Y-78870000D02*
X120170000Y-76210000D01*
X97310000Y-94110000D02*
X102450000Y-94110000D01*
X120170000Y-91450000D02*
X127850000Y-91450000D01*
X118900000Y-78870000D02*
X117570000Y-78870000D01*
X102450000Y-94110000D02*
X102450000Y-91450000D01*
X120170000Y-91450000D02*
X127850000Y-91450000D01*
X97310000Y-91450000D02*
X102450000Y-91450000D01*
X120170000Y-78870000D02*
X120170000Y-76210000D01*
X97310000Y-94110000D02*
X102450000Y-94110000D01*
X96040000Y-94110000D02*
X94710000Y-94110000D01*
X127850000Y-94110000D02*
X127850000Y-91450000D01*
X127850000Y-94110000D02*
X127850000Y-91450000D01*
X120170000Y-94110000D02*
X120170000Y-91450000D01*
X97310000Y-94110000D02*
X97310000Y-91450000D01*
X96040000Y-94110000D02*
X94710000Y-94110000D01*
X117570000Y-78870000D02*
X117570000Y-77540000D01*
X120170000Y-76210000D02*
X127850000Y-76210000D01*
X120170000Y-76210000D02*
X127850000Y-76210000D01*
X120170000Y-94110000D02*
X127850000Y-94110000D01*
X120170000Y-94110000D02*
X120170000Y-91450000D01*
X118900000Y-78870000D02*
X117570000Y-78870000D01*
X127850000Y-78870000D02*
X127850000Y-76210000D01*
X120170000Y-94110000D02*
X127850000Y-94110000D01*
X118900000Y-94110000D02*
X117570000Y-94110000D01*
X118900000Y-94110000D02*
X117570000Y-94110000D01*
X94710000Y-94110000D02*
X94710000Y-92780000D01*
D12*
X93500000Y-75000000D02*
X128500000Y-75000000D01*
X128500000Y-75000000D02*
X128500000Y-95000000D01*
X128500000Y-95000000D02*
X93500000Y-95000000D01*
X93500000Y-95000000D02*
X93500000Y-75000000D01*
D11*
X80510000Y-126560000D02*
X80510000Y-118940000D01*
X79750000Y-119700000D02*
X79750000Y-122750000D01*
X75300000Y-124750000D02*
X74550000Y-124750000D01*
X74540000Y-118940000D02*
X74540000Y-126560000D01*
X75300000Y-118950000D02*
X74550000Y-118950000D01*
X76800000Y-126550000D02*
X76800000Y-125800000D01*
X75300000Y-120750000D02*
X75300000Y-118950000D01*
X76800000Y-119700000D02*
X79750000Y-119700000D01*
X75300000Y-122250000D02*
X74550000Y-122250000D01*
X75300000Y-123250000D02*
X75300000Y-122250000D01*
X74550000Y-120750000D02*
X75300000Y-120750000D01*
X76800000Y-125800000D02*
X79750000Y-125800000D01*
X74550000Y-118950000D02*
X74550000Y-120750000D01*
X74550000Y-122250000D02*
X74550000Y-123250000D01*
X74550000Y-124750000D02*
X74550000Y-126550000D01*
X75300000Y-126550000D02*
X75300000Y-124750000D01*
X74250000Y-125600000D02*
X74250000Y-126850000D01*
X74250000Y-126850000D02*
X75500000Y-126850000D01*
X79750000Y-125800000D02*
X79750000Y-122750000D01*
X80510000Y-118940000D02*
X74540000Y-118940000D01*
X74540000Y-126560000D02*
X80510000Y-126560000D01*
X74550000Y-126550000D02*
X75300000Y-126550000D01*
X76800000Y-118950000D02*
X76800000Y-119700000D01*
X74550000Y-123250000D02*
X75300000Y-123250000D01*
X96950000Y-110460000D02*
X97550000Y-110460000D01*
X96950000Y-108640000D02*
X97550000Y-108640000D01*
X50540000Y-113700000D02*
X50540000Y-114300000D01*
X52360000Y-113700000D02*
X52360000Y-114300000D01*
X72300000Y-96640000D02*
X71700000Y-96640000D01*
X72300000Y-98460000D02*
X71700000Y-98460000D01*
X69425000Y-94050000D02*
X69425000Y-95850000D01*
X69425000Y-89050000D02*
X69425000Y-92550000D01*
X71675000Y-85750000D02*
X71675000Y-86500000D01*
X71675000Y-95850000D02*
X71675000Y-95100000D01*
X69425000Y-92550000D02*
X70175000Y-92550000D01*
X74625000Y-86500000D02*
X74625000Y-90800000D01*
X70175000Y-95850000D02*
X70175000Y-94050000D01*
X70175000Y-87550000D02*
X70175000Y-85750000D01*
X69425000Y-87550000D02*
X70175000Y-87550000D01*
X69125000Y-96150000D02*
X70375000Y-96150000D01*
X70175000Y-89050000D02*
X69425000Y-89050000D01*
X70175000Y-85750000D02*
X69425000Y-85750000D01*
X71675000Y-86500000D02*
X74625000Y-86500000D01*
X71675000Y-95100000D02*
X74625000Y-95100000D01*
X75385000Y-85740000D02*
X69415000Y-85740000D01*
X70175000Y-92550000D02*
X70175000Y-89050000D01*
X69425000Y-95850000D02*
X70175000Y-95850000D01*
X69415000Y-85740000D02*
X69415000Y-95860000D01*
X74625000Y-95100000D02*
X74625000Y-90800000D01*
X69415000Y-95860000D02*
X75385000Y-95860000D01*
X70175000Y-94050000D02*
X69425000Y-94050000D01*
X75385000Y-95860000D02*
X75385000Y-85740000D01*
X69125000Y-94900000D02*
X69125000Y-96150000D01*
X69425000Y-85750000D02*
X69425000Y-87550000D01*
X84700000Y-81960000D02*
X85300000Y-81960000D01*
X84700000Y-80140000D02*
X85300000Y-80140000D01*
X48000000Y-84040000D02*
X47350000Y-84040000D01*
X48000000Y-87160000D02*
X49675000Y-87160000D01*
X48000000Y-84040000D02*
X48650000Y-84040000D01*
X48000000Y-87160000D02*
X47350000Y-87160000D01*
X98300000Y-66860000D02*
X97700000Y-66860000D01*
X98300000Y-65040000D02*
X97700000Y-65040000D01*
X120170000Y-53210000D02*
X127850000Y-53210000D01*
X96040000Y-71110000D02*
X94710000Y-71110000D01*
X120170000Y-55870000D02*
X127850000Y-55870000D01*
X118900000Y-55870000D02*
X117570000Y-55870000D01*
X97310000Y-68450000D02*
X102450000Y-68450000D01*
X127850000Y-71110000D02*
X127850000Y-68450000D01*
X120170000Y-71110000D02*
X127850000Y-71110000D01*
X118900000Y-55870000D02*
X117570000Y-55870000D01*
X120170000Y-71110000D02*
X127850000Y-71110000D01*
X94710000Y-71110000D02*
X94710000Y-69780000D01*
X97310000Y-71110000D02*
X97310000Y-68450000D01*
X127850000Y-55870000D02*
X127850000Y-53210000D01*
X102450000Y-71110000D02*
X102450000Y-68450000D01*
X97310000Y-71110000D02*
X102450000Y-71110000D01*
X96040000Y-71110000D02*
X94710000Y-71110000D01*
X94710000Y-71110000D02*
X94710000Y-69780000D01*
X127850000Y-71110000D02*
X127850000Y-68450000D01*
X120170000Y-53210000D02*
X127850000Y-53210000D01*
X97310000Y-68450000D02*
X102450000Y-68450000D01*
X117570000Y-71110000D02*
X117570000Y-69780000D01*
X118900000Y-71110000D02*
X117570000Y-71110000D01*
X102450000Y-71110000D02*
X102450000Y-68450000D01*
X117570000Y-55870000D02*
X117570000Y-54540000D01*
X120170000Y-55870000D02*
X120170000Y-53210000D01*
X117570000Y-71110000D02*
X117570000Y-69780000D01*
X120170000Y-68450000D02*
X127850000Y-68450000D01*
X120170000Y-71110000D02*
X120170000Y-68450000D01*
X97310000Y-71110000D02*
X102450000Y-71110000D01*
X120170000Y-68450000D02*
X127850000Y-68450000D01*
X97310000Y-71110000D02*
X97310000Y-68450000D01*
X117570000Y-55870000D02*
X117570000Y-54540000D01*
X118900000Y-71110000D02*
X117570000Y-71110000D01*
X127850000Y-55870000D02*
X127850000Y-53210000D01*
X120170000Y-55870000D02*
X127850000Y-55870000D01*
X120170000Y-71110000D02*
X120170000Y-68450000D01*
X120170000Y-55870000D02*
X120170000Y-53210000D01*
D12*
X93500000Y-52000000D02*
X128500000Y-52000000D01*
X128500000Y-52000000D02*
X128500000Y-72000000D01*
X128500000Y-72000000D02*
X93500000Y-72000000D01*
X93500000Y-72000000D02*
X93500000Y-52000000D01*
D11*
X40250000Y-109025000D02*
X40250000Y-109775000D01*
X49550000Y-109775000D02*
X49550000Y-109025000D01*
X36940000Y-103815000D02*
X36940000Y-109785000D01*
X37700000Y-104575000D02*
X43250000Y-104575000D01*
X36950000Y-109775000D02*
X38750000Y-109775000D01*
X38750000Y-109025000D02*
X36950000Y-109025000D01*
X40250000Y-109775000D02*
X46250000Y-109775000D01*
X36940000Y-109785000D02*
X49560000Y-109785000D01*
X49560000Y-109785000D02*
X49560000Y-103815000D01*
X46250000Y-109775000D02*
X46250000Y-109025000D01*
X47750000Y-109775000D02*
X49550000Y-109775000D01*
X49850000Y-110075000D02*
X49850000Y-108825000D01*
X49560000Y-103815000D02*
X36940000Y-103815000D01*
X48800000Y-107525000D02*
X48800000Y-104575000D01*
X48800000Y-104575000D02*
X43250000Y-104575000D01*
X36950000Y-107525000D02*
X37700000Y-107525000D01*
X49550000Y-109025000D02*
X47750000Y-109025000D01*
X37700000Y-107525000D02*
X37700000Y-104575000D01*
X48600000Y-110075000D02*
X49850000Y-110075000D01*
X38750000Y-109775000D02*
X38750000Y-109025000D01*
X46250000Y-109025000D02*
X40250000Y-109025000D01*
X36950000Y-109025000D02*
X36950000Y-109775000D01*
X47750000Y-109025000D02*
X47750000Y-109775000D01*
X49550000Y-107525000D02*
X48800000Y-107525000D01*
X40250000Y-116025000D02*
X40250000Y-116775000D01*
X38750000Y-116775000D02*
X38750000Y-116025000D01*
X49560000Y-110815000D02*
X36940000Y-110815000D01*
X36950000Y-116025000D02*
X36950000Y-116775000D01*
X48800000Y-111575000D02*
X43250000Y-111575000D01*
X49550000Y-114525000D02*
X48800000Y-114525000D01*
X46250000Y-116775000D02*
X46250000Y-116025000D01*
X47750000Y-116775000D02*
X49550000Y-116775000D01*
X47750000Y-116025000D02*
X47750000Y-116775000D01*
X37700000Y-114525000D02*
X37700000Y-111575000D01*
X48800000Y-114525000D02*
X48800000Y-111575000D01*
X49560000Y-116785000D02*
X49560000Y-110815000D01*
X36940000Y-116785000D02*
X49560000Y-116785000D01*
X36940000Y-110815000D02*
X36940000Y-116785000D01*
X49550000Y-116025000D02*
X47750000Y-116025000D01*
X46250000Y-116025000D02*
X40250000Y-116025000D01*
X36950000Y-116775000D02*
X38750000Y-116775000D01*
X37700000Y-111575000D02*
X43250000Y-111575000D01*
X36950000Y-114525000D02*
X37700000Y-114525000D01*
X48600000Y-117075000D02*
X49850000Y-117075000D01*
X49850000Y-117075000D02*
X49850000Y-115825000D01*
X40250000Y-116775000D02*
X46250000Y-116775000D01*
X49550000Y-116775000D02*
X49550000Y-116025000D01*
X38750000Y-116025000D02*
X36950000Y-116025000D01*
X110140000Y-121821651D02*
X113036000Y-121821651D01*
X106045000Y-120181651D02*
X108060000Y-120181651D01*
X105237000Y-121581651D02*
X108060000Y-121581651D01*
X105048000Y-122422651D02*
X113152000Y-122422651D01*
X105560000Y-120861651D02*
X108060000Y-120861651D01*
X110140000Y-121981651D02*
X113076000Y-121981651D01*
X110140000Y-121181651D02*
X112804000Y-121181651D01*
X105250000Y-121541651D02*
X108060000Y-121541651D01*
X105791000Y-120501651D02*
X108060000Y-120501651D01*
X105175000Y-121781651D02*
X108060000Y-121781651D01*
X110140000Y-120301651D02*
X112256000Y-120301651D01*
X110140000Y-121221651D02*
X112822000Y-121221651D01*
X106646000Y-119621651D02*
X111554000Y-119621651D01*
X110140000Y-121541651D02*
X112950000Y-121541651D01*
X110140000Y-121701651D02*
X113002000Y-121701651D01*
X105020000Y-122862651D02*
X113180000Y-122862651D01*
X107871000Y-118981651D02*
X110329000Y-118981651D01*
X110140000Y-122101651D02*
X113102000Y-122101651D01*
X105211000Y-121661651D02*
X108060000Y-121661651D01*
X105850000Y-120421651D02*
X108060000Y-120421651D01*
X105396000Y-121181651D02*
X108060000Y-121181651D01*
X106755000Y-119541651D02*
X111445000Y-119541651D01*
X105516000Y-120941651D02*
X108060000Y-120941651D01*
X105583000Y-120821651D02*
X108060000Y-120821651D01*
X105360000Y-121261651D02*
X108060000Y-121261651D01*
X106010000Y-120221651D02*
X108060000Y-120221651D01*
X105021000Y-122782651D02*
X113179000Y-122782651D01*
X108567000Y-118821651D02*
X109633000Y-118821651D01*
X105343000Y-121301651D02*
X108060000Y-121301651D01*
X110140000Y-120701651D02*
X112544000Y-120701651D01*
X105063000Y-122302651D02*
X113137000Y-122302651D01*
X105039000Y-122502651D02*
X113161000Y-122502651D01*
X106316000Y-119901651D02*
X111884000Y-119901651D01*
X105098000Y-122101651D02*
X108060000Y-122101651D01*
X105023000Y-122742651D02*
X113177000Y-122742651D01*
X105083000Y-122181651D02*
X108060000Y-122181651D01*
X107066000Y-119341651D02*
X111134000Y-119341651D01*
X105473000Y-121021651D02*
X108060000Y-121021651D01*
X106998000Y-119381651D02*
X111202000Y-119381651D01*
X105223000Y-121621651D02*
X108060000Y-121621651D01*
X110140000Y-121461651D02*
X112921000Y-121461651D01*
X106595000Y-119661651D02*
X111605000Y-119661651D01*
X110140000Y-121101651D02*
X112766000Y-121101651D01*
X107754000Y-119021651D02*
X110446000Y-119021651D01*
X106700000Y-119581651D02*
X111500000Y-119581651D01*
X105052000Y-122382651D02*
X113148000Y-122382651D01*
X105880000Y-120381651D02*
X108060000Y-120381651D01*
X110140000Y-121301651D02*
X112857000Y-121301651D01*
X105682000Y-120661651D02*
X108060000Y-120661651D01*
X108152000Y-118901651D02*
X110048000Y-118901651D01*
X110140000Y-120741651D02*
X112569000Y-120741651D01*
X105164000Y-121821651D02*
X108060000Y-121821651D01*
X110140000Y-121341651D02*
X112874000Y-121341651D01*
X110140000Y-120781651D02*
X112593000Y-120781651D01*
X106785000Y-127312349D02*
X106785000Y-126512349D01*
X110140000Y-120541651D02*
X112438000Y-120541651D01*
X105115000Y-122021651D02*
X108060000Y-122021651D01*
X110140000Y-120381651D02*
X112320000Y-120381651D01*
X108332000Y-118861651D02*
X109868000Y-118861651D01*
X106813000Y-119501651D02*
X111387000Y-119501651D01*
X110140000Y-121741651D02*
X113014000Y-121741651D01*
X110140000Y-121421651D02*
X112905000Y-121421651D01*
X105090000Y-122141651D02*
X108060000Y-122141651D01*
X105124000Y-121981651D02*
X108060000Y-121981651D01*
X106872000Y-119461651D02*
X111328000Y-119461651D01*
X107210000Y-119261651D02*
X110990000Y-119261651D01*
X105326000Y-121341651D02*
X108060000Y-121341651D01*
X106359000Y-119861651D02*
X111841000Y-119861651D01*
X110140000Y-121501651D02*
X112935000Y-121501651D01*
X110140000Y-120141651D02*
X112119000Y-120141651D01*
X107136000Y-119301651D02*
X111064000Y-119301651D01*
X106385000Y-126912349D02*
X107185000Y-126912349D01*
X110140000Y-120261651D02*
X112224000Y-120261651D01*
X106449000Y-119781651D02*
X111751000Y-119781651D01*
X110140000Y-122061651D02*
X113094000Y-122061651D01*
X105198000Y-121701651D02*
X108060000Y-121701651D01*
X110140000Y-121941651D02*
X113067000Y-121941651D01*
X105656000Y-120701651D02*
X108060000Y-120701651D01*
X105265000Y-121501651D02*
X108060000Y-121501651D01*
X105607000Y-120781651D02*
X108060000Y-120781651D01*
X110140000Y-120941651D02*
X112684000Y-120941651D01*
X105414000Y-121141651D02*
X108060000Y-121141651D01*
X107548000Y-119101651D02*
X110652000Y-119101651D01*
X105143000Y-121901651D02*
X108060000Y-121901651D01*
X105944000Y-120301651D02*
X108060000Y-120301651D01*
X106155000Y-120061651D02*
X112045000Y-120061651D01*
X106544000Y-119701651D02*
X111656000Y-119701651D01*
X105133000Y-121941651D02*
X108060000Y-121941651D01*
X110140000Y-122021651D02*
X113085000Y-122021651D01*
X105708000Y-120621651D02*
X108060000Y-120621651D01*
X110140000Y-122141651D02*
X113110000Y-122141651D01*
X110140000Y-120221651D02*
X112190000Y-120221651D01*
X110140000Y-120821651D02*
X112617000Y-120821651D01*
X105020000Y-122822651D02*
X113180000Y-122822651D01*
X105762000Y-120541651D02*
X108060000Y-120541651D01*
X105735000Y-120581651D02*
X108060000Y-120581651D01*
X108002000Y-118941651D02*
X110198000Y-118941651D01*
X110140000Y-120461651D02*
X112380000Y-120461651D01*
X105076000Y-122222651D02*
X113124000Y-122222651D01*
X105279000Y-121461651D02*
X108060000Y-121461651D01*
X105453000Y-121061651D02*
X108060000Y-121061651D01*
X106081000Y-120141651D02*
X108060000Y-120141651D01*
X110140000Y-120501651D02*
X112409000Y-120501651D01*
X105434000Y-121101651D02*
X108060000Y-121101651D01*
X110140000Y-120621651D02*
X112492000Y-120621651D01*
X110140000Y-121661651D02*
X112989000Y-121661651D01*
X105378000Y-121221651D02*
X108060000Y-121221651D01*
X105024000Y-122702651D02*
X113176000Y-122702651D01*
X106403000Y-119821651D02*
X111797000Y-119821651D01*
X107287000Y-119221651D02*
X110913000Y-119221651D01*
X110140000Y-120661651D02*
X112518000Y-120661651D01*
X105026000Y-122662651D02*
X113174000Y-122662651D01*
X106934000Y-119421651D02*
X111266000Y-119421651D01*
X105494000Y-120981651D02*
X108060000Y-120981651D01*
X105911000Y-120341651D02*
X108060000Y-120341651D01*
X105631000Y-120741651D02*
X108060000Y-120741651D01*
X105153000Y-121861651D02*
X108060000Y-121861651D01*
X110140000Y-120901651D02*
X112662000Y-120901651D01*
X105310000Y-121381651D02*
X108060000Y-121381651D01*
X107647000Y-119061651D02*
X110553000Y-119061651D01*
X107455000Y-119141651D02*
X110745000Y-119141651D01*
X110140000Y-121621651D02*
X112977000Y-121621651D01*
X106496000Y-119741651D02*
X111704000Y-119741651D01*
X110140000Y-121781651D02*
X113025000Y-121781651D01*
X110140000Y-120181651D02*
X112155000Y-120181651D01*
X110140000Y-121061651D02*
X112747000Y-121061651D01*
X110140000Y-120341651D02*
X112289000Y-120341651D01*
X105976000Y-120261651D02*
X108060000Y-120261651D01*
X105035000Y-122542651D02*
X113165000Y-122542651D01*
X105043000Y-122462651D02*
X113157000Y-122462651D01*
X105058000Y-122342651D02*
X113142000Y-122342651D01*
X110140000Y-120861651D02*
X112640000Y-120861651D01*
X110140000Y-120421651D02*
X112350000Y-120421651D01*
X110140000Y-121581651D02*
X112963000Y-121581651D01*
X106193000Y-120021651D02*
X112007000Y-120021651D01*
X105295000Y-121421651D02*
X108060000Y-121421651D01*
X105106000Y-122061651D02*
X108060000Y-122061651D01*
X105020000Y-122902651D02*
X113180000Y-122902651D01*
X110140000Y-120581651D02*
X112465000Y-120581651D01*
X110140000Y-121381651D02*
X112890000Y-121381651D01*
X105538000Y-120901651D02*
X108060000Y-120901651D01*
X106274000Y-119941651D02*
X111926000Y-119941651D01*
X105029000Y-122622651D02*
X113171000Y-122622651D01*
X110140000Y-121261651D02*
X112840000Y-121261651D01*
X107369000Y-119181651D02*
X110831000Y-119181651D01*
X106117000Y-120101651D02*
X112083000Y-120101651D01*
X110140000Y-121901651D02*
X113057000Y-121901651D01*
X105820000Y-120461651D02*
X108060000Y-120461651D01*
X105070000Y-122262651D02*
X113130000Y-122262651D01*
X105186000Y-121741651D02*
X108060000Y-121741651D01*
X105032000Y-122582651D02*
X113168000Y-122582651D01*
X110140000Y-120981651D02*
X112706000Y-120981651D01*
X110140000Y-121141651D02*
X112786000Y-121141651D01*
X110140000Y-121021651D02*
X112727000Y-121021651D01*
X106233000Y-119981651D02*
X111967000Y-119981651D01*
X110140000Y-122181651D02*
X113117000Y-122181651D01*
X110140000Y-121861651D02*
X113047000Y-121861651D01*
X113220000Y-122902651D02*
G75*
G03*
X113220000Y-122902651I-4120000J0D01*
G01*
X75440000Y-116400000D02*
X75440000Y-115750000D01*
X78560000Y-116400000D02*
X78560000Y-114725000D01*
X75440000Y-116400000D02*
X75440000Y-117050000D01*
X78560000Y-116400000D02*
X78560000Y-117050000D01*
%LPC*%
D13*
X96000000Y-89500000D03*
X98500000Y-89500000D03*
D14*
X47000000Y-121325000D03*
D15*
X44500000Y-121325000D03*
X42000000Y-121325000D03*
X39500000Y-121325000D03*
D13*
X96000000Y-86500000D03*
X98500000Y-86500000D03*
D16*
X69950000Y-121750000D03*
X69950000Y-124250000D03*
X51450000Y-106750000D03*
X51450000Y-109250000D03*
D17*
X80662500Y-61850000D03*
X80662500Y-63750000D03*
X82537500Y-62800000D03*
D18*
X64000000Y-124000000D03*
D19*
X64000000Y-121500000D03*
D13*
X83750000Y-83550000D03*
X86250000Y-83550000D03*
D20*
X37796560Y-78200000D03*
D21*
X40336560Y-78200000D03*
X42876560Y-78200000D03*
X45416560Y-78200000D03*
X47956560Y-78200000D03*
X50496560Y-78200000D03*
X53036560Y-78200000D03*
X55576560Y-78200000D03*
X58116560Y-78200000D03*
X60656560Y-78200000D03*
X63196560Y-78200000D03*
X65736560Y-78200000D03*
X68276560Y-78200000D03*
X70816560Y-78200000D03*
X73356560Y-78200000D03*
X75896560Y-78200000D03*
X78436560Y-78200000D03*
X80976560Y-78200000D03*
X83516560Y-78200000D03*
X83513840Y-52803680D03*
X80973840Y-52803680D03*
X78436560Y-52800000D03*
X75896560Y-52800000D03*
X73356560Y-52800000D03*
X70816560Y-52800000D03*
X68276560Y-52800000D03*
X65736560Y-52800000D03*
X63196560Y-52800000D03*
X60656560Y-52800000D03*
X58116560Y-52800000D03*
X55576560Y-52800000D03*
X53036560Y-52800000D03*
X50496560Y-52800000D03*
X47956560Y-52800000D03*
X45416560Y-52800000D03*
X42876560Y-52800000D03*
X40336560Y-52800000D03*
X37796560Y-52800000D03*
D22*
X118900000Y-115780000D03*
D23*
X123980000Y-100540000D03*
D22*
X118900000Y-100540000D03*
D23*
X123980000Y-115780000D03*
X126520000Y-100540000D03*
X121440000Y-115780000D03*
X126520000Y-115780000D03*
X121440000Y-100540000D03*
D22*
X96040000Y-115780000D03*
D23*
X98580000Y-115780000D03*
X101120000Y-115780000D03*
D24*
X48937500Y-96550000D03*
X48937500Y-94650000D03*
X47062500Y-95600000D03*
D25*
X64675000Y-93300000D03*
D26*
X64675000Y-90800000D03*
X64675000Y-88300000D03*
D27*
X115650000Y-124650000D03*
D28*
X121950000Y-124650000D03*
D29*
X118550000Y-119850000D03*
D18*
X88675000Y-56450000D03*
D19*
X88675000Y-53950000D03*
D30*
X64950000Y-115462500D03*
X63050000Y-115462500D03*
X64000000Y-117337500D03*
D31*
X80250000Y-97550000D03*
X77750000Y-97550000D03*
D25*
X57450000Y-93300000D03*
D26*
X57450000Y-90800000D03*
X57450000Y-88300000D03*
D32*
X33000000Y-53000000D03*
D31*
X99250000Y-59950000D03*
X96750000Y-59950000D03*
D16*
X51450000Y-118750000D03*
X51450000Y-121250000D03*
D18*
X41000000Y-86450000D03*
D19*
X41000000Y-83950000D03*
D33*
X101550000Y-124250000D03*
X101550000Y-121750000D03*
D13*
X96000000Y-112550000D03*
X98500000Y-112550000D03*
D17*
X80662500Y-57650000D03*
X80662500Y-59550000D03*
X82537500Y-58600000D03*
D18*
X41000000Y-97650000D03*
D19*
X41000000Y-95150000D03*
D25*
X79275000Y-93300000D03*
D26*
X79275000Y-90800000D03*
X79275000Y-88300000D03*
D31*
X66300000Y-97750000D03*
X63800000Y-97750000D03*
D18*
X88675000Y-65050000D03*
D19*
X88675000Y-62550000D03*
D16*
X82950000Y-121750000D03*
X82950000Y-124250000D03*
D31*
X39550000Y-102150000D03*
X37050000Y-102150000D03*
D33*
X98000000Y-124250000D03*
X98000000Y-121750000D03*
D31*
X59300000Y-97750000D03*
X56800000Y-97750000D03*
X39550000Y-90850000D03*
X37050000Y-90850000D03*
D23*
X123980000Y-77540000D03*
X123980000Y-92780000D03*
D22*
X118900000Y-92780000D03*
X118900000Y-77540000D03*
D23*
X121440000Y-77540000D03*
X121440000Y-92780000D03*
X126520000Y-77540000D03*
X126520000Y-92780000D03*
D22*
X96040000Y-92780000D03*
D23*
X98580000Y-92780000D03*
X101120000Y-92780000D03*
D18*
X77000000Y-124000000D03*
D19*
X77000000Y-121500000D03*
D13*
X96000000Y-109550000D03*
X98500000Y-109550000D03*
D16*
X51450000Y-112750000D03*
X51450000Y-115250000D03*
D31*
X73250000Y-97550000D03*
X70750000Y-97550000D03*
D25*
X71875000Y-93300000D03*
D26*
X71875000Y-90800000D03*
X71875000Y-88300000D03*
D32*
X113000000Y-55000000D03*
D13*
X83750000Y-81050000D03*
X86250000Y-81050000D03*
D24*
X48937500Y-86550000D03*
X48937500Y-84650000D03*
X47062500Y-85600000D03*
D31*
X99250000Y-65950000D03*
X96750000Y-65950000D03*
D23*
X123980000Y-69780000D03*
D22*
X118900000Y-69780000D03*
X118900000Y-54540000D03*
D23*
X123980000Y-54540000D03*
X126520000Y-54540000D03*
X121440000Y-69780000D03*
X121440000Y-54540000D03*
X126520000Y-69780000D03*
D22*
X96040000Y-69780000D03*
D23*
X98580000Y-69780000D03*
X101120000Y-69780000D03*
D14*
X47000000Y-107325000D03*
D15*
X44500000Y-107325000D03*
X42000000Y-107325000D03*
X39500000Y-107325000D03*
D14*
X47000000Y-114325000D03*
D15*
X44500000Y-114325000D03*
X42000000Y-114325000D03*
X39500000Y-114325000D03*
D34*
X109100000Y-124652651D03*
D35*
X109100000Y-121152651D03*
D32*
X113000000Y-111000000D03*
D30*
X77950000Y-115462500D03*
X76050000Y-115462500D03*
X77000000Y-117337500D03*
D32*
X33000000Y-127000000D03*
M02*
