M48
; DRILL file {KiCad (6.0.8)} date Sun Jan  8 14:39:52 2023
; FORMAT={-:-/ absolute / metric / decimal}
; #@! TF.CreationDate,2023-01-08T14:39:52+01:00
; #@! TF.GenerationSoftware,Kicad,Pcbnew,(6.0.8)
; #@! TF.FileFunction,Plated,1,4,PTH
FMAT,2
METRIC
; #@! TA.AperFunction,Plated,PTH,ViaDrill
T1C0.400
; #@! TA.AperFunction,Plated,PTH,ComponentDrill
T2C0.800
; #@! TA.AperFunction,Plated,PTH,ComponentDrill
T3C0.950
; #@! TA.AperFunction,Plated,PTH,ComponentDrill
T4C1.000
; #@! TA.AperFunction,Plated,PTH,ComponentDrill
T5C2.500
%
G90
G05
T1
X41.5Y-89.9
X42.5Y-91.9
X44.0Y-89.9
X45.0Y-91.9
X45.5Y-99.5
X46.0Y-80.8
X46.0Y-82.3
X46.5Y-89.9
X47.5Y-91.9
X47.5Y-99.5
X49.0Y-89.9
X49.5Y-99.5
X50.0Y-91.9
X50.9Y-94.6
X51.1Y-88.4
X51.5Y-99.5
X52.4Y-104.0
X53.5Y-99.5
X54.0Y-57.4
X54.4Y-59.8
X54.8Y-84.8
X54.8Y-86.5
X54.8Y-88.1
X54.8Y-104.0
X55.1Y-80.5
X56.0Y-59.0
X56.0Y-106.0
X56.0Y-109.0
X56.0Y-112.0
X56.0Y-115.0
X56.0Y-118.0
X56.0Y-121.0
X56.3Y-81.8
X56.4Y-61.8
X57.6Y-83.0
X58.0Y-59.0
X58.0Y-63.2
X58.0Y-104.0
X58.7Y-80.9
X58.8Y-84.5
X59.9Y-82.1
X60.0Y-58.6
X61.1Y-83.3
X61.2Y-80.2
X61.4Y-104.0
X61.8Y-60.2
X62.0Y-81.0
X62.4Y-84.5
X62.9Y-81.9
X63.0Y-113.5
X63.8Y-61.8
X64.4Y-82.7
X64.6Y-104.0
X65.0Y-114.0
X65.8Y-82.7
X66.0Y-64.0
X67.0Y-59.0
X67.0Y-61.0
X67.0Y-112.8
X67.2Y-110.6
X67.3Y-82.7
X67.8Y-104.0
X68.4Y-108.8
X68.7Y-82.7
X69.0Y-59.0
X69.0Y-67.0
X70.2Y-82.7
X70.6Y-108.8
X70.8Y-104.0
X71.0Y-59.0
X71.0Y-69.0
X72.5Y-59.0
X72.5Y-61.0
X73.0Y-81.6
X73.0Y-108.8
X73.5Y-63.0
X73.8Y-104.0
X74.6Y-83.2
X75.6Y-99.2
X75.8Y-108.8
X75.8Y-113.6
X76.0Y-65.2
X76.0Y-111.0
X76.2Y-84.8
X76.6Y-104.0
X77.8Y-59.6
X77.8Y-65.2
X78.0Y-114.0
X78.4Y-108.8
X79.0Y-59.6
X79.2Y-104.0
X79.5Y-114.0
X79.6Y-65.2
X80.5Y-112.5
X81.4Y-65.2
X82.0Y-111.2
X83.0Y-65.2
X83.0Y-97.5
X84.0Y-104.0
X84.5Y-96.0
X85.2Y-111.2
X85.5Y-85.5
X86.0Y-87.5
X86.0Y-90.5
X86.0Y-93.0
X86.0Y-102.0
X87.8Y-109.4
X88.0Y-100.0
X90.0Y-107.4
X91.0Y-96.7
X91.5Y-74.5
X91.5Y-77.0
X91.5Y-80.5
X91.5Y-84.5
X91.5Y-88.5
X91.5Y-92.5
X92.2Y-105.0
X96.0Y-84.5
X96.0Y-107.5
X117.0Y-118.0
X119.0Y-52.0
X119.0Y-117.9
X119.0Y-128.5
X121.5Y-52.0
X121.5Y-128.5
X122.0Y-118.0
X124.0Y-52.0
X124.0Y-128.5
X126.0Y-121.5
X126.0Y-123.5
X126.0Y-125.5
X126.0Y-128.0
X126.5Y-52.0
T2
X37.797Y-52.8
X37.797Y-78.2
X40.337Y-52.8
X40.337Y-78.2
X42.877Y-52.8
X42.877Y-78.2
X45.417Y-52.8
X45.417Y-78.2
X47.957Y-52.8
X47.957Y-78.2
X50.497Y-52.8
X50.497Y-78.2
X53.037Y-52.8
X53.037Y-78.2
X55.577Y-52.8
X55.577Y-78.2
X58.117Y-52.8
X58.117Y-78.2
X60.657Y-52.8
X60.657Y-78.2
X63.197Y-52.8
X63.197Y-78.2
X65.737Y-52.8
X65.737Y-78.2
X68.277Y-52.8
X68.277Y-78.2
X70.817Y-52.8
X70.817Y-78.2
X73.357Y-52.8
X73.357Y-78.2
X75.897Y-52.8
X75.897Y-78.2
X78.437Y-52.8
X78.437Y-78.2
X80.974Y-52.804
X80.977Y-78.2
X83.514Y-52.804
X83.517Y-78.2
X109.1Y-121.153
X109.1Y-124.653
T3
X39.5Y-107.325
X39.5Y-114.325
X39.5Y-121.325
X42.0Y-107.325
X42.0Y-114.325
X42.0Y-121.325
X44.5Y-107.325
X44.5Y-114.325
X44.5Y-121.325
X47.0Y-107.325
X47.0Y-114.325
X47.0Y-121.325
X57.45Y-88.3
X57.45Y-90.8
X57.45Y-93.3
X64.675Y-88.3
X64.675Y-90.8
X64.675Y-93.3
X71.875Y-88.3
X71.875Y-90.8
X71.875Y-93.3
X79.275Y-88.3
X79.275Y-90.8
X79.275Y-93.3
T4
X41.0Y-83.95
X41.0Y-86.45
X41.0Y-95.15
X41.0Y-97.65
X64.0Y-121.5
X64.0Y-124.0
X77.0Y-121.5
X77.0Y-124.0
X88.675Y-53.95
X88.675Y-56.45
X88.675Y-62.55
X88.675Y-65.05
X96.04Y-69.78
X96.04Y-92.78
X96.04Y-115.78
X98.58Y-69.78
X98.58Y-92.78
X98.58Y-115.78
X101.12Y-69.78
X101.12Y-92.78
X101.12Y-115.78
X118.9Y-54.54
X118.9Y-69.78
X118.9Y-77.54
X118.9Y-92.78
X118.9Y-100.54
X118.9Y-115.78
X121.44Y-54.54
X121.44Y-69.78
X121.44Y-77.54
X121.44Y-92.78
X121.44Y-100.54
X121.44Y-115.78
X123.98Y-54.54
X123.98Y-69.78
X123.98Y-77.54
X123.98Y-92.78
X123.98Y-100.54
X123.98Y-115.78
X126.52Y-54.54
X126.52Y-69.78
X126.52Y-77.54
X126.52Y-92.78
X126.52Y-100.54
X126.52Y-115.78
T5
X33.0Y-53.0
X33.0Y-127.0
X113.0Y-55.0
X113.0Y-111.0
T4
X115.65Y-125.95G85X115.65Y-123.35
G05
X117.45Y-119.85G85X119.65Y-119.85
G05
X121.95Y-125.75G85X121.95Y-123.55
G05
T0
M30
