%TF.GenerationSoftware,KiCad,Pcbnew,(6.0.8)*%
%TF.CreationDate,2023-01-08T14:39:54+01:00*%
%TF.ProjectId,MainPCB-Rev2,4d61696e-5043-4422-9d52-6576322e6b69,rev?*%
%TF.SameCoordinates,Original*%
%TF.FileFunction,Drillmap*%
%TF.FilePolarity,Positive*%
%FSLAX45Y45*%
G04 Gerber Fmt 4.5, Leading zero omitted, Abs format (unit mm)*
G04 Created by KiCad (PCBNEW (6.0.8)) date 2023-01-08 14:39:54*
%MOMM*%
%LPD*%
G01*
G04 APERTURE LIST*
%ADD10C,0.100000*%
%ADD11C,0.200000*%
G04 APERTURE END LIST*
D10*
X3000000Y-5000000D02*
X13000000Y-5000000D01*
X13000000Y-5000000D02*
X13000000Y-13000000D01*
X13000000Y-13000000D02*
X3000000Y-13000000D01*
X3000000Y-13000000D02*
X3000000Y-5000000D01*
D11*
X3252619Y-13315476D02*
X3252619Y-13115476D01*
X3300238Y-13115476D01*
X3328809Y-13125000D01*
X3347857Y-13144048D01*
X3357381Y-13163095D01*
X3366905Y-13201190D01*
X3366905Y-13229762D01*
X3357381Y-13267857D01*
X3347857Y-13286905D01*
X3328809Y-13305952D01*
X3300238Y-13315476D01*
X3252619Y-13315476D01*
X3452619Y-13315476D02*
X3452619Y-13182143D01*
X3452619Y-13220238D02*
X3462143Y-13201190D01*
X3471667Y-13191667D01*
X3490714Y-13182143D01*
X3509762Y-13182143D01*
X3576428Y-13315476D02*
X3576428Y-13182143D01*
X3576428Y-13115476D02*
X3566905Y-13125000D01*
X3576428Y-13134524D01*
X3585952Y-13125000D01*
X3576428Y-13115476D01*
X3576428Y-13134524D01*
X3700238Y-13315476D02*
X3681190Y-13305952D01*
X3671667Y-13286905D01*
X3671667Y-13115476D01*
X3805000Y-13315476D02*
X3785952Y-13305952D01*
X3776428Y-13286905D01*
X3776428Y-13115476D01*
X4033571Y-13315476D02*
X4033571Y-13115476D01*
X4100238Y-13258333D01*
X4166905Y-13115476D01*
X4166905Y-13315476D01*
X4347857Y-13315476D02*
X4347857Y-13210714D01*
X4338333Y-13191667D01*
X4319286Y-13182143D01*
X4281190Y-13182143D01*
X4262143Y-13191667D01*
X4347857Y-13305952D02*
X4328810Y-13315476D01*
X4281190Y-13315476D01*
X4262143Y-13305952D01*
X4252619Y-13286905D01*
X4252619Y-13267857D01*
X4262143Y-13248809D01*
X4281190Y-13239286D01*
X4328810Y-13239286D01*
X4347857Y-13229762D01*
X4443095Y-13182143D02*
X4443095Y-13382143D01*
X4443095Y-13191667D02*
X4462143Y-13182143D01*
X4500238Y-13182143D01*
X4519286Y-13191667D01*
X4528810Y-13201190D01*
X4538333Y-13220238D01*
X4538333Y-13277381D01*
X4528810Y-13296428D01*
X4519286Y-13305952D01*
X4500238Y-13315476D01*
X4462143Y-13315476D01*
X4443095Y-13305952D01*
X4624048Y-13296428D02*
X4633571Y-13305952D01*
X4624048Y-13315476D01*
X4614524Y-13305952D01*
X4624048Y-13296428D01*
X4624048Y-13315476D01*
X4624048Y-13191667D02*
X4633571Y-13201190D01*
X4624048Y-13210714D01*
X4614524Y-13201190D01*
X4624048Y-13191667D01*
X4624048Y-13210714D01*
M02*
