%TF.GenerationSoftware,KiCad,Pcbnew,(6.0.8)*%
%TF.CreationDate,2023-01-08T14:39:41+01:00*%
%TF.ProjectId,MainPCB-Rev2,4d61696e-5043-4422-9d52-6576322e6b69,rev?*%
%TF.SameCoordinates,Original*%
%TF.FileFunction,Legend,Bot*%
%TF.FilePolarity,Positive*%
%FSLAX46Y46*%
G04 Gerber Fmt 4.6, Leading zero omitted, Abs format (unit mm)*
G04 Created by KiCad (PCBNEW (6.0.8)) date 2023-01-08 14:39:41*
%MOMM*%
%LPD*%
G01*
G04 APERTURE LIST*
G04 Aperture macros list*
%AMRoundRect*
0 Rectangle with rounded corners*
0 $1 Rounding radius*
0 $2 $3 $4 $5 $6 $7 $8 $9 X,Y pos of 4 corners*
0 Add a 4 corners polygon primitive as box body*
4,1,4,$2,$3,$4,$5,$6,$7,$8,$9,$2,$3,0*
0 Add four circle primitives for the rounded corners*
1,1,$1+$1,$2,$3*
1,1,$1+$1,$4,$5*
1,1,$1+$1,$6,$7*
1,1,$1+$1,$8,$9*
0 Add four rect primitives between the rounded corners*
20,1,$1+$1,$2,$3,$4,$5,0*
20,1,$1+$1,$4,$5,$6,$7,0*
20,1,$1+$1,$6,$7,$8,$9,0*
20,1,$1+$1,$8,$9,$2,$3,0*%
G04 Aperture macros list end*
%ADD10C,0.150000*%
%ADD11RoundRect,0.250000X0.600000X0.725000X-0.600000X0.725000X-0.600000X-0.725000X0.600000X-0.725000X0*%
%ADD12O,1.700000X1.950000*%
%ADD13RoundRect,0.250000X0.750000X-0.600000X0.750000X0.600000X-0.750000X0.600000X-0.750000X-0.600000X0*%
%ADD14O,2.000000X1.700000*%
%ADD15R,1.200000X2.000000*%
%ADD16O,1.200000X2.000000*%
%ADD17R,1.700000X1.700000*%
%ADD18O,1.700000X1.700000*%
%ADD19RoundRect,0.250000X0.725000X-0.600000X0.725000X0.600000X-0.725000X0.600000X-0.725000X-0.600000X0*%
%ADD20O,1.950000X1.700000*%
%ADD21R,2.000000X4.600000*%
%ADD22O,2.000000X4.200000*%
%ADD23O,4.200000X2.000000*%
%ADD24C,5.000000*%
%ADD25R,1.600000X1.600000*%
%ADD26C,1.600000*%
G04 APERTURE END LIST*
D10*
X127642857Y-64092619D02*
X127595238Y-64045000D01*
X127500000Y-63997380D01*
X127261904Y-63997380D01*
X127166666Y-64045000D01*
X127119047Y-64092619D01*
X127071428Y-64187857D01*
X127071428Y-64283095D01*
X127119047Y-64425952D01*
X127690476Y-64997380D01*
X127071428Y-64997380D01*
X126690476Y-64092619D02*
X126642857Y-64045000D01*
X126547619Y-63997380D01*
X126309523Y-63997380D01*
X126214285Y-64045000D01*
X126166666Y-64092619D01*
X126119047Y-64187857D01*
X126119047Y-64283095D01*
X126166666Y-64425952D01*
X126738095Y-64997380D01*
X126119047Y-64997380D01*
X124976190Y-63949761D02*
X125833333Y-65235476D01*
X124690476Y-64092619D02*
X124642857Y-64045000D01*
X124547619Y-63997380D01*
X124309523Y-63997380D01*
X124214285Y-64045000D01*
X124166666Y-64092619D01*
X124119047Y-64187857D01*
X124119047Y-64283095D01*
X124166666Y-64425952D01*
X124738095Y-64997380D01*
X124119047Y-64997380D01*
X123785714Y-63997380D02*
X123166666Y-63997380D01*
X123500000Y-64378333D01*
X123357142Y-64378333D01*
X123261904Y-64425952D01*
X123214285Y-64473571D01*
X123166666Y-64568809D01*
X123166666Y-64806904D01*
X123214285Y-64902142D01*
X123261904Y-64949761D01*
X123357142Y-64997380D01*
X123642857Y-64997380D01*
X123738095Y-64949761D01*
X123785714Y-64902142D01*
X121261904Y-63949761D02*
X122119047Y-65235476D01*
X120785714Y-64997380D02*
X120880952Y-64949761D01*
X120928571Y-64902142D01*
X120976190Y-64806904D01*
X120976190Y-64521190D01*
X120928571Y-64425952D01*
X120880952Y-64378333D01*
X120785714Y-64330714D01*
X120642857Y-64330714D01*
X120547619Y-64378333D01*
X120500000Y-64425952D01*
X120452380Y-64521190D01*
X120452380Y-64806904D01*
X120500000Y-64902142D01*
X120547619Y-64949761D01*
X120642857Y-64997380D01*
X120785714Y-64997380D01*
X120023809Y-64997380D02*
X120023809Y-63997380D01*
X119928571Y-64616428D02*
X119642857Y-64997380D01*
X119642857Y-64330714D02*
X120023809Y-64711666D01*
X119214285Y-64616428D02*
X118452380Y-64616428D01*
X117976190Y-64997380D02*
X117976190Y-63997380D01*
X117976190Y-64378333D02*
X117880952Y-64330714D01*
X117690476Y-64330714D01*
X117595238Y-64378333D01*
X117547619Y-64425952D01*
X117500000Y-64521190D01*
X117500000Y-64806904D01*
X117547619Y-64902142D01*
X117595238Y-64949761D01*
X117690476Y-64997380D01*
X117880952Y-64997380D01*
X117976190Y-64949761D01*
X116928571Y-64997380D02*
X117023809Y-64949761D01*
X117071428Y-64854523D01*
X117071428Y-63997380D01*
X116404761Y-64997380D02*
X116500000Y-64949761D01*
X116547619Y-64902142D01*
X116595238Y-64806904D01*
X116595238Y-64521190D01*
X116547619Y-64425952D01*
X116500000Y-64378333D01*
X116404761Y-64330714D01*
X116261904Y-64330714D01*
X116166666Y-64378333D01*
X116119047Y-64425952D01*
X116071428Y-64521190D01*
X116071428Y-64806904D01*
X116119047Y-64902142D01*
X116166666Y-64949761D01*
X116261904Y-64997380D01*
X116404761Y-64997380D01*
X115500000Y-64997380D02*
X115595238Y-64949761D01*
X115642857Y-64902142D01*
X115690476Y-64806904D01*
X115690476Y-64521190D01*
X115642857Y-64425952D01*
X115595238Y-64378333D01*
X115500000Y-64330714D01*
X115357142Y-64330714D01*
X115261904Y-64378333D01*
X115214285Y-64425952D01*
X115166666Y-64521190D01*
X115166666Y-64806904D01*
X115214285Y-64902142D01*
X115261904Y-64949761D01*
X115357142Y-64997380D01*
X115500000Y-64997380D01*
X114738095Y-64997380D02*
X114738095Y-64330714D01*
X114738095Y-64425952D02*
X114690476Y-64378333D01*
X114595238Y-64330714D01*
X114452380Y-64330714D01*
X114357142Y-64378333D01*
X114309523Y-64473571D01*
X114309523Y-64997380D01*
X114309523Y-64473571D02*
X114261904Y-64378333D01*
X114166666Y-64330714D01*
X114023809Y-64330714D01*
X113928571Y-64378333D01*
X113880952Y-64473571D01*
X113880952Y-64997380D01*
X113023809Y-64949761D02*
X113119047Y-64997380D01*
X113309523Y-64997380D01*
X113404761Y-64949761D01*
X113452380Y-64854523D01*
X113452380Y-64473571D01*
X113404761Y-64378333D01*
X113309523Y-64330714D01*
X113119047Y-64330714D01*
X113023809Y-64378333D01*
X112976190Y-64473571D01*
X112976190Y-64568809D01*
X113452380Y-64664047D01*
X112547619Y-64997380D02*
X112547619Y-64330714D01*
X112547619Y-64521190D02*
X112500000Y-64425952D01*
X112452380Y-64378333D01*
X112357142Y-64330714D01*
X112261904Y-64330714D01*
X127714285Y-66952380D02*
X127714285Y-65952380D01*
X127380952Y-66666666D01*
X127047619Y-65952380D01*
X127047619Y-66952380D01*
X126142857Y-66952380D02*
X126142857Y-66428571D01*
X126190476Y-66333333D01*
X126285714Y-66285714D01*
X126476190Y-66285714D01*
X126571428Y-66333333D01*
X126142857Y-66904761D02*
X126238095Y-66952380D01*
X126476190Y-66952380D01*
X126571428Y-66904761D01*
X126619047Y-66809523D01*
X126619047Y-66714285D01*
X126571428Y-66619047D01*
X126476190Y-66571428D01*
X126238095Y-66571428D01*
X126142857Y-66523809D01*
X125666666Y-66952380D02*
X125666666Y-66285714D01*
X125666666Y-65952380D02*
X125714285Y-66000000D01*
X125666666Y-66047619D01*
X125619047Y-66000000D01*
X125666666Y-65952380D01*
X125666666Y-66047619D01*
X125190476Y-66285714D02*
X125190476Y-66952380D01*
X125190476Y-66380952D02*
X125142857Y-66333333D01*
X125047619Y-66285714D01*
X124904761Y-66285714D01*
X124809523Y-66333333D01*
X124761904Y-66428571D01*
X124761904Y-66952380D01*
X124285714Y-66952380D02*
X124285714Y-65952380D01*
X123904761Y-65952380D01*
X123809523Y-66000000D01*
X123761904Y-66047619D01*
X123714285Y-66142857D01*
X123714285Y-66285714D01*
X123761904Y-66380952D01*
X123809523Y-66428571D01*
X123904761Y-66476190D01*
X124285714Y-66476190D01*
X122714285Y-66857142D02*
X122761904Y-66904761D01*
X122904761Y-66952380D01*
X123000000Y-66952380D01*
X123142857Y-66904761D01*
X123238095Y-66809523D01*
X123285714Y-66714285D01*
X123333333Y-66523809D01*
X123333333Y-66380952D01*
X123285714Y-66190476D01*
X123238095Y-66095238D01*
X123142857Y-66000000D01*
X123000000Y-65952380D01*
X122904761Y-65952380D01*
X122761904Y-66000000D01*
X122714285Y-66047619D01*
X121952380Y-66428571D02*
X121809523Y-66476190D01*
X121761904Y-66523809D01*
X121714285Y-66619047D01*
X121714285Y-66761904D01*
X121761904Y-66857142D01*
X121809523Y-66904761D01*
X121904761Y-66952380D01*
X122285714Y-66952380D01*
X122285714Y-65952380D01*
X121952380Y-65952380D01*
X121857142Y-66000000D01*
X121809523Y-66047619D01*
X121761904Y-66142857D01*
X121761904Y-66238095D01*
X121809523Y-66333333D01*
X121857142Y-66380952D01*
X121952380Y-66428571D01*
X122285714Y-66428571D01*
X120523809Y-66571428D02*
X119761904Y-66571428D01*
X117952380Y-66952380D02*
X118285714Y-66476190D01*
X118523809Y-66952380D02*
X118523809Y-65952380D01*
X118142857Y-65952380D01*
X118047619Y-66000000D01*
X118000000Y-66047619D01*
X117952380Y-66142857D01*
X117952380Y-66285714D01*
X118000000Y-66380952D01*
X118047619Y-66428571D01*
X118142857Y-66476190D01*
X118523809Y-66476190D01*
X117523809Y-66428571D02*
X117190476Y-66428571D01*
X117047619Y-66952380D02*
X117523809Y-66952380D01*
X117523809Y-65952380D01*
X117047619Y-65952380D01*
X116761904Y-65952380D02*
X116428571Y-66952380D01*
X116095238Y-65952380D01*
X115238095Y-66952380D02*
X115809523Y-66952380D01*
X115523809Y-66952380D02*
X115523809Y-65952380D01*
X115619047Y-66095238D01*
X115714285Y-66190476D01*
X115809523Y-66238095D01*
G36*
X123546086Y-60676411D02*
G01*
X123622857Y-60676485D01*
X123688582Y-60676634D01*
X123744129Y-60676876D01*
X123790364Y-60677231D01*
X123828155Y-60677718D01*
X123858369Y-60678354D01*
X123881874Y-60679158D01*
X123899535Y-60680150D01*
X123912221Y-60681347D01*
X123920799Y-60682770D01*
X123926136Y-60684436D01*
X123929099Y-60686364D01*
X123930244Y-60688058D01*
X123931568Y-60691996D01*
X123932754Y-60698521D01*
X123933810Y-60708263D01*
X123934744Y-60721855D01*
X123935561Y-60739928D01*
X123936271Y-60763112D01*
X123936881Y-60792041D01*
X123937397Y-60827345D01*
X123937827Y-60869656D01*
X123938179Y-60919606D01*
X123938460Y-60977825D01*
X123938677Y-61044945D01*
X123938838Y-61121599D01*
X123938951Y-61208417D01*
X123939022Y-61306031D01*
X123939059Y-61415072D01*
X123939070Y-61536173D01*
X123939064Y-61632588D01*
X123939033Y-61744138D01*
X123938969Y-61844125D01*
X123938866Y-61933183D01*
X123938716Y-62011942D01*
X123938511Y-62081034D01*
X123938244Y-62141090D01*
X123937908Y-62192743D01*
X123937495Y-62236623D01*
X123936998Y-62273362D01*
X123936409Y-62303592D01*
X123935721Y-62327944D01*
X123934927Y-62347049D01*
X123934018Y-62361539D01*
X123932989Y-62372046D01*
X123931831Y-62379201D01*
X123930537Y-62383636D01*
X123929099Y-62385982D01*
X123926849Y-62387571D01*
X123922014Y-62389294D01*
X123914091Y-62390768D01*
X123902209Y-62392011D01*
X123885494Y-62393042D01*
X123863073Y-62393880D01*
X123834072Y-62394544D01*
X123797620Y-62395054D01*
X123752842Y-62395429D01*
X123698866Y-62395687D01*
X123634819Y-62395847D01*
X123559828Y-62395930D01*
X123473019Y-62395953D01*
X123456262Y-62395952D01*
X123372019Y-62395925D01*
X123299425Y-62395842D01*
X123237601Y-62395684D01*
X123185668Y-62395429D01*
X123142746Y-62395058D01*
X123107955Y-62394550D01*
X123080415Y-62393885D01*
X123059248Y-62393042D01*
X123043572Y-62392002D01*
X123032510Y-62390744D01*
X123025180Y-62389248D01*
X123020704Y-62387493D01*
X123018201Y-62385460D01*
X123017145Y-62383940D01*
X123014108Y-62375224D01*
X123011929Y-62359959D01*
X123010505Y-62336610D01*
X123009728Y-62303645D01*
X123009492Y-62259530D01*
X123009511Y-62245516D01*
X123009892Y-62204788D01*
X123010846Y-62174766D01*
X123012478Y-62153916D01*
X123014894Y-62140705D01*
X123018201Y-62133600D01*
X123019206Y-62132549D01*
X123022996Y-62130219D01*
X123029481Y-62128303D01*
X123039772Y-62126761D01*
X123054980Y-62125553D01*
X123076215Y-62124641D01*
X123104588Y-62123983D01*
X123141210Y-62123540D01*
X123187190Y-62123273D01*
X123243639Y-62123142D01*
X123311668Y-62123107D01*
X123596427Y-62123107D01*
X123596427Y-61634524D01*
X123372583Y-61634524D01*
X123331010Y-61634497D01*
X123278306Y-61634329D01*
X123236182Y-61633963D01*
X123203370Y-61633345D01*
X123178602Y-61632424D01*
X123160612Y-61631146D01*
X123148133Y-61629459D01*
X123139897Y-61627310D01*
X123134636Y-61624646D01*
X123133092Y-61623543D01*
X123128554Y-61619487D01*
X123125265Y-61613763D01*
X123123026Y-61604535D01*
X123121634Y-61589966D01*
X123120889Y-61568218D01*
X123120589Y-61537455D01*
X123120534Y-61495838D01*
X123120690Y-61460883D01*
X123121463Y-61422076D01*
X123122928Y-61394455D01*
X123125140Y-61377151D01*
X123128148Y-61369293D01*
X123128685Y-61368872D01*
X123135716Y-61366798D01*
X123150276Y-61365119D01*
X123173223Y-61363807D01*
X123205419Y-61362835D01*
X123247723Y-61362174D01*
X123300995Y-61361798D01*
X123366095Y-61361678D01*
X123596427Y-61361678D01*
X123596427Y-60949238D01*
X123089516Y-60949238D01*
X123073144Y-60934961D01*
X123071350Y-60933290D01*
X123064304Y-60924182D01*
X123057198Y-60910047D01*
X123049325Y-60889054D01*
X123039976Y-60859369D01*
X123028446Y-60819160D01*
X123018575Y-60783423D01*
X123009796Y-60750142D01*
X123004153Y-60725854D01*
X123001378Y-60708827D01*
X123001203Y-60697331D01*
X123003363Y-60689635D01*
X123007589Y-60684007D01*
X123009060Y-60683236D01*
X123016684Y-60681787D01*
X123031025Y-60680538D01*
X123052744Y-60679476D01*
X123082507Y-60678592D01*
X123120977Y-60677874D01*
X123168817Y-60677311D01*
X123226693Y-60676893D01*
X123295267Y-60676608D01*
X123375203Y-60676444D01*
X123467166Y-60676392D01*
X123546086Y-60676411D01*
G37*
G36*
X125537678Y-61044945D02*
G01*
X125537839Y-61121599D01*
X125537952Y-61208417D01*
X125538023Y-61306031D01*
X125538060Y-61415072D01*
X125538071Y-61536173D01*
X125538070Y-61574096D01*
X125538056Y-61691098D01*
X125538016Y-61796241D01*
X125537943Y-61890164D01*
X125537830Y-61973505D01*
X125537668Y-62046901D01*
X125537449Y-62110992D01*
X125537165Y-62166416D01*
X125536810Y-62213810D01*
X125536373Y-62253814D01*
X125535848Y-62287065D01*
X125535227Y-62314201D01*
X125534502Y-62335861D01*
X125533665Y-62352683D01*
X125532708Y-62365305D01*
X125531622Y-62374366D01*
X125530401Y-62380503D01*
X125529036Y-62384356D01*
X125527520Y-62386562D01*
X125525506Y-62388232D01*
X125520975Y-62390415D01*
X125513713Y-62392170D01*
X125502614Y-62393524D01*
X125486571Y-62394504D01*
X125464478Y-62395139D01*
X125435229Y-62395456D01*
X125397716Y-62395482D01*
X125350834Y-62395245D01*
X125293476Y-62394771D01*
X125224535Y-62394090D01*
X125222963Y-62394074D01*
X125150405Y-62393246D01*
X125089283Y-62392361D01*
X125038363Y-62391371D01*
X124996416Y-62390228D01*
X124962210Y-62388884D01*
X124934513Y-62387290D01*
X124912094Y-62385399D01*
X124893722Y-62383162D01*
X124878166Y-62380531D01*
X124874037Y-62379720D01*
X124824592Y-62369043D01*
X124783245Y-62357849D01*
X124745749Y-62344844D01*
X124707858Y-62328739D01*
X124655099Y-62300993D01*
X124594916Y-62258344D01*
X124542147Y-62207014D01*
X124496518Y-62146566D01*
X124457757Y-62076565D01*
X124425589Y-61996572D01*
X124399742Y-61906152D01*
X124379942Y-61804868D01*
X124379151Y-61799617D01*
X124374922Y-61762272D01*
X124371376Y-61715301D01*
X124368567Y-61661307D01*
X124366550Y-61602892D01*
X124365378Y-61542660D01*
X124365240Y-61512530D01*
X124724395Y-61512530D01*
X124724553Y-61566514D01*
X124725364Y-61618809D01*
X124726828Y-61666782D01*
X124728944Y-61707797D01*
X124731712Y-61739220D01*
X124742349Y-61810583D01*
X124758446Y-61881144D01*
X124779270Y-61941046D01*
X124805327Y-61991065D01*
X124837121Y-62031976D01*
X124875159Y-62064554D01*
X124919946Y-62089577D01*
X124971988Y-62107818D01*
X124974488Y-62108453D01*
X124996652Y-62112425D01*
X125027543Y-62116125D01*
X125063743Y-62119198D01*
X125101836Y-62121289D01*
X125195428Y-62124951D01*
X125195428Y-60947539D01*
X125098663Y-60951094D01*
X125073823Y-60952186D01*
X125018718Y-60956474D01*
X124973147Y-60963497D01*
X124934936Y-60973947D01*
X124901909Y-60988521D01*
X124871893Y-61007911D01*
X124842712Y-61032812D01*
X124839323Y-61036084D01*
X124808553Y-61073235D01*
X124782691Y-61119489D01*
X124761445Y-61175604D01*
X124744524Y-61242334D01*
X124731636Y-61320434D01*
X124730307Y-61332386D01*
X124727847Y-61366785D01*
X124726042Y-61410032D01*
X124724891Y-61459491D01*
X124724395Y-61512530D01*
X124365240Y-61512530D01*
X124365105Y-61483213D01*
X124365785Y-61427153D01*
X124367473Y-61377085D01*
X124370221Y-61335609D01*
X124372746Y-61309770D01*
X124387350Y-61204082D01*
X124408059Y-61109264D01*
X124435189Y-61024943D01*
X124469054Y-60950745D01*
X124509972Y-60886297D01*
X124558257Y-60831225D01*
X124614225Y-60785155D01*
X124678192Y-60747713D01*
X124750474Y-60718526D01*
X124831387Y-60697221D01*
X124921245Y-60683423D01*
X124922524Y-60683289D01*
X124945236Y-60681671D01*
X124978848Y-60680205D01*
X125021700Y-60678926D01*
X125072134Y-60677871D01*
X125128490Y-60677073D01*
X125189109Y-60676568D01*
X125252331Y-60676392D01*
X125300225Y-60676414D01*
X125357836Y-60676540D01*
X125404707Y-60676815D01*
X125441983Y-60677279D01*
X125470805Y-60677974D01*
X125492315Y-60678942D01*
X125507658Y-60680224D01*
X125517974Y-60681860D01*
X125524407Y-60683893D01*
X125528100Y-60686364D01*
X125529245Y-60688058D01*
X125530569Y-60691996D01*
X125531755Y-60698521D01*
X125532811Y-60708263D01*
X125533744Y-60721855D01*
X125534562Y-60739928D01*
X125535272Y-60763112D01*
X125535881Y-60792041D01*
X125536397Y-60827345D01*
X125536828Y-60869656D01*
X125537180Y-60919606D01*
X125537315Y-60947539D01*
X125537461Y-60977825D01*
X125537678Y-61044945D01*
G37*
G36*
X127940221Y-58693448D02*
G01*
X127947025Y-58697867D01*
X127966931Y-58714842D01*
X127982023Y-58733106D01*
X127996852Y-58756957D01*
X127996852Y-61000000D01*
X127996851Y-61156941D01*
X127996844Y-61348095D01*
X127996831Y-61527254D01*
X127996808Y-61694810D01*
X127996774Y-61851153D01*
X127996728Y-61996676D01*
X127996666Y-62131771D01*
X127996588Y-62256828D01*
X127996492Y-62372239D01*
X127996374Y-62478396D01*
X127996234Y-62575690D01*
X127996070Y-62664513D01*
X127995879Y-62745256D01*
X127995661Y-62818311D01*
X127995411Y-62884069D01*
X127995130Y-62942922D01*
X127994815Y-62995262D01*
X127994464Y-63041479D01*
X127994075Y-63081966D01*
X127993646Y-63117114D01*
X127993176Y-63147314D01*
X127992661Y-63172958D01*
X127992102Y-63194438D01*
X127991495Y-63212144D01*
X127990838Y-63226470D01*
X127990130Y-63237805D01*
X127989369Y-63246542D01*
X127988553Y-63253072D01*
X127987680Y-63257787D01*
X127986748Y-63261078D01*
X127985754Y-63263336D01*
X127981918Y-63269614D01*
X127961656Y-63292426D01*
X127935815Y-63311394D01*
X127909518Y-63322541D01*
X127903175Y-63322864D01*
X127884452Y-63323216D01*
X127853901Y-63323555D01*
X127811977Y-63323880D01*
X127759136Y-63324191D01*
X127695833Y-63324486D01*
X127622526Y-63324765D01*
X127539669Y-63325027D01*
X127447719Y-63325272D01*
X127347131Y-63325498D01*
X127238362Y-63325705D01*
X127121868Y-63325891D01*
X126998104Y-63326057D01*
X126867526Y-63326201D01*
X126730591Y-63326323D01*
X126587754Y-63326422D01*
X126439471Y-63326496D01*
X126286199Y-63326546D01*
X126128392Y-63326570D01*
X125966508Y-63326568D01*
X125801002Y-63326538D01*
X125632329Y-63326481D01*
X125436649Y-63326397D01*
X125247575Y-63326313D01*
X125070421Y-63326229D01*
X124904796Y-63326141D01*
X124750310Y-63326048D01*
X124606572Y-63325949D01*
X124473191Y-63325839D01*
X124349778Y-63325718D01*
X124235940Y-63325583D01*
X124131289Y-63325431D01*
X124035432Y-63325261D01*
X123947980Y-63325071D01*
X123868542Y-63324857D01*
X123796727Y-63324618D01*
X123732144Y-63324352D01*
X123674404Y-63324055D01*
X123623114Y-63323727D01*
X123577886Y-63323365D01*
X123538328Y-63322966D01*
X123504049Y-63322529D01*
X123474659Y-63322050D01*
X123449767Y-63321529D01*
X123428983Y-63320961D01*
X123411916Y-63320347D01*
X123398175Y-63319682D01*
X123387371Y-63318965D01*
X123379111Y-63318194D01*
X123373006Y-63317366D01*
X123368665Y-63316479D01*
X123365697Y-63315531D01*
X123363712Y-63314520D01*
X123362319Y-63313443D01*
X123362097Y-63313241D01*
X123356893Y-63307592D01*
X123353276Y-63300284D01*
X123350960Y-63289109D01*
X123349660Y-63271863D01*
X123349089Y-63246340D01*
X123348963Y-63210333D01*
X123349071Y-63178127D01*
X123349619Y-63151179D01*
X123350880Y-63132770D01*
X123353126Y-63120685D01*
X123356626Y-63112707D01*
X123361653Y-63106620D01*
X123361763Y-63106510D01*
X123363017Y-63105371D01*
X123364680Y-63104303D01*
X123367148Y-63103304D01*
X123370817Y-63102371D01*
X123376084Y-63101502D01*
X123383345Y-63100695D01*
X123392995Y-63099948D01*
X123405432Y-63099257D01*
X123421051Y-63098622D01*
X123440248Y-63098039D01*
X123463420Y-63097506D01*
X123490963Y-63097022D01*
X123523273Y-63096584D01*
X123560746Y-63096189D01*
X123603778Y-63095835D01*
X123652766Y-63095520D01*
X123708105Y-63095242D01*
X123770192Y-63094998D01*
X123839424Y-63094787D01*
X123916195Y-63094606D01*
X124000903Y-63094452D01*
X124093944Y-63094323D01*
X124195713Y-63094217D01*
X124306607Y-63094133D01*
X124427022Y-63094066D01*
X124557354Y-63094016D01*
X124698000Y-63093980D01*
X124849356Y-63093956D01*
X125011817Y-63093941D01*
X125185780Y-63093933D01*
X125371642Y-63093930D01*
X125569797Y-63093929D01*
X127765251Y-63093929D01*
X127765251Y-58906070D01*
X123584001Y-58906070D01*
X123582282Y-59327887D01*
X123580564Y-59749704D01*
X123564701Y-59764768D01*
X123564186Y-59765235D01*
X123551994Y-59772956D01*
X123531268Y-59783128D01*
X123504525Y-59794798D01*
X123474279Y-59807012D01*
X123443045Y-59818818D01*
X123413339Y-59829262D01*
X123387676Y-59837391D01*
X123368570Y-59842252D01*
X123358536Y-59842893D01*
X123358154Y-59842706D01*
X123356475Y-59840591D01*
X123355014Y-59835874D01*
X123353762Y-59827780D01*
X123352706Y-59815532D01*
X123351836Y-59798355D01*
X123351139Y-59775472D01*
X123350604Y-59746107D01*
X123350221Y-59709485D01*
X123349976Y-59664828D01*
X123349860Y-59611362D01*
X123349860Y-59548310D01*
X123349965Y-59474895D01*
X123350164Y-59390343D01*
X123350445Y-59293876D01*
X123352135Y-58748613D01*
X123371330Y-58724899D01*
X123376241Y-58719231D01*
X123394502Y-58702021D01*
X123412475Y-58689414D01*
X123413522Y-58688884D01*
X123416058Y-58687863D01*
X123419483Y-58686906D01*
X123424191Y-58686011D01*
X123430575Y-58685175D01*
X123439027Y-58684396D01*
X123449943Y-58683673D01*
X123463715Y-58683004D01*
X123480736Y-58682386D01*
X123501400Y-58681817D01*
X123526100Y-58681296D01*
X123555230Y-58680819D01*
X123589183Y-58680386D01*
X123628352Y-58679994D01*
X123673131Y-58679642D01*
X123723912Y-58679326D01*
X123781091Y-58679045D01*
X123845059Y-58678797D01*
X123916210Y-58678580D01*
X123994938Y-58678392D01*
X124081636Y-58678231D01*
X124176698Y-58678095D01*
X124280516Y-58677981D01*
X124393484Y-58677888D01*
X124515995Y-58677813D01*
X124648444Y-58677755D01*
X124791222Y-58677712D01*
X124944725Y-58677681D01*
X125109344Y-58677661D01*
X125285473Y-58677649D01*
X125473507Y-58677643D01*
X125673837Y-58677642D01*
X127913249Y-58677642D01*
X127940221Y-58693448D01*
G37*
G36*
X126221919Y-60676404D02*
G01*
X126266132Y-60676570D01*
X126299793Y-60677014D01*
X126324443Y-60677835D01*
X126341624Y-60679132D01*
X126352876Y-60681006D01*
X126359742Y-60683556D01*
X126363762Y-60686881D01*
X126363794Y-60686921D01*
X126365256Y-60690544D01*
X126366575Y-60698019D01*
X126367765Y-60710026D01*
X126368836Y-60727246D01*
X126369803Y-60750358D01*
X126370677Y-60780042D01*
X126371472Y-60816977D01*
X126372200Y-60861844D01*
X126372874Y-60915323D01*
X126373507Y-60978093D01*
X126374111Y-61050834D01*
X126374700Y-61134226D01*
X126375284Y-61228949D01*
X126375879Y-61335682D01*
X126375998Y-61357786D01*
X126376609Y-61464186D01*
X126377226Y-61558679D01*
X126377860Y-61641917D01*
X126378523Y-61714557D01*
X126379226Y-61777251D01*
X126379981Y-61830656D01*
X126380799Y-61875427D01*
X126381693Y-61912216D01*
X126382674Y-61941680D01*
X126383754Y-61964474D01*
X126384944Y-61981251D01*
X126386256Y-61992666D01*
X126387701Y-61999375D01*
X126388345Y-62001302D01*
X126410227Y-62052237D01*
X126438451Y-62092896D01*
X126473752Y-62123775D01*
X126516862Y-62145369D01*
X126568518Y-62158174D01*
X126629452Y-62162688D01*
X126675793Y-62161502D01*
X126721429Y-62155705D01*
X126760286Y-62144586D01*
X126795168Y-62127552D01*
X126822912Y-62107333D01*
X126849559Y-62077108D01*
X126870124Y-62038817D01*
X126885289Y-61991139D01*
X126895738Y-61932750D01*
X126896383Y-61925070D01*
X126897334Y-61903251D01*
X126898222Y-61870056D01*
X126899038Y-61826283D01*
X126899776Y-61772731D01*
X126900427Y-61710198D01*
X126900983Y-61639482D01*
X126901437Y-61561380D01*
X126901779Y-61476692D01*
X126902004Y-61386215D01*
X126902102Y-61290748D01*
X126902149Y-61193176D01*
X126902232Y-61103759D01*
X126902364Y-61025550D01*
X126902556Y-60957792D01*
X126902823Y-60899730D01*
X126903176Y-60850609D01*
X126903629Y-60809674D01*
X126904195Y-60776170D01*
X126904885Y-60749341D01*
X126905714Y-60728431D01*
X126906694Y-60712687D01*
X126907838Y-60701352D01*
X126909158Y-60693671D01*
X126910668Y-60688890D01*
X126912380Y-60686252D01*
X126913378Y-60685338D01*
X126918610Y-60682357D01*
X126927243Y-60680146D01*
X126940824Y-60678626D01*
X126960901Y-60677718D01*
X126989022Y-60677342D01*
X127026735Y-60677418D01*
X127075587Y-60677867D01*
X127228711Y-60679565D01*
X127236732Y-60695428D01*
X127237151Y-60696446D01*
X127238550Y-60703233D01*
X127239779Y-60715400D01*
X127240849Y-60733612D01*
X127241768Y-60758534D01*
X127242545Y-60790830D01*
X127243190Y-60831164D01*
X127243712Y-60880201D01*
X127244120Y-60938605D01*
X127244422Y-61007042D01*
X127244629Y-61086175D01*
X127244750Y-61176670D01*
X127244793Y-61279190D01*
X127244792Y-61313286D01*
X127244732Y-61417242D01*
X127244562Y-61509626D01*
X127244257Y-61591294D01*
X127243787Y-61663104D01*
X127243125Y-61725912D01*
X127242243Y-61780575D01*
X127241113Y-61827950D01*
X127239707Y-61868893D01*
X127237997Y-61904263D01*
X127235956Y-61934915D01*
X127233555Y-61961706D01*
X127230767Y-61985494D01*
X127227564Y-62007135D01*
X127223918Y-62027486D01*
X127219800Y-62047404D01*
X127214060Y-62071522D01*
X127188777Y-62147497D01*
X127154454Y-62214627D01*
X127111048Y-62272948D01*
X127058520Y-62322494D01*
X126996828Y-62363299D01*
X126925930Y-62395396D01*
X126845787Y-62418820D01*
X126756357Y-62433606D01*
X126751604Y-62434110D01*
X126705168Y-62437106D01*
X126651518Y-62437820D01*
X126594618Y-62436413D01*
X126538432Y-62433042D01*
X126486922Y-62427869D01*
X126444052Y-62421051D01*
X126404931Y-62412030D01*
X126328145Y-62386978D01*
X126260818Y-62353880D01*
X126202667Y-62312423D01*
X126153413Y-62262293D01*
X126112776Y-62203177D01*
X126080475Y-62134761D01*
X126056231Y-62056732D01*
X126039762Y-61968776D01*
X126038869Y-61958946D01*
X126037730Y-61935707D01*
X126036706Y-61902254D01*
X126035797Y-61859627D01*
X126035001Y-61808868D01*
X126034319Y-61751018D01*
X126033750Y-61687118D01*
X126033292Y-61618209D01*
X126032945Y-61545332D01*
X126032709Y-61469529D01*
X126032583Y-61391840D01*
X126032565Y-61313307D01*
X126032656Y-61234970D01*
X126032855Y-61157871D01*
X126033161Y-61083051D01*
X126033573Y-61011551D01*
X126034091Y-60944412D01*
X126034713Y-60882676D01*
X126035440Y-60827383D01*
X126036271Y-60779574D01*
X126037204Y-60740291D01*
X126038239Y-60710575D01*
X126039376Y-60691466D01*
X126040614Y-60684007D01*
X126043736Y-60682363D01*
X126055503Y-60680097D01*
X126076252Y-60678410D01*
X126106907Y-60677260D01*
X126148395Y-60676602D01*
X126201641Y-60676392D01*
X126221919Y-60676404D01*
G37*
%LPC*%
D11*
X47000000Y-121325000D03*
D12*
X44500000Y-121325000D03*
X42000000Y-121325000D03*
X39500000Y-121325000D03*
D13*
X64000000Y-124000000D03*
D14*
X64000000Y-121500000D03*
D15*
X37796560Y-78200000D03*
D16*
X40336560Y-78200000D03*
X42876560Y-78200000D03*
X45416560Y-78200000D03*
X47956560Y-78200000D03*
X50496560Y-78200000D03*
X53036560Y-78200000D03*
X55576560Y-78200000D03*
X58116560Y-78200000D03*
X60656560Y-78200000D03*
X63196560Y-78200000D03*
X65736560Y-78200000D03*
X68276560Y-78200000D03*
X70816560Y-78200000D03*
X73356560Y-78200000D03*
X75896560Y-78200000D03*
X78436560Y-78200000D03*
X80976560Y-78200000D03*
X83516560Y-78200000D03*
X83513840Y-52803680D03*
X80973840Y-52803680D03*
X78436560Y-52800000D03*
X75896560Y-52800000D03*
X73356560Y-52800000D03*
X70816560Y-52800000D03*
X68276560Y-52800000D03*
X65736560Y-52800000D03*
X63196560Y-52800000D03*
X60656560Y-52800000D03*
X58116560Y-52800000D03*
X55576560Y-52800000D03*
X53036560Y-52800000D03*
X50496560Y-52800000D03*
X47956560Y-52800000D03*
X45416560Y-52800000D03*
X42876560Y-52800000D03*
X40336560Y-52800000D03*
X37796560Y-52800000D03*
D17*
X118900000Y-115780000D03*
D18*
X123980000Y-100540000D03*
D17*
X118900000Y-100540000D03*
D18*
X123980000Y-115780000D03*
X126520000Y-100540000D03*
X121440000Y-115780000D03*
X126520000Y-115780000D03*
X121440000Y-100540000D03*
D17*
X96040000Y-115780000D03*
D18*
X98580000Y-115780000D03*
X101120000Y-115780000D03*
D19*
X64675000Y-93300000D03*
D20*
X64675000Y-90800000D03*
X64675000Y-88300000D03*
D21*
X115650000Y-124650000D03*
D22*
X121950000Y-124650000D03*
D23*
X118550000Y-119850000D03*
D13*
X88675000Y-56450000D03*
D14*
X88675000Y-53950000D03*
D19*
X57450000Y-93300000D03*
D20*
X57450000Y-90800000D03*
X57450000Y-88300000D03*
D24*
X33000000Y-53000000D03*
D13*
X41000000Y-86450000D03*
D14*
X41000000Y-83950000D03*
D13*
X41000000Y-97650000D03*
D14*
X41000000Y-95150000D03*
D19*
X79275000Y-93300000D03*
D20*
X79275000Y-90800000D03*
X79275000Y-88300000D03*
D13*
X88675000Y-65050000D03*
D14*
X88675000Y-62550000D03*
D18*
X123980000Y-77540000D03*
X123980000Y-92780000D03*
D17*
X118900000Y-92780000D03*
X118900000Y-77540000D03*
D18*
X121440000Y-77540000D03*
X121440000Y-92780000D03*
X126520000Y-77540000D03*
X126520000Y-92780000D03*
D17*
X96040000Y-92780000D03*
D18*
X98580000Y-92780000D03*
X101120000Y-92780000D03*
D13*
X77000000Y-124000000D03*
D14*
X77000000Y-121500000D03*
D19*
X71875000Y-93300000D03*
D20*
X71875000Y-90800000D03*
X71875000Y-88300000D03*
D24*
X113000000Y-55000000D03*
D18*
X123980000Y-69780000D03*
D17*
X118900000Y-69780000D03*
X118900000Y-54540000D03*
D18*
X123980000Y-54540000D03*
X126520000Y-54540000D03*
X121440000Y-69780000D03*
X121440000Y-54540000D03*
X126520000Y-69780000D03*
D17*
X96040000Y-69780000D03*
D18*
X98580000Y-69780000D03*
X101120000Y-69780000D03*
D11*
X47000000Y-107325000D03*
D12*
X44500000Y-107325000D03*
X42000000Y-107325000D03*
X39500000Y-107325000D03*
D11*
X47000000Y-114325000D03*
D12*
X44500000Y-114325000D03*
X42000000Y-114325000D03*
X39500000Y-114325000D03*
D25*
X109100000Y-124652651D03*
D26*
X109100000Y-121152651D03*
D24*
X113000000Y-111000000D03*
X33000000Y-127000000D03*
M02*
