%TF.GenerationSoftware,KiCad,Pcbnew,(6.0.8)*%
%TF.CreationDate,2023-01-08T14:39:41+01:00*%
%TF.ProjectId,MainPCB-Rev2,4d61696e-5043-4422-9d52-6576322e6b69,rev?*%
%TF.SameCoordinates,Original*%
%TF.FileFunction,Soldermask,Bot*%
%TF.FilePolarity,Negative*%
%FSLAX46Y46*%
G04 Gerber Fmt 4.6, Leading zero omitted, Abs format (unit mm)*
G04 Created by KiCad (PCBNEW (6.0.8)) date 2023-01-08 14:39:41*
%MOMM*%
%LPD*%
G01*
G04 APERTURE LIST*
G04 Aperture macros list*
%AMRoundRect*
0 Rectangle with rounded corners*
0 $1 Rounding radius*
0 $2 $3 $4 $5 $6 $7 $8 $9 X,Y pos of 4 corners*
0 Add a 4 corners polygon primitive as box body*
4,1,4,$2,$3,$4,$5,$6,$7,$8,$9,$2,$3,0*
0 Add four circle primitives for the rounded corners*
1,1,$1+$1,$2,$3*
1,1,$1+$1,$4,$5*
1,1,$1+$1,$6,$7*
1,1,$1+$1,$8,$9*
0 Add four rect primitives between the rounded corners*
20,1,$1+$1,$2,$3,$4,$5,0*
20,1,$1+$1,$4,$5,$6,$7,0*
20,1,$1+$1,$6,$7,$8,$9,0*
20,1,$1+$1,$8,$9,$2,$3,0*%
G04 Aperture macros list end*
%ADD10RoundRect,0.250000X0.600000X0.725000X-0.600000X0.725000X-0.600000X-0.725000X0.600000X-0.725000X0*%
%ADD11O,1.700000X1.950000*%
%ADD12RoundRect,0.250000X0.750000X-0.600000X0.750000X0.600000X-0.750000X0.600000X-0.750000X-0.600000X0*%
%ADD13O,2.000000X1.700000*%
%ADD14R,1.200000X2.000000*%
%ADD15O,1.200000X2.000000*%
%ADD16R,1.700000X1.700000*%
%ADD17O,1.700000X1.700000*%
%ADD18RoundRect,0.250000X0.725000X-0.600000X0.725000X0.600000X-0.725000X0.600000X-0.725000X-0.600000X0*%
%ADD19O,1.950000X1.700000*%
%ADD20R,2.000000X4.600000*%
%ADD21O,2.000000X4.200000*%
%ADD22O,4.200000X2.000000*%
%ADD23C,5.000000*%
%ADD24R,1.600000X1.600000*%
%ADD25C,1.600000*%
G04 APERTURE END LIST*
D10*
X47000000Y-121325000D03*
D11*
X44500000Y-121325000D03*
X42000000Y-121325000D03*
X39500000Y-121325000D03*
D12*
X64000000Y-124000000D03*
D13*
X64000000Y-121500000D03*
D14*
X37796560Y-78200000D03*
D15*
X40336560Y-78200000D03*
X42876560Y-78200000D03*
X45416560Y-78200000D03*
X47956560Y-78200000D03*
X50496560Y-78200000D03*
X53036560Y-78200000D03*
X55576560Y-78200000D03*
X58116560Y-78200000D03*
X60656560Y-78200000D03*
X63196560Y-78200000D03*
X65736560Y-78200000D03*
X68276560Y-78200000D03*
X70816560Y-78200000D03*
X73356560Y-78200000D03*
X75896560Y-78200000D03*
X78436560Y-78200000D03*
X80976560Y-78200000D03*
X83516560Y-78200000D03*
X83513840Y-52803680D03*
X80973840Y-52803680D03*
X78436560Y-52800000D03*
X75896560Y-52800000D03*
X73356560Y-52800000D03*
X70816560Y-52800000D03*
X68276560Y-52800000D03*
X65736560Y-52800000D03*
X63196560Y-52800000D03*
X60656560Y-52800000D03*
X58116560Y-52800000D03*
X55576560Y-52800000D03*
X53036560Y-52800000D03*
X50496560Y-52800000D03*
X47956560Y-52800000D03*
X45416560Y-52800000D03*
X42876560Y-52800000D03*
X40336560Y-52800000D03*
X37796560Y-52800000D03*
D16*
X118900000Y-115780000D03*
D17*
X123980000Y-100540000D03*
D16*
X118900000Y-100540000D03*
D17*
X123980000Y-115780000D03*
X126520000Y-100540000D03*
X121440000Y-115780000D03*
X126520000Y-115780000D03*
X121440000Y-100540000D03*
D16*
X96040000Y-115780000D03*
D17*
X98580000Y-115780000D03*
X101120000Y-115780000D03*
D18*
X64675000Y-93300000D03*
D19*
X64675000Y-90800000D03*
X64675000Y-88300000D03*
D20*
X115650000Y-124650000D03*
D21*
X121950000Y-124650000D03*
D22*
X118550000Y-119850000D03*
D12*
X88675000Y-56450000D03*
D13*
X88675000Y-53950000D03*
D18*
X57450000Y-93300000D03*
D19*
X57450000Y-90800000D03*
X57450000Y-88300000D03*
D23*
X33000000Y-53000000D03*
D12*
X41000000Y-86450000D03*
D13*
X41000000Y-83950000D03*
D12*
X41000000Y-97650000D03*
D13*
X41000000Y-95150000D03*
D18*
X79275000Y-93300000D03*
D19*
X79275000Y-90800000D03*
X79275000Y-88300000D03*
D12*
X88675000Y-65050000D03*
D13*
X88675000Y-62550000D03*
D17*
X123980000Y-77540000D03*
X123980000Y-92780000D03*
D16*
X118900000Y-92780000D03*
X118900000Y-77540000D03*
D17*
X121440000Y-77540000D03*
X121440000Y-92780000D03*
X126520000Y-77540000D03*
X126520000Y-92780000D03*
D16*
X96040000Y-92780000D03*
D17*
X98580000Y-92780000D03*
X101120000Y-92780000D03*
D12*
X77000000Y-124000000D03*
D13*
X77000000Y-121500000D03*
D18*
X71875000Y-93300000D03*
D19*
X71875000Y-90800000D03*
X71875000Y-88300000D03*
D23*
X113000000Y-55000000D03*
D17*
X123980000Y-69780000D03*
D16*
X118900000Y-69780000D03*
X118900000Y-54540000D03*
D17*
X123980000Y-54540000D03*
X126520000Y-54540000D03*
X121440000Y-69780000D03*
X121440000Y-54540000D03*
X126520000Y-69780000D03*
D16*
X96040000Y-69780000D03*
D17*
X98580000Y-69780000D03*
X101120000Y-69780000D03*
D10*
X47000000Y-107325000D03*
D11*
X44500000Y-107325000D03*
X42000000Y-107325000D03*
X39500000Y-107325000D03*
D10*
X47000000Y-114325000D03*
D11*
X44500000Y-114325000D03*
X42000000Y-114325000D03*
X39500000Y-114325000D03*
D24*
X109100000Y-124652651D03*
D25*
X109100000Y-121152651D03*
D23*
X113000000Y-111000000D03*
X33000000Y-127000000D03*
M02*
