%TF.GenerationSoftware,KiCad,Pcbnew,(6.0.8)*%
%TF.CreationDate,2023-01-08T14:39:41+01:00*%
%TF.ProjectId,MainPCB-Rev2,4d61696e-5043-4422-9d52-6576322e6b69,rev?*%
%TF.SameCoordinates,Original*%
%TF.FileFunction,Soldermask,Top*%
%TF.FilePolarity,Negative*%
%FSLAX46Y46*%
G04 Gerber Fmt 4.6, Leading zero omitted, Abs format (unit mm)*
G04 Created by KiCad (PCBNEW (6.0.8)) date 2023-01-08 14:39:41*
%MOMM*%
%LPD*%
G01*
G04 APERTURE LIST*
G04 Aperture macros list*
%AMRoundRect*
0 Rectangle with rounded corners*
0 $1 Rounding radius*
0 $2 $3 $4 $5 $6 $7 $8 $9 X,Y pos of 4 corners*
0 Add a 4 corners polygon primitive as box body*
4,1,4,$2,$3,$4,$5,$6,$7,$8,$9,$2,$3,0*
0 Add four circle primitives for the rounded corners*
1,1,$1+$1,$2,$3*
1,1,$1+$1,$4,$5*
1,1,$1+$1,$6,$7*
1,1,$1+$1,$8,$9*
0 Add four rect primitives between the rounded corners*
20,1,$1+$1,$2,$3,$4,$5,0*
20,1,$1+$1,$4,$5,$6,$7,0*
20,1,$1+$1,$6,$7,$8,$9,0*
20,1,$1+$1,$8,$9,$2,$3,0*%
G04 Aperture macros list end*
%ADD10RoundRect,0.320754X-0.529246X-0.579246X0.529246X-0.579246X0.529246X0.579246X-0.529246X0.579246X0*%
%ADD11RoundRect,0.250000X0.600000X0.725000X-0.600000X0.725000X-0.600000X-0.725000X0.600000X-0.725000X0*%
%ADD12O,1.700000X1.950000*%
%ADD13RoundRect,0.320754X-0.579246X0.529246X-0.579246X-0.529246X0.579246X-0.529246X0.579246X0.529246X0*%
%ADD14RoundRect,0.150000X-0.587500X-0.150000X0.587500X-0.150000X0.587500X0.150000X-0.587500X0.150000X0*%
%ADD15RoundRect,0.250000X0.750000X-0.600000X0.750000X0.600000X-0.750000X0.600000X-0.750000X-0.600000X0*%
%ADD16O,2.000000X1.700000*%
%ADD17R,1.200000X2.000000*%
%ADD18O,1.200000X2.000000*%
%ADD19R,1.700000X1.700000*%
%ADD20O,1.700000X1.700000*%
%ADD21RoundRect,0.150000X0.587500X0.150000X-0.587500X0.150000X-0.587500X-0.150000X0.587500X-0.150000X0*%
%ADD22RoundRect,0.250000X0.725000X-0.600000X0.725000X0.600000X-0.725000X0.600000X-0.725000X-0.600000X0*%
%ADD23O,1.950000X1.700000*%
%ADD24R,2.000000X4.600000*%
%ADD25O,2.000000X4.200000*%
%ADD26O,4.200000X2.000000*%
%ADD27RoundRect,0.150000X-0.150000X0.587500X-0.150000X-0.587500X0.150000X-0.587500X0.150000X0.587500X0*%
%ADD28RoundRect,0.320754X0.529246X0.579246X-0.529246X0.579246X-0.529246X-0.579246X0.529246X-0.579246X0*%
%ADD29C,5.000000*%
%ADD30RoundRect,0.320754X0.579246X-0.529246X0.579246X0.529246X-0.579246X0.529246X-0.579246X-0.529246X0*%
%ADD31R,1.600000X1.600000*%
%ADD32C,1.600000*%
G04 APERTURE END LIST*
D10*
X96000000Y-89500000D03*
X98500000Y-89500000D03*
D11*
X47000000Y-121325000D03*
D12*
X44500000Y-121325000D03*
X42000000Y-121325000D03*
X39500000Y-121325000D03*
D10*
X96000000Y-86500000D03*
X98500000Y-86500000D03*
D13*
X69950000Y-121750000D03*
X69950000Y-124250000D03*
X51450000Y-106750000D03*
X51450000Y-109250000D03*
D14*
X80662500Y-61850000D03*
X80662500Y-63750000D03*
X82537500Y-62800000D03*
D15*
X64000000Y-124000000D03*
D16*
X64000000Y-121500000D03*
D10*
X83750000Y-83550000D03*
X86250000Y-83550000D03*
D17*
X37796560Y-78200000D03*
D18*
X40336560Y-78200000D03*
X42876560Y-78200000D03*
X45416560Y-78200000D03*
X47956560Y-78200000D03*
X50496560Y-78200000D03*
X53036560Y-78200000D03*
X55576560Y-78200000D03*
X58116560Y-78200000D03*
X60656560Y-78200000D03*
X63196560Y-78200000D03*
X65736560Y-78200000D03*
X68276560Y-78200000D03*
X70816560Y-78200000D03*
X73356560Y-78200000D03*
X75896560Y-78200000D03*
X78436560Y-78200000D03*
X80976560Y-78200000D03*
X83516560Y-78200000D03*
X83513840Y-52803680D03*
X80973840Y-52803680D03*
X78436560Y-52800000D03*
X75896560Y-52800000D03*
X73356560Y-52800000D03*
X70816560Y-52800000D03*
X68276560Y-52800000D03*
X65736560Y-52800000D03*
X63196560Y-52800000D03*
X60656560Y-52800000D03*
X58116560Y-52800000D03*
X55576560Y-52800000D03*
X53036560Y-52800000D03*
X50496560Y-52800000D03*
X47956560Y-52800000D03*
X45416560Y-52800000D03*
X42876560Y-52800000D03*
X40336560Y-52800000D03*
X37796560Y-52800000D03*
D19*
X118900000Y-115780000D03*
D20*
X123980000Y-100540000D03*
D19*
X118900000Y-100540000D03*
D20*
X123980000Y-115780000D03*
X126520000Y-100540000D03*
X121440000Y-115780000D03*
X126520000Y-115780000D03*
X121440000Y-100540000D03*
D19*
X96040000Y-115780000D03*
D20*
X98580000Y-115780000D03*
X101120000Y-115780000D03*
D21*
X48937500Y-96550000D03*
X48937500Y-94650000D03*
X47062500Y-95600000D03*
D22*
X64675000Y-93300000D03*
D23*
X64675000Y-90800000D03*
X64675000Y-88300000D03*
D24*
X115650000Y-124650000D03*
D25*
X121950000Y-124650000D03*
D26*
X118550000Y-119850000D03*
D15*
X88675000Y-56450000D03*
D16*
X88675000Y-53950000D03*
D27*
X64950000Y-115462500D03*
X63050000Y-115462500D03*
X64000000Y-117337500D03*
D28*
X80250000Y-97550000D03*
X77750000Y-97550000D03*
D22*
X57450000Y-93300000D03*
D23*
X57450000Y-90800000D03*
X57450000Y-88300000D03*
D29*
X33000000Y-53000000D03*
D28*
X99250000Y-59950000D03*
X96750000Y-59950000D03*
D13*
X51450000Y-118750000D03*
X51450000Y-121250000D03*
D15*
X41000000Y-86450000D03*
D16*
X41000000Y-83950000D03*
D30*
X101550000Y-124250000D03*
X101550000Y-121750000D03*
D10*
X96000000Y-112550000D03*
X98500000Y-112550000D03*
D14*
X80662500Y-57650000D03*
X80662500Y-59550000D03*
X82537500Y-58600000D03*
D15*
X41000000Y-97650000D03*
D16*
X41000000Y-95150000D03*
D22*
X79275000Y-93300000D03*
D23*
X79275000Y-90800000D03*
X79275000Y-88300000D03*
D28*
X66300000Y-97750000D03*
X63800000Y-97750000D03*
D15*
X88675000Y-65050000D03*
D16*
X88675000Y-62550000D03*
D13*
X82950000Y-121750000D03*
X82950000Y-124250000D03*
D28*
X39550000Y-102150000D03*
X37050000Y-102150000D03*
D30*
X98000000Y-124250000D03*
X98000000Y-121750000D03*
D28*
X59300000Y-97750000D03*
X56800000Y-97750000D03*
X39550000Y-90850000D03*
X37050000Y-90850000D03*
D20*
X123980000Y-77540000D03*
X123980000Y-92780000D03*
D19*
X118900000Y-92780000D03*
X118900000Y-77540000D03*
D20*
X121440000Y-77540000D03*
X121440000Y-92780000D03*
X126520000Y-77540000D03*
X126520000Y-92780000D03*
D19*
X96040000Y-92780000D03*
D20*
X98580000Y-92780000D03*
X101120000Y-92780000D03*
D15*
X77000000Y-124000000D03*
D16*
X77000000Y-121500000D03*
D10*
X96000000Y-109550000D03*
X98500000Y-109550000D03*
D13*
X51450000Y-112750000D03*
X51450000Y-115250000D03*
D28*
X73250000Y-97550000D03*
X70750000Y-97550000D03*
D22*
X71875000Y-93300000D03*
D23*
X71875000Y-90800000D03*
X71875000Y-88300000D03*
D29*
X113000000Y-55000000D03*
D10*
X83750000Y-81050000D03*
X86250000Y-81050000D03*
D21*
X48937500Y-86550000D03*
X48937500Y-84650000D03*
X47062500Y-85600000D03*
D28*
X99250000Y-65950000D03*
X96750000Y-65950000D03*
D20*
X123980000Y-69780000D03*
D19*
X118900000Y-69780000D03*
X118900000Y-54540000D03*
D20*
X123980000Y-54540000D03*
X126520000Y-54540000D03*
X121440000Y-69780000D03*
X121440000Y-54540000D03*
X126520000Y-69780000D03*
D19*
X96040000Y-69780000D03*
D20*
X98580000Y-69780000D03*
X101120000Y-69780000D03*
D11*
X47000000Y-107325000D03*
D12*
X44500000Y-107325000D03*
X42000000Y-107325000D03*
X39500000Y-107325000D03*
D11*
X47000000Y-114325000D03*
D12*
X44500000Y-114325000D03*
X42000000Y-114325000D03*
X39500000Y-114325000D03*
D31*
X109100000Y-124652651D03*
D32*
X109100000Y-121152651D03*
D29*
X113000000Y-111000000D03*
D27*
X77950000Y-115462500D03*
X76050000Y-115462500D03*
X77000000Y-117337500D03*
D29*
X33000000Y-127000000D03*
M02*
