%TF.GenerationSoftware,KiCad,Pcbnew,(6.0.8)*%
%TF.CreationDate,2022-12-06T12:54:16+01:00*%
%TF.ProjectId,Single-DCDC-Converter-Rev2,53696e67-6c65-42d4-9443-44432d436f6e,rev?*%
%TF.SameCoordinates,Original*%
%TF.FileFunction,Soldermask,Top*%
%TF.FilePolarity,Negative*%
%FSLAX46Y46*%
G04 Gerber Fmt 4.6, Leading zero omitted, Abs format (unit mm)*
G04 Created by KiCad (PCBNEW (6.0.8)) date 2022-12-06 12:54:16*
%MOMM*%
%LPD*%
G01*
G04 APERTURE LIST*
G04 Aperture macros list*
%AMRoundRect*
0 Rectangle with rounded corners*
0 $1 Rounding radius*
0 $2 $3 $4 $5 $6 $7 $8 $9 X,Y pos of 4 corners*
0 Add a 4 corners polygon primitive as box body*
4,1,4,$2,$3,$4,$5,$6,$7,$8,$9,$2,$3,0*
0 Add four circle primitives for the rounded corners*
1,1,$1+$1,$2,$3*
1,1,$1+$1,$4,$5*
1,1,$1+$1,$6,$7*
1,1,$1+$1,$8,$9*
0 Add four rect primitives between the rounded corners*
20,1,$1+$1,$2,$3,$4,$5,0*
20,1,$1+$1,$4,$5,$6,$7,0*
20,1,$1+$1,$6,$7,$8,$9,0*
20,1,$1+$1,$8,$9,$2,$3,0*%
G04 Aperture macros list end*
%ADD10RoundRect,0.250000X1.000000X-1.950000X1.000000X1.950000X-1.000000X1.950000X-1.000000X-1.950000X0*%
%ADD11R,1.700000X1.700000*%
%ADD12O,1.700000X1.700000*%
%ADD13RoundRect,0.250000X0.475000X-0.337500X0.475000X0.337500X-0.475000X0.337500X-0.475000X-0.337500X0*%
%ADD14R,2.600000X3.100000*%
%ADD15R,1.550000X0.600000*%
%ADD16RoundRect,0.900000X-0.900000X1.850000X-0.900000X-1.850000X0.900000X-1.850000X0.900000X1.850000X0*%
%ADD17RoundRect,0.900000X0.900000X-1.850000X0.900000X1.850000X-0.900000X1.850000X-0.900000X-1.850000X0*%
%ADD18R,1.600000X1.600000*%
%ADD19C,1.600000*%
%ADD20R,2.500000X1.800000*%
%ADD21R,1.000000X1.000000*%
%ADD22C,5.000000*%
%ADD23RoundRect,0.250000X-0.350000X-0.450000X0.350000X-0.450000X0.350000X0.450000X-0.350000X0.450000X0*%
%ADD24RoundRect,0.250000X0.350000X0.450000X-0.350000X0.450000X-0.350000X-0.450000X0.350000X-0.450000X0*%
G04 APERTURE END LIST*
D10*
X94200000Y-56000000D03*
X94200000Y-47600000D03*
D11*
X98860000Y-43140000D03*
D12*
X96320000Y-43140000D03*
X93780000Y-43140000D03*
X91240000Y-43140000D03*
D13*
X101600000Y-49737500D03*
X101600000Y-47662500D03*
D14*
X106700000Y-49100000D03*
D15*
X109400000Y-51005000D03*
X109400000Y-49735000D03*
X109400000Y-48465000D03*
X109400000Y-47195000D03*
X104000000Y-47195000D03*
X104000000Y-48465000D03*
X104000000Y-49735000D03*
X104000000Y-51005000D03*
D16*
X116115000Y-59075000D03*
D17*
X110835000Y-59075000D03*
D18*
X126375000Y-54725000D03*
D19*
X122875000Y-54725000D03*
D13*
X111500000Y-54462500D03*
X111500000Y-52387500D03*
D20*
X103700000Y-54500000D03*
X107700000Y-54500000D03*
D21*
X104000000Y-57400000D03*
D22*
X126150000Y-42000000D03*
D10*
X116650000Y-50100000D03*
X116650000Y-41700000D03*
D23*
X108000000Y-42600000D03*
X110000000Y-42600000D03*
D11*
X98860000Y-60920000D03*
D12*
X96320000Y-60920000D03*
X93780000Y-60920000D03*
X91240000Y-60920000D03*
D22*
X86800000Y-60500000D03*
D11*
X126800000Y-60920000D03*
D12*
X124260000Y-60920000D03*
X121720000Y-60920000D03*
D11*
X86900000Y-53500000D03*
D12*
X86900000Y-56040000D03*
D24*
X110000000Y-44600000D03*
X108000000Y-44600000D03*
D13*
X123800000Y-49337500D03*
X123800000Y-47262500D03*
M02*
