%TF.GenerationSoftware,KiCad,Pcbnew,(6.0.8)*%
%TF.CreationDate,2022-12-06T12:54:16+01:00*%
%TF.ProjectId,Single-DCDC-Converter-Rev2,53696e67-6c65-42d4-9443-44432d436f6e,rev?*%
%TF.SameCoordinates,Original*%
%TF.FileFunction,Copper,L2,Inr*%
%TF.FilePolarity,Positive*%
%FSLAX46Y46*%
G04 Gerber Fmt 4.6, Leading zero omitted, Abs format (unit mm)*
G04 Created by KiCad (PCBNEW (6.0.8)) date 2022-12-06 12:54:16*
%MOMM*%
%LPD*%
G01*
G04 APERTURE LIST*
%TA.AperFunction,ComponentPad*%
%ADD10R,1.700000X1.700000*%
%TD*%
%TA.AperFunction,ComponentPad*%
%ADD11O,1.700000X1.700000*%
%TD*%
%TA.AperFunction,ComponentPad*%
%ADD12C,0.600000*%
%TD*%
%TA.AperFunction,ComponentPad*%
%ADD13R,1.600000X1.600000*%
%TD*%
%TA.AperFunction,ComponentPad*%
%ADD14C,1.600000*%
%TD*%
%TA.AperFunction,ComponentPad*%
%ADD15C,5.000000*%
%TD*%
%TA.AperFunction,ViaPad*%
%ADD16C,0.800000*%
%TD*%
G04 APERTURE END LIST*
D10*
X98860000Y-43140000D03*
D11*
X96320000Y-43140000D03*
X93780000Y-43140000D03*
X91240000Y-43140000D03*
D12*
X106050000Y-51050000D03*
X107350000Y-48450000D03*
X106050000Y-49750000D03*
X107350000Y-47150000D03*
X107350000Y-49750000D03*
X106050000Y-48450000D03*
X107350000Y-51050000D03*
X106050000Y-47150000D03*
D13*
X126375000Y-54725000D03*
D14*
X122875000Y-54725000D03*
D15*
X126150000Y-42000000D03*
D10*
X98860000Y-60920000D03*
D11*
X96320000Y-60920000D03*
X93780000Y-60920000D03*
X91240000Y-60920000D03*
D15*
X86800000Y-60500000D03*
D10*
X126800000Y-60920000D03*
D11*
X124260000Y-60920000D03*
X121720000Y-60920000D03*
D10*
X86900000Y-53500000D03*
D11*
X86900000Y-56040000D03*
D16*
X119710200Y-55778400D03*
X91900000Y-45700000D03*
X96700000Y-45700000D03*
X89900000Y-58300000D03*
X91900000Y-47400000D03*
X118900000Y-42000000D03*
X117650000Y-44950000D03*
X101600000Y-46200000D03*
X115450000Y-44900000D03*
X114400000Y-43500000D03*
X99300000Y-45700000D03*
X119710200Y-56921400D03*
X89200000Y-57400000D03*
X96700000Y-47400000D03*
X118900000Y-43500000D03*
X114400000Y-42000000D03*
X103300000Y-45400000D03*
%TA.AperFunction,Conductor*%
G36*
X128433621Y-39728502D02*
G01*
X128480114Y-39782158D01*
X128491500Y-39834500D01*
X128491500Y-62565500D01*
X128471498Y-62633621D01*
X128417842Y-62680114D01*
X128365500Y-62691500D01*
X84634500Y-62691500D01*
X84566379Y-62671498D01*
X84519886Y-62617842D01*
X84508500Y-62565500D01*
X84508500Y-60886695D01*
X92417251Y-60886695D01*
X92417548Y-60891848D01*
X92417548Y-60891851D01*
X92423011Y-60986590D01*
X92430110Y-61109715D01*
X92431247Y-61114761D01*
X92431248Y-61114767D01*
X92451119Y-61202939D01*
X92479222Y-61327639D01*
X92563266Y-61534616D01*
X92679987Y-61725088D01*
X92826250Y-61893938D01*
X92998126Y-62036632D01*
X93191000Y-62149338D01*
X93399692Y-62229030D01*
X93404760Y-62230061D01*
X93404763Y-62230062D01*
X93512017Y-62251883D01*
X93618597Y-62273567D01*
X93623772Y-62273757D01*
X93623774Y-62273757D01*
X93836673Y-62281564D01*
X93836677Y-62281564D01*
X93841837Y-62281753D01*
X93846957Y-62281097D01*
X93846959Y-62281097D01*
X94058288Y-62254025D01*
X94058289Y-62254025D01*
X94063416Y-62253368D01*
X94068366Y-62251883D01*
X94272429Y-62190661D01*
X94272434Y-62190659D01*
X94277384Y-62189174D01*
X94477994Y-62090896D01*
X94659860Y-61961173D01*
X94803400Y-61818134D01*
X97501500Y-61818134D01*
X97508255Y-61880316D01*
X97559385Y-62016705D01*
X97646739Y-62133261D01*
X97763295Y-62220615D01*
X97899684Y-62271745D01*
X97961866Y-62278500D01*
X99758134Y-62278500D01*
X99820316Y-62271745D01*
X99956705Y-62220615D01*
X100073261Y-62133261D01*
X100160615Y-62016705D01*
X100211745Y-61880316D01*
X100218500Y-61818134D01*
X100218500Y-60886695D01*
X120357251Y-60886695D01*
X120357548Y-60891848D01*
X120357548Y-60891851D01*
X120363011Y-60986590D01*
X120370110Y-61109715D01*
X120371247Y-61114761D01*
X120371248Y-61114767D01*
X120391119Y-61202939D01*
X120419222Y-61327639D01*
X120503266Y-61534616D01*
X120619987Y-61725088D01*
X120766250Y-61893938D01*
X120938126Y-62036632D01*
X121131000Y-62149338D01*
X121339692Y-62229030D01*
X121344760Y-62230061D01*
X121344763Y-62230062D01*
X121452017Y-62251883D01*
X121558597Y-62273567D01*
X121563772Y-62273757D01*
X121563774Y-62273757D01*
X121776673Y-62281564D01*
X121776677Y-62281564D01*
X121781837Y-62281753D01*
X121786957Y-62281097D01*
X121786959Y-62281097D01*
X121998288Y-62254025D01*
X121998289Y-62254025D01*
X122003416Y-62253368D01*
X122008366Y-62251883D01*
X122212429Y-62190661D01*
X122212434Y-62190659D01*
X122217384Y-62189174D01*
X122417994Y-62090896D01*
X122599860Y-61961173D01*
X122743400Y-61818134D01*
X125441500Y-61818134D01*
X125448255Y-61880316D01*
X125499385Y-62016705D01*
X125586739Y-62133261D01*
X125703295Y-62220615D01*
X125839684Y-62271745D01*
X125901866Y-62278500D01*
X127698134Y-62278500D01*
X127760316Y-62271745D01*
X127896705Y-62220615D01*
X128013261Y-62133261D01*
X128100615Y-62016705D01*
X128151745Y-61880316D01*
X128158500Y-61818134D01*
X128158500Y-60021866D01*
X128151745Y-59959684D01*
X128100615Y-59823295D01*
X128013261Y-59706739D01*
X127896705Y-59619385D01*
X127760316Y-59568255D01*
X127698134Y-59561500D01*
X125901866Y-59561500D01*
X125839684Y-59568255D01*
X125703295Y-59619385D01*
X125586739Y-59706739D01*
X125499385Y-59823295D01*
X125448255Y-59959684D01*
X125441500Y-60021866D01*
X125441500Y-61818134D01*
X122743400Y-61818134D01*
X122758096Y-61803489D01*
X122817594Y-61720689D01*
X122885435Y-61626277D01*
X122888453Y-61622077D01*
X122987430Y-61421811D01*
X123052370Y-61208069D01*
X123081529Y-60986590D01*
X123083156Y-60920000D01*
X123064852Y-60697361D01*
X123010431Y-60480702D01*
X122921354Y-60275840D01*
X122800014Y-60088277D01*
X122649670Y-59923051D01*
X122645619Y-59919852D01*
X122645615Y-59919848D01*
X122478414Y-59787800D01*
X122478410Y-59787798D01*
X122474359Y-59784598D01*
X122278789Y-59676638D01*
X122273920Y-59674914D01*
X122273916Y-59674912D01*
X122073087Y-59603795D01*
X122073083Y-59603794D01*
X122068212Y-59602069D01*
X122063119Y-59601162D01*
X122063116Y-59601161D01*
X121853373Y-59563800D01*
X121853367Y-59563799D01*
X121848284Y-59562894D01*
X121774452Y-59561992D01*
X121630081Y-59560228D01*
X121630079Y-59560228D01*
X121624911Y-59560165D01*
X121404091Y-59593955D01*
X121191756Y-59663357D01*
X120993607Y-59766507D01*
X120989474Y-59769610D01*
X120989471Y-59769612D01*
X120819100Y-59897530D01*
X120814965Y-59900635D01*
X120660629Y-60062138D01*
X120534743Y-60246680D01*
X120440688Y-60449305D01*
X120380989Y-60664570D01*
X120357251Y-60886695D01*
X100218500Y-60886695D01*
X100218500Y-60021866D01*
X100211745Y-59959684D01*
X100160615Y-59823295D01*
X100073261Y-59706739D01*
X99956705Y-59619385D01*
X99820316Y-59568255D01*
X99758134Y-59561500D01*
X97961866Y-59561500D01*
X97899684Y-59568255D01*
X97763295Y-59619385D01*
X97646739Y-59706739D01*
X97559385Y-59823295D01*
X97508255Y-59959684D01*
X97501500Y-60021866D01*
X97501500Y-61818134D01*
X94803400Y-61818134D01*
X94818096Y-61803489D01*
X94877594Y-61720689D01*
X94945435Y-61626277D01*
X94948453Y-61622077D01*
X95047430Y-61421811D01*
X95112370Y-61208069D01*
X95141529Y-60986590D01*
X95143156Y-60920000D01*
X95124852Y-60697361D01*
X95070431Y-60480702D01*
X94981354Y-60275840D01*
X94860014Y-60088277D01*
X94709670Y-59923051D01*
X94705619Y-59919852D01*
X94705615Y-59919848D01*
X94538414Y-59787800D01*
X94538410Y-59787798D01*
X94534359Y-59784598D01*
X94338789Y-59676638D01*
X94333920Y-59674914D01*
X94333916Y-59674912D01*
X94133087Y-59603795D01*
X94133083Y-59603794D01*
X94128212Y-59602069D01*
X94123119Y-59601162D01*
X94123116Y-59601161D01*
X93913373Y-59563800D01*
X93913367Y-59563799D01*
X93908284Y-59562894D01*
X93834452Y-59561992D01*
X93690081Y-59560228D01*
X93690079Y-59560228D01*
X93684911Y-59560165D01*
X93464091Y-59593955D01*
X93251756Y-59663357D01*
X93053607Y-59766507D01*
X93049474Y-59769610D01*
X93049471Y-59769612D01*
X92879100Y-59897530D01*
X92874965Y-59900635D01*
X92720629Y-60062138D01*
X92594743Y-60246680D01*
X92500688Y-60449305D01*
X92440989Y-60664570D01*
X92417251Y-60886695D01*
X84508500Y-60886695D01*
X84508500Y-55573134D01*
X125066500Y-55573134D01*
X125073255Y-55635316D01*
X125124385Y-55771705D01*
X125211739Y-55888261D01*
X125328295Y-55975615D01*
X125464684Y-56026745D01*
X125526866Y-56033500D01*
X127223134Y-56033500D01*
X127285316Y-56026745D01*
X127421705Y-55975615D01*
X127538261Y-55888261D01*
X127625615Y-55771705D01*
X127676745Y-55635316D01*
X127683500Y-55573134D01*
X127683500Y-53876866D01*
X127676745Y-53814684D01*
X127625615Y-53678295D01*
X127538261Y-53561739D01*
X127421705Y-53474385D01*
X127285316Y-53423255D01*
X127223134Y-53416500D01*
X125526866Y-53416500D01*
X125464684Y-53423255D01*
X125328295Y-53474385D01*
X125211739Y-53561739D01*
X125124385Y-53678295D01*
X125073255Y-53814684D01*
X125066500Y-53876866D01*
X125066500Y-55573134D01*
X84508500Y-55573134D01*
X84508500Y-54398134D01*
X85541500Y-54398134D01*
X85548255Y-54460316D01*
X85599385Y-54596705D01*
X85686739Y-54713261D01*
X85803295Y-54800615D01*
X85939684Y-54851745D01*
X86001866Y-54858500D01*
X87798134Y-54858500D01*
X87860316Y-54851745D01*
X87996705Y-54800615D01*
X88113261Y-54713261D01*
X88200615Y-54596705D01*
X88251745Y-54460316D01*
X88258500Y-54398134D01*
X88258500Y-52601866D01*
X88251745Y-52539684D01*
X88200615Y-52403295D01*
X88113261Y-52286739D01*
X87996705Y-52199385D01*
X87860316Y-52148255D01*
X87798134Y-52141500D01*
X86001866Y-52141500D01*
X85939684Y-52148255D01*
X85803295Y-52199385D01*
X85686739Y-52286739D01*
X85599385Y-52403295D01*
X85548255Y-52539684D01*
X85541500Y-52601866D01*
X85541500Y-54398134D01*
X84508500Y-54398134D01*
X84508500Y-45400000D01*
X102386496Y-45400000D01*
X102406458Y-45589928D01*
X102465473Y-45771556D01*
X102560960Y-45936944D01*
X102688747Y-46078866D01*
X102843248Y-46191118D01*
X102849276Y-46193802D01*
X102849278Y-46193803D01*
X103011681Y-46266109D01*
X103017712Y-46268794D01*
X103111113Y-46288647D01*
X103198056Y-46307128D01*
X103198061Y-46307128D01*
X103204513Y-46308500D01*
X103395487Y-46308500D01*
X103401939Y-46307128D01*
X103401944Y-46307128D01*
X103488888Y-46288647D01*
X103582288Y-46268794D01*
X103588319Y-46266109D01*
X103750722Y-46193803D01*
X103750724Y-46193802D01*
X103756752Y-46191118D01*
X103911253Y-46078866D01*
X104039040Y-45936944D01*
X104134527Y-45771556D01*
X104193542Y-45589928D01*
X104213504Y-45400000D01*
X104193542Y-45210072D01*
X104134527Y-45028444D01*
X104039040Y-44863056D01*
X103911253Y-44721134D01*
X103756752Y-44608882D01*
X103750724Y-44606198D01*
X103750722Y-44606197D01*
X103588319Y-44533891D01*
X103588318Y-44533891D01*
X103582288Y-44531206D01*
X103488888Y-44511353D01*
X103401944Y-44492872D01*
X103401939Y-44492872D01*
X103395487Y-44491500D01*
X103204513Y-44491500D01*
X103198061Y-44492872D01*
X103198056Y-44492872D01*
X103111113Y-44511353D01*
X103017712Y-44531206D01*
X103011682Y-44533891D01*
X103011681Y-44533891D01*
X102849278Y-44606197D01*
X102849276Y-44606198D01*
X102843248Y-44608882D01*
X102688747Y-44721134D01*
X102560960Y-44863056D01*
X102465473Y-45028444D01*
X102406458Y-45210072D01*
X102386496Y-45400000D01*
X84508500Y-45400000D01*
X84508500Y-43106695D01*
X92417251Y-43106695D01*
X92417548Y-43111848D01*
X92417548Y-43111851D01*
X92423011Y-43206590D01*
X92430110Y-43329715D01*
X92431247Y-43334761D01*
X92431248Y-43334767D01*
X92451119Y-43422939D01*
X92479222Y-43547639D01*
X92563266Y-43754616D01*
X92679987Y-43945088D01*
X92826250Y-44113938D01*
X92998126Y-44256632D01*
X93191000Y-44369338D01*
X93399692Y-44449030D01*
X93404760Y-44450061D01*
X93404763Y-44450062D01*
X93512017Y-44471883D01*
X93618597Y-44493567D01*
X93623772Y-44493757D01*
X93623774Y-44493757D01*
X93836673Y-44501564D01*
X93836677Y-44501564D01*
X93841837Y-44501753D01*
X93846957Y-44501097D01*
X93846959Y-44501097D01*
X94058288Y-44474025D01*
X94058289Y-44474025D01*
X94063416Y-44473368D01*
X94068366Y-44471883D01*
X94272429Y-44410661D01*
X94272434Y-44410659D01*
X94277384Y-44409174D01*
X94477994Y-44310896D01*
X94659860Y-44181173D01*
X94803400Y-44038134D01*
X97501500Y-44038134D01*
X97508255Y-44100316D01*
X97559385Y-44236705D01*
X97646739Y-44353261D01*
X97763295Y-44440615D01*
X97899684Y-44491745D01*
X97961866Y-44498500D01*
X99758134Y-44498500D01*
X99820316Y-44491745D01*
X99956705Y-44440615D01*
X100073261Y-44353261D01*
X100160615Y-44236705D01*
X100211745Y-44100316D01*
X100218500Y-44038134D01*
X100218500Y-42241866D01*
X100211745Y-42179684D01*
X100160615Y-42043295D01*
X100073261Y-41926739D01*
X99956705Y-41839385D01*
X99820316Y-41788255D01*
X99758134Y-41781500D01*
X97961866Y-41781500D01*
X97899684Y-41788255D01*
X97763295Y-41839385D01*
X97646739Y-41926739D01*
X97559385Y-42043295D01*
X97508255Y-42179684D01*
X97501500Y-42241866D01*
X97501500Y-44038134D01*
X94803400Y-44038134D01*
X94818096Y-44023489D01*
X94877594Y-43940689D01*
X94945435Y-43846277D01*
X94948453Y-43842077D01*
X95047430Y-43641811D01*
X95112370Y-43428069D01*
X95141529Y-43206590D01*
X95143156Y-43140000D01*
X95124852Y-42917361D01*
X95070431Y-42700702D01*
X94981354Y-42495840D01*
X94860014Y-42308277D01*
X94709670Y-42143051D01*
X94705619Y-42139852D01*
X94705615Y-42139848D01*
X94538414Y-42007800D01*
X94538410Y-42007798D01*
X94534359Y-42004598D01*
X94338789Y-41896638D01*
X94333920Y-41894914D01*
X94333916Y-41894912D01*
X94133087Y-41823795D01*
X94133083Y-41823794D01*
X94128212Y-41822069D01*
X94123119Y-41821162D01*
X94123116Y-41821161D01*
X93913373Y-41783800D01*
X93913367Y-41783799D01*
X93908284Y-41782894D01*
X93834452Y-41781992D01*
X93690081Y-41780228D01*
X93690079Y-41780228D01*
X93684911Y-41780165D01*
X93464091Y-41813955D01*
X93251756Y-41883357D01*
X93053607Y-41986507D01*
X93049474Y-41989610D01*
X93049471Y-41989612D01*
X92879100Y-42117530D01*
X92874965Y-42120635D01*
X92720629Y-42282138D01*
X92594743Y-42466680D01*
X92500688Y-42669305D01*
X92440989Y-42884570D01*
X92417251Y-43106695D01*
X84508500Y-43106695D01*
X84508500Y-39834500D01*
X84528502Y-39766379D01*
X84582158Y-39719886D01*
X84634500Y-39708500D01*
X128365500Y-39708500D01*
X128433621Y-39728502D01*
G37*
%TD.AperFunction*%
M02*
