%TF.GenerationSoftware,KiCad,Pcbnew,(6.0.8)*%
%TF.CreationDate,2022-12-06T12:54:16+01:00*%
%TF.ProjectId,Single-DCDC-Converter-Rev2,53696e67-6c65-42d4-9443-44432d436f6e,rev?*%
%TF.SameCoordinates,Original*%
%TF.FileFunction,Legend,Top*%
%TF.FilePolarity,Positive*%
%FSLAX46Y46*%
G04 Gerber Fmt 4.6, Leading zero omitted, Abs format (unit mm)*
G04 Created by KiCad (PCBNEW (6.0.8)) date 2022-12-06 12:54:16*
%MOMM*%
%LPD*%
G01*
G04 APERTURE LIST*
G04 Aperture macros list*
%AMRoundRect*
0 Rectangle with rounded corners*
0 $1 Rounding radius*
0 $2 $3 $4 $5 $6 $7 $8 $9 X,Y pos of 4 corners*
0 Add a 4 corners polygon primitive as box body*
4,1,4,$2,$3,$4,$5,$6,$7,$8,$9,$2,$3,0*
0 Add four circle primitives for the rounded corners*
1,1,$1+$1,$2,$3*
1,1,$1+$1,$4,$5*
1,1,$1+$1,$6,$7*
1,1,$1+$1,$8,$9*
0 Add four rect primitives between the rounded corners*
20,1,$1+$1,$2,$3,$4,$5,0*
20,1,$1+$1,$4,$5,$6,$7,0*
20,1,$1+$1,$6,$7,$8,$9,0*
20,1,$1+$1,$8,$9,$2,$3,0*%
G04 Aperture macros list end*
%ADD10C,0.125000*%
%ADD11C,0.150000*%
%ADD12C,0.120000*%
%ADD13RoundRect,0.250000X1.000000X-1.950000X1.000000X1.950000X-1.000000X1.950000X-1.000000X-1.950000X0*%
%ADD14R,1.700000X1.700000*%
%ADD15O,1.700000X1.700000*%
%ADD16RoundRect,0.250000X0.475000X-0.337500X0.475000X0.337500X-0.475000X0.337500X-0.475000X-0.337500X0*%
%ADD17R,2.600000X3.100000*%
%ADD18R,1.550000X0.600000*%
%ADD19RoundRect,0.900000X-0.900000X1.850000X-0.900000X-1.850000X0.900000X-1.850000X0.900000X1.850000X0*%
%ADD20RoundRect,0.900000X0.900000X-1.850000X0.900000X1.850000X-0.900000X1.850000X-0.900000X-1.850000X0*%
%ADD21R,1.600000X1.600000*%
%ADD22C,1.600000*%
%ADD23R,2.500000X1.800000*%
%ADD24R,1.000000X1.000000*%
%ADD25C,5.000000*%
%ADD26RoundRect,0.250000X-0.350000X-0.450000X0.350000X-0.450000X0.350000X0.450000X-0.350000X0.450000X0*%
%ADD27RoundRect,0.250000X0.350000X0.450000X-0.350000X0.450000X-0.350000X-0.450000X0.350000X-0.450000X0*%
G04 APERTURE END LIST*
D10*
X91002380Y-51626190D02*
X90764285Y-51626190D01*
X90740476Y-51864285D01*
X90764285Y-51840476D01*
X90811904Y-51816666D01*
X90930952Y-51816666D01*
X90978571Y-51840476D01*
X91002380Y-51864285D01*
X91026190Y-51911904D01*
X91026190Y-52030952D01*
X91002380Y-52078571D01*
X90978571Y-52102380D01*
X90930952Y-52126190D01*
X90811904Y-52126190D01*
X90764285Y-52102380D01*
X90740476Y-52078571D01*
X91240476Y-52078571D02*
X91264285Y-52102380D01*
X91240476Y-52126190D01*
X91216666Y-52102380D01*
X91240476Y-52078571D01*
X91240476Y-52126190D01*
X91716666Y-51626190D02*
X91478571Y-51626190D01*
X91454761Y-51864285D01*
X91478571Y-51840476D01*
X91526190Y-51816666D01*
X91645238Y-51816666D01*
X91692857Y-51840476D01*
X91716666Y-51864285D01*
X91740476Y-51911904D01*
X91740476Y-52030952D01*
X91716666Y-52078571D01*
X91692857Y-52102380D01*
X91645238Y-52126190D01*
X91526190Y-52126190D01*
X91478571Y-52102380D01*
X91454761Y-52078571D01*
X91883333Y-51626190D02*
X92050000Y-52126190D01*
X92216666Y-51626190D01*
X92383333Y-51935714D02*
X92764285Y-51935714D01*
X92954761Y-51626190D02*
X93264285Y-51626190D01*
X93097619Y-51816666D01*
X93169047Y-51816666D01*
X93216666Y-51840476D01*
X93240476Y-51864285D01*
X93264285Y-51911904D01*
X93264285Y-52030952D01*
X93240476Y-52078571D01*
X93216666Y-52102380D01*
X93169047Y-52126190D01*
X93026190Y-52126190D01*
X92978571Y-52102380D01*
X92954761Y-52078571D01*
X93692857Y-51626190D02*
X93597619Y-51626190D01*
X93550000Y-51650000D01*
X93526190Y-51673809D01*
X93478571Y-51745238D01*
X93454761Y-51840476D01*
X93454761Y-52030952D01*
X93478571Y-52078571D01*
X93502380Y-52102380D01*
X93550000Y-52126190D01*
X93645238Y-52126190D01*
X93692857Y-52102380D01*
X93716666Y-52078571D01*
X93740476Y-52030952D01*
X93740476Y-51911904D01*
X93716666Y-51864285D01*
X93692857Y-51840476D01*
X93645238Y-51816666D01*
X93550000Y-51816666D01*
X93502380Y-51840476D01*
X93478571Y-51864285D01*
X93454761Y-51911904D01*
X93883333Y-51626190D02*
X94050000Y-52126190D01*
X94216666Y-51626190D01*
X94764285Y-52126190D02*
X94764285Y-51626190D01*
X94883333Y-51626190D01*
X94954761Y-51650000D01*
X95002380Y-51697619D01*
X95026190Y-51745238D01*
X95050000Y-51840476D01*
X95050000Y-51911904D01*
X95026190Y-52007142D01*
X95002380Y-52054761D01*
X94954761Y-52102380D01*
X94883333Y-52126190D01*
X94764285Y-52126190D01*
X95550000Y-52078571D02*
X95526190Y-52102380D01*
X95454761Y-52126190D01*
X95407142Y-52126190D01*
X95335714Y-52102380D01*
X95288095Y-52054761D01*
X95264285Y-52007142D01*
X95240476Y-51911904D01*
X95240476Y-51840476D01*
X95264285Y-51745238D01*
X95288095Y-51697619D01*
X95335714Y-51650000D01*
X95407142Y-51626190D01*
X95454761Y-51626190D01*
X95526190Y-51650000D01*
X95550000Y-51673809D01*
X96121428Y-51602380D02*
X95692857Y-52245238D01*
X96454761Y-51864285D02*
X96526190Y-51888095D01*
X96550000Y-51911904D01*
X96573809Y-51959523D01*
X96573809Y-52030952D01*
X96550000Y-52078571D01*
X96526190Y-52102380D01*
X96478571Y-52126190D01*
X96288095Y-52126190D01*
X96288095Y-51626190D01*
X96454761Y-51626190D01*
X96502380Y-51650000D01*
X96526190Y-51673809D01*
X96550000Y-51721428D01*
X96550000Y-51769047D01*
X96526190Y-51816666D01*
X96502380Y-51840476D01*
X96454761Y-51864285D01*
X96288095Y-51864285D01*
X97002380Y-51792857D02*
X97002380Y-52126190D01*
X96788095Y-51792857D02*
X96788095Y-52054761D01*
X96811904Y-52102380D01*
X96859523Y-52126190D01*
X96930952Y-52126190D01*
X96978571Y-52102380D01*
X97002380Y-52078571D01*
X97454761Y-52102380D02*
X97407142Y-52126190D01*
X97311904Y-52126190D01*
X97264285Y-52102380D01*
X97240476Y-52078571D01*
X97216666Y-52030952D01*
X97216666Y-51888095D01*
X97240476Y-51840476D01*
X97264285Y-51816666D01*
X97311904Y-51792857D01*
X97407142Y-51792857D01*
X97454761Y-51816666D01*
X97669047Y-52126190D02*
X97669047Y-51626190D01*
X97716666Y-51935714D02*
X97859523Y-52126190D01*
X97859523Y-51792857D02*
X97669047Y-51983333D01*
X90657142Y-40342857D02*
X90142857Y-41114285D01*
X90942857Y-40971428D02*
X90885714Y-40942857D01*
X90857142Y-40914285D01*
X90828571Y-40857142D01*
X90828571Y-40685714D01*
X90857142Y-40628571D01*
X90885714Y-40600000D01*
X90942857Y-40571428D01*
X91028571Y-40571428D01*
X91085714Y-40600000D01*
X91114285Y-40628571D01*
X91142857Y-40685714D01*
X91142857Y-40857142D01*
X91114285Y-40914285D01*
X91085714Y-40942857D01*
X91028571Y-40971428D01*
X90942857Y-40971428D01*
X91400000Y-40971428D02*
X91400000Y-40371428D01*
X91457142Y-40742857D02*
X91628571Y-40971428D01*
X91628571Y-40571428D02*
X91400000Y-40800000D01*
X91885714Y-40742857D02*
X92342857Y-40742857D01*
X92628571Y-40971428D02*
X92628571Y-40371428D01*
X92628571Y-40600000D02*
X92685714Y-40571428D01*
X92800000Y-40571428D01*
X92857142Y-40600000D01*
X92885714Y-40628571D01*
X92914285Y-40685714D01*
X92914285Y-40857142D01*
X92885714Y-40914285D01*
X92857142Y-40942857D01*
X92800000Y-40971428D01*
X92685714Y-40971428D01*
X92628571Y-40942857D01*
X93257142Y-40971428D02*
X93200000Y-40942857D01*
X93171428Y-40885714D01*
X93171428Y-40371428D01*
X93571428Y-40971428D02*
X93514285Y-40942857D01*
X93485714Y-40914285D01*
X93457142Y-40857142D01*
X93457142Y-40685714D01*
X93485714Y-40628571D01*
X93514285Y-40600000D01*
X93571428Y-40571428D01*
X93657142Y-40571428D01*
X93714285Y-40600000D01*
X93742857Y-40628571D01*
X93771428Y-40685714D01*
X93771428Y-40857142D01*
X93742857Y-40914285D01*
X93714285Y-40942857D01*
X93657142Y-40971428D01*
X93571428Y-40971428D01*
X94114285Y-40971428D02*
X94057142Y-40942857D01*
X94028571Y-40914285D01*
X94000000Y-40857142D01*
X94000000Y-40685714D01*
X94028571Y-40628571D01*
X94057142Y-40600000D01*
X94114285Y-40571428D01*
X94200000Y-40571428D01*
X94257142Y-40600000D01*
X94285714Y-40628571D01*
X94314285Y-40685714D01*
X94314285Y-40857142D01*
X94285714Y-40914285D01*
X94257142Y-40942857D01*
X94200000Y-40971428D01*
X94114285Y-40971428D01*
X94571428Y-40971428D02*
X94571428Y-40571428D01*
X94571428Y-40628571D02*
X94600000Y-40600000D01*
X94657142Y-40571428D01*
X94742857Y-40571428D01*
X94800000Y-40600000D01*
X94828571Y-40657142D01*
X94828571Y-40971428D01*
X94828571Y-40657142D02*
X94857142Y-40600000D01*
X94914285Y-40571428D01*
X95000000Y-40571428D01*
X95057142Y-40600000D01*
X95085714Y-40657142D01*
X95085714Y-40971428D01*
X95600000Y-40942857D02*
X95542857Y-40971428D01*
X95428571Y-40971428D01*
X95371428Y-40942857D01*
X95342857Y-40885714D01*
X95342857Y-40657142D01*
X95371428Y-40600000D01*
X95428571Y-40571428D01*
X95542857Y-40571428D01*
X95600000Y-40600000D01*
X95628571Y-40657142D01*
X95628571Y-40714285D01*
X95342857Y-40771428D01*
X95885714Y-40971428D02*
X95885714Y-40571428D01*
X95885714Y-40685714D02*
X95914285Y-40628571D01*
X95942857Y-40600000D01*
X96000000Y-40571428D01*
X96057142Y-40571428D01*
D11*
X84761904Y-44947619D02*
X84809523Y-44900000D01*
X84904761Y-44852380D01*
X85142857Y-44852380D01*
X85238095Y-44900000D01*
X85285714Y-44947619D01*
X85333333Y-45042857D01*
X85333333Y-45138095D01*
X85285714Y-45280952D01*
X84714285Y-45852380D01*
X85333333Y-45852380D01*
X85714285Y-44947619D02*
X85761904Y-44900000D01*
X85857142Y-44852380D01*
X86095238Y-44852380D01*
X86190476Y-44900000D01*
X86238095Y-44947619D01*
X86285714Y-45042857D01*
X86285714Y-45138095D01*
X86238095Y-45280952D01*
X85666666Y-45852380D01*
X86285714Y-45852380D01*
X87428571Y-44804761D02*
X86571428Y-46090476D01*
X87714285Y-44947619D02*
X87761904Y-44900000D01*
X87857142Y-44852380D01*
X88095238Y-44852380D01*
X88190476Y-44900000D01*
X88238095Y-44947619D01*
X88285714Y-45042857D01*
X88285714Y-45138095D01*
X88238095Y-45280952D01*
X87666666Y-45852380D01*
X88285714Y-45852380D01*
X88619047Y-44852380D02*
X89238095Y-44852380D01*
X88904761Y-45233333D01*
X89047619Y-45233333D01*
X89142857Y-45280952D01*
X89190476Y-45328571D01*
X89238095Y-45423809D01*
X89238095Y-45661904D01*
X89190476Y-45757142D01*
X89142857Y-45804761D01*
X89047619Y-45852380D01*
X88761904Y-45852380D01*
X88666666Y-45804761D01*
X88619047Y-45757142D01*
X97083333Y-58357142D02*
X97035714Y-58404761D01*
X96892857Y-58452380D01*
X96797619Y-58452380D01*
X96654761Y-58404761D01*
X96559523Y-58309523D01*
X96511904Y-58214285D01*
X96464285Y-58023809D01*
X96464285Y-57880952D01*
X96511904Y-57690476D01*
X96559523Y-57595238D01*
X96654761Y-57500000D01*
X96797619Y-57452380D01*
X96892857Y-57452380D01*
X97035714Y-57500000D01*
X97083333Y-57547619D01*
X98035714Y-58452380D02*
X97464285Y-58452380D01*
X97750000Y-58452380D02*
X97750000Y-57452380D01*
X97654761Y-57595238D01*
X97559523Y-57690476D01*
X97464285Y-57738095D01*
X101216666Y-42602380D02*
X101216666Y-43316666D01*
X101169047Y-43459523D01*
X101073809Y-43554761D01*
X100930952Y-43602380D01*
X100835714Y-43602380D01*
X101645238Y-42697619D02*
X101692857Y-42650000D01*
X101788095Y-42602380D01*
X102026190Y-42602380D01*
X102121428Y-42650000D01*
X102169047Y-42697619D01*
X102216666Y-42792857D01*
X102216666Y-42888095D01*
X102169047Y-43030952D01*
X101597619Y-43602380D01*
X102216666Y-43602380D01*
X101433333Y-51757142D02*
X101385714Y-51804761D01*
X101242857Y-51852380D01*
X101147619Y-51852380D01*
X101004761Y-51804761D01*
X100909523Y-51709523D01*
X100861904Y-51614285D01*
X100814285Y-51423809D01*
X100814285Y-51280952D01*
X100861904Y-51090476D01*
X100909523Y-50995238D01*
X101004761Y-50900000D01*
X101147619Y-50852380D01*
X101242857Y-50852380D01*
X101385714Y-50900000D01*
X101433333Y-50947619D01*
X101814285Y-50947619D02*
X101861904Y-50900000D01*
X101957142Y-50852380D01*
X102195238Y-50852380D01*
X102290476Y-50900000D01*
X102338095Y-50947619D01*
X102385714Y-51042857D01*
X102385714Y-51138095D01*
X102338095Y-51280952D01*
X101766666Y-51852380D01*
X102385714Y-51852380D01*
X108188095Y-52052380D02*
X108188095Y-52861904D01*
X108235714Y-52957142D01*
X108283333Y-53004761D01*
X108378571Y-53052380D01*
X108569047Y-53052380D01*
X108664285Y-53004761D01*
X108711904Y-52957142D01*
X108759523Y-52861904D01*
X108759523Y-52052380D01*
X109759523Y-53052380D02*
X109188095Y-53052380D01*
X109473809Y-53052380D02*
X109473809Y-52052380D01*
X109378571Y-52195238D01*
X109283333Y-52290476D01*
X109188095Y-52338095D01*
X107908333Y-62527380D02*
X107432142Y-62527380D01*
X107432142Y-61527380D01*
X108765476Y-62527380D02*
X108194047Y-62527380D01*
X108479761Y-62527380D02*
X108479761Y-61527380D01*
X108384523Y-61670238D01*
X108289285Y-61765476D01*
X108194047Y-61813095D01*
X120381733Y-58523142D02*
X120334114Y-58570761D01*
X120191257Y-58618380D01*
X120096019Y-58618380D01*
X119953161Y-58570761D01*
X119857923Y-58475523D01*
X119810304Y-58380285D01*
X119762685Y-58189809D01*
X119762685Y-58046952D01*
X119810304Y-57856476D01*
X119857923Y-57761238D01*
X119953161Y-57666000D01*
X120096019Y-57618380D01*
X120191257Y-57618380D01*
X120334114Y-57666000D01*
X120381733Y-57713619D01*
X121286495Y-57618380D02*
X120810304Y-57618380D01*
X120762685Y-58094571D01*
X120810304Y-58046952D01*
X120905542Y-57999333D01*
X121143638Y-57999333D01*
X121238876Y-58046952D01*
X121286495Y-58094571D01*
X121334114Y-58189809D01*
X121334114Y-58427904D01*
X121286495Y-58523142D01*
X121238876Y-58570761D01*
X121143638Y-58618380D01*
X120905542Y-58618380D01*
X120810304Y-58570761D01*
X120762685Y-58523142D01*
X113333333Y-54257142D02*
X113285714Y-54304761D01*
X113142857Y-54352380D01*
X113047619Y-54352380D01*
X112904761Y-54304761D01*
X112809523Y-54209523D01*
X112761904Y-54114285D01*
X112714285Y-53923809D01*
X112714285Y-53780952D01*
X112761904Y-53590476D01*
X112809523Y-53495238D01*
X112904761Y-53400000D01*
X113047619Y-53352380D01*
X113142857Y-53352380D01*
X113285714Y-53400000D01*
X113333333Y-53447619D01*
X113666666Y-53352380D02*
X114285714Y-53352380D01*
X113952380Y-53733333D01*
X114095238Y-53733333D01*
X114190476Y-53780952D01*
X114238095Y-53828571D01*
X114285714Y-53923809D01*
X114285714Y-54161904D01*
X114238095Y-54257142D01*
X114190476Y-54304761D01*
X114095238Y-54352380D01*
X113809523Y-54352380D01*
X113714285Y-54304761D01*
X113666666Y-54257142D01*
X105836904Y-57552380D02*
X105836904Y-56552380D01*
X106075000Y-56552380D01*
X106217857Y-56600000D01*
X106313095Y-56695238D01*
X106360714Y-56790476D01*
X106408333Y-56980952D01*
X106408333Y-57123809D01*
X106360714Y-57314285D01*
X106313095Y-57409523D01*
X106217857Y-57504761D01*
X106075000Y-57552380D01*
X105836904Y-57552380D01*
X107360714Y-57552380D02*
X106789285Y-57552380D01*
X107075000Y-57552380D02*
X107075000Y-56552380D01*
X106979761Y-56695238D01*
X106884523Y-56790476D01*
X106789285Y-56838095D01*
X100238095Y-56952380D02*
X100809523Y-56952380D01*
X100523809Y-57952380D02*
X100523809Y-56952380D01*
X101142857Y-57952380D02*
X101142857Y-56952380D01*
X101523809Y-56952380D01*
X101619047Y-57000000D01*
X101666666Y-57047619D01*
X101714285Y-57142857D01*
X101714285Y-57285714D01*
X101666666Y-57380952D01*
X101619047Y-57428571D01*
X101523809Y-57476190D01*
X101142857Y-57476190D01*
X102666666Y-57952380D02*
X102095238Y-57952380D01*
X102380952Y-57952380D02*
X102380952Y-56952380D01*
X102285714Y-57095238D01*
X102190476Y-57190476D01*
X102095238Y-57238095D01*
X110069333Y-41251142D02*
X110021714Y-41298761D01*
X109878857Y-41346380D01*
X109783619Y-41346380D01*
X109640761Y-41298761D01*
X109545523Y-41203523D01*
X109497904Y-41108285D01*
X109450285Y-40917809D01*
X109450285Y-40774952D01*
X109497904Y-40584476D01*
X109545523Y-40489238D01*
X109640761Y-40394000D01*
X109783619Y-40346380D01*
X109878857Y-40346380D01*
X110021714Y-40394000D01*
X110069333Y-40441619D01*
X110926476Y-40679714D02*
X110926476Y-41346380D01*
X110688380Y-40298761D02*
X110450285Y-41013047D01*
X111069333Y-41013047D01*
X105833333Y-42902380D02*
X105500000Y-42426190D01*
X105261904Y-42902380D02*
X105261904Y-41902380D01*
X105642857Y-41902380D01*
X105738095Y-41950000D01*
X105785714Y-41997619D01*
X105833333Y-42092857D01*
X105833333Y-42235714D01*
X105785714Y-42330952D01*
X105738095Y-42378571D01*
X105642857Y-42426190D01*
X105261904Y-42426190D01*
X106214285Y-41997619D02*
X106261904Y-41950000D01*
X106357142Y-41902380D01*
X106595238Y-41902380D01*
X106690476Y-41950000D01*
X106738095Y-41997619D01*
X106785714Y-42092857D01*
X106785714Y-42188095D01*
X106738095Y-42330952D01*
X106166666Y-42902380D01*
X106785714Y-42902380D01*
X101166666Y-60372380D02*
X101166666Y-61086666D01*
X101119047Y-61229523D01*
X101023809Y-61324761D01*
X100880952Y-61372380D01*
X100785714Y-61372380D01*
X102166666Y-61372380D02*
X101595238Y-61372380D01*
X101880952Y-61372380D02*
X101880952Y-60372380D01*
X101785714Y-60515238D01*
X101690476Y-60610476D01*
X101595238Y-60658095D01*
X118816666Y-60352380D02*
X118816666Y-61066666D01*
X118769047Y-61209523D01*
X118673809Y-61304761D01*
X118530952Y-61352380D01*
X118435714Y-61352380D01*
X119197619Y-60352380D02*
X119816666Y-60352380D01*
X119483333Y-60733333D01*
X119626190Y-60733333D01*
X119721428Y-60780952D01*
X119769047Y-60828571D01*
X119816666Y-60923809D01*
X119816666Y-61161904D01*
X119769047Y-61257142D01*
X119721428Y-61304761D01*
X119626190Y-61352380D01*
X119340476Y-61352380D01*
X119245238Y-61304761D01*
X119197619Y-61257142D01*
X86566666Y-50182380D02*
X86566666Y-50896666D01*
X86519047Y-51039523D01*
X86423809Y-51134761D01*
X86280952Y-51182380D01*
X86185714Y-51182380D01*
X87471428Y-50515714D02*
X87471428Y-51182380D01*
X87233333Y-50134761D02*
X86995238Y-50849047D01*
X87614285Y-50849047D01*
X105833333Y-44902380D02*
X105500000Y-44426190D01*
X105261904Y-44902380D02*
X105261904Y-43902380D01*
X105642857Y-43902380D01*
X105738095Y-43950000D01*
X105785714Y-43997619D01*
X105833333Y-44092857D01*
X105833333Y-44235714D01*
X105785714Y-44330952D01*
X105738095Y-44378571D01*
X105642857Y-44426190D01*
X105261904Y-44426190D01*
X106785714Y-44902380D02*
X106214285Y-44902380D01*
X106500000Y-44902380D02*
X106500000Y-43902380D01*
X106404761Y-44045238D01*
X106309523Y-44140476D01*
X106214285Y-44188095D01*
X123633333Y-45957142D02*
X123585714Y-46004761D01*
X123442857Y-46052380D01*
X123347619Y-46052380D01*
X123204761Y-46004761D01*
X123109523Y-45909523D01*
X123061904Y-45814285D01*
X123014285Y-45623809D01*
X123014285Y-45480952D01*
X123061904Y-45290476D01*
X123109523Y-45195238D01*
X123204761Y-45100000D01*
X123347619Y-45052380D01*
X123442857Y-45052380D01*
X123585714Y-45100000D01*
X123633333Y-45147619D01*
X124490476Y-45052380D02*
X124300000Y-45052380D01*
X124204761Y-45100000D01*
X124157142Y-45147619D01*
X124061904Y-45290476D01*
X124014285Y-45480952D01*
X124014285Y-45861904D01*
X124061904Y-45957142D01*
X124109523Y-46004761D01*
X124204761Y-46052380D01*
X124395238Y-46052380D01*
X124490476Y-46004761D01*
X124538095Y-45957142D01*
X124585714Y-45861904D01*
X124585714Y-45623809D01*
X124538095Y-45528571D01*
X124490476Y-45480952D01*
X124395238Y-45433333D01*
X124204761Y-45433333D01*
X124109523Y-45480952D01*
X124061904Y-45528571D01*
X124014285Y-45623809D01*
D12*
X98495563Y-57160000D02*
X95710000Y-57160000D01*
X90815000Y-58025000D02*
X92065000Y-58025000D01*
X88840000Y-56095563D02*
X88840000Y-46440000D01*
X91440000Y-58650000D02*
X91440000Y-57400000D01*
X98495563Y-57160000D02*
X99560000Y-56095563D01*
X99560000Y-46440000D02*
X95710000Y-46440000D01*
X89904437Y-57160000D02*
X88840000Y-56095563D01*
X99560000Y-56095563D02*
X99560000Y-46440000D01*
X88840000Y-46440000D02*
X92690000Y-46440000D01*
X89904437Y-57160000D02*
X92690000Y-57160000D01*
X100190000Y-41810000D02*
X100190000Y-43140000D01*
X97590000Y-41810000D02*
X89910000Y-41810000D01*
X97590000Y-41810000D02*
X97590000Y-44470000D01*
X98860000Y-41810000D02*
X100190000Y-41810000D01*
X89910000Y-41810000D02*
X89910000Y-44470000D01*
X97590000Y-44470000D02*
X89910000Y-44470000D01*
X102335000Y-48961252D02*
X102335000Y-48438748D01*
X100865000Y-48961252D02*
X100865000Y-48438748D01*
D11*
X104625000Y-46525000D02*
X104625000Y-46670000D01*
X108775000Y-46525000D02*
X104625000Y-46525000D01*
X108775000Y-51675000D02*
X104625000Y-51675000D01*
X108775000Y-51675000D02*
X108775000Y-51625000D01*
X104625000Y-51675000D02*
X104625000Y-51530000D01*
X108775000Y-46525000D02*
X108775000Y-46670000D01*
D12*
X109240000Y-51640000D02*
G75*
G03*
X109240000Y-51640000I0J0D01*
G01*
X109325000Y-62631000D02*
X109325000Y-62000000D01*
X117625000Y-62631000D02*
X109325000Y-62631000D01*
X109325000Y-55525000D02*
X117625000Y-55525000D01*
X117625000Y-62000000D02*
X117625000Y-62631000D01*
X117625000Y-55525000D02*
X117625000Y-56156000D01*
X109325000Y-56156000D02*
X109325000Y-55525000D01*
X120744000Y-56071000D02*
X120744000Y-53379000D01*
X121744000Y-57632000D02*
X121744000Y-51818000D01*
X122304000Y-53685000D02*
X122304000Y-51360000D01*
X123184000Y-53685000D02*
X123184000Y-50904000D01*
X121944000Y-53685000D02*
X121944000Y-51635000D01*
X122424000Y-58169000D02*
X122424000Y-55765000D01*
X121984000Y-53685000D02*
X121984000Y-51601000D01*
X122384000Y-53685000D02*
X122384000Y-51307000D01*
X123544000Y-53685000D02*
X123544000Y-50789000D01*
X123344000Y-53685000D02*
X123344000Y-50848000D01*
X121424000Y-57281000D02*
X121424000Y-52169000D01*
X120704000Y-55954000D02*
X120704000Y-53496000D01*
X122344000Y-53685000D02*
X122344000Y-51333000D01*
X122984000Y-58465000D02*
X122984000Y-55765000D01*
X124585000Y-58805000D02*
X124585000Y-50645000D01*
X121384000Y-57230000D02*
X121384000Y-52220000D01*
X121144000Y-56891000D02*
X121144000Y-52559000D01*
X122904000Y-53685000D02*
X122904000Y-51021000D01*
X121104000Y-56827000D02*
X121104000Y-52623000D01*
X122504000Y-58218000D02*
X122504000Y-55765000D01*
X123024000Y-58482000D02*
X123024000Y-55765000D01*
X122104000Y-57945000D02*
X122104000Y-55765000D01*
X122424000Y-53685000D02*
X122424000Y-51281000D01*
X124145000Y-58777000D02*
X124145000Y-50673000D01*
X122744000Y-53685000D02*
X122744000Y-51098000D01*
X123264000Y-58575000D02*
X123264000Y-55765000D01*
X123985000Y-58755000D02*
X123985000Y-50695000D01*
X123184000Y-58546000D02*
X123184000Y-55765000D01*
X123104000Y-53685000D02*
X123104000Y-50935000D01*
X123504000Y-53685000D02*
X123504000Y-50800000D01*
X123584000Y-58672000D02*
X123584000Y-55765000D01*
X123784000Y-58719000D02*
X123784000Y-55765000D01*
X122024000Y-57881000D02*
X122024000Y-55765000D01*
X121584000Y-57466000D02*
X121584000Y-51984000D01*
X121264000Y-57070000D02*
X121264000Y-52380000D01*
X121064000Y-56759000D02*
X121064000Y-52691000D01*
X123424000Y-53685000D02*
X123424000Y-50823000D01*
X123104000Y-58515000D02*
X123104000Y-55765000D01*
X123464000Y-53685000D02*
X123464000Y-50811000D01*
X123144000Y-58530000D02*
X123144000Y-55765000D01*
X123784000Y-53685000D02*
X123784000Y-50731000D01*
X123704000Y-53685000D02*
X123704000Y-50749000D01*
X121344000Y-57179000D02*
X121344000Y-52271000D01*
X124225000Y-58786000D02*
X124225000Y-50664000D01*
X120864000Y-56370000D02*
X120864000Y-53080000D01*
X122024000Y-53685000D02*
X122024000Y-51569000D01*
X122824000Y-53685000D02*
X122824000Y-51059000D01*
X123744000Y-58710000D02*
X123744000Y-55765000D01*
X122624000Y-53685000D02*
X122624000Y-51163000D01*
X123064000Y-53685000D02*
X123064000Y-50951000D01*
X123424000Y-58627000D02*
X123424000Y-55765000D01*
X123384000Y-58614000D02*
X123384000Y-55765000D01*
X122784000Y-53685000D02*
X122784000Y-51078000D01*
X122744000Y-58352000D02*
X122744000Y-55765000D01*
X122464000Y-53685000D02*
X122464000Y-51256000D01*
X124065000Y-58767000D02*
X124065000Y-50683000D01*
X124305000Y-58793000D02*
X124305000Y-50657000D01*
X123304000Y-53685000D02*
X123304000Y-50862000D01*
X124025000Y-58762000D02*
X124025000Y-50688000D01*
X123864000Y-53685000D02*
X123864000Y-50715000D01*
X123704000Y-58701000D02*
X123704000Y-55765000D01*
X123664000Y-53685000D02*
X123664000Y-50758000D01*
X122984000Y-53685000D02*
X122984000Y-50985000D01*
X124465000Y-58802000D02*
X124465000Y-50648000D01*
X123664000Y-58692000D02*
X123664000Y-55765000D01*
X120944000Y-56538000D02*
X120944000Y-52912000D01*
X123904000Y-53685000D02*
X123904000Y-50708000D01*
X123344000Y-58602000D02*
X123344000Y-55765000D01*
X121544000Y-57422000D02*
X121544000Y-52028000D01*
X122544000Y-53685000D02*
X122544000Y-51208000D01*
X122264000Y-58063000D02*
X122264000Y-55765000D01*
X122344000Y-58117000D02*
X122344000Y-55765000D01*
X121184000Y-56953000D02*
X121184000Y-52497000D01*
X128275000Y-58225000D02*
X127475000Y-58225000D01*
X121304000Y-57125000D02*
X121304000Y-52325000D01*
X123624000Y-58682000D02*
X123624000Y-55765000D01*
X120784000Y-56178000D02*
X120784000Y-53272000D01*
X122144000Y-57975000D02*
X122144000Y-55765000D01*
X121864000Y-53685000D02*
X121864000Y-51706000D01*
X121904000Y-57780000D02*
X121904000Y-55765000D01*
X120544000Y-55258000D02*
X120544000Y-54192000D01*
X121704000Y-57592000D02*
X121704000Y-51858000D01*
X122704000Y-58331000D02*
X122704000Y-55765000D01*
X122784000Y-58372000D02*
X122784000Y-55765000D01*
X122264000Y-53685000D02*
X122264000Y-51387000D01*
X122464000Y-58194000D02*
X122464000Y-55765000D01*
X123544000Y-58661000D02*
X123544000Y-55765000D01*
X122864000Y-58411000D02*
X122864000Y-55765000D01*
X122184000Y-58005000D02*
X122184000Y-55765000D01*
X123464000Y-58639000D02*
X123464000Y-55765000D01*
X121824000Y-57708000D02*
X121824000Y-51742000D01*
X121504000Y-57376000D02*
X121504000Y-52074000D01*
X123304000Y-58588000D02*
X123304000Y-55765000D01*
X121224000Y-57012000D02*
X121224000Y-52438000D01*
X121624000Y-57509000D02*
X121624000Y-51941000D01*
X120984000Y-56615000D02*
X120984000Y-52835000D01*
X123144000Y-53685000D02*
X123144000Y-50920000D01*
X122224000Y-53685000D02*
X122224000Y-51416000D01*
X122144000Y-53685000D02*
X122144000Y-51475000D01*
X120824000Y-56277000D02*
X120824000Y-53173000D01*
X121664000Y-57551000D02*
X121664000Y-51899000D01*
X123504000Y-58650000D02*
X123504000Y-55765000D01*
X121984000Y-57849000D02*
X121984000Y-55765000D01*
X124625000Y-58805000D02*
X124625000Y-50645000D01*
X122944000Y-53685000D02*
X122944000Y-51003000D01*
X120664000Y-55823000D02*
X120664000Y-53627000D01*
X122904000Y-58429000D02*
X122904000Y-55765000D01*
X120584000Y-55493000D02*
X120584000Y-53957000D01*
X122584000Y-53685000D02*
X122584000Y-51185000D01*
X123624000Y-53685000D02*
X123624000Y-50768000D01*
X122704000Y-53685000D02*
X122704000Y-51119000D01*
X123384000Y-53685000D02*
X123384000Y-50836000D01*
X123584000Y-53685000D02*
X123584000Y-50778000D01*
X122384000Y-58143000D02*
X122384000Y-55765000D01*
X122184000Y-53685000D02*
X122184000Y-51445000D01*
X124265000Y-58790000D02*
X124265000Y-50660000D01*
X121024000Y-56689000D02*
X121024000Y-52761000D01*
X121464000Y-57329000D02*
X121464000Y-52121000D01*
X123264000Y-53685000D02*
X123264000Y-50875000D01*
X122064000Y-57914000D02*
X122064000Y-55765000D01*
X122104000Y-53685000D02*
X122104000Y-51505000D01*
X122664000Y-53685000D02*
X122664000Y-51141000D01*
X123904000Y-58742000D02*
X123904000Y-55765000D01*
X123824000Y-53685000D02*
X123824000Y-50723000D01*
X123224000Y-53685000D02*
X123224000Y-50890000D01*
X122664000Y-58309000D02*
X122664000Y-55765000D01*
X122504000Y-53685000D02*
X122504000Y-51232000D01*
X123945000Y-58749000D02*
X123945000Y-50701000D01*
X122544000Y-58242000D02*
X122544000Y-55765000D01*
X120624000Y-55673000D02*
X120624000Y-53777000D01*
X127875000Y-58625000D02*
X127875000Y-57825000D01*
X120904000Y-56456000D02*
X120904000Y-52994000D01*
X124185000Y-58782000D02*
X124185000Y-50668000D01*
X121864000Y-57744000D02*
X121864000Y-55765000D01*
X123024000Y-53685000D02*
X123024000Y-50968000D01*
X122864000Y-53685000D02*
X122864000Y-51039000D01*
X121904000Y-53685000D02*
X121904000Y-51670000D01*
X123824000Y-58727000D02*
X123824000Y-55765000D01*
X124425000Y-58801000D02*
X124425000Y-50649000D01*
X122584000Y-58265000D02*
X122584000Y-55765000D01*
X123744000Y-53685000D02*
X123744000Y-50740000D01*
X123864000Y-58735000D02*
X123864000Y-55765000D01*
X124105000Y-58773000D02*
X124105000Y-50677000D01*
X124545000Y-58805000D02*
X124545000Y-50645000D01*
X122824000Y-58391000D02*
X122824000Y-55765000D01*
X122944000Y-58447000D02*
X122944000Y-55765000D01*
X123224000Y-58560000D02*
X123224000Y-55765000D01*
X124385000Y-58799000D02*
X124385000Y-50651000D01*
X122624000Y-58287000D02*
X122624000Y-55765000D01*
X122224000Y-58034000D02*
X122224000Y-55765000D01*
X121944000Y-57815000D02*
X121944000Y-55765000D01*
X124345000Y-58796000D02*
X124345000Y-50654000D01*
X122064000Y-53685000D02*
X122064000Y-51536000D01*
X122304000Y-58090000D02*
X122304000Y-55765000D01*
X123064000Y-58499000D02*
X123064000Y-55765000D01*
X124505000Y-58804000D02*
X124505000Y-50646000D01*
X121784000Y-57670000D02*
X121784000Y-51780000D01*
X128745000Y-54725000D02*
G75*
G03*
X128745000Y-54725000I-4120000J0D01*
G01*
X112235000Y-53686252D02*
X112235000Y-53163748D01*
X110765000Y-53686252D02*
X110765000Y-53163748D01*
X102300000Y-52850000D02*
X102300000Y-56150000D01*
X102300000Y-56150000D02*
X107700000Y-56150000D01*
X102300000Y-52850000D02*
X107700000Y-52850000D01*
X103300000Y-58100000D02*
X103300000Y-56700000D01*
X103300000Y-56700000D02*
X104700000Y-56700000D01*
X104700000Y-56700000D02*
X104700000Y-58100000D01*
X104700000Y-58100000D02*
X103300000Y-58100000D01*
X113890000Y-52750000D02*
X113890000Y-51500000D01*
X112354437Y-51260000D02*
X111290000Y-50195563D01*
X111290000Y-40540000D02*
X115140000Y-40540000D01*
X111290000Y-50195563D02*
X111290000Y-40540000D01*
X120945563Y-51260000D02*
X122010000Y-50195563D01*
X122010000Y-50195563D02*
X122010000Y-40540000D01*
X113265000Y-52125000D02*
X114515000Y-52125000D01*
X112354437Y-51260000D02*
X115140000Y-51260000D01*
X122010000Y-40540000D02*
X118160000Y-40540000D01*
X120945563Y-51260000D02*
X118160000Y-51260000D01*
X108772936Y-41865000D02*
X109227064Y-41865000D01*
X108772936Y-43335000D02*
X109227064Y-43335000D01*
X100190000Y-59590000D02*
X100190000Y-60920000D01*
X97590000Y-59590000D02*
X97590000Y-62250000D01*
X97590000Y-59590000D02*
X89910000Y-59590000D01*
X97590000Y-62250000D02*
X89910000Y-62250000D01*
X89910000Y-59590000D02*
X89910000Y-62250000D01*
X98860000Y-59590000D02*
X100190000Y-59590000D01*
X125530000Y-59590000D02*
X120390000Y-59590000D01*
X125530000Y-62250000D02*
X120390000Y-62250000D01*
X128130000Y-59590000D02*
X128130000Y-60920000D01*
X126800000Y-59590000D02*
X128130000Y-59590000D01*
X125530000Y-59590000D02*
X125530000Y-62250000D01*
X120390000Y-59590000D02*
X120390000Y-62250000D01*
X85570000Y-57370000D02*
X88230000Y-57370000D01*
X86900000Y-52170000D02*
X88230000Y-52170000D01*
X85570000Y-54770000D02*
X88230000Y-54770000D01*
X88230000Y-52170000D02*
X88230000Y-53500000D01*
X88230000Y-54770000D02*
X88230000Y-57370000D01*
X85570000Y-54770000D02*
X85570000Y-57370000D01*
X109227064Y-43865000D02*
X108772936Y-43865000D01*
X109227064Y-45335000D02*
X108772936Y-45335000D01*
X124535000Y-48561252D02*
X124535000Y-48038748D01*
X123065000Y-48561252D02*
X123065000Y-48038748D01*
G36*
X89224797Y-41776444D02*
G01*
X89304733Y-41776608D01*
X89373307Y-41776893D01*
X89431183Y-41777311D01*
X89479023Y-41777874D01*
X89517493Y-41778592D01*
X89547256Y-41779476D01*
X89568975Y-41780538D01*
X89583316Y-41781787D01*
X89590940Y-41783236D01*
X89592411Y-41784007D01*
X89596637Y-41789635D01*
X89598797Y-41797331D01*
X89598622Y-41808827D01*
X89595847Y-41825854D01*
X89590204Y-41850142D01*
X89581425Y-41883423D01*
X89571554Y-41919160D01*
X89560024Y-41959369D01*
X89550675Y-41989054D01*
X89542802Y-42010047D01*
X89535696Y-42024182D01*
X89528650Y-42033290D01*
X89526856Y-42034961D01*
X89510484Y-42049238D01*
X89003573Y-42049238D01*
X89003573Y-42461678D01*
X89233905Y-42461678D01*
X89299005Y-42461798D01*
X89352277Y-42462174D01*
X89394581Y-42462835D01*
X89426777Y-42463807D01*
X89449724Y-42465119D01*
X89464284Y-42466798D01*
X89471315Y-42468872D01*
X89471852Y-42469293D01*
X89474860Y-42477151D01*
X89477072Y-42494455D01*
X89478537Y-42522076D01*
X89479310Y-42560883D01*
X89479466Y-42595838D01*
X89479411Y-42637455D01*
X89479111Y-42668218D01*
X89478366Y-42689966D01*
X89476974Y-42704535D01*
X89474735Y-42713763D01*
X89471446Y-42719487D01*
X89466908Y-42723543D01*
X89465364Y-42724646D01*
X89460103Y-42727310D01*
X89451867Y-42729459D01*
X89439388Y-42731146D01*
X89421398Y-42732424D01*
X89396630Y-42733345D01*
X89363818Y-42733963D01*
X89321694Y-42734329D01*
X89268990Y-42734497D01*
X89227417Y-42734524D01*
X89003573Y-42734524D01*
X89003573Y-43223107D01*
X89288332Y-43223107D01*
X89356361Y-43223142D01*
X89412810Y-43223273D01*
X89458790Y-43223540D01*
X89495412Y-43223983D01*
X89523785Y-43224641D01*
X89545020Y-43225553D01*
X89560228Y-43226761D01*
X89570519Y-43228303D01*
X89577004Y-43230219D01*
X89580794Y-43232549D01*
X89581799Y-43233600D01*
X89585106Y-43240705D01*
X89587522Y-43253916D01*
X89589154Y-43274766D01*
X89590108Y-43304788D01*
X89590489Y-43345516D01*
X89590508Y-43359530D01*
X89590272Y-43403645D01*
X89589495Y-43436610D01*
X89588071Y-43459959D01*
X89585892Y-43475224D01*
X89582855Y-43483940D01*
X89581799Y-43485460D01*
X89579296Y-43487493D01*
X89574820Y-43489248D01*
X89567490Y-43490744D01*
X89556428Y-43492002D01*
X89540752Y-43493042D01*
X89519585Y-43493885D01*
X89492045Y-43494550D01*
X89457254Y-43495058D01*
X89414332Y-43495429D01*
X89362399Y-43495684D01*
X89300575Y-43495842D01*
X89227981Y-43495925D01*
X89143738Y-43495952D01*
X89126981Y-43495953D01*
X89040172Y-43495930D01*
X88965181Y-43495847D01*
X88901134Y-43495687D01*
X88847158Y-43495429D01*
X88802380Y-43495054D01*
X88765928Y-43494544D01*
X88736927Y-43493880D01*
X88714506Y-43493042D01*
X88697791Y-43492011D01*
X88685909Y-43490768D01*
X88677986Y-43489294D01*
X88673151Y-43487571D01*
X88670901Y-43485982D01*
X88669463Y-43483636D01*
X88668169Y-43479201D01*
X88667011Y-43472046D01*
X88665982Y-43461539D01*
X88665073Y-43447049D01*
X88664279Y-43427944D01*
X88663591Y-43403592D01*
X88663002Y-43373362D01*
X88662505Y-43336623D01*
X88662092Y-43292743D01*
X88661756Y-43241090D01*
X88661489Y-43181034D01*
X88661284Y-43111942D01*
X88661134Y-43033183D01*
X88661031Y-42944125D01*
X88660967Y-42844138D01*
X88660936Y-42732588D01*
X88660930Y-42636173D01*
X88660941Y-42515072D01*
X88660978Y-42406031D01*
X88661049Y-42308417D01*
X88661162Y-42221599D01*
X88661323Y-42144945D01*
X88661540Y-42077825D01*
X88661821Y-42019606D01*
X88662173Y-41969656D01*
X88662603Y-41927345D01*
X88663119Y-41892041D01*
X88663729Y-41863112D01*
X88664439Y-41839928D01*
X88665256Y-41821855D01*
X88666190Y-41808263D01*
X88667246Y-41798521D01*
X88668432Y-41791996D01*
X88669756Y-41788058D01*
X88670901Y-41786364D01*
X88673864Y-41784436D01*
X88679201Y-41782770D01*
X88687779Y-41781347D01*
X88700465Y-41780150D01*
X88718126Y-41779158D01*
X88741631Y-41778354D01*
X88771845Y-41777718D01*
X88809636Y-41777231D01*
X88855871Y-41776876D01*
X88911418Y-41776634D01*
X88977143Y-41776485D01*
X89053914Y-41776411D01*
X89132834Y-41776392D01*
X89224797Y-41776444D01*
G37*
G36*
X87410891Y-41776568D02*
G01*
X87471510Y-41777073D01*
X87527866Y-41777871D01*
X87578300Y-41778926D01*
X87621152Y-41780205D01*
X87654764Y-41781671D01*
X87677476Y-41783289D01*
X87678755Y-41783423D01*
X87768613Y-41797221D01*
X87849526Y-41818526D01*
X87921808Y-41847713D01*
X87985775Y-41885155D01*
X88041743Y-41931225D01*
X88090028Y-41986297D01*
X88130946Y-42050745D01*
X88164811Y-42124943D01*
X88191941Y-42209264D01*
X88212650Y-42304082D01*
X88227254Y-42409770D01*
X88229779Y-42435609D01*
X88232527Y-42477085D01*
X88234215Y-42527153D01*
X88234895Y-42583213D01*
X88234622Y-42642660D01*
X88233450Y-42702892D01*
X88231433Y-42761307D01*
X88228624Y-42815301D01*
X88225078Y-42862272D01*
X88220849Y-42899617D01*
X88220058Y-42904868D01*
X88200258Y-43006152D01*
X88174411Y-43096572D01*
X88142243Y-43176565D01*
X88103482Y-43246566D01*
X88057853Y-43307014D01*
X88005084Y-43358344D01*
X87944901Y-43400993D01*
X87892142Y-43428739D01*
X87854251Y-43444844D01*
X87816755Y-43457849D01*
X87775408Y-43469043D01*
X87725963Y-43479720D01*
X87721834Y-43480531D01*
X87706278Y-43483162D01*
X87687906Y-43485399D01*
X87665487Y-43487290D01*
X87637790Y-43488884D01*
X87603584Y-43490228D01*
X87561637Y-43491371D01*
X87510717Y-43492361D01*
X87449595Y-43493246D01*
X87377037Y-43494074D01*
X87375465Y-43494090D01*
X87306524Y-43494771D01*
X87249166Y-43495245D01*
X87202284Y-43495482D01*
X87164771Y-43495456D01*
X87135522Y-43495139D01*
X87113429Y-43494504D01*
X87097386Y-43493524D01*
X87086287Y-43492170D01*
X87079025Y-43490415D01*
X87074494Y-43488232D01*
X87072480Y-43486562D01*
X87070964Y-43484356D01*
X87069599Y-43480503D01*
X87068378Y-43474366D01*
X87067292Y-43465305D01*
X87066335Y-43452683D01*
X87065498Y-43435861D01*
X87064773Y-43414201D01*
X87064152Y-43387065D01*
X87063627Y-43353814D01*
X87063190Y-43313810D01*
X87062835Y-43266416D01*
X87062623Y-43224951D01*
X87404572Y-43224951D01*
X87498164Y-43221289D01*
X87536257Y-43219198D01*
X87572457Y-43216125D01*
X87603348Y-43212425D01*
X87625512Y-43208453D01*
X87628012Y-43207818D01*
X87680054Y-43189577D01*
X87724841Y-43164554D01*
X87762879Y-43131976D01*
X87794673Y-43091065D01*
X87820730Y-43041046D01*
X87841554Y-42981144D01*
X87857651Y-42910583D01*
X87868288Y-42839220D01*
X87871056Y-42807797D01*
X87873172Y-42766782D01*
X87874636Y-42718809D01*
X87875447Y-42666514D01*
X87875605Y-42612530D01*
X87875109Y-42559491D01*
X87873958Y-42510032D01*
X87872153Y-42466785D01*
X87869693Y-42432386D01*
X87868364Y-42420434D01*
X87855476Y-42342334D01*
X87838555Y-42275604D01*
X87817309Y-42219489D01*
X87791447Y-42173235D01*
X87760677Y-42136084D01*
X87757288Y-42132812D01*
X87728107Y-42107911D01*
X87698091Y-42088521D01*
X87665064Y-42073947D01*
X87626853Y-42063497D01*
X87581282Y-42056474D01*
X87526177Y-42052186D01*
X87501337Y-42051094D01*
X87404572Y-42047539D01*
X87404572Y-43224951D01*
X87062623Y-43224951D01*
X87062551Y-43210992D01*
X87062332Y-43146901D01*
X87062170Y-43073505D01*
X87062057Y-42990164D01*
X87061984Y-42896241D01*
X87061944Y-42791098D01*
X87061930Y-42674096D01*
X87061929Y-42636173D01*
X87061940Y-42515072D01*
X87061977Y-42406031D01*
X87062048Y-42308417D01*
X87062161Y-42221599D01*
X87062322Y-42144945D01*
X87062539Y-42077825D01*
X87062685Y-42047539D01*
X87062820Y-42019606D01*
X87063172Y-41969656D01*
X87063603Y-41927345D01*
X87064119Y-41892041D01*
X87064728Y-41863112D01*
X87065438Y-41839928D01*
X87066256Y-41821855D01*
X87067189Y-41808263D01*
X87068245Y-41798521D01*
X87069431Y-41791996D01*
X87070755Y-41788058D01*
X87071900Y-41786364D01*
X87075593Y-41783893D01*
X87082026Y-41781860D01*
X87092342Y-41780224D01*
X87107685Y-41778942D01*
X87129195Y-41777974D01*
X87158017Y-41777279D01*
X87195293Y-41776815D01*
X87242164Y-41776540D01*
X87299775Y-41776414D01*
X87347669Y-41776392D01*
X87410891Y-41776568D01*
G37*
G36*
X87126493Y-39777643D02*
G01*
X87314527Y-39777649D01*
X87490656Y-39777661D01*
X87655275Y-39777681D01*
X87808778Y-39777712D01*
X87951556Y-39777755D01*
X88084005Y-39777813D01*
X88206516Y-39777888D01*
X88319484Y-39777981D01*
X88423302Y-39778095D01*
X88518364Y-39778231D01*
X88605062Y-39778392D01*
X88683790Y-39778580D01*
X88754941Y-39778797D01*
X88818909Y-39779045D01*
X88876088Y-39779326D01*
X88926869Y-39779642D01*
X88971648Y-39779994D01*
X89010817Y-39780386D01*
X89044770Y-39780819D01*
X89073900Y-39781296D01*
X89098600Y-39781817D01*
X89119264Y-39782386D01*
X89136285Y-39783004D01*
X89150057Y-39783673D01*
X89160973Y-39784396D01*
X89169425Y-39785175D01*
X89175809Y-39786011D01*
X89180517Y-39786906D01*
X89183942Y-39787863D01*
X89186478Y-39788884D01*
X89187525Y-39789414D01*
X89205498Y-39802021D01*
X89223759Y-39819231D01*
X89228670Y-39824899D01*
X89247865Y-39848613D01*
X89249555Y-40393876D01*
X89249836Y-40490343D01*
X89250035Y-40574895D01*
X89250140Y-40648310D01*
X89250140Y-40711362D01*
X89250024Y-40764828D01*
X89249779Y-40809485D01*
X89249396Y-40846107D01*
X89248861Y-40875472D01*
X89248164Y-40898355D01*
X89247294Y-40915532D01*
X89246238Y-40927780D01*
X89244986Y-40935874D01*
X89243525Y-40940591D01*
X89241846Y-40942706D01*
X89241464Y-40942893D01*
X89231430Y-40942252D01*
X89212324Y-40937391D01*
X89186661Y-40929262D01*
X89156955Y-40918818D01*
X89125721Y-40907012D01*
X89095475Y-40894798D01*
X89068732Y-40883128D01*
X89048006Y-40872956D01*
X89035814Y-40865235D01*
X89035299Y-40864768D01*
X89019436Y-40849704D01*
X89017718Y-40427887D01*
X89015999Y-40006070D01*
X84834749Y-40006070D01*
X84834749Y-44193929D01*
X87030203Y-44193929D01*
X87228358Y-44193930D01*
X87414220Y-44193933D01*
X87588183Y-44193941D01*
X87750644Y-44193956D01*
X87902000Y-44193980D01*
X88042646Y-44194016D01*
X88172978Y-44194066D01*
X88293393Y-44194133D01*
X88404287Y-44194217D01*
X88506056Y-44194323D01*
X88599097Y-44194452D01*
X88683805Y-44194606D01*
X88760576Y-44194787D01*
X88829808Y-44194998D01*
X88891895Y-44195242D01*
X88947234Y-44195520D01*
X88996222Y-44195835D01*
X89039254Y-44196189D01*
X89076727Y-44196584D01*
X89109037Y-44197022D01*
X89136580Y-44197506D01*
X89159752Y-44198039D01*
X89178949Y-44198622D01*
X89194568Y-44199257D01*
X89207005Y-44199948D01*
X89216655Y-44200695D01*
X89223916Y-44201502D01*
X89229183Y-44202371D01*
X89232852Y-44203304D01*
X89235320Y-44204303D01*
X89236983Y-44205371D01*
X89238237Y-44206510D01*
X89238347Y-44206620D01*
X89243374Y-44212707D01*
X89246874Y-44220685D01*
X89249120Y-44232770D01*
X89250381Y-44251179D01*
X89250929Y-44278127D01*
X89251037Y-44310333D01*
X89250911Y-44346340D01*
X89250340Y-44371863D01*
X89249040Y-44389109D01*
X89246724Y-44400284D01*
X89243107Y-44407592D01*
X89237903Y-44413241D01*
X89237681Y-44413443D01*
X89236288Y-44414520D01*
X89234303Y-44415531D01*
X89231335Y-44416479D01*
X89226994Y-44417366D01*
X89220889Y-44418194D01*
X89212629Y-44418965D01*
X89201825Y-44419682D01*
X89188084Y-44420347D01*
X89171017Y-44420961D01*
X89150233Y-44421529D01*
X89125341Y-44422050D01*
X89095951Y-44422529D01*
X89061672Y-44422966D01*
X89022114Y-44423365D01*
X88976886Y-44423727D01*
X88925596Y-44424055D01*
X88867856Y-44424352D01*
X88803273Y-44424618D01*
X88731458Y-44424857D01*
X88652020Y-44425071D01*
X88564568Y-44425261D01*
X88468711Y-44425431D01*
X88364060Y-44425583D01*
X88250222Y-44425718D01*
X88126809Y-44425839D01*
X87993428Y-44425949D01*
X87849690Y-44426048D01*
X87695204Y-44426141D01*
X87529579Y-44426229D01*
X87352425Y-44426313D01*
X87163351Y-44426397D01*
X86967671Y-44426481D01*
X86798998Y-44426538D01*
X86633492Y-44426568D01*
X86471608Y-44426570D01*
X86313801Y-44426546D01*
X86160529Y-44426496D01*
X86012246Y-44426422D01*
X85869409Y-44426323D01*
X85732474Y-44426201D01*
X85601896Y-44426057D01*
X85478132Y-44425891D01*
X85361638Y-44425705D01*
X85252869Y-44425498D01*
X85152281Y-44425272D01*
X85060331Y-44425027D01*
X84977474Y-44424765D01*
X84904167Y-44424486D01*
X84840864Y-44424191D01*
X84788023Y-44423880D01*
X84746099Y-44423555D01*
X84715548Y-44423216D01*
X84696825Y-44422864D01*
X84690482Y-44422541D01*
X84664185Y-44411394D01*
X84638344Y-44392426D01*
X84618082Y-44369614D01*
X84614246Y-44363336D01*
X84613252Y-44361078D01*
X84612320Y-44357787D01*
X84611447Y-44353072D01*
X84610631Y-44346542D01*
X84609870Y-44337805D01*
X84609162Y-44326470D01*
X84608505Y-44312144D01*
X84607898Y-44294438D01*
X84607339Y-44272958D01*
X84606824Y-44247314D01*
X84606354Y-44217114D01*
X84605925Y-44181966D01*
X84605536Y-44141479D01*
X84605185Y-44095262D01*
X84604870Y-44042922D01*
X84604589Y-43984069D01*
X84604339Y-43918311D01*
X84604121Y-43845256D01*
X84603930Y-43764513D01*
X84603766Y-43675690D01*
X84603626Y-43578396D01*
X84603508Y-43472239D01*
X84603412Y-43356828D01*
X84603334Y-43231771D01*
X84603272Y-43096676D01*
X84603226Y-42951153D01*
X84603192Y-42794810D01*
X84603169Y-42627254D01*
X84603156Y-42448095D01*
X84603149Y-42256941D01*
X84603148Y-42100000D01*
X84603148Y-39856957D01*
X84617977Y-39833106D01*
X84633069Y-39814842D01*
X84652975Y-39797867D01*
X84659779Y-39793448D01*
X84686751Y-39777642D01*
X86926163Y-39777642D01*
X87126493Y-39777643D01*
G37*
G36*
X86451605Y-41776602D02*
G01*
X86493093Y-41777260D01*
X86523748Y-41778410D01*
X86544497Y-41780097D01*
X86556264Y-41782363D01*
X86559386Y-41784007D01*
X86560624Y-41791466D01*
X86561761Y-41810575D01*
X86562796Y-41840291D01*
X86563729Y-41879574D01*
X86564560Y-41927383D01*
X86565287Y-41982676D01*
X86565909Y-42044412D01*
X86566427Y-42111551D01*
X86566839Y-42183051D01*
X86567145Y-42257871D01*
X86567344Y-42334970D01*
X86567435Y-42413307D01*
X86567417Y-42491840D01*
X86567291Y-42569529D01*
X86567055Y-42645332D01*
X86566708Y-42718209D01*
X86566250Y-42787118D01*
X86565681Y-42851018D01*
X86564999Y-42908868D01*
X86564203Y-42959627D01*
X86563294Y-43002254D01*
X86562270Y-43035707D01*
X86561131Y-43058946D01*
X86560238Y-43068776D01*
X86543769Y-43156732D01*
X86519525Y-43234761D01*
X86487224Y-43303177D01*
X86446587Y-43362293D01*
X86397333Y-43412423D01*
X86339182Y-43453880D01*
X86271855Y-43486978D01*
X86195069Y-43512030D01*
X86155948Y-43521051D01*
X86113078Y-43527869D01*
X86061568Y-43533042D01*
X86005382Y-43536413D01*
X85948482Y-43537820D01*
X85894832Y-43537106D01*
X85848396Y-43534110D01*
X85843643Y-43533606D01*
X85754213Y-43518820D01*
X85674070Y-43495396D01*
X85603172Y-43463299D01*
X85541480Y-43422494D01*
X85488952Y-43372948D01*
X85445546Y-43314627D01*
X85411223Y-43247497D01*
X85385940Y-43171522D01*
X85380200Y-43147404D01*
X85376082Y-43127486D01*
X85372436Y-43107135D01*
X85369233Y-43085494D01*
X85366445Y-43061706D01*
X85364044Y-43034915D01*
X85362003Y-43004263D01*
X85360293Y-42968893D01*
X85358887Y-42927950D01*
X85357757Y-42880575D01*
X85356875Y-42825912D01*
X85356213Y-42763104D01*
X85355743Y-42691294D01*
X85355438Y-42609626D01*
X85355268Y-42517242D01*
X85355208Y-42413286D01*
X85355207Y-42379190D01*
X85355250Y-42276670D01*
X85355371Y-42186175D01*
X85355578Y-42107042D01*
X85355880Y-42038605D01*
X85356288Y-41980201D01*
X85356810Y-41931164D01*
X85357455Y-41890830D01*
X85358232Y-41858534D01*
X85359151Y-41833612D01*
X85360221Y-41815400D01*
X85361450Y-41803233D01*
X85362849Y-41796446D01*
X85363268Y-41795428D01*
X85371289Y-41779565D01*
X85524413Y-41777867D01*
X85573265Y-41777418D01*
X85610978Y-41777342D01*
X85639099Y-41777718D01*
X85659176Y-41778626D01*
X85672757Y-41780146D01*
X85681390Y-41782357D01*
X85686622Y-41785338D01*
X85687620Y-41786252D01*
X85689332Y-41788890D01*
X85690842Y-41793671D01*
X85692162Y-41801352D01*
X85693306Y-41812687D01*
X85694286Y-41828431D01*
X85695115Y-41849341D01*
X85695805Y-41876170D01*
X85696371Y-41909674D01*
X85696824Y-41950609D01*
X85697177Y-41999730D01*
X85697444Y-42057792D01*
X85697636Y-42125550D01*
X85697768Y-42203759D01*
X85697851Y-42293176D01*
X85697898Y-42390748D01*
X85697996Y-42486215D01*
X85698221Y-42576692D01*
X85698563Y-42661380D01*
X85699017Y-42739482D01*
X85699573Y-42810198D01*
X85700224Y-42872731D01*
X85700962Y-42926283D01*
X85701778Y-42970056D01*
X85702666Y-43003251D01*
X85703617Y-43025070D01*
X85704262Y-43032750D01*
X85714711Y-43091139D01*
X85729876Y-43138817D01*
X85750441Y-43177108D01*
X85777088Y-43207333D01*
X85804832Y-43227552D01*
X85839714Y-43244586D01*
X85878571Y-43255705D01*
X85924207Y-43261502D01*
X85970548Y-43262688D01*
X86031482Y-43258174D01*
X86083138Y-43245369D01*
X86126248Y-43223775D01*
X86161549Y-43192896D01*
X86189773Y-43152237D01*
X86211655Y-43101302D01*
X86212299Y-43099375D01*
X86213744Y-43092666D01*
X86215056Y-43081251D01*
X86216246Y-43064474D01*
X86217326Y-43041680D01*
X86218307Y-43012216D01*
X86219201Y-42975427D01*
X86220019Y-42930656D01*
X86220774Y-42877251D01*
X86221477Y-42814557D01*
X86222140Y-42741917D01*
X86222774Y-42658679D01*
X86223391Y-42564186D01*
X86224002Y-42457786D01*
X86224121Y-42435682D01*
X86224716Y-42328949D01*
X86225300Y-42234226D01*
X86225889Y-42150834D01*
X86226493Y-42078093D01*
X86227126Y-42015323D01*
X86227800Y-41961844D01*
X86228528Y-41916977D01*
X86229323Y-41880042D01*
X86230197Y-41850358D01*
X86231164Y-41827246D01*
X86232235Y-41810026D01*
X86233425Y-41798019D01*
X86234744Y-41790544D01*
X86236206Y-41786921D01*
X86236238Y-41786881D01*
X86240258Y-41783556D01*
X86247124Y-41781006D01*
X86258376Y-41779132D01*
X86275557Y-41777835D01*
X86300207Y-41777014D01*
X86333868Y-41776570D01*
X86378081Y-41776404D01*
X86398359Y-41776392D01*
X86451605Y-41776602D01*
G37*
%LPC*%
D13*
X94200000Y-56000000D03*
X94200000Y-47600000D03*
D14*
X98860000Y-43140000D03*
D15*
X96320000Y-43140000D03*
X93780000Y-43140000D03*
X91240000Y-43140000D03*
D16*
X101600000Y-49737500D03*
X101600000Y-47662500D03*
D17*
X106700000Y-49100000D03*
D18*
X109400000Y-51005000D03*
X109400000Y-49735000D03*
X109400000Y-48465000D03*
X109400000Y-47195000D03*
X104000000Y-47195000D03*
X104000000Y-48465000D03*
X104000000Y-49735000D03*
X104000000Y-51005000D03*
D19*
X116115000Y-59075000D03*
D20*
X110835000Y-59075000D03*
D21*
X126375000Y-54725000D03*
D22*
X122875000Y-54725000D03*
D16*
X111500000Y-54462500D03*
X111500000Y-52387500D03*
D23*
X103700000Y-54500000D03*
X107700000Y-54500000D03*
D24*
X104000000Y-57400000D03*
D25*
X126150000Y-42000000D03*
D13*
X116650000Y-50100000D03*
X116650000Y-41700000D03*
D26*
X108000000Y-42600000D03*
X110000000Y-42600000D03*
D14*
X98860000Y-60920000D03*
D15*
X96320000Y-60920000D03*
X93780000Y-60920000D03*
X91240000Y-60920000D03*
D25*
X86800000Y-60500000D03*
D14*
X126800000Y-60920000D03*
D15*
X124260000Y-60920000D03*
X121720000Y-60920000D03*
D14*
X86900000Y-53500000D03*
D15*
X86900000Y-56040000D03*
D27*
X110000000Y-44600000D03*
X108000000Y-44600000D03*
D16*
X123800000Y-49337500D03*
X123800000Y-47262500D03*
M02*
